<?xml version="1.0" encoding="UTF-8" standalone="no"?>
<!-- Created with Inkscape (http://www.inkscape.org/) -->

<svg
   xmlns:ns0="http://www.iki.fi/pav/software/textext/"
   xmlns:dc="http://purl.org/dc/elements/1.1/"
   xmlns:cc="http://creativecommons.org/ns#"
   xmlns:rdf="http://www.w3.org/1999/02/22-rdf-syntax-ns#"
   xmlns:svg="http://www.w3.org/2000/svg"
   xmlns="http://www.w3.org/2000/svg"
   xmlns:sodipodi="http://sodipodi.sourceforge.net/DTD/sodipodi-0.dtd"
   xmlns:inkscape="http://www.inkscape.org/namespaces/inkscape"
   width="792pt"
   height="612pt"
   id="svg7380"
   version="1.1"
   inkscape:version="0.48.1 r9760"
   sodipodi:docname="Documento nuevo 6">
  <sodipodi:namedview
     inkscape:document-units="in"
     pagecolor="#ffffff"
     bordercolor="#666666"
     borderopacity="1.0"
     inkscape:pageopacity="0.0"
     inkscape:pageshadow="2"
     inkscape:zoom="0.81960784"
     inkscape:cx="495"
     inkscape:cy="431.30383"
     inkscape:current-layer="layer1"
     id="namedview7384"
     showgrid="false"
     inkscape:window-width="1440"
     inkscape:window-height="848"
     inkscape:window-x="0"
     inkscape:window-y="0"
     inkscape:window-maximized="1" />
  <defs
     id="defs7382" />
  <metadata
     id="metadata7386">
    <rdf:RDF>
      <cc:Work
         rdf:about="">
        <dc:format>image/svg+xml</dc:format>
        <dc:type
           rdf:resource="http://purl.org/dc/dcmitype/StillImage" />
        <dc:title></dc:title>
      </cc:Work>
    </rdf:RDF>
  </metadata>
  <g
     id="layer1"
     inkscape:groupmode="layer"
     inkscape:label="Layer 1">
    <g
       style="visibility:visible"
       transform="matrix(0.0368898,0,0,0.03767479,19.669985,-27.025561)"
       id="page1"
       visibility="visible">
      <desc
         id="desc213">Slide</desc>
      <g
         id="g215">
        <desc
           id="desc217">Drawing</desc>
        <g
           id="g219">
          <g
             id="g221"
             style="fill:none;stroke:#ff0000;stroke-width:200;stroke-linejoin:round">
            <path
               inkscape:connector-curvature="0"
               id="path223"
               d="M 12800,6300 8600,4200"
               style="fill:none" />
          </g>
          <g
             id="g225"
             style="fill:#ff0000;stroke:none">
            <path
               inkscape:connector-curvature="0"
               id="path227"
               d="m 8885,3989 93,-47 -1178,-141 821,857 -18,-99 0,-108 18,-108 40,-107 59,-98 78,-82 87,-67 z" />
          </g>
          <g
             id="g229" />
        </g>
      </g>
      <g
         id="g231">
        <desc
           id="desc233">Drawing</desc>
        <g
           id="g235">
          <g
             id="g237"
             style="fill:none;stroke:#000000;stroke-width:100;stroke-linejoin:round">
            <path
               inkscape:connector-curvature="0"
               id="path239"
               d="m 12729,6299 c 33,17 65,34 97,50"
               style="fill:none" />
            <path
               inkscape:connector-curvature="0"
               id="path241"
               d="m 13261,6575 c 31,17 62,33 93,49"
               style="fill:none" />
            <path
               inkscape:connector-curvature="0"
               id="path243"
               d="m 13770,6840 c 30,16 60,31 89,47"
               style="fill:none" />
            <path
               inkscape:connector-curvature="0"
               id="path245"
               d="m 14257,7094 c 29,15 57,30 85,44"
               style="fill:none" />
            <path
               inkscape:connector-curvature="0"
               id="path247"
               d="m 14722,7337 c 27,14 54,28 81,42"
               style="fill:none" />
            <path
               inkscape:connector-curvature="0"
               id="path249"
               d="m 15227,7601 c 31,16 63,33 94,49"
               style="fill:none" />
            <path
               inkscape:connector-curvature="0"
               id="path251"
               d="m 15740,7870 c 29,16 59,31 88,47"
               style="fill:none" />
            <path
               inkscape:connector-curvature="0"
               id="path253"
               d="m 16222,8124 c 28,15 56,29 83,44"
               style="fill:none" />
            <path
               inkscape:connector-curvature="0"
               id="path255"
               d="m 16681,8366 c 33,18 66,35 98,52"
               style="fill:none" />
            <path
               inkscape:connector-curvature="0"
               id="path257"
               d="m 17210,8646 c 30,16 60,32 90,48"
               style="fill:none" />
            <path
               inkscape:connector-curvature="0"
               id="path259"
               d="m 17695,8904 c 28,15 55,30 83,44"
               style="fill:none" />
            <path
               inkscape:connector-curvature="0"
               id="path261"
               d="m 18167,9157 c 33,17 65,34 97,52"
               style="fill:none" />
            <path
               inkscape:connector-curvature="0"
               id="path263"
               d="m 18680,9432 c 29,16 57,31 85,46"
               style="fill:none" />
            <path
               inkscape:connector-curvature="0"
               id="path265"
               d="m 19137,9680 c 34,19 68,37 100,55"
               style="fill:none" />
            <path
               inkscape:connector-curvature="0"
               id="path267"
               d="m 19651,9961 c 27,15 54,30 81,45"
               style="fill:none" />
            <path
               inkscape:connector-curvature="0"
               id="path269"
               d="m 20135,10230 c 30,16 59,33 88,49"
               style="fill:none" />
            <path
               inkscape:connector-curvature="0"
               id="path271"
               d="m 20615,10502 c 29,17 57,34 83,49"
               style="fill:none" />
            <path
               inkscape:connector-curvature="0"
               id="path273"
               d="m 21074,10781 c 21,14 26,19 26,19"
               style="fill:none" />
          </g>
          <g
             id="g275" />
        </g>
      </g>
      <g
         id="g277">
        <desc
           id="desc279">Drawing</desc>
        <g
           id="g281">
          <g
             id="g283"
             style="fill:none;stroke:#000000;stroke-width:100;stroke-linejoin:round">
            <path
               inkscape:connector-curvature="0"
               id="path285"
               d="M 12144,6916 4334,15703"
               style="fill:none" />
          </g>
          <g
             id="g287"
             style="fill:#000000;stroke:none">
            <path
               inkscape:connector-curvature="0"
               id="path289"
               d="m 12250,7184 17,84 359,-896 -845,464 81,7 85,23 81,36 75,54 65,67 48,79 34,82 z" />
          </g>
          <g
             id="g291" />
        </g>
      </g>
      <g
         id="g293">
        <desc
           id="desc295">Drawing</desc>
        <g
           id="g297">
          <g
             id="g299"
             style="fill:none;stroke:#000000;stroke-width:100;stroke-linejoin:round">
            <path
               inkscape:connector-curvature="0"
               id="path301"
               d="M 4500,15700 20245,11094"
               style="fill:none" />
          </g>
          <g
             id="g303"
             style="fill:#000000;stroke:none">
            <path
               inkscape:connector-curvature="0"
               id="path305"
               d="m 20192,11377 -30,80 780,-568 -963,-56 66,49 59,64 49,74 36,87 18,90 0,92 -15,88 z" />
          </g>
          <g
             id="g307" />
        </g>
      </g>
      <g
         id="g309">
        <desc
           id="desc311">OLE2</desc>
        <g
           id="g313">
          <g
             id="g315"
             style="font-size:1406px;font-weight:400;font-family:StarSymbol embedded">
            <g
               id="g317"
               style="fill:none;stroke:none">
              <text
                 id="text319">
                <tspan
                   id="tspan321"
                   y="10598"
                   x="7713"></tspan>
              </text>
            </g>
          </g>
          <g
             id="g323"
             style="font-size:1406px;font-weight:400;font-family:Times New Roman embedded">
            <g
               id="g325"
               style="fill:none;stroke:none">
              <g
                 id="g327"
                 transform="matrix(1,0,-0.17632698,1,1858.839,0)">
                <text
                   id="text329">
                  <tspan
                     id="tspan331"
                     y="10542"
                     x="7827">x</tspan>
                </text>
              </g>
            </g>
          </g>
        </g>
      </g>
      <g
         id="g333">
        <desc
           id="desc335">OLE2</desc>
        <g
           id="g337">
          <g
             id="g339"
             style="font-size:1406px;font-weight:400;font-family:StarSymbol embedded">
            <g
               id="g341"
               style="fill:none;stroke:none">
              <text
                 id="text343">
                <tspan
                   id="tspan345"
                   y="14598"
                   x="13714"></tspan>
              </text>
            </g>
          </g>
          <g
             id="g347"
             style="font-size:1406px;font-weight:400;font-family:Times New Roman embedded">
            <g
               id="g349"
               style="fill:none;stroke:none">
              <g
                 id="g351"
                 transform="matrix(1,0,-0.17632698,1,2564.147,0)">
                <text
                   id="text353">
                  <tspan
                     id="tspan355"
                     y="14542"
                     x="13827">x</tspan>
                </text>
              </g>
              <g
                 id="g357"
                 transform="matrix(1,0,-0.17632698,1,2564.147,0)">
                <text
                   id="text359">
                  <tspan
                     id="tspan361"
                     y="14542"
                     x="14649">'</tspan>
                </text>
              </g>
            </g>
          </g>
        </g>
      </g>
      <g
         id="g363">
        <desc
           id="desc365">Drawing</desc>
        <g
           id="g367">
          <g
             id="g369"
             style="fill:#0047ff;stroke:none">
            <path
               inkscape:connector-curvature="0"
               id="path371"
               d="m 21150,10600 c 142,0 250,108 250,250 0,142 -108,250 -250,250 -142,0 -250,-108 -250,-250 0,-142 108,-250 250,-250 z m -250,0 0,0 z m 501,501 0,0 z" />
          </g>
          <g
             id="g373"
             style="fill:none;stroke:#000000">
            <path
               inkscape:connector-curvature="0"
               id="path375"
               d="m 21150,10600 c 142,0 250,108 250,250 0,142 -108,250 -250,250 -142,0 -250,-108 -250,-250 0,-142 108,-250 250,-250"
               style="fill:none" />
            <path
               inkscape:connector-curvature="0"
               id="path377"
               d="m 20900,10600 0,0"
               style="fill:none" />
            <path
               inkscape:connector-curvature="0"
               id="path379"
               d="m 21401,11101 0,0"
               style="fill:none" />
          </g>
          <g
             id="g381"
             style="fill:none;stroke:none">
            <rect
               id="rect383"
               height="501"
               width="501"
               y="10600"
               x="20900" />
          </g>
          <g
             id="g385" />
        </g>
      </g>
      <g
         id="g387">
        <desc
           id="desc389">OLE2</desc>
        <g
           id="g391">
          <g
             id="g393"
             style="font-size:1406px;font-weight:400;font-family:Times New Roman embedded">
            <g
               id="g395"
               style="fill:none;stroke:none">
              <g
                 id="g397"
                 transform="matrix(1,0,-0.17632698,1,2113.2789,0)">
                <text
                   id="text399">
                  <tspan
                     id="tspan401"
                     y="11985"
                     x="21322">q</tspan>
                </text>
              </g>
              <g
                 id="g403"
                 transform="matrix(1,0,-0.17632698,1,2113.2789,0)">
                <text
                   id="text405">
                  <tspan
                     id="tspan407"
                     y="11985"
                     x="22197">'</tspan>
                </text>
              </g>
            </g>
          </g>
        </g>
      </g>
      <g
         id="g409">
        <desc
           id="desc411">OLE2</desc>
        <g
           id="g413">
          <g
             id="g415"
             style="font-size:1406px;font-weight:400;font-family:Times New Roman embedded">
            <g
               id="g417"
               style="fill:none;stroke:none">
              <g
                 id="g419"
                 transform="matrix(1,0,-0.17632698,1,3093.1279,0)">
                <text
                   id="text421">
                  <tspan
                     id="tspan423"
                     y="17542"
                     x="3713">O</tspan>
                </text>
              </g>
            </g>
          </g>
        </g>
      </g>
      <g
         id="g425">
        <desc
           id="desc427">Drawing</desc>
        <g
           id="g429">
          <g
             id="g431"
             style="fill:#0047ff;stroke:none">
            <path
               inkscape:connector-curvature="0"
               id="path433"
               d="m 12650,6000 c 142,0 250,108 250,250 0,142 -108,250 -250,250 -142,0 -250,-108 -250,-250 0,-142 108,-250 250,-250 z m -250,0 0,0 z m 501,501 0,0 z" />
          </g>
          <g
             id="g435"
             style="fill:none;stroke:#000000">
            <path
               inkscape:connector-curvature="0"
               id="path437"
               d="m 12650,6000 c 142,0 250,108 250,250 0,142 -108,250 -250,250 -142,0 -250,-108 -250,-250 0,-142 108,-250 250,-250"
               style="fill:none" />
            <path
               inkscape:connector-curvature="0"
               id="path439"
               d="m 12400,6000 0,0"
               style="fill:none" />
            <path
               inkscape:connector-curvature="0"
               id="path441"
               d="m 12901,6501 0,0"
               style="fill:none" />
          </g>
          <g
             id="g443"
             style="fill:none;stroke:none">
            <rect
               id="rect445"
               height="501"
               width="501"
               y="6000"
               x="12400" />
          </g>
          <g
             id="g447" />
        </g>
      </g>
      <g
         id="g449">
        <desc
           id="desc451">Drawing</desc>
        <g
           id="g453">
          <g
             id="g455"
             style="fill:#0047ff;stroke:none">
            <path
               inkscape:connector-curvature="0"
               id="path457"
               d="m 4350,15500 c 142,0 250,108 250,250 0,142 -108,250 -250,250 -142,0 -250,-108 -250,-250 0,-142 108,-250 250,-250 z m -250,0 0,0 z m 501,501 0,0 z" />
          </g>
          <g
             id="g459"
             style="fill:none;stroke:#000000">
            <path
               inkscape:connector-curvature="0"
               id="path461"
               d="m 4350,15500 c 142,0 250,108 250,250 0,142 -108,250 -250,250 -142,0 -250,-108 -250,-250 0,-142 108,-250 250,-250"
               style="fill:none" />
            <path
               inkscape:connector-curvature="0"
               id="path463"
               d="m 4100,15500 0,0"
               style="fill:none" />
            <path
               inkscape:connector-curvature="0"
               id="path465"
               d="m 4601,16001 0,0"
               style="fill:none" />
          </g>
          <g
             id="g467"
             style="fill:none;stroke:none">
            <rect
               id="rect469"
               height="501"
               width="501"
               y="15500"
               x="4100" />
          </g>
          <g
             id="g471" />
        </g>
      </g>
      <g
         id="g473">
        <desc
           id="desc475">OLE2</desc>
        <g
           id="g477">
          <g
             id="g479"
             style="font-size:1406px;font-weight:400;font-family:Times New Roman embedded">
            <g
               id="g481"
               style="fill:none;stroke:none">
              <g
                 id="g483"
                 transform="matrix(1,0,-0.17632698,1,995.36581,0)">
                <text
                   id="text485">
                  <tspan
                     id="tspan487"
                     y="5645"
                     x="13059">q</tspan>
                </text>
              </g>
            </g>
          </g>
        </g>
      </g>
      <g
         id="g489">
        <desc
           id="desc491">OLE2</desc>
        <g
           id="g493">
          <g
             id="g495"
             style="font-size:1406px;font-weight:400;font-family:StarSymbol embedded">
            <g
               id="g497"
               style="fill:none;stroke:none">
              <text
                 id="text499">
                <tspan
                   id="tspan501"
                   y="3964"
                   x="6616"></tspan>
              </text>
            </g>
          </g>
          <g
             id="g503"
             style="font-size:1406px;font-weight:400;font-family:Times New Roman embedded">
            <g
               id="g505"
               style="fill:none;stroke:none">
              <g
                 id="g507"
                 transform="matrix(1,0,-0.17632698,1,745.6868,0)">
                <text
                   id="text509">
                  <tspan
                     id="tspan511"
                     y="4229"
                     x="6562">F</tspan>
                </text>
              </g>
            </g>
          </g>
        </g>
      </g>
    </g>
    <g
       style="font-style:normal;font-variant:normal;font-weight:normal;font-stretch:normal;letter-spacing:normal;word-spacing:normal;text-anchor:start;fill:#ff0000;stroke:#000000;stroke-linecap:butt;stroke-linejoin:miter;stroke-miterlimit:10.43299960999999954;stroke-opacity:1;stroke-dasharray:none;stroke-dashoffset:0"
       id="content"
       transform="matrix(5,0,0,-5,-847.48804,3646.2919)"
       xml:space="preserve"
       stroke-miterlimit="10.433"
       font-style="normal"
       font-variant="normal"
       font-weight="normal"
       font-stretch="normal"
       font-size-adjust="none"
       letter-spacing="normal"
       word-spacing="normal"
       ns0:text="$\\vec{F}$"
       ns0:preamble="">
<path
   style="fill:#ff0000;stroke-width:0"
   inkscape:connector-curvature="0"
   d="m 230.25,715.57 -0.01,-0.02 -0.01,-0.01 -0.02,-0.02 -0.02,-0.01 -0.01,-0.02 -0.02,-0.01 -0.02,-0.02 -0.02,-0.02 -0.02,-0.01 -0.02,-0.02 -0.04,-0.04 -0.03,-0.04 -0.04,-0.04 -0.02,-0.02 -0.02,-0.02 -0.02,-0.02 -0.01,-0.02 -0.02,-0.02 -0.01,-0.02 -0.02,-0.02 -0.01,-0.02 -0.01,-0.02 -0.01,-0.02 -0.01,-0.02 -0.01,-0.02 -0.01,-0.02 0,-0.02 0,-0.02 0,-0.01 c 0,-0.1 0.09,-0.2 0.2,-0.2 0.08,0 0.13,0.07 0.18,0.13 0.12,0.15 0.35,0.43 0.79,0.64 0.07,0.04 0.17,0.09 0.17,0.21 0,0.1 -0.07,0.15 -0.14,0.2 -0.22,0.15 -0.33,0.33 -0.41,0.57 -0.02,0.09 -0.06,0.22 -0.2,0.22 -0.14,0 -0.2,-0.13 -0.2,-0.21 0,-0.05 0.08,-0.37 0.24,-0.58 h -3.36 c -0.16,0 -0.35,0 -0.35,-0.2 0,-0.19 0.19,-0.19 0.35,-0.19 z"
   id="path9560" />
<path
   style="fill:#ff0000;stroke-width:0"
   inkscape:connector-curvature="0"
   d="m 226.45,710.36 h 0.97 c 0.75,0 0.83,-0.16 0.83,-0.45 0,-0.07 0,-0.19 -0.07,-0.49 -0.02,-0.05 -0.03,-0.09 -0.03,-0.1 0,-0.09 0.06,-0.12 0.12,-0.12 0.1,0 0.1,0.02 0.15,0.2 l 0.54,2.16 c 0.03,0.11 0.03,0.13 0.03,0.16 0,0.02 -0.02,0.11 -0.11,0.11 -0.11,0 -0.12,-0.05 -0.15,-0.21 -0.21,-0.77 -0.44,-0.95 -1.29,-0.95 h -0.91 l 0.64,2.53 c 0.09,0.34 0.1,0.38 0.54,0.38 h 1.31 c 1.23,0 1.46,-0.32 1.46,-1.09 0,-0.23 0,-0.27 -0.03,-0.54 -0.02,-0.13 -0.02,-0.15 -0.02,-0.18 0,-0.05 0.03,-0.12 0.12,-0.12 0.11,0 0.12,0.06 0.14,0.25 l 0.2,1.72 c 0.03,0.27 -0.02,0.27 -0.27,0.27 h -4.88 c -0.2,0 -0.3,0 -0.3,-0.2 0,-0.11 0.08,-0.11 0.27,-0.11 0.37,0 0.65,0 0.65,-0.17 0,-0.05 0,-0.07 -0.05,-0.24 L 225,707.9 c -0.1,-0.39 -0.12,-0.47 -0.91,-0.47 -0.17,0 -0.28,0 -0.28,-0.19 0,-0.12 0.12,-0.12 0.15,-0.12 0.29,0 1.03,0.04 1.32,0.04 0.32,0 1.15,-0.04 1.48,-0.04 0.09,0 0.21,0 0.21,0.19 0,0.08 -0.06,0.1 -0.06,0.11 -0.03,0.01 -0.05,0.01 -0.28,0.01 -0.22,0 -0.27,0 -0.52,0.02 -0.29,0.03 -0.32,0.07 -0.32,0.2 0,0.02 0,0.08 0.04,0.23 z"
   id="path9562" />
</g>    <g
       ns0:preamble=""
       ns0:text="$q$"
       word-spacing="normal"
       letter-spacing="normal"
       font-size-adjust="none"
       font-stretch="normal"
       font-weight="normal"
       font-variant="normal"
       font-style="normal"
       stroke-miterlimit="10.433"
       xml:space="preserve"
       transform="matrix(5,0,0,-5,-616.88995,3721.9378)"
       id="g9880"
       style="font-style:normal;font-variant:normal;font-weight:normal;font-stretch:normal;letter-spacing:normal;word-spacing:normal;text-anchor:start;fill:none;stroke:#000000;stroke-linecap:butt;stroke-linejoin:miter;stroke-miterlimit:10.43299961;stroke-opacity:1;stroke-dasharray:none;stroke-dashoffset:0">
<path
   id="path9882"
   d="m 227.94,711.41 0,0.01 0,0 0,0.01 0,0 0,0 -0.01,0.01 0,0 0,0.01 0,0 0,0 0,0.01 -0.01,0 0,0.01 0,0 0,0.01 -0.01,0 0,0 0,0.01 -0.01,0 0,0 0,0.01 -0.01,0 0,0 -0.01,0 0,0.01 -0.01,0 0,0 -0.01,0 0,0 -0.01,0 -0.01,0 0,0 c -0.11,0 -0.51,-0.39 -0.68,-0.68 -0.22,0.53 -0.61,0.69 -0.93,0.69 v -0.22 c 0.65,0 0.79,-0.8 0.79,-0.87 0,-0.06 -0.55,-2.24 -0.58,-2.28 -0.15,-0.28 -0.7,-0.92 -1.26,-0.92 h 0 c -0.6,0 -0.64,0.77 -0.64,0.94 0,0.48 0.29,1.56 0.46,1.98 0.31,0.74 0.82,1.15 1.23,1.15 v 0.22 c -1.17,0 -2.4,-1.47 -2.4,-2.91 0,-0.98 0.59,-1.59 1.32,-1.59 0.42,0 0.81,0.23 1.17,0.59 -0.09,-0.35 -0.42,-1.69 -0.45,-1.78 -0.08,-0.28 -0.16,-0.32 -0.71,-0.33 -0.13,0 -0.23,0 -0.23,-0.2 0,-0.01 0,-0.11 0.13,-0.11 0.32,0 0.67,0.03 0.99,0.03 0.34,0 0.7,-0.03 1.03,-0.03 0.05,0 0.18,0 0.18,0.2 0,0.11 -0.1,0.11 -0.26,0.11 -0.48,0 -0.48,0.07 -0.48,0.16 0,0.07 0.02,0.13 0.04,0.22 z"
   inkscape:connector-curvature="0"
   style="fill:#000000;stroke-width:0" />
</g>    <g
       id="g10225"
       transform="matrix(5,0,0,-5,-297.31973,3900.4832)"
       xml:space="preserve"
       stroke="black"
       stroke-linecap="butt"
       stroke-linejoin="miter"
       stroke-miterlimit="10.433"
       stroke-dasharray="none"
       stroke-dashoffset="0"
       stroke-opacity="1"
       fill="none"
       fill-rule="evenodd"
       fill-opacity="1"
       font-style="normal"
       font-variant="normal"
       font-weight="normal"
       font-stretch="normal"
       font-size-adjust="none"
       letter-spacing="normal"
       word-spacing="normal"
       text-anchor="start"
       ns0:text="$q\'$"
       ns0:preamble=""
       style="font-style:normal;font-variant:normal;font-weight:normal;font-stretch:normal;letter-spacing:normal;word-spacing:normal;text-anchor:start;fill:none;stroke:#000000;stroke-linecap:butt;stroke-linejoin:miter;stroke-miterlimit:10.43299961;stroke-opacity:1;stroke-dasharray:none;stroke-dashoffset:0">
<path
   d="M227.94,711.41 L227.94,711.42 L227.94,711.42 L227.94,711.43 L227.94,711.43 L227.94,711.43 L227.93,711.44 L227.93,711.44 L227.93,711.45 L227.93,711.45 L227.93,711.45 L227.93,711.46 L227.92,711.46 L227.92,711.47 L227.92,711.47 L227.92,711.48 L227.91,711.48 L227.91,711.48 L227.91,711.49 L227.9,711.49 L227.9,711.49 L227.9,711.5 L227.89,711.5 L227.89,711.5 L227.88,711.5 L227.88,711.51 L227.87,711.51 L227.87,711.51 L227.86,711.51 L227.86,711.51 L227.85,711.51 L227.84,711.51 L227.84,711.51 C227.73,711.51,227.33,711.12,227.16,710.83 C226.94,711.36,226.55,711.52,226.23,711.52 V711.3 C226.88,711.3,227.02,710.5,227.02,710.43 C227.02,710.37,226.47,708.19,226.44,708.15 C226.29,707.87,225.74,707.23,225.18,707.23 H225.18 C224.58,707.23,224.54,708,224.54,708.17 C224.54,708.65,224.83,709.73,225,710.15 C225.31,710.89,225.82,711.3,226.23,711.3 V711.52 C225.06,711.52,223.83,710.05,223.83,708.61 C223.83,707.63,224.42,707.02,225.15,707.02 C225.57,707.02,225.96,707.25,226.32,707.61 C226.23,707.26,225.9,705.92,225.87,705.83 C225.79,705.55,225.71,705.51,225.16,705.5 C225.03,705.5,224.93,705.5,224.93,705.3 C224.93,705.29,224.93,705.19,225.06,705.19 C225.38,705.19,225.73,705.22,226.05,705.22 C226.39,705.22,226.75,705.19,227.08,705.19 C227.13,705.19,227.26,705.19,227.26,705.39 C227.26,705.5,227.16,705.5,227,705.5 C226.52,705.5,226.52,705.57,226.52,705.66 C226.52,705.73,226.54,705.79,226.56,705.88 Z "
   stroke-width="0"
   fill="black"
   id="path10227" />
<path
   d="M230.26,714.02 L230.26,714.03 L230.27,714.04 L230.27,714.05 L230.28,714.06 L230.28,714.07 L230.28,714.08 L230.29,714.09 L230.29,714.1 L230.29,714.11 L230.3,714.12 L230.3,714.12 L230.3,714.13 L230.3,714.14 L230.31,714.15 L230.31,714.15 L230.31,714.16 L230.31,714.17 L230.31,714.17 L230.31,714.18 L230.31,714.18 L230.31,714.19 L230.32,714.2 L230.32,714.2 L230.32,714.21 L230.32,714.22 L230.32,714.23 L230.32,714.24 L230.32,714.24 C230.32,714.46,230.12,714.63,229.91,714.63 C229.64,714.63,229.56,714.41,229.52,714.3 L228.61,711.29 C228.6,711.28,228.57,711.18,228.57,711.18 C228.57,711.09,228.79,711.03,228.84,711.03 C228.89,711.03,228.9,711.04,228.95,711.14 Z "
   stroke-width="0"
   fill="black"
   id="path10229" />
</g>    <g
       ns0:preamble=""
       ns0:text="$\\vec{x}$"
       word-spacing="normal"
       letter-spacing="normal"
       font-size-adjust="none"
       font-stretch="normal"
       font-weight="normal"
       font-variant="normal"
       font-style="normal"
       stroke-miterlimit="10.433"
       xml:space="preserve"
       transform="matrix(5,0,0,-5,-826.74641,3917.1531)"
       id="g10557"
       style="font-style:normal;font-variant:normal;font-weight:normal;font-stretch:normal;letter-spacing:normal;word-spacing:normal;text-anchor:start;fill:none;stroke:#000000;stroke-linecap:butt;stroke-linejoin:miter;stroke-miterlimit:10.43299961;stroke-opacity:1;stroke-dasharray:none;stroke-dashoffset:0">
<path
   id="path10559"
   d="m 228.65,713.05 -0.01,-0.02 -0.02,-0.01 -0.01,-0.01 -0.02,-0.02 -0.02,-0.01 -0.01,-0.02 -0.02,-0.02 -0.02,-0.01 -0.02,-0.02 -0.02,-0.02 -0.04,-0.04 -0.04,-0.04 -0.03,-0.04 -0.02,-0.02 -0.02,-0.02 -0.02,-0.02 -0.01,-0.02 -0.02,-0.02 -0.02,-0.02 -0.01,-0.02 -0.01,-0.02 -0.01,-0.02 -0.01,-0.02 -0.01,-0.02 -0.01,-0.02 -0.01,-0.02 0,-0.02 -0.01,-0.01 0,-0.02 c 0,-0.1 0.1,-0.2 0.2,-0.2 0.09,0 0.14,0.07 0.19,0.13 0.12,0.15 0.35,0.43 0.79,0.65 0.07,0.04 0.17,0.09 0.17,0.21 0,0.09 -0.07,0.15 -0.14,0.2 -0.22,0.14 -0.33,0.32 -0.41,0.56 -0.02,0.09 -0.06,0.22 -0.2,0.22 -0.14,0 -0.2,-0.13 -0.2,-0.21 0,-0.05 0.08,-0.37 0.24,-0.57 h -3.36 c -0.17,0 -0.35,0 -0.35,-0.2 0,-0.2 0.18,-0.2 0.35,-0.2 z"
   inkscape:connector-curvature="0"
   style="fill:#000000;stroke-width:0" />
<path
   id="path10561"
   d="m 226.76,710.13 0,0.03 0.01,0.03 0.01,0.03 0.01,0.04 0.01,0.03 0.01,0.05 0.01,0.04 0.02,0.04 0.02,0.05 0.01,0.05 0.02,0.05 0.02,0.05 0.02,0.05 0.03,0.05 0.02,0.05 0.03,0.04 0.03,0.05 0.03,0.05 0.04,0.05 0.03,0.04 0.04,0.04 0.04,0.04 0.04,0.04 0.04,0.04 0.05,0.03 0.05,0.03 0.03,0.01 0.02,0.01 0.03,0.02 0.02,0.01 0.03,0 0.03,0.01 0.03,0.01 0.03,0 0.03,0.01 0.03,0 0.03,0 0.03,0 c 0.05,0 0.29,0 0.5,-0.12 -0.28,-0.05 -0.48,-0.3 -0.48,-0.54 0,-0.16 0.11,-0.35 0.38,-0.35 0.22,0 0.54,0.18 0.54,0.58 0,0.52 -0.59,0.65 -0.92,0.65 -0.58,0 -0.93,-0.52 -1.05,-0.75 -0.25,0.65 -0.79,0.75 -1.08,0.75 -1.03,0 -1.6,-1.28 -1.6,-1.53 0,-0.1 0.1,-0.1 0.12,-0.1 0.08,0 0.11,0.02 0.13,0.11 0.34,1.06 0.99,1.3 1.33,1.3 0.19,0 0.54,-0.08 0.54,-0.66 0,-0.31 -0.17,-0.98 -0.54,-2.37 -0.16,-0.62 -0.51,-1.04 -0.95,-1.04 -0.06,0 -0.28,0 -0.49,0.13 0.24,0.05 0.46,0.26 0.46,0.54 0,0.27 -0.22,0.35 -0.36,0.35 -0.3,0 -0.55,-0.26 -0.55,-0.58 0,-0.45 0.5,-0.65 0.93,-0.65 0.66,0 1.02,0.69 1.05,0.75 0.12,-0.37 0.48,-0.75 1.08,-0.75 1.02,0 1.59,1.28 1.59,1.53 0,0.1 -0.09,0.1 -0.12,0.1 -0.09,0 -0.11,-0.04 -0.13,-0.11 -0.33,-1.07 -1,-1.31 -1.32,-1.31 -0.39,0 -0.55,0.32 -0.55,0.66 0,0.22 0.06,0.44 0.17,0.88 z"
   inkscape:connector-curvature="0"
   style="fill:#000000;stroke-width:0" />
</g>    <g
       id="g10919"
       transform="matrix(5,0,0,-5,-615.80443,4050.924)"
       xml:space="preserve"
       stroke="black"
       stroke-linecap="butt"
       stroke-linejoin="miter"
       stroke-miterlimit="10.433"
       stroke-dasharray="none"
       stroke-dashoffset="0"
       stroke-opacity="1"
       fill="none"
       fill-rule="evenodd"
       fill-opacity="1"
       font-style="normal"
       font-variant="normal"
       font-weight="normal"
       font-stretch="normal"
       font-size-adjust="none"
       letter-spacing="normal"
       word-spacing="normal"
       text-anchor="start"
       ns0:text="$\\vec{x}\'$"
       ns0:preamble=""
       style="font-style:normal;font-variant:normal;font-weight:normal;font-stretch:normal;letter-spacing:normal;word-spacing:normal;text-anchor:start;fill:none;stroke:#000000;stroke-linecap:butt;stroke-linejoin:miter;stroke-miterlimit:10.43299961;stroke-opacity:1;stroke-dasharray:none;stroke-dashoffset:0">
<path
   d="M228.65,713.05 L228.64,713.03 L228.62,713.02 L228.61,713.01 L228.59,712.99 L228.57,712.98 L228.56,712.96 L228.54,712.94 L228.52,712.93 L228.5,712.91 L228.48,712.89 L228.44,712.85 L228.4,712.81 L228.37,712.77 L228.35,712.75 L228.33,712.73 L228.31,712.71 L228.3,712.69 L228.28,712.67 L228.26,712.65 L228.25,712.63 L228.24,712.61 L228.23,712.59 L228.22,712.57 L228.21,712.55 L228.2,712.53 L228.19,712.51 L228.19,712.49 L228.18,712.48 L228.18,712.46 C228.18,712.36,228.28,712.26,228.38,712.26 C228.47,712.26,228.52,712.33,228.57,712.39 C228.69,712.54,228.92,712.82,229.36,713.04 C229.43,713.08,229.53,713.13,229.53,713.25 C229.53,713.34,229.46,713.4,229.39,713.45 C229.17,713.59,229.06,713.77,228.98,714.01 C228.96,714.1,228.92,714.23,228.78,714.23 C228.64,714.23,228.58,714.1,228.58,714.02 C228.58,713.97,228.66,713.65,228.82,713.45 H225.46 C225.29,713.45,225.11,713.45,225.11,713.25 C225.11,713.05,225.29,713.05,225.46,713.05 Z "
   stroke-width="0"
   fill="black"
   id="path10921" />
<path
   d="M226.76,710.13 L226.76,710.16 L226.77,710.19 L226.78,710.22 L226.79,710.26 L226.8,710.29 L226.81,710.34 L226.82,710.38 L226.84,710.42 L226.86,710.47 L226.87,710.52 L226.89,710.57 L226.91,710.62 L226.93,710.67 L226.96,710.72 L226.98,710.77 L227.01,710.81 L227.04,710.86 L227.07,710.91 L227.11,710.96 L227.14,711 L227.18,711.04 L227.22,711.08 L227.26,711.12 L227.3,711.16 L227.35,711.19 L227.4,711.22 L227.43,711.23 L227.45,711.24 L227.48,711.26 L227.5,711.27 L227.53,711.27 L227.56,711.28 L227.59,711.29 L227.62,711.29 L227.65,711.3 L227.68,711.3 L227.71,711.3 L227.74,711.3 C227.79,711.3,228.03,711.3,228.24,711.18 C227.96,711.13,227.76,710.88,227.76,710.64 C227.76,710.48,227.87,710.29,228.14,710.29 C228.36,710.29,228.68,710.47,228.68,710.87 C228.68,711.39,228.09,711.52,227.76,711.52 C227.18,711.52,226.83,711,226.71,710.77 C226.46,711.42,225.92,711.52,225.63,711.52 C224.6,711.52,224.03,710.24,224.03,709.99 C224.03,709.89,224.13,709.89,224.15,709.89 C224.23,709.89,224.26,709.91,224.28,710 C224.62,711.06,225.27,711.3,225.61,711.3 C225.8,711.3,226.15,711.22,226.15,710.64 C226.15,710.33,225.98,709.66,225.61,708.27 C225.45,707.65,225.1,707.23,224.66,707.23 C224.6,707.23,224.38,707.23,224.17,707.36 C224.41,707.41,224.63,707.62,224.63,707.9 C224.63,708.17,224.41,708.25,224.27,708.25 C223.97,708.25,223.72,707.99,223.72,707.67 C223.72,707.22,224.22,707.02,224.65,707.02 C225.31,707.02,225.67,707.71,225.7,707.77 C225.82,707.4,226.18,707.02,226.78,707.02 C227.8,707.02,228.37,708.3,228.37,708.55 C228.37,708.65,228.28,708.65,228.25,708.65 C228.16,708.65,228.14,708.61,228.12,708.54 C227.79,707.47,227.12,707.23,226.8,707.23 C226.41,707.23,226.25,707.55,226.25,707.89 C226.25,708.11,226.31,708.33,226.42,708.77 Z "
   stroke-width="0"
   fill="black"
   id="path10923" />
<path
   d="M231.15,714.02 L231.15,714.03 L231.16,714.04 L231.16,714.05 L231.16,714.06 L231.17,714.07 L231.17,714.08 L231.18,714.09 L231.18,714.1 L231.18,714.11 L231.18,714.12 L231.19,714.12 L231.19,714.13 L231.19,714.14 L231.19,714.15 L231.2,714.15 L231.2,714.16 L231.2,714.17 L231.2,714.17 L231.2,714.18 L231.2,714.18 L231.2,714.19 L231.2,714.2 L231.21,714.2 L231.21,714.21 L231.21,714.22 L231.21,714.23 L231.21,714.24 L231.21,714.24 C231.21,714.46,231.01,714.63,230.8,714.63 C230.53,714.63,230.45,714.41,230.41,714.3 L229.49,711.29 C229.49,711.28,229.46,711.18,229.46,711.18 C229.46,711.09,229.68,711.03,229.73,711.03 C229.78,711.03,229.79,711.04,229.84,711.14 Z "
   stroke-width="0"
   fill="black"
   id="path10925" />
</g>    <g
       style="font-style:normal;font-variant:normal;font-weight:normal;font-stretch:normal;letter-spacing:normal;word-spacing:normal;text-anchor:start;fill:none;stroke:#000000;stroke-linecap:butt;stroke-linejoin:miter;stroke-miterlimit:10.43299961;stroke-opacity:1;stroke-dasharray:none;stroke-dashoffset:0"
       ns0:preamble=""
       ns0:text="$O$"
       text-anchor="start"
       word-spacing="normal"
       letter-spacing="normal"
       font-size-adjust="none"
       font-stretch="normal"
       font-weight="normal"
       font-variant="normal"
       font-style="normal"
       fill-opacity="1"
       fill-rule="evenodd"
       fill="none"
       stroke-opacity="1"
       stroke-dashoffset="0"
       stroke-dasharray="none"
       stroke-miterlimit="10.433"
       stroke-linejoin="miter"
       stroke-linecap="butt"
       stroke="black"
       xml:space="preserve"
       transform="matrix(5,0,0,-5,-933.02931,4147.3116)"
       id="g11278">
<path
   id="path11280"
   fill="black"
   stroke-width="0"
   d="M230.81,711.46 L230.81,711.61 L230.8,711.76 L230.78,711.9 L230.76,712.04 L230.73,712.17 L230.7,712.31 L230.66,712.43 L230.62,712.56 L230.57,712.68 L230.52,712.8 L230.46,712.91 L230.4,713.02 L230.33,713.12 L230.25,713.22 L230.18,713.31 L230.09,713.4 L230.01,713.49 L229.92,713.57 L229.82,713.65 L229.72,713.72 L229.62,713.78 L229.51,713.84 L229.4,713.9 L229.29,713.95 L229.17,713.99 L229.05,714.03 L228.93,714.06 L228.8,714.09 L228.67,714.11 L228.54,714.13 L228.4,714.14 L228.27,714.14 L228.21,713.89 C229.02,713.89,229.92,713.34,229.92,711.85 C229.92,711.14,229.65,709.58,228.66,708.36 C228.19,707.75,227.37,707.16,226.53,707.16 H226.53 C225.54,707.16,224.85,707.97,224.85,709.28 C224.85,709.72,224.99,711.18,225.76,712.34 C226.44,713.38,227.42,713.89,228.21,713.89 L228.27,714.14 C226.11,714.14,223.92,711.88,223.92,709.56 C223.92,707.91,225.04,706.91,226.47,706.91 C228.59,706.91,230.81,709.09,230.81,711.46 Z " />
</g>  </g>
</svg>
