<?xml version="1.0" encoding="UTF-8" standalone="no"?>
<!-- Created with Inkscape (http://www.inkscape.org/) -->

<svg
   xmlns:ns0="http://www.iki.fi/pav/software/textext/"
   xmlns:dc="http://purl.org/dc/elements/1.1/"
   xmlns:cc="http://creativecommons.org/ns#"
   xmlns:rdf="http://www.w3.org/1999/02/22-rdf-syntax-ns#"
   xmlns:svg="http://www.w3.org/2000/svg"
   xmlns="http://www.w3.org/2000/svg"
   xmlns:sodipodi="http://sodipodi.sourceforge.net/DTD/sodipodi-0.dtd"
   xmlns:inkscape="http://www.inkscape.org/namespaces/inkscape"
   sodipodi:docname="fig-Biot-Savart-01.svg"
   inkscape:version="0.48.1 r9760"
   version="1.1"
   id="svg3568"
   height="612pt"
   width="792pt">
  <sodipodi:namedview
     inkscape:document-units="in"
     pagecolor="#ffffff"
     bordercolor="#666666"
     borderopacity="1.0"
     inkscape:pageopacity="0.0"
     inkscape:pageshadow="2"
     inkscape:zoom="0.82020202"
     inkscape:cx="370.53592"
     inkscape:cy="382.5"
     inkscape:current-layer="svg3568"
     id="namedview3572"
     showgrid="false"
     inkscape:window-width="1440"
     inkscape:window-height="848"
     inkscape:window-x="0"
     inkscape:window-y="0"
     inkscape:window-maximized="1" />
  <defs
     id="defs3570" />
  <metadata
     id="metadata3574">
    <rdf:RDF>
      <cc:Work
         rdf:about="">
        <dc:format>image/svg+xml</dc:format>
        <dc:type
           rdf:resource="http://purl.org/dc/dcmitype/StillImage" />
        <dc:title></dc:title>
      </cc:Work>
    </rdf:RDF>
  </metadata>
  <g
     inkscape:label="Layer 1"
     inkscape:groupmode="layer"
     id="layer1">
    <g
       transform="matrix(0.0375,0,0,0.0375,87.816058,3.0118849)"
       id="g133"
       style="visibility:visible">
      <g
         style="fill:none;stroke:#000000;stroke-width:100;stroke-linejoin:round"
         id="g135">
        <path
           inkscape:connector-curvature="0"
           style="fill:none"
           d="M 5500,12000 C 8205,5625 14000,3500 14000,3500"
           id="path137" />
      </g>
    </g>
    <g
       transform="matrix(0.0348874,0,0,0.03401654,109.50061,24.957698)"
       id="g141"
       style="visibility:visible">
      <g
         style="fill:none;stroke:#0000ff;stroke-width:400;stroke-linejoin:round"
         id="g143">
        <path
           inkscape:connector-curvature="0"
           style="fill:none"
           d="M 8500,7500 9500,6500"
           id="path145" />
      </g>
    </g>
    <g
       transform="matrix(0.0375,0,0,0.0375,87.816058,3.0118849)"
       id="g177"
       style="visibility:visible">
      <g
         style="fill:none;stroke:#000000;stroke-width:100;stroke-linejoin:round"
         id="g179">
        <path
           inkscape:connector-curvature="0"
           style="fill:none"
           d="m 8100,7100 644,-644"
           id="path181" />
      </g>
      <g
         style="fill:#000000;stroke:none"
         id="g183">
        <path
           inkscape:connector-curvature="0"
           d="m 8806,6645 9,59 285,-604 -604,285 56,9 58,19 54,28 50,41 42,49 30,56 20,58 z"
           id="path185" />
      </g>
    </g>
    <g
       transform="matrix(0.0375,0,0,0.0375,87.816058,3.0118849)"
       id="g189"
       style="visibility:visible">
      <g
         style="fill:none;stroke:#000000;stroke-width:100;stroke-linejoin:round"
         id="g191">
        <path
           inkscape:connector-curvature="0"
           style="fill:none"
           d="M 8500,15000 8969,7502"
           id="path193" />
      </g>
      <g
         style="fill:#000000;stroke:none"
         id="g195">
        <path
           inkscape:connector-curvature="0"
           d="m 9141,7603 44,38 -186,-641 -263,613 48,-31 55,-23 60,-15 65,-3 63,10 60,22 54,30 z"
           id="path197" />
      </g>
    </g>
    <g
       transform="matrix(0.0375,0,0,0.0375,87.816058,3.0118849)"
       id="g257"
       style="visibility:visible">
      <g
         style="fill:none;stroke:#000000;stroke-width:100;stroke-linejoin:round"
         id="g259">
        <path
           inkscape:connector-curvature="0"
           style="fill:none"
           d="m 11800,4300 650,-325"
           id="path261" />
      </g>
      <g
         style="fill:#000000;stroke:none"
         id="g263">
        <path
           inkscape:connector-curvature="0"
           d="m 12449,4130 -8,45 359,-375 -516,62 40,20 37,28 34,35 27,42 18,46 9,49 0,48 z"
           id="path265" />
      </g>
    </g>
    <g
       transform="matrix(0.0375,0,0,0.0375,87.816058,3.0118849)"
       style="stroke-width:33.33333206;stroke-miterlimit:4;stroke-dasharray:none;visibility:visible"
       id="g281">
      <g
         style="fill:none;stroke:#000000;stroke-width:33.33333206;stroke-miterlimit:4;stroke-dasharray:none"
         id="g283">
        <path
           inkscape:connector-curvature="0"
           style="fill:none;stroke-width:33.33333206;stroke-miterlimit:4;stroke-dasharray:none"
           d="m 5500,12000 c -63,157 -122,316 -177,476"
           id="path285" />
        <path
           inkscape:connector-curvature="0"
           style="fill:none;stroke-width:33.33333206;stroke-miterlimit:4;stroke-dasharray:none"
           d="m 5168,12961 c -49,164 -94,327 -135,490"
           id="path287" />
        <path
           inkscape:connector-curvature="0"
           style="fill:none;stroke-width:33.33333206;stroke-miterlimit:4;stroke-dasharray:none"
           d="m 4914,13948 c -37,168 -70,334 -101,498"
           id="path289" />
        <path
           inkscape:connector-curvature="0"
           style="fill:none;stroke-width:33.33333206;stroke-miterlimit:4;stroke-dasharray:none"
           d="m 4727,14945 c -27,175 -52,344 -73,508"
           id="path291" />
        <path
           inkscape:connector-curvature="0"
           style="fill:none;stroke-width:33.33333206;stroke-miterlimit:4;stroke-dasharray:none"
           d="m 4595,15961 c -19,181 -34,351 -46,507"
           id="path293" />
        <path
           inkscape:connector-curvature="0"
           style="fill:none;stroke-width:33.33333206;stroke-miterlimit:4;stroke-dasharray:none"
           d="m 4516,16979 c -14,284 -16,467 -16,511"
           id="path295" />
      </g>
    </g>
    <g
       transform="matrix(0.0375,0,0,0.0375,87.816058,3.0118849)"
       style="stroke-width:33.33333206;stroke-miterlimit:4;stroke-dasharray:none;visibility:visible"
       id="g299">
      <g
         style="fill:none;stroke:#000000;stroke-width:33.33333206;stroke-miterlimit:4;stroke-dasharray:none"
         id="g301">
        <path
           inkscape:connector-curvature="0"
           style="fill:none;stroke-width:33.33333206;stroke-miterlimit:4;stroke-dasharray:none"
           d="m 14000,3500 c 150,-50 310,-110 476,-177"
           id="path303" />
        <path
           inkscape:connector-curvature="0"
           style="fill:none;stroke-width:33.33333206;stroke-miterlimit:4;stroke-dasharray:none"
           d="m 14941,3123 c 152,-68 306,-141 461,-215"
           id="path305" />
        <path
           inkscape:connector-curvature="0"
           style="fill:none;stroke-width:33.33333206;stroke-miterlimit:4;stroke-dasharray:none"
           d="m 15859,2681 c 154,-78 306,-157 454,-235"
           id="path307" />
        <path
           inkscape:connector-curvature="0"
           style="fill:none;stroke-width:33.33333206;stroke-miterlimit:4;stroke-dasharray:none"
           d="m 16763,2204 c 160,-87 310,-171 447,-248"
           id="path309" />
        <path
           inkscape:connector-curvature="0"
           style="fill:none;stroke-width:33.33333206;stroke-miterlimit:4;stroke-dasharray:none"
           d="m 17652,1704 c 218,-126 348,-204 348,-204"
           id="path311" />
      </g>
    </g>
    <g
       transform="matrix(0.0375,0,0,0.0375,87.816058,3.0118849)"
       id="g315"
       style="visibility:visible">
      <g
         style="fill:none;stroke:#000000;stroke-width:100;stroke-linejoin:round"
         id="g317">
        <path
           inkscape:connector-curvature="0"
           style="fill:none"
           d="M 8500,15000 15594,9797"
           id="path319" />
      </g>
      <g
         style="fill:#000000;stroke:none"
         id="g321">
        <path
           inkscape:connector-curvature="0"
           d="m 15627,9994 -1,59 374,-553 -640,190 54,17 54,28 49,36 44,48 34,55 21,59 11,61 z"
           id="path323" />
      </g>
    </g>
    <g
       transform="matrix(0.0375,0,0,0.0375,87.816058,3.0118849)"
       id="g327"
       style="visibility:visible">
      <g
         style="fill:none;stroke:#000000;stroke-width:100;stroke-linejoin:round"
         id="g329">
        <path
           inkscape:connector-curvature="0"
           style="fill:none"
           d="m 9000,7000 6526,2331"
           id="path331" />
      </g>
      <g
         style="fill:#000000;stroke:none"
         id="g333">
        <path
           inkscape:connector-curvature="0"
           d="m 15381,9468 -49,32 668,-1 -516,-422 16,54 8,60 -3,61 -15,63 -27,59 -37,51 -45,43 z"
           id="path335" />
      </g>
    </g>
  </g>
  <g
     style="font-style:normal;font-variant:normal;font-weight:normal;font-stretch:normal;letter-spacing:normal;word-spacing:normal;text-anchor:start;fill:none;stroke:#000000;stroke-linecap:butt;stroke-linejoin:miter;stroke-miterlimit:10.43299961;stroke-opacity:1;stroke-dasharray:none;stroke-dashoffset:0"
     ns0:preamble=""
     ns0:text="$I$"
     word-spacing="normal"
     letter-spacing="normal"
     font-size-adjust="none"
     font-stretch="normal"
     font-weight="normal"
     font-variant="normal"
     font-style="normal"
     stroke-miterlimit="10.433"
     xml:space="preserve"
     transform="matrix(5,0,0,-5,-588.1468,3674.8601)"
     id="g3630">
<path
   id="path3632"
   d="m 227.16,713.16 0.01,0.03 0.01,0.03 0,0.03 0.01,0.03 0.01,0.03 0.01,0.02 0.01,0.03 0.01,0.02 0.01,0.02 0.01,0.02 0.01,0.02 0.02,0.02 0.01,0.02 0.02,0.01 0.02,0.02 0.02,0.01 0.03,0.01 0.02,0.01 0.03,0.01 0.03,0.01 0.03,0.01 0.02,0.01 0.02,0 0.01,0 0.02,0.01 0.02,0 0.03,0 0.02,0.01 0.02,0 0.02,0 0.03,0 0.02,0 0.03,0.01 0.03,0 0.03,0 0.02,0 0.03,0 0.04,0 0.03,0 0.03,0 0.04,0 0.03,0 0.04,0 c 0.24,0 0.32,0 0.32,0.19 0,0.12 -0.11,0.12 -0.15,0.12 -0.29,0 -1.03,-0.03 -1.32,-0.03 -0.3,0 -1.03,0.03 -1.32,0.03 -0.08,0 -0.2,0 -0.2,-0.2 0,-0.11 0.09,-0.11 0.28,-0.11 0.41,0 0.68,0 0.68,-0.19 0,-0.04 0,-0.07 -0.02,-0.15 L 225,707.9 c -0.09,-0.37 -0.12,-0.47 -0.91,-0.47 -0.23,0 -0.32,0 -0.32,-0.2 0,-0.11 0.12,-0.11 0.15,-0.11 0.29,0 1.02,0.04 1.31,0.04 0.29,0 1.03,-0.04 1.33,-0.04 0.08,0 0.2,0 0.2,0.19 0,0.12 -0.08,0.12 -0.3,0.12 -0.18,0 -0.23,0 -0.43,0.02 -0.21,0.02 -0.24,0.06 -0.24,0.17 0,0.08 0.01,0.16 0.03,0.23 z"
   inkscape:connector-curvature="0"
   style="fill:#000000;stroke-width:0" />
</g>  <g
     id="g3789"
     transform="matrix(5,0,0,-5,-571.57045,4041.8428)"
     xml:space="preserve"
     stroke-miterlimit="10.433"
     font-style="normal"
     font-variant="normal"
     font-weight="normal"
     font-stretch="normal"
     font-size-adjust="none"
     letter-spacing="normal"
     word-spacing="normal"
     ns0:text="$\\vec{x}$"
     ns0:preamble=""
     style="font-style:normal;font-variant:normal;font-weight:normal;font-stretch:normal;letter-spacing:normal;word-spacing:normal;text-anchor:start;fill:none;stroke:#000000;stroke-linecap:butt;stroke-linejoin:miter;stroke-miterlimit:10.43299961;stroke-opacity:1;stroke-dasharray:none;stroke-dashoffset:0">
<path
   style="fill:#000000;stroke-width:0"
   inkscape:connector-curvature="0"
   d="m 228.65,713.05 -0.01,-0.02 -0.02,-0.01 -0.01,-0.01 -0.02,-0.02 -0.02,-0.01 -0.01,-0.02 -0.02,-0.02 -0.02,-0.01 -0.02,-0.02 -0.02,-0.02 -0.04,-0.04 -0.04,-0.04 -0.03,-0.04 -0.02,-0.02 -0.02,-0.02 -0.02,-0.02 -0.01,-0.02 -0.02,-0.02 -0.02,-0.02 -0.01,-0.02 -0.01,-0.02 -0.01,-0.02 -0.01,-0.02 -0.01,-0.02 -0.01,-0.02 -0.01,-0.02 0,-0.02 -0.01,-0.01 0,-0.02 c 0,-0.1 0.1,-0.2 0.2,-0.2 0.09,0 0.14,0.07 0.19,0.13 0.12,0.15 0.35,0.43 0.79,0.65 0.07,0.04 0.17,0.09 0.17,0.21 0,0.09 -0.07,0.15 -0.14,0.2 -0.22,0.14 -0.33,0.32 -0.41,0.56 -0.02,0.09 -0.06,0.22 -0.2,0.22 -0.14,0 -0.2,-0.13 -0.2,-0.21 0,-0.05 0.08,-0.37 0.24,-0.57 h -3.36 c -0.17,0 -0.35,0 -0.35,-0.2 0,-0.2 0.18,-0.2 0.35,-0.2 z"
   id="path3791" />
<path
   style="fill:#000000;stroke-width:0"
   inkscape:connector-curvature="0"
   d="m 226.76,710.13 0,0.03 0.01,0.03 0.01,0.03 0.01,0.04 0.01,0.03 0.01,0.05 0.01,0.04 0.02,0.04 0.02,0.05 0.01,0.05 0.02,0.05 0.02,0.05 0.02,0.05 0.03,0.05 0.02,0.05 0.03,0.04 0.03,0.05 0.03,0.05 0.04,0.05 0.03,0.04 0.04,0.04 0.04,0.04 0.04,0.04 0.04,0.04 0.05,0.03 0.05,0.03 0.03,0.01 0.02,0.01 0.03,0.02 0.02,0.01 0.03,0 0.03,0.01 0.03,0.01 0.03,0 0.03,0.01 0.03,0 0.03,0 0.03,0 c 0.05,0 0.29,0 0.5,-0.12 -0.28,-0.05 -0.48,-0.3 -0.48,-0.54 0,-0.16 0.11,-0.35 0.38,-0.35 0.22,0 0.54,0.18 0.54,0.58 0,0.52 -0.59,0.65 -0.92,0.65 -0.58,0 -0.93,-0.52 -1.05,-0.75 -0.25,0.65 -0.79,0.75 -1.08,0.75 -1.03,0 -1.6,-1.28 -1.6,-1.53 0,-0.1 0.1,-0.1 0.12,-0.1 0.08,0 0.11,0.02 0.13,0.11 0.34,1.06 0.99,1.3 1.33,1.3 0.19,0 0.54,-0.08 0.54,-0.66 0,-0.31 -0.17,-0.98 -0.54,-2.37 -0.16,-0.62 -0.51,-1.04 -0.95,-1.04 -0.06,0 -0.28,0 -0.49,0.13 0.24,0.05 0.46,0.26 0.46,0.54 0,0.27 -0.22,0.35 -0.36,0.35 -0.3,0 -0.55,-0.26 -0.55,-0.58 0,-0.45 0.5,-0.65 0.93,-0.65 0.66,0 1.02,0.69 1.05,0.75 0.12,-0.37 0.48,-0.75 1.08,-0.75 1.02,0 1.59,1.28 1.59,1.53 0,0.1 -0.09,0.1 -0.12,0.1 -0.09,0 -0.11,-0.04 -0.13,-0.11 -0.33,-1.07 -1,-1.31 -1.32,-1.31 -0.39,0 -0.55,0.32 -0.55,0.66 0,0.22 0.06,0.44 0.17,0.88 z"
   id="path3793" />
</g>  <g
     style="font-style:normal;font-variant:normal;font-weight:normal;font-stretch:normal;letter-spacing:normal;word-spacing:normal;text-anchor:start;fill:none;stroke:#000000;stroke-linecap:butt;stroke-linejoin:miter;stroke-miterlimit:10.43299961;stroke-opacity:1;stroke-dasharray:none;stroke-dashoffset:0"
     ns0:preamble=""
     ns0:text="$\\vec{x}\'$"
     word-spacing="normal"
     letter-spacing="normal"
     font-size-adjust="none"
     font-stretch="normal"
     font-weight="normal"
     font-variant="normal"
     font-style="normal"
     stroke-miterlimit="10.433"
     xml:space="preserve"
     transform="matrix(5,0,0,-5,-750.53879,3977.9649)"
     id="g3967">
<path
   id="path3969"
   d="m 228.65,713.05 -0.01,-0.02 -0.02,-0.01 -0.01,-0.01 -0.02,-0.02 -0.02,-0.01 -0.01,-0.02 -0.02,-0.02 -0.02,-0.01 -0.02,-0.02 -0.02,-0.02 -0.04,-0.04 -0.04,-0.04 -0.03,-0.04 -0.02,-0.02 -0.02,-0.02 -0.02,-0.02 -0.01,-0.02 -0.02,-0.02 -0.02,-0.02 -0.01,-0.02 -0.01,-0.02 -0.01,-0.02 -0.01,-0.02 -0.01,-0.02 -0.01,-0.02 -0.01,-0.02 0,-0.02 -0.01,-0.01 0,-0.02 c 0,-0.1 0.1,-0.2 0.2,-0.2 0.09,0 0.14,0.07 0.19,0.13 0.12,0.15 0.35,0.43 0.79,0.65 0.07,0.04 0.17,0.09 0.17,0.21 0,0.09 -0.07,0.15 -0.14,0.2 -0.22,0.14 -0.33,0.32 -0.41,0.56 -0.02,0.09 -0.06,0.22 -0.2,0.22 -0.14,0 -0.2,-0.13 -0.2,-0.21 0,-0.05 0.08,-0.37 0.24,-0.57 h -3.36 c -0.17,0 -0.35,0 -0.35,-0.2 0,-0.2 0.18,-0.2 0.35,-0.2 z"
   inkscape:connector-curvature="0"
   style="fill:#000000;stroke-width:0" />
<path
   id="path3971"
   d="m 226.76,710.13 0,0.03 0.01,0.03 0.01,0.03 0.01,0.04 0.01,0.03 0.01,0.05 0.01,0.04 0.02,0.04 0.02,0.05 0.01,0.05 0.02,0.05 0.02,0.05 0.02,0.05 0.03,0.05 0.02,0.05 0.03,0.04 0.03,0.05 0.03,0.05 0.04,0.05 0.03,0.04 0.04,0.04 0.04,0.04 0.04,0.04 0.04,0.04 0.05,0.03 0.05,0.03 0.03,0.01 0.02,0.01 0.03,0.02 0.02,0.01 0.03,0 0.03,0.01 0.03,0.01 0.03,0 0.03,0.01 0.03,0 0.03,0 0.03,0 c 0.05,0 0.29,0 0.5,-0.12 -0.28,-0.05 -0.48,-0.3 -0.48,-0.54 0,-0.16 0.11,-0.35 0.38,-0.35 0.22,0 0.54,0.18 0.54,0.58 0,0.52 -0.59,0.65 -0.92,0.65 -0.58,0 -0.93,-0.52 -1.05,-0.75 -0.25,0.65 -0.79,0.75 -1.08,0.75 -1.03,0 -1.6,-1.28 -1.6,-1.53 0,-0.1 0.1,-0.1 0.12,-0.1 0.08,0 0.11,0.02 0.13,0.11 0.34,1.06 0.99,1.3 1.33,1.3 0.19,0 0.54,-0.08 0.54,-0.66 0,-0.31 -0.17,-0.98 -0.54,-2.37 -0.16,-0.62 -0.51,-1.04 -0.95,-1.04 -0.06,0 -0.28,0 -0.49,0.13 0.24,0.05 0.46,0.26 0.46,0.54 0,0.27 -0.22,0.35 -0.36,0.35 -0.3,0 -0.55,-0.26 -0.55,-0.58 0,-0.45 0.5,-0.65 0.93,-0.65 0.66,0 1.02,0.69 1.05,0.75 0.12,-0.37 0.48,-0.75 1.08,-0.75 1.02,0 1.59,1.28 1.59,1.53 0,0.1 -0.09,0.1 -0.12,0.1 -0.09,0 -0.11,-0.04 -0.13,-0.11 -0.33,-1.07 -1,-1.31 -1.32,-1.31 -0.39,0 -0.55,0.32 -0.55,0.66 0,0.22 0.06,0.44 0.17,0.88 z"
   inkscape:connector-curvature="0"
   style="fill:#000000;stroke-width:0" />
<path
   id="path3973"
   d="m 231.15,714.02 0,0.01 0.01,0.01 0,0.01 0,0.01 0.01,0.01 0,0.01 0.01,0.01 0,0.01 0,0.01 0,0.01 0.01,0 0,0.01 0,0.01 0,0.01 0.01,0 0,0.01 0,0.01 0,0 0,0.01 0,0 0,0.01 0,0.01 0.01,0 0,0.01 0,0.01 0,0.01 0,0.01 0,0 c 0,0.22 -0.2,0.39 -0.41,0.39 -0.27,0 -0.35,-0.22 -0.39,-0.33 l -0.92,-3.01 c 0,-0.01 -0.03,-0.11 -0.03,-0.11 0,-0.09 0.22,-0.15 0.27,-0.15 0.05,0 0.06,0.01 0.11,0.11 z"
   inkscape:connector-curvature="0"
   style="fill:#000000;stroke-width:0" />
</g>  <g
     id="g4142"
     transform="matrix(5,0,0,-5,-594.23338,3828.0018)"
     xml:space="preserve"
     stroke="black"
     stroke-linecap="butt"
     stroke-linejoin="miter"
     stroke-miterlimit="10.433"
     stroke-dasharray="none"
     stroke-dashoffset="0"
     stroke-opacity="1"
     fill="none"
     fill-rule="evenodd"
     fill-opacity="1"
     font-style="normal"
     font-variant="normal"
     font-weight="normal"
     font-stretch="normal"
     font-size-adjust="none"
     letter-spacing="normal"
     word-spacing="normal"
     text-anchor="start"
     ns0:text="$\\vec{x}-\\vec{x}\'$"
     ns0:preamble=""
     style="font-style:normal;font-variant:normal;font-weight:normal;font-stretch:normal;letter-spacing:normal;word-spacing:normal;text-anchor:start;fill:none;stroke:#000000;stroke-linecap:butt;stroke-linejoin:miter;stroke-miterlimit:10.43299961;stroke-opacity:1;stroke-dasharray:none;stroke-dashoffset:0">
<path
   d="M228.65,713.05 L228.64,713.03 L228.62,713.02 L228.61,713.01 L228.59,712.99 L228.57,712.98 L228.56,712.96 L228.54,712.94 L228.52,712.93 L228.5,712.91 L228.48,712.89 L228.44,712.85 L228.4,712.81 L228.37,712.77 L228.35,712.75 L228.33,712.73 L228.31,712.71 L228.3,712.69 L228.28,712.67 L228.26,712.65 L228.25,712.63 L228.24,712.61 L228.23,712.59 L228.22,712.57 L228.21,712.55 L228.2,712.53 L228.19,712.51 L228.19,712.49 L228.18,712.48 L228.18,712.46 C228.18,712.36,228.28,712.26,228.38,712.26 C228.47,712.26,228.52,712.33,228.57,712.39 C228.69,712.54,228.92,712.82,229.36,713.04 C229.43,713.08,229.53,713.13,229.53,713.25 C229.53,713.34,229.46,713.4,229.39,713.45 C229.17,713.59,229.06,713.77,228.98,714.01 C228.96,714.1,228.92,714.23,228.78,714.23 C228.64,714.23,228.58,714.1,228.58,714.02 C228.58,713.97,228.66,713.65,228.82,713.45 H225.46 C225.29,713.45,225.11,713.45,225.11,713.25 C225.11,713.05,225.29,713.05,225.46,713.05 Z "
   stroke-width="0"
   fill="black"
   id="path4144" />
<path
   d="M226.76,710.13 L226.76,710.16 L226.77,710.19 L226.78,710.22 L226.79,710.26 L226.8,710.29 L226.81,710.34 L226.82,710.38 L226.84,710.42 L226.86,710.47 L226.87,710.52 L226.89,710.57 L226.91,710.62 L226.93,710.67 L226.96,710.72 L226.98,710.77 L227.01,710.81 L227.04,710.86 L227.07,710.91 L227.11,710.96 L227.14,711 L227.18,711.04 L227.22,711.08 L227.26,711.12 L227.3,711.16 L227.35,711.19 L227.4,711.22 L227.43,711.23 L227.45,711.24 L227.48,711.26 L227.5,711.27 L227.53,711.27 L227.56,711.28 L227.59,711.29 L227.62,711.29 L227.65,711.3 L227.68,711.3 L227.71,711.3 L227.74,711.3 C227.79,711.3,228.03,711.3,228.24,711.18 C227.96,711.13,227.76,710.88,227.76,710.64 C227.76,710.48,227.87,710.29,228.14,710.29 C228.36,710.29,228.68,710.47,228.68,710.87 C228.68,711.39,228.09,711.52,227.76,711.52 C227.18,711.52,226.83,711,226.71,710.77 C226.46,711.42,225.92,711.52,225.63,711.52 C224.6,711.52,224.03,710.24,224.03,709.99 C224.03,709.89,224.13,709.89,224.15,709.89 C224.23,709.89,224.26,709.91,224.28,710 C224.62,711.06,225.27,711.3,225.61,711.3 C225.8,711.3,226.15,711.22,226.15,710.64 C226.15,710.33,225.98,709.66,225.61,708.27 C225.45,707.65,225.1,707.23,224.66,707.23 C224.6,707.23,224.38,707.23,224.17,707.36 C224.41,707.41,224.63,707.62,224.63,707.9 C224.63,708.17,224.41,708.25,224.27,708.25 C223.97,708.25,223.72,707.99,223.72,707.67 C223.72,707.22,224.22,707.02,224.65,707.02 C225.31,707.02,225.67,707.71,225.7,707.77 C225.82,707.4,226.18,707.02,226.78,707.02 C227.8,707.02,228.37,708.3,228.37,708.55 C228.37,708.65,228.28,708.65,228.25,708.65 C228.16,708.65,228.14,708.61,228.12,708.54 C227.79,707.47,227.12,707.23,226.8,707.23 C226.41,707.23,226.25,707.55,226.25,707.89 C226.25,708.11,226.31,708.33,226.42,708.77 Z "
   stroke-width="0"
   fill="black"
   id="path4146" />
<path
   d="M237.91,709.41 L237.94,709.41 L237.97,709.41 L238,709.42 L238.02,709.42 L238.04,709.42 L238.05,709.42 L238.07,709.42 L238.08,709.42 L238.09,709.42 L238.11,709.43 L238.12,709.43 L238.13,709.43 L238.15,709.44 L238.16,709.44 L238.17,709.45 L238.18,709.46 L238.19,709.46 L238.2,709.47 L238.21,709.48 L238.22,709.49 L238.23,709.5 L238.23,709.5 L238.23,709.51 L238.24,709.51 L238.24,709.52 L238.24,709.53 L238.25,709.53 L238.25,709.54 L238.25,709.55 L238.25,709.55 L238.25,709.56 L238.25,709.57 L238.26,709.58 L238.26,709.59 L238.26,709.59 L238.26,709.6 L238.26,709.61 C238.26,709.81,238.08,709.81,237.91,709.81 H232.52 C232.35,709.81,232.17,709.81,232.17,709.61 C232.17,709.41,232.35,709.41,232.52,709.41 Z "
   stroke-width="0"
   fill="black"
   id="path4148" />
<path
   d="M246.52,713.05 L246.51,713.03 L246.49,713.02 L246.48,713.01 L246.46,712.99 L246.44,712.98 L246.43,712.96 L246.41,712.94 L246.39,712.93 L246.37,712.91 L246.35,712.89 L246.31,712.85 L246.27,712.81 L246.23,712.77 L246.22,712.75 L246.2,712.73 L246.18,712.71 L246.16,712.69 L246.15,712.67 L246.13,712.65 L246.12,712.63 L246.11,712.61 L246.09,712.59 L246.08,712.57 L246.08,712.55 L246.07,712.53 L246.06,712.51 L246.06,712.49 L246.05,712.48 L246.05,712.46 C246.05,712.36,246.15,712.26,246.25,712.26 C246.34,712.26,246.39,712.33,246.44,712.39 C246.56,712.54,246.79,712.82,247.23,713.04 C247.3,713.08,247.4,713.13,247.4,713.25 C247.4,713.34,247.33,713.4,247.26,713.45 C247.04,713.59,246.93,713.77,246.85,714.01 C246.83,714.1,246.79,714.23,246.65,714.23 C246.51,714.23,246.45,714.1,246.45,714.02 C246.45,713.97,246.53,713.65,246.69,713.45 H243.33 C243.16,713.45,242.98,713.45,242.98,713.25 C242.98,713.05,243.16,713.05,243.33,713.05 Z "
   stroke-width="0"
   fill="black"
   id="path4150" />
<path
   d="M244.63,710.13 L244.63,710.16 L244.64,710.19 L244.65,710.22 L244.66,710.26 L244.67,710.29 L244.68,710.34 L244.69,710.38 L244.71,710.42 L244.73,710.47 L244.74,710.52 L244.76,710.57 L244.78,710.62 L244.8,710.67 L244.83,710.72 L244.85,710.77 L244.88,710.81 L244.91,710.86 L244.94,710.91 L244.98,710.96 L245.01,711 L245.05,711.04 L245.09,711.08 L245.13,711.12 L245.17,711.16 L245.22,711.19 L245.27,711.22 L245.3,711.23 L245.32,711.24 L245.35,711.26 L245.37,711.27 L245.4,711.27 L245.43,711.28 L245.46,711.29 L245.49,711.29 L245.52,711.3 L245.55,711.3 L245.58,711.3 L245.62,711.3 C245.66,711.3,245.9,711.3,246.11,711.18 C245.83,711.13,245.63,710.88,245.63,710.64 C245.63,710.48,245.74,710.29,246.01,710.29 C246.23,710.29,246.55,710.47,246.55,710.87 C246.55,711.39,245.96,711.52,245.62,711.52 C245.05,711.52,244.7,711,244.58,710.77 C244.33,711.42,243.79,711.52,243.5,711.52 C242.46,711.52,241.9,710.24,241.9,709.99 C241.9,709.89,242,709.89,242.02,709.89 C242.1,709.89,242.13,709.91,242.15,710 C242.49,711.06,243.14,711.3,243.48,711.3 C243.67,711.3,244.02,711.22,244.02,710.64 C244.02,710.33,243.85,709.66,243.48,708.27 C243.32,707.65,242.97,707.23,242.54,707.23 C242.48,707.23,242.24,707.23,242.04,707.36 C242.29,707.41,242.51,707.62,242.51,707.9 C242.51,708.17,242.29,708.25,242.14,708.25 C241.84,708.25,241.59,707.99,241.59,707.67 C241.59,707.22,242.09,707.02,242.52,707.02 C243.18,707.02,243.54,707.71,243.57,707.77 C243.69,707.4,244.05,707.02,244.65,707.02 C245.68,707.02,246.24,708.3,246.24,708.55 C246.24,708.65,246.15,708.65,246.12,708.65 C246.03,708.65,246.01,708.61,245.99,708.54 C245.66,707.47,244.99,707.23,244.67,707.23 C244.28,707.23,244.12,707.55,244.12,707.89 C244.12,708.11,244.18,708.33,244.29,708.77 Z "
   stroke-width="0"
   fill="black"
   id="path4152" />
<path
   d="M249.02,714.02 L249.02,714.03 L249.03,714.04 L249.03,714.05 L249.03,714.06 L249.04,714.07 L249.04,714.08 L249.05,714.09 L249.05,714.1 L249.05,714.11 L249.05,714.12 L249.06,714.12 L249.06,714.13 L249.06,714.14 L249.06,714.15 L249.07,714.15 L249.07,714.16 L249.07,714.17 L249.07,714.17 L249.07,714.18 L249.07,714.18 L249.07,714.19 L249.07,714.2 L249.08,714.2 L249.08,714.21 L249.08,714.22 L249.08,714.23 L249.08,714.24 L249.08,714.24 C249.08,714.46,248.88,714.63,248.67,714.63 C248.4,714.63,248.32,714.41,248.28,714.3 L247.37,711.29 C247.36,711.28,247.33,711.18,247.33,711.18 C247.33,711.09,247.55,711.03,247.6,711.03 C247.65,711.03,247.66,711.04,247.71,711.14 Z "
   stroke-width="0"
   fill="black"
   id="path4154" />
</g>  <g
     style="font-style:normal;font-variant:normal;font-weight:normal;font-stretch:normal;letter-spacing:normal;word-spacing:normal;text-anchor:start;fill:none;stroke:#000000;stroke-linecap:butt;stroke-linejoin:miter;stroke-miterlimit:10.43299961;stroke-opacity:1;stroke-dasharray:none;stroke-dashoffset:0"
     ns0:preamble=""
     ns0:text="$d\\vec{B}$"
     text-anchor="start"
     word-spacing="normal"
     letter-spacing="normal"
     font-size-adjust="none"
     font-stretch="normal"
     font-weight="normal"
     font-variant="normal"
     font-style="normal"
     fill-opacity="1"
     fill-rule="evenodd"
     fill="none"
     stroke-opacity="1"
     stroke-dashoffset="0"
     stroke-dasharray="none"
     stroke-miterlimit="10.433"
     stroke-linejoin="miter"
     stroke-linecap="butt"
     stroke="black"
     xml:space="preserve"
     transform="matrix(5,0,0,-5,-404.03632,3902.3738)"
     id="g4337">
<path
   id="path4339"
   fill="black"
   stroke-width="0"
   d="M228.58,713.92 L228.58,713.92 L228.58,713.92 L228.58,713.93 L228.58,713.93 L228.58,713.93 L228.58,713.93 L228.58,713.94 L228.57,713.94 L228.57,713.94 L228.57,713.95 L228.57,713.95 L228.57,713.96 L228.57,713.96 L228.57,713.97 L228.57,713.97 L228.56,713.98 L228.56,713.98 L228.56,713.99 L228.55,713.99 L228.55,714 L228.54,714 L228.54,714 L228.54,714 L228.54,714.01 L228.53,714.01 L228.53,714.01 L228.53,714.01 L228.52,714.01 L228.52,714.02 L228.52,714.02 L228.51,714.02 L228.51,714.02 L228.51,714.02 L228.5,714.02 L228.5,714.03 L228.49,714.03 L228.49,714.03 L228.48,714.03 L228.48,714.03 L228.47,714.03 L228.47,714.03 L228.46,714.03 L228.46,714.03 L228.45,714.03 L228.45,714.03 C228.3,714.03,227.35,713.94,227.18,713.92 C227.1,713.91,227.04,713.86,227.04,713.73 C227.04,713.61,227.13,713.61,227.28,713.61 C227.76,713.61,227.78,713.54,227.78,713.45 L227.75,713.25 L227.15,710.89 C226.97,711.26,226.68,711.52,226.23,711.52 C225.07,711.52,223.83,710.06,223.83,708.61 C223.83,707.67,224.38,707.02,225.16,707.02 L225.18,707.23 C224.68,707.23,224.54,707.78,224.54,708.17 C224.54,708.67,224.86,709.89,225.09,710.35 C225.4,710.94,225.84,711.3,226.24,711.3 C226.89,711.3,227.03,710.49,227.03,710.43 C227.03,710.37,227.01,710.31,227,710.26 L226.5,708.31 C226.45,708.13,226.45,708.11,226.3,707.94 C225.86,707.39,225.46,707.23,225.18,707.23 L225.16,707.02 C225.36,707.02,225.85,707.05,226.45,707.76 C226.53,707.34,226.88,707.02,227.36,707.02 C227.71,707.02,227.94,707.24,228.1,707.56 C228.27,707.92,228.4,708.53,228.4,708.55 C228.4,708.65,228.31,708.65,228.28,708.65 C228.18,708.65,228.17,708.61,228.14,708.47 C227.97,707.82,227.79,707.23,227.38,707.23 C227.11,707.23,227.08,707.49,227.08,707.69 C227.08,707.93,227.1,708,227.14,708.17 Z " />
<path
   id="path4341"
   fill="black"
   stroke-width="0"
   d="M235.57,715.57 L235.56,715.55 L235.54,715.54 L235.53,715.52 L235.51,715.51 L235.49,715.49 L235.48,715.48 L235.46,715.46 L235.44,715.44 L235.42,715.43 L235.4,715.41 L235.36,715.37 L235.32,715.33 L235.29,715.29 L235.27,715.27 L235.25,715.25 L235.23,715.23 L235.22,715.21 L235.2,715.19 L235.18,715.17 L235.17,715.15 L235.16,715.13 L235.15,715.11 L235.14,715.09 L235.13,715.07 L235.12,715.05 L235.11,715.03 L235.11,715.01 L235.1,714.99 L235.1,714.98 C235.1,714.88,235.2,714.78,235.3,714.78 C235.39,714.78,235.44,714.85,235.49,714.91 C235.61,715.06,235.84,715.34,236.28,715.55 C236.35,715.59,236.45,715.64,236.45,715.76 C236.45,715.86,236.38,715.91,236.31,715.96 C236.09,716.11,235.98,716.29,235.9,716.53 C235.88,716.62,235.84,716.75,235.7,716.75 C235.56,716.75,235.5,716.62,235.5,716.54 C235.5,716.49,235.58,716.17,235.74,715.96 H232.38 C232.21,715.96,232.03,715.96,232.03,715.76 C232.03,715.57,232.21,715.57,232.38,715.57 Z " />
<path
   id="path4343"
   fill="black"
   stroke-width="0"
   d="M230.21,707.9 L230.2,707.87 L230.19,707.83 L230.19,707.8 L230.18,707.77 L230.17,707.74 L230.16,707.71 L230.15,707.69 L230.14,707.66 L230.13,707.64 L230.12,707.62 L230.1,707.6 L230.09,707.58 L230.07,707.57 L230.06,707.55 L230.04,707.54 L230.02,707.52 L229.99,707.51 L229.97,707.5 L229.94,707.49 L229.91,707.48 L229.88,707.47 L229.86,707.47 L229.84,707.46 L229.83,707.46 L229.81,707.46 L229.79,707.46 L229.77,707.45 L229.74,707.45 L229.72,707.45 L229.7,707.45 L229.67,707.44 L229.65,707.44 L229.62,707.44 L229.59,707.44 L229.57,707.44 L229.54,707.44 L229.51,707.44 L229.48,707.44 L229.44,707.44 L229.41,707.43 L229.38,707.43 L229.34,707.43 L229.31,707.43 C229.14,707.43,229.04,707.43,229.04,707.23 C229.04,707.12,229.13,707.12,229.31,707.12 H232.87 C234.44,707.12,235.62,708.3,235.62,709.28 C235.62,709.99,235.04,710.57,234.07,710.68 C235.11,710.87,236.15,711.6,236.15,712.55 C236.15,713.29,235.5,713.92,234.3,713.92 L234.16,713.61 C235.04,713.61,235.25,713.03,235.25,712.59 C235.25,711.71,234.39,710.77,233.17,710.77 H231.72 L231.66,710.55 H233.54 C234.5,710.55,234.69,709.81,234.69,709.38 C234.69,708.4,233.8,707.43,232.62,707.43 H231.27 C231.13,707.43,231.11,707.43,231.05,707.44 C230.95,707.45,230.92,707.46,230.92,707.54 C230.92,707.57,230.92,707.59,230.97,707.77 L231.66,710.55 L231.72,710.77 L232.34,713.24 C232.43,713.58,232.45,713.61,232.88,713.61 H234.16 L234.3,713.92 H230.95 C230.76,713.92,230.66,713.92,230.66,713.72 C230.66,713.61,230.75,713.61,230.94,713.61 C230.96,713.61,231.15,713.61,231.32,713.59 C231.5,713.57,231.59,713.56,231.59,713.43 C231.59,713.4,231.58,713.36,231.55,713.25 Z " />
</g>  <g
     id="g5297"
     transform="matrix(5,0,0,-5,-736.34668,4148.5585)"
     xml:space="preserve"
     stroke-miterlimit="10.433"
     font-style="normal"
     font-variant="normal"
     font-weight="normal"
     font-stretch="normal"
     font-size-adjust="none"
     letter-spacing="normal"
     word-spacing="normal"
     ns0:text="$O$"
     ns0:preamble=""
     style="font-style:normal;font-variant:normal;font-weight:normal;font-stretch:normal;letter-spacing:normal;word-spacing:normal;text-anchor:start;fill:none;stroke:#000000;stroke-linecap:butt;stroke-linejoin:miter;stroke-miterlimit:10.43299961;stroke-opacity:1;stroke-dasharray:none;stroke-dashoffset:0">
<path
   style="fill:#000000;stroke-width:0"
   inkscape:connector-curvature="0"
   d="m 230.81,711.46 0,0.15 -0.01,0.15 -0.02,0.14 -0.02,0.14 -0.03,0.13 -0.03,0.14 -0.04,0.12 -0.04,0.13 -0.05,0.12 -0.05,0.12 -0.06,0.11 -0.06,0.11 -0.07,0.1 -0.08,0.1 -0.07,0.09 -0.09,0.09 -0.08,0.09 -0.09,0.08 -0.1,0.08 -0.1,0.07 -0.1,0.06 -0.11,0.06 -0.11,0.06 -0.11,0.05 -0.12,0.04 -0.12,0.04 -0.12,0.03 -0.13,0.03 -0.13,0.02 -0.13,0.02 -0.14,0.01 -0.13,0 -0.06,-0.25 c 0.81,0 1.71,-0.55 1.71,-2.04 0,-0.71 -0.27,-2.27 -1.26,-3.49 -0.47,-0.61 -1.29,-1.2 -2.13,-1.2 h 0 c -0.99,0 -1.68,0.81 -1.68,2.12 0,0.44 0.14,1.9 0.91,3.06 0.68,1.04 1.66,1.55 2.45,1.55 l 0.06,0.25 c -2.16,0 -4.35,-2.26 -4.35,-4.58 0,-1.65 1.12,-2.65 2.55,-2.65 2.12,0 4.34,2.18 4.34,4.55 z"
   id="path5299" />
</g>  <g
     transform="translate(854.66749,-19.507389)"
     id="g5535">
    <g
       style="stroke-width:33.33333206;stroke-miterlimit:4;stroke-dasharray:none;visibility:visible"
       transform="matrix(0.0375,0,0,0.0375,-761.27753,24.957697)"
       id="g383">
      <g
         id="g385"
         style="fill:#ff6633;stroke:none">
        <path
           id="path387"
           d="m 16050,9200 c 142,0 250,108 250,250 0,142 -108,250 -250,250 -142,0 -250,-108 -250,-250 0,-142 108,-250 250,-250 z m -250,0 0,0 z m 501,501 0,0 z"
           inkscape:connector-curvature="0" />
      </g>
      <g
         id="g389"
         style="fill:none;stroke:#000000;stroke-width:33.33333206;stroke-miterlimit:4;stroke-dasharray:none">
        <path
           id="path391"
           d="m 16050,9200 c 142,0 250,108 250,250 0,142 -108,250 -250,250 -142,0 -250,-108 -250,-250 0,-142 108,-250 250,-250"
           style="fill:none;stroke-width:33.33333206;stroke-miterlimit:4;stroke-dasharray:none"
           inkscape:connector-curvature="0" />
        <path
           id="path393"
           d="m 15800,9200 0,0"
           style="fill:none;stroke-width:33.33333206;stroke-miterlimit:4;stroke-dasharray:none"
           inkscape:connector-curvature="0" />
        <path
           id="path395"
           d="m 16301,9701 0,0"
           style="fill:none;stroke-width:33.33333206;stroke-miterlimit:4;stroke-dasharray:none"
           inkscape:connector-curvature="0" />
      </g>
      <g
         id="g397"
         style="fill:none;stroke:none">
        <rect
           id="rect399"
           height="501"
           width="501"
           y="9200"
           x="15800" />
      </g>
    </g>
    <g
       id="g5435"
       transform="translate(3.135464,75.591133)">
      <g
         id="g5430">
        <g
           id="g5426"
           style="stroke-width:14.47044182;stroke-miterlimit:4;stroke-dasharray:none"
           transform="matrix(0.07770787,0,0,0.08204694,-150.66285,266.87445)">
          <path
             inkscape:connector-curvature="0"
             id="path5388"
             d="M -230.43103,367.53695 C -60.960591,528.88879 -60.960591,528.88879 -60.960591,528.88879"
             style="fill:none;stroke:#000000;stroke-width:14.47044182;stroke-linecap:butt;stroke-linejoin:miter;stroke-miterlimit:4;stroke-opacity:1;stroke-dasharray:none" />
          <path
             inkscape:connector-curvature="0"
             id="path5388-0"
             d="M -61.912565,368.30191 C -231.383,529.65375 -231.383,529.65375 -231.383,529.65375"
             style="fill:none;stroke:#000000;stroke-width:14.47044182;stroke-linecap:butt;stroke-linejoin:miter;stroke-miterlimit:4;stroke-opacity:1;stroke-dasharray:none" />
        </g>
      </g>
    </g>
  </g>
  <g
     style="font-style:normal;font-variant:normal;font-weight:normal;font-stretch:normal;letter-spacing:normal;word-spacing:normal;text-anchor:start;fill:none;stroke:#000000;stroke-linecap:butt;stroke-linejoin:miter;stroke-miterlimit:10.43299961;stroke-opacity:1;stroke-dasharray:none;stroke-dashoffset:0"
     ns0:preamble=""
     ns0:text="$d\\vec{x}\'$"
     word-spacing="normal"
     letter-spacing="normal"
     font-size-adjust="none"
     font-stretch="normal"
     font-weight="normal"
     font-variant="normal"
     font-style="normal"
     stroke-miterlimit="10.433"
     xml:space="preserve"
     transform="matrix(5,0,0,-5,-769.03448,3773.5074)"
     id="content">
<path
   id="path3158"
   d="m 228.58,713.92 0,0 0,0 0,0.01 0,0 0,0 0,0 0,0.01 -0.01,0 0,0 0,0.01 0,0 0,0.01 0,0 0,0.01 0,0 -0.01,0.01 0,0 0,0.01 -0.01,0 0,0.01 -0.01,0 0,0 0,0 0,0.01 -0.01,0 0,0 0,0 -0.01,0 0,0.01 0,0 -0.01,0 0,0 0,0 -0.01,0 0,0.01 -0.01,0 0,0 -0.01,0 0,0 -0.01,0 0,0 -0.01,0 0,0 -0.01,0 0,0 c -0.15,0 -1.1,-0.09 -1.27,-0.11 -0.08,-0.01 -0.14,-0.06 -0.14,-0.19 0,-0.12 0.09,-0.12 0.24,-0.12 0.48,0 0.5,-0.07 0.5,-0.16 l -0.03,-0.2 -0.6,-2.36 c -0.18,0.37 -0.47,0.63 -0.92,0.63 -1.16,0 -2.4,-1.46 -2.4,-2.91 0,-0.94 0.55,-1.59 1.33,-1.59 l 0.02,0.21 c -0.5,0 -0.64,0.55 -0.64,0.94 0,0.5 0.32,1.72 0.55,2.18 0.31,0.59 0.75,0.95 1.15,0.95 0.65,0 0.79,-0.81 0.79,-0.87 0,-0.06 -0.02,-0.12 -0.03,-0.17 l -0.5,-1.95 c -0.05,-0.18 -0.05,-0.2 -0.2,-0.37 -0.44,-0.55 -0.84,-0.71 -1.12,-0.71 l -0.02,-0.21 c 0.2,0 0.69,0.03 1.29,0.74 0.08,-0.42 0.43,-0.74 0.91,-0.74 0.35,0 0.58,0.22 0.74,0.54 0.17,0.36 0.3,0.97 0.3,0.99 0,0.1 -0.09,0.1 -0.12,0.1 -0.1,0 -0.11,-0.04 -0.14,-0.18 -0.17,-0.65 -0.35,-1.24 -0.76,-1.24 -0.27,0 -0.3,0.26 -0.3,0.46 0,0.24 0.02,0.31 0.06,0.48 z"
   inkscape:connector-curvature="0"
   style="fill:#000000;stroke-width:0" />
<path
   id="path3160"
   d="m 233.84,713.05 -0.01,-0.02 -0.02,-0.01 -0.01,-0.01 -0.02,-0.02 -0.02,-0.01 -0.01,-0.02 -0.02,-0.02 -0.02,-0.01 -0.02,-0.02 -0.02,-0.02 -0.04,-0.04 -0.04,-0.04 -0.04,-0.04 -0.01,-0.02 -0.02,-0.02 -0.02,-0.02 -0.02,-0.02 -0.01,-0.02 -0.02,-0.02 -0.01,-0.02 -0.01,-0.02 -0.02,-0.02 -0.01,-0.02 0,-0.02 -0.01,-0.02 -0.01,-0.02 0,-0.02 -0.01,-0.01 0,-0.02 c 0,-0.1 0.1,-0.2 0.2,-0.2 0.09,0 0.14,0.07 0.19,0.13 0.12,0.15 0.35,0.43 0.79,0.65 0.07,0.04 0.17,0.09 0.17,0.21 0,0.09 -0.07,0.15 -0.14,0.2 -0.22,0.14 -0.33,0.32 -0.41,0.56 -0.02,0.09 -0.06,0.22 -0.2,0.22 -0.14,0 -0.2,-0.13 -0.2,-0.21 0,-0.05 0.08,-0.37 0.24,-0.57 h -3.36 c -0.17,0 -0.35,0 -0.35,-0.2 0,-0.2 0.18,-0.2 0.35,-0.2 z"
   inkscape:connector-curvature="0"
   style="fill:#000000;stroke-width:0" />
<path
   id="path3162"
   d="m 231.95,710.13 0,0.03 0.01,0.03 0.01,0.03 0.01,0.04 0.01,0.03 0.01,0.05 0.01,0.04 0.02,0.04 0.01,0.05 0.02,0.05 0.02,0.05 0.02,0.05 0.02,0.05 0.03,0.05 0.02,0.05 0.03,0.04 0.03,0.05 0.03,0.05 0.04,0.05 0.03,0.04 0.04,0.04 0.04,0.04 0.04,0.04 0.04,0.04 0.05,0.03 0.05,0.03 0.02,0.01 0.03,0.01 0.03,0.02 0.02,0.01 0.03,0 0.03,0.01 0.03,0.01 0.03,0 0.03,0.01 0.03,0 0.03,0 0.03,0 c 0.05,0 0.29,0 0.5,-0.12 -0.28,-0.05 -0.48,-0.3 -0.48,-0.54 0,-0.16 0.11,-0.35 0.38,-0.35 0.22,0 0.54,0.18 0.54,0.58 0,0.52 -0.59,0.65 -0.93,0.65 -0.57,0 -0.92,-0.52 -1.04,-0.75 -0.25,0.65 -0.79,0.75 -1.08,0.75 -1.04,0 -1.6,-1.28 -1.6,-1.53 0,-0.1 0.1,-0.1 0.12,-0.1 0.07,0 0.11,0.02 0.12,0.11 0.34,1.06 1,1.3 1.34,1.3 0.19,0 0.54,-0.08 0.54,-0.66 0,-0.31 -0.17,-0.98 -0.54,-2.37 -0.16,-0.62 -0.51,-1.04 -0.95,-1.04 -0.06,0 -0.28,0 -0.5,0.13 0.25,0.05 0.47,0.26 0.47,0.54 0,0.27 -0.22,0.35 -0.36,0.35 -0.3,0 -0.55,-0.26 -0.55,-0.58 0,-0.45 0.49,-0.65 0.93,-0.65 0.66,0 1.02,0.69 1.05,0.75 0.12,-0.37 0.48,-0.75 1.08,-0.75 1.02,0 1.59,1.28 1.59,1.53 0,0.1 -0.09,0.1 -0.12,0.1 -0.09,0 -0.11,-0.04 -0.13,-0.11 -0.33,-1.07 -1,-1.31 -1.32,-1.31 -0.39,0 -0.55,0.32 -0.55,0.66 0,0.22 0.06,0.44 0.17,0.88 z"
   inkscape:connector-curvature="0"
   style="fill:#000000;stroke-width:0" />
<path
   id="path3164"
   d="m 236.33,714.02 0.01,0.01 0,0.01 0.01,0.01 0,0.01 0,0.01 0.01,0.01 0,0.01 0,0.01 0.01,0.01 0,0.01 0,0 0,0.01 0.01,0.01 0,0.01 0,0 0,0.01 0,0.01 0.01,0 0,0.01 0,0 0,0.01 0,0.01 0,0 0,0.01 0,0.01 0,0.01 0,0.01 0,0 c 0,0.22 -0.19,0.39 -0.41,0.39 -0.26,0 -0.35,-0.22 -0.38,-0.33 l -0.92,-3.01 c -0.01,-0.01 -0.03,-0.11 -0.03,-0.11 0,-0.09 0.21,-0.15 0.27,-0.15 0.05,0 0.05,0.01 0.1,0.11 z"
   inkscape:connector-curvature="0"
   style="fill:#000000;stroke-width:0" />
</g></svg>
