<?xml version="1.0" encoding="UTF-8" standalone="no"?>
<svg
   xmlns:ns0="http://www.iki.fi/pav/software/textext/"
   xmlns:dc="http://purl.org/dc/elements/1.1/"
   xmlns:cc="http://creativecommons.org/ns#"
   xmlns:rdf="http://www.w3.org/1999/02/22-rdf-syntax-ns#"
   xmlns:svg="http://www.w3.org/2000/svg"
   xmlns="http://www.w3.org/2000/svg"
   xmlns:xlink="http://www.w3.org/1999/xlink"
   xmlns:sodipodi="http://sodipodi.sourceforge.net/DTD/sodipodi-0.dtd"
   xmlns:inkscape="http://www.inkscape.org/namespaces/inkscape"
   version="1.1"
   width="800"
   height="600"
   id="svg2"
   inkscape:version="0.48.1 r9760"
   sodipodi:docname="VFPt_image_charge_plane.svg">
  <sodipodi:namedview
     pagecolor="#ffffff"
     bordercolor="#666666"
     borderopacity="1"
     objecttolerance="10"
     gridtolerance="10"
     guidetolerance="10"
     inkscape:pageopacity="0"
     inkscape:pageshadow="2"
     inkscape:window-width="1440"
     inkscape:window-height="848"
     id="namedview226"
     showgrid="false"
     inkscape:zoom="1.045"
     inkscape:cx="400"
     inkscape:cy="300"
     inkscape:window-x="0"
     inkscape:window-y="0"
     inkscape:window-maximized="1"
     inkscape:current-layer="svg2" />
  <metadata
     id="metadata228">
    <rdf:RDF>
      <cc:Work
         rdf:about="">
        <dc:format>image/svg+xml</dc:format>
        <dc:type
           rdf:resource="http://purl.org/dc/dcmitype/StillImage" />
      </cc:Work>
    </rdf:RDF>
  </metadata>
  <title
     id="title4">VFPt_image_charge_plane</title>
  <desc
     id="desc6">VFPt_image_charge_plane
created with VectorFieldPlot 1.0
http://commons.wikimedia.org/wiki/User:Geek3/VectorFieldPlot

about: http://commons.wikimedia.org/wiki/File:VFPt_image_charge_plane.svg
rights: GNU Free Documentation license,
        Creative Commons Attribution ShareAlike license
  </desc>
  <defs
     id="defs8">
    <radialGradient
       id="white_spot"
       cx="0.65"
       cy="0.7"
       r="0.75">
      <stop
         stop-color="#ffffff"
         offset="0"
         stop-opacity="0.7"
         id="stop11" />
      <stop
         stop-color="#ffffff"
         offset="0.1"
         stop-opacity="0.5"
         id="stop13" />
      <stop
         stop-color="#ffffff"
         offset="0.6"
         stop-opacity="0"
         id="stop15" />
      <stop
         stop-color="#000000"
         offset="0.6"
         stop-opacity="0"
         id="stop17" />
      <stop
         stop-color="#000000"
         offset="0.75"
         stop-opacity="0.05"
         id="stop19" />
      <stop
         stop-color="#000000"
         offset="0.85"
         stop-opacity="0.15"
         id="stop21" />
      <stop
         stop-color="#000000"
         offset="1"
         stop-opacity="0.5"
         id="stop23" />
    </radialGradient>
    <path
       id="arrow1"
       stroke="none"
       fill="#000000"
       transform="scale(0.01)"
       d="M 0.3,0 L -2.2,2.25 L 3.8,0 L -2.2,-2.25 L 0.3,0 Z" />
    <radialGradient
       inkscape:collect="always"
       xlink:href="#white_spot"
       id="radialGradient3205"
       cx="4.4999993"
       cy="5.9999996"
       r="22.5"
       fx="4.4999993"
       fy="5.9999996"
       gradientUnits="userSpaceOnUse" />
    <radialGradient
       inkscape:collect="always"
       xlink:href="#white_spot"
       id="radialGradient3207"
       cx="4.4999993"
       cy="5.9999996"
       r="22.5"
       fx="4.4999993"
       fy="5.9999996"
       gradientUnits="userSpaceOnUse" />
  </defs>
  <rect
     id="background"
     x="-800"
     y="0"
     width="800"
     height="600"
     transform="scale(-1,1)"
     style="fill:#ffffff" />
  <g
     id="image"
     transform="matrix(-100,0,0,-100,400.00002,300)">
    <g
       id="fieldlines"
       style="fill:none;stroke:#000000;stroke-width:0.02;stroke-linecap:round;stroke-linejoin:round">
      <g
         id="fieldline1">
        <path
           d="m -1.5,0 0.3988,0.064 0.2169,0.0327 0.1678,0.023 0.1435,0.0173 0.1282,0.013 0.1184,0.0096 0.112,0.0066 L -0.1064,0.17 0,0.1713"
           id="path30"
           inkscape:connector-curvature="0" />
        <g
           id="arrows1">
          <use
             xlink:href="#arrow1"
             transform="matrix(1.984793,0.24616375,-0.24616375,1.984793,-0.7092,0.1204)"
             id="use33"
             x="0"
             y="0"
             width="800"
             height="600" />
        </g>
      </g>
      <g
         id="fieldline2">
        <path
           d="M 0,0.1713 0.1064,0.17 0.2144,0.1662 0.3264,0.1596 0.4448,0.15 0.573,0.137 0.7165,0.1197 0.8843,0.0967 1.1012,0.064 1.5,0"
           id="path36"
           inkscape:connector-curvature="0"
           style="stroke-dasharray:0.1, 0.15;stroke-dashoffset:0.1" />
        <g
           id="arrows2" />
      </g>
      <g
         id="fieldline3">
        <path
           d="m -1.5,0 0.2511,0.1345 0.1438,0.0748 0.1144,0.0572 0.0993,0.0472 0.089,0.04 0.0819,0.0342 0.0767,0.0297 0.0727,0.0257 0.0695,0.0222 0.0671,0.019 0.0652,0.0161 0.0636,0.0134 0.0624,0.0108 0.0616,0.0083 0.0609,0.0058 0.0605,0.0035 L 0,0.5436"
           id="path40"
           inkscape:connector-curvature="0" />
        <g
           id="arrows3">
          <use
             xlink:href="#arrow1"
             transform="matrix(1.8437263,0.77503117,-0.77503117,1.8437263,-0.7861,0.3604)"
             id="use43"
             x="0"
             y="0"
             width="800"
             height="600" />
        </g>
      </g>
      <g
         id="fieldline4">
        <path
           d="M 0,0.5436 0.0603,0.5424 0.1208,0.5389 0.1817,0.5331 0.2433,0.5248 0.3057,0.514 0.3693,0.5006 0.4345,0.4845 0.5016,0.4655 0.5711,0.4433 0.6438,0.4176 0.7205,0.3879 0.8024,0.3537 0.8914,0.3137 0.9907,0.2665 1.1051,0.2093 1.2489,0.1345 1.5,0"
           id="path46"
           inkscape:connector-curvature="0"
           style="stroke-dasharray:0.1, 0.15;stroke-dashoffset:0.1" />
        <g
           id="arrows4" />
      </g>
      <g
         id="fieldline5">
        <path
           d="m -1.5,0 0.1657,0.1896 0.0992,0.1103 0.0819,0.088 0.0725,0.0746 0.0668,0.0654 0.0627,0.0584 0.06,0.0525 0.0578,0.0477 0.0562,0.0433 0.055,0.0395 0.0541,0.0359 0.0532,0.0326 0.0527,0.0294 0.0522,0.0266 0.0519,0.0237 0.0515,0.021 0.0512,0.0184 0.0511,0.0158 0.0509,0.0132 0.0508,0.0108 0.0507,0.0084 0.0507,0.006 0.0505,0.0035 L 0,1.0158"
           id="path50"
           inkscape:connector-curvature="0" />
        <g
           id="arrows5">
          <use
             xlink:href="#arrow1"
             transform="matrix(1.490021,1.3341055,-1.3341055,1.490021,-0.9535,0.5835)"
             id="use53"
             x="0"
             y="0"
             width="800"
             height="600" />
        </g>
      </g>
      <g
         id="fieldline6">
        <path
           d="M 0,1.0158 0.0507,1.0146 0.1012,1.0111 0.1519,1.0051 0.2026,0.9967 0.2534,0.9859 0.3043,0.9727 0.3554,0.9569 0.4066,0.9385 0.4581,0.9175 0.51,0.8938 0.5622,0.8672 0.6149,0.8378 0.6681,0.8052 0.7222,0.7693 0.7772,0.7298 0.8334,0.6865 0.8912,0.6388 0.9512,0.5863 1.0139,0.5279 1.0807,0.4625 1.1532,0.3879 1.2351,0.2999 1.3343,0.1896 1.5,0"
           id="path56"
           inkscape:connector-curvature="0"
           style="stroke-dasharray:0.1, 0.15;stroke-dashoffset:0.1" />
        <g
           id="arrows6" />
      </g>
      <g
         id="fieldline7">
        <path
           d="m -1.5,0 0.078,0.2286 0.0496,0.139 0.0432,0.1145 0.0403,0.1002 0.0389,0.0904 0.0383,0.083 0.0382,0.0771 0.0383,0.072 0.0387,0.0676 0.0392,0.0636 0.0398,0.06 0.0404,0.0566 0.0411,0.0534 0.0417,0.0504 0.0425,0.0474 0.0431,0.0445 0.0438,0.0418 0.0445,0.039 0.0451,0.0364 0.0457,0.0337 0.0462,0.0312 0.0468,0.0285 0.0472,0.026 0.0477,0.0235 0.0481,0.021 0.0484,0.0184 0.0487,0.016 0.049,0.0135 0.0493,0.0111 0.0494,0.0085 0.0495,0.0062 0.0496,0.0036 L 0,1.7079"
           id="path60"
           inkscape:connector-curvature="0" />
        <g
           id="arrows7">
          <use
             xlink:href="#arrow1"
             transform="matrix(0.86574516,1.8029102,-1.8029102,0.86574516,-1.2153,0.7471)"
             id="use63"
             x="0"
             y="0"
             width="800"
             height="600" />
          <use
             xlink:href="#arrow1"
             transform="matrix(1.757301,0.95493099,-0.95493099,1.757301,-0.5212,1.5671)"
             id="use65"
             x="0"
             y="0"
             width="800"
             height="600" />
        </g>
      </g>
      <g
         id="fieldline8">
        <path
           d="M 0,1.7079 0.0497,1.7067 0.0993,1.7031 0.1488,1.6969 0.1982,1.6884 0.2475,1.6773 0.2965,1.6638 0.3452,1.6478 0.3936,1.6294 0.4417,1.6084 0.4894,1.5849 0.5366,1.5589 0.5834,1.5304 0.6296,1.4992 0.6753,1.4655 0.7204,1.4291 0.7649,1.3901 0.8087,1.3483 0.8518,1.3038 0.8943,1.2564 0.936,1.206 0.9771,1.1526 1.0175,1.096 1.0573,1.036 1.0965,0.9724 1.1352,0.9048 1.1735,0.8328 1.2117,0.7557 1.25,0.6727 1.2889,0.5823 1.3292,0.4821 1.3724,0.3676 1.422,0.2286 1.5,0"
           id="path68"
           inkscape:connector-curvature="0"
           style="stroke-dasharray:0.1, 0.15;stroke-dashoffset:0.1" />
        <g
           id="arrows8" />
      </g>
      <g
         id="fieldline9">
        <path
           d="m -1.5,0 -0.0199,0.2456 -0.0105,0.1562 -0.0066,0.133 -0.0036,0.1199 -8e-4,0.1113 0.0017,0.1051 0.0041,0.1001 0.0064,0.0961 0.0086,0.0927 0.0109,0.0895 0.013,0.0868 0.0152,0.0841 0.0172,0.0818 0.0193,0.0794 0.0214,0.0771 0.0233,0.0749 0.0253,0.0727 0.0271,0.0706 0.0291,0.0683 0.0308,0.0662 0.0325,0.064 0.0342,0.0618 0.0359,0.0596 0.0375,0.0574 0.039,0.0551 0.0404,0.0528 0.0418,0.0504 0.0432,0.0482 0.0444,0.0458 0.0456,0.0435 0.0468,0.041 0.0478,0.0387 0.0488,0.0362 0.0497,0.0338 0.0506,0.0313 0.0514,0.0289 0.0521,0.0264 0.0528,0.0239 0.0533,0.0214 0.0539,0.0189 0.0544,0.0164 0.0547,0.0139 0.055,0.0113 0.0554,0.0089 0.0554,0.0063 0.0557,0.0038 L 0,2.9123"
           id="path72"
           inkscape:connector-curvature="0" />
        <g
           id="arrows9">
          <use
             xlink:href="#arrow1"
             transform="matrix(0.03176366,1.9997478,-1.9997478,0.03176366,-1.5409,0.7986)"
             id="use75"
             x="0"
             y="0"
             width="800"
             height="600" />
          <use
             xlink:href="#arrow1"
             transform="matrix(1.5032192,1.3192164,-1.3192164,1.5032192,-0.8801,2.5615)"
             id="use77"
             x="0"
             y="0"
             width="800"
             height="600" />
        </g>
      </g>
      <g
         id="fieldline10">
        <path
           d="M 0,2.9123 0.0557,2.9111 0.1114,2.9073 0.1668,2.901 0.2222,2.8921 0.2772,2.8808 0.3319,2.8669 0.3863,2.8505 0.4402,2.8316 0.4935,2.8102 0.5463,2.7863 0.5984,2.7599 0.6498,2.731 0.7004,2.6997 0.7501,2.6659 0.7989,2.6297 0.8467,2.591 0.8935,2.55 0.9391,2.5065 0.9835,2.4607 1.0267,2.4125 1.0685,2.3621 1.1089,2.3093 1.1479,2.2542 1.1854,2.1968 1.2213,2.1372 1.2555,2.0754 1.288,2.0114 1.3188,1.9452 1.3479,1.8769 1.375,1.8063 1.4003,1.7336 1.4236,1.6587 1.445,1.5816 1.4643,1.5022 1.4815,1.4204 1.4967,1.3363 1.5097,1.2495 1.5206,1.16 1.5292,1.0673 1.5356,0.9712 1.5397,0.8711 1.5414,0.766 1.5406,0.6547 1.537,0.5348 1.5304,0.4018 1.5199,0.2456 1.5,0"
           id="path80"
           inkscape:connector-curvature="0"
           style="stroke-dasharray:0.1, 0.15;stroke-dashoffset:0.1" />
        <g
           id="arrows10" />
      </g>
      <g
         id="fieldline11">
        <path
           d="M -1.5,0 -1.6249,0.2278 -1.7055,0.3791 -1.7739,0.5123 -1.8347,0.6358 -1.89,0.7535 -1.9409,0.8673 -1.988,0.9785 -2.0317,1.0876 -2.0722,1.1952 -2.1097,1.3017 -2.1444,1.4072 -2.1763,1.5119 -2.2055,1.6159 -2.232,1.7193 -2.256,1.8222 -2.2773,1.9245 -2.2961,2.0263 -2.3124,2.1275 -2.3261,2.2282 -2.3374,2.3284 -2.3462,2.4279 -2.3525,2.5268 -2.3564,2.625 l -0.0014,0.0974 9e-4,0.0967 0.0033,0.0959 0.0057,0.095"
           id="path84"
           inkscape:connector-curvature="0" />
        <g
           id="arrows11">
          <use
             xlink:href="#arrow1"
             transform="matrix(-0.85061093,1.8100997,-1.8100997,-0.85061093,-1.8693,0.7095)"
             id="use87"
             x="0"
             y="0"
             width="800"
             height="600" />
          <use
             xlink:href="#arrow1"
             transform="matrix(-0.24373869,1.9850923,-1.9850923,-0.24373869,-2.3247,2.2197)"
             id="use89"
             x="0"
             y="0"
             width="800"
             height="600" />
        </g>
      </g>
      <g
         id="fieldline12">
        <path
           d="M 2.3479,3.01 2.3536,2.915 2.3569,2.8191 2.3578,2.7224 2.3564,2.625 2.3525,2.5268 2.3462,2.4279 2.3374,2.3284 2.3261,2.2282 2.3124,2.1275 2.2961,2.0263 2.2773,1.9245 2.256,1.8222 2.232,1.7193 2.2055,1.6159 2.1763,1.5119 2.1444,1.4072 2.1097,1.3017 2.0722,1.1952 2.0317,1.0876 1.988,0.9785 1.9409,0.8673 1.89,0.7535 1.8347,0.6358 1.7739,0.5123 1.7055,0.3791 1.6249,0.2278 1.5,0"
           id="path92"
           inkscape:connector-curvature="0"
           style="stroke-dasharray:0.1, 0.15;stroke-dashoffset:0.1" />
        <g
           id="arrows12" />
      </g>
      <g
         id="fieldline13">
        <path
           d="M -1.5,0 -1.7419,0.1814 -1.9076,0.3085 -2.0537,0.4232 -2.1895,0.5329 -2.3186,0.6402 -2.443,0.7465 -2.5635,0.8527 -2.6809,0.9593 -2.7955,1.0666 -2.9078,1.1748 -3.0177,1.2842 -3.1256,1.3949 -3.2315,1.5069 -3.3354,1.6203 -3.4374,1.7351 -3.5376,1.8513 -3.6358,1.9691 -3.7322,2.0883 -3.8267,2.2089 -3.9193,2.331 -4.01,2.4545"
           id="path96"
           inkscape:connector-curvature="0" />
        <g
           id="arrows13">
          <use
             xlink:href="#arrow1"
             transform="matrix(-1.5560478,1.2564694,-1.2564694,-1.5560478,-2.1339,0.488)"
             id="use99"
             x="0"
             y="0"
             width="800"
             height="600" />
          <use
             xlink:href="#arrow1"
             transform="matrix(-1.3086899,1.5123924,-1.5123924,-1.3086899,-3.4446,1.7436)"
             id="use101"
             x="0"
             y="0"
             width="800"
             height="600" />
        </g>
      </g>
      <g
         id="fieldline14">
        <path
           d="M 4.01,2.4545 3.9193,2.331 3.8267,2.2089 3.7322,2.0883 3.6358,1.9691 3.5376,1.8513 3.4374,1.7351 3.3354,1.6203 3.2315,1.5069 3.1256,1.3949 3.0177,1.2842 2.9078,1.1748 2.7955,1.0666 2.6809,0.9593 2.5635,0.8527 2.443,0.7465 2.3186,0.6402 2.1895,0.5329 2.0537,0.4232 1.9076,0.3085 1.7419,0.1814 1.5,0"
           id="path104"
           inkscape:connector-curvature="0"
           style="stroke-dasharray:0.1, 0.15;stroke-dashoffset:0.1" />
        <g
           id="arrows14" />
      </g>
      <g
         id="fieldline15">
        <path
           d="m -1.5,0 -0.4447,0.0974 -0.3274,0.0742 -0.3021,0.0709 -0.292,0.0711 -0.2874,0.0726 -0.2856,0.0747 -0.2851,0.0772 -0.2857,0.08"
           id="path108"
           inkscape:connector-curvature="0" />
        <g
           id="arrows15">
          <use
             xlink:href="#arrow1"
             transform="matrix(-1.9477143,0.4543225,-0.4543225,-1.9477143,-2.2809,0.1737)"
             id="use111"
             x="0"
             y="0"
             width="800"
             height="600" />
          <use
             xlink:href="#arrow1"
             transform="matrix(-1.9320322,0.51696372,-0.51696372,-1.9320322,-3.4362,0.4603)"
             id="use113"
             x="0"
             y="0"
             width="800"
             height="600" />
        </g>
      </g>
      <g
         id="fieldline16">
        <path
           d="M 4.01,0.6181 3.7243,0.5381 3.4392,0.4609 3.1536,0.3862 2.8662,0.3136 2.5742,0.2425 2.2721,0.1716 1.9447,0.0974 1.5,0"
           id="path116"
           inkscape:connector-curvature="0"
           style="stroke-dasharray:0.1, 0.15;stroke-dashoffset:0.1" />
        <g
           id="arrows16" />
      </g>
      <g
         id="fieldline17">
        <path
           d="m -1.5,0 -0.4447,-0.0974 -0.3274,-0.0742 -0.3021,-0.0709 -0.292,-0.0711 -0.2874,-0.0726 -0.2856,-0.0747 -0.2851,-0.0772 -0.2857,-0.08"
           id="path120"
           inkscape:connector-curvature="0" />
        <g
           id="arrows17">
          <use
             xlink:href="#arrow1"
             transform="matrix(-1.9477143,-0.4543225,0.4543225,-1.9477143,-2.2809,-0.1737)"
             id="use123"
             x="0"
             y="0"
             width="800"
             height="600" />
          <use
             xlink:href="#arrow1"
             transform="matrix(-1.9320322,-0.51696372,0.51696372,-1.9320322,-3.4362,-0.4603)"
             id="use125"
             x="0"
             y="0"
             width="800"
             height="600" />
        </g>
      </g>
      <g
         id="fieldline18">
        <path
           d="m 4.01,-0.6181 -0.2857,0.08 -0.2851,0.0772 -0.2856,0.0747 -0.2874,0.0726 -0.292,0.0711 L 2.2721,-0.1716 1.9447,-0.0974 1.5,0"
           id="path128"
           inkscape:connector-curvature="0"
           style="stroke-dasharray:0.1, 0.15;stroke-dashoffset:0.1" />
        <g
           id="arrows18" />
      </g>
      <g
         id="fieldline19">
        <path
           d="M -1.5,0 -1.7419,-0.1814 -1.9076,-0.3085 -2.0537,-0.4232 -2.1895,-0.5329 -2.3186,-0.6402 -2.443,-0.7465 -2.5635,-0.8527 -2.6809,-0.9593 -2.7955,-1.0666 -2.9078,-1.1748 -3.0177,-1.2842 -3.1256,-1.3949 -3.2315,-1.5069 -3.3354,-1.6203 -3.4374,-1.7351 -3.5376,-1.8513 -3.6358,-1.9691 -3.7322,-2.0883 -3.8267,-2.2089 -3.9193,-2.331 -4.01,-2.4545"
           id="path132"
           inkscape:connector-curvature="0" />
        <g
           id="arrows19">
          <use
             xlink:href="#arrow1"
             transform="matrix(-1.5560478,-1.2564694,1.2564694,-1.5560478,-2.1339,-0.488)"
             id="use135"
             x="0"
             y="0"
             width="800"
             height="600" />
          <use
             xlink:href="#arrow1"
             transform="matrix(-1.3086899,-1.5123924,1.5123924,-1.3086899,-3.4446,-1.7436)"
             id="use137"
             x="0"
             y="0"
             width="800"
             height="600" />
        </g>
      </g>
      <g
         id="fieldline20">
        <path
           d="M 4.01,-2.4545 3.9193,-2.331 3.8267,-2.2089 3.7322,-2.0883 3.6358,-1.9691 3.5376,-1.8513 3.4374,-1.7351 3.3354,-1.6203 3.2315,-1.5069 3.1256,-1.3949 3.0177,-1.2842 2.9078,-1.1748 2.7955,-1.0666 2.6809,-0.9593 2.5635,-0.8527 2.443,-0.7465 2.3186,-0.6402 2.1895,-0.5329 2.0537,-0.4232 1.9076,-0.3085 1.7419,-0.1814 1.5,0"
           id="path140"
           inkscape:connector-curvature="0"
           style="stroke-dasharray:0.1, 0.15;stroke-dashoffset:0.1" />
        <g
           id="arrows20" />
      </g>
      <g
         id="fieldline21">
        <path
           d="M -1.5,0 -1.6249,-0.2278 -1.7055,-0.3791 -1.7739,-0.5123 -1.8347,-0.6358 -1.89,-0.7535 -1.9409,-0.8673 -1.988,-0.9785 -2.0317,-1.0876 -2.0722,-1.1952 -2.1097,-1.3017 -2.1444,-1.4072 -2.1763,-1.5119 -2.2055,-1.6159 -2.232,-1.7193 -2.256,-1.8222 -2.2773,-1.9245 -2.2961,-2.0263 -2.3124,-2.1275 -2.3261,-2.2282 -2.3374,-2.3284 -2.3462,-2.4279 -2.3525,-2.5268 -2.3564,-2.625 l -0.0014,-0.0974 9e-4,-0.0967 0.0033,-0.0959 0.0057,-0.095"
           id="path144"
           inkscape:connector-curvature="0" />
        <g
           id="arrows21">
          <use
             xlink:href="#arrow1"
             transform="matrix(-0.85061093,-1.8100997,1.8100997,-0.85061093,-1.8693,-0.7095)"
             id="use147"
             x="0"
             y="0"
             width="800"
             height="600" />
          <use
             xlink:href="#arrow1"
             transform="matrix(-0.24373869,-1.9850923,1.9850923,-0.24373869,-2.3247,-2.2197)"
             id="use149"
             x="0"
             y="0"
             width="800"
             height="600" />
        </g>
      </g>
      <g
         id="fieldline22">
        <path
           d="m 2.3479,-3.01 0.0057,0.095 0.0033,0.0959 9e-4,0.0967 L 2.3564,-2.625 2.3525,-2.5268 2.3462,-2.4279 2.3374,-2.3284 2.3261,-2.2282 2.3124,-2.1275 2.2961,-2.0263 2.2773,-1.9245 2.256,-1.8222 2.232,-1.7193 2.2055,-1.6159 2.1763,-1.5119 2.1444,-1.4072 2.1097,-1.3017 2.0722,-1.1952 2.0317,-1.0876 1.988,-0.9785 1.9409,-0.8673 1.89,-0.7535 1.8347,-0.6358 1.7739,-0.5123 1.7055,-0.3791 1.6249,-0.2278 1.5,0"
           id="path152"
           inkscape:connector-curvature="0"
           style="stroke-dasharray:0.1, 0.15;stroke-dashoffset:0.1" />
        <g
           id="arrows22" />
      </g>
      <g
         id="fieldline23">
        <path
           d="m -1.5,0 -0.0199,-0.2456 -0.0105,-0.1562 -0.0066,-0.133 -0.0036,-0.1199 -8e-4,-0.1113 0.0017,-0.1051 0.0041,-0.1001 0.0064,-0.0961 0.0086,-0.0927 0.0109,-0.0895 0.013,-0.0868 0.0152,-0.0841 0.0172,-0.0818 0.0193,-0.0794 0.0214,-0.0771 0.0233,-0.0749 0.0253,-0.0727 0.0271,-0.0706 0.0291,-0.0683 0.0308,-0.0662 0.0325,-0.064 0.0342,-0.0618 0.0359,-0.0596 0.0375,-0.0574 0.039,-0.0551 0.0404,-0.0528 0.0418,-0.0504 0.0432,-0.0482 0.0444,-0.0458 0.0456,-0.0435 0.0468,-0.041 0.0478,-0.0387 0.0488,-0.0362 0.0497,-0.0338 0.0506,-0.0313 0.0514,-0.0289 0.0521,-0.0264 0.0528,-0.0239 0.0533,-0.0214 0.0539,-0.0189 0.0544,-0.0164 0.0547,-0.0139 0.055,-0.0113 0.0554,-0.0089 0.0554,-0.0063 0.0557,-0.0038 L 0,-2.9123"
           id="path156"
           inkscape:connector-curvature="0" />
        <g
           id="arrows23">
          <use
             xlink:href="#arrow1"
             transform="matrix(0.03176366,-1.9997478,1.9997478,0.03176366,-1.5409,-0.7986)"
             id="use159"
             x="0"
             y="0"
             width="800"
             height="600" />
          <use
             xlink:href="#arrow1"
             transform="matrix(1.5032192,-1.3192164,1.3192164,1.5032192,-0.8801,-2.5615)"
             id="use161"
             x="0"
             y="0"
             width="800"
             height="600" />
        </g>
      </g>
      <g
         id="fieldline24">
        <path
           d="m 0,-2.9123 0.0557,0.0012 0.0557,0.0038 0.0554,0.0063 0.0554,0.0089 0.055,0.0113 0.0547,0.0139 0.0544,0.0164 0.0539,0.0189 0.0533,0.0214 0.0528,0.0239 0.0521,0.0264 0.0514,0.0289 0.0506,0.0313 0.0497,0.0338 0.0488,0.0362 0.0478,0.0387 0.0468,0.041 0.0456,0.0435 0.0444,0.0458 0.0432,0.0482 0.0418,0.0504 0.0404,0.0528 0.039,0.0551 0.0375,0.0574 0.0359,0.0596 0.0342,0.0618 0.0325,0.064 0.0308,0.0662 0.0291,0.0683 0.0271,0.0706 0.0253,0.0727 0.0233,0.0749 0.0214,0.0771 0.0193,0.0794 0.0172,0.0818 0.0152,0.0841 0.013,0.0868 0.0109,0.0895 0.0086,0.0927 0.0064,0.0961 0.0041,0.1001 0.0017,0.1051 -8e-4,0.1113 L 1.537,-0.5348 1.5304,-0.4018 1.5199,-0.2456 1.5,0"
           id="path164"
           inkscape:connector-curvature="0"
           style="stroke-dasharray:0.1, 0.15;stroke-dashoffset:0.1" />
        <g
           id="arrows24" />
      </g>
      <g
         id="fieldline25">
        <path
           d="m -1.5,0 0.078,-0.2286 0.0496,-0.139 0.0432,-0.1145 0.0403,-0.1002 0.0389,-0.0904 0.0383,-0.083 0.0382,-0.0771 0.0383,-0.072 0.0387,-0.0676 0.0392,-0.0636 0.0398,-0.06 0.0404,-0.0566 0.0411,-0.0534 0.0417,-0.0504 0.0425,-0.0474 0.0431,-0.0445 0.0438,-0.0418 0.0445,-0.039 0.0451,-0.0364 0.0457,-0.0337 0.0462,-0.0312 0.0468,-0.0285 0.0472,-0.026 0.0477,-0.0235 0.0481,-0.021 0.0484,-0.0184 0.0487,-0.016 0.049,-0.0135 0.0493,-0.0111 0.0494,-0.0085 0.0495,-0.0062 0.0496,-0.0036 L 0,-1.7079"
           id="path168"
           inkscape:connector-curvature="0" />
        <g
           id="arrows25">
          <use
             xlink:href="#arrow1"
             transform="matrix(0.86574516,-1.8029102,1.8029102,0.86574516,-1.2153,-0.7471)"
             id="use171"
             x="0"
             y="0"
             width="800"
             height="600" />
          <use
             xlink:href="#arrow1"
             transform="matrix(1.757301,-0.95493099,0.95493099,1.757301,-0.5212,-1.5671)"
             id="use173"
             x="0"
             y="0"
             width="800"
             height="600" />
        </g>
      </g>
      <g
         id="fieldline26">
        <path
           d="m 0,-1.7079 0.0497,0.0012 0.0496,0.0036 0.0495,0.0062 0.0494,0.0085 0.0493,0.0111 0.049,0.0135 0.0487,0.016 0.0484,0.0184 0.0481,0.021 0.0477,0.0235 0.0472,0.026 0.0468,0.0285 0.0462,0.0312 0.0457,0.0337 0.0451,0.0364 0.0445,0.039 0.0438,0.0418 0.0431,0.0445 0.0425,0.0474 0.0417,0.0504 0.0411,0.0534 0.0404,0.0566 0.0398,0.06 0.0392,0.0636 0.0387,0.0676 0.0383,0.072 0.0382,0.0771 0.0383,0.083 0.0389,0.0904 0.0403,0.1002 0.0432,0.1145 0.0496,0.139 L 1.5,0"
           id="path176"
           inkscape:connector-curvature="0"
           style="stroke-dasharray:0.1, 0.15;stroke-dashoffset:0.1" />
        <g
           id="arrows26" />
      </g>
      <g
         id="fieldline27">
        <path
           d="m -1.5,0 0.1657,-0.1896 0.0992,-0.1103 0.0819,-0.088 0.0725,-0.0746 0.0668,-0.0654 0.0627,-0.0584 0.06,-0.0525 0.0578,-0.0477 0.0562,-0.0433 0.055,-0.0395 0.0541,-0.0359 0.0532,-0.0326 0.0527,-0.0294 0.0522,-0.0266 0.0519,-0.0237 0.0515,-0.021 0.0512,-0.0184 0.0511,-0.0158 0.0509,-0.0132 0.0508,-0.0108 0.0507,-0.0084 0.0507,-0.006 0.0505,-0.0035 L 0,-1.0158"
           id="path180"
           inkscape:connector-curvature="0" />
        <g
           id="arrows27">
          <use
             xlink:href="#arrow1"
             transform="matrix(1.490021,-1.3341055,1.3341055,1.490021,-0.9535,-0.5835)"
             id="use183"
             x="0"
             y="0"
             width="800"
             height="600" />
        </g>
      </g>
      <g
         id="fieldline28">
        <path
           d="m 0,-1.0158 0.0507,0.0012 0.0505,0.0035 0.0507,0.006 0.0507,0.0084 0.0508,0.0108 0.0509,0.0132 0.0511,0.0158 0.0512,0.0184 0.0515,0.021 0.0519,0.0237 0.0522,0.0266 0.0527,0.0294 0.0532,0.0326 0.0541,0.0359 0.055,0.0395 0.0562,0.0433 0.0578,0.0477 0.06,0.0525 0.0627,0.0584 0.0668,0.0654 0.0725,0.0746 0.0819,0.088 0.0992,0.1103 L 1.5,0"
           id="path186"
           inkscape:connector-curvature="0"
           style="stroke-dasharray:0.1, 0.15;stroke-dashoffset:0.1" />
        <g
           id="arrows28" />
      </g>
      <g
         id="fieldline29">
        <path
           d="m -1.5,0 0.2511,-0.1345 0.1438,-0.0748 0.1144,-0.0572 0.0993,-0.0472 0.089,-0.04 0.0819,-0.0342 0.0767,-0.0297 0.0727,-0.0257 0.0695,-0.0222 0.0671,-0.019 0.0652,-0.0161 0.0636,-0.0134 0.0624,-0.0108 0.0616,-0.0083 0.0609,-0.0058 0.0605,-0.0035 L 0,-0.5436"
           id="path190"
           inkscape:connector-curvature="0" />
        <g
           id="arrows29">
          <use
             xlink:href="#arrow1"
             transform="matrix(1.8437263,-0.77503117,0.77503117,1.8437263,-0.7861,-0.3604)"
             id="use193"
             x="0"
             y="0"
             width="800"
             height="600" />
        </g>
      </g>
      <g
         id="fieldline30">
        <path
           d="m 0,-0.5436 0.0603,0.0012 0.0605,0.0035 0.0609,0.0058 0.0616,0.0083 0.0624,0.0108 0.0636,0.0134 0.0652,0.0161 0.0671,0.019 0.0695,0.0222 0.0727,0.0257 0.0767,0.0297 0.0819,0.0342 0.089,0.04 0.0993,0.0472 0.1144,0.0572 0.1438,0.0748 L 1.5,0"
           id="path196"
           inkscape:connector-curvature="0"
           style="stroke-dasharray:0.1, 0.15;stroke-dashoffset:0.1" />
        <g
           id="arrows30" />
      </g>
      <g
         id="fieldline31">
        <path
           d="m -1.5,0 0.3988,-0.064 0.2169,-0.0327 0.1678,-0.023 0.1435,-0.0173 0.1282,-0.013 0.1184,-0.0096 0.112,-0.0066 L -0.1064,-0.17 0,-0.1713"
           id="path200"
           inkscape:connector-curvature="0" />
        <g
           id="arrows31">
          <use
             xlink:href="#arrow1"
             transform="matrix(1.984793,-0.24616375,0.24616375,1.984793,-0.7092,-0.1204)"
             id="use203"
             x="0"
             y="0"
             width="800"
             height="600" />
        </g>
      </g>
      <g
         id="fieldline32">
        <path
           d="m 0,-0.1713 0.1064,0.0013 0.108,0.0038 0.112,0.0066 0.1184,0.0096 0.1282,0.013 0.1435,0.0173 0.1678,0.023 L 1.1012,-0.064 1.5,0"
           id="path206"
           inkscape:connector-curvature="0"
           style="stroke-dasharray:0.1, 0.15;stroke-dashoffset:0.1" />
        <g
           id="arrows32" />
      </g>
    </g>
    <g
       id="symbols">
      <g
         id="charge1"
         transform="matrix(0.01,0,0,0.01,-1.5,0)">
        <circle
           style="fill:#ff0000;stroke:none"
           cx="0"
           cy="0"
           r="14"
           id="circle211"
           d="M 14,0 C 14,7.7319865 7.7319865,14 0,14 -7.7319865,14 -14,7.7319865 -14,0 c 0,-7.7319865 6.2680135,-14 14,-14 7.7319865,0 14,6.2680135 14,14 z"
           sodipodi:cx="0"
           sodipodi:cy="0"
           sodipodi:rx="14"
           sodipodi:ry="14" />
        <circle
           cx="0"
           cy="0"
           r="14"
           style="fill:url(#radialGradient3205);stroke:#000000;stroke-width:2"
           id="circle213"
           d="M 14,0 C 14,7.7319865 7.7319865,14 0,14 -7.7319865,14 -14,7.7319865 -14,0 c 0,-7.7319865 6.2680135,-14 14,-14 7.7319865,0 14,6.2680135 14,14 z"
           sodipodi:cx="0"
           sodipodi:cy="0"
           sodipodi:rx="14"
           sodipodi:ry="14" />
        <path
           d="M 2,2 V 8 H -2 V 2 h -6 v -4 h 6 v -6 h 4 v 6 H 8 V 2 H 2 z"
           style="fill:#000000;stroke:none"
           id="path215"
           inkscape:connector-curvature="0" />
      </g>
      <g
         id="charge2"
         transform="matrix(0.01,0,0,0.01,1.5,0)">
        <circle
           style="fill:#0000ff;stroke:none"
           cx="0"
           cy="0"
           r="14"
           id="circle218"
           d="M 14,0 C 14,7.7319865 7.7319865,14 0,14 -7.7319865,14 -14,7.7319865 -14,0 c 0,-7.7319865 6.2680135,-14 14,-14 7.7319865,0 14,6.2680135 14,14 z"
           sodipodi:cx="0"
           sodipodi:cy="0"
           sodipodi:rx="14"
           sodipodi:ry="14" />
        <circle
           cx="0"
           cy="0"
           r="14"
           style="fill:url(#radialGradient3207);stroke:#000000;stroke-width:2"
           id="circle220"
           d="M 14,0 C 14,7.7319865 7.7319865,14 0,14 -7.7319865,14 -14,7.7319865 -14,0 c 0,-7.7319865 6.2680135,-14 14,-14 7.7319865,0 14,6.2680135 14,14 z"
           sodipodi:cx="0"
           sodipodi:cy="0"
           sodipodi:rx="14"
           sodipodi:ry="14" />
        <path
           d="M 8,2 H -8 V -2 H 8 v 4 z"
           style="fill:#000000;stroke:none"
           id="path222"
           inkscape:connector-curvature="0" />
      </g>
      <rect
         y="-3.01"
         x="0"
         style="opacity:0.7;fill:#bbbbbb;stroke:#333333;stroke-width:0.02"
         height="6.02"
         width="4.0100002"
         id="rect224" />
    </g>
  </g>
  <g
     style="font-style:normal;font-variant:normal;font-weight:normal;font-stretch:normal;letter-spacing:normal;word-spacing:normal;text-anchor:start;fill:none;stroke:#000000;stroke-linecap:butt;stroke-linejoin:miter;stroke-miterlimit:10.43299961;stroke-opacity:1;stroke-dasharray:none;stroke-dashoffset:0"
     id="content"
     transform="matrix(4,0,0,-4,-339.71292,3083.1675)"
     xml:space="preserve"
     stroke-miterlimit="10.433"
     font-style="normal"
     font-variant="normal"
     font-weight="normal"
     font-stretch="normal"
     font-size-adjust="none"
     letter-spacing="normal"
     word-spacing="normal"
     ns0:text="$q$"
     ns0:preamble="">
<path
   style="fill:#000000;stroke-width:0"
   inkscape:connector-curvature="0"
   d="m 227.94,711.41 0,0.01 0,0 0,0.01 0,0 0,0 -0.01,0.01 0,0 0,0.01 0,0 0,0 0,0.01 -0.01,0 0,0.01 0,0 0,0.01 -0.01,0 0,0 0,0.01 -0.01,0 0,0 0,0.01 -0.01,0 0,0 -0.01,0 0,0.01 -0.01,0 0,0 -0.01,0 0,0 -0.01,0 -0.01,0 0,0 c -0.11,0 -0.51,-0.39 -0.68,-0.68 -0.22,0.53 -0.61,0.69 -0.93,0.69 v -0.22 c 0.65,0 0.79,-0.8 0.79,-0.87 0,-0.06 -0.55,-2.24 -0.58,-2.28 -0.15,-0.28 -0.7,-0.92 -1.26,-0.92 h 0 c -0.6,0 -0.64,0.77 -0.64,0.94 0,0.48 0.29,1.56 0.46,1.98 0.31,0.74 0.82,1.15 1.23,1.15 v 0.22 c -1.17,0 -2.4,-1.47 -2.4,-2.91 0,-0.98 0.59,-1.59 1.32,-1.59 0.42,0 0.81,0.23 1.17,0.59 -0.09,-0.35 -0.42,-1.69 -0.45,-1.78 -0.08,-0.28 -0.16,-0.32 -0.71,-0.33 -0.13,0 -0.23,0 -0.23,-0.2 0,-0.01 0,-0.11 0.13,-0.11 0.32,0 0.67,0.03 0.99,0.03 0.34,0 0.7,-0.03 1.03,-0.03 0.05,0 0.18,0 0.18,0.2 0,0.11 -0.1,0.11 -0.26,0.11 -0.48,0 -0.48,0.07 -0.48,0.16 0,0.07 0.02,0.13 0.04,0.22 z"
   id="path3362" />
</g>  <g
     style="font-style:normal;font-variant:normal;font-weight:normal;font-stretch:normal;letter-spacing:normal;word-spacing:normal;text-anchor:start;fill:none;stroke:#000000;stroke-linecap:butt;stroke-linejoin:miter;stroke-miterlimit:10.43299961;stroke-opacity:1;stroke-dasharray:none;stroke-dashoffset:0"
     ns0:preamble=""
     ns0:text="$-q$"
     word-spacing="normal"
     letter-spacing="normal"
     font-size-adjust="none"
     font-stretch="normal"
     font-weight="normal"
     font-variant="normal"
     font-style="normal"
     stroke-miterlimit="10.433"
     xml:space="preserve"
     transform="matrix(4,0,0,-4,-718.41081,3081.5349)"
     id="g3691">
<path
   id="path3693"
   d="m 230,709.41 0.03,0 0.03,0 0.04,0.01 0.01,0 0.02,0 0.01,0 0.02,0 0.01,0 0.02,0 0.01,0.01 0.01,0 0.02,0 0.01,0.01 0.01,0 0.01,0.01 0.01,0.01 0.01,0 0.01,0.01 0.01,0.01 0.01,0.01 0.01,0.01 0,0 0.01,0.01 0,0 0,0.01 0.01,0.01 0,0 0,0.01 0,0.01 0,0 0.01,0.01 0,0.01 0,0.01 0,0.01 0,0 0,0.01 0,0.01 c 0,0.2 -0.18,0.2 -0.35,0.2 h -5.39 c -0.17,0 -0.35,0 -0.35,-0.2 0,-0.2 0.18,-0.2 0.35,-0.2 z"
   inkscape:connector-curvature="0"
   style="fill:#000000;stroke-width:0" />
<path
   id="path3695"
   d="m 235.69,711.41 0,0.01 0,0 0,0.01 0,0 -0.01,0 0,0.01 0,0 0,0.01 0,0 0,0 0,0.01 -0.01,0 0,0.01 0,0 0,0.01 -0.01,0 0,0 0,0.01 -0.01,0 0,0 0,0.01 -0.01,0 0,0 -0.01,0 0,0.01 -0.01,0 0,0 -0.01,0 0,0 -0.01,0 -0.01,0 0,0 c -0.11,0 -0.51,-0.39 -0.68,-0.68 -0.22,0.53 -0.61,0.69 -0.93,0.69 v -0.22 c 0.65,0 0.79,-0.8 0.79,-0.87 0,-0.06 -0.55,-2.24 -0.58,-2.28 -0.15,-0.28 -0.71,-0.92 -1.26,-0.92 h 0 c -0.6,0 -0.64,0.77 -0.64,0.94 0,0.48 0.29,1.56 0.46,1.98 0.3,0.74 0.82,1.15 1.23,1.15 v 0.22 c -1.17,0 -2.4,-1.47 -2.4,-2.91 0,-0.98 0.59,-1.59 1.32,-1.59 0.42,0 0.81,0.23 1.17,0.59 -0.09,-0.35 -0.42,-1.69 -0.45,-1.78 -0.08,-0.28 -0.16,-0.32 -0.71,-0.33 -0.13,0 -0.23,0 -0.23,-0.2 0,-0.01 0,-0.11 0.13,-0.11 0.31,0 0.66,0.03 0.99,0.03 0.34,0 0.7,-0.03 1.03,-0.03 0.05,0 0.18,0 0.18,0.2 0,0.11 -0.1,0.11 -0.26,0.11 -0.48,0 -0.48,0.07 -0.48,0.16 0,0.07 0.02,0.13 0.04,0.22 z"
   inkscape:connector-curvature="0"
   style="fill:#000000;stroke-width:0" />
</g></svg>
