<?xml version="1.0" encoding="utf-8" standalone="no"?>
<!DOCTYPE svg PUBLIC "-//W3C//DTD SVG 1.1//EN"
  "http://www.w3.org/Graphics/SVG/1.1/DTD/svg11.dtd">
<!-- Created with matplotlib (http://matplotlib.org/) -->
<svg height="504pt" version="1.1" viewBox="0 0 504 504" width="504pt" xmlns="http://www.w3.org/2000/svg" xmlns:xlink="http://www.w3.org/1999/xlink">
 <defs>
  <style type="text/css">
*{stroke-linecap:butt;stroke-linejoin:round;}
  </style>
 </defs>
 <g id="figure_1">
  <g id="patch_1">
   <path d="
M0 504
L504 504
L504 0
L0 0
z
" style="fill:#ffffff;"/>
  </g>
  <g id="axes_1">
   <g id="Quiver_1">
    <path clip-path="url(#pa048f861f4)" d="
M80.1014 440.143
L80.1939 435.401
L79.0673 435.937
L80.8498 430.391
L82.4146 436.003
L81.3097 435.423
L81.2172 440.165
L80.1014 440.143" style="fill:#0000ff;"/>
    <path clip-path="url(#pa048f861f4)" d="
M97.8416 440.141
L97.9481 435.4
L96.8198 435.932
L98.6187 430.391
L100.167 436.008
L99.0638 435.425
L98.9573 440.167
L97.8416 440.141" style="fill:#0000ff;"/>
    <path clip-path="url(#pa048f861f4)" d="
M115.582 440.139
L115.702 435.398
L114.572 435.927
L116.388 430.392
L117.919 436.013
L116.818 435.426
L116.697 440.168
L115.582 440.139" style="fill:#0000ff;"/>
    <path clip-path="url(#pa048f861f4)" d="
M133.323 440.138
L133.456 435.396
L132.325 435.923
L134.155 430.392
L135.672 436.017
L134.572 435.428
L134.439 440.169
L133.323 440.138" style="fill:#0000ff;"/>
    <path clip-path="url(#pa048f861f4)" d="
M151.068 440.136
L151.211 435.395
L150.079 435.92
L151.919 430.392
L153.425 436.02
L152.326 435.429
L152.184 440.17
L151.068 440.136" style="fill:#0000ff;"/>
    <path clip-path="url(#pa048f861f4)" d="
M168.82 440.136
L168.965 435.395
L167.833 435.919
L169.677 430.393
L171.179 436.021
L170.081 435.429
L169.935 440.17
L168.82 440.136" style="fill:#0000ff;"/>
    <path clip-path="url(#pa048f861f4)" d="
M186.581 440.137
L186.72 435.396
L185.588 435.921
L187.425 430.392
L188.935 436.019
L187.835 435.429
L187.697 440.169
L186.581 440.137" style="fill:#0000ff;"/>
    <path clip-path="url(#pa048f861f4)" d="
M204.354 440.139
L204.475 435.398
L203.345 435.927
L205.16 430.392
L206.692 436.013
L205.591 435.426
L205.47 440.168
L204.354 440.139" style="fill:#0000ff;"/>
    <path clip-path="url(#pa048f861f4)" d="
M222.141 440.144
L222.23 435.402
L221.104 435.938
L222.883 430.391
L224.451 436.002
L223.346 435.423
L223.257 440.165
L222.141 440.144" style="fill:#0000ff;"/>
    <path clip-path="url(#pa048f861f4)" d="
M239.938 440.149
L239.986 435.407
L238.864 435.953
L240.595 430.39
L242.212 435.987
L241.102 435.418
L241.054 440.161
L239.938 440.149" style="fill:#0000ff;"/>
    <path clip-path="url(#pa048f861f4)" d="
M257.742 440.155
L257.742 435.412
L256.626 435.97
L258.3 430.39
L259.974 435.97
L258.858 435.412
L258.858 440.155
L257.742 440.155" style="fill:#0000ff;"/>
    <path clip-path="url(#pa048f861f4)" d="
M275.546 440.161
L275.498 435.418
L274.388 435.987
L276.005 430.39
L277.736 435.953
L276.614 435.407
L276.662 440.149
L275.546 440.161" style="fill:#0000ff;"/>
    <path clip-path="url(#pa048f861f4)" d="
M293.343 440.165
L293.254 435.423
L292.149 436.002
L293.717 430.391
L295.496 435.938
L294.37 435.402
L294.459 440.144
L293.343 440.165" style="fill:#0000ff;"/>
    <path clip-path="url(#pa048f861f4)" d="
M311.13 440.168
L311.009 435.426
L309.908 436.013
L311.44 430.392
L313.255 435.927
L312.125 435.398
L312.246 440.139
L311.13 440.168" style="fill:#0000ff;"/>
    <path clip-path="url(#pa048f861f4)" d="
M328.903 440.169
L328.765 435.429
L327.665 436.019
L329.175 430.392
L331.012 435.921
L329.88 435.396
L330.019 440.137
L328.903 440.169" style="fill:#0000ff;"/>
    <path clip-path="url(#pa048f861f4)" d="
M346.665 440.17
L346.519 435.429
L345.421 436.021
L346.923 430.393
L348.767 435.919
L347.635 435.395
L347.78 440.136
L346.665 440.17" style="fill:#0000ff;"/>
    <path clip-path="url(#pa048f861f4)" d="
M364.416 440.17
L364.274 435.429
L363.175 436.02
L364.681 430.392
L366.521 435.92
L365.389 435.395
L365.532 440.136
L364.416 440.17" style="fill:#0000ff;"/>
    <path clip-path="url(#pa048f861f4)" d="
M382.161 440.169
L382.028 435.428
L380.928 436.017
L382.445 430.392
L384.275 435.923
L383.144 435.396
L383.277 440.138
L382.161 440.169" style="fill:#0000ff;"/>
    <path clip-path="url(#pa048f861f4)" d="
M399.903 440.168
L399.782 435.426
L398.681 436.013
L400.212 430.392
L402.028 435.927
L400.898 435.398
L401.018 440.139
L399.903 440.168" style="fill:#0000ff;"/>
    <path clip-path="url(#pa048f861f4)" d="
M417.643 440.167
L417.536 435.425
L416.433 436.008
L417.981 430.391
L419.78 435.932
L418.652 435.4
L418.758 440.141
L417.643 440.167" style="fill:#0000ff;"/>
    <path clip-path="url(#pa048f861f4)" d="
M435.383 440.165
L435.29 435.423
L434.185 436.003
L435.75 430.391
L437.533 435.937
L436.406 435.401
L436.499 440.143
L435.383 440.165" style="fill:#0000ff;"/>
    <path clip-path="url(#pa048f861f4)" d="
M80.0865 421.814
L80.1935 417.072
L79.0652 417.605
L80.8647 412.064
L82.4124 417.681
L81.3093 417.098
L81.2022 421.839
L80.0865 421.814" style="fill:#0000ff;"/>
    <path clip-path="url(#pa048f861f4)" d="
M97.821 421.811
L97.9476 417.07
L96.8171 417.598
L98.6394 412.065
L100.164 417.687
L99.0632 417.1
L98.9366 421.841
L97.821 421.811" style="fill:#0000ff;"/>
    <path clip-path="url(#pa048f861f4)" d="
M115.554 421.808
L115.702 417.068
L114.569 417.59
L116.416 412.065
L117.915 417.695
L116.817 417.102
L116.669 421.843
L115.554 421.808" style="fill:#0000ff;"/>
    <path clip-path="url(#pa048f861f4)" d="
M133.287 421.805
L133.456 417.065
L132.32 417.583
L134.192 412.066
L135.666 417.702
L134.571 417.105
L134.402 421.845
L133.287 421.805" style="fill:#0000ff;"/>
    <path clip-path="url(#pa048f861f4)" d="
M151.024 421.802
L151.21 417.063
L150.073 417.577
L151.964 412.067
L153.418 417.708
L152.325 417.107
L152.139 421.846
L151.024 421.802" style="fill:#0000ff;"/>
    <path clip-path="url(#pa048f861f4)" d="
M168.768 421.801
L168.964 417.062
L167.826 417.573
L169.729 412.067
L171.171 417.712
L170.079 417.108
L169.883 421.847
L168.768 421.801" style="fill:#0000ff;"/>
    <path clip-path="url(#pa048f861f4)" d="
M186.525 421.801
L186.719 417.062
L185.581 417.574
L187.481 412.067
L188.926 417.711
L187.834 417.108
L187.64 421.847
L186.525 421.801" style="fill:#0000ff;"/>
    <path clip-path="url(#pa048f861f4)" d="
M204.301 421.804
L204.474 417.065
L203.338 417.582
L205.214 412.066
L206.684 417.703
L205.589 417.105
L205.417 421.845
L204.301 421.804" style="fill:#0000ff;"/>
    <path clip-path="url(#pa048f861f4)" d="
M222.098 421.811
L222.229 417.07
L221.098 417.597
L222.926 412.065
L224.445 417.689
L223.345 417.1
L223.214 421.841
L222.098 421.811" style="fill:#0000ff;"/>
    <path clip-path="url(#pa048f861f4)" d="
M239.914 421.819
L239.985 417.077
L238.861 417.618
L240.618 412.064
L242.209 417.668
L241.101 417.093
L241.03 421.836
L239.914 421.819" style="fill:#0000ff;"/>
    <path clip-path="url(#pa048f861f4)" d="
M257.742 421.828
L257.742 417.085
L256.626 417.643
L258.3 412.063
L259.974 417.643
L258.858 417.085
L258.858 421.828
L257.742 421.828" style="fill:#0000ff;"/>
    <path clip-path="url(#pa048f861f4)" d="
M275.57 421.836
L275.499 417.093
L274.391 417.668
L275.982 412.064
L277.739 417.618
L276.615 417.077
L276.686 421.819
L275.57 421.836" style="fill:#0000ff;"/>
    <path clip-path="url(#pa048f861f4)" d="
M293.386 421.841
L293.255 417.1
L292.155 417.689
L293.674 412.065
L295.502 417.597
L294.371 417.07
L294.502 421.811
L293.386 421.841" style="fill:#0000ff;"/>
    <path clip-path="url(#pa048f861f4)" d="
M311.183 421.845
L311.011 417.105
L309.916 417.703
L311.386 412.066
L313.262 417.582
L312.126 417.065
L312.299 421.804
L311.183 421.845" style="fill:#0000ff;"/>
    <path clip-path="url(#pa048f861f4)" d="
M328.96 421.847
L328.766 417.108
L327.674 417.711
L329.119 412.067
L331.019 417.574
L329.881 417.062
L330.075 421.801
L328.96 421.847" style="fill:#0000ff;"/>
    <path clip-path="url(#pa048f861f4)" d="
M346.717 421.847
L346.521 417.108
L345.429 417.712
L346.871 412.067
L348.774 417.573
L347.636 417.062
L347.832 421.801
L346.717 421.847" style="fill:#0000ff;"/>
    <path clip-path="url(#pa048f861f4)" d="
M364.461 421.846
L364.275 417.107
L363.182 417.708
L364.636 412.067
L366.527 417.577
L365.39 417.063
L365.576 421.802
L364.461 421.846" style="fill:#0000ff;"/>
    <path clip-path="url(#pa048f861f4)" d="
M382.198 421.845
L382.029 417.105
L380.934 417.702
L382.408 412.066
L384.28 417.583
L383.144 417.065
L383.313 421.805
L382.198 421.845" style="fill:#0000ff;"/>
    <path clip-path="url(#pa048f861f4)" d="
M399.931 421.843
L399.783 417.102
L398.685 417.695
L400.184 412.065
L402.031 417.59
L400.898 417.068
L401.046 421.808
L399.931 421.843" style="fill:#0000ff;"/>
    <path clip-path="url(#pa048f861f4)" d="
M417.663 421.841
L417.537 417.1
L416.436 417.687
L417.961 412.065
L419.783 417.598
L418.652 417.07
L418.779 421.811
L417.663 421.841" style="fill:#0000ff;"/>
    <path clip-path="url(#pa048f861f4)" d="
M435.398 421.839
L435.291 417.098
L434.188 417.681
L435.735 412.064
L437.535 417.605
L436.406 417.072
L436.513 421.814
L435.398 421.839" style="fill:#0000ff;"/>
    <path clip-path="url(#pa048f861f4)" d="
M80.0711 403.485
L80.1931 398.743
L79.0632 399.272
L80.8801 393.737
L82.4101 399.359
L81.3088 398.772
L81.1868 403.513
L80.0711 403.485" style="fill:#0000ff;"/>
    <path clip-path="url(#pa048f861f4)" d="
M97.7982 403.481
L97.947 398.74
L96.814 399.263
L98.6622 393.738
L100.16 399.368
L99.0624 398.775
L98.9137 403.516
L97.7982 403.481" style="fill:#0000ff;"/>
    <path clip-path="url(#pa048f861f4)" d="
M115.521 403.476
L115.701 398.736
L114.564 399.252
L116.448 393.739
L117.91 399.379
L116.816 398.779
L116.636 403.518
L115.521 403.476" style="fill:#0000ff;"/>
    <path clip-path="url(#pa048f861f4)" d="
M133.242 403.471
L133.454 398.733
L132.315 399.24
L134.237 393.741
L135.659 399.39
L134.569 398.783
L134.357 403.521
L133.242 403.471" style="fill:#0000ff;"/>
    <path clip-path="url(#pa048f861f4)" d="
M150.964 403.465
L151.208 398.729
L150.065 399.229
L152.024 393.742
L153.409 399.401
L152.323 398.786
L152.079 403.523
L150.964 403.465" style="fill:#0000ff;"/>
    <path clip-path="url(#pa048f861f4)" d="
M168.694 403.461
L168.962 398.726
L167.817 399.22
L169.803 393.743
L171.159 399.409
L170.077 398.789
L169.809 403.524
L168.694 403.461" style="fill:#0000ff;"/>
    <path clip-path="url(#pa048f861f4)" d="
M186.442 403.46
L186.717 398.725
L185.57 399.218
L187.564 393.744
L188.913 399.411
L187.831 398.79
L187.557 403.525
L186.442 403.46" style="fill:#0000ff;"/>
    <path clip-path="url(#pa048f861f4)" d="
M204.219 403.464
L204.472 398.728
L203.328 399.225
L205.297 393.743
L206.671 399.404
L205.586 398.787
L205.333 403.523
L204.219 403.464" style="fill:#0000ff;"/>
    <path clip-path="url(#pa048f861f4)" d="
M222.03 403.473
L222.228 398.734
L221.089 399.245
L222.994 393.74
L224.434 399.385
L223.343 398.781
L223.145 403.52
L222.03 403.473" style="fill:#0000ff;"/>
    <path clip-path="url(#pa048f861f4)" d="
M239.876 403.487
L239.984 398.745
L238.856 399.277
L240.657 393.737
L242.203 399.354
L241.1 398.77
L240.991 403.512
L239.876 403.487" style="fill:#0000ff;"/>
    <path clip-path="url(#pa048f861f4)" d="
M257.742 403.501
L257.742 398.758
L256.626 399.316
L258.3 393.736
L259.974 399.316
L258.858 398.758
L258.858 403.501
L257.742 403.501" style="fill:#0000ff;"/>
    <path clip-path="url(#pa048f861f4)" d="
M275.609 403.512
L275.5 398.77
L274.397 399.354
L275.943 393.737
L277.744 399.277
L276.616 398.745
L276.724 403.487
L275.609 403.512" style="fill:#0000ff;"/>
    <path clip-path="url(#pa048f861f4)" d="
M293.455 403.52
L293.257 398.781
L292.166 399.385
L293.606 393.74
L295.511 399.245
L294.372 398.734
L294.57 403.473
L293.455 403.52" style="fill:#0000ff;"/>
    <path clip-path="url(#pa048f861f4)" d="
M311.267 403.523
L311.014 398.787
L309.929 399.404
L311.303 393.743
L313.272 399.225
L312.128 398.728
L312.381 403.464
L311.267 403.523" style="fill:#0000ff;"/>
    <path clip-path="url(#pa048f861f4)" d="
M329.043 403.525
L328.769 398.79
L327.687 399.411
L329.036 393.744
L331.03 399.218
L329.883 398.725
L330.158 403.46
L329.043 403.525" style="fill:#0000ff;"/>
    <path clip-path="url(#pa048f861f4)" d="
M346.791 403.524
L346.523 398.789
L345.441 399.409
L346.797 393.743
L348.783 399.22
L347.638 398.726
L347.906 403.461
L346.791 403.524" style="fill:#0000ff;"/>
    <path clip-path="url(#pa048f861f4)" d="
M364.521 403.523
L364.277 398.786
L363.191 399.401
L364.576 393.742
L366.535 399.229
L365.392 398.729
L365.636 403.465
L364.521 403.523" style="fill:#0000ff;"/>
    <path clip-path="url(#pa048f861f4)" d="
M382.243 403.521
L382.031 398.783
L380.941 399.39
L382.363 393.741
L384.285 399.24
L383.146 398.733
L383.358 403.471
L382.243 403.521" style="fill:#0000ff;"/>
    <path clip-path="url(#pa048f861f4)" d="
M399.964 403.518
L399.784 398.779
L398.69 399.379
L400.152 393.739
L402.036 399.252
L400.899 398.736
L401.079 403.476
L399.964 403.518" style="fill:#0000ff;"/>
    <path clip-path="url(#pa048f861f4)" d="
M417.686 403.516
L417.538 398.775
L416.44 399.368
L417.938 393.738
L419.786 399.263
L418.653 398.74
L418.802 403.481
L417.686 403.516" style="fill:#0000ff;"/>
    <path clip-path="url(#pa048f861f4)" d="
M435.413 403.513
L435.291 398.772
L434.19 399.359
L435.72 393.737
L437.537 399.272
L436.407 398.743
L436.529 403.485
L435.413 403.513" style="fill:#0000ff;"/>
    <path clip-path="url(#pa048f861f4)" d="
M80.0567 385.155
L80.1928 380.414
L79.0612 380.94
L80.8947 375.41
L82.4078 381.036
L81.3083 380.446
L81.1722 385.187
L80.0567 385.155" style="fill:#0000ff;"/>
    <path clip-path="url(#pa048f861f4)" d="
M97.7748 385.15
L97.9464 380.41
L96.8109 380.927
L98.6858 375.412
L100.157 381.049
L99.0617 380.451
L98.89 385.19
L97.7748 385.15" style="fill:#0000ff;"/>
    <path clip-path="url(#pa048f861f4)" d="
M115.485 385.143
L115.7 380.405
L114.56 380.912
L116.485 375.413
L117.904 381.064
L116.815 380.456
L116.6 385.194
L115.485 385.143" style="fill:#0000ff;"/>
    <path clip-path="url(#pa048f861f4)" d="
M133.187 385.134
L133.453 380.399
L132.308 380.893
L134.292 375.416
L135.65 381.081
L134.567 380.461
L134.301 385.197
L133.187 385.134" style="fill:#0000ff;"/>
    <path clip-path="url(#pa048f861f4)" d="
M150.886 385.125
L151.207 380.392
L150.055 380.874
L152.103 375.42
L153.396 381.1
L152.32 380.468
L152 385.2
L150.886 385.125" style="fill:#0000ff;"/>
    <path clip-path="url(#pa048f861f4)" d="
M168.591 385.115
L168.96 380.387
L167.804 380.856
L169.907 375.423
L171.142 381.117
L170.073 380.473
L169.704 385.202
L168.591 385.115" style="fill:#0000ff;"/>
    <path clip-path="url(#pa048f861f4)" d="
M186.318 385.11
L186.714 380.383
L185.555 380.846
L187.69 375.425
L188.892 381.126
L187.826 380.477
L187.43 385.203
L186.318 385.11" style="fill:#0000ff;"/>
    <path clip-path="url(#pa048f861f4)" d="
M204.087 385.113
L204.469 380.385
L203.312 380.852
L205.429 375.424
L206.649 381.121
L205.581 380.475
L205.2 385.202
L204.087 385.113" style="fill:#0000ff;"/>
    <path clip-path="url(#pa048f861f4)" d="
M221.917 385.127
L222.225 380.394
L221.075 380.878
L223.108 375.419
L224.416 381.096
L223.339 380.466
L223.031 385.199
L221.917 385.127" style="fill:#0000ff;"/>
    <path clip-path="url(#pa048f861f4)" d="
M239.809 385.15
L239.983 380.41
L238.847 380.927
L240.724 375.412
L242.193 381.049
L241.098 380.451
L240.925 385.191
L239.809 385.15" style="fill:#0000ff;"/>
    <path clip-path="url(#pa048f861f4)" d="
M257.742 385.173
L257.742 380.43
L256.626 380.988
L258.3 375.408
L259.974 380.988
L258.858 380.43
L258.858 385.173
L257.742 385.173" style="fill:#0000ff;"/>
    <path clip-path="url(#pa048f861f4)" d="
M275.675 385.191
L275.502 380.451
L274.407 381.049
L275.876 375.412
L277.753 380.927
L276.617 380.41
L276.791 385.15
L275.675 385.191" style="fill:#0000ff;"/>
    <path clip-path="url(#pa048f861f4)" d="
M293.569 385.199
L293.261 380.466
L292.184 381.096
L293.492 375.419
L295.525 380.878
L294.375 380.394
L294.683 385.127
L293.569 385.199" style="fill:#0000ff;"/>
    <path clip-path="url(#pa048f861f4)" d="
M311.4 385.202
L311.019 380.475
L309.951 381.121
L311.171 375.424
L313.288 380.852
L312.131 380.385
L312.513 385.113
L311.4 385.202" style="fill:#0000ff;"/>
    <path clip-path="url(#pa048f861f4)" d="
M329.17 385.203
L328.774 380.477
L327.708 381.126
L328.91 375.425
L331.045 380.846
L329.886 380.383
L330.282 385.11
L329.17 385.203" style="fill:#0000ff;"/>
    <path clip-path="url(#pa048f861f4)" d="
M346.896 385.202
L346.527 380.473
L345.458 381.117
L346.693 375.423
L348.796 380.856
L347.64 380.387
L348.009 385.115
L346.896 385.202" style="fill:#0000ff;"/>
    <path clip-path="url(#pa048f861f4)" d="
M364.6 385.2
L364.28 380.468
L363.204 381.1
L364.497 375.42
L366.545 380.874
L365.393 380.392
L365.714 385.125
L364.6 385.2" style="fill:#0000ff;"/>
    <path clip-path="url(#pa048f861f4)" d="
M382.299 385.197
L382.033 380.461
L380.95 381.081
L382.308 375.416
L384.292 380.893
L383.147 380.399
L383.413 385.134
L382.299 385.197" style="fill:#0000ff;"/>
    <path clip-path="url(#pa048f861f4)" d="
M400 385.194
L399.785 380.456
L398.696 381.064
L400.115 375.413
L402.04 380.912
L400.9 380.405
L401.115 385.143
L400 385.194" style="fill:#0000ff;"/>
    <path clip-path="url(#pa048f861f4)" d="
M417.71 385.19
L417.538 380.451
L416.443 381.049
L417.914 375.412
L419.789 380.927
L418.654 380.41
L418.825 385.15
L417.71 385.19" style="fill:#0000ff;"/>
    <path clip-path="url(#pa048f861f4)" d="
M435.428 385.187
L435.292 380.446
L434.192 381.036
L435.705 375.41
L437.539 380.94
L436.407 380.414
L436.543 385.155
L435.428 385.187" style="fill:#0000ff;"/>
    <path clip-path="url(#pa048f861f4)" d="
M80.0453 366.826
L80.1925 362.086
L79.0597 362.609
L80.9061 357.083
L82.4061 362.713
L81.3079 362.12
L81.1607 366.861
L80.0453 366.826" style="fill:#0000ff;"/>
    <path clip-path="url(#pa048f861f4)" d="
M97.7534 366.819
L97.9459 362.08
L96.8082 362.593
L98.7072 357.085
L100.153 362.728
L99.061 362.126
L98.8685 366.865
L97.7534 366.819" style="fill:#0000ff;"/>
    <path clip-path="url(#pa048f861f4)" d="
M115.447 366.81
L115.699 362.073
L114.555 362.571
L116.523 357.088
L117.898 362.749
L116.813 362.133
L116.562 366.869
L115.447 366.81" style="fill:#0000ff;"/>
    <path clip-path="url(#pa048f861f4)" d="
M133.125 366.796
L133.452 362.064
L132.3 362.544
L134.355 357.093
L135.64 362.775
L134.565 362.141
L134.238 366.873
L133.125 366.796" style="fill:#0000ff;"/>
    <path clip-path="url(#pa048f861f4)" d="
M150.788 366.778
L151.205 362.054
L150.044 362.511
L152.202 357.1
L153.379 362.806
L152.316 362.152
L151.899 366.876
L150.788 366.778" style="fill:#0000ff;"/>
    <path clip-path="url(#pa048f861f4)" d="
M168.447 366.758
L168.958 362.042
L167.788 362.477
L170.053 357.109
L171.117 362.837
L170.067 362.162
L169.557 366.878
L168.447 366.758" style="fill:#0000ff;"/>
    <path clip-path="url(#pa048f861f4)" d="
M186.129 366.741
L186.711 362.034
L185.535 362.451
L187.881 357.118
L188.858 362.861
L187.818 362.171
L187.237 366.878
L186.129 366.741" style="fill:#0000ff;"/>
    <path clip-path="url(#pa048f861f4)" d="
M203.874 366.738
L204.465 362.032
L203.288 362.447
L205.645 357.119
L206.61 362.864
L205.573 362.172
L204.981 366.878
L203.874 366.738" style="fill:#0000ff;"/>
    <path clip-path="url(#pa048f861f4)" d="
M221.724 366.761
L222.221 362.044
L221.053 362.482
L223.303 357.108
L224.382 362.833
L223.331 362.161
L222.834 366.878
L221.724 366.761" style="fill:#0000ff;"/>
    <path clip-path="url(#pa048f861f4)" d="
M239.692 366.803
L239.98 362.069
L238.832 362.558
L240.842 357.09
L242.174 362.762
L241.094 362.137
L240.806 366.871
L239.692 366.803" style="fill:#0000ff;"/>
    <path clip-path="url(#pa048f861f4)" d="
M257.742 366.846
L257.742 362.103
L256.626 362.661
L258.3 357.081
L259.974 362.661
L258.858 362.103
L258.858 366.846
L257.742 366.846" style="fill:#0000ff;"/>
    <path clip-path="url(#pa048f861f4)" d="
M275.794 366.871
L275.506 362.137
L274.426 362.762
L275.758 357.09
L277.768 362.558
L276.62 362.069
L276.908 366.803
L275.794 366.871" style="fill:#0000ff;"/>
    <path clip-path="url(#pa048f861f4)" d="
M293.766 366.878
L293.269 362.161
L292.218 362.833
L293.297 357.108
L295.547 362.482
L294.379 362.044
L294.876 366.761
L293.766 366.878" style="fill:#0000ff;"/>
    <path clip-path="url(#pa048f861f4)" d="
M311.619 366.878
L311.027 362.172
L309.99 362.864
L310.955 357.119
L313.312 362.447
L312.135 362.032
L312.726 366.738
L311.619 366.878" style="fill:#0000ff;"/>
    <path clip-path="url(#pa048f861f4)" d="
M329.363 366.878
L328.782 362.171
L327.742 362.861
L328.719 357.118
L331.065 362.451
L329.889 362.034
L330.471 366.741
L329.363 366.878" style="fill:#0000ff;"/>
    <path clip-path="url(#pa048f861f4)" d="
M347.043 366.878
L346.533 362.162
L345.483 362.837
L346.547 357.109
L348.812 362.477
L347.642 362.042
L348.153 366.758
L347.043 366.878" style="fill:#0000ff;"/>
    <path clip-path="url(#pa048f861f4)" d="
M364.701 366.876
L364.284 362.152
L363.221 362.806
L364.398 357.1
L366.556 362.511
L365.395 362.054
L365.812 366.778
L364.701 366.876" style="fill:#0000ff;"/>
    <path clip-path="url(#pa048f861f4)" d="
M382.362 366.873
L382.035 362.141
L380.96 362.775
L382.245 357.093
L384.3 362.544
L383.148 362.064
L383.475 366.796
L382.362 366.873" style="fill:#0000ff;"/>
    <path clip-path="url(#pa048f861f4)" d="
M400.038 366.869
L399.787 362.133
L398.702 362.749
L400.077 357.088
L402.045 362.571
L400.901 362.073
L401.153 366.81
L400.038 366.869" style="fill:#0000ff;"/>
    <path clip-path="url(#pa048f861f4)" d="
M417.731 366.865
L417.539 362.126
L416.447 362.728
L417.893 357.085
L419.792 362.593
L418.654 362.08
L418.847 366.819
L417.731 366.865" style="fill:#0000ff;"/>
    <path clip-path="url(#pa048f861f4)" d="
M435.439 366.861
L435.292 362.12
L434.194 362.713
L435.694 357.083
L437.54 362.609
L436.408 362.086
L436.555 366.826
L435.439 366.861" style="fill:#0000ff;"/>
    <path clip-path="url(#pa048f861f4)" d="
M80.04 348.498
L80.1924 343.758
L79.059 344.28
L80.9114 338.756
L82.4053 344.387
L81.3078 343.794
L81.1554 348.534
L80.04 348.498" style="fill:#0000ff;"/>
    <path clip-path="url(#pa048f861f4)" d="
M97.7387 348.49
L97.9455 343.751
L96.8063 344.26
L98.722 338.759
L100.151 344.406
L99.0605 343.8
L98.8536 348.539
L97.7387 348.49" style="fill:#0000ff;"/>
    <path clip-path="url(#pa048f861f4)" d="
M115.415 348.477
L115.698 343.742
L114.551 344.233
L116.556 338.763
L117.893 344.433
L116.812 343.809
L116.529 348.543
L115.415 348.477" style="fill:#0000ff;"/>
    <path clip-path="url(#pa048f861f4)" d="
M133.061 348.456
L133.451 343.73
L132.293 344.194
L134.42 338.77
L135.629 344.469
L134.563 343.821
L134.173 348.548
L133.061 348.456" style="fill:#0000ff;"/>
    <path clip-path="url(#pa048f861f4)" d="
M150.672 348.426
L151.203 343.713
L150.031 344.142
L152.319 338.785
L153.358 344.517
L152.312 343.837
L151.78 348.551
L150.672 348.426" style="fill:#0000ff;"/>
    <path clip-path="url(#pa048f861f4)" d="
M168.254 348.383
L168.955 343.692
L167.769 344.079
L170.248 338.807
L171.08 344.573
L170.059 343.857
L169.358 348.548
L168.254 348.383" style="fill:#0000ff;"/>
    <path clip-path="url(#pa048f861f4)" d="
M185.846 348.336
L186.708 343.672
L185.509 344.018
L188.169 338.835
L188.801 344.627
L187.805 343.875
L186.943 348.539
L185.846 348.336" style="fill:#0000ff;"/>
    <path clip-path="url(#pa048f861f4)" d="
M203.524 348.312
L204.462 343.663
L203.257 343.989
L206.002 338.85
L206.539 344.651
L205.556 343.883
L204.618 348.533
L203.524 348.312" style="fill:#0000ff;"/>
    <path clip-path="url(#pa048f861f4)" d="
M221.385 348.345
L222.217 343.676
L221.02 344.029
L223.648 338.83
L224.317 344.617
L223.316 343.872
L222.483 348.541
L221.385 348.345" style="fill:#0000ff;"/>
    <path clip-path="url(#pa048f861f4)" d="
M239.478 348.433
L239.976 343.717
L238.807 344.154
L241.058 338.781
L242.137 344.506
L241.086 343.834
L240.588 348.55
L239.478 348.433" style="fill:#0000ff;"/>
    <path clip-path="url(#pa048f861f4)" d="
M257.742 348.519
L257.742 343.776
L256.626 344.334
L258.3 338.754
L259.974 344.334
L258.858 343.776
L258.858 348.519
L257.742 348.519" style="fill:#0000ff;"/>
    <path clip-path="url(#pa048f861f4)" d="
M276.012 348.55
L275.514 343.834
L274.463 344.506
L275.542 338.781
L277.793 344.154
L276.624 343.717
L277.122 348.433
L276.012 348.55" style="fill:#0000ff;"/>
    <path clip-path="url(#pa048f861f4)" d="
M294.117 348.541
L293.284 343.872
L292.283 344.617
L292.952 338.83
L295.58 344.029
L294.383 343.676
L295.215 348.345
L294.117 348.541" style="fill:#0000ff;"/>
    <path clip-path="url(#pa048f861f4)" d="
M311.982 348.533
L311.044 343.883
L310.061 344.651
L310.598 338.85
L313.343 343.989
L312.138 343.663
L313.076 348.312
L311.982 348.533" style="fill:#0000ff;"/>
    <path clip-path="url(#pa048f861f4)" d="
M329.657 348.539
L328.795 343.875
L327.799 344.627
L328.431 338.835
L331.091 344.018
L329.892 343.672
L330.754 348.336
L329.657 348.539" style="fill:#0000ff;"/>
    <path clip-path="url(#pa048f861f4)" d="
M347.242 348.548
L346.541 343.857
L345.52 344.573
L346.352 338.807
L348.831 344.079
L347.645 343.692
L348.346 348.383
L347.242 348.548" style="fill:#0000ff;"/>
    <path clip-path="url(#pa048f861f4)" d="
M364.82 348.551
L364.288 343.837
L363.242 344.517
L364.281 338.785
L366.569 344.142
L365.397 343.713
L365.928 348.426
L364.82 348.551" style="fill:#0000ff;"/>
    <path clip-path="url(#pa048f861f4)" d="
M382.427 348.548
L382.037 343.821
L380.971 344.469
L382.18 338.77
L384.307 344.194
L383.149 343.73
L383.539 348.456
L382.427 348.548" style="fill:#0000ff;"/>
    <path clip-path="url(#pa048f861f4)" d="
M400.071 348.543
L399.788 343.809
L398.707 344.433
L400.044 338.763
L402.049 344.233
L400.902 343.742
L401.185 348.477
L400.071 348.543" style="fill:#0000ff;"/>
    <path clip-path="url(#pa048f861f4)" d="
M417.746 348.539
L417.54 343.8
L416.449 344.406
L417.878 338.759
L419.794 344.26
L418.654 343.751
L418.861 348.49
L417.746 348.539" style="fill:#0000ff;"/>
    <path clip-path="url(#pa048f861f4)" d="
M435.445 348.534
L435.292 343.794
L434.195 344.387
L435.689 338.756
L437.541 344.28
L436.408 343.758
L436.56 348.498
L435.445 348.534" style="fill:#0000ff;"/>
    <path clip-path="url(#pa048f861f4)" d="
M80.0445 330.172
L80.1925 325.431
L79.0596 325.954
L80.9069 320.429
L82.406 326.058
L81.3079 325.466
L81.16 330.207
L80.0445 330.172" style="fill:#0000ff;"/>
    <path clip-path="url(#pa048f861f4)" d="
M97.7369 330.162
L97.9455 325.424
L96.806 325.932
L98.7238 320.431
L100.151 326.08
L99.0604 325.473
L98.8518 330.211
L97.7369 330.162" style="fill:#0000ff;"/>
    <path clip-path="url(#pa048f861f4)" d="
M115.398 330.146
L115.698 325.413
L114.549 325.899
L116.573 320.436
L117.89 326.111
L116.812 325.484
L116.511 330.217
L115.398 330.146" style="fill:#0000ff;"/>
    <path clip-path="url(#pa048f861f4)" d="
M133.01 330.119
L133.45 325.396
L132.287 325.848
L134.471 320.448
L135.62 326.159
L134.561 325.5
L134.121 330.222
L133.01 330.119" style="fill:#0000ff;"/>
    <path clip-path="url(#pa048f861f4)" d="
M150.553 330.07
L151.201 325.371
L150.019 325.772
L152.439 320.472
L153.336 326.229
L152.306 325.523
L151.659 330.222
L150.553 330.07" style="fill:#0000ff;"/>
    <path clip-path="url(#pa048f861f4)" d="
M168.015 329.985
L168.953 325.336
L167.748 325.662
L170.492 320.523
L171.03 326.324
L170.047 325.556
L169.109 330.206
L168.015 329.985" style="fill:#0000ff;"/>
    <path clip-path="url(#pa048f861f4)" d="
M185.435 329.863
L186.707 325.294
L185.482 325.532
L188.591 320.605
L188.707 326.43
L187.782 325.593
L186.51 330.162
L185.435 329.863" style="fill:#0000ff;"/>
    <path clip-path="url(#pa048f861f4)" d="
M202.955 329.761
L204.463 325.264
L203.227 325.438
L206.588 320.68
L206.402 326.503
L205.521 325.619
L204.013 330.116
L202.955 329.761" style="fill:#0000ff;"/>
    <path clip-path="url(#pa048f861f4)" d="
M220.794 329.799
L222.217 325.275
L220.985 325.472
L224.256 320.652
L224.178 326.477
L223.281 325.61
L221.858 330.134
L220.794 329.799" style="fill:#0000ff;"/>
    <path clip-path="url(#pa048f861f4)" d="
M239.086 330.002
L239.971 325.342
L238.771 325.682
L241.457 320.512
L242.06 326.307
L241.068 325.55
L240.182 330.21
L239.086 330.002" style="fill:#0000ff;"/>
    <path clip-path="url(#pa048f861f4)" d="
M257.742 330.192
L257.742 325.449
L256.626 326.007
L258.3 320.427
L259.974 326.007
L258.858 325.449
L258.858 330.192
L257.742 330.192" style="fill:#0000ff;"/>
    <path clip-path="url(#pa048f861f4)" d="
M276.418 330.21
L275.532 325.55
L274.54 326.307
L275.143 320.512
L277.829 325.682
L276.629 325.342
L277.514 330.002
L276.418 330.21" style="fill:#0000ff;"/>
    <path clip-path="url(#pa048f861f4)" d="
M294.742 330.134
L293.319 325.61
L292.422 326.477
L292.344 320.652
L295.615 325.472
L294.383 325.275
L295.806 329.799
L294.742 330.134" style="fill:#0000ff;"/>
    <path clip-path="url(#pa048f861f4)" d="
M312.587 330.116
L311.079 325.619
L310.198 326.503
L310.012 320.68
L313.373 325.438
L312.137 325.264
L313.645 329.761
L312.587 330.116" style="fill:#0000ff;"/>
    <path clip-path="url(#pa048f861f4)" d="
M330.09 330.162
L328.818 325.593
L327.893 326.43
L328.009 320.605
L331.118 325.532
L329.893 325.294
L331.165 329.863
L330.09 330.162" style="fill:#0000ff;"/>
    <path clip-path="url(#pa048f861f4)" d="
M347.491 330.206
L346.553 325.556
L345.57 326.324
L346.108 320.523
L348.852 325.662
L347.647 325.336
L348.585 329.985
L347.491 330.206" style="fill:#0000ff;"/>
    <path clip-path="url(#pa048f861f4)" d="
M364.941 330.222
L364.294 325.523
L363.264 326.229
L364.161 320.472
L366.581 325.772
L365.399 325.371
L366.047 330.07
L364.941 330.222" style="fill:#0000ff;"/>
    <path clip-path="url(#pa048f861f4)" d="
M382.479 330.222
L382.039 325.5
L380.98 326.159
L382.129 320.448
L384.313 325.848
L383.15 325.396
L383.59 330.119
L382.479 330.222" style="fill:#0000ff;"/>
    <path clip-path="url(#pa048f861f4)" d="
M400.089 330.217
L399.788 325.484
L398.71 326.111
L400.027 320.436
L402.051 325.899
L400.902 325.413
L401.202 330.146
L400.089 330.217" style="fill:#0000ff;"/>
    <path clip-path="url(#pa048f861f4)" d="
M417.748 330.211
L417.54 325.473
L416.449 326.08
L417.876 320.431
L419.794 325.932
L418.655 325.424
L418.863 330.162
L417.748 330.211" style="fill:#0000ff;"/>
    <path clip-path="url(#pa048f861f4)" d="
M435.44 330.207
L435.292 325.466
L434.194 326.058
L435.693 320.429
L437.54 325.954
L436.408 325.431
L436.555 330.172
L435.44 330.207" style="fill:#0000ff;"/>
    <path clip-path="url(#pa048f861f4)" d="
M80.0623 311.847
L80.1929 307.106
L79.062 307.633
L80.889 302.101
L82.4087 307.725
L81.3085 307.137
L81.1779 311.878
L80.0623 311.847" style="fill:#0000ff;"/>
    <path clip-path="url(#pa048f861f4)" d="
M97.7551 311.838
L97.9459 307.099
L96.8084 307.611
L98.7055 302.103
L100.154 307.746
L99.061 307.144
L98.8702 311.883
L97.7551 311.838" style="fill:#0000ff;"/>
    <path clip-path="url(#pa048f861f4)" d="
M115.41 311.821
L115.698 307.087
L114.55 307.576
L116.56 302.108
L117.892 307.78
L116.812 307.155
L116.524 311.889
L115.41 311.821" style="fill:#0000ff;"/>
    <path clip-path="url(#pa048f861f4)" d="
M132.999 311.789
L133.449 307.068
L132.286 307.517
L134.482 302.121
L135.618 307.835
L134.56 307.174
L134.11 311.895
L132.999 311.789" style="fill:#0000ff;"/>
    <path clip-path="url(#pa048f861f4)" d="
M150.474 311.721
L151.2 307.034
L150.012 307.415
L152.52 302.157
L153.32 307.927
L152.303 307.205
L151.577 311.892
L150.474 311.721" style="fill:#0000ff;"/>
    <path clip-path="url(#pa048f861f4)" d="
M167.771 311.572
L168.952 306.978
L167.732 307.24
L170.743 302.253
L170.975 308.074
L170.033 307.256
L168.852 311.849
L167.771 311.572" style="fill:#0000ff;"/>
    <path clip-path="url(#pa048f861f4)" d="
M184.888 311.274
L186.713 306.896
L185.468 306.982
L189.16 302.475
L188.559 308.27
L187.743 307.325
L185.919 311.703
L184.888 311.274" style="fill:#0000ff;"/>
    <path clip-path="url(#pa048f861f4)" d="
M202.088 310.913
L204.484 306.82
L203.239 306.738
L207.503 302.768
L206.129 308.43
L205.447 307.384
L203.051 311.477
L202.088 310.913" style="fill:#0000ff;"/>
    <path clip-path="url(#pa048f861f4)" d="
M219.826 310.901
L222.24 306.818
L220.995 306.73
L225.275 302.779
L223.877 308.434
L223.2 307.386
L220.787 311.469
L219.826 310.901" style="fill:#0000ff;"/>
    <path clip-path="url(#pa048f861f4)" d="
M238.396 311.401
L239.973 306.928
L238.735 307.083
L242.168 302.377
L241.892 308.196
L241.025 307.299
L239.449 311.772
L238.396 311.401" style="fill:#0000ff;"/>
    <path clip-path="url(#pa048f861f4)" d="
M257.742 311.864
L257.742 307.121
L256.626 307.679
L258.3 302.099
L259.974 307.679
L258.858 307.121
L258.858 311.864
L257.742 311.864" style="fill:#0000ff;"/>
    <path clip-path="url(#pa048f861f4)" d="
M277.151 311.772
L275.575 307.299
L274.708 308.196
L274.432 302.377
L277.865 307.083
L276.627 306.928
L278.204 311.401
L277.151 311.772" style="fill:#0000ff;"/>
    <path clip-path="url(#pa048f861f4)" d="
M295.813 311.469
L293.4 307.386
L292.723 308.434
L291.325 302.779
L295.605 306.73
L294.36 306.818
L296.774 310.901
L295.813 311.469" style="fill:#0000ff;"/>
    <path clip-path="url(#pa048f861f4)" d="
M313.549 311.477
L311.153 307.384
L310.471 308.43
L309.097 302.768
L313.361 306.738
L312.116 306.82
L314.512 310.913
L313.549 311.477" style="fill:#0000ff;"/>
    <path clip-path="url(#pa048f861f4)" d="
M330.681 311.703
L328.857 307.325
L328.041 308.27
L327.44 302.475
L331.132 306.982
L329.887 306.896
L331.712 311.274
L330.681 311.703" style="fill:#0000ff;"/>
    <path clip-path="url(#pa048f861f4)" d="
M347.748 311.849
L346.567 307.256
L345.625 308.074
L345.857 302.253
L348.868 307.24
L347.648 306.978
L348.829 311.572
L347.748 311.849" style="fill:#0000ff;"/>
    <path clip-path="url(#pa048f861f4)" d="
M365.023 311.892
L364.297 307.205
L363.28 307.927
L364.08 302.157
L366.588 307.415
L365.4 307.034
L366.126 311.721
L365.023 311.892" style="fill:#0000ff;"/>
    <path clip-path="url(#pa048f861f4)" d="
M382.49 311.895
L382.04 307.174
L380.982 307.835
L382.118 302.121
L384.314 307.517
L383.151 307.068
L383.601 311.789
L382.49 311.895" style="fill:#0000ff;"/>
    <path clip-path="url(#pa048f861f4)" d="
M400.076 311.889
L399.788 307.155
L398.708 307.78
L400.04 302.108
L402.05 307.576
L400.902 307.087
L401.19 311.821
L400.076 311.889" style="fill:#0000ff;"/>
    <path clip-path="url(#pa048f861f4)" d="
M417.73 311.883
L417.539 307.144
L416.446 307.746
L417.894 302.103
L419.792 307.611
L418.654 307.099
L418.845 311.838
L417.73 311.883" style="fill:#0000ff;"/>
    <path clip-path="url(#pa048f861f4)" d="
M435.422 311.878
L435.292 307.137
L434.191 307.725
L435.711 302.101
L437.538 307.633
L436.407 307.106
L436.538 311.847
L435.422 311.878" style="fill:#0000ff;"/>
    <path clip-path="url(#pa048f861f4)" d="
M80.0952 293.524
L80.1938 288.782
L79.0664 289.317
L80.856 283.773
L82.4137 289.387
L81.3095 288.806
L81.2109 293.548
L80.0952 293.524" style="fill:#0000ff;"/>
    <path clip-path="url(#pa048f861f4)" d="
M97.7986 293.517
L97.947 288.777
L96.8141 289.299
L98.6618 283.774
L100.16 289.404
L99.0625 288.811
L98.9141 293.552
L97.7986 293.517" style="fill:#0000ff;"/>
    <path clip-path="url(#pa048f861f4)" d="
M115.466 293.504
L115.699 288.766
L114.557 289.269
L116.504 283.778
L117.901 289.434
L116.814 288.821
L116.581 293.559
L115.466 293.504" style="fill:#0000ff;"/>
    <path clip-path="url(#pa048f861f4)" d="
M133.062 293.475
L133.451 288.748
L132.293 289.213
L134.418 283.788
L135.629 289.487
L134.563 288.839
L134.174 293.566
L133.062 293.475" style="fill:#0000ff;"/>
    <path clip-path="url(#pa048f861f4)" d="
M150.511 293.404
L151.2 288.712
L150.015 289.102
L152.482 283.824
L153.328 289.588
L152.305 288.874
L151.616 293.566
L150.511 293.404" style="fill:#0000ff;"/>
    <path clip-path="url(#pa048f861f4)" d="
M167.653 293.197
L168.952 288.636
L167.726 288.867
L170.865 283.959
L170.946 289.784
L170.026 288.942
L168.726 293.503
L167.653 293.197" style="fill:#0000ff;"/>
    <path clip-path="url(#pa048f861f4)" d="
M184.304 292.564
L186.731 288.489
L185.487 288.397
L189.78 284.46
L188.363 290.11
L187.69 289.06
L185.263 293.135
L184.304 292.564" style="fill:#0000ff;"/>
    <path clip-path="url(#pa048f861f4)" d="
M200.968 291.411
L204.567 288.322
L203.417 287.839
L208.741 285.474
L205.598 290.379
L205.294 289.169
L201.695 292.258
L200.968 291.411" style="fill:#0000ff;"/>
    <path clip-path="url(#pa048f861f4)" d="
M218.535 291.112
L222.347 288.289
L221.234 287.724
L226.714 285.749
L223.227 290.415
L223.011 289.186
L219.199 292.009
L218.535 291.112" style="fill:#0000ff;"/>
    <path clip-path="url(#pa048f861f4)" d="
M237.276 292.323
L240.009 288.447
L238.775 288.26
L243.359 284.664
L241.512 290.189
L240.921 289.09
L238.188 292.966
L237.276 292.323" style="fill:#0000ff;"/>
    <path clip-path="url(#pa048f861f4)" d="
M257.742 293.537
L257.742 288.794
L256.626 289.352
L258.3 283.772
L259.974 289.352
L258.858 288.794
L258.858 293.537
L257.742 293.537" style="fill:#0000ff;"/>
    <path clip-path="url(#pa048f861f4)" d="
M278.412 292.966
L275.679 289.09
L275.088 290.189
L273.241 284.664
L277.825 288.26
L276.591 288.447
L279.324 292.323
L278.412 292.966" style="fill:#0000ff;"/>
    <path clip-path="url(#pa048f861f4)" d="
M297.401 292.009
L293.589 289.186
L293.373 290.415
L289.886 285.749
L295.366 287.724
L294.253 288.289
L298.065 291.112
L297.401 292.009" style="fill:#0000ff;"/>
    <path clip-path="url(#pa048f861f4)" d="
M314.905 292.258
L311.306 289.169
L311.002 290.379
L307.859 285.474
L313.183 287.839
L312.033 288.322
L315.632 291.411
L314.905 292.258" style="fill:#0000ff;"/>
    <path clip-path="url(#pa048f861f4)" d="
M331.337 293.135
L328.91 289.06
L328.237 290.11
L326.82 284.46
L331.113 288.397
L329.869 288.489
L332.296 292.564
L331.337 293.135" style="fill:#0000ff;"/>
    <path clip-path="url(#pa048f861f4)" d="
M347.874 293.503
L346.574 288.942
L345.654 289.784
L345.735 283.959
L348.874 288.867
L347.648 288.636
L348.947 293.197
L347.874 293.503" style="fill:#0000ff;"/>
    <path clip-path="url(#pa048f861f4)" d="
M364.984 293.566
L364.295 288.874
L363.272 289.588
L364.118 283.824
L366.585 289.102
L365.4 288.712
L366.089 293.404
L364.984 293.566" style="fill:#0000ff;"/>
    <path clip-path="url(#pa048f861f4)" d="
M382.426 293.566
L382.037 288.839
L380.971 289.487
L382.182 283.788
L384.307 289.213
L383.149 288.748
L383.538 293.475
L382.426 293.566" style="fill:#0000ff;"/>
    <path clip-path="url(#pa048f861f4)" d="
M400.019 293.559
L399.786 288.821
L398.699 289.434
L400.096 283.778
L402.043 289.269
L400.901 288.766
L401.134 293.504
L400.019 293.559" style="fill:#0000ff;"/>
    <path clip-path="url(#pa048f861f4)" d="
M417.686 293.552
L417.538 288.811
L416.44 289.404
L417.938 283.774
L419.786 289.299
L418.653 288.777
L418.801 293.517
L417.686 293.552" style="fill:#0000ff;"/>
    <path clip-path="url(#pa048f861f4)" d="
M435.389 293.548
L435.29 288.806
L434.186 289.387
L435.744 283.773
L437.534 289.317
L436.406 288.782
L436.505 293.524
L435.389 293.548" style="fill:#0000ff;"/>
    <path clip-path="url(#pa048f861f4)" d="
M80.1417 275.203
L80.195 270.46
L79.0728 271.006
L80.8094 265.445
L82.4206 271.044
L81.3109 270.473
L81.2577 275.216
L80.1417 275.203" style="fill:#0000ff;"/>
    <path clip-path="url(#pa048f861f4)" d="
M97.867 275.199
L97.9488 270.457
L96.8233 270.996
L98.5933 265.445
L100.171 271.054
L99.0646 270.476
L98.9828 275.219
L97.867 275.199" style="fill:#0000ff;"/>
    <path clip-path="url(#pa048f861f4)" d="
M115.569 275.192
L115.702 270.451
L114.571 270.978
L116.4 265.447
L117.917 271.071
L116.818 270.482
L116.685 275.223
L115.569 275.192" style="fill:#0000ff;"/>
    <path clip-path="url(#pa048f861f4)" d="
M133.223 275.177
L133.454 270.439
L132.312 270.942
L134.256 265.451
L135.656 271.106
L134.569 270.494
L134.338 275.231
L133.223 275.177" style="fill:#0000ff;"/>
    <path clip-path="url(#pa048f861f4)" d="
M150.759 275.136
L151.204 270.414
L150.041 270.864
L152.231 265.466
L153.374 271.179
L152.315 270.519
L151.87 275.241
L150.759 275.136" style="fill:#0000ff;"/>
    <path clip-path="url(#pa048f861f4)" d="
M167.96 274.985
L168.952 270.347
L167.744 270.659
L170.549 265.553
L171.018 271.36
L170.044 270.58
L169.051 275.218
L167.96 274.985" style="fill:#0000ff;"/>
    <path clip-path="url(#pa048f861f4)" d="
M184.126 274.094
L186.739 270.136
L185.501 269.987
L189.972 266.253
L188.294 271.832
L187.671 270.751
L185.057 274.709
L184.126 274.094" style="fill:#0000ff;"/>
    <path clip-path="url(#pa048f861f4)" d="
M200.13 270.6
L204.805 269.801
L204.067 268.795
L209.849 269.505
L204.631 272.095
L204.993 270.901
L200.318 271.7
L200.13 270.6" style="fill:#0000ff;"/>
    <path clip-path="url(#pa048f861f4)" d="
M217.97 269.373
L222.697 269.76
L222.232 268.602
L227.657 270.725
L221.959 271.939
L222.606 270.872
L217.879 270.485
L217.97 269.373" style="fill:#0000ff;"/>
    <path clip-path="url(#pa048f861f4)" d="
M235.788 271.558
L240.215 269.856
L239.294 269.015
L245.103 268.576
L240.495 272.14
L240.615 270.898
L236.188 272.599
L235.788 271.558" style="fill:#0000ff;"/>
    <path clip-path="url(#pa048f861f4)" d="
M257.742 275.21
L257.742 270.467
L256.626 271.025
L258.3 265.445
L259.974 271.025
L258.858 270.467
L258.858 275.21
L257.742 275.21" style="fill:#0000ff;"/>
    <path clip-path="url(#pa048f861f4)" d="
M280.412 272.599
L275.985 270.898
L276.105 272.14
L271.497 268.576
L277.306 269.015
L276.385 269.856
L280.812 271.558
L280.412 272.599" style="fill:#0000ff;"/>
    <path clip-path="url(#pa048f861f4)" d="
M298.721 270.485
L293.994 270.872
L294.641 271.939
L288.943 270.725
L294.368 268.602
L293.903 269.76
L298.63 269.373
L298.721 270.485" style="fill:#0000ff;"/>
    <path clip-path="url(#pa048f861f4)" d="
M316.282 271.7
L311.607 270.901
L311.969 272.095
L306.751 269.505
L312.533 268.795
L311.795 269.801
L316.47 270.6
L316.282 271.7" style="fill:#0000ff;"/>
    <path clip-path="url(#pa048f861f4)" d="
M331.543 274.709
L328.929 270.751
L328.306 271.832
L326.628 266.253
L331.099 269.987
L329.861 270.136
L332.474 274.094
L331.543 274.709" style="fill:#0000ff;"/>
    <path clip-path="url(#pa048f861f4)" d="
M347.549 275.218
L346.556 270.58
L345.582 271.36
L346.051 265.553
L348.856 270.659
L347.648 270.347
L348.64 274.985
L347.549 275.218" style="fill:#0000ff;"/>
    <path clip-path="url(#pa048f861f4)" d="
M364.73 275.241
L364.285 270.519
L363.226 271.179
L364.369 265.466
L366.559 270.864
L365.396 270.414
L365.841 275.136
L364.73 275.241" style="fill:#0000ff;"/>
    <path clip-path="url(#pa048f861f4)" d="
M382.262 275.231
L382.031 270.494
L380.944 271.106
L382.344 265.451
L384.288 270.942
L383.146 270.439
L383.377 275.177
L382.262 275.231" style="fill:#0000ff;"/>
    <path clip-path="url(#pa048f861f4)" d="
M399.915 275.223
L399.782 270.482
L398.683 271.071
L400.2 265.447
L402.029 270.978
L400.898 270.451
L401.031 275.192
L399.915 275.223" style="fill:#0000ff;"/>
    <path clip-path="url(#pa048f861f4)" d="
M417.617 275.219
L417.535 270.476
L416.429 271.054
L418.007 265.445
L419.777 270.996
L418.651 270.457
L418.733 275.199
L417.617 275.219" style="fill:#0000ff;"/>
    <path clip-path="url(#pa048f861f4)" d="
M435.342 275.216
L435.289 270.473
L434.179 271.044
L435.791 265.445
L437.527 271.006
L436.405 270.46
L436.458 275.203
L435.342 275.216" style="fill:#0000ff;"/>
    <path clip-path="url(#pa048f861f4)" d="
M80.1965 256.882
L80.1965 252.139
L79.0805 252.697
L80.7545 247.118
L82.4285 252.697
L81.3125 252.139
L81.3125 256.882
L80.1965 256.882" style="fill:#0000ff;"/>
    <path clip-path="url(#pa048f861f4)" d="
M97.9511 256.882
L97.9511 252.139
L96.8351 252.697
L98.5091 247.118
L100.183 252.697
L99.0671 252.139
L99.0671 256.882
L97.9511 256.882" style="fill:#0000ff;"/>
    <path clip-path="url(#pa048f861f4)" d="
M115.706 256.882
L115.706 252.139
L114.59 252.697
L116.264 247.118
L117.938 252.697
L116.822 252.139
L116.822 256.882
L115.706 256.882" style="fill:#0000ff;"/>
    <path clip-path="url(#pa048f861f4)" d="
M133.46 256.882
L133.46 252.139
L132.344 252.697
L134.018 247.118
L135.692 252.697
L134.576 252.139
L134.576 256.882
L133.46 256.882" style="fill:#0000ff;"/>
    <path clip-path="url(#pa048f861f4)" d="
M151.215 256.882
L151.215 252.139
L150.099 252.697
L151.773 247.118
L153.447 252.697
L152.331 252.139
L152.331 256.882
L151.215 256.882" style="fill:#0000ff;"/>
    <path clip-path="url(#pa048f861f4)" d="
M168.969 256.882
L168.969 252.139
L167.853 252.697
L169.527 247.118
L171.201 252.697
L170.085 252.139
L170.085 256.882
L168.969 256.882" style="fill:#0000ff;"/>
    <path clip-path="url(#pa048f861f4)" d="
M186.724 256.882
L186.724 252.139
L185.608 252.697
L187.282 247.118
L188.956 252.697
L187.84 252.139
L187.84 256.882
L186.724 256.882" style="fill:#0000ff;"/>
    <path clip-path="url(#pa048f861f4)" d="
M205.594 247.118
L205.594 251.861
L206.71 251.303
L205.036 256.882
L203.362 251.303
L204.478 251.861
L204.478 247.118
L205.594 247.118" style="fill:#0000ff;"/>
    <path clip-path="url(#pa048f861f4)" d="
M223.349 247.118
L223.349 251.861
L224.465 251.303
L222.791 256.882
L221.117 251.303
L222.233 251.861
L222.233 247.118
L223.349 247.118" style="fill:#0000ff;"/>
    <path clip-path="url(#pa048f861f4)" d="
M241.103 247.118
L241.103 251.861
L242.219 251.303
L240.545 256.882
L238.871 251.303
L239.987 251.861
L239.987 247.118
L241.103 247.118" style="fill:#0000ff;"/>
    <path clip-path="url(#pa048f861f4)" style="fill:#0000ff;"/>
    <path clip-path="url(#pa048f861f4)" d="
M276.613 247.118
L276.613 251.861
L277.729 251.303
L276.055 256.882
L274.381 251.303
L275.497 251.861
L275.497 247.118
L276.613 247.118" style="fill:#0000ff;"/>
    <path clip-path="url(#pa048f861f4)" d="
M294.367 247.118
L294.367 251.861
L295.483 251.303
L293.809 256.882
L292.135 251.303
L293.251 251.861
L293.251 247.118
L294.367 247.118" style="fill:#0000ff;"/>
    <path clip-path="url(#pa048f861f4)" d="
M312.122 247.118
L312.122 251.861
L313.238 251.303
L311.564 256.882
L309.89 251.303
L311.006 251.861
L311.006 247.118
L312.122 247.118" style="fill:#0000ff;"/>
    <path clip-path="url(#pa048f861f4)" d="
M328.76 256.882
L328.76 252.139
L327.644 252.697
L329.318 247.118
L330.992 252.697
L329.876 252.139
L329.876 256.882
L328.76 256.882" style="fill:#0000ff;"/>
    <path clip-path="url(#pa048f861f4)" d="
M346.515 256.882
L346.515 252.139
L345.399 252.697
L347.073 247.118
L348.747 252.697
L347.631 252.139
L347.631 256.882
L346.515 256.882" style="fill:#0000ff;"/>
    <path clip-path="url(#pa048f861f4)" d="
M364.269 256.882
L364.269 252.139
L363.153 252.697
L364.827 247.118
L366.501 252.697
L365.385 252.139
L365.385 256.882
L364.269 256.882" style="fill:#0000ff;"/>
    <path clip-path="url(#pa048f861f4)" d="
M382.024 256.882
L382.024 252.139
L380.908 252.697
L382.582 247.118
L384.256 252.697
L383.14 252.139
L383.14 256.882
L382.024 256.882" style="fill:#0000ff;"/>
    <path clip-path="url(#pa048f861f4)" d="
M399.778 256.882
L399.778 252.139
L398.662 252.697
L400.336 247.118
L402.01 252.697
L400.894 252.139
L400.894 256.882
L399.778 256.882" style="fill:#0000ff;"/>
    <path clip-path="url(#pa048f861f4)" d="
M417.533 256.882
L417.533 252.139
L416.417 252.697
L418.091 247.118
L419.765 252.697
L418.649 252.139
L418.649 256.882
L417.533 256.882" style="fill:#0000ff;"/>
    <path clip-path="url(#pa048f861f4)" d="
M435.287 256.882
L435.287 252.139
L434.171 252.697
L435.845 247.118
L437.519 252.697
L436.403 252.139
L436.403 256.882
L435.287 256.882" style="fill:#0000ff;"/>
    <path clip-path="url(#pa048f861f4)" d="
M80.2514 238.561
L80.1981 233.818
L79.0885 234.389
L80.6997 228.791
L82.4363 234.351
L81.3141 233.806
L81.3674 238.549
L80.2514 238.561" style="fill:#0000ff;"/>
    <path clip-path="url(#pa048f861f4)" d="
M98.0354 238.564
L97.9536 233.822
L96.8474 234.399
L98.4249 228.791
L100.195 234.341
L99.0694 233.803
L99.1512 238.545
L98.0354 238.564" style="fill:#0000ff;"/>
    <path clip-path="url(#pa048f861f4)" d="
M115.842 238.569
L115.71 233.828
L114.61 234.417
L116.127 228.792
L117.956 234.323
L116.825 233.797
L116.958 238.538
L115.842 238.569" style="fill:#0000ff;"/>
    <path clip-path="url(#pa048f861f4)" d="
M133.699 238.577
L133.468 233.839
L132.38 234.451
L133.78 228.796
L135.724 234.288
L134.582 233.785
L134.814 238.522
L133.699 238.577" style="fill:#0000ff;"/>
    <path clip-path="url(#pa048f861f4)" d="
M151.676 238.586
L151.23 233.864
L150.172 234.524
L151.314 228.812
L153.505 234.21
L152.341 233.759
L152.787 238.481
L151.676 238.586" style="fill:#0000ff;"/>
    <path clip-path="url(#pa048f861f4)" d="
M170.004 238.564
L169.011 233.926
L168.036 234.705
L168.505 228.898
L171.31 234.004
L170.102 233.692
L171.095 238.33
L170.004 238.564" style="fill:#0000ff;"/>
    <path clip-path="url(#pa048f861f4)" d="
M189.507 238.055
L186.893 234.097
L186.269 235.177
L184.591 229.598
L189.063 233.332
L187.824 233.482
L190.438 237.44
L189.507 238.055" style="fill:#0000ff;"/>
    <path clip-path="url(#pa048f861f4)" d="
M209.755 235.045
L205.08 234.246
L205.442 235.44
L200.224 232.85
L206.006 232.14
L205.268 233.146
L209.943 233.945
L209.755 235.045" style="fill:#0000ff;"/>
    <path clip-path="url(#pa048f861f4)" d="
M227.703 233.831
L222.975 234.218
L223.623 235.284
L217.925 234.071
L223.35 231.947
L222.884 233.105
L227.612 232.719
L227.703 233.831" style="fill:#0000ff;"/>
    <path clip-path="url(#pa048f861f4)" d="
M244.903 235.945
L240.476 234.244
L240.596 235.486
L235.988 231.921
L241.797 232.36
L240.876 233.202
L245.303 234.903
L244.903 235.945" style="fill:#0000ff;"/>
    <path clip-path="url(#pa048f861f4)" d="
M257.742 238.555
L257.742 233.812
L256.626 234.37
L258.3 228.79
L259.974 234.37
L258.858 233.812
L258.858 238.555
L257.742 238.555" style="fill:#0000ff;"/>
    <path clip-path="url(#pa048f861f4)" d="
M271.297 234.903
L275.724 233.202
L274.803 232.36
L280.612 231.921
L276.004 235.486
L276.124 234.244
L271.697 235.945
L271.297 234.903" style="fill:#0000ff;"/>
    <path clip-path="url(#pa048f861f4)" d="
M288.988 232.719
L293.716 233.105
L293.25 231.947
L298.675 234.071
L292.977 235.284
L293.625 234.218
L288.897 233.831
L288.988 232.719" style="fill:#0000ff;"/>
    <path clip-path="url(#pa048f861f4)" d="
M306.657 233.945
L311.332 233.146
L310.594 232.14
L316.376 232.85
L311.158 235.44
L311.52 234.246
L306.845 235.045
L306.657 233.945" style="fill:#0000ff;"/>
    <path clip-path="url(#pa048f861f4)" d="
M326.162 237.44
L328.776 233.482
L327.537 233.332
L332.009 229.598
L330.331 235.177
L329.707 234.097
L327.093 238.055
L326.162 237.44" style="fill:#0000ff;"/>
    <path clip-path="url(#pa048f861f4)" d="
M345.505 238.33
L346.498 233.692
L345.29 234.004
L348.095 228.898
L348.564 234.705
L347.589 233.926
L346.596 238.564
L345.505 238.33" style="fill:#0000ff;"/>
    <path clip-path="url(#pa048f861f4)" d="
M363.813 238.481
L364.259 233.759
L363.095 234.21
L365.286 228.812
L366.428 234.524
L365.37 233.864
L364.924 238.586
L363.813 238.481" style="fill:#0000ff;"/>
    <path clip-path="url(#pa048f861f4)" d="
M381.786 238.522
L382.018 233.785
L380.876 234.288
L382.82 228.796
L384.22 234.451
L383.132 233.839
L382.901 238.577
L381.786 238.522" style="fill:#0000ff;"/>
    <path clip-path="url(#pa048f861f4)" d="
M399.642 238.538
L399.775 233.797
L398.644 234.323
L400.473 228.792
L401.99 234.417
L400.89 233.828
L400.758 238.569
L399.642 238.538" style="fill:#0000ff;"/>
    <path clip-path="url(#pa048f861f4)" d="
M417.449 238.545
L417.531 233.803
L416.405 234.341
L418.175 228.791
L419.753 234.399
L418.646 233.822
L418.565 238.564
L417.449 238.545" style="fill:#0000ff;"/>
    <path clip-path="url(#pa048f861f4)" d="
M435.233 238.549
L435.286 233.806
L434.164 234.351
L435.9 228.791
L437.512 234.389
L436.402 233.818
L436.349 238.561
L435.233 238.549" style="fill:#0000ff;"/>
    <path clip-path="url(#pa048f861f4)" d="
M80.2981 220.238
L80.1996 215.497
L79.0954 216.078
L80.6531 210.464
L82.4427 216.008
L81.3153 215.473
L81.4139 220.215
L80.2981 220.238" style="fill:#0000ff;"/>
    <path clip-path="url(#pa048f861f4)" d="
M98.1041 220.243
L97.9557 215.502
L96.8577 216.095
L98.3564 210.465
L100.204 215.99
L99.0712 215.467
L99.2195 220.208
L98.1041 220.243" style="fill:#0000ff;"/>
    <path clip-path="url(#pa048f861f4)" d="
M115.947 220.25
L115.713 215.512
L114.626 216.125
L116.023 210.469
L117.97 215.96
L116.828 215.457
L117.061 220.195
L115.947 220.25" style="fill:#0000ff;"/>
    <path clip-path="url(#pa048f861f4)" d="
M133.862 220.257
L133.473 215.53
L132.407 216.178
L133.618 210.479
L135.744 215.904
L134.586 215.439
L134.974 220.166
L133.862 220.257" style="fill:#0000ff;"/>
    <path clip-path="url(#pa048f861f4)" d="
M151.93 220.257
L151.241 215.565
L150.218 216.279
L151.064 210.515
L153.53 215.792
L152.345 215.402
L153.034 220.095
L151.93 220.257" style="fill:#0000ff;"/>
    <path clip-path="url(#pa048f861f4)" d="
M170.329 220.194
L169.029 215.633
L168.109 216.475
L168.189 210.65
L171.328 215.558
L170.102 215.327
L171.402 219.888
L170.329 220.194" style="fill:#0000ff;"/>
    <path clip-path="url(#pa048f861f4)" d="
M189.301 219.826
L186.874 215.751
L186.2 216.801
L184.784 211.151
L189.077 215.088
L187.833 215.18
L190.26 219.255
L189.301 219.826" style="fill:#0000ff;"/>
    <path clip-path="url(#pa048f861f4)" d="
M208.378 218.949
L204.779 215.86
L204.475 217.07
L201.332 212.165
L206.656 214.53
L205.506 215.013
L209.104 218.102
L208.378 218.949" style="fill:#0000ff;"/>
    <path clip-path="url(#pa048f861f4)" d="
M226.382 218.7
L222.571 215.877
L222.355 217.106
L218.867 212.44
L224.348 214.415
L223.235 214.98
L227.047 217.803
L226.382 218.7" style="fill:#0000ff;"/>
    <path clip-path="url(#pa048f861f4)" d="
M242.903 219.657
L240.17 215.781
L239.579 216.88
L237.732 211.355
L242.315 214.951
L241.082 215.138
L243.815 219.014
L242.903 219.657" style="fill:#0000ff;"/>
    <path clip-path="url(#pa048f861f4)" d="
M257.742 220.228
L257.742 215.485
L256.626 216.043
L258.3 210.463
L259.974 216.043
L258.858 215.485
L258.858 220.228
L257.742 220.228" style="fill:#0000ff;"/>
    <path clip-path="url(#pa048f861f4)" d="
M272.785 219.014
L275.518 215.138
L274.285 214.951
L278.868 211.355
L277.021 216.88
L276.43 215.781
L273.697 219.657
L272.785 219.014" style="fill:#0000ff;"/>
    <path clip-path="url(#pa048f861f4)" d="
M289.553 217.803
L293.365 214.98
L292.252 214.415
L297.733 212.44
L294.245 217.106
L294.029 215.877
L290.218 218.7
L289.553 217.803" style="fill:#0000ff;"/>
    <path clip-path="url(#pa048f861f4)" d="
M307.496 218.102
L311.094 215.013
L309.944 214.53
L315.268 212.165
L312.125 217.07
L311.821 215.86
L308.222 218.949
L307.496 218.102" style="fill:#0000ff;"/>
    <path clip-path="url(#pa048f861f4)" d="
M326.34 219.255
L328.767 215.18
L327.523 215.088
L331.816 211.151
L330.4 216.801
L329.726 215.751
L327.299 219.826
L326.34 219.255" style="fill:#0000ff;"/>
    <path clip-path="url(#pa048f861f4)" d="
M345.198 219.888
L346.498 215.327
L345.272 215.558
L348.411 210.65
L348.491 216.475
L347.571 215.633
L346.271 220.194
L345.198 219.888" style="fill:#0000ff;"/>
    <path clip-path="url(#pa048f861f4)" d="
M363.566 220.095
L364.255 215.402
L363.07 215.792
L365.536 210.515
L366.382 216.279
L365.359 215.565
L364.67 220.257
L363.566 220.095" style="fill:#0000ff;"/>
    <path clip-path="url(#pa048f861f4)" d="
M381.626 220.166
L382.014 215.439
L380.856 215.904
L382.982 210.479
L384.193 216.178
L383.127 215.53
L382.738 220.257
L381.626 220.166" style="fill:#0000ff;"/>
    <path clip-path="url(#pa048f861f4)" d="
M399.539 220.195
L399.772 215.457
L398.63 215.96
L400.577 210.469
L401.974 216.125
L400.887 215.512
L400.653 220.25
L399.539 220.195" style="fill:#0000ff;"/>
    <path clip-path="url(#pa048f861f4)" d="
M417.38 220.208
L417.529 215.467
L416.396 215.99
L418.244 210.465
L419.742 216.095
L418.644 215.502
L418.496 220.243
L417.38 220.208" style="fill:#0000ff;"/>
    <path clip-path="url(#pa048f861f4)" d="
M435.186 220.215
L435.285 215.473
L434.157 216.008
L435.947 210.464
L437.505 216.078
L436.4 215.497
L436.302 220.238
L435.186 220.215" style="fill:#0000ff;"/>
    <path clip-path="url(#pa048f861f4)" d="
M80.3312 201.914
L80.2006 197.173
L79.1004 197.762
L80.6201 192.138
L82.4471 197.669
L81.3162 197.142
L81.4468 201.883
L80.3312 201.914" style="fill:#0000ff;"/>
    <path clip-path="url(#pa048f861f4)" d="
M98.148 201.919
L97.9572 197.18
L96.8645 197.782
L98.3127 192.14
L100.21 197.648
L99.0723 197.135
L99.2631 201.874
L98.148 201.919" style="fill:#0000ff;"/>
    <path clip-path="url(#pa048f861f4)" d="
M116.003 201.926
L115.715 197.191
L114.635 197.816
L115.967 192.145
L117.977 197.613
L116.829 197.124
L117.117 201.858
L116.003 201.926" style="fill:#0000ff;"/>
    <path clip-path="url(#pa048f861f4)" d="
M133.926 201.932
L133.476 197.21
L132.418 197.871
L133.555 192.158
L135.751 197.554
L134.587 197.104
L135.037 201.826
L133.926 201.932" style="fill:#0000ff;"/>
    <path clip-path="url(#pa048f861f4)" d="
M151.968 201.929
L151.243 197.241
L150.225 197.964
L151.026 192.193
L153.534 197.451
L152.346 197.071
L153.071 201.758
L151.968 201.929" style="fill:#0000ff;"/>
    <path clip-path="url(#pa048f861f4)" d="
M170.203 201.886
L169.022 197.292
L168.08 198.111
L168.311 192.29
L171.322 197.277
L170.102 197.014
L171.284 201.608
L170.203 201.886" style="fill:#0000ff;"/>
    <path clip-path="url(#pa048f861f4)" d="
M188.645 201.74
L186.82 197.362
L186.005 198.306
L185.403 192.511
L189.095 197.018
L187.851 196.932
L189.675 201.31
L188.645 201.74" style="fill:#0000ff;"/>
    <path clip-path="url(#pa048f861f4)" d="
M207.022 201.514
L204.625 197.421
L203.944 198.466
L202.569 192.805
L206.833 196.774
L205.588 196.857
L207.985 200.95
L207.022 201.514" style="fill:#0000ff;"/>
    <path clip-path="url(#pa048f861f4)" d="
M224.795 201.505
L222.382 197.422
L221.705 198.47
L220.306 192.815
L224.587 196.767
L223.342 196.854
L225.756 200.937
L224.795 201.505" style="fill:#0000ff;"/>
    <path clip-path="url(#pa048f861f4)" d="
M241.642 201.809
L240.066 197.335
L239.198 198.232
L238.923 192.413
L242.356 197.12
L241.118 196.964
L242.695 201.438
L241.642 201.809" style="fill:#0000ff;"/>
    <path clip-path="url(#pa048f861f4)" d="
M257.742 201.901
L257.742 197.158
L256.626 197.716
L258.3 192.136
L259.974 197.716
L258.858 197.158
L258.858 201.901
L257.742 201.901" style="fill:#0000ff;"/>
    <path clip-path="url(#pa048f861f4)" d="
M273.905 201.438
L275.482 196.964
L274.244 197.12
L277.677 192.413
L277.402 198.232
L276.534 197.335
L274.958 201.809
L273.905 201.438" style="fill:#0000ff;"/>
    <path clip-path="url(#pa048f861f4)" d="
M290.844 200.937
L293.258 196.854
L292.013 196.767
L296.294 192.815
L294.895 198.47
L294.218 197.422
L291.805 201.505
L290.844 200.937" style="fill:#0000ff;"/>
    <path clip-path="url(#pa048f861f4)" d="
M308.615 200.95
L311.012 196.857
L309.767 196.774
L314.031 192.805
L312.656 198.466
L311.975 197.421
L309.578 201.514
L308.615 200.95" style="fill:#0000ff;"/>
    <path clip-path="url(#pa048f861f4)" d="
M326.925 201.31
L328.749 196.932
L327.505 197.018
L331.197 192.511
L330.595 198.306
L329.78 197.362
L327.955 201.74
L326.925 201.31" style="fill:#0000ff;"/>
    <path clip-path="url(#pa048f861f4)" d="
M345.316 201.608
L346.498 197.014
L345.278 197.277
L348.289 192.29
L348.52 198.111
L347.578 197.292
L346.397 201.886
L345.316 201.608" style="fill:#0000ff;"/>
    <path clip-path="url(#pa048f861f4)" d="
M363.529 201.758
L364.254 197.071
L363.066 197.451
L365.574 192.193
L366.375 197.964
L365.357 197.241
L364.632 201.929
L363.529 201.758" style="fill:#0000ff;"/>
    <path clip-path="url(#pa048f861f4)" d="
M381.563 201.826
L382.013 197.104
L380.849 197.554
L383.045 192.158
L384.182 197.871
L383.124 197.21
L382.674 201.932
L381.563 201.826" style="fill:#0000ff;"/>
    <path clip-path="url(#pa048f861f4)" d="
M399.483 201.858
L399.771 197.124
L398.623 197.613
L400.633 192.145
L401.965 197.816
L400.885 197.191
L400.597 201.926
L399.483 201.858" style="fill:#0000ff;"/>
    <path clip-path="url(#pa048f861f4)" d="
M417.337 201.874
L417.528 197.135
L416.39 197.648
L418.287 192.14
L419.735 197.782
L418.643 197.18
L418.452 201.919
L417.337 201.874" style="fill:#0000ff;"/>
    <path clip-path="url(#pa048f861f4)" d="
M435.153 201.883
L435.284 197.142
L434.153 197.669
L435.98 192.138
L437.5 197.762
L436.399 197.173
L436.269 201.914
L435.153 201.883" style="fill:#0000ff;"/>
    <path clip-path="url(#pa048f861f4)" d="
M80.3491 183.588
L80.2012 178.848
L79.1031 179.44
L80.6022 173.811
L82.4495 179.336
L81.3166 178.813
L81.4646 183.554
L80.3491 183.588" style="fill:#0000ff;"/>
    <path clip-path="url(#pa048f861f4)" d="
M98.1664 183.593
L97.9578 178.855
L96.8674 179.461
L98.2943 173.813
L100.212 179.314
L99.0727 178.806
L99.2813 183.544
L98.1664 183.593" style="fill:#0000ff;"/>
    <path clip-path="url(#pa048f861f4)" d="
M116.016 183.599
L115.716 178.865
L114.637 179.493
L115.955 173.818
L117.978 179.281
L116.829 178.795
L117.13 183.528
L116.016 183.599" style="fill:#0000ff;"/>
    <path clip-path="url(#pa048f861f4)" d="
M133.915 183.604
L133.476 178.882
L132.416 179.541
L133.566 173.829
L135.75 179.23
L134.587 178.778
L135.026 183.501
L133.915 183.604" style="fill:#0000ff;"/>
    <path clip-path="url(#pa048f861f4)" d="
M151.886 183.604
L151.239 178.905
L150.21 179.61
L151.106 173.854
L153.526 179.153
L152.345 178.753
L152.992 183.452
L151.886 183.604" style="fill:#0000ff;"/>
    <path clip-path="url(#pa048f861f4)" d="
M169.945 183.587
L169.008 178.938
L168.024 179.705
L168.562 173.905
L171.306 179.044
L170.102 178.717
L171.039 183.367
L169.945 183.587" style="fill:#0000ff;"/>
    <path clip-path="url(#pa048f861f4)" d="
M188.054 183.544
L186.782 178.975
L185.856 179.812
L185.972 173.987
L189.082 178.914
L187.857 178.676
L189.129 183.245
L188.054 183.544" style="fill:#0000ff;"/>
    <path clip-path="url(#pa048f861f4)" d="
M206.059 183.498
L204.552 179.001
L203.671 179.884
L203.484 174.062
L206.845 178.82
L205.61 178.646
L207.117 183.143
L206.059 183.498" style="fill:#0000ff;"/>
    <path clip-path="url(#pa048f861f4)" d="
M223.724 183.516
L222.3 178.991
L221.403 179.859
L221.326 174.033
L224.597 178.854
L223.365 178.657
L224.788 183.181
L223.724 183.516" style="fill:#0000ff;"/>
    <path clip-path="url(#pa048f861f4)" d="
M240.908 183.592
L240.023 178.932
L239.031 179.689
L239.634 173.894
L242.32 179.064
L241.12 178.724
L242.005 183.384
L240.908 183.592" style="fill:#0000ff;"/>
    <path clip-path="url(#pa048f861f4)" d="
M257.742 183.573
L257.742 178.83
L256.626 179.388
L258.3 173.808
L259.974 179.388
L258.858 178.83
L258.858 183.573
L257.742 183.573" style="fill:#0000ff;"/>
    <path clip-path="url(#pa048f861f4)" d="
M274.595 183.384
L275.48 178.724
L274.28 179.064
L276.966 173.894
L277.569 179.689
L276.577 178.932
L275.692 183.592
L274.595 183.384" style="fill:#0000ff;"/>
    <path clip-path="url(#pa048f861f4)" d="
M291.812 183.181
L293.235 178.657
L292.003 178.854
L295.274 174.033
L295.197 179.859
L294.3 178.991
L292.876 183.516
L291.812 183.181" style="fill:#0000ff;"/>
    <path clip-path="url(#pa048f861f4)" d="
M309.483 183.143
L310.99 178.646
L309.755 178.82
L313.116 174.062
L312.929 179.884
L312.048 179.001
L310.541 183.498
L309.483 183.143" style="fill:#0000ff;"/>
    <path clip-path="url(#pa048f861f4)" d="
M327.471 183.245
L328.743 178.676
L327.518 178.914
L330.628 173.987
L330.744 179.812
L329.818 178.975
L328.546 183.544
L327.471 183.245" style="fill:#0000ff;"/>
    <path clip-path="url(#pa048f861f4)" d="
M345.561 183.367
L346.498 178.717
L345.294 179.044
L348.038 173.905
L348.576 179.705
L347.592 178.938
L346.655 183.587
L345.561 183.367" style="fill:#0000ff;"/>
    <path clip-path="url(#pa048f861f4)" d="
M363.608 183.452
L364.255 178.753
L363.074 179.153
L365.494 173.854
L366.39 179.61
L365.361 178.905
L364.714 183.604
L363.608 183.452" style="fill:#0000ff;"/>
    <path clip-path="url(#pa048f861f4)" d="
M381.574 183.501
L382.013 178.778
L380.85 179.23
L383.034 173.829
L384.184 179.541
L383.124 178.882
L382.685 183.604
L381.574 183.501" style="fill:#0000ff;"/>
    <path clip-path="url(#pa048f861f4)" d="
M399.47 183.528
L399.771 178.795
L398.622 179.281
L400.645 173.818
L401.963 179.493
L400.884 178.865
L400.584 183.599
L399.47 183.528" style="fill:#0000ff;"/>
    <path clip-path="url(#pa048f861f4)" d="
M417.319 183.544
L417.527 178.806
L416.388 179.314
L418.306 173.813
L419.733 179.461
L418.642 178.855
L418.434 183.593
L417.319 183.544" style="fill:#0000ff;"/>
    <path clip-path="url(#pa048f861f4)" d="
M435.135 183.554
L435.283 178.813
L434.151 179.336
L435.998 173.811
L437.497 179.44
L436.399 178.848
L436.251 183.588
L435.135 183.554" style="fill:#0000ff;"/>
    <path clip-path="url(#pa048f861f4)" d="
M80.3537 165.262
L80.2013 160.521
L79.1038 161.115
L80.5977 155.484
L82.4501 161.007
L81.3167 160.485
L81.4691 165.226
L80.3537 165.262" style="fill:#0000ff;"/>
    <path clip-path="url(#pa048f861f4)" d="
M98.1646 165.266
L97.9577 160.527
L96.8671 161.133
L98.2961 155.486
L100.212 160.987
L99.0726 160.479
L99.2795 165.217
L98.1646 165.266" style="fill:#0000ff;"/>
    <path clip-path="url(#pa048f861f4)" d="
M115.999 165.271
L115.715 160.536
L114.634 161.16
L115.972 155.49
L117.976 160.96
L116.829 160.47
L117.113 165.204
L115.999 165.271" style="fill:#0000ff;"/>
    <path clip-path="url(#pa048f861f4)" d="
M133.863 165.275
L133.474 160.549
L132.407 161.196
L133.617 155.498
L135.744 160.921
L134.586 160.457
L134.976 165.184
L133.863 165.275" style="fill:#0000ff;"/>
    <path clip-path="url(#pa048f861f4)" d="
M151.765 165.278
L151.234 160.565
L150.187 161.244
L151.226 155.512
L153.514 160.869
L152.343 160.44
L152.874 165.153
L151.765 165.278" style="fill:#0000ff;"/>
    <path clip-path="url(#pa048f861f4)" d="
M169.696 165.275
L168.996 160.584
L167.975 161.301
L168.806 155.535
L171.286 160.806
L170.1 160.419
L170.8 165.11
L169.696 165.275" style="fill:#0000ff;"/>
    <path clip-path="url(#pa048f861f4)" d="
M187.621 165.266
L186.758 160.602
L185.762 161.354
L186.394 155.562
L189.055 160.745
L187.856 160.399
L188.718 165.063
L187.621 165.266" style="fill:#0000ff;"/>
    <path clip-path="url(#pa048f861f4)" d="
M205.455 165.26
L204.517 160.611
L203.533 161.378
L204.071 155.578
L206.815 160.716
L205.611 160.39
L206.549 165.039
L205.455 165.26" style="fill:#0000ff;"/>
    <path clip-path="url(#pa048f861f4)" d="
M223.098 165.268
L222.266 160.599
L221.265 161.344
L221.934 155.557
L224.561 160.757
L223.365 160.403
L224.197 165.072
L223.098 165.268" style="fill:#0000ff;"/>
    <path clip-path="url(#pa048f861f4)" d="
M240.503 165.278
L240.005 160.561
L238.954 161.233
L240.033 155.508
L242.283 160.882
L241.115 160.444
L241.613 165.161
L240.503 165.278" style="fill:#0000ff;"/>
    <path clip-path="url(#pa048f861f4)" d="
M257.742 165.246
L257.742 160.503
L256.626 161.061
L258.3 155.481
L259.974 161.061
L258.858 160.503
L258.858 165.246
L257.742 165.246" style="fill:#0000ff;"/>
    <path clip-path="url(#pa048f861f4)" d="
M274.987 165.161
L275.485 160.444
L274.317 160.882
L276.567 155.508
L277.646 161.233
L276.595 160.561
L276.097 165.278
L274.987 165.161" style="fill:#0000ff;"/>
    <path clip-path="url(#pa048f861f4)" d="
M292.403 165.072
L293.235 160.403
L292.039 160.757
L294.666 155.557
L295.335 161.344
L294.334 160.599
L293.502 165.268
L292.403 165.072" style="fill:#0000ff;"/>
    <path clip-path="url(#pa048f861f4)" d="
M310.051 165.039
L310.989 160.39
L309.785 160.716
L312.529 155.578
L313.067 161.378
L312.083 160.611
L311.145 165.26
L310.051 165.039" style="fill:#0000ff;"/>
    <path clip-path="url(#pa048f861f4)" d="
M327.882 165.063
L328.744 160.399
L327.545 160.745
L330.206 155.562
L330.838 161.354
L329.842 160.602
L328.979 165.266
L327.882 165.063" style="fill:#0000ff;"/>
    <path clip-path="url(#pa048f861f4)" d="
M345.8 165.11
L346.5 160.419
L345.314 160.806
L347.794 155.535
L348.625 161.301
L347.604 160.584
L346.904 165.275
L345.8 165.11" style="fill:#0000ff;"/>
    <path clip-path="url(#pa048f861f4)" d="
M363.726 165.153
L364.257 160.44
L363.086 160.869
L365.374 155.512
L366.413 161.244
L365.366 160.565
L364.835 165.278
L363.726 165.153" style="fill:#0000ff;"/>
    <path clip-path="url(#pa048f861f4)" d="
M381.624 165.184
L382.014 160.457
L380.856 160.921
L382.983 155.498
L384.193 161.196
L383.126 160.549
L382.737 165.275
L381.624 165.184" style="fill:#0000ff;"/>
    <path clip-path="url(#pa048f861f4)" d="
M399.487 165.204
L399.771 160.47
L398.624 160.96
L400.628 155.49
L401.966 161.16
L400.885 160.536
L400.601 165.271
L399.487 165.204" style="fill:#0000ff;"/>
    <path clip-path="url(#pa048f861f4)" d="
M417.32 165.217
L417.527 160.479
L416.388 160.987
L418.304 155.486
L419.733 161.133
L418.642 160.527
L418.435 165.266
L417.32 165.217" style="fill:#0000ff;"/>
    <path clip-path="url(#pa048f861f4)" d="
M435.131 165.226
L435.283 160.485
L434.15 161.007
L436.002 155.484
L437.496 161.115
L436.399 160.521
L436.246 165.262
L435.131 165.226" style="fill:#0000ff;"/>
    <path clip-path="url(#pa048f861f4)" d="
M80.3484 146.934
L80.2011 142.193
L79.103 142.785
L80.603 137.156
L82.4494 142.682
L81.3166 142.158
L81.4638 146.899
L80.3484 146.934" style="fill:#0000ff;"/>
    <path clip-path="url(#pa048f861f4)" d="
M98.1497 146.937
L97.9572 142.198
L96.8648 142.801
L98.311 137.158
L100.21 142.665
L99.0723 142.153
L99.2648 146.892
L98.1497 146.937" style="fill:#0000ff;"/>
    <path clip-path="url(#pa048f861f4)" d="
M115.966 146.942
L115.714 142.205
L114.629 142.822
L116.004 137.161
L117.972 142.644
L116.828 142.146
L117.08 146.882
L115.966 146.942" style="fill:#0000ff;"/>
    <path clip-path="url(#pa048f861f4)" d="
M133.798 146.946
L133.471 142.214
L132.396 142.848
L133.681 137.166
L135.736 142.617
L134.584 142.137
L134.912 146.869
L133.798 146.946" style="fill:#0000ff;"/>
    <path clip-path="url(#pa048f861f4)" d="
M151.646 146.949
L151.229 142.224
L150.167 142.878
L151.343 137.173
L153.502 142.584
L152.341 142.126
L152.758 146.851
L151.646 146.949" style="fill:#0000ff;"/>
    <path clip-path="url(#pa048f861f4)" d="
M169.498 146.951
L168.988 142.235
L167.938 142.91
L169.002 137.182
L171.267 142.55
L170.097 142.115
L170.607 146.83
L169.498 146.951" style="fill:#0000ff;"/>
    <path clip-path="url(#pa048f861f4)" d="
M187.327 146.95
L186.745 142.243
L185.706 142.934
L186.683 137.191
L189.029 142.523
L187.853 142.106
L188.435 146.814
L187.327 146.95" style="fill:#0000ff;"/>
    <path clip-path="url(#pa048f861f4)" d="
M205.091 146.95
L204.5 142.244
L203.462 142.937
L204.428 137.192
L206.784 142.52
L205.607 142.105
L206.199 146.811
L205.091 146.95" style="fill:#0000ff;"/>
    <path clip-path="url(#pa048f861f4)" d="
M222.748 146.95
L222.251 142.234
L221.199 142.906
L222.279 137.181
L224.529 142.554
L223.36 142.117
L223.858 146.833
L222.748 146.95" style="fill:#0000ff;"/>
    <path clip-path="url(#pa048f861f4)" d="
M240.285 146.944
L239.997 142.209
L238.917 142.834
L240.249 137.163
L242.259 142.631
L241.111 142.142
L241.399 146.876
L240.285 146.944" style="fill:#0000ff;"/>
    <path clip-path="url(#pa048f861f4)" d="
M257.742 146.919
L257.742 142.176
L256.626 142.734
L258.3 137.154
L259.974 142.734
L258.858 142.176
L258.858 146.919
L257.742 146.919" style="fill:#0000ff;"/>
    <path clip-path="url(#pa048f861f4)" d="
M275.201 146.876
L275.489 142.142
L274.341 142.631
L276.351 137.163
L277.683 142.834
L276.603 142.209
L276.315 146.944
L275.201 146.876" style="fill:#0000ff;"/>
    <path clip-path="url(#pa048f861f4)" d="
M292.742 146.833
L293.24 142.117
L292.071 142.554
L294.321 137.181
L295.401 142.906
L294.349 142.234
L293.852 146.95
L292.742 146.833" style="fill:#0000ff;"/>
    <path clip-path="url(#pa048f861f4)" d="
M310.401 146.811
L310.993 142.105
L309.816 142.52
L312.172 137.192
L313.138 142.937
L312.1 142.244
L311.509 146.95
L310.401 146.811" style="fill:#0000ff;"/>
    <path clip-path="url(#pa048f861f4)" d="
M328.165 146.814
L328.747 142.106
L327.571 142.523
L329.917 137.191
L330.894 142.934
L329.855 142.243
L329.273 146.95
L328.165 146.814" style="fill:#0000ff;"/>
    <path clip-path="url(#pa048f861f4)" d="
M345.993 146.83
L346.503 142.115
L345.333 142.55
L347.598 137.182
L348.662 142.91
L347.612 142.235
L347.102 146.951
L345.993 146.83" style="fill:#0000ff;"/>
    <path clip-path="url(#pa048f861f4)" d="
M363.842 146.851
L364.259 142.126
L363.098 142.584
L365.257 137.173
L366.433 142.878
L365.371 142.224
L364.954 146.949
L363.842 146.851" style="fill:#0000ff;"/>
    <path clip-path="url(#pa048f861f4)" d="
M381.688 146.869
L382.016 142.137
L380.864 142.617
L382.919 137.166
L384.204 142.848
L383.129 142.214
L382.802 146.946
L381.688 146.869" style="fill:#0000ff;"/>
    <path clip-path="url(#pa048f861f4)" d="
M399.52 146.882
L399.772 142.146
L398.628 142.644
L400.596 137.161
L401.971 142.822
L400.886 142.205
L400.634 146.942
L399.52 146.882" style="fill:#0000ff;"/>
    <path clip-path="url(#pa048f861f4)" d="
M417.335 146.892
L417.528 142.153
L416.39 142.665
L418.289 137.158
L419.735 142.801
L418.643 142.198
L418.45 146.937
L417.335 146.892" style="fill:#0000ff;"/>
    <path clip-path="url(#pa048f861f4)" d="
M435.136 146.899
L435.283 142.158
L434.151 142.682
L435.997 137.156
L437.497 142.785
L436.399 142.193
L436.252 146.934
L435.136 146.899" style="fill:#0000ff;"/>
    <path clip-path="url(#pa048f861f4)" d="
M80.3369 128.606
L80.2008 123.865
L79.1013 124.454
L80.6144 118.829
L82.4479 124.358
L81.3163 123.833
L81.4524 128.574
L80.3369 128.606" style="fill:#0000ff;"/>
    <path clip-path="url(#pa048f861f4)" d="
M98.1281 128.609
L97.9565 123.869
L96.8614 124.467
L98.3324 118.83
L100.207 124.346
L99.0718 123.828
L99.2434 128.568
L98.1281 128.609" style="fill:#0000ff;"/>
    <path clip-path="url(#pa048f861f4)" d="
M115.928 128.612
L115.713 123.874
L114.623 124.482
L116.042 118.832
L117.968 124.33
L116.827 123.823
L117.043 128.561
L115.928 128.612" style="fill:#0000ff;"/>
    <path clip-path="url(#pa048f861f4)" d="
M133.735 128.615
L133.469 123.88
L132.386 124.499
L133.744 118.834
L135.729 124.312
L134.583 123.817
L134.849 128.553
L133.735 128.615" style="fill:#0000ff;"/>
    <path clip-path="url(#pa048f861f4)" d="
M151.546 128.618
L151.225 123.886
L150.15 124.518
L151.443 118.838
L153.49 124.292
L152.339 123.811
L152.659 128.543
L151.546 128.618" style="fill:#0000ff;"/>
    <path clip-path="url(#pa048f861f4)" d="
M169.351 128.62
L168.982 123.892
L167.913 124.535
L169.147 118.841
L171.25 124.274
L170.094 123.805
L170.464 128.533
L169.351 128.62" style="fill:#0000ff;"/>
    <path clip-path="url(#pa048f861f4)" d="
M187.134 128.621
L186.737 123.895
L185.672 124.544
L186.874 118.844
L189.008 124.264
L187.85 123.801
L188.246 128.528
L187.134 128.621" style="fill:#0000ff;"/>
    <path clip-path="url(#pa048f861f4)" d="
M204.873 128.621
L204.491 123.893
L203.424 124.539
L204.644 118.842
L206.761 124.27
L205.604 123.803
L205.985 128.531
L204.873 128.621" style="fill:#0000ff;"/>
    <path clip-path="url(#pa048f861f4)" d="
M222.551 128.618
L222.243 123.884
L221.166 124.514
L222.474 118.837
L224.507 124.297
L223.357 123.812
L223.664 128.545
L222.551 128.618" style="fill:#0000ff;"/>
    <path clip-path="url(#pa048f861f4)" d="
M240.166 128.609
L239.993 123.869
L238.898 124.467
L240.367 118.83
L242.244 124.345
L241.108 123.828
L241.281 128.568
L240.166 128.609" style="fill:#0000ff;"/>
    <path clip-path="url(#pa048f861f4)" d="
M257.742 128.592
L257.742 123.849
L256.626 124.407
L258.3 118.827
L259.974 124.407
L258.858 123.849
L258.858 128.592
L257.742 128.592" style="fill:#0000ff;"/>
    <path clip-path="url(#pa048f861f4)" d="
M275.319 128.568
L275.492 123.828
L274.356 124.345
L276.233 118.83
L277.702 124.467
L276.607 123.869
L276.434 128.609
L275.319 128.568" style="fill:#0000ff;"/>
    <path clip-path="url(#pa048f861f4)" d="
M292.936 128.545
L293.243 123.812
L292.093 124.297
L294.126 118.837
L295.434 124.514
L294.357 123.884
L294.049 128.618
L292.936 128.545" style="fill:#0000ff;"/>
    <path clip-path="url(#pa048f861f4)" d="
M310.615 128.531
L310.996 123.803
L309.839 124.27
L311.956 118.842
L313.176 124.539
L312.109 123.893
L311.727 128.621
L310.615 128.531" style="fill:#0000ff;"/>
    <path clip-path="url(#pa048f861f4)" d="
M328.354 128.528
L328.75 123.801
L327.592 124.264
L329.726 118.844
L330.928 124.544
L329.863 123.895
L329.466 128.621
L328.354 128.528" style="fill:#0000ff;"/>
    <path clip-path="url(#pa048f861f4)" d="
M346.136 128.533
L346.506 123.805
L345.35 124.274
L347.453 118.841
L348.687 124.535
L347.618 123.892
L347.249 128.62
L346.136 128.533" style="fill:#0000ff;"/>
    <path clip-path="url(#pa048f861f4)" d="
M363.941 128.543
L364.261 123.811
L363.11 124.292
L365.157 118.838
L366.45 124.518
L365.375 123.886
L365.054 128.618
L363.941 128.543" style="fill:#0000ff;"/>
    <path clip-path="url(#pa048f861f4)" d="
M381.751 128.553
L382.017 123.817
L380.871 124.312
L382.856 118.834
L384.214 124.499
L383.131 123.88
L382.865 128.615
L381.751 128.553" style="fill:#0000ff;"/>
    <path clip-path="url(#pa048f861f4)" d="
M399.557 128.561
L399.773 123.823
L398.632 124.33
L400.558 118.832
L401.977 124.482
L400.887 123.874
L400.672 128.612
L399.557 128.561" style="fill:#0000ff;"/>
    <path clip-path="url(#pa048f861f4)" d="
M417.357 128.568
L417.528 123.828
L416.393 124.346
L418.268 118.83
L419.739 124.467
L418.643 123.869
L418.472 128.609
L417.357 128.568" style="fill:#0000ff;"/>
    <path clip-path="url(#pa048f861f4)" d="
M435.148 128.574
L435.284 123.833
L434.152 124.358
L435.986 118.829
L437.499 124.454
L436.399 123.865
L436.263 128.606
L435.148 128.574" style="fill:#0000ff;"/>
    <path clip-path="url(#pa048f861f4)" d="
M80.3223 110.277
L80.2003 105.536
L79.099 106.122
L80.629 100.501
L82.4459 106.036
L81.3159 105.507
L81.4379 110.248
L80.3223 110.277" style="fill:#0000ff;"/>
    <path clip-path="url(#pa048f861f4)" d="
M98.1045 110.279
L97.9557 105.539
L96.8578 106.131
L98.3559 100.502
L100.204 106.026
L99.0712 105.504
L99.22 110.244
L98.1045 110.279" style="fill:#0000ff;"/>
    <path clip-path="url(#pa048f861f4)" d="
M115.891 110.282
L115.711 105.542
L114.617 106.142
L116.079 100.503
L117.963 106.015
L116.827 105.5
L117.006 110.24
L115.891 110.282" style="fill:#0000ff;"/>
    <path clip-path="url(#pa048f861f4)" d="
M133.68 110.284
L133.467 105.546
L132.377 106.154
L133.799 100.504
L135.722 106.004
L134.582 105.496
L134.794 110.234
L133.68 110.284" style="fill:#0000ff;"/>
    <path clip-path="url(#pa048f861f4)" d="
M151.467 110.287
L151.223 105.55
L150.137 106.165
L151.521 100.506
L153.48 105.992
L152.337 105.492
L152.581 110.229
L151.467 110.287" style="fill:#0000ff;"/>
    <path clip-path="url(#pa048f861f4)" d="
M169.246 110.288
L168.978 105.553
L167.895 106.173
L169.251 100.507
L171.238 105.984
L170.092 105.49
L170.36 110.225
L169.246 110.288" style="fill:#0000ff;"/>
    <path clip-path="url(#pa048f861f4)" d="
M187.007 110.288
L186.733 105.553
L185.651 106.175
L187 100.507
L188.993 105.981
L187.847 105.489
L188.121 110.224
L187.007 110.288" style="fill:#0000ff;"/>
    <path clip-path="url(#pa048f861f4)" d="
M204.74 110.287
L204.487 105.551
L203.402 106.168
L204.776 100.506
L206.745 105.989
L205.601 105.491
L205.854 110.228
L204.74 110.287" style="fill:#0000ff;"/>
    <path clip-path="url(#pa048f861f4)" d="
M222.436 110.283
L222.239 105.544
L221.147 106.148
L222.588 100.504
L224.492 106.009
L223.354 105.498
L223.551 110.237
L222.436 110.283" style="fill:#0000ff;"/>
    <path clip-path="url(#pa048f861f4)" d="
M240.1 110.276
L239.991 105.534
L238.888 106.118
L240.434 100.501
L242.235 106.041
L241.107 105.508
L241.215 110.25
L240.1 110.276" style="fill:#0000ff;"/>
    <path clip-path="url(#pa048f861f4)" d="
M257.742 110.264
L257.742 105.521
L256.626 106.079
L258.3 100.499
L259.974 106.079
L258.858 105.521
L258.858 110.264
L257.742 110.264" style="fill:#0000ff;"/>
    <path clip-path="url(#pa048f861f4)" d="
M275.385 110.25
L275.493 105.508
L274.365 106.041
L276.166 100.501
L277.712 106.118
L276.609 105.534
L276.5 110.276
L275.385 110.25" style="fill:#0000ff;"/>
    <path clip-path="url(#pa048f861f4)" d="
M293.049 110.237
L293.246 105.498
L292.108 106.009
L294.012 100.504
L295.453 106.148
L294.361 105.544
L294.164 110.283
L293.049 110.237" style="fill:#0000ff;"/>
    <path clip-path="url(#pa048f861f4)" d="
M310.746 110.228
L310.999 105.491
L309.855 105.989
L311.824 100.506
L313.198 106.168
L312.113 105.551
L311.86 110.287
L310.746 110.228" style="fill:#0000ff;"/>
    <path clip-path="url(#pa048f861f4)" d="
M328.479 110.224
L328.753 105.489
L327.607 105.981
L329.6 100.507
L330.949 106.175
L329.867 105.553
L329.593 110.288
L328.479 110.224" style="fill:#0000ff;"/>
    <path clip-path="url(#pa048f861f4)" d="
M346.24 110.225
L346.508 105.49
L345.362 105.984
L347.349 100.507
L348.705 106.173
L347.622 105.553
L347.354 110.288
L346.24 110.225" style="fill:#0000ff;"/>
    <path clip-path="url(#pa048f861f4)" d="
M364.019 110.229
L364.263 105.492
L363.12 105.992
L365.079 100.506
L366.463 106.165
L365.377 105.55
L365.133 110.287
L364.019 110.229" style="fill:#0000ff;"/>
    <path clip-path="url(#pa048f861f4)" d="
M381.806 110.234
L382.018 105.496
L380.878 106.004
L382.801 100.504
L384.223 106.154
L383.133 105.546
L382.92 110.284
L381.806 110.234" style="fill:#0000ff;"/>
    <path clip-path="url(#pa048f861f4)" d="
M399.594 110.24
L399.773 105.5
L398.637 106.015
L400.521 100.503
L401.983 106.142
L400.889 105.542
L400.709 110.282
L399.594 110.24" style="fill:#0000ff;"/>
    <path clip-path="url(#pa048f861f4)" d="
M417.38 110.244
L417.529 105.504
L416.396 106.026
L418.244 100.502
L419.742 106.131
L418.644 105.539
L418.495 110.279
L417.38 110.244" style="fill:#0000ff;"/>
    <path clip-path="url(#pa048f861f4)" d="
M435.162 110.248
L435.284 105.507
L434.154 106.036
L435.971 100.501
L437.501 106.122
L436.4 105.536
L436.278 110.277
L435.162 110.248" style="fill:#0000ff;"/>
    <path clip-path="url(#pa048f861f4)" d="
M80.3069 91.9484
L80.1998 87.2066
L79.0967 87.7896
L80.6444 82.1733
L82.4439 87.7141
L81.3156 87.1814
L81.4226 91.9232
L80.3069 91.9484" style="fill:#0000ff;"/>
    <path clip-path="url(#pa048f861f4)" d="
M98.0816 91.9502
L97.955 87.2089
L96.8543 87.7965
L98.3788 82.1738
L100.201 87.7071
L99.0706 87.1791
L99.1972 91.9204
L98.0816 91.9502" style="fill:#0000ff;"/>
    <path clip-path="url(#pa048f861f4)" d="
M115.858 91.9521
L115.71 87.2114
L114.612 87.8038
L116.112 82.1744
L117.959 87.6996
L116.826 87.1766
L116.973 91.9173
L115.858 91.9521" style="fill:#0000ff;"/>
    <path clip-path="url(#pa048f861f4)" d="
M133.634 91.9538
L133.465 87.2138
L132.37 87.8111
L133.845 82.1751
L135.716 87.6921
L134.581 87.1741
L134.749 91.9141
L133.634 91.9538" style="fill:#0000ff;"/>
    <path clip-path="url(#pa048f861f4)" d="
M151.407 91.9552
L151.221 87.2158
L150.127 87.8172
L151.581 82.1758
L153.473 87.6858
L152.336 87.172
L152.522 91.9114
L151.407 91.9552" style="fill:#0000ff;"/>
    <path clip-path="url(#pa048f861f4)" d="
M169.172 91.956
L168.976 87.217
L167.884 87.8207
L169.325 82.1762
L171.229 87.6822
L170.091 87.1708
L170.287 91.9098
L169.172 91.956" style="fill:#0000ff;"/>
    <path clip-path="url(#pa048f861f4)" d="
M186.923 91.9557
L186.73 87.2167
L185.638 87.8197
L187.083 82.1761
L188.983 87.6832
L187.845 87.1712
L188.038 91.9103
L186.923 91.9557" style="fill:#0000ff;"/>
    <path clip-path="url(#pa048f861f4)" d="
M204.656 91.9541
L204.484 87.2142
L203.389 87.8124
L204.859 82.1753
L206.735 87.6908
L205.599 87.1737
L205.771 91.9135
L204.656 91.9541" style="fill:#0000ff;"/>
    <path clip-path="url(#pa048f861f4)" d="
M222.368 91.9506
L222.237 87.2094
L221.137 87.798
L222.656 82.1739
L224.484 87.7056
L223.353 87.1786
L223.483 91.9198
L222.368 91.9506" style="fill:#0000ff;"/>
    <path clip-path="url(#pa048f861f4)" d="
M240.061 91.9448
L239.99 87.2024
L238.882 87.777
L240.472 82.1726
L242.23 87.7269
L241.105 87.1857
L241.176 91.9282
L240.061 91.9448" style="fill:#0000ff;"/>
    <path clip-path="url(#pa048f861f4)" d="
M257.742 91.937
L257.742 87.194
L256.626 87.752
L258.3 82.172
L259.974 87.752
L258.858 87.194
L258.858 91.937
L257.742 91.937" style="fill:#0000ff;"/>
    <path clip-path="url(#pa048f861f4)" d="
M275.424 91.9282
L275.495 87.1857
L274.37 87.7269
L276.128 82.1726
L277.718 87.777
L276.61 87.2024
L276.539 91.9448
L275.424 91.9282" style="fill:#0000ff;"/>
    <path clip-path="url(#pa048f861f4)" d="
M293.117 91.9198
L293.247 87.1786
L292.116 87.7056
L293.944 82.1739
L295.463 87.798
L294.363 87.2094
L294.232 91.9506
L293.117 91.9198" style="fill:#0000ff;"/>
    <path clip-path="url(#pa048f861f4)" d="
M310.829 91.9135
L311.001 87.1737
L309.865 87.6908
L311.741 82.1753
L313.211 87.8124
L312.116 87.2142
L311.944 91.9541
L310.829 91.9135" style="fill:#0000ff;"/>
    <path clip-path="url(#pa048f861f4)" d="
M328.562 91.9103
L328.755 87.1712
L327.617 87.6832
L329.517 82.1761
L330.962 87.8197
L329.87 87.2167
L329.677 91.9557
L328.562 91.9103" style="fill:#0000ff;"/>
    <path clip-path="url(#pa048f861f4)" d="
M346.313 91.9098
L346.509 87.1708
L345.371 87.6822
L347.275 82.1762
L348.716 87.8207
L347.624 87.217
L347.428 91.956
L346.313 91.9098" style="fill:#0000ff;"/>
    <path clip-path="url(#pa048f861f4)" d="
M364.078 91.9114
L364.264 87.172
L363.127 87.6858
L365.019 82.1758
L366.473 87.8172
L365.379 87.2158
L365.193 91.9552
L364.078 91.9114" style="fill:#0000ff;"/>
    <path clip-path="url(#pa048f861f4)" d="
M381.851 91.9141
L382.019 87.1741
L380.884 87.6921
L382.755 82.1751
L384.23 87.8111
L383.135 87.2138
L382.966 91.9538
L381.851 91.9141" style="fill:#0000ff;"/>
    <path clip-path="url(#pa048f861f4)" d="
M399.627 91.9173
L399.774 87.1766
L398.641 87.6996
L400.488 82.1744
L401.988 87.8038
L400.89 87.2114
L400.742 91.9521
L399.627 91.9173" style="fill:#0000ff;"/>
    <path clip-path="url(#pa048f861f4)" d="
M417.403 91.9204
L417.529 87.1791
L416.399 87.7071
L418.221 82.1738
L419.746 87.7965
L418.645 87.2089
L418.518 91.9502
L417.403 91.9204" style="fill:#0000ff;"/>
    <path clip-path="url(#pa048f861f4)" d="
M435.177 91.9232
L435.284 87.1814
L434.156 87.7141
L435.956 82.1733
L437.503 87.7896
L436.4 87.2066
L436.293 91.9484
L435.177 91.9232" style="fill:#0000ff;"/>
    <path clip-path="url(#pa048f861f4)" d="
M80.2919 73.6197
L80.1994 68.8776
L79.0945 69.4573
L80.6593 63.8457
L82.4418 69.392
L81.3152 68.8559
L81.4077 73.598
L80.2919 73.6197" style="fill:#0000ff;"/>
    <path clip-path="url(#pa048f861f4)" d="
M98.0609 73.6211
L97.9544 68.8793
L96.8512 69.4622
L98.3994 63.846
L100.198 69.387
L99.0701 68.8542
L99.1766 73.596
L98.0609 73.6211" style="fill:#0000ff;"/>
    <path clip-path="url(#pa048f861f4)" d="
M115.83 73.6224
L115.709 68.8809
L114.608 69.4671
L116.139 63.8464
L117.955 69.382
L116.825 68.8525
L116.946 73.594
L115.83 73.6224" style="fill:#0000ff;"/>
    <path clip-path="url(#pa048f861f4)" d="
M133.598 73.6235
L133.464 68.8824
L132.364 69.4716
L133.881 63.8467
L135.711 69.3774
L134.58 68.851
L134.713 73.5922
L133.598 73.6235" style="fill:#0000ff;"/>
    <path clip-path="url(#pa048f861f4)" d="
M151.362 73.6243
L151.219 68.8835
L150.12 69.4748
L151.626 63.847
L153.467 69.3742
L152.335 68.8499
L152.477 73.5908
L151.362 73.6243" style="fill:#0000ff;"/>
    <path clip-path="url(#pa048f861f4)" d="
M169.119 73.6246
L168.974 68.8838
L167.875 69.4758
L169.378 63.8471
L171.222 69.3731
L170.089 68.8496
L170.235 73.5904
L169.119 73.6246" style="fill:#0000ff;"/>
    <path clip-path="url(#pa048f861f4)" d="
M186.867 73.624
L186.728 68.883
L185.629 69.4735
L187.139 63.8469
L188.976 69.3755
L187.844 68.8504
L187.983 73.5913
L186.867 73.624" style="fill:#0000ff;"/>
    <path clip-path="url(#pa048f861f4)" d="
M204.603 73.6224
L204.482 68.8809
L203.381 69.4671
L204.912 63.8463
L206.728 69.382
L205.598 68.8525
L205.718 73.594
L204.603 73.6224" style="fill:#0000ff;"/>
    <path clip-path="url(#pa048f861f4)" d="
M222.325 73.6194
L222.236 68.8773
L221.13 69.4563
L222.699 63.8456
L224.478 69.393
L223.351 68.8562
L223.441 73.5984
L222.325 73.6194" style="fill:#0000ff;"/>
    <path clip-path="url(#pa048f861f4)" d="
M240.037 73.6152
L239.989 68.8724
L238.879 69.4417
L240.496 63.845
L242.226 69.4078
L241.105 68.8611
L241.153 73.6039
L240.037 73.6152" style="fill:#0000ff;"/>
    <path clip-path="url(#pa048f861f4)" d="
M257.742 73.6098
L257.742 68.8668
L256.626 69.4248
L258.3 63.8448
L259.974 69.4248
L258.858 68.8668
L258.858 73.6098
L257.742 73.6098" style="fill:#0000ff;"/>
    <path clip-path="url(#pa048f861f4)" d="
M275.447 73.6039
L275.495 68.8611
L274.374 69.4078
L276.104 63.845
L277.721 69.4417
L276.611 68.8724
L276.563 73.6152
L275.447 73.6039" style="fill:#0000ff;"/>
    <path clip-path="url(#pa048f861f4)" d="
M293.159 73.5984
L293.249 68.8562
L292.122 69.393
L293.901 63.8456
L295.47 69.4563
L294.364 68.8773
L294.275 73.6194
L293.159 73.5984" style="fill:#0000ff;"/>
    <path clip-path="url(#pa048f861f4)" d="
M310.882 73.594
L311.002 68.8525
L309.872 69.382
L311.688 63.8463
L313.219 69.4671
L312.118 68.8809
L311.997 73.6224
L310.882 73.594" style="fill:#0000ff;"/>
    <path clip-path="url(#pa048f861f4)" d="
M328.617 73.5913
L328.756 68.8504
L327.624 69.3755
L329.461 63.8469
L330.971 69.4735
L329.872 68.883
L329.733 73.624
L328.617 73.5913" style="fill:#0000ff;"/>
    <path clip-path="url(#pa048f861f4)" d="
M346.365 73.5904
L346.511 68.8496
L345.378 69.3731
L347.222 63.8471
L348.725 69.4758
L347.626 68.8838
L347.481 73.6246
L346.365 73.5904" style="fill:#0000ff;"/>
    <path clip-path="url(#pa048f861f4)" d="
M364.123 73.5908
L364.265 68.8499
L363.133 69.3742
L364.974 63.847
L366.48 69.4748
L365.381 68.8835
L365.238 73.6243
L364.123 73.5908" style="fill:#0000ff;"/>
    <path clip-path="url(#pa048f861f4)" d="
M381.887 73.5922
L382.02 68.851
L380.889 69.3774
L382.719 63.8467
L384.236 69.4716
L383.136 68.8824
L383.002 73.6235
L381.887 73.5922" style="fill:#0000ff;"/>
    <path clip-path="url(#pa048f861f4)" d="
M399.654 73.594
L399.775 68.8525
L398.645 69.382
L400.461 63.8464
L401.992 69.4671
L400.891 68.8809
L400.77 73.6224
L399.654 73.594" style="fill:#0000ff;"/>
    <path clip-path="url(#pa048f861f4)" d="
M417.423 73.596
L417.53 68.8542
L416.402 69.387
L418.201 63.846
L419.749 69.4622
L418.646 68.8793
L418.539 73.6211
L417.423 73.596" style="fill:#0000ff;"/>
    <path clip-path="url(#pa048f861f4)" d="
M435.192 73.598
L435.285 68.8559
L434.158 69.392
L435.941 63.8457
L437.506 69.4573
L436.401 68.8776
L436.308 73.6197
L435.192 73.598" style="fill:#0000ff;"/>
   </g>
  </g>
 </g>
 <defs>
  <clipPath id="pa048f861f4">
   <rect height="403.2" width="390.6" x="63.0" y="50.4"/>
  </clipPath>
 </defs>
</svg>
