<?xml version="1.0" encoding="UTF-8" standalone="no"?>
<!-- Created with Inkscape (http://www.inkscape.org/) -->

<svg
   xmlns:ns0="http://www.iki.fi/pav/software/textext/"
   xmlns:dc="http://purl.org/dc/elements/1.1/"
   xmlns:cc="http://creativecommons.org/ns#"
   xmlns:rdf="http://www.w3.org/1999/02/22-rdf-syntax-ns#"
   xmlns:svg="http://www.w3.org/2000/svg"
   xmlns="http://www.w3.org/2000/svg"
   xmlns:sodipodi="http://sodipodi.sourceforge.net/DTD/sodipodi-0.dtd"
   xmlns:inkscape="http://www.inkscape.org/namespaces/inkscape"
   width="792pt"
   height="612pt"
   id="svg4149"
   version="1.1"
   inkscape:version="0.48.1 r9760"
   sodipodi:docname="fig-movimiento_lineal.svg">
  <sodipodi:namedview
     inkscape:document-units="in"
     pagecolor="#ffffff"
     bordercolor="#666666"
     borderopacity="1.0"
     inkscape:pageopacity="0.0"
     inkscape:pageshadow="2"
     inkscape:zoom="0.98300654"
     inkscape:cx="505.20995"
     inkscape:cy="382.5"
     inkscape:current-layer="layer1"
     id="namedview4153"
     showgrid="false"
     showguides="true"
     inkscape:guide-bbox="true"
     inkscape:window-width="1438"
     inkscape:window-height="847"
     inkscape:window-x="0"
     inkscape:window-y="0"
     inkscape:window-maximized="1" />
  <defs
     id="defs4151">
    <marker
       style="overflow:visible;"
       id="Arrow1Send"
       refX="0.0"
       refY="0.0"
       orient="auto"
       inkscape:stockid="Arrow1Send">
      <path
         transform="scale(0.2) rotate(180) translate(6,0)"
         style="fill-rule:evenodd;stroke:#000000;stroke-width:1.0pt;marker-start:none;"
         d="M 0.0,0.0 L 5.0,-5.0 L -12.5,0.0 L 5.0,5.0 L 0.0,0.0 z "
         id="path7702" />
    </marker>
    <marker
       style="overflow:visible"
       id="Arrow1Sstart"
       refX="0.0"
       refY="0.0"
       orient="auto"
       inkscape:stockid="Arrow1Sstart">
      <path
         transform="scale(0.2) translate(6,0)"
         style="fill-rule:evenodd;stroke:#000000;stroke-width:1.0pt;marker-start:none"
         d="M 0.0,0.0 L 5.0,-5.0 L -12.5,0.0 L 5.0,5.0 L 0.0,0.0 z "
         id="path7699" />
    </marker>
    <marker
       style="overflow:visible;"
       id="Arrow2Mend"
       refX="0.0"
       refY="0.0"
       orient="auto"
       inkscape:stockid="Arrow2Mend">
      <path
         transform="scale(0.6) rotate(180) translate(0,0)"
         d="M 8.7185878,4.0337352 L -2.2072895,0.016013256 L 8.7185884,-4.0017078 C 6.9730900,-1.6296469 6.9831476,1.6157441 8.7185878,4.0337352 z "
         style="font-size:12.0;fill-rule:evenodd;stroke-width:0.62500000;stroke-linejoin:round;"
         id="path7714" />
    </marker>
    <marker
       style="overflow:visible"
       id="Arrow2Mstart"
       refX="0.0"
       refY="0.0"
       orient="auto"
       inkscape:stockid="Arrow2Mstart">
      <path
         transform="scale(0.6) translate(0,0)"
         d="M 8.7185878,4.0337352 L -2.2072895,0.016013256 L 8.7185884,-4.0017078 C 6.9730900,-1.6296469 6.9831476,1.6157441 8.7185878,4.0337352 z "
         style="font-size:12.0;fill-rule:evenodd;stroke-width:0.62500000;stroke-linejoin:round"
         id="path7711" />
    </marker>
    <marker
       style="overflow:visible"
       id="Arrow1Mstart"
       refX="0.0"
       refY="0.0"
       orient="auto"
       inkscape:stockid="Arrow1Mstart">
      <path
         transform="scale(0.4) translate(10,0)"
         style="fill-rule:evenodd;stroke:#000000;stroke-width:1.0pt;marker-start:none"
         d="M 0.0,0.0 L 5.0,-5.0 L -12.5,0.0 L 5.0,5.0 L 0.0,0.0 z "
         id="path7693" />
    </marker>
  </defs>
  <metadata
     id="metadata4155">
    <rdf:RDF>
      <cc:Work
         rdf:about="">
        <dc:format>image/svg+xml</dc:format>
        <dc:type
           rdf:resource="http://purl.org/dc/dcmitype/StillImage" />
        <dc:title></dc:title>
      </cc:Work>
    </rdf:RDF>
  </metadata>
  <g
     inkscape:label="Layer 1"
     inkscape:groupmode="layer"
     id="layer1">
    <path
       style="fill:none;stroke:#000000;stroke-width:5;stroke-linecap:butt;stroke-linejoin:miter;stroke-opacity:1;stroke-miterlimit:4;stroke-dasharray:5,5;stroke-dashoffset:0"
       d="M 242.11436,643.94282 C 796.5359,265.51197 796.5359,265.51197 796.5359,265.51197"
       id="path6185"
       inkscape:connector-curvature="0" />
    <g
       style="visibility:visible"
       id="g732"
       transform="matrix(0.05814974,0,0,0.05814974,-317.46007,-158.88989)">
      <g
         transform="translate(2606.6462,-437.35675)"
         style="fill:none;stroke:#000000;stroke-width:102;stroke-linejoin:round"
         id="g734" />
      <path
         sodipodi:nodetypes="cc"
         inkscape:connector-curvature="0"
         id="path8128"
         d="m 13454.236,13578.873 c 69.977,-1119.633 -559.817,-1714.438 -559.817,-1714.438"
         style="fill:none;stroke:#000000;stroke-width:85.98490143;stroke-linecap:butt;stroke-linejoin:miter;stroke-miterlimit:4;stroke-opacity:1;stroke-dasharray:none;marker-start:url(#Arrow1Sstart);marker-mid:none;marker-end:url(#Arrow1Send)" />
    </g>
    <path
       inkscape:connector-curvature="0"
       id="path5981-4"
       d="m 88.581791,642.96011 c 768.051849,3.05186 766.017279,3.05186 766.017279,3.05186"
       style="fill:none;stroke:#aa0000;stroke-width:5;stroke-linecap:butt;stroke-linejoin:miter;stroke-miterlimit:4;stroke-opacity:1;stroke-dasharray:15, 5;stroke-dashoffset:0;visibility:visible"
       sodipodi:nodetypes="cc" />
    <g
       style="visibility:visible"
       id="g422"
       transform="matrix(0.05814974,0,0,0.05814974,-317.46007,-158.88989)">
      <g
         style="fill:none;stroke:#0000ff;stroke-width:152;stroke-linejoin:round"
         id="g424">
        <path
           inkscape:connector-curvature="0"
           style="fill:none"
           d="m 9653,13788 1958,-1324"
           id="path426" />
      </g>
      <g
         style="fill:#0000ff;stroke:none"
         id="g428">
        <path
           inkscape:connector-curvature="0"
           d="m 11640,12698 -3,70 467,-639 -766,197 63,23 63,35 57,45 49,59 37,66 23,72 10,72 z"
           id="path430" />
      </g>
    </g>
    <g
       style="visibility:visible"
       id="g688"
       transform="matrix(0.05814974,0,0,0.05814974,-317.46007,-158.88989)">
      <g
         style="fill:none;stroke:#0000ff;stroke-width:152;stroke-linejoin:round"
         id="g690">
        <path
           inkscape:connector-curvature="0"
           style="fill:none"
           d="m 9644,13822 3333,-7"
           id="path692" />
      </g>
      <g
         style="fill:#0000ff;stroke:none"
         id="g694">
        <path
           inkscape:connector-curvature="0"
           d="m 12871,14026 -42,56 744,-269 -745,-264 40,54 32,64 22,69 8,76 -6,76 -21,72 -32,66 z"
           id="path696" />
      </g>
    </g>
    <g
       style="font-style:normal;font-variant:normal;font-weight:normal;font-stretch:normal;letter-spacing:normal;word-spacing:normal;text-anchor:start;fill:none;stroke:#000000;stroke-linecap:butt;stroke-linejoin:miter;stroke-miterlimit:10.43299961;stroke-opacity:1;stroke-dasharray:none;stroke-dashoffset:0"
       ns0:preamble=""
       ns0:text="$P$"
       word-spacing="normal"
       letter-spacing="normal"
       font-size-adjust="none"
       font-stretch="normal"
       font-weight="normal"
       font-variant="normal"
       font-style="normal"
       stroke-miterlimit="10.433"
       xml:space="preserve"
       transform="matrix(4,0,0,-4,-87.680742,3105.1747)"
       id="g6437">
<path
   style="fill:#000000;stroke-width:0"
   inkscape:connector-curvature="0"
   id="path6439"
   d="m 226.45,710.27 0.04,0.26 0.68,2.71 c 0.09,0.34 0.11,0.37 0.54,0.37 h 0.95 c 0.83,0 1.36,-0.27 1.36,-0.95 0,-0.39 -0.2,-1.25 -0.59,-1.6 -0.5,-0.45 -1.09,-0.53 -1.53,-0.53 h -1.41 l -0.04,-0.26 h 1.7 c 1.41,0 2.8,1.03 2.8,2.15 0,0.77 -0.66,1.5 -1.97,1.5 h -3.22 c -0.19,0 -0.3,0 -0.3,-0.19 0,-0.12 0.08,-0.12 0.28,-0.12 0.13,0 0.31,-0.01 0.43,-0.02 0.16,-0.02 0.22,-0.05 0.22,-0.16 0,-0.03 -0.01,-0.07 -0.04,-0.18 l -1.33,-5.35 c -0.1,-0.39 -0.12,-0.47 -0.91,-0.47 -0.17,0 -0.28,0 -0.28,-0.19 0,-0.12 0.12,-0.12 0.15,-0.12 0.28,0 0.99,0.04 1.27,0.04 0.21,0 0.43,-0.01 0.63,-0.01 0.22,0 0.44,-0.03 0.65,-0.03 0.07,0 0.2,0 0.2,0.2 0,0.11 -0.09,0.11 -0.28,0.11 -0.37,0 -0.65,0 -0.65,0.18 0,0.06 0.02,0.11 0.03,0.17 z" />
</g>    <g
       id="g6559"
       transform="matrix(4,0,0,-4,-610.56639,3411.3782)"
       xml:space="preserve"
       stroke-miterlimit="10.433"
       font-style="normal"
       font-variant="normal"
       font-weight="normal"
       font-stretch="normal"
       font-size-adjust="none"
       letter-spacing="normal"
       word-spacing="normal"
       ns0:text="$\\hat{n}$"
       ns0:preamble=""
       style="font-style:normal;font-variant:normal;font-weight:normal;font-stretch:normal;letter-spacing:normal;word-spacing:normal;text-anchor:start;fill:none;stroke:#000000;stroke-linecap:butt;stroke-linejoin:miter;stroke-miterlimit:10.43299961;stroke-opacity:1;stroke-dasharray:none;stroke-dashoffset:0">
<polygon
   style="fill:#000000;stroke-width:0"
   points="225.09,712.68 225.27,712.5 226.42,713.52 227.57,712.5 227.75,712.68 226.42,714.03 "
   id="polygon6561" />
<path
   style="fill:#000000;stroke-width:0"
   inkscape:connector-curvature="0"
   d="m 224.31,707.71 0,-0.01 -0.01,-0.02 0,-0.01 0,-0.02 -0.01,-0.03 -0.01,-0.03 0,-0.03 -0.01,-0.04 -0.01,-0.03 -0.01,-0.03 0,-0.01 0,-0.02 -0.01,-0.01 0,-0.02 0,-0.01 -0.01,-0.01 0,-0.02 0,-0.01 0,-0.01 0,-0.01 -0.01,-0.01 0,-0.01 0,-0.01 0,0 0,-0.01 0,-0.01 c 0,-0.18 0.14,-0.26 0.29,-0.26 0.12,0 0.3,0.07 0.37,0.27 0.01,0.02 0.13,0.49 0.19,0.74 l 0.22,0.9 c 0.06,0.22 0.12,0.43 0.17,0.66 0.03,0.17 0.11,0.46 0.13,0.5 0.15,0.31 0.67,1.21 1.62,1.21 0.45,0 0.54,-0.36 0.54,-0.69 0,-0.62 -0.49,-1.89 -0.65,-2.32 -0.09,-0.23 -0.1,-0.35 -0.1,-0.46 0,-0.47 0.35,-0.81 0.82,-0.81 0.94,0 1.3,1.45 1.3,1.53 0,0.1 -0.09,0.1 -0.12,0.1 -0.1,0 -0.1,-0.03 -0.15,-0.18 -0.2,-0.68 -0.52,-1.24 -1.01,-1.24 -0.17,0 -0.24,0.1 -0.24,0.33 0,0.25 0.09,0.49 0.18,0.71 0.19,0.53 0.61,1.62 0.61,2.19 0,0.67 -0.43,1.06 -1.15,1.06 -0.9,0 -1.39,-0.63 -1.56,-0.86 -0.05,0.56 -0.45,0.86 -0.91,0.86 -0.46,0 -0.65,-0.38 -0.75,-0.56 -0.16,-0.34 -0.3,-0.93 -0.3,-0.97 0,-0.1 0.1,-0.1 0.12,-0.1 0.1,0 0.11,0.01 0.17,0.23 0.17,0.71 0.37,1.18 0.73,1.18 0.2,0 0.31,-0.12 0.31,-0.45 0,-0.21 -0.03,-0.32 -0.16,-0.84 z"
   id="path6563" />
</g>    <g
       style="font-style:normal;font-variant:normal;font-weight:normal;font-stretch:normal;letter-spacing:normal;word-spacing:normal;text-anchor:start;fill:none;stroke:#000000;stroke-linecap:butt;stroke-linejoin:miter;stroke-miterlimit:10.43299961;stroke-opacity:1;stroke-dasharray:none;stroke-dashoffset:0"
       ns0:preamble=""
       ns0:text="$\\theta$"
       word-spacing="normal"
       letter-spacing="normal"
       font-size-adjust="none"
       font-stretch="normal"
       font-weight="normal"
       font-variant="normal"
       font-style="normal"
       stroke-miterlimit="10.433"
       xml:space="preserve"
       transform="matrix(4,0,0,-4,-524.33899,3443.9313)"
       id="g6675">
<path
   id="path6677"
   d="m 227.97,712.1 0,0.06 0,0.07 -0.01,0.07 0,0.08 -0.01,0.07 -0.01,0.08 0,0.08 -0.02,0.09 -0.01,0.08 -0.01,0.09 -0.02,0.08 -0.02,0.09 -0.03,0.08 -0.02,0.08 -0.03,0.09 -0.03,0.08 -0.03,0.08 -0.04,0.07 -0.04,0.08 -0.04,0.07 -0.05,0.07 -0.05,0.06 -0.05,0.06 -0.06,0.05 -0.06,0.05 -0.04,0.03 -0.03,0.02 -0.04,0.02 -0.03,0.02 -0.04,0.01 -0.04,0.02 -0.03,0.01 -0.04,0.02 -0.05,0.01 -0.04,0.01 -0.04,0 -0.05,0.01 -0.04,0 -0.05,0 -0.01,-0.22 c 0.49,0 0.55,-0.63 0.55,-1.2 0,-0.49 -0.08,-1 -0.32,-1.98 h -2.08 c 0.17,0.64 0.37,1.43 0.77,2.14 0.26,0.48 0.63,1.04 1.08,1.04 l 0.01,0.22 c -1.38,0 -2.92,-2.8 -2.92,-5.08 0,-0.94 0.29,-2.04 1.2,-2.04 v 0.21 c -0.33,0 -0.54,0.29 -0.54,1.22 0,0.42 0.06,0.99 0.32,1.97 h 2.07 c -0.11,-0.46 -0.32,-1.3 -0.7,-2.02 -0.35,-0.68 -0.72,-1.17 -1.15,-1.17 v -0.21 c 1.4,0 2.92,2.85 2.92,5.08 z"
   inkscape:connector-curvature="0"
   style="fill:#000000;stroke-width:0" />
</g>    <circle
       id="circle38"
       r="8.6169996"
       cy="52"
       cx="380.42999"
       sodipodi:cx="380.42999"
       sodipodi:cy="52"
       sodipodi:rx="8.6169996"
       sodipodi:ry="8.6169996"
       transform="matrix(0.81,0,0,0.81,487.37033,225.42655)"
       style="fill:#ff0000" />
    <circle
       id="circle38-5"
       r="8.6169996"
       cy="52"
       cx="380.42999"
       sodipodi:cx="380.42999"
       sodipodi:cy="52"
       sodipodi:rx="8.6169996"
       sodipodi:ry="8.6169996"
       transform="matrix(0.81,0,0,0.81,-62.947491,601.82282)"
       style="fill:#ff0000" />
    <g
       style="font-style:normal;font-variant:normal;font-weight:normal;font-stretch:normal;letter-spacing:normal;word-spacing:normal;text-anchor:start;fill:none;stroke:#000000;stroke-linecap:butt;stroke-linejoin:miter;stroke-miterlimit:10.43299961;stroke-opacity:1;stroke-dasharray:none;stroke-dashoffset:0"
       ns0:preamble=""
       ns0:text="$\\vec{a}\\parallel\\vec{v}$"
       word-spacing="normal"
       letter-spacing="normal"
       font-size-adjust="none"
       font-stretch="normal"
       font-weight="normal"
       font-variant="normal"
       font-style="normal"
       stroke-miterlimit="10.433"
       xml:space="preserve"
       transform="matrix(4,0,0,-4,-592.25522,3518.1241)"
       id="content">
<path
   id="path3089"
   d="m 228.16,713.05 -0.01,-0.02 -0.02,-0.01 -0.01,-0.01 -0.02,-0.02 -0.02,-0.01 -0.01,-0.02 -0.02,-0.02 -0.02,-0.01 -0.02,-0.02 -0.02,-0.02 -0.04,-0.04 -0.04,-0.04 -0.04,-0.04 -0.01,-0.02 -0.02,-0.02 -0.02,-0.02 -0.02,-0.02 -0.01,-0.02 -0.02,-0.02 -0.01,-0.02 -0.01,-0.02 -0.02,-0.02 -0.01,-0.02 0,-0.02 -0.01,-0.02 -0.01,-0.02 0,-0.02 -0.01,-0.01 0,-0.02 c 0,-0.1 0.1,-0.2 0.2,-0.2 0.09,0 0.14,0.07 0.19,0.13 0.12,0.15 0.35,0.43 0.79,0.65 0.07,0.04 0.17,0.09 0.17,0.21 0,0.09 -0.07,0.15 -0.14,0.2 -0.22,0.14 -0.33,0.32 -0.41,0.56 -0.02,0.09 -0.06,0.22 -0.2,0.22 -0.14,0 -0.2,-0.13 -0.2,-0.21 0,-0.05 0.08,-0.37 0.24,-0.57 h -3.36 c -0.17,0 -0.35,0 -0.35,-0.2 0,-0.2 0.18,-0.2 0.35,-0.2 z"
   inkscape:connector-curvature="0"
   style="fill:#000000;stroke-width:0" />
<path
   id="path3091"
   d="m 227.15,710.89 -0.01,0.03 -0.02,0.03 -0.02,0.04 -0.02,0.03 -0.02,0.03 -0.02,0.03 -0.02,0.03 -0.02,0.03 -0.02,0.03 -0.03,0.03 -0.02,0.02 -0.03,0.03 -0.02,0.03 -0.03,0.02 -0.03,0.02 -0.02,0.02 -0.03,0.02 -0.03,0.02 -0.03,0.02 -0.03,0.02 -0.04,0.02 -0.03,0.01 -0.03,0.01 -0.04,0.02 -0.03,0.01 -0.04,0.01 -0.03,0 -0.04,0.01 -0.04,0.01 -0.04,0 -0.04,0 -0.04,0 c -1.17,0 -2.41,-1.46 -2.41,-2.91 0,-0.94 0.55,-1.59 1.33,-1.59 l 0.02,0.21 c -0.5,0 -0.64,0.55 -0.64,0.94 0,0.5 0.32,1.72 0.55,2.18 0.31,0.59 0.76,0.95 1.16,0.95 0.65,0 0.78,-0.81 0.78,-0.87 0,-0.06 -0.02,-0.12 -0.03,-0.17 l -0.49,-1.95 c -0.05,-0.18 -0.05,-0.2 -0.2,-0.37 -0.44,-0.55 -0.85,-0.71 -1.13,-0.71 l -0.02,-0.21 c 0.2,0 0.7,0.03 1.3,0.74 0.08,-0.42 0.42,-0.74 0.9,-0.74 0.35,0 0.58,0.22 0.74,0.54 0.17,0.36 0.3,0.97 0.3,0.99 0,0.1 -0.09,0.1 -0.12,0.1 -0.1,0 -0.11,-0.04 -0.14,-0.18 -0.17,-0.65 -0.35,-1.24 -0.76,-1.24 -0.27,0 -0.3,0.26 -0.3,0.46 0,0.22 0.02,0.3 0.13,0.74 0.11,0.42 0.13,0.52 0.22,0.89 l 0.36,1.4 c 0.07,0.28 0.07,0.3 0.07,0.34 0,0.16 -0.12,0.27 -0.29,0.27 -0.24,0 -0.39,-0.22 -0.42,-0.44 z"
   inkscape:connector-curvature="0"
   style="fill:#000000;stroke-width:0" />
<path
   id="path3093"
   d="m 233.18,714.25 0,0.03 0,0.03 0,0.03 0,0.02 0,0.01 0,0.02 -0.01,0.01 0,0.01 0,0.02 0,0.01 -0.01,0.01 0,0.02 0,0.01 -0.01,0.01 0,0.01 -0.01,0.01 -0.01,0.01 -0.01,0.01 0,0.01 -0.01,0.01 -0.01,0.01 -0.01,0 0,0.01 -0.01,0 -0.01,0 0,0 -0.01,0.01 -0.01,0 0,0 -0.01,0 -0.01,0 -0.01,0.01 0,0 -0.01,0 -0.01,0 -0.01,0 -0.01,0 c -0.2,0 -0.2,-0.22 -0.2,-0.37 v -9.21 c 0,-0.16 0,-0.37 0.2,-0.37 0.2,0 0.2,0.18 0.2,0.33 z"
   inkscape:connector-curvature="0"
   style="fill:#000000;stroke-width:0" />
<path
   id="path3095"
   d="m 235.12,714.22 0,0.03 0,0.03 0,0.03 0,0.04 0,0.01 0,0.02 0,0.01 -0.01,0.02 0,0.01 0,0.02 -0.01,0.01 0,0.01 -0.01,0.02 0,0.01 -0.01,0.01 0,0.01 -0.01,0.02 -0.01,0.01 -0.01,0.01 -0.01,0 -0.01,0.01 0,0 -0.01,0.01 0,0 -0.01,0 -0.01,0 0,0.01 -0.01,0 -0.01,0 0,0 -0.01,0.01 -0.01,0 -0.01,0 -0.01,0 -0.01,0 0,0 c -0.2,0 -0.2,-0.18 -0.2,-0.34 v -9.28 c 0,-0.15 0,-0.33 0.2,-0.33 0.19,0 0.19,0.22 0.19,0.37 z"
   inkscape:connector-curvature="0"
   style="fill:#000000;stroke-width:0" />
<path
   id="path3097"
   d="m 244.18,713.05 -0.01,-0.02 -0.02,-0.01 -0.01,-0.01 -0.02,-0.02 -0.02,-0.01 -0.02,-0.02 -0.01,-0.02 -0.02,-0.01 -0.02,-0.02 -0.02,-0.02 -0.04,-0.04 -0.04,-0.04 -0.04,-0.04 -0.02,-0.02 -0.01,-0.02 -0.02,-0.02 -0.02,-0.02 -0.01,-0.02 -0.02,-0.02 -0.01,-0.02 -0.02,-0.02 -0.01,-0.02 -0.01,-0.02 -0.01,-0.02 0,-0.02 -0.01,-0.02 -0.01,-0.02 0,-0.01 0,-0.02 c 0,-0.1 0.1,-0.2 0.2,-0.2 0.09,0 0.14,0.07 0.19,0.13 0.12,0.15 0.35,0.43 0.79,0.65 0.07,0.04 0.17,0.09 0.17,0.21 0,0.09 -0.07,0.15 -0.14,0.2 -0.22,0.14 -0.33,0.32 -0.41,0.56 -0.02,0.09 -0.06,0.22 -0.2,0.22 -0.14,0 -0.2,-0.13 -0.2,-0.21 0,-0.05 0.08,-0.37 0.24,-0.57 h -3.36 c -0.17,0 -0.35,0 -0.35,-0.2 0,-0.2 0.18,-0.2 0.35,-0.2 z"
   inkscape:connector-curvature="0"
   style="fill:#000000;stroke-width:0" />
<path
   id="path3099"
   d="m 243.88,710.83 0,0.02 0,0.03 0,0.02 0,0.02 0,0.03 -0.01,0.02 0,0.02 0,0.02 -0.01,0.04 0,0.04 -0.01,0.04 -0.01,0.03 -0.01,0.04 -0.01,0.03 -0.02,0.03 -0.01,0.02 -0.01,0.03 -0.02,0.02 -0.01,0.03 -0.02,0.02 -0.02,0.02 -0.01,0.01 -0.02,0.02 -0.02,0.02 -0.02,0.01 -0.02,0.01 -0.01,0.01 -0.02,0.01 -0.02,0.01 -0.02,0.01 -0.02,0 -0.02,0.01 -0.02,0 -0.01,0 -0.02,0 -0.02,0 c -0.25,0 -0.49,-0.25 -0.49,-0.47 0,-0.13 0.05,-0.19 0.16,-0.3 0.21,-0.2 0.34,-0.46 0.34,-0.82 0,-0.42 -0.61,-2.7 -1.77,-2.7 -0.51,0 -0.74,0.35 -0.74,0.87 0,0.56 0.27,1.28 0.58,2.11 0.07,0.17 0.12,0.31 0.12,0.5 0,0.45 -0.32,0.81 -0.82,0.81 -0.94,0 -1.31,-1.44 -1.31,-1.53 0,-0.1 0.09,-0.1 0.11,-0.1 0.1,0 0.11,0.02 0.16,0.18 0.29,1.01 0.72,1.23 1.01,1.23 0.08,0 0.25,0 0.25,-0.31 0,-0.25 -0.1,-0.52 -0.17,-0.7 -0.44,-1.15 -0.57,-1.61 -0.57,-2.04 0,-1.08 0.88,-1.23 1.34,-1.23 1.67,0 2.24,3.29 2.24,3.81 z"
   inkscape:connector-curvature="0"
   style="fill:#000000;stroke-width:0" />
</g>  </g>
</svg>
