<?xml version="1.0" encoding="UTF-8" standalone="no"?>
<svg
   xmlns:ns0="http://www.iki.fi/pav/software/textext/"
   xmlns:dc="http://purl.org/dc/elements/1.1/"
   xmlns:cc="http://creativecommons.org/ns#"
   xmlns:rdf="http://www.w3.org/1999/02/22-rdf-syntax-ns#"
   xmlns:svg="http://www.w3.org/2000/svg"
   xmlns="http://www.w3.org/2000/svg"
   xmlns:xlink="http://www.w3.org/1999/xlink"
   xmlns:sodipodi="http://sodipodi.sourceforge.net/DTD/sodipodi-0.dtd"
   xmlns:inkscape="http://www.inkscape.org/namespaces/inkscape"
   version="1.1"
   width="600"
   height="600"
   id="svg2"
   inkscape:version="0.48.3.1 r9886"
   sodipodi:docname="fig-campo-magnetico-espira.svg">
  <metadata
     id="metadata147">
    <rdf:RDF>
      <cc:Work
         rdf:about="">
        <dc:format>image/svg+xml</dc:format>
        <dc:type
           rdf:resource="http://purl.org/dc/dcmitype/StillImage" />
        <dc:title>VFPt_dipole_magnetic3</dc:title>
      </cc:Work>
    </rdf:RDF>
  </metadata>
  <sodipodi:namedview
     pagecolor="#ffffff"
     bordercolor="#666666"
     borderopacity="1"
     objecttolerance="10"
     gridtolerance="10"
     guidetolerance="10"
     inkscape:pageopacity="0"
     inkscape:pageshadow="2"
     inkscape:window-width="1440"
     inkscape:window-height="850"
     id="namedview145"
     showgrid="false"
     inkscape:zoom="1.0466667"
     inkscape:cx="300"
     inkscape:cy="300"
     inkscape:window-x="0"
     inkscape:window-y="0"
     inkscape:window-maximized="1"
     inkscape:current-layer="fieldlines" />
  <title
     id="title4">VFPt_dipole_magnetic3</title>
  <desc
     id="desc6">VFPt_dipole_magnetic3
created with VectorFieldPlot 1.1
http://commons.wikimedia.org/wiki/User:Geek3/VectorFieldPlot

about: http://commons.wikimedia.org/wiki/File:VFPt_dipole_magnetic3.svg
rights: GNU Free Documentation license,
        Creative Commons Attribution ShareAlike license
  </desc>
  <defs
     id="defs8">
    <path
       id="arrow1"
       stroke="none"
       fill="#000000"
       transform="scale(0.01)"
       d="M 0.3,0 L -2.2,2.25 L 3.8,0 L -2.2,-2.25 L 0.3,0 Z" />
  </defs>
  <rect
     id="background"
     x="-600"
     y="0"
     width="600"
     height="600"
     transform="matrix(0,-1,1,0,0,0)"
     style="fill:#ffffff" />
  <g
     id="image"
     transform="matrix(0,-100,-100,0,300,300)">
    <g
       id="fieldlines"
       style="fill:none;stroke:#000000;stroke-width:0.024;stroke-linecap:round;stroke-linejoin:round">
      <g
         id="fieldline1"
         style="stroke:#000080">
        <path
           d="M 0,-0.3727 0.0213,-0.374 0.0424,-0.3777 0.063,-0.384 0.083,-0.3926 0.1021,-0.4037 0.12,-0.417 0.1367,-0.4325 0.1517,-0.4499 0.165,-0.4692 0.1762,-0.49 0.1854,-0.5121 0.1922,-0.5353 0.1966,-0.5591 0.1985,-0.5834 0.1979,-0.6077 0.1948,-0.6317 0.1892,-0.6552 0.1813,-0.6777 0.1712,-0.699 0.159,-0.719 0.1449,-0.7372 0.1291,-0.7536 0.1118,-0.7679 0.0932,-0.78 0.0736,-0.7899 0.0531,-0.7973 l -0.021,-0.005 -0.0213,-0.0025 -0.0215,0 -0.0214,0.0025 -0.021,0.005 -0.0205,0.0074 -0.0196,0.0099 -0.0186,0.0121 -0.0173,0.0143 -0.0158,0.0164 -0.0141,0.0182 -0.0122,0.0199 -0.0101,0.0214 -0.0079,0.0225 -0.0056,0.0235 -0.0031,0.024 -6e-4,0.0243 0.0019,0.0243 0.0044,0.0238 0.0068,0.0232 0.0092,0.0221 0.0112,0.0208 0.0133,0.0193 0.015,0.0174 0.0166,0.0155 0.018,0.0133 0.0191,0.0111 0.02,0.0086 0.0206,0.0063 0.0211,0.0037 L 0,-0.3727 z"
           id="path15"
           inkscape:connector-curvature="0"
           style="stroke:#000080" />
        <g
           id="arrows1"
           style="stroke:#000080">
          <use
             xlink:href="#arrow1"
             transform="matrix(-2.6221314,0.30663784,-0.30663784,-2.6221314,5e-4,-0.8002)"
             id="use18"
             x="0"
             y="0"
             width="600"
             height="600"
             style="stroke:#000080" />
        </g>
      </g>
      <g
         id="fieldline2"
         style="stroke:#000080">
        <path
           d="M 0,-0.3285 0.0262,-0.3298 0.0522,-0.3336 0.0779,-0.3399 0.1032,-0.3488 0.128,-0.3602 0.1519,-0.374 0.175,-0.3903 0.1969,-0.4089 0.2175,-0.4298 0.2365,-0.4527 0.2539,-0.4776 0.2693,-0.5043 0.2827,-0.5325 0.2939,-0.5619 0.3027,-0.5925 0.3091,-0.6237 0.3131,-0.6555 0.3144,-0.6874 0.3133,-0.7193 0.3096,-0.7508 0.3035,-0.7816 0.2949,-0.8116 0.284,-0.8405 0.271,-0.868 0.2559,-0.894 0.2388,-0.9183 0.22,-0.9406 0.1996,-0.961 0.1778,-0.9793 0.1547,-0.9953 0.1306,-1.0089 0.1055,-1.0202 0.0798,-1.029 0.0535,-1.0353 0.0268,-1.0392 0,-1.0404 l -0.0268,0.0012 -0.0267,0.0039 -0.0263,0.0063 -0.0257,0.0088 -0.0251,0.0113 -0.0241,0.0136 -0.0231,0.016 -0.0218,0.0183 -0.0204,0.0204 -0.0188,0.0223 -0.0171,0.0243 -0.0151,0.026 -0.013,0.0275 -0.0109,0.0289 -0.0086,0.03 -0.0061,0.0308 -0.0037,0.0315 -0.0011,0.0319 0.0013,0.0319 0.004,0.0318 0.0064,0.0312 0.0088,0.0306 0.0112,0.0294 0.0134,0.0282 0.0154,0.0267 0.0174,0.0249 0.019,0.0229 0.0206,0.0209 0.0219,0.0186 0.0231,0.0163 0.0239,0.0138 0.0248,0.0114 0.0253,0.0089 0.0257,0.0063 0.026,0.0038 L 0,-0.3285 z"
           id="path21"
           inkscape:connector-curvature="0"
           style="stroke:#000080" />
        <g
           id="arrows2"
           style="stroke:#000080">
          <use
             xlink:href="#arrow1"
             transform="matrix(-2.6319339,0.20621331,-0.20621331,-2.6319339,2e-4,-1.0373)"
             id="use24"
             x="0"
             y="0"
             width="600"
             height="600"
             style="stroke:#000080" />
        </g>
      </g>
      <g
         id="fieldline3"
         style="stroke:#000080">
        <path
           d="m 0,-0.2729 0.0322,-0.0013 0.0322,-0.0038 0.032,-0.0063 0.032,-0.0089 0.0317,-0.0115 0.0314,-0.0141 0.031,-0.0167 0.0304,-0.0193 0.0298,-0.0219 0.0288,-0.0244 0.0278,-0.0269 0.0266,-0.0292 0.0252,-0.0315 0.0235,-0.0335 0.0218,-0.0355 0.0199,-0.0371 0.0178,-0.0387 0.0157,-0.04 0.0133,-0.0411 0.0109,-0.042 0.0085,-0.0425 0.006,-0.043 L 0.532,-0.8853 0.533,-0.9284 0.5314,-0.9713 0.5274,-1.0137 0.5208,-1.0555 0.5119,-1.0964 0.5006,-1.1363 0.4871,-1.175 0.4713,-1.2123 0.4535,-1.2481 0.4337,-1.2823 0.412,-1.3147 0.3886,-1.3452 0.3635,-1.3738 0.3369,-1.4002 0.309,-1.4245 0.2798,-1.4465 0.2495,-1.4662 0.2182,-1.4836 0.1861,-1.4985 0.1532,-1.511 0.1198,-1.5211 0.0859,-1.5286 0.0516,-1.5337 0.0172,-1.5362 l -0.0344,0 -0.0344,0.0025 -0.0343,0.0051 -0.0339,0.0075 -0.0334,0.0101 -0.0329,0.0125 -0.0321,0.0149 -0.0313,0.0174 -0.0303,0.0197 -0.0292,0.022 -0.0279,0.0243 -0.0266,0.0264 -0.0251,0.0286 -0.0234,0.0305 -0.0217,0.0324 -0.0198,0.0341 -0.0178,0.0359 -0.0158,0.0373 -0.0135,0.0387 -0.0113,0.0399 -0.0089,0.0409 -0.0066,0.0418 -0.004,0.0424 -0.0016,0.0429 0.001,0.0431 0.0035,0.0432 0.006,0.043 0.0085,0.0425 0.0109,0.042 0.0133,0.0411 0.0157,0.04 0.0178,0.0386 0.0199,0.0372 0.0218,0.0355 0.0235,0.0335 0.0252,0.0315 0.0266,0.0292 0.0278,0.0269 0.0288,0.0244 0.0298,0.0219 0.0304,0.0193 0.031,0.0167 0.0314,0.0141 0.0317,0.0115 0.032,0.0089 0.032,0.0063 0.0322,0.0038 L 0,-0.2729 z"
           id="path27"
           inkscape:connector-curvature="0"
           style="stroke:#000080" />
        <g
           id="arrows3"
           style="stroke:#000080">
          <use
             xlink:href="#arrow1"
             transform="matrix(-0.03639943,-2.6397491,2.6397491,-0.03639943,0.5317,-0.9104)"
             id="use30"
             x="0"
             y="0"
             width="600"
             height="600"
             style="stroke:#000080" />
          <use
             xlink:href="#arrow1"
             transform="matrix(0.11745678,2.6373858,-2.6373858,0.11745678,-0.5316,-0.9105)"
             id="use32"
             x="0"
             y="0"
             width="600"
             height="600"
             style="stroke:#000080" />
        </g>
      </g>
      <g
         id="fieldline4"
         style="stroke:#000080">
        <path
           d="M 0,-0.2058 0.041,-0.2071 0.0822,-0.2109 0.1236,-0.2174 0.1652,-0.2265 0.2071,-0.2383 0.2494,-0.253 0.292,-0.2705 0.3348,-0.2909 0.3778,-0.3142 0.4208,-0.3405 0.4637,-0.3698 0.5062,-0.402 0.5483,-0.4371 0.5896,-0.475 0.6301,-0.5155 0.6694,-0.5586 0.7075,-0.6041 0.7441,-0.652 0.7792,-0.7019 0.8124,-0.7539 0.8438,-0.8076 0.8732,-0.863 0.9004,-0.9199 0.9254,-0.9781 0.9481,-1.0374 0.9685,-1.0978 0.9864,-1.1589 1.0019,-1.2207 1.0148,-1.283 1.0252,-1.3456 1.0331,-1.4083 1.0383,-1.4711 1.041,-1.5338 1.0411,-1.5961 1.0387,-1.6581 1.0337,-1.7194 1.0263,-1.7801 1.0163,-1.8399 1.004,-1.8987 0.9892,-1.9564 0.9722,-2.0129 0.9529,-2.0681 0.9314,-2.1219 0.9078,-2.1741 0.8821,-2.2246 0.8544,-2.2734 0.8249,-2.3204 0.7935,-2.3655 0.7604,-2.4086 0.7257,-2.4497 0.6895,-2.4886 0.6518,-2.5254 0.6127,-2.5599 0.5724,-2.5922 0.5308,-2.6221 0.4883,-2.6496 0.4447,-2.6748 0.4003,-2.6975 0.355,-2.7178 0.3091,-2.7355 0.2625,-2.7508 0.2155,-2.7636 0.168,-2.7738 0.1203,-2.7814 0.0722,-2.7866 0.0241,-2.7891 l -0.0482,0 -0.0482,0.0025 -0.048,0.0052 -0.0478,0.0076 -0.0474,0.0102 -0.0471,0.0128 -0.0465,0.0153 -0.0459,0.0177 -0.0453,0.0203 -0.0444,0.0227 -0.0436,0.0252 -0.0426,0.0275 -0.0415,0.0299 -0.0403,0.0323 -0.0391,0.0345 -0.0377,0.0368 -0.0362,0.0389 -0.0348,0.0411 -0.033,0.0431 -0.0314,0.0451 -0.0295,0.047 -0.0277,0.0488 -0.0257,0.0506 -0.0236,0.0522 -0.0215,0.0537 -0.0193,0.0552 -0.017,0.0565 -0.0148,0.0577 -0.0123,0.0589 -0.01,0.0598 -0.0074,0.0606 -0.005,0.0614 -0.0024,0.0619 10e-5,0.0624 0.0027,0.0626 0.0052,0.0628 0.0079,0.0628 0.0104,0.0626 0.0129,0.0622 0.0155,0.0618 0.0179,0.0612 0.0204,0.0603 0.0227,0.0593 0.025,0.0582 0.0273,0.0569 0.0293,0.0554 0.0314,0.0538 0.0333,0.0519 0.035,0.05 0.0366,0.0478 0.0381,0.0455 0.0393,0.0431 0.0405,0.0406 0.0413,0.0378 0.0421,0.0351 0.0425,0.0322 0.0429,0.0293 0.043,0.0263 0.043,0.0233 0.0428,0.0204 0.0426,0.0175 0.0423,0.0147 0.0419,0.0118 0.0417,0.0091 0.0413,0.0065 0.0411,0.0038 L 0,-0.2058 z"
           id="path35"
           inkscape:connector-curvature="0"
           style="stroke:#000080" />
        <g
           id="arrows4"
           style="stroke:#000080">
          <use
             xlink:href="#arrow1"
             transform="matrix(1.5021402,-2.1709847,2.1709847,1.5021402,0.7528,-0.6653)"
             id="use38"
             x="0"
             y="0"
             width="600"
             height="600"
             style="stroke:#000080" />
          <use
             xlink:href="#arrow1"
             transform="matrix(-1.634408,-2.0732367,2.0732367,-1.634408,0.7817,-2.3799)"
             id="use40"
             x="0"
             y="0"
             width="600"
             height="600"
             style="stroke:#000080" />
          <use
             xlink:href="#arrow1"
             transform="matrix(-1.5547337,2.1336361,-2.1336361,-1.5547337,-0.7817,-2.3799)"
             id="use42"
             x="0"
             y="0"
             width="600"
             height="600"
             style="stroke:#000080" />
          <use
             xlink:href="#arrow1"
             transform="matrix(1.565884,2.1254664,-2.1254664,1.565884,-0.7528,-0.6654)"
             id="use44"
             x="0"
             y="0"
             width="600"
             height="600"
             style="stroke:#000080" />
        </g>
      </g>
      <g
         id="fieldline5"
         style="stroke:#000080">
        <path
           d="m -2.7146,-3.012 0.0266,0.1034 0.029,0.1029 0.0315,0.1023 0.034,0.1016 0.0363,0.1008 0.0387,0.0999 0.041,0.0989 0.0434,0.0979 0.0455,0.0968 0.0478,0.0955 0.0499,0.0941 0.0521,0.0927 0.054,0.0912 0.056,0.0896 0.058,0.0879 0.0598,0.086 0.0615,0.0842 0.0632,0.0822 0.0647,0.0801 0.0663,0.078 0.0676,0.0756 0.0689,0.0734 0.07,0.0708 0.0711,0.0684 0.0719,0.0657 0.0727,0.0629 0.0732,0.0602 0.0737,0.0572 0.0739,0.0543 0.0739,0.0512 0.0738,0.048 0.0733,0.0448 0.0728,0.0415 0.0719,0.0381 0.0708,0.0348 0.0695,0.0313 0.068,0.028 0.0663,0.0246 0.0645,0.0212 0.0626,0.0181 0.0608,0.0149 0.0592,0.012 0.0576,0.0092 0.0565,0.0064 0.0556,0.0038 L 0,-0.1283 0.0552,-0.1296 0.1108,-0.1334 0.1673,-0.1398 0.2249,-0.149 0.2841,-0.161 0.3449,-0.1759 0.4075,-0.194 0.472,-0.2152 l 0.0663,-0.0246 0.068,-0.028 0.0695,-0.0313 0.0708,-0.0348 0.0719,-0.0381 0.0728,-0.0415 0.0733,-0.0448 0.0738,-0.048 0.0739,-0.0512 0.0739,-0.0543 0.0737,-0.0572 0.0732,-0.0602 0.0727,-0.063 0.0719,-0.0657 0.0711,-0.0683 0.07,-0.0708 0.0689,-0.0734 0.0676,-0.0756 0.0663,-0.078 0.0647,-0.0801 0.0632,-0.0822 0.0616,-0.0842 0.0597,-0.086 0.058,-0.0879 0.056,-0.0896 0.0541,-0.0912 0.052,-0.0927 0.0499,-0.0942 0.0478,-0.0954 0.0456,-0.0968 0.0433,-0.0979 0.041,-0.0989 0.0387,-0.0999 0.0363,-0.1008 0.034,-0.1016 0.0315,-0.1023 0.029,-0.1029 0.0266,-0.1034"
           id="path47"
           inkscape:connector-curvature="0"
           style="stroke:#000080" />
        <g
           id="arrows5"
           style="stroke:#000080">
          <use
             xlink:href="#arrow1"
             transform="matrix(1.2104254,2.3461608,-2.3461608,1.2104254,-2.3492,-2.0296)"
             id="use50"
             x="0"
             y="0"
             width="600"
             height="600"
             style="stroke:#000080" />
          <use
             xlink:href="#arrow1"
             transform="matrix(2.2346862,1.4056235,-1.4056235,2.2346862,-0.9794,-0.4684)"
             id="use52"
             x="0"
             y="0"
             width="600"
             height="600"
             style="stroke:#000080" />
          <use
             xlink:href="#arrow1"
             transform="matrix(2.2155948,-1.4355277,1.4355277,2.2155948,0.9795,-0.4682)"
             id="use54"
             x="0"
             y="0"
             width="600"
             height="600"
             style="stroke:#000080" />
          <use
             xlink:href="#arrow1"
             transform="matrix(1.1849671,-2.3591212,2.3591212,1.1849671,2.3494,-2.0295)"
             id="use56"
             x="0"
             y="0"
             width="600"
             height="600"
             style="stroke:#000080" />
        </g>
      </g>
      <g
         id="fieldline6"
         style="stroke:#000080">
        <path
           d="m -3.012,-0.6833 0.1949,0.065 0.1921,0.0616 0.1892,0.0582 0.186,0.0547 0.1825,0.0513 0.1787,0.0477 0.1747,0.0443 0.1701,0.0406 0.1652,0.0371 0.1597,0.0335 0.1538,0.0299 0.1473,0.0262 0.1402,0.0226 0.1324,0.019 0.1245,0.0155 0.1163,0.0122 0.1089,0.0092 0.1024,0.0062 0.0978,0.0037 0.0953,0.0012 0.0953,-0.0012 0.0978,-0.0037 0.1024,-0.0062 0.1089,-0.0092 0.1164,-0.0122 0.1244,-0.0155 0.1325,-0.019 0.1401,-0.0226 0.1473,-0.0262 0.1538,-0.0299 0.1597,-0.0335 0.1652,-0.037 0.1701,-0.0407 0.1746,-0.0442 0.1788,-0.0478 0.1825,-0.0513 0.186,-0.0547 0.1892,-0.0582 0.1921,-0.0616 0.1949,-0.065"
           id="path59"
           inkscape:connector-curvature="0"
           style="stroke:#000080" />
        <g
           id="arrows6"
           style="stroke:#000080">
          <use
             xlink:href="#arrow1"
             transform="matrix(2.5367124,0.73122525,-0.73122525,2.5367124,-2.275,-0.4513)"
             id="use62"
             x="0"
             y="0"
             width="600"
             height="600"
             style="stroke:#000080" />
          <use
             xlink:href="#arrow1"
             transform="matrix(2.6120145,0.38337993,-0.38337993,2.6120145,-0.7691,-0.1096)"
             id="use64"
             x="0"
             y="0"
             width="600"
             height="600"
             style="stroke:#000080" />
          <use
             xlink:href="#arrow1"
             transform="matrix(2.6089229,-0.40388261,0.40388261,2.6089229,0.7691,-0.1097)"
             id="use66"
             x="0"
             y="0"
             width="600"
             height="600"
             style="stroke:#000080" />
          <use
             xlink:href="#arrow1"
             transform="matrix(2.5325889,-0.74538145,0.74538145,2.5325889,2.2751,-0.4512)"
             id="use68"
             x="0"
             y="0"
             width="600"
             height="600"
             style="stroke:#000080" />
        </g>
      </g>
      <g
         id="fieldline7"
         style="stroke:#000080">
        <path
           d="M -3.012,0.6833 -2.8171,0.6183 -2.625,0.5567 -2.4358,0.4985 -2.2498,0.4438 -2.0673,0.3925 -1.8886,0.3448 -1.7139,0.3005 -1.5438,0.2599 -1.3786,0.2228 -1.2189,0.1893 -1.0651,0.1594 -0.9178,0.1332 -0.7776,0.1106 -0.6452,0.0916 -0.5207,0.0761 -0.4044,0.0639 -0.2955,0.0547 -0.1931,0.0485 -0.0953,0.0448 0,0.0436 l 0.0953,0.0012 0.0978,0.0037 0.1024,0.0062 0.1089,0.0092 0.1164,0.0122 0.1244,0.0155 0.1325,0.019 0.1401,0.0226 0.1473,0.0262 0.1538,0.0299 0.1597,0.0335 0.1652,0.037 0.1701,0.0407 0.1746,0.0442 0.1788,0.0478 0.1825,0.0513 0.186,0.0547 0.1892,0.0582 0.1921,0.0616 0.1949,0.065"
           id="path71"
           inkscape:connector-curvature="0"
           style="stroke:#000080" />
        <g
           id="arrows7"
           style="stroke:#000080">
          <use
             xlink:href="#arrow1"
             transform="matrix(2.5367124,-0.73122525,0.73122525,2.5367124,-2.275,0.4513)"
             id="use74"
             x="0"
             y="0"
             width="600"
             height="600"
             style="stroke:#000080" />
          <use
             xlink:href="#arrow1"
             transform="matrix(2.6120145,-0.38337993,0.38337993,2.6120145,-0.7691,0.1096)"
             id="use76"
             x="0"
             y="0"
             width="600"
             height="600"
             style="stroke:#000080" />
          <use
             xlink:href="#arrow1"
             transform="matrix(2.6089229,0.40388261,-0.40388261,2.6089229,0.7691,0.1097)"
             id="use78"
             x="0"
             y="0"
             width="600"
             height="600"
             style="stroke:#000080" />
          <use
             xlink:href="#arrow1"
             transform="matrix(2.5325889,0.74538145,-0.74538145,2.5325889,2.2751,0.4512)"
             id="use80"
             x="0"
             y="0"
             width="600"
             height="600"
             style="stroke:#000080" />
        </g>
      </g>
      <g
         id="fieldline8"
         style="stroke:#000080">
        <path
           d="M -2.7146,3.012 -2.688,2.9086 -2.659,2.8057 -2.6275,2.7034 -2.5935,2.6018 -2.5572,2.501 -2.5185,2.4011 -2.4775,2.3022 -2.4341,2.2043 -2.3886,2.1075 -2.3408,2.012 -2.2909,1.9179 -2.2388,1.8252 -2.1848,1.734 -2.1288,1.6444 -2.0708,1.5565 -2.011,1.4705 -1.9495,1.3863 -1.8863,1.3041 -1.8216,1.224 -1.7553,1.146 -1.6877,1.0704 -1.6188,0.997 -1.5488,0.9262 -1.4777,0.8578 -1.4058,0.7921 -1.3331,0.7292 -1.2599,0.669 -1.1862,0.6118 -1.1123,0.5575 -1.0384,0.5063 -0.9646,0.4583 -0.8913,0.4135 -0.8185,0.372 -0.7466,0.3339 -0.6758,0.2991 -0.6063,0.2678 -0.5383,0.2398 -0.472,0.2152 -0.4075,0.194 -0.3449,0.1759 -0.2841,0.161 -0.2249,0.149 -0.1673,0.1398 -0.1108,0.1334 -0.0552,0.1296 0,0.1283 0.0552,0.1296 0.1108,0.1334 0.1673,0.1398 0.2249,0.149 0.2841,0.161 0.3449,0.1759 0.4075,0.194 0.472,0.2152 l 0.0663,0.0246 0.068,0.028 0.0695,0.0313 0.0708,0.0348 0.0719,0.0381 0.0728,0.0415 0.0733,0.0448 0.0738,0.048 0.0739,0.0512 0.0739,0.0543 0.0737,0.0572 0.0732,0.0602 0.0727,0.063 0.0719,0.0657 0.0711,0.0683 0.07,0.0708 0.0689,0.0734 0.0676,0.0756 0.0663,0.078 0.0647,0.0801 0.0632,0.0822 0.0616,0.0842 0.0597,0.086 0.058,0.0879 0.056,0.0896 0.0541,0.0912 0.052,0.0927 0.0499,0.0942 0.0478,0.0954 0.0456,0.0968 0.0433,0.0979 0.041,0.0989 0.0387,0.0999 0.0363,0.1008 0.034,0.1016 0.0315,0.1023 0.029,0.1029 0.0266,0.1034"
           id="path83"
           inkscape:connector-curvature="0"
           style="stroke:#000080" />
        <g
           id="arrows8"
           style="stroke:#000080">
          <use
             xlink:href="#arrow1"
             transform="matrix(1.2104254,-2.3461608,2.3461608,1.2104254,-2.3492,2.0296)"
             id="use86"
             x="0"
             y="0"
             width="600"
             height="600"
             style="stroke:#000080" />
          <use
             xlink:href="#arrow1"
             transform="matrix(2.2346862,-1.4056235,1.4056235,2.2346862,-0.9794,0.4684)"
             id="use88"
             x="0"
             y="0"
             width="600"
             height="600"
             style="stroke:#000080" />
          <use
             xlink:href="#arrow1"
             transform="matrix(2.2155948,1.4355277,-1.4355277,2.2155948,0.9795,0.4682)"
             id="use90"
             x="0"
             y="0"
             width="600"
             height="600"
             style="stroke:#000080" />
          <use
             xlink:href="#arrow1"
             transform="matrix(1.1849671,2.3591212,-2.3591212,1.1849671,2.3494,2.0295)"
             id="use92"
             x="0"
             y="0"
             width="600"
             height="600"
             style="stroke:#000080" />
        </g>
      </g>
      <g
         id="fieldline9"
         style="stroke:#000080">
        <path
           d="M 0,0.2058 0.041,0.2071 0.0822,0.2109 0.1236,0.2174 0.1652,0.2265 0.2071,0.2383 0.2494,0.253 0.292,0.2705 0.3348,0.2909 0.3778,0.3142 0.4208,0.3405 0.4637,0.3698 0.5062,0.402 0.5483,0.4371 0.5896,0.475 0.6301,0.5155 0.6694,0.5586 0.7075,0.6041 0.7441,0.652 0.7792,0.7019 0.8124,0.7539 0.8438,0.8076 0.8732,0.863 0.9004,0.9199 0.9254,0.9781 0.9481,1.0374 0.9685,1.0978 0.9864,1.1589 1.0019,1.2207 1.0148,1.283 1.0252,1.3456 1.0331,1.4083 1.0383,1.4711 1.041,1.5338 1.0411,1.5961 1.0387,1.6581 1.0337,1.7194 1.0263,1.7801 1.0163,1.8399 1.004,1.8987 0.9892,1.9564 0.9722,2.0129 0.9529,2.0681 0.9314,2.1219 0.9078,2.1741 0.8821,2.2246 0.8544,2.2734 0.8249,2.3204 0.7935,2.3655 0.7604,2.4086 0.7257,2.4497 0.6895,2.4886 0.6518,2.5254 0.6127,2.5599 0.5724,2.5922 0.5308,2.6221 0.4883,2.6496 0.4447,2.6748 0.4003,2.6975 0.355,2.7178 0.3091,2.7355 0.2625,2.7508 0.2155,2.7636 0.168,2.7738 0.1203,2.7814 0.0722,2.7866 0.0241,2.7891 l -0.0482,0 L -0.0723,2.7866 -0.1203,2.7814 -0.1681,2.7738 -0.2155,2.7636 -0.2626,2.7508 -0.3091,2.7355 -0.355,2.7178 -0.4003,2.6975 -0.4447,2.6748 -0.4883,2.6496 -0.5309,2.6221 -0.5724,2.5922 -0.6127,2.5599 -0.6518,2.5254 -0.6895,2.4886 -0.7257,2.4497 -0.7605,2.4086 -0.7935,2.3655 -0.8249,2.3204 -0.8544,2.2734 -0.8821,2.2246 -0.9078,2.174 -0.9314,2.1218 -0.9529,2.0681 -0.9722,2.0129 -0.9892,1.9564 -1.004,1.8987 -1.0163,1.8398 -1.0263,1.78 -1.0337,1.7194 -1.0387,1.658 -1.0411,1.5961 -1.041,1.5337 -1.0383,1.4711 -1.0331,1.4083 -1.0252,1.3455 -1.0148,1.2829 -1.0019,1.2207 -0.9864,1.1589 -0.9685,1.0977 -0.9481,1.0374 -0.9254,0.9781 -0.9004,0.9199 -0.8731,0.863 -0.8438,0.8076 -0.8124,0.7538 -0.7791,0.7019 -0.7441,0.6519 -0.7075,0.6041 -0.6694,0.5586 -0.6301,0.5155 -0.5896,0.4749 -0.5483,0.4371 -0.5062,0.402 -0.4637,0.3698 -0.4208,0.3405 -0.3778,0.3142 -0.3348,0.2909 -0.292,0.2705 -0.2494,0.253 -0.2071,0.2383 -0.1652,0.2265 -0.1235,0.2174 -0.0822,0.2109 -0.0411,0.2071 0,0.2058 z"
           id="path95"
           inkscape:connector-curvature="0"
           style="stroke:#000080" />
        <g
           id="arrows9"
           style="stroke:#000080">
          <use
             xlink:href="#arrow1"
             transform="matrix(1.5021402,2.1709847,-2.1709847,1.5021402,0.7528,0.6653)"
             id="use98"
             x="0"
             y="0"
             width="600"
             height="600"
             style="stroke:#000080" />
          <use
             xlink:href="#arrow1"
             transform="matrix(-1.634408,2.0732367,-2.0732367,-1.634408,0.7817,2.3799)"
             id="use100"
             x="0"
             y="0"
             width="600"
             height="600"
             style="stroke:#000080" />
          <use
             xlink:href="#arrow1"
             transform="matrix(-1.5547337,-2.1336361,2.1336361,-1.5547337,-0.7817,2.3799)"
             id="use102"
             x="0"
             y="0"
             width="600"
             height="600"
             style="stroke:#000080" />
          <use
             xlink:href="#arrow1"
             transform="matrix(1.565884,-2.1254664,2.1254664,1.565884,-0.7528,0.6654)"
             id="use104"
             x="0"
             y="0"
             width="600"
             height="600"
             style="stroke:#000080" />
        </g>
      </g>
      <g
         id="fieldline10"
         style="stroke:#000080">
        <path
           d="m 0,0.2729 0.0322,0.0013 0.0322,0.0038 0.032,0.0063 0.032,0.0089 0.0317,0.0115 0.0314,0.0141 0.031,0.0167 0.0304,0.0193 0.0298,0.0219 0.0288,0.0244 0.0278,0.0269 0.0266,0.0292 0.0252,0.0315 0.0235,0.0335 0.0218,0.0355 0.0199,0.0371 0.0178,0.0387 0.0157,0.04 0.0133,0.0411 0.0109,0.042 0.0085,0.0425 0.006,0.043 L 0.532,0.8853 0.533,0.9284 0.5314,0.9713 0.5274,1.0137 0.5208,1.0555 0.5119,1.0964 0.5006,1.1363 0.4871,1.175 0.4713,1.2123 0.4535,1.2481 0.4337,1.2823 0.412,1.3147 0.3886,1.3452 0.3635,1.3738 0.3369,1.4002 0.309,1.4245 0.2798,1.4465 0.2495,1.4662 0.2182,1.4836 0.1861,1.4985 0.1532,1.511 0.1198,1.5211 0.0859,1.5286 0.0516,1.5337 0.0172,1.5362 l -0.0344,0 L -0.0516,1.5337 -0.0859,1.5286 -0.1198,1.5211 -0.1532,1.511 -0.1861,1.4985 -0.2182,1.4836 -0.2495,1.4662 -0.2798,1.4465 -0.309,1.4245 -0.3369,1.4002 -0.3635,1.3738 -0.3886,1.3452 -0.412,1.3147 -0.4337,1.2823 -0.4535,1.2482 -0.4713,1.2123 -0.4871,1.175 -0.5006,1.1363 -0.5119,1.0964 -0.5208,1.0555 -0.5274,1.0137 -0.5314,0.9713 -0.533,0.9284 l 0.001,-0.0431 0.0035,-0.0432 0.006,-0.043 0.0085,-0.0425 0.0109,-0.042 0.0133,-0.0411 0.0157,-0.04 0.0178,-0.0386 0.0199,-0.0372 0.0218,-0.0355 0.0235,-0.0335 0.0252,-0.0315 0.0266,-0.0292 0.0278,-0.0269 0.0288,-0.0244 0.0298,-0.0219 0.0304,-0.0193 0.031,-0.0167 0.0314,-0.0141 0.0317,-0.0115 0.032,-0.0089 L -0.0644,0.278 -0.0322,0.2742 0,0.2729 z"
           id="path107"
           inkscape:connector-curvature="0"
           style="stroke:#000080" />
        <g
           id="arrows10"
           style="stroke:#000080">
          <use
             xlink:href="#arrow1"
             transform="matrix(-0.03639943,2.6397491,-2.6397491,-0.03639943,0.5317,0.9104)"
             id="use110"
             x="0"
             y="0"
             width="600"
             height="600"
             style="stroke:#000080" />
          <use
             xlink:href="#arrow1"
             transform="matrix(0.11745678,-2.6373858,2.6373858,0.11745678,-0.5316,0.9105)"
             id="use112"
             x="0"
             y="0"
             width="600"
             height="600"
             style="stroke:#000080" />
        </g>
      </g>
      <g
         id="fieldline11"
         style="stroke:#000080">
        <path
           d="M 0,0.3285 0.0262,0.3298 0.0522,0.3336 0.0779,0.3399 0.1032,0.3488 0.128,0.3602 0.1519,0.374 0.175,0.3903 0.1969,0.4089 0.2175,0.4298 0.2365,0.4527 0.2539,0.4776 0.2693,0.5043 0.2827,0.5325 0.2939,0.5619 0.3027,0.5925 0.3091,0.6237 0.3131,0.6555 0.3144,0.6874 0.3133,0.7193 0.3096,0.7508 0.3035,0.7816 0.2949,0.8116 0.284,0.8405 0.271,0.868 0.2559,0.894 0.2388,0.9183 0.22,0.9406 0.1996,0.961 0.1778,0.9793 0.1547,0.9953 0.1306,1.0089 0.1055,1.0202 0.0798,1.029 0.0535,1.0353 0.0268,1.0392 0,1.0404 -0.0268,1.0392 -0.0535,1.0353 -0.0798,1.029 -0.1055,1.0202 -0.1306,1.0089 -0.1547,0.9953 -0.1778,0.9793 -0.1996,0.961 -0.22,0.9406 -0.2388,0.9183 -0.2559,0.894 -0.271,0.868 -0.284,0.8405 -0.2949,0.8116 -0.3035,0.7816 -0.3096,0.7508 -0.3133,0.7193 -0.3144,0.6874 -0.3131,0.6555 -0.3091,0.6237 -0.3027,0.5925 -0.2939,0.5619 -0.2827,0.5325 -0.2693,0.5043 -0.2539,0.4776 -0.2365,0.4527 -0.2175,0.4298 -0.1969,0.4089 -0.175,0.3903 -0.1519,0.374 -0.128,0.3602 -0.1032,0.3488 -0.0779,0.3399 -0.0522,0.3336 -0.0262,0.3298 0,0.3285 z"
           id="path115"
           inkscape:connector-curvature="0"
           style="stroke:#000080" />
        <g
           id="arrows11"
           style="stroke:#000080">
          <use
             xlink:href="#arrow1"
             transform="matrix(-2.6319339,-0.20621331,0.20621331,-2.6319339,2e-4,1.0373)"
             id="use118"
             x="0"
             y="0"
             width="600"
             height="600"
             style="stroke:#000080" />
        </g>
      </g>
      <g
         id="fieldline12"
         style="stroke:#000080">
        <path
           d="M 0,0.3727 0.0213,0.374 0.0424,0.3777 0.063,0.384 0.083,0.3926 0.1021,0.4037 0.12,0.417 0.1367,0.4325 0.1517,0.4499 0.165,0.4692 0.1762,0.49 0.1854,0.5121 0.1922,0.5353 0.1966,0.5591 0.1985,0.5834 0.1979,0.6077 0.1948,0.6317 0.1892,0.6552 0.1813,0.6777 0.1712,0.699 0.159,0.719 0.1449,0.7372 0.1291,0.7536 0.1118,0.7679 0.0932,0.78 0.0736,0.7899 0.0531,0.7973 l -0.021,0.005 -0.0213,0.0025 -0.0215,0 L -0.0321,0.8023 -0.0531,0.7973 -0.0736,0.7899 -0.0932,0.78 -0.1118,0.7679 -0.1291,0.7536 -0.1449,0.7372 -0.159,0.719 -0.1712,0.6991 -0.1813,0.6777 -0.1892,0.6552 -0.1948,0.6317 -0.1979,0.6077 -0.1985,0.5834 -0.1966,0.5591 -0.1922,0.5353 -0.1854,0.5121 -0.1762,0.49 -0.165,0.4692 -0.1517,0.4499 -0.1367,0.4325 -0.1201,0.417 -0.1021,0.4037 -0.083,0.3926 -0.063,0.384 -0.0424,0.3777 -0.0213,0.374 0,0.3727 z"
           id="path121"
           inkscape:connector-curvature="0"
           style="stroke:#000080" />
        <g
           id="arrows12"
           style="stroke:#000080">
          <use
             xlink:href="#arrow1"
             transform="matrix(-2.6221314,-0.30663784,0.30663784,-2.6221314,5e-4,0.8002)"
             id="use124"
             x="0"
             y="0"
             width="600"
             height="600"
             style="stroke:#000080" />
        </g>
      </g>
      <g
         ns0:preamble=""
         ns0:text="$\\vec{B}$"
         word-spacing="normal"
         letter-spacing="normal"
         font-size-adjust="none"
         font-stretch="normal"
         font-weight="normal"
         font-variant="normal"
         font-style="normal"
         stroke-miterlimit="10.433"
         xml:space="preserve"
         transform="matrix(0,-0.05,0.05,0,-33.580826,9.419406)"
         id="g4832"
         style="font-style:normal;font-variant:normal;font-weight:normal;font-stretch:normal;letter-spacing:normal;word-spacing:normal;text-anchor:start;fill:#000080;stroke:#000080;stroke-linecap:butt;stroke-linejoin:miter;stroke-miterlimit:10.43299961;stroke-opacity:1;stroke-dasharray:none;stroke-dashoffset:0">
<path
   id="path4834"
   d="m 230.39,715.57 -0.02,-0.02 -0.01,-0.01 -0.02,-0.02 -0.01,-0.01 -0.02,-0.02 -0.02,-0.01 -0.02,-0.02 -0.02,-0.02 -0.01,-0.01 -0.02,-0.02 -0.04,-0.04 -0.04,-0.04 -0.04,-0.04 -0.02,-0.02 -0.02,-0.02 -0.01,-0.02 -0.02,-0.02 -0.02,-0.02 -0.01,-0.02 -0.02,-0.02 -0.01,-0.02 -0.01,-0.02 -0.01,-0.02 -0.01,-0.02 -0.01,-0.02 0,-0.02 -0.01,-0.02 0,-0.02 0,-0.01 c 0,-0.1 0.1,-0.2 0.2,-0.2 0.09,0 0.14,0.07 0.19,0.13 0.12,0.15 0.35,0.43 0.79,0.64 0.06,0.04 0.16,0.09 0.16,0.21 0,0.1 -0.07,0.15 -0.14,0.2 -0.22,0.15 -0.32,0.33 -0.4,0.57 -0.02,0.09 -0.06,0.22 -0.2,0.22 -0.14,0 -0.2,-0.13 -0.2,-0.21 0,-0.05 0.08,-0.37 0.24,-0.58 h -3.36 c -0.17,0 -0.35,0 -0.35,-0.2 0,-0.19 0.18,-0.19 0.35,-0.19 z"
   inkscape:connector-curvature="0"
   style="fill:#000080;stroke:#000080;stroke-width:0" />
<path
   id="path4836"
   d="m 225.03,707.9 -0.01,-0.03 -0.01,-0.04 -0.01,-0.03 -0.01,-0.03 -0.01,-0.03 -0.01,-0.03 -0.01,-0.02 -0.01,-0.03 -0.01,-0.02 -0.01,-0.02 -0.01,-0.02 -0.02,-0.02 -0.01,-0.01 -0.02,-0.02 -0.02,-0.01 -0.02,-0.02 -0.02,-0.01 -0.03,-0.01 -0.02,-0.01 -0.03,-0.01 -0.04,-0.01 -0.01,0 -0.02,-0.01 -0.02,0 -0.02,0 -0.02,0 -0.02,-0.01 -0.02,0 -0.02,0 -0.03,0 -0.02,-0.01 -0.03,0 -0.02,0 -0.03,0 -0.03,0 -0.03,0 -0.03,0 -0.03,0 -0.03,0 -0.03,-0.01 -0.04,0 -0.03,0 -0.04,0 c -0.17,0 -0.27,0 -0.27,-0.2 0,-0.11 0.09,-0.11 0.27,-0.11 h 3.56 c 1.57,0 2.75,1.18 2.75,2.16 0,0.71 -0.58,1.29 -1.55,1.4 1.04,0.19 2.09,0.92 2.09,1.87 0,0.74 -0.66,1.37 -1.86,1.37 l -0.14,-0.31 c 0.88,0 1.09,-0.58 1.09,-1.02 0,-0.88 -0.86,-1.82 -2.07,-1.82 h -1.46 l -0.06,-0.22 h 1.89 c 0.95,0 1.14,-0.74 1.14,-1.17 0,-0.98 -0.88,-1.95 -2.06,-1.95 h -1.36 c -0.14,0 -0.16,0 -0.22,0.01 -0.1,0.01 -0.12,0.02 -0.12,0.1 0,0.03 0,0.05 0.05,0.23 l 0.68,2.78 0.06,0.22 0.62,2.47 c 0.09,0.34 0.11,0.37 0.54,0.37 h 1.28 l 0.14,0.31 h -3.35 c -0.19,0 -0.28,0 -0.28,-0.2 0,-0.11 0.09,-0.11 0.28,-0.11 0.01,0 0.2,0 0.37,-0.02 0.18,-0.02 0.27,-0.03 0.27,-0.16 0,-0.03 -0.01,-0.07 -0.04,-0.18 z"
   inkscape:connector-curvature="0"
   style="fill:#000080;stroke:#000080;stroke-width:0" />
</g>    </g>
    <g
       id="symbols"
       transform="matrix(0.48230754,0,0,1,-0.10612695,0)">
      <g
         id="ring"
         transform="matrix(0.01,0,0,0.01,0.11700651,-4.5008917)">
        <defs
           id="defs128">
          <radialGradient
             cy="15.919798"
             cx="11.939847"
             r="59.699245"
             id="light_spot"
             gradientTransform="matrix(0.5527708,0,0,1.8090681,9.9046141,450)"
             fx="11.939847"
             fy="15.919798"
             gradientUnits="userSpaceOnUse">
            <stop
               stop-color="#fff"
               offset="0"
               id="stop131" />
            <stop
               stop-color="#ddd"
               offset="0.15"
               id="stop133" />
            <stop
               stop-color="#aaa"
               offset="0.5"
               id="stop135" />
            <stop
               stop-color="#444"
               offset="1"
               id="stop137" />
          </radialGradient>
        </defs>
        <path
           style="fill:url(#light_spot);stroke:#000000;stroke-width:3"
           d="m -10.595386,500 0,-100 c 0,-5.36689 0.228425,-9.02875 4.0233881,-12.82371 3.794963,-3.79496 11.1097247,-5.5266 16.476612,-5.5266 5.3668869,0 12.6816489,1.25393 16.4766119,5.04889 3.794963,3.79496 4.023388,7.93453 4.023388,13.30142 l 0,100 c 0,5.36689 -0.228425,8.7899 -4.023388,12.58486 -3.794963,3.79496 -12.100186,4.81004 -17.4670733,4.81004 -5.3668873,0 -12.1864186,-1.49279 -15.9813816,-5.28775 C -10.862192,508.31219 -10.595386,505.36689 -10.595386,500 z"
           id="path139"
           inkscape:connector-curvature="0"
           sodipodi:nodetypes="sssssssssss" />
        <circle
           cy="0"
           cx="0"
           r="5"
           transform="matrix(1.093038,0,0,0.53918248,11.190329,505.17529)"
           style="opacity:0.5;fill:#ff0000;stroke:none"
           id="circle141"
           d="M 5,0 C 5,2.7614237 2.7614237,5 0,5 -2.7614237,5 -5,2.7614237 -5,0 c 0,-2.7614237 2.2385763,-5 5,-5 2.7614237,0 5,2.2385763 5,5 z"
           sodipodi:cx="0"
           sodipodi:cy="0"
           sodipodi:rx="5"
           sodipodi:ry="5" />
        <path
           style="opacity:0.5;fill:#ff0000;stroke:none"
           d="m 19.329953,388.83111 3.270126,1.56688 -8.720335,4.17834 8.720335,4.17835 -3.270126,1.56688 -8.720336,-4.17835 -8.720335,4.17835 -3.270126,-1.56688 8.7203358,-4.17835 -8.7203358,-4.17834 3.270126,-1.56688 8.720335,4.17834 8.720336,-4.17834 z"
           id="path143"
           inkscape:connector-curvature="0" />
      </g>
    </g>
  </g>
</svg>
