<?xml version="1.0" encoding="UTF-8" standalone="no"?>
<!-- Created with Inkscape (http://www.inkscape.org/) -->

<svg
   xmlns:ns0="http://www.iki.fi/pav/software/textext/"
   xmlns:dc="http://purl.org/dc/elements/1.1/"
   xmlns:cc="http://creativecommons.org/ns#"
   xmlns:rdf="http://www.w3.org/1999/02/22-rdf-syntax-ns#"
   xmlns:svg="http://www.w3.org/2000/svg"
   xmlns="http://www.w3.org/2000/svg"
   xmlns:sodipodi="http://sodipodi.sourceforge.net/DTD/sodipodi-0.dtd"
   xmlns:inkscape="http://www.inkscape.org/namespaces/inkscape"
   width="792pt"
   height="612pt"
   id="svg7416"
   version="1.1"
   inkscape:version="0.48.3.1 r9886"
   sodipodi:docname="fig-carga-imagen-01.svg">
  <defs
     id="defs7418" />
  <sodipodi:namedview
     inkscape:document-units="in"
     pagecolor="#ffffff"
     bordercolor="#666666"
     borderopacity="1.0"
     inkscape:pageopacity="0.0"
     inkscape:pageshadow="2"
     inkscape:zoom="0.81960784"
     inkscape:cx="268.67225"
     inkscape:cy="382.5"
     inkscape:current-layer="g235"
     id="namedview7420"
     showgrid="false"
     inkscape:window-width="1440"
     inkscape:window-height="848"
     inkscape:window-x="0"
     inkscape:window-y="0"
     inkscape:window-maximized="1" />
  <metadata
     id="metadata7422">
    <rdf:RDF>
      <cc:Work
         rdf:about="">
        <dc:format>image/svg+xml</dc:format>
        <dc:type
           rdf:resource="http://purl.org/dc/dcmitype/StillImage" />
        <dc:title></dc:title>
      </cc:Work>
    </rdf:RDF>
  </metadata>
  <g
     inkscape:label="Layer 1"
     inkscape:groupmode="layer"
     id="layer1">
    <g
       style="visibility:visible"
       id="g231"
       transform="matrix(0.70557849,0,0,0.03548597,-9066.8223,5.3869674)">
      <desc
         id="desc233">Drawing</desc>
      <g
         id="g235">
        <g
           id="g237"
           style="fill:#bbbbbb;stroke:#000000;stroke-width:0;stroke-miterlimit:4;stroke-dasharray:none">
          <path
             inkscape:connector-curvature="0"
             id="path239"
             d="m 13300,18200 -200,0 0,-15500 400,0 0,15500 -200,0 z"
             style="fill:#bbbbbb;stroke:#000000;stroke-width:0;stroke-miterlimit:4;stroke-dasharray:none" />
        </g>
        <g
           id="g245"
           style="fill:none;stroke:none">
          <rect
             id="rect247"
             height="15501"
             width="401"
             y="2700"
             x="13100" />
        </g>
        <g
           id="g249" />
      </g>
    </g>
    <g
       style="stroke-width:40;stroke-miterlimit:4;stroke-dasharray:none;visibility:visible"
       id="g251"
       transform="matrix(0.03698798,0,0,0.03548597,-30.998193,4.2514163)">
      <desc
         id="desc253">Drawing</desc>
      <g
         id="g255"
         style="stroke-width:40;stroke-miterlimit:4;stroke-dasharray:none">
        <g
           id="g257"
           style="fill:none;stroke:#000000;stroke-width:40;stroke-miterlimit:4;stroke-dasharray:none">
          <path
             inkscape:connector-curvature="0"
             id="path259"
             d="m 19800,10500 168,-479"
             style="fill:none;stroke-width:40;stroke-miterlimit:4;stroke-dasharray:none" />
          <path
             inkscape:connector-curvature="0"
             id="path261"
             d="m 20137,9541 168,-479"
             style="fill:none;stroke-width:40;stroke-miterlimit:4;stroke-dasharray:none" />
          <path
             inkscape:connector-curvature="0"
             id="path263"
             d="m 20474,8583 168,-479"
             style="fill:none;stroke-width:40;stroke-miterlimit:4;stroke-dasharray:none" />
          <path
             inkscape:connector-curvature="0"
             id="path265"
             d="m 20810,7624 169,-479"
             style="fill:none;stroke-width:40;stroke-miterlimit:4;stroke-dasharray:none" />
          <path
             inkscape:connector-curvature="0"
             id="path267"
             d="m 21147,6666 169,-479"
             style="fill:none;stroke-width:40;stroke-miterlimit:4;stroke-dasharray:none" />
          <path
             inkscape:connector-curvature="0"
             id="path269"
             d="m 21484,5707 168,-479"
             style="fill:none;stroke-width:40;stroke-miterlimit:4;stroke-dasharray:none" />
          <path
             inkscape:connector-curvature="0"
             id="path271"
             d="m 21821,4749 168,-480"
             style="fill:none;stroke-width:40;stroke-miterlimit:4;stroke-dasharray:none" />
          <path
             inkscape:connector-curvature="0"
             id="path273"
             d="m 22158,3790 168,-479"
             style="fill:none;stroke-width:40;stroke-miterlimit:4;stroke-dasharray:none" />
        </g>
        <g
           id="g275"
           style="stroke-width:40;stroke-miterlimit:4;stroke-dasharray:none" />
      </g>
    </g>
    <g
       style="stroke-width:40;stroke-miterlimit:4;stroke-dasharray:none;visibility:visible"
       id="g277"
       transform="matrix(0.03698798,0,0,0.03548597,-30.998193,4.2514163)">
      <desc
         id="desc279">Drawing</desc>
      <g
         id="g281"
         style="stroke-width:40;stroke-miterlimit:4;stroke-dasharray:none">
        <g
           id="g283"
           style="fill:none;stroke:#000000;stroke-width:40;stroke-miterlimit:4;stroke-dasharray:none">
          <path
             inkscape:connector-curvature="0"
             id="path285"
             d="m 8400,10600 448,-240"
             style="fill:none;stroke-width:40;stroke-miterlimit:4;stroke-dasharray:none" />
          <path
             inkscape:connector-curvature="0"
             id="path287"
             d="m 9296,10120 447,-240"
             style="fill:none;stroke-width:40;stroke-miterlimit:4;stroke-dasharray:none" />
          <path
             inkscape:connector-curvature="0"
             id="path289"
             d="m 10191,9640 448,-239"
             style="fill:none;stroke-width:40;stroke-miterlimit:4;stroke-dasharray:none" />
          <path
             inkscape:connector-curvature="0"
             id="path291"
             d="m 11087,9161 448,-240"
             style="fill:none;stroke-width:40;stroke-miterlimit:4;stroke-dasharray:none" />
          <path
             inkscape:connector-curvature="0"
             id="path293"
             d="m 11982,8681 448,-240"
             style="fill:none;stroke-width:40;stroke-miterlimit:4;stroke-dasharray:none" />
          <path
             inkscape:connector-curvature="0"
             id="path295"
             d="m 12878,8201 448,-240"
             style="fill:none;stroke-width:40;stroke-miterlimit:4;stroke-dasharray:none" />
          <path
             inkscape:connector-curvature="0"
             id="path297"
             d="m 13774,7721 447,-240"
             style="fill:none;stroke-width:40;stroke-miterlimit:4;stroke-dasharray:none" />
          <path
             inkscape:connector-curvature="0"
             id="path299"
             d="m 14669,7242 448,-240"
             style="fill:none;stroke-width:40;stroke-miterlimit:4;stroke-dasharray:none" />
          <path
             inkscape:connector-curvature="0"
             id="path301"
             d="m 15565,6762 447,-240"
             style="fill:none;stroke-width:40;stroke-miterlimit:4;stroke-dasharray:none" />
          <path
             inkscape:connector-curvature="0"
             id="path303"
             d="m 16460,6282 448,-240"
             style="fill:none;stroke-width:40;stroke-miterlimit:4;stroke-dasharray:none" />
          <path
             inkscape:connector-curvature="0"
             id="path305"
             d="m 17356,5802 448,-240"
             style="fill:none;stroke-width:40;stroke-miterlimit:4;stroke-dasharray:none" />
          <path
             inkscape:connector-curvature="0"
             id="path307"
             d="m 18251,5322 448,-239"
             style="fill:none;stroke-width:40;stroke-miterlimit:4;stroke-dasharray:none" />
          <path
             inkscape:connector-curvature="0"
             id="path309"
             d="m 19147,4843 448,-240"
             style="fill:none;stroke-width:40;stroke-miterlimit:4;stroke-dasharray:none" />
          <path
             inkscape:connector-curvature="0"
             id="path311"
             d="m 20043,4363 447,-240"
             style="fill:none;stroke-width:40;stroke-miterlimit:4;stroke-dasharray:none" />
          <path
             inkscape:connector-curvature="0"
             id="path313"
             d="m 20938,3883 448,-240"
             style="fill:none;stroke-width:40;stroke-miterlimit:4;stroke-dasharray:none" />
          <path
             inkscape:connector-curvature="0"
             id="path315"
             d="m 21834,3403 448,-240"
             style="fill:none;stroke-width:40;stroke-miterlimit:4;stroke-dasharray:none" />
        </g>
        <g
           id="g317"
           style="stroke-width:40;stroke-miterlimit:4;stroke-dasharray:none" />
      </g>
    </g>
    <g
       style="visibility:visible"
       id="g319"
       transform="matrix(0.03698798,0,0,0.03548597,-30.998193,4.2514163)">
      <desc
         id="desc321">Drawing</desc>
      <g
         id="g323">
        <g
           id="g325"
           style="fill:none;stroke:#000000;stroke-width:100;stroke-linejoin:round">
          <path
             inkscape:connector-curvature="0"
             id="path327"
             d="m 4303,10500 18994,0"
             style="fill:none" />
        </g>
        <g
           id="g329"
           style="fill:#000000;stroke:none">
          <path
             inkscape:connector-curvature="0"
             id="path331"
             d="m 4393,10322 36,-47 -629,226 629,224 -34,-45 -27,-54 -19,-59 -6,-64 5,-64 18,-61 27,-56 z" />
          <path
             inkscape:connector-curvature="0"
             id="path333"
             d="m 23207,10678 -36,47 629,-226 -629,-224 34,45 27,54 19,59 6,64 -5,64 -18,61 -27,56 z" />
        </g>
        <g
           id="g335" />
      </g>
    </g>
    <g
       style="stroke-width:40;stroke-miterlimit:4;stroke-dasharray:none;visibility:visible"
       id="g337"
       transform="matrix(0.03698798,0,0,0.03548597,-36.91627,4.2514163)">
      <desc
         id="desc339">Drawing</desc>
      <g
         id="g341"
         style="stroke-width:40;stroke-miterlimit:4;stroke-dasharray:none"
         transform="translate(128,0)">
        <g
           id="g343"
           style="fill:none;stroke:#000000;stroke-width:40;stroke-linejoin:round;stroke-miterlimit:4;stroke-dasharray:none">
          <path
             inkscape:connector-curvature="0"
             id="path345"
             d="m 13300,18497 0,-15994"
             style="fill:none;stroke-width:40;stroke-miterlimit:4;stroke-dasharray:none" />
        </g>
        <g
           id="g347"
           style="fill:#000000;stroke:none">
          <path
             inkscape:connector-curvature="0"
             id="path349"
             d="m 13122,18407 -47,-36 226,629 224,-629 -45,34 -54,27 -59,19 -64,6 -64,-5 -61,-18 -56,-27 z" />
          <path
             inkscape:connector-curvature="0"
             id="path351"
             d="m 13478,2593 47,36 -226,-629 -224,629 45,-34 54,-27 59,-19 64,-6 64,5 61,18 56,27 z" />
        </g>
        <g
           id="g353"
           style="stroke-width:40;stroke-miterlimit:4;stroke-dasharray:none" />
      </g>
    </g>
    <g
       style="visibility:visible"
       id="g399"
       transform="matrix(0.03698798,0,0,0.03548597,-28.630963,4.2514163)">
      <desc
         id="desc401">Drawing</desc>
      <g
         id="g403">
        <g
           id="g405"
           style="fill:#ff0000;stroke:none">
          <path
             inkscape:connector-curvature="0"
             id="path407"
             d="m 8450,10300 c 142,0 250,108 250,250 0,142 -108,250 -250,250 -142,0 -250,-108 -250,-250 0,-142 108,-250 250,-250 z m -250,0 0,0 z m 501,501 0,0 z" />
        </g>
        <g
           id="g409"
           style="fill:none;stroke:#000000">
          <path
             inkscape:connector-curvature="0"
             id="path411"
             d="m 8450,10300 c 142,0 250,108 250,250 0,142 -108,250 -250,250 -142,0 -250,-108 -250,-250 0,-142 108,-250 250,-250"
             style="fill:none" />
          <path
             inkscape:connector-curvature="0"
             id="path413"
             d="m 8200,10300 0,0"
             style="fill:none" />
          <path
             inkscape:connector-curvature="0"
             id="path415"
             d="m 8701,10801 0,0"
             style="fill:none" />
        </g>
        <g
           id="g417"
           style="fill:none;stroke:none">
          <rect
             id="rect419"
             height="501"
             width="501"
             y="10300"
             x="8200" />
        </g>
        <g
           id="g421" />
      </g>
    </g>
    <g
       style="visibility:visible"
       id="g423"
       transform="matrix(0.03698798,0,0,0.03548597,-30.998193,4.2514163)">
      <desc
         id="desc425">Drawing</desc>
      <g
         id="g427">
        <g
           id="g429"
           style="fill:#0047ff;stroke:none">
          <path
             inkscape:connector-curvature="0"
             id="path431"
             d="m 19750,10300 c 142,0 250,108 250,250 0,142 -108,250 -250,250 -142,0 -250,-108 -250,-250 0,-142 108,-250 250,-250 z m -250,0 0,0 z m 501,501 0,0 z" />
        </g>
        <g
           id="g433"
           style="fill:none;stroke:#000000">
          <path
             inkscape:connector-curvature="0"
             id="path435"
             d="m 19750,10300 c 142,0 250,108 250,250 0,142 -108,250 -250,250 -142,0 -250,-108 -250,-250 0,-142 108,-250 250,-250"
             style="fill:none" />
          <path
             inkscape:connector-curvature="0"
             id="path437"
             d="m 19500,10300 0,0"
             style="fill:none" />
          <path
             inkscape:connector-curvature="0"
             id="path439"
             d="m 20001,10801 0,0"
             style="fill:none" />
        </g>
        <g
           id="g441"
           style="fill:none;stroke:none">
          <rect
             id="rect443"
             height="501"
             width="501"
             y="10300"
             x="19500" />
        </g>
        <g
           id="g445" />
      </g>
    </g>
    <g
       style="visibility:visible"
       id="g491"
       transform="matrix(0.03698798,0,0,0.03548597,-30.998193,4.2514163)">
      <desc
         id="desc493">Drawing</desc>
      <g
         id="g495">
        <g
           id="g497"
           style="fill:none;stroke:#000000;stroke-width:50;stroke-linejoin:round">
          <path
             inkscape:connector-curvature="0"
             id="path499"
             d="m 13725,11500 5550,0"
             style="fill:none" />
        </g>
        <g
           id="g501"
           style="fill:#000000;stroke:none">
          <path
             inkscape:connector-curvature="0"
             id="path503"
             d="m 13801,11350 30,-40 -531,191 531,189 -29,-38 -23,-46 -15,-50 -6,-54 5,-54 15,-51 23,-47 z" />
          <path
             inkscape:connector-curvature="0"
             id="path505"
             d="m 19199,11650 -30,40 531,-191 -531,-189 29,38 23,46 15,50 6,54 -5,54 -15,51 -23,47 z" />
        </g>
        <g
           id="g507" />
      </g>
    </g>
    <g
       style="visibility:visible"
       id="g531"
       transform="matrix(0.03698798,0,0,0.03548597,-30.998193,4.2514163)">
      <desc
         id="desc533">Drawing</desc>
      <g
         id="g535">
        <g
           id="g537"
           style="fill:none;stroke:#000000;stroke-width:50;stroke-linejoin:round">
          <path
             inkscape:connector-curvature="0"
             id="path539"
             d="m 8725,11500 4050,0"
             style="fill:none" />
        </g>
        <g
           id="g541"
           style="fill:#000000;stroke:none">
          <path
             inkscape:connector-curvature="0"
             id="path543"
             d="m 8801,11350 30,-40 -531,191 531,189 -29,-38 -23,-46 -15,-50 -6,-54 5,-54 15,-51 23,-47 z" />
          <path
             inkscape:connector-curvature="0"
             id="path545"
             d="m 12699,11650 -30,40 531,-191 -531,-189 29,38 23,46 15,50 6,54 -5,54 -15,51 -23,47 z" />
        </g>
        <g
           id="g547" />
      </g>
    </g>
    <g
       style="fill:none;stroke:#000000;stroke-width:40;stroke-miterlimit:4;stroke-dasharray:none;visibility:visible"
       id="g643"
       transform="matrix(0.03698798,0,0,0.03548597,-30.998193,4.2514163)">
      <desc
         id="desc645">Group</desc>
      <g
         id="g647"
         style="fill:none;stroke:#000000;stroke-width:40;stroke-miterlimit:4;stroke-dasharray:none">
        <desc
           id="desc649">Drawing</desc>
        <g
           id="g651"
           style="fill:none;stroke:#000000;stroke-width:40;stroke-miterlimit:4;stroke-dasharray:none">
          <g
             id="g653"
             style="fill:none;stroke:#000000;stroke-width:40;stroke-miterlimit:4;stroke-dasharray:none">
            <path
               inkscape:connector-curvature="0"
               id="path655"
               d="m 13500,15000 800,0 0,2000"
               style="fill:none;stroke:#000000;stroke-width:40;stroke-miterlimit:4;stroke-dasharray:none" />
          </g>
          <g
             id="g657"
             style="fill:none;stroke:#000000;stroke-width:40;stroke-miterlimit:4;stroke-dasharray:none" />
        </g>
      </g>
      <g
         id="g659"
         style="fill:none;stroke:#000000;stroke-width:40;stroke-miterlimit:4;stroke-dasharray:none">
        <desc
           id="desc661">Group</desc>
        <g
           id="g663"
           style="fill:none;stroke:#000000;stroke-width:40;stroke-miterlimit:4;stroke-dasharray:none">
          <desc
             id="desc665">Drawing</desc>
          <g
             id="g667"
             style="fill:none;stroke:#000000;stroke-width:40;stroke-miterlimit:4;stroke-dasharray:none">
            <g
               id="g669"
               style="fill:none;stroke:#000000;stroke-width:40;stroke-miterlimit:4;stroke-dasharray:none">
              <path
                 inkscape:connector-curvature="0"
                 id="path671"
                 d="m 13800,17100 1100,0"
                 style="fill:none;stroke:#000000;stroke-width:40;stroke-miterlimit:4;stroke-dasharray:none" />
            </g>
            <g
               id="g673"
               style="fill:none;stroke:#000000;stroke-width:40;stroke-miterlimit:4;stroke-dasharray:none" />
          </g>
        </g>
        <g
           id="g675"
           style="fill:none;stroke:#000000;stroke-width:40;stroke-miterlimit:4;stroke-dasharray:none">
          <desc
             id="desc677">Drawing</desc>
          <g
             id="g679"
             style="fill:none;stroke:#000000;stroke-width:40;stroke-miterlimit:4;stroke-dasharray:none">
            <g
               id="g681"
               style="fill:none;stroke:#000000;stroke-width:40;stroke-miterlimit:4;stroke-dasharray:none">
              <path
                 inkscape:connector-curvature="0"
                 id="path683"
                 d="m 14000,17300 700,0"
                 style="fill:none;stroke:#000000;stroke-width:40;stroke-miterlimit:4;stroke-dasharray:none" />
            </g>
            <g
               id="g685"
               style="fill:none;stroke:#000000;stroke-width:40;stroke-miterlimit:4;stroke-dasharray:none" />
          </g>
        </g>
        <g
           id="g687"
           style="fill:none;stroke:#000000;stroke-width:40;stroke-miterlimit:4;stroke-dasharray:none">
          <desc
             id="desc689">Drawing</desc>
          <g
             id="g691"
             style="fill:none;stroke:#000000;stroke-width:40;stroke-miterlimit:4;stroke-dasharray:none">
            <g
               id="g693"
               style="fill:none;stroke:#000000;stroke-width:40;stroke-miterlimit:4;stroke-dasharray:none">
              <path
                 inkscape:connector-curvature="0"
                 id="path695"
                 d="m 14100,17500 500,0"
                 style="fill:none;stroke:#000000;stroke-width:40;stroke-miterlimit:4;stroke-dasharray:none" />
            </g>
            <g
               id="g697"
               style="fill:none;stroke:#000000;stroke-width:40;stroke-miterlimit:4;stroke-dasharray:none" />
          </g>
        </g>
      </g>
    </g>
    <path
       transform="matrix(1.3019768,0,0,1.2491063,723.65094,-194.55498)"
       d="m 63.444976,246.45934 a 6.1004786,6.1004786 0 1 1 -12.200957,0 6.1004786,6.1004786 0 1 1 12.200957,0 z"
       sodipodi:ry="6.1004786"
       sodipodi:rx="6.1004786"
       sodipodi:cy="246.45934"
       sodipodi:cx="57.344498"
       id="path5011"
       style="opacity:0.63984674;fill:#000000;fill-opacity:1;fill-rule:evenodd;stroke:none"
       sodipodi:type="arc" />
    <g
       ns0:preamble=""
       ns0:text="$x$"
       word-spacing="normal"
       letter-spacing="normal"
       font-size-adjust="none"
       font-stretch="normal"
       font-weight="normal"
       font-variant="normal"
       font-style="normal"
       stroke-miterlimit="10.433"
       xml:space="preserve"
       transform="matrix(3.5508458,0,0,-3.4066535,41.208943,2815.3429)"
       id="content"
       style="font-style:normal;font-variant:normal;font-weight:normal;font-stretch:normal;letter-spacing:normal;word-spacing:normal;text-anchor:start;fill:none;stroke:#000000;stroke-linecap:butt;stroke-linejoin:miter;stroke-miterlimit:10.43299961;stroke-opacity:1;stroke-dasharray:none;stroke-dashoffset:0">
<path
   id="path5152"
   d="m 226.76,710.13 0.01,0.03 0,0.03 0.01,0.03 0.01,0.04 0.01,0.03 0.01,0.05 0.02,0.04 0.01,0.04 0.02,0.05 0.02,0.05 0.02,0.05 0.02,0.05 0.02,0.05 0.02,0.05 0.03,0.05 0.03,0.04 0.03,0.05 0.03,0.05 0.03,0.05 0.04,0.04 0.03,0.04 0.04,0.04 0.04,0.04 0.05,0.04 0.04,0.03 0.05,0.03 0.03,0.01 0.02,0.01 0.03,0.02 0.03,0.01 0.03,0 0.02,0.01 0.03,0.01 0.03,0 0.03,0.01 0.03,0 0.04,0 0.03,0 c 0.05,0 0.29,0 0.5,-0.12 -0.28,-0.05 -0.48,-0.3 -0.48,-0.54 0,-0.16 0.11,-0.35 0.38,-0.35 0.22,0 0.53,0.18 0.53,0.58 0,0.52 -0.58,0.65 -0.92,0.65 -0.58,0 -0.93,-0.52 -1.05,-0.75 -0.25,0.65 -0.79,0.75 -1.08,0.75 -1.03,0 -1.6,-1.28 -1.6,-1.53 0,-0.1 0.1,-0.1 0.12,-0.1 0.08,0 0.11,0.02 0.13,0.11 0.34,1.06 1,1.3 1.34,1.3 0.18,0 0.53,-0.08 0.53,-0.66 0,-0.31 -0.17,-0.98 -0.53,-2.37 -0.16,-0.62 -0.51,-1.04 -0.95,-1.04 -0.06,0 -0.29,0 -0.5,0.13 0.25,0.05 0.47,0.26 0.47,0.54 0,0.27 -0.22,0.35 -0.37,0.35 -0.3,0 -0.55,-0.26 -0.55,-0.58 0,-0.45 0.5,-0.65 0.94,-0.65 0.66,0 1.02,0.69 1.05,0.75 0.11,-0.37 0.47,-0.75 1.07,-0.75 1.03,0 1.6,1.28 1.6,1.53 0,0.1 -0.09,0.1 -0.12,0.1 -0.09,0 -0.11,-0.04 -0.13,-0.11 -0.33,-1.07 -1.01,-1.31 -1.33,-1.31 -0.39,0 -0.55,0.32 -0.55,0.66 0,0.22 0.06,0.44 0.17,0.88 z"
   inkscape:connector-curvature="0"
   style="fill:#000000;stroke-width:0" />
</g>    <g
       id="g5453"
       transform="matrix(3.5508458,0,0,-3.4066535,-320.43026,2490.9355)"
       xml:space="preserve"
       stroke-miterlimit="10.433"
       font-style="normal"
       font-variant="normal"
       font-weight="normal"
       font-stretch="normal"
       font-size-adjust="none"
       letter-spacing="normal"
       word-spacing="normal"
       ns0:text="$y$"
       ns0:preamble=""
       style="font-style:normal;font-variant:normal;font-weight:normal;font-stretch:normal;letter-spacing:normal;word-spacing:normal;text-anchor:start;fill:none;stroke:#000000;stroke-linecap:butt;stroke-linejoin:miter;stroke-miterlimit:10.43299961;stroke-opacity:1;stroke-dasharray:none;stroke-dashoffset:0">
<path
   style="fill:#000000;stroke-width:0"
   inkscape:connector-curvature="0"
   d="m 228.28,710.92 0,0 0,0.01 0,0.01 0,0 0.01,0.01 0,0.01 0,0.01 0.01,0.01 0,0.01 0,0.01 0,0.01 0,0.01 0,0.01 0.01,0 0,0.01 0,0.01 0,0 0,0.01 0,0 0,0.01 0,0.01 0,0.01 0.01,0.01 0,0.01 0,0.01 0,0.01 0,0 0,0.01 0,0.01 c 0,0.18 -0.14,0.26 -0.29,0.26 -0.1,0 -0.26,-0.06 -0.35,-0.2 -0.02,-0.05 -0.1,-0.36 -0.14,-0.54 -0.07,-0.26 -0.14,-0.53 -0.2,-0.8 l -0.45,-1.79 c -0.04,-0.15 -0.47,-0.85 -1.13,-0.85 -0.5,0 -0.61,0.44 -0.61,0.81 0,0.46 0.17,1.08 0.5,1.95 0.16,0.41 0.2,0.52 0.2,0.72 0,0.45 -0.31,0.81 -0.81,0.81 -0.95,0 -1.32,-1.44 -1.32,-1.53 0,-0.1 0.1,-0.1 0.12,-0.1 0.1,0 0.11,0.02 0.16,0.18 0.27,0.94 0.67,1.23 1.01,1.23 0.08,0 0.25,0 0.25,-0.31 0,-0.25 -0.1,-0.51 -0.17,-0.7 -0.4,-1.06 -0.58,-1.62 -0.58,-2.09 0,-0.89 0.63,-1.18 1.22,-1.18 0.38,0 0.72,0.16 1,0.44 -0.13,-0.51 -0.25,-1 -0.65,-1.53 -0.26,-0.34 -0.63,-0.63 -1.09,-0.63 -0.14,0 -0.59,0.03 -0.76,0.42 0.16,0 0.29,0 0.43,0.12 0.1,0.09 0.2,0.22 0.2,0.41 0,0.31 -0.27,0.35 -0.37,0.35 -0.23,0 -0.56,-0.16 -0.56,-0.65 0,-0.5 0.44,-0.86 1.06,-0.86 1.02,0 2.05,0.9 2.33,2.02 z"
   id="path5455" />
</g>    <g
       style="font-style:normal;font-variant:normal;font-weight:normal;font-stretch:normal;letter-spacing:normal;word-spacing:normal;text-anchor:start;fill:none;stroke:#000000;stroke-linecap:butt;stroke-linejoin:miter;stroke-miterlimit:10.43299961;stroke-opacity:1;stroke-dasharray:none;stroke-dashoffset:0"
       ns0:preamble=""
       ns0:text="$P(x,y,z)$"
       word-spacing="normal"
       letter-spacing="normal"
       font-size-adjust="none"
       font-stretch="normal"
       font-weight="normal"
       font-variant="normal"
       font-style="normal"
       stroke-miterlimit="10.433"
       xml:space="preserve"
       transform="matrix(3.5508458,0,0,-3.4066535,-44.647905,2500.134)"
       id="g5748">
<path
   id="path5750"
   d="m 226.45,710.27 0.04,0.26 0.68,2.71 c 0.09,0.34 0.11,0.37 0.54,0.37 h 0.95 c 0.83,0 1.36,-0.27 1.36,-0.95 0,-0.39 -0.2,-1.25 -0.59,-1.6 -0.5,-0.45 -1.09,-0.53 -1.53,-0.53 h -1.41 l -0.04,-0.26 h 1.7 c 1.41,0 2.8,1.03 2.8,2.15 0,0.77 -0.66,1.5 -1.97,1.5 h -3.22 c -0.19,0 -0.3,0 -0.3,-0.19 0,-0.12 0.08,-0.12 0.28,-0.12 0.13,0 0.31,-0.01 0.43,-0.02 0.16,-0.02 0.22,-0.05 0.22,-0.16 0,-0.03 -0.01,-0.07 -0.04,-0.18 l -1.33,-5.35 c -0.1,-0.39 -0.12,-0.47 -0.91,-0.47 -0.17,0 -0.28,0 -0.28,-0.19 0,-0.12 0.12,-0.12 0.15,-0.12 0.28,0 0.99,0.04 1.27,0.04 0.21,0 0.43,-0.01 0.63,-0.01 0.22,0 0.44,-0.03 0.65,-0.03 0.07,0 0.2,0 0.2,0.2 0,0.11 -0.09,0.11 -0.28,0.11 -0.37,0 -0.65,0 -0.65,0.18 0,0.06 0.02,0.11 0.03,0.17 z"
   inkscape:connector-curvature="0"
   style="fill:#000000;stroke-width:0" />
<path
   id="path5752"
   d="m 234.51,704.74 0,0 0,0.01 0,0 0,0 0,0.01 0,0 0,0 0,0.01 0,0 -0.01,0 0,0.01 0,0 -0.01,0.01 0,0 0,0.01 -0.01,0.01 0,0 -0.01,0.01 0,0 -0.01,0.01 0,0 0,0.01 -0.01,0 0,0 -0.01,0.01 0,0 0,0.01 -0.01,0 0,0.01 -0.01,0 0,0.01 -0.01,0.01 -0.01,0 0,0.01 -0.01,0 0,0.01 -0.01,0.01 -0.01,0.01 -0.01,0 0,0.01 -0.01,0.01 -0.01,0.01 c -1.24,1.25 -1.56,3.13 -1.56,4.65 0,1.73 0.38,3.47 1.6,4.71 0.13,0.12 0.13,0.14 0.13,0.17 0,0.07 -0.04,0.1 -0.1,0.1 -0.1,0 -1,-0.68 -1.58,-1.94 -0.51,-1.1 -0.63,-2.2 -0.63,-3.04 0,-0.77 0.11,-1.98 0.66,-3.1 0.6,-1.23 1.45,-1.87 1.55,-1.87 0.06,0 0.1,0.03 0.1,0.1 z"
   inkscape:connector-curvature="0"
   style="fill:#000000;stroke-width:0" />
<path
   id="path5754"
   d="m 238.41,710.13 0.01,0.03 0.01,0.03 0.01,0.03 0.01,0.04 0.01,0.03 0.01,0.05 0.01,0.04 0.02,0.04 0.01,0.05 0.02,0.05 0.02,0.05 0.02,0.05 0.02,0.05 0.03,0.05 0.02,0.05 0.03,0.04 0.03,0.05 0.03,0.05 0.03,0.05 0.04,0.04 0.04,0.04 0.04,0.04 0.04,0.04 0.04,0.04 0.05,0.03 0.05,0.03 0.02,0.01 0.03,0.01 0.02,0.02 0.03,0.01 0.03,0 0.03,0.01 0.03,0.01 0.03,0 0.03,0.01 0.03,0 0.03,0 0.03,0 c 0.05,0 0.29,0 0.5,-0.12 -0.28,-0.05 -0.48,-0.3 -0.48,-0.54 0,-0.16 0.11,-0.35 0.38,-0.35 0.22,0 0.54,0.18 0.54,0.58 0,0.52 -0.59,0.65 -0.93,0.65 -0.58,0 -0.92,-0.52 -1.04,-0.75 -0.25,0.65 -0.79,0.75 -1.08,0.75 -1.04,0 -1.61,-1.28 -1.61,-1.53 0,-0.1 0.1,-0.1 0.12,-0.1 0.08,0 0.11,0.02 0.13,0.11 0.34,1.06 1,1.3 1.34,1.3 0.19,0 0.54,-0.08 0.54,-0.66 0,-0.31 -0.17,-0.98 -0.54,-2.37 -0.16,-0.62 -0.51,-1.04 -0.95,-1.04 -0.06,0 -0.29,0 -0.5,0.13 0.25,0.05 0.47,0.26 0.47,0.54 0,0.27 -0.22,0.35 -0.37,0.35 -0.3,0 -0.54,-0.26 -0.54,-0.58 0,-0.45 0.49,-0.65 0.93,-0.65 0.66,0 1.02,0.69 1.05,0.75 0.12,-0.37 0.48,-0.75 1.07,-0.75 1.03,0 1.6,1.28 1.6,1.53 0,0.1 -0.09,0.1 -0.12,0.1 -0.09,0 -0.11,-0.04 -0.13,-0.11 -0.33,-1.07 -1.01,-1.31 -1.32,-1.31 -0.39,0 -0.55,0.32 -0.55,0.66 0,0.22 0.06,0.44 0.17,0.88 z"
   inkscape:connector-curvature="0"
   style="fill:#000000;stroke-width:0" />
<path
   id="path5756"
   d="m 242.8,707.14 0,0.06 0,0.06 0,0.05 -0.01,0.06 0,0.05 -0.01,0.06 -0.01,0.05 -0.01,0.05 -0.01,0.04 -0.02,0.05 -0.01,0.04 -0.02,0.04 -0.01,0.04 -0.02,0.04 -0.02,0.04 -0.02,0.03 -0.02,0.04 -0.02,0.03 -0.03,0.03 -0.02,0.02 -0.03,0.03 -0.02,0.02 -0.03,0.02 -0.03,0.02 -0.03,0.02 -0.03,0.01 -0.03,0.01 -0.04,0.01 -0.03,0.01 -0.03,0.01 -0.04,0 -0.04,0 c -0.32,0 -0.52,-0.25 -0.52,-0.53 0,-0.27 0.2,-0.53 0.52,-0.53 0.13,0 0.25,0.04 0.35,0.13 0.03,0.02 0.04,0.03 0.05,0.03 0.01,0 0.02,-0.01 0.02,-0.14 0,-0.74 -0.34,-1.34 -0.67,-1.67 -0.11,-0.11 -0.11,-0.13 -0.11,-0.16 0,-0.07 0.05,-0.11 0.1,-0.11 0.11,0 0.9,0.77 0.9,1.94 z"
   inkscape:connector-curvature="0"
   style="fill:#000000;stroke-width:0" />
<path
   id="path5758"
   d="m 250.06,710.92 0,0 0,0.01 0,0.01 0,0 0.01,0.01 0,0.01 0,0.01 0,0.01 0.01,0.01 0,0.01 0,0.01 0,0.01 0,0.01 0.01,0 0,0.01 0,0.01 0,0 0,0.01 0,0 0,0.01 0,0.01 0,0.01 0,0.01 0,0.01 0,0.01 0,0.01 0,0 0.01,0.01 0,0.01 c 0,0.18 -0.14,0.26 -0.29,0.26 -0.1,0 -0.26,-0.06 -0.35,-0.2 -0.02,-0.05 -0.1,-0.36 -0.14,-0.54 -0.07,-0.26 -0.14,-0.53 -0.2,-0.8 l -0.45,-1.79 c -0.04,-0.15 -0.47,-0.85 -1.13,-0.85 -0.5,0 -0.61,0.44 -0.61,0.81 0,0.46 0.17,1.08 0.5,1.95 0.16,0.41 0.2,0.52 0.2,0.72 0,0.45 -0.32,0.81 -0.81,0.81 -0.95,0 -1.32,-1.44 -1.32,-1.53 0,-0.1 0.1,-0.1 0.12,-0.1 0.1,0 0.11,0.02 0.16,0.18 0.27,0.94 0.67,1.23 1.01,1.23 0.08,0 0.25,0 0.25,-0.31 0,-0.25 -0.11,-0.51 -0.17,-0.7 -0.4,-1.06 -0.58,-1.62 -0.58,-2.09 0,-0.89 0.63,-1.18 1.21,-1.18 0.39,0 0.73,0.16 1.01,0.44 -0.13,-0.51 -0.25,-1 -0.65,-1.53 -0.26,-0.34 -0.63,-0.63 -1.09,-0.63 -0.14,0 -0.59,0.03 -0.76,0.42 0.16,0 0.29,0 0.43,0.12 0.1,0.09 0.2,0.22 0.2,0.41 0,0.31 -0.27,0.35 -0.37,0.35 -0.23,0 -0.56,-0.16 -0.56,-0.65 0,-0.5 0.44,-0.86 1.06,-0.86 1.02,0 2.05,0.9 2.33,2.02 z"
   inkscape:connector-curvature="0"
   style="fill:#000000;stroke-width:0" />
<path
   id="path5760"
   d="m 252.48,707.14 0,0.06 0,0.06 -0.01,0.05 0,0.06 -0.01,0.05 -0.01,0.06 -0.01,0.05 -0.01,0.05 -0.01,0.04 -0.01,0.05 -0.02,0.04 -0.01,0.04 -0.02,0.04 -0.02,0.04 -0.01,0.04 -0.03,0.03 -0.02,0.04 -0.02,0.03 -0.02,0.03 -0.03,0.02 -0.02,0.03 -0.03,0.02 -0.03,0.02 -0.03,0.02 -0.03,0.02 -0.03,0.01 -0.03,0.01 -0.03,0.01 -0.03,0.01 -0.04,0.01 -0.03,0 -0.04,0 c -0.33,0 -0.53,-0.25 -0.53,-0.53 0,-0.27 0.2,-0.53 0.53,-0.53 0.12,0 0.25,0.04 0.35,0.13 0.03,0.02 0.04,0.03 0.05,0.03 0.01,0 0.02,-0.01 0.02,-0.14 0,-0.74 -0.35,-1.34 -0.68,-1.67 -0.11,-0.11 -0.11,-0.13 -0.11,-0.16 0,-0.07 0.05,-0.11 0.1,-0.11 0.11,0 0.91,0.77 0.91,1.94 z"
   inkscape:connector-curvature="0"
   style="fill:#000000;stroke-width:0" />
<path
   id="path5762"
   d="m 256.2,707.95 0.05,0.05 0.05,0.06 0.05,0.04 0.04,0.05 0.05,0.05 0.04,0.04 0.04,0.05 0.04,0.04 0.04,0.04 0.04,0.04 0.04,0.04 0.04,0.03 0.04,0.04 0.03,0.03 0.07,0.07 0.07,0.06 0.07,0.06 0.06,0.06 0.07,0.06 0.13,0.11 0.06,0.06 0.07,0.06 c 0,0.01 0.62,0.53 0.97,0.89 0.95,0.93 1.17,1.41 1.17,1.44 0,0.1 -0.09,0.1 -0.11,0.1 -0.07,0 -0.1,-0.02 -0.15,-0.11 -0.3,-0.47 -0.51,-0.63 -0.75,-0.63 -0.23,0 -0.35,0.15 -0.5,0.32 -0.19,0.23 -0.36,0.42 -0.69,0.42 -0.75,0 -1.21,-0.92 -1.21,-1.13 0,-0.05 0.03,-0.11 0.12,-0.11 0.09,0 0.11,0.05 0.13,0.11 0.19,0.46 0.77,0.47 0.85,0.47 0.21,0 0.4,-0.07 0.63,-0.15 0.39,-0.15 0.51,-0.15 0.76,-0.15 -0.35,-0.43 -1.19,-1.15 -1.38,-1.3 l -0.9,-0.84 c -0.68,-0.67 -1.03,-1.24 -1.03,-1.31 0,-0.09 0.1,-0.09 0.12,-0.09 0.08,0 0.1,0.01 0.16,0.13 0.23,0.34 0.53,0.61 0.85,0.61 0.23,0 0.33,-0.09 0.58,-0.38 0.17,-0.21 0.35,-0.36 0.64,-0.36 0.98,0 1.56,1.26 1.56,1.53 0,0.05 -0.04,0.1 -0.12,0.1 -0.09,0 -0.11,-0.06 -0.14,-0.13 -0.23,-0.65 -0.87,-0.84 -1.19,-0.84 -0.2,0 -0.38,0.06 -0.59,0.13 -0.34,0.13 -0.49,0.17 -0.7,0.17 -0.02,0 -0.18,0 -0.27,-0.03 z"
   inkscape:connector-curvature="0"
   style="fill:#000000;stroke-width:0" />
<path
   id="path5764"
   d="m 262.83,709.61 0,0.08 0,0.07 0,0.08 -0.01,0.08 0,0.17 -0.02,0.18 -0.01,0.18 -0.02,0.19 -0.03,0.2 -0.03,0.19 -0.04,0.21 -0.05,0.21 -0.05,0.21 -0.06,0.21 -0.07,0.21 -0.08,0.21 -0.05,0.11 -0.04,0.11 -0.05,0.1 -0.05,0.11 c -0.6,1.22 -1.45,1.87 -1.55,1.87 -0.06,0 -0.1,-0.04 -0.1,-0.1 0,-0.03 0,-0.05 0.19,-0.23 0.97,-0.98 1.54,-2.57 1.54,-4.65 0,-1.7 -0.37,-3.45 -1.6,-4.7 -0.13,-0.12 -0.13,-0.14 -0.13,-0.17 0,-0.06 0.04,-0.1 0.1,-0.1 0.1,0 0.99,0.67 1.58,1.94 0.51,1.09 0.63,2.2 0.63,3.03 z"
   inkscape:connector-curvature="0"
   style="fill:#000000;stroke-width:0" />
</g>    <g
       id="g6075"
       transform="matrix(3.5508458,0,0,-3.4066535,-118.25292,2758.3334)"
       xml:space="preserve"
       stroke-miterlimit="10.433"
       font-style="normal"
       font-variant="normal"
       font-weight="normal"
       font-stretch="normal"
       font-size-adjust="none"
       letter-spacing="normal"
       word-spacing="normal"
       ns0:text="$q$"
       ns0:preamble=""
       style="font-style:normal;font-variant:normal;font-weight:normal;font-stretch:normal;letter-spacing:normal;word-spacing:normal;text-anchor:start;fill:none;stroke:#000000;stroke-linecap:butt;stroke-linejoin:miter;stroke-miterlimit:10.43299961;stroke-opacity:1;stroke-dasharray:none;stroke-dashoffset:0">
<path
   style="fill:#000000;stroke-width:0"
   inkscape:connector-curvature="0"
   d="m 227.94,711.41 0,0.01 0,0 0,0.01 0,0 0,0 -0.01,0.01 0,0 0,0.01 0,0 0,0 0,0.01 -0.01,0 0,0.01 0,0 0,0.01 -0.01,0 0,0 0,0.01 -0.01,0 0,0 0,0.01 -0.01,0 0,0 -0.01,0 0,0.01 -0.01,0 0,0 -0.01,0 0,0 -0.01,0 -0.01,0 0,0 c -0.11,0 -0.51,-0.39 -0.68,-0.68 -0.22,0.53 -0.61,0.69 -0.93,0.69 v -0.22 c 0.65,0 0.79,-0.8 0.79,-0.87 0,-0.06 -0.55,-2.24 -0.58,-2.28 -0.15,-0.28 -0.7,-0.92 -1.26,-0.92 h 0 c -0.6,0 -0.64,0.77 -0.64,0.94 0,0.48 0.29,1.56 0.46,1.98 0.31,0.74 0.82,1.15 1.23,1.15 v 0.22 c -1.17,0 -2.4,-1.47 -2.4,-2.91 0,-0.98 0.59,-1.59 1.32,-1.59 0.42,0 0.81,0.23 1.17,0.59 -0.09,-0.35 -0.42,-1.69 -0.45,-1.78 -0.08,-0.28 -0.16,-0.32 -0.71,-0.33 -0.13,0 -0.23,0 -0.23,-0.2 0,-0.01 0,-0.11 0.13,-0.11 0.32,0 0.67,0.03 0.99,0.03 0.34,0 0.7,-0.03 1.03,-0.03 0.05,0 0.18,0 0.18,0.2 0,0.11 -0.1,0.11 -0.26,0.11 -0.48,0 -0.48,0.07 -0.48,0.16 0,0.07 0.02,0.13 0.04,0.22 z"
   id="path6077" />
</g>    <g
       style="font-style:normal;font-variant:normal;font-weight:normal;font-stretch:normal;letter-spacing:normal;word-spacing:normal;text-anchor:start;fill:none;stroke:#000000;stroke-linecap:butt;stroke-linejoin:miter;stroke-miterlimit:10.43299961;stroke-opacity:1;stroke-dasharray:none;stroke-dashoffset:0"
       ns0:preamble=""
       ns0:text="$q\'$"
       word-spacing="normal"
       letter-spacing="normal"
       font-size-adjust="none"
       font-stretch="normal"
       font-weight="normal"
       font-variant="normal"
       font-style="normal"
       stroke-miterlimit="10.433"
       xml:space="preserve"
       transform="matrix(3.5508458,0,0,-3.4066535,-524.37734,2760.7582)"
       id="g6404">
<path
   style="fill:#000000;stroke-width:0"
   inkscape:connector-curvature="0"
   id="path6406"
   d="m 227.94,711.41 0,0.01 0,0 0,0.01 0,0 0,0 -0.01,0.01 0,0 0,0.01 0,0 0,0 0,0.01 -0.01,0 0,0.01 0,0 0,0.01 -0.01,0 0,0 0,0.01 -0.01,0 0,0 0,0.01 -0.01,0 0,0 -0.01,0 0,0.01 -0.01,0 0,0 -0.01,0 0,0 -0.01,0 -0.01,0 0,0 c -0.11,0 -0.51,-0.39 -0.68,-0.68 -0.22,0.53 -0.61,0.69 -0.93,0.69 v -0.22 c 0.65,0 0.79,-0.8 0.79,-0.87 0,-0.06 -0.55,-2.24 -0.58,-2.28 -0.15,-0.28 -0.7,-0.92 -1.26,-0.92 h 0 c -0.6,0 -0.64,0.77 -0.64,0.94 0,0.48 0.29,1.56 0.46,1.98 0.31,0.74 0.82,1.15 1.23,1.15 v 0.22 c -1.17,0 -2.4,-1.47 -2.4,-2.91 0,-0.98 0.59,-1.59 1.32,-1.59 0.42,0 0.81,0.23 1.17,0.59 -0.09,-0.35 -0.42,-1.69 -0.45,-1.78 -0.08,-0.28 -0.16,-0.32 -0.71,-0.33 -0.13,0 -0.23,0 -0.23,-0.2 0,-0.01 0,-0.11 0.13,-0.11 0.32,0 0.67,0.03 0.99,0.03 0.34,0 0.7,-0.03 1.03,-0.03 0.05,0 0.18,0 0.18,0.2 0,0.11 -0.1,0.11 -0.26,0.11 -0.48,0 -0.48,0.07 -0.48,0.16 0,0.07 0.02,0.13 0.04,0.22 z" />
<path
   style="fill:#000000;stroke-width:0"
   inkscape:connector-curvature="0"
   id="path6408"
   d="m 230.26,714.02 0,0.01 0.01,0.01 0,0.01 0.01,0.01 0,0.01 0,0.01 0.01,0.01 0,0.01 0,0.01 0.01,0.01 0,0 0,0.01 0,0.01 0.01,0.01 0,0 0,0.01 0,0.01 0,0 0,0.01 0,0 0,0.01 0.01,0.01 0,0 0,0.01 0,0.01 0,0.01 0,0.01 0,0 c 0,0.22 -0.2,0.39 -0.41,0.39 -0.27,0 -0.35,-0.22 -0.39,-0.33 l -0.91,-3.01 c -0.01,-0.01 -0.04,-0.11 -0.04,-0.11 0,-0.09 0.22,-0.15 0.27,-0.15 0.05,0 0.06,0.01 0.11,0.11 z" />
</g>    <g
       id="g6729"
       transform="matrix(3.5508458,0,0,-3.4066535,-226.88781,2852.5857)"
       xml:space="preserve"
       stroke-miterlimit="10.433"
       font-style="normal"
       font-variant="normal"
       font-weight="normal"
       font-stretch="normal"
       font-size-adjust="none"
       letter-spacing="normal"
       word-spacing="normal"
       ns0:text="$d$"
       ns0:preamble=""
       style="font-style:normal;font-variant:normal;font-weight:normal;font-stretch:normal;letter-spacing:normal;word-spacing:normal;text-anchor:start;fill:none;stroke:#000000;stroke-linecap:butt;stroke-linejoin:miter;stroke-miterlimit:10.43299961;stroke-opacity:1;stroke-dasharray:none;stroke-dashoffset:0">
<path
   style="fill:#000000;stroke-width:0"
   inkscape:connector-curvature="0"
   d="m 228.58,713.92 0,0 0,0 0,0.01 0,0 0,0 0,0 0,0.01 -0.01,0 0,0 0,0.01 0,0 0,0.01 0,0 0,0.01 0,0 -0.01,0.01 0,0 0,0.01 -0.01,0 0,0.01 -0.01,0 0,0 0,0 0,0.01 -0.01,0 0,0 0,0 -0.01,0 0,0.01 0,0 -0.01,0 0,0 0,0 -0.01,0 0,0.01 -0.01,0 0,0 -0.01,0 0,0 -0.01,0 0,0 -0.01,0 0,0 -0.01,0 0,0 c -0.15,0 -1.1,-0.09 -1.27,-0.11 -0.08,-0.01 -0.14,-0.06 -0.14,-0.19 0,-0.12 0.09,-0.12 0.24,-0.12 0.48,0 0.5,-0.07 0.5,-0.16 l -0.03,-0.2 -0.6,-2.36 c -0.18,0.37 -0.47,0.63 -0.92,0.63 -1.16,0 -2.4,-1.46 -2.4,-2.91 0,-0.94 0.55,-1.59 1.33,-1.59 l 0.02,0.21 c -0.5,0 -0.64,0.55 -0.64,0.94 0,0.5 0.32,1.72 0.55,2.18 0.31,0.59 0.75,0.95 1.15,0.95 0.65,0 0.79,-0.81 0.79,-0.87 0,-0.06 -0.02,-0.12 -0.03,-0.17 l -0.5,-1.95 c -0.05,-0.18 -0.05,-0.2 -0.2,-0.37 -0.44,-0.55 -0.84,-0.71 -1.12,-0.71 l -0.02,-0.21 c 0.2,0 0.69,0.03 1.29,0.74 0.08,-0.42 0.43,-0.74 0.91,-0.74 0.35,0 0.58,0.22 0.74,0.54 0.17,0.36 0.3,0.97 0.3,0.99 0,0.1 -0.09,0.1 -0.12,0.1 -0.1,0 -0.11,-0.04 -0.14,-0.18 -0.17,-0.65 -0.35,-1.24 -0.76,-1.24 -0.27,0 -0.3,0.26 -0.3,0.46 0,0.24 0.02,0.31 0.06,0.48 z"
   id="path6731" />
</g>    <g
       style="font-style:normal;font-variant:normal;font-weight:normal;font-stretch:normal;letter-spacing:normal;word-spacing:normal;text-anchor:start;fill:none;stroke:#000000;stroke-linecap:butt;stroke-linejoin:miter;stroke-miterlimit:10.43299961;stroke-opacity:1;stroke-dasharray:none;stroke-dashoffset:0"
       ns0:preamble=""
       ns0:text="$d\'$"
       word-spacing="normal"
       letter-spacing="normal"
       font-size-adjust="none"
       font-stretch="normal"
       font-weight="normal"
       font-variant="normal"
       font-style="normal"
       stroke-miterlimit="10.433"
       xml:space="preserve"
       transform="matrix(3.5508458,0,0,-3.4066535,-431.64556,2854.0504)"
       id="g7068">
<path
   style="fill:#000000;stroke-width:0"
   inkscape:connector-curvature="0"
   id="path7070"
   d="m 228.58,713.92 0,0 0,0 0,0.01 0,0 0,0 0,0 0,0.01 -0.01,0 0,0 0,0.01 0,0 0,0.01 0,0 0,0.01 0,0 -0.01,0.01 0,0 0,0.01 -0.01,0 0,0.01 -0.01,0 0,0 0,0 0,0.01 -0.01,0 0,0 0,0 -0.01,0 0,0.01 0,0 -0.01,0 0,0 0,0 -0.01,0 0,0.01 -0.01,0 0,0 -0.01,0 0,0 -0.01,0 0,0 -0.01,0 0,0 -0.01,0 0,0 c -0.15,0 -1.1,-0.09 -1.27,-0.11 -0.08,-0.01 -0.14,-0.06 -0.14,-0.19 0,-0.12 0.09,-0.12 0.24,-0.12 0.48,0 0.5,-0.07 0.5,-0.16 l -0.03,-0.2 -0.6,-2.36 c -0.18,0.37 -0.47,0.63 -0.92,0.63 -1.16,0 -2.4,-1.46 -2.4,-2.91 0,-0.94 0.55,-1.59 1.33,-1.59 l 0.02,0.21 c -0.5,0 -0.64,0.55 -0.64,0.94 0,0.5 0.32,1.72 0.55,2.18 0.31,0.59 0.75,0.95 1.15,0.95 0.65,0 0.79,-0.81 0.79,-0.87 0,-0.06 -0.02,-0.12 -0.03,-0.17 l -0.5,-1.95 c -0.05,-0.18 -0.05,-0.2 -0.2,-0.37 -0.44,-0.55 -0.84,-0.71 -1.12,-0.71 l -0.02,-0.21 c 0.2,0 0.69,0.03 1.29,0.74 0.08,-0.42 0.43,-0.74 0.91,-0.74 0.35,0 0.58,0.22 0.74,0.54 0.17,0.36 0.3,0.97 0.3,0.99 0,0.1 -0.09,0.1 -0.12,0.1 -0.1,0 -0.11,-0.04 -0.14,-0.18 -0.17,-0.65 -0.35,-1.24 -0.76,-1.24 -0.27,0 -0.3,0.26 -0.3,0.46 0,0.24 0.02,0.31 0.06,0.48 z" />
<path
   style="fill:#000000;stroke-width:0"
   inkscape:connector-curvature="0"
   id="path7072"
   d="m 230.64,714.02 0,0.01 0.01,0.01 0,0.01 0.01,0.01 0,0.01 0,0.01 0.01,0.01 0,0.01 0,0.01 0.01,0.01 0,0 0,0.01 0,0.01 0.01,0.01 0,0 0,0.01 0,0.01 0,0 0,0.01 0,0 0.01,0.01 0,0.01 0,0 0,0.01 0,0.01 0,0.01 0,0.01 0,0 c 0,0.22 -0.19,0.39 -0.41,0.39 -0.27,0 -0.35,-0.22 -0.38,-0.33 l -0.92,-3.01 c -0.01,-0.01 -0.04,-0.11 -0.04,-0.11 0,-0.09 0.22,-0.15 0.27,-0.15 0.05,0 0.06,0.01 0.11,0.11 z" />
</g>  </g>
</svg>
