<?xml version="1.0" encoding="UTF-8" standalone="no"?>
<!-- Created with Inkscape (http://www.inkscape.org/) -->

<svg
   xmlns:ns0="http://www.iki.fi/pav/software/textext/"
   xmlns:dc="http://purl.org/dc/elements/1.1/"
   xmlns:cc="http://creativecommons.org/ns#"
   xmlns:rdf="http://www.w3.org/1999/02/22-rdf-syntax-ns#"
   xmlns:svg="http://www.w3.org/2000/svg"
   xmlns="http://www.w3.org/2000/svg"
   xmlns:xlink="http://www.w3.org/1999/xlink"
   xmlns:sodipodi="http://sodipodi.sourceforge.net/DTD/sodipodi-0.dtd"
   xmlns:inkscape="http://www.inkscape.org/namespaces/inkscape"
   width="792pt"
   height="612pt"
   id="svg3530"
   version="1.1"
   inkscape:version="0.48.1 r9760"
   sodipodi:docname="fig-vectores.svg">
  <sodipodi:namedview
     inkscape:document-units="in"
     pagecolor="#ffffff"
     bordercolor="#666666"
     borderopacity="1.0"
     inkscape:pageopacity="0.0"
     inkscape:pageshadow="2"
     inkscape:zoom="0.81960784"
     inkscape:cx="497.44019"
     inkscape:cy="382.5"
     inkscape:current-layer="layer1"
     id="namedview3534"
     showgrid="false"
     inkscape:window-width="1438"
     inkscape:window-height="847"
     inkscape:window-x="0"
     inkscape:window-y="0"
     inkscape:window-maximized="1" />
  <defs
     id="defs3532">
    <clipPath
       clipPathUnits="userSpaceOnUse"
       id="clipPath3140-8-4">
      <path
         d="m 4526,1528.64 c 28.74,25.96 73.13,23.7 99.08,-5.04 25.96,-28.74 23.7,-73.13 -5.04,-99.08 -28.74,-25.95 -73.13,-23.69 -99.08,5.04 -25.26,27.97 -23.98,70.64 2.89,97.06"
         clip-rule="evenodd"
         id="path3142-7-9"
         inkscape:connector-curvature="0" />
    </clipPath>
    <radialGradient
       inkscape:collect="always"
       xlink:href="#radialGradient3144-7-6"
       id="radialGradient5862-1-5"
       gradientUnits="userSpaceOnUse"
       gradientTransform="matrix(2.17942,0,0,-2.17853,-876.783,443.504)"
       spreadMethod="pad"
       cx="612.12799"
       cy="135.8"
       fx="612.12799"
       fy="135.8"
       r="3.2196" />
    <radialGradient
       fx="612.12799"
       fy="135.8"
       cx="612.12799"
       cy="135.8"
       r="3.2196"
       gradientUnits="userSpaceOnUse"
       gradientTransform="matrix(2.17942,0,0,-2.17853,-876.783,443.504)"
       spreadMethod="pad"
       id="radialGradient3144-7-6">
      <stop
         style="stop-opacity:1;stop-color:#6c0000"
         offset="0"
         id="stop3146-4-3" />
      <stop
         style="stop-opacity:1;stop-color:#ff0000"
         offset="0.5"
         id="stop3148-9-3" />
      <stop
         style="stop-opacity:1;stop-color:#ffc500"
         offset="1"
         id="stop3150-9-2" />
    </radialGradient>
    <clipPath
       clipPathUnits="userSpaceOnUse"
       id="clipPath3140-8-4-6">
      <path
         d="m 4526,1528.64 c 28.74,25.96 73.13,23.7 99.08,-5.04 25.96,-28.74 23.7,-73.13 -5.04,-99.08 -28.74,-25.95 -73.13,-23.69 -99.08,5.04 -25.26,27.97 -23.98,70.64 2.89,97.06"
         clip-rule="evenodd"
         id="path3142-7-9-0"
         inkscape:connector-curvature="0" />
    </clipPath>
    <radialGradient
       inkscape:collect="always"
       xlink:href="#radialGradient3144-7-6-7"
       id="radialGradient5862-1-5-1"
       gradientUnits="userSpaceOnUse"
       gradientTransform="matrix(2.17942,0,0,-2.17853,-876.783,443.504)"
       spreadMethod="pad"
       cx="612.12799"
       cy="135.8"
       fx="612.12799"
       fy="135.8"
       r="3.2196" />
    <radialGradient
       fx="612.12799"
       fy="135.8"
       cx="612.12799"
       cy="135.8"
       r="3.2196"
       gradientUnits="userSpaceOnUse"
       gradientTransform="matrix(2.17942,0,0,-2.17853,-876.783,443.504)"
       spreadMethod="pad"
       id="radialGradient3144-7-6-7">
      <stop
         style="stop-opacity:1;stop-color:#6c0000"
         offset="0"
         id="stop3146-4-3-1" />
      <stop
         style="stop-opacity:1;stop-color:#ff0000"
         offset="0.5"
         id="stop3148-9-3-8" />
      <stop
         style="stop-opacity:1;stop-color:#ffc500"
         offset="1"
         id="stop3150-9-2-9" />
    </radialGradient>
    <clipPath
       clipPathUnits="userSpaceOnUse"
       id="clipPath3140-8-4-6-7">
      <path
         d="m 4526,1528.64 c 28.74,25.96 73.13,23.7 99.08,-5.04 25.96,-28.74 23.7,-73.13 -5.04,-99.08 -28.74,-25.95 -73.13,-23.69 -99.08,5.04 -25.26,27.97 -23.98,70.64 2.89,97.06"
         clip-rule="evenodd"
         id="path3142-7-9-0-0"
         inkscape:connector-curvature="0" />
    </clipPath>
    <radialGradient
       fx="612.12799"
       fy="135.8"
       cx="612.12799"
       cy="135.8"
       r="3.2196"
       gradientUnits="userSpaceOnUse"
       gradientTransform="matrix(2.17942,0,0,-2.17853,-876.783,443.504)"
       spreadMethod="pad"
       id="radialGradient3144-7-6-7-8">
      <stop
         style="stop-opacity:1;stop-color:#6c0000"
         offset="0"
         id="stop3146-4-3-1-3" />
      <stop
         style="stop-opacity:1;stop-color:#ff0000"
         offset="0.5"
         id="stop3148-9-3-8-3" />
      <stop
         style="stop-opacity:1;stop-color:#ffc500"
         offset="1"
         id="stop3150-9-2-9-0" />
    </radialGradient>
    <radialGradient
       inkscape:collect="always"
       xlink:href="#radialGradient3144-7-6-7-8"
       id="radialGradient9020"
       gradientUnits="userSpaceOnUse"
       gradientTransform="matrix(2.17942,0,0,-2.17853,-876.783,443.504)"
       spreadMethod="pad"
       cx="612.12799"
       cy="135.8"
       fx="612.12799"
       fy="135.8"
       r="3.2196" />
  </defs>
  <metadata
     id="metadata3536">
    <rdf:RDF>
      <cc:Work
         rdf:about="">
        <dc:format>image/svg+xml</dc:format>
        <dc:type
           rdf:resource="http://purl.org/dc/dcmitype/StillImage" />
        <dc:title></dc:title>
      </cc:Work>
    </rdf:RDF>
  </metadata>
  <g
     id="layer1"
     inkscape:groupmode="layer"
     inkscape:label="Layer 1">
    <g
       transform="matrix(0.04239116,0,0,0.04239116,-46.16827,-47.18418)"
       class="Drawing"
       id="g122"
       style="visibility:visible;stroke:#0000ff">
      <g
         id="g124"
         style="stroke:#0000ff">
        <g
           style="fill:none;stroke:#0000ff;stroke-width:102;stroke-linejoin:round"
           id="g126">
          <path
             inkscape:connector-curvature="0"
             style="fill:none;stroke:#0000ff"
             d="m 6688,11623 3217,408"
             id="path128" />
        </g>
        <g
           style="fill:#0000ff;stroke:#0000ff"
           id="g130">
          <path
             inkscape:connector-curvature="0"
             d="m 9792,12199 -42,42 662,-147 -605,-306 29,50 20,58 11,62 -1,65 -14,64 -26,59 -34,53 z"
             id="path132"
             style="stroke:#0000ff" />
        </g>
      </g>
    </g>
    <g
       transform="matrix(0.04239116,0,0,0.04239116,-43.423055,-53.284658)"
       class="Drawing"
       id="g110"
       style="visibility:visible;stroke:#0000ff">
      <g
         id="g112"
         style="stroke:#0000ff">
        <g
           style="fill:none;stroke:#0000ff;stroke-width:102;stroke-linejoin:round"
           id="g114">
          <path
             inkscape:connector-curvature="0"
             style="fill:none;stroke:#0000ff"
             d="M 6687,11722 7403,7694"
             id="path116" />
        </g>
        <g
           style="fill:#0000ff;stroke:#0000ff"
           id="g118">
          <path
             inkscape:connector-curvature="0"
             d="m 7565,7816 40,44 -114,-669 -336,589 52,-26 59,-18 62,-7 65,4 63,17 58,29 51,37 z"
             id="path120"
             style="stroke:#0000ff" />
        </g>
      </g>
    </g>
    <g
       transform="matrix(0.6561,0,0,0.6561,427.16938,-212.95207)"
       style="display:inline"
       id="g5864-5-1">
      <g
         transform="matrix(0.166375,0,0,-0.166375,-252.18234,898.72862)"
         id="g3136-9-0">
        <g
           clip-path="url(#clipPath3140-8-4)"
           id="g3138-4-8">
          <path
             id="path3152-0-4"
             style="fill:url(#radialGradient5862-1-5);fill-opacity:1;fill-rule:nonzero;stroke:none"
             d="m 4526,1528.64 c 28.74,25.96 73.13,23.7 99.08,-5.04 25.96,-28.74 23.7,-73.13 -5.04,-99.08 -28.74,-25.95 -73.13,-23.69 -99.08,5.04 -25.26,27.97 -23.98,70.64 2.89,97.06"
             inkscape:connector-curvature="0" />
        </g>
      </g>
      <path
         transform="matrix(0.99027744,0,0,1,6.5934197,2.3378248)"
         d="m 518.54754,650.71631 c 0,6.20743 -5.17302,11.23954 -11.55425,11.23954 -6.38124,0 -11.55425,-5.03211 -11.55425,-11.23954 0,-6.20743 5.17301,-11.23954 11.55425,-11.23954 6.38123,0 11.55425,5.03211 11.55425,11.23954 z"
         sodipodi:ry="11.239542"
         sodipodi:rx="11.55425"
         sodipodi:cy="650.71631"
         sodipodi:cx="506.99329"
         id="path5860-5-6"
         style="fill:none;stroke:#000000;stroke-width:3.76836371;stroke-miterlimit:4;stroke-opacity:1;stroke-dasharray:none;stroke-dashoffset:0"
         sodipodi:type="arc" />
    </g>
    <g
       transform="matrix(0.04239116,0,0,0.04239116,-44.338126,-46.574131)"
       class="Drawing"
       id="g134"
       style="visibility:visible;stroke:#0000ff">
      <path
         style="fill:#0000ff;stroke:#0000ff;stroke-width:2.49999999000000006;stroke-linecap:butt;stroke-linejoin:miter;stroke-opacity:1;stroke-miterlimit:4;stroke-dasharray:2.49999999000000006, 14.99999994999999942;stroke-dashoffset:0"
         d="M 237.91866,445.33493 C 761.33971,214.73684 761.33971,214.73684 761.33971,214.73684"
         id="path8967"
         inkscape:connector-curvature="0"
         transform="matrix(23.589824,0,0,23.589824,1045.9286,1098.6755)" />
    </g>
    <g
       transform="matrix(0.04239116,0,0,0.04239116,-40.067792,-48.709299)"
       class="Drawing"
       id="g190"
       style="visibility:visible;stroke:#0000ff">
      <g
         id="g192"
         style="stroke:#0000ff">
        <g
           style="fill:none;stroke:#0000ff;stroke-width:102;stroke-linejoin:round"
           id="g194">
          <path
             inkscape:connector-curvature="0"
             style="fill:none;stroke:#0000ff"
             d="M 6688,11623 9087,10551"
             id="path196" />
        </g>
        <g
           style="fill:#0000ff;stroke:#0000ff"
           id="g198">
          <path
             inkscape:connector-curvature="0"
             d="m 9077,10754 -14,58 490,-470 -676,53 50,28 48,39 41,47 33,56 21,62 9,64 -2,63 z"
             id="path200"
             style="stroke:#0000ff" />
        </g>
      </g>
    </g>
    <g
       transform="matrix(0.04239116,0,0,0.04239116,-46.16827,-48.404275)"
       class="Drawing"
       id="g202"
       style="visibility:visible;stroke:#ff0000">
      <g
         id="g204"
         style="stroke:#ff0000">
        <g
           style="fill:none;stroke:#ff0000;stroke-width:102;stroke-linejoin:round"
           id="g206">
          <path
             inkscape:connector-curvature="0"
             style="fill:none;stroke:#ff0000"
             d="M 16257.472,15284.055 18855,6709"
             id="path208"
             sodipodi:nodetypes="cc" />
        </g>
        <g
           style="fill:#ff0000;stroke:#ff0000"
           id="g210">
          <path
             inkscape:connector-curvature="0"
             d="m 19001,6849 36,48 -36,-677 -402,545 54,-19 61,-11 62,0 64,12 61,24 54,35 46,43 z"
             id="path212"
             style="stroke:#ff0000" />
        </g>
      </g>
    </g>
    <g
       ns0:preamble=""
       ns0:text="$\\vec{z}(t)$"
       word-spacing="normal"
       letter-spacing="normal"
       font-size-adjust="none"
       font-stretch="normal"
       font-weight="normal"
       font-variant="normal"
       font-style="normal"
       stroke-miterlimit="10.433"
       xml:space="preserve"
       transform="matrix(4,0,0,-4,-563.10047,2989.4593)"
       id="content"
       style="font-style:normal;font-variant:normal;font-weight:normal;font-stretch:normal;letter-spacing:normal;word-spacing:normal;text-anchor:start;fill:#000000;stroke:#000000;stroke-linecap:butt;stroke-linejoin:miter;stroke-miterlimit:10.43299961;stroke-opacity:1;stroke-dasharray:none;stroke-dashoffset:0">
<path
   id="path5151"
   d="m 228.62,713.05 -0.02,-0.02 -0.01,-0.01 -0.02,-0.01 -0.01,-0.02 -0.02,-0.01 -0.02,-0.02 -0.02,-0.02 -0.02,-0.01 -0.01,-0.02 -0.02,-0.02 -0.04,-0.04 -0.04,-0.04 -0.04,-0.04 -0.02,-0.02 -0.02,-0.02 -0.01,-0.02 -0.02,-0.02 -0.02,-0.02 -0.01,-0.02 -0.01,-0.02 -0.02,-0.02 -0.01,-0.02 -0.01,-0.02 -0.01,-0.02 -0.01,-0.02 0,-0.02 -0.01,-0.02 0,-0.01 0,-0.02 c 0,-0.1 0.1,-0.2 0.2,-0.2 0.09,0 0.14,0.07 0.19,0.13 0.12,0.15 0.35,0.43 0.78,0.65 0.08,0.04 0.17,0.09 0.17,0.21 0,0.09 -0.07,0.15 -0.14,0.2 -0.22,0.14 -0.32,0.32 -0.4,0.56 -0.02,0.09 -0.06,0.22 -0.2,0.22 -0.14,0 -0.2,-0.13 -0.2,-0.21 0,-0.05 0.08,-0.37 0.24,-0.57 h -3.36 c -0.17,0 -0.35,0 -0.35,-0.2 0,-0.2 0.18,-0.2 0.35,-0.2 z"
   inkscape:connector-curvature="0"
   style="fill:#000000;stroke-width:0" />
<path
   id="path5153"
   d="m 224.76,707.95 0.05,0.05 0.05,0.06 0.04,0.04 0.05,0.05 0.04,0.05 0.05,0.04 0.04,0.05 0.04,0.04 0.04,0.04 0.04,0.04 0.04,0.04 0.04,0.03 0.03,0.04 0.04,0.03 0.07,0.07 0.07,0.06 0.06,0.06 0.07,0.06 0.06,0.06 0.13,0.11 0.07,0.06 0.07,0.06 c 0,0.01 0.61,0.53 0.97,0.89 0.95,0.93 1.17,1.41 1.17,1.44 0,0.1 -0.09,0.1 -0.11,0.1 -0.07,0 -0.1,-0.02 -0.15,-0.11 -0.3,-0.47 -0.51,-0.63 -0.75,-0.63 -0.24,0 -0.36,0.15 -0.51,0.32 -0.19,0.23 -0.36,0.42 -0.68,0.42 -0.75,0 -1.21,-0.92 -1.21,-1.13 0,-0.05 0.03,-0.11 0.12,-0.11 0.09,0 0.11,0.05 0.13,0.11 0.19,0.46 0.77,0.47 0.85,0.47 0.21,0 0.4,-0.07 0.62,-0.15 0.4,-0.15 0.51,-0.15 0.77,-0.15 -0.36,-0.43 -1.19,-1.15 -1.38,-1.3 l -0.9,-0.84 c -0.68,-0.67 -1.03,-1.24 -1.03,-1.31 0,-0.09 0.1,-0.09 0.12,-0.09 0.08,0 0.1,0.01 0.16,0.13 0.23,0.34 0.53,0.61 0.85,0.61 0.23,0 0.33,-0.09 0.58,-0.38 0.17,-0.21 0.35,-0.36 0.64,-0.36 0.98,0 1.56,1.26 1.56,1.53 0,0.05 -0.04,0.1 -0.12,0.1 -0.09,0 -0.11,-0.06 -0.14,-0.13 -0.23,-0.65 -0.87,-0.84 -1.2,-0.84 -0.19,0 -0.38,0.06 -0.58,0.13 -0.34,0.13 -0.49,0.17 -0.7,0.17 -0.02,0 -0.18,0 -0.27,-0.03 z"
   inkscape:connector-curvature="0"
   style="fill:#000000;stroke-width:0" />
<path
   id="path5155"
   d="m 231.8,704.74 0,0 0,0.01 0,0 0,0 0,0.01 0,0 0,0 0,0.01 0,0 -0.01,0 0,0.01 0,0 0,0.01 -0.01,0 0,0.01 -0.01,0.01 0,0 -0.01,0.01 0,0 -0.01,0.01 0,0 0,0.01 -0.01,0 0,0 0,0.01 -0.01,0 0,0.01 -0.01,0 0,0.01 -0.01,0 0,0.01 -0.01,0.01 0,0 -0.01,0.01 -0.01,0 0,0.01 -0.01,0.01 -0.01,0.01 0,0 -0.01,0.01 -0.01,0.01 -0.01,0.01 c -1.24,1.25 -1.56,3.13 -1.56,4.65 0,1.73 0.38,3.47 1.6,4.71 0.13,0.12 0.13,0.14 0.13,0.17 0,0.07 -0.04,0.1 -0.1,0.1 -0.1,0 -0.99,-0.68 -1.58,-1.94 -0.51,-1.1 -0.63,-2.2 -0.63,-3.04 0,-0.77 0.11,-1.98 0.66,-3.1 0.6,-1.23 1.45,-1.87 1.55,-1.87 0.06,0 0.1,0.03 0.1,0.1 z"
   inkscape:connector-curvature="0"
   style="fill:#000000;stroke-width:0" />
<path
   id="path5157"
   d="m 234.43,711.11 h 0.94 c 0.2,0 0.3,0 0.3,0.19 0,0.11 -0.1,0.11 -0.28,0.11 h -0.88 c 0.36,1.42 0.41,1.62 0.41,1.68 0,0.17 -0.12,0.26 -0.29,0.26 -0.03,0 -0.31,-0.01 -0.4,-0.35 l -0.39,-1.59 h -0.93 c -0.2,0 -0.3,0 -0.3,-0.19 0,-0.11 0.08,-0.11 0.28,-0.11 h 0.87 c -0.71,-2.83 -0.75,-3 -0.75,-3.18 0,-0.54 0.37,-0.91 0.91,-0.91 1.02,0 1.59,1.45 1.59,1.53 0,0.1 -0.08,0.1 -0.12,0.1 -0.09,0 -0.1,-0.03 -0.15,-0.14 -0.43,-1.04 -0.96,-1.28 -1.3,-1.28 -0.21,0 -0.31,0.13 -0.31,0.46 0,0.24 0.02,0.31 0.06,0.48 z"
   inkscape:connector-curvature="0"
   style="fill:#000000;stroke-width:0" />
<path
   id="path5159"
   d="m 238.86,709.61 0,0.08 -0.01,0.07 0,0.08 0,0.08 -0.01,0.17 -0.01,0.18 -0.02,0.18 -0.02,0.19 -0.02,0.2 -0.04,0.19 -0.04,0.21 -0.04,0.21 -0.06,0.21 -0.06,0.21 -0.07,0.21 -0.08,0.21 -0.04,0.11 -0.04,0.11 -0.05,0.1 -0.05,0.11 c -0.6,1.22 -1.46,1.87 -1.56,1.87 -0.06,0 -0.1,-0.04 -0.1,-0.1 0,-0.03 0,-0.05 0.19,-0.23 0.98,-0.98 1.55,-2.57 1.55,-4.65 0,-1.7 -0.37,-3.45 -1.61,-4.7 -0.13,-0.12 -0.13,-0.14 -0.13,-0.17 0,-0.06 0.04,-0.1 0.1,-0.1 0.1,0 1,0.67 1.59,1.94 0.51,1.09 0.63,2.2 0.63,3.03 z"
   inkscape:connector-curvature="0"
   style="fill:#000000;stroke-width:0" />
</g>    <g
       style="font-style:normal;font-variant:normal;font-weight:normal;font-stretch:normal;letter-spacing:normal;word-spacing:normal;text-anchor:start;fill:none;stroke:#000000;stroke-linecap:butt;stroke-linejoin:miter;stroke-miterlimit:10.43299961;stroke-opacity:1;stroke-dasharray:none;stroke-dashoffset:0"
       ns0:preamble=""
       ns0:text="$\\hat{n}$"
       word-spacing="normal"
       letter-spacing="normal"
       font-size-adjust="none"
       font-stretch="normal"
       font-weight="normal"
       font-variant="normal"
       font-style="normal"
       stroke-miterlimit="10.433"
       xml:space="preserve"
       transform="matrix(4,0,0,-4,-585.03331,3222.7901)"
       id="g5725">
<polygon
   id="polygon5727"
   points="225.27,712.5 226.42,713.52 227.57,712.5 227.75,712.68 226.42,714.03 225.09,712.68 "
   style="fill:#000000;stroke-width:0" />
<path
   id="path5729"
   d="m 224.31,707.71 0,-0.01 -0.01,-0.02 0,-0.01 0,-0.02 -0.01,-0.03 -0.01,-0.03 0,-0.03 -0.01,-0.04 -0.01,-0.03 -0.01,-0.03 0,-0.01 0,-0.02 -0.01,-0.01 0,-0.02 0,-0.01 -0.01,-0.01 0,-0.02 0,-0.01 0,-0.01 0,-0.01 -0.01,-0.01 0,-0.01 0,-0.01 0,0 0,-0.01 0,-0.01 c 0,-0.18 0.14,-0.26 0.29,-0.26 0.12,0 0.3,0.07 0.37,0.27 0.01,0.02 0.13,0.49 0.19,0.74 l 0.22,0.9 c 0.06,0.22 0.12,0.43 0.17,0.66 0.03,0.17 0.11,0.46 0.13,0.5 0.15,0.31 0.67,1.21 1.62,1.21 0.45,0 0.54,-0.36 0.54,-0.69 0,-0.62 -0.49,-1.89 -0.65,-2.32 -0.09,-0.23 -0.1,-0.35 -0.1,-0.46 0,-0.47 0.35,-0.81 0.82,-0.81 0.94,0 1.3,1.45 1.3,1.53 0,0.1 -0.09,0.1 -0.12,0.1 -0.1,0 -0.1,-0.03 -0.15,-0.18 -0.2,-0.68 -0.52,-1.24 -1.01,-1.24 -0.17,0 -0.24,0.1 -0.24,0.33 0,0.25 0.09,0.49 0.18,0.71 0.19,0.53 0.61,1.62 0.61,2.19 0,0.67 -0.43,1.06 -1.15,1.06 -0.9,0 -1.39,-0.63 -1.56,-0.86 -0.05,0.56 -0.45,0.86 -0.91,0.86 -0.46,0 -0.65,-0.38 -0.75,-0.56 -0.16,-0.34 -0.3,-0.93 -0.3,-0.97 0,-0.1 0.1,-0.1 0.12,-0.1 0.1,0 0.11,0.01 0.17,0.23 0.17,0.71 0.37,1.18 0.73,1.18 0.2,0 0.31,-0.12 0.31,-0.45 0,-0.21 -0.03,-0.32 -0.16,-0.84 z"
   inkscape:connector-curvature="0"
   style="fill:#000000;stroke-width:0" />
</g>    <g
       id="g6930"
       transform="matrix(4,0,0,-4,-510.34627,3282.1144)"
       xml:space="preserve"
       stroke-miterlimit="10.433"
       font-style="normal"
       font-variant="normal"
       font-weight="normal"
       font-stretch="normal"
       font-size-adjust="none"
       letter-spacing="normal"
       word-spacing="normal"
       ns0:text="$\\vec{a}$"
       ns0:preamble=""
       style="font-style:normal;font-variant:normal;font-weight:normal;font-stretch:normal;letter-spacing:normal;word-spacing:normal;text-anchor:start;fill:none;stroke:#000000;stroke-linecap:butt;stroke-linejoin:miter;stroke-miterlimit:10.43299961;stroke-opacity:1;stroke-dasharray:none;stroke-dashoffset:0">
<path
   d="m 228.16,713.05 -0.01,-0.02 -0.02,-0.01 -0.01,-0.01 -0.02,-0.02 -0.02,-0.01 -0.01,-0.02 -0.02,-0.02 -0.02,-0.01 -0.02,-0.02 -0.02,-0.02 -0.04,-0.04 -0.04,-0.04 -0.04,-0.04 -0.01,-0.02 -0.02,-0.02 -0.02,-0.02 -0.02,-0.02 -0.01,-0.02 -0.02,-0.02 -0.01,-0.02 -0.01,-0.02 -0.02,-0.02 -0.01,-0.02 0,-0.02 -0.01,-0.02 -0.01,-0.02 0,-0.02 -0.01,-0.01 0,-0.02 c 0,-0.1 0.1,-0.2 0.2,-0.2 0.09,0 0.14,0.07 0.19,0.13 0.12,0.15 0.35,0.43 0.79,0.65 0.07,0.04 0.17,0.09 0.17,0.21 0,0.09 -0.07,0.15 -0.14,0.2 -0.22,0.14 -0.33,0.32 -0.41,0.56 -0.02,0.09 -0.06,0.22 -0.2,0.22 -0.14,0 -0.2,-0.13 -0.2,-0.21 0,-0.05 0.08,-0.37 0.24,-0.57 h -3.36 c -0.17,0 -0.35,0 -0.35,-0.2 0,-0.2 0.18,-0.2 0.35,-0.2 z"
   id="path6932"
   inkscape:connector-curvature="0"
   style="fill:#000000;stroke-width:0" />
<path
   d="m 227.15,710.89 -0.01,0.03 -0.02,0.03 -0.02,0.04 -0.02,0.03 -0.02,0.03 -0.02,0.03 -0.02,0.03 -0.02,0.03 -0.02,0.03 -0.03,0.03 -0.02,0.02 -0.03,0.03 -0.02,0.03 -0.03,0.02 -0.03,0.02 -0.02,0.02 -0.03,0.02 -0.03,0.02 -0.03,0.02 -0.03,0.02 -0.04,0.02 -0.03,0.01 -0.03,0.01 -0.04,0.02 -0.03,0.01 -0.04,0.01 -0.03,0 -0.04,0.01 -0.04,0.01 -0.04,0 -0.04,0 -0.04,0 c -1.17,0 -2.41,-1.46 -2.41,-2.91 0,-0.94 0.55,-1.59 1.33,-1.59 l 0.02,0.21 c -0.5,0 -0.64,0.55 -0.64,0.94 0,0.5 0.32,1.72 0.55,2.18 0.31,0.59 0.76,0.95 1.16,0.95 0.65,0 0.78,-0.81 0.78,-0.87 0,-0.06 -0.02,-0.12 -0.03,-0.17 l -0.49,-1.95 c -0.05,-0.18 -0.05,-0.2 -0.2,-0.37 -0.44,-0.55 -0.85,-0.71 -1.13,-0.71 l -0.02,-0.21 c 0.2,0 0.7,0.03 1.3,0.74 0.08,-0.42 0.42,-0.74 0.9,-0.74 0.35,0 0.58,0.22 0.74,0.54 0.17,0.36 0.3,0.97 0.3,0.99 0,0.1 -0.09,0.1 -0.12,0.1 -0.1,0 -0.11,-0.04 -0.14,-0.18 -0.17,-0.65 -0.35,-1.24 -0.76,-1.24 -0.27,0 -0.3,0.26 -0.3,0.46 0,0.22 0.02,0.3 0.13,0.74 0.11,0.42 0.13,0.52 0.22,0.89 l 0.36,1.4 c 0.07,0.28 0.07,0.3 0.07,0.34 0,0.16 -0.12,0.27 -0.29,0.27 -0.24,0 -0.39,-0.22 -0.42,-0.44 z"
   id="path6934"
   inkscape:connector-curvature="0"
   style="fill:#000000;stroke-width:0" />
</g>    <g
       style="font-style:normal;font-variant:normal;font-weight:normal;font-stretch:normal;letter-spacing:normal;word-spacing:normal;text-anchor:start;fill:none;stroke:#000000;stroke-linecap:butt;stroke-linejoin:miter;stroke-miterlimit:10.43299961;stroke-opacity:1;stroke-dasharray:none;stroke-dashoffset:0"
       ns0:preamble=""
       ns0:text="$\\vec{v}$"
       word-spacing="normal"
       letter-spacing="normal"
       font-size-adjust="none"
       font-stretch="normal"
       font-weight="normal"
       font-variant="normal"
       font-style="normal"
       stroke-miterlimit="10.433"
       xml:space="preserve"
       transform="matrix(4,0,0,-4,-670.44001,3150.8046)"
       id="g7163">
<path
   id="path7165"
   d="m 228.4,713.05 -0.02,-0.02 -0.01,-0.01 -0.02,-0.01 -0.01,-0.02 -0.02,-0.01 -0.02,-0.02 -0.02,-0.02 -0.01,-0.01 -0.02,-0.02 -0.02,-0.02 -0.04,-0.04 -0.04,-0.04 -0.04,-0.04 -0.02,-0.02 -0.02,-0.02 -0.01,-0.02 -0.02,-0.02 -0.02,-0.02 -0.01,-0.02 -0.01,-0.02 -0.02,-0.02 -0.01,-0.02 -0.01,-0.02 -0.01,-0.02 -0.01,-0.02 0,-0.02 -0.01,-0.02 0,-0.01 0,-0.02 c 0,-0.1 0.1,-0.2 0.2,-0.2 0.09,0 0.14,0.07 0.19,0.13 0.12,0.15 0.35,0.43 0.79,0.65 0.07,0.04 0.16,0.09 0.16,0.21 0,0.09 -0.06,0.15 -0.13,0.2 -0.22,0.14 -0.33,0.32 -0.41,0.56 -0.02,0.09 -0.06,0.22 -0.2,0.22 -0.14,0 -0.2,-0.13 -0.2,-0.21 0,-0.05 0.08,-0.37 0.24,-0.57 h -3.36 c -0.17,0 -0.35,0 -0.35,-0.2 0,-0.2 0.18,-0.2 0.35,-0.2 z"
   inkscape:connector-curvature="0"
   style="fill:#000000;stroke-width:0" />
<path
   id="path7167"
   d="m 228.1,710.83 0,0.02 0,0.03 0,0.02 0,0.02 -0.01,0.03 0,0.02 0,0.02 0,0.02 -0.01,0.04 -0.01,0.04 0,0.04 -0.01,0.03 -0.01,0.04 -0.02,0.03 -0.01,0.03 -0.01,0.02 -0.02,0.03 -0.01,0.02 -0.02,0.03 -0.01,0.02 -0.02,0.02 -0.02,0.01 -0.01,0.02 -0.02,0.02 -0.02,0.01 -0.02,0.01 -0.02,0.01 -0.02,0.01 -0.01,0.01 -0.02,0.01 -0.02,0 -0.02,0.01 -0.02,0 -0.02,0 -0.01,0 -0.02,0 c -0.25,0 -0.49,-0.25 -0.49,-0.47 0,-0.13 0.05,-0.19 0.16,-0.3 0.21,-0.2 0.34,-0.46 0.34,-0.82 0,-0.42 -0.61,-2.7 -1.77,-2.7 -0.51,0 -0.74,0.35 -0.74,0.87 0,0.56 0.27,1.28 0.58,2.11 0.07,0.17 0.12,0.31 0.12,0.5 0,0.45 -0.32,0.81 -0.82,0.81 -0.94,0 -1.32,-1.44 -1.32,-1.53 0,-0.1 0.1,-0.1 0.12,-0.1 0.1,0 0.11,0.02 0.16,0.18 0.29,1.01 0.72,1.23 1.01,1.23 0.08,0 0.25,0 0.25,-0.31 0,-0.25 -0.1,-0.52 -0.17,-0.7 -0.44,-1.15 -0.57,-1.61 -0.57,-2.04 0,-1.08 0.88,-1.23 1.34,-1.23 1.67,0 2.24,3.29 2.24,3.81 z"
   inkscape:connector-curvature="0"
   style="fill:#000000;stroke-width:0" />
</g>    <g
       transform="matrix(0.04239116,0,0,0.04239116,-46.16827,-48.404275)"
       class="Drawing"
       id="g102"
       style="visibility:visible;stroke:#000000">
      <g
         id="g104"
         style="stroke:#000000">
        <g
           style="fill:none;stroke:#000000;stroke-width:100;stroke-linejoin:round"
           id="g106">
          <path
             sodipodi:nodetypes="cccc"
             inkscape:connector-curvature="0"
             style="fill:none;stroke:#000000"
             d="M 8639.7995,3395.0013 C 8557.9811,5534.9837 8374.7818,7293.4174 7595.9092,8969.7995 7164.6521,10060.795 6435.046,11644.819 6367.9634,15320.455 l 36.454,866.125"
             id="path108" />
        </g>
      </g>
    </g>
    <g
       style="font-style:normal;font-variant:normal;font-weight:normal;font-stretch:normal;letter-spacing:normal;word-spacing:normal;text-anchor:start;fill:none;stroke:#000000;stroke-linecap:butt;stroke-linejoin:miter;stroke-miterlimit:10.43299961;stroke-opacity:1;stroke-dasharray:none;stroke-dashoffset:0"
       id="g7387"
       transform="matrix(4,0,0,-4,-505.95694,3385.5502)"
       xml:space="preserve"
       stroke-miterlimit="10.433"
       font-style="normal"
       font-variant="normal"
       font-weight="normal"
       font-stretch="normal"
       font-size-adjust="none"
       letter-spacing="normal"
       word-spacing="normal"
       ns0:text="$\\vec{x}\'$"
       ns0:preamble="">
<path
   style="fill:#000000;stroke-width:0"
   inkscape:connector-curvature="0"
   d="m 228.65,713.05 -0.01,-0.02 -0.02,-0.01 -0.01,-0.01 -0.02,-0.02 -0.02,-0.01 -0.01,-0.02 -0.02,-0.02 -0.02,-0.01 -0.02,-0.02 -0.02,-0.02 -0.04,-0.04 -0.04,-0.04 -0.03,-0.04 -0.02,-0.02 -0.02,-0.02 -0.02,-0.02 -0.01,-0.02 -0.02,-0.02 -0.02,-0.02 -0.01,-0.02 -0.01,-0.02 -0.01,-0.02 -0.01,-0.02 -0.01,-0.02 -0.01,-0.02 -0.01,-0.02 0,-0.02 -0.01,-0.01 0,-0.02 c 0,-0.1 0.1,-0.2 0.2,-0.2 0.09,0 0.14,0.07 0.19,0.13 0.12,0.15 0.35,0.43 0.79,0.65 0.07,0.04 0.17,0.09 0.17,0.21 0,0.09 -0.07,0.15 -0.14,0.2 -0.22,0.14 -0.33,0.32 -0.41,0.56 -0.02,0.09 -0.06,0.22 -0.2,0.22 -0.14,0 -0.2,-0.13 -0.2,-0.21 0,-0.05 0.08,-0.37 0.24,-0.57 h -3.36 c -0.17,0 -0.35,0 -0.35,-0.2 0,-0.2 0.18,-0.2 0.35,-0.2 z"
   id="path7389" />
<path
   style="fill:#000000;stroke-width:0"
   inkscape:connector-curvature="0"
   d="m 226.76,710.13 0,0.03 0.01,0.03 0.01,0.03 0.01,0.04 0.01,0.03 0.01,0.05 0.01,0.04 0.02,0.04 0.02,0.05 0.01,0.05 0.02,0.05 0.02,0.05 0.02,0.05 0.03,0.05 0.02,0.05 0.03,0.04 0.03,0.05 0.03,0.05 0.04,0.05 0.03,0.04 0.04,0.04 0.04,0.04 0.04,0.04 0.04,0.04 0.05,0.03 0.05,0.03 0.03,0.01 0.02,0.01 0.03,0.02 0.02,0.01 0.03,0 0.03,0.01 0.03,0.01 0.03,0 0.03,0.01 0.03,0 0.03,0 0.03,0 c 0.05,0 0.29,0 0.5,-0.12 -0.28,-0.05 -0.48,-0.3 -0.48,-0.54 0,-0.16 0.11,-0.35 0.38,-0.35 0.22,0 0.54,0.18 0.54,0.58 0,0.52 -0.59,0.65 -0.92,0.65 -0.58,0 -0.93,-0.52 -1.05,-0.75 -0.25,0.65 -0.79,0.75 -1.08,0.75 -1.03,0 -1.6,-1.28 -1.6,-1.53 0,-0.1 0.1,-0.1 0.12,-0.1 0.08,0 0.11,0.02 0.13,0.11 0.34,1.06 0.99,1.3 1.33,1.3 0.19,0 0.54,-0.08 0.54,-0.66 0,-0.31 -0.17,-0.98 -0.54,-2.37 -0.16,-0.62 -0.51,-1.04 -0.95,-1.04 -0.06,0 -0.28,0 -0.49,0.13 0.24,0.05 0.46,0.26 0.46,0.54 0,0.27 -0.22,0.35 -0.36,0.35 -0.3,0 -0.55,-0.26 -0.55,-0.58 0,-0.45 0.5,-0.65 0.93,-0.65 0.66,0 1.02,0.69 1.05,0.75 0.12,-0.37 0.48,-0.75 1.08,-0.75 1.02,0 1.59,1.28 1.59,1.53 0,0.1 -0.09,0.1 -0.12,0.1 -0.09,0 -0.11,-0.04 -0.13,-0.11 -0.33,-1.07 -1,-1.31 -1.32,-1.31 -0.39,0 -0.55,0.32 -0.55,0.66 0,0.22 0.06,0.44 0.17,0.88 z"
   id="path7391" />
<path
   style="fill:#000000;stroke-width:0"
   inkscape:connector-curvature="0"
   d="m 231.15,714.02 0,0.01 0.01,0.01 0,0.01 0,0.01 0.01,0.01 0,0.01 0.01,0.01 0,0.01 0,0.01 0,0.01 0.01,0 0,0.01 0,0.01 0,0.01 0.01,0 0,0.01 0,0.01 0,0 0,0.01 0,0 0,0.01 0,0.01 0.01,0 0,0.01 0,0.01 0,0.01 0,0.01 0,0 c 0,0.22 -0.2,0.39 -0.41,0.39 -0.27,0 -0.35,-0.22 -0.39,-0.33 l -0.92,-3.01 c 0,-0.01 -0.03,-0.11 -0.03,-0.11 0,-0.09 0.22,-0.15 0.27,-0.15 0.05,0 0.06,0.01 0.11,0.11 z"
   id="path7393" />
</g>    <g
       style="font-style:normal;font-variant:normal;font-weight:normal;font-stretch:normal;letter-spacing:normal;word-spacing:normal;text-anchor:start;fill:none;stroke:#000000;stroke-linecap:butt;stroke-linejoin:miter;stroke-miterlimit:10.43299961;stroke-opacity:1;stroke-dasharray:none;stroke-dashoffset:0"
       ns0:preamble=""
       ns0:text="$O$"
       text-anchor="start"
       word-spacing="normal"
       letter-spacing="normal"
       font-size-adjust="none"
       font-stretch="normal"
       font-weight="normal"
       font-variant="normal"
       font-style="normal"
       fill-opacity="1"
       fill-rule="evenodd"
       fill="none"
       stroke-opacity="1"
       stroke-dashoffset="0"
       stroke-dasharray="none"
       stroke-miterlimit="10.433"
       stroke-linejoin="miter"
       stroke-linecap="butt"
       stroke="black"
       xml:space="preserve"
       transform="matrix(4,0,0,-4,-263.88694,3471.2292)"
       id="g7614">
<path
   id="path7616"
   fill="black"
   stroke-width="0"
   d="M230.81,711.46 L230.81,711.61 L230.8,711.76 L230.78,711.9 L230.76,712.04 L230.73,712.17 L230.7,712.31 L230.66,712.43 L230.62,712.56 L230.57,712.68 L230.52,712.8 L230.46,712.91 L230.4,713.02 L230.33,713.12 L230.25,713.22 L230.18,713.31 L230.09,713.4 L230.01,713.49 L229.92,713.57 L229.82,713.65 L229.72,713.72 L229.62,713.78 L229.51,713.84 L229.4,713.9 L229.29,713.95 L229.17,713.99 L229.05,714.03 L228.93,714.06 L228.8,714.09 L228.67,714.11 L228.54,714.13 L228.4,714.14 L228.27,714.14 L228.21,713.89 C229.02,713.89,229.92,713.34,229.92,711.85 C229.92,711.14,229.65,709.58,228.66,708.36 C228.19,707.75,227.37,707.16,226.53,707.16 H226.53 C225.54,707.16,224.85,707.97,224.85,709.28 C224.85,709.72,224.99,711.18,225.76,712.34 C226.44,713.38,227.42,713.89,228.21,713.89 L228.27,714.14 C226.11,714.14,223.92,711.88,223.92,709.56 C223.92,707.91,225.04,706.91,226.47,706.91 C228.59,706.91,230.81,709.09,230.81,711.46 Z " />
</g>    <g
       id="g7841"
       transform="matrix(4,0,0,-4,-181.46287,3271.5536)"
       xml:space="preserve"
       stroke="black"
       stroke-linecap="butt"
       stroke-linejoin="miter"
       stroke-miterlimit="10.433"
       stroke-dasharray="none"
       stroke-dashoffset="0"
       stroke-opacity="1"
       fill="none"
       fill-rule="evenodd"
       fill-opacity="1"
       font-style="normal"
       font-variant="normal"
       font-weight="normal"
       font-stretch="normal"
       font-size-adjust="none"
       letter-spacing="normal"
       word-spacing="normal"
       text-anchor="start"
       ns0:text="$\\vec{x}$"
       ns0:preamble=""
       style="font-style:normal;font-variant:normal;font-weight:normal;font-stretch:normal;letter-spacing:normal;word-spacing:normal;text-anchor:start;fill:none;stroke:#000000;stroke-linecap:butt;stroke-linejoin:miter;stroke-miterlimit:10.43299961;stroke-opacity:1;stroke-dasharray:none;stroke-dashoffset:0">
<path
   d="M228.65,713.05 L228.64,713.03 L228.62,713.02 L228.61,713.01 L228.59,712.99 L228.57,712.98 L228.56,712.96 L228.54,712.94 L228.52,712.93 L228.5,712.91 L228.48,712.89 L228.44,712.85 L228.4,712.81 L228.37,712.77 L228.35,712.75 L228.33,712.73 L228.31,712.71 L228.3,712.69 L228.28,712.67 L228.26,712.65 L228.25,712.63 L228.24,712.61 L228.23,712.59 L228.22,712.57 L228.21,712.55 L228.2,712.53 L228.19,712.51 L228.19,712.49 L228.18,712.48 L228.18,712.46 C228.18,712.36,228.28,712.26,228.38,712.26 C228.47,712.26,228.52,712.33,228.57,712.39 C228.69,712.54,228.92,712.82,229.36,713.04 C229.43,713.08,229.53,713.13,229.53,713.25 C229.53,713.34,229.46,713.4,229.39,713.45 C229.17,713.59,229.06,713.77,228.98,714.01 C228.96,714.1,228.92,714.23,228.78,714.23 C228.64,714.23,228.58,714.1,228.58,714.02 C228.58,713.97,228.66,713.65,228.82,713.45 H225.46 C225.29,713.45,225.11,713.45,225.11,713.25 C225.11,713.05,225.29,713.05,225.46,713.05 Z "
   stroke-width="0"
   fill="black"
   id="path7843" />
<path
   d="M226.76,710.13 L226.76,710.16 L226.77,710.19 L226.78,710.22 L226.79,710.26 L226.8,710.29 L226.81,710.34 L226.82,710.38 L226.84,710.42 L226.86,710.47 L226.87,710.52 L226.89,710.57 L226.91,710.62 L226.93,710.67 L226.96,710.72 L226.98,710.77 L227.01,710.81 L227.04,710.86 L227.07,710.91 L227.11,710.96 L227.14,711 L227.18,711.04 L227.22,711.08 L227.26,711.12 L227.3,711.16 L227.35,711.19 L227.4,711.22 L227.43,711.23 L227.45,711.24 L227.48,711.26 L227.5,711.27 L227.53,711.27 L227.56,711.28 L227.59,711.29 L227.62,711.29 L227.65,711.3 L227.68,711.3 L227.71,711.3 L227.74,711.3 C227.79,711.3,228.03,711.3,228.24,711.18 C227.96,711.13,227.76,710.88,227.76,710.64 C227.76,710.48,227.87,710.29,228.14,710.29 C228.36,710.29,228.68,710.47,228.68,710.87 C228.68,711.39,228.09,711.52,227.76,711.52 C227.18,711.52,226.83,711,226.71,710.77 C226.46,711.42,225.92,711.52,225.63,711.52 C224.6,711.52,224.03,710.24,224.03,709.99 C224.03,709.89,224.13,709.89,224.15,709.89 C224.23,709.89,224.26,709.91,224.28,710 C224.62,711.06,225.27,711.3,225.61,711.3 C225.8,711.3,226.15,711.22,226.15,710.64 C226.15,710.33,225.98,709.66,225.61,708.27 C225.45,707.65,225.1,707.23,224.66,707.23 C224.6,707.23,224.38,707.23,224.17,707.36 C224.41,707.41,224.63,707.62,224.63,707.9 C224.63,708.17,224.41,708.25,224.27,708.25 C223.97,708.25,223.72,707.99,223.72,707.67 C223.72,707.22,224.22,707.02,224.65,707.02 C225.31,707.02,225.67,707.71,225.7,707.77 C225.82,707.4,226.18,707.02,226.78,707.02 C227.8,707.02,228.37,708.3,228.37,708.55 C228.37,708.65,228.28,708.65,228.25,708.65 C228.16,708.65,228.14,708.61,228.12,708.54 C227.79,707.47,227.12,707.23,226.8,707.23 C226.41,707.23,226.25,707.55,226.25,707.89 C226.25,708.11,226.31,708.33,226.42,708.77 Z "
   stroke-width="0"
   fill="black"
   id="path7845" />
</g>    <g
       style="font-style:normal;font-variant:normal;font-weight:normal;font-stretch:normal;letter-spacing:normal;word-spacing:normal;text-anchor:start;fill:none;stroke:#000000;stroke-linecap:butt;stroke-linejoin:miter;stroke-miterlimit:10.43299961;stroke-opacity:1;stroke-dasharray:none;stroke-dashoffset:0"
       ns0:preamble=""
       ns0:text="$P$"
       word-spacing="normal"
       letter-spacing="normal"
       font-size-adjust="none"
       font-stretch="normal"
       font-weight="normal"
       font-variant="normal"
       font-style="normal"
       stroke-miterlimit="10.433"
       xml:space="preserve"
       transform="matrix(4,0,0,-4,-119.5777,3042.1756)"
       id="g8046">
<path
   id="path8048"
   d="m 226.45,710.27 0.04,0.26 0.68,2.71 c 0.09,0.34 0.11,0.37 0.54,0.37 h 0.95 c 0.83,0 1.36,-0.27 1.36,-0.95 0,-0.39 -0.2,-1.25 -0.59,-1.6 -0.5,-0.45 -1.09,-0.53 -1.53,-0.53 h -1.41 l -0.04,-0.26 h 1.7 c 1.41,0 2.8,1.03 2.8,2.15 0,0.77 -0.66,1.5 -1.97,1.5 h -3.22 c -0.19,0 -0.3,0 -0.3,-0.19 0,-0.12 0.08,-0.12 0.28,-0.12 0.13,0 0.31,-0.01 0.43,-0.02 0.16,-0.02 0.22,-0.05 0.22,-0.16 0,-0.03 -0.01,-0.07 -0.04,-0.18 l -1.33,-5.35 c -0.1,-0.39 -0.12,-0.47 -0.91,-0.47 -0.17,0 -0.28,0 -0.28,-0.19 0,-0.12 0.12,-0.12 0.15,-0.12 0.28,0 0.99,0.04 1.27,0.04 0.21,0 0.43,-0.01 0.63,-0.01 0.22,0 0.44,-0.03 0.65,-0.03 0.07,0 0.2,0 0.2,0.2 0,0.11 -0.09,0.11 -0.28,0.11 -0.37,0 -0.65,0 -0.65,0.18 0,0.06 0.02,0.11 0.03,0.17 z"
   inkscape:connector-curvature="0"
   style="fill:#000000;stroke-width:0" />
</g>    <g
       transform="matrix(0.6561,0,0,0.6561,-94.591386,16.866111)"
       style="display:inline"
       id="g5864-5-1-4">
      <g
         transform="matrix(0.166375,0,0,-0.166375,-252.18234,898.72862)"
         id="g3136-9-0-8">
        <g
           clip-path="url(#clipPath3140-8-4-6)"
           id="g3138-4-8-6">
          <path
             id="path3152-0-4-3"
             style="fill:url(#radialGradient5862-1-5-1);fill-opacity:1;fill-rule:nonzero;stroke:none"
             d="m 4526,1528.64 c 28.74,25.96 73.13,23.7 99.08,-5.04 25.96,-28.74 23.7,-73.13 -5.04,-99.08 -28.74,-25.95 -73.13,-23.69 -99.08,5.04 -25.26,27.97 -23.98,70.64 2.89,97.06"
             inkscape:connector-curvature="0" />
        </g>
      </g>
      <path
         transform="matrix(0.99027744,0,0,1,6.5934197,2.3378248)"
         d="m 518.54754,650.71631 c 0,6.20743 -5.17302,11.23954 -11.55425,11.23954 -6.38124,0 -11.55425,-5.03211 -11.55425,-11.23954 0,-6.20743 5.17301,-11.23954 11.55425,-11.23954 6.38123,0 11.55425,5.03211 11.55425,11.23954 z"
         sodipodi:ry="11.239542"
         sodipodi:rx="11.55425"
         sodipodi:cy="650.71631"
         sodipodi:cx="506.99329"
         id="path5860-5-6-4"
         style="fill:none;stroke:#000000;stroke-width:3.76836371;stroke-miterlimit:4;stroke-opacity:1;stroke-dasharray:none;stroke-dashoffset:0"
         sodipodi:type="arc" />
    </g>
    <g
       transform="matrix(0.04239116,0,0,0.04239116,-47.998414,-46.879155)"
       class="Drawing"
       id="g214"
       style="visibility:visible;stroke:#ff0000">
      <g
         id="g216"
         style="stroke:#ff0000">
        <g
           style="fill:none;stroke:#ff0000;stroke-width:102;stroke-linejoin:round"
           id="g218">
          <path
             inkscape:connector-curvature="0"
             style="fill:none;stroke:#ff0000"
             d="M 16338.88,15234.176 7212,11762"
             id="path220"
             sodipodi:nodetypes="cc" />
        </g>
        <g
           style="fill:#ff0000;stroke:#ff0000"
           id="g222">
          <path
             inkscape:connector-curvature="0"
             d="m 7362,11626 51,-32 -678,-13 515,440 -16,-55 -6,-61 4,-63 17,-63 28,-59 40,-51 45,-43 z"
             id="path224"
             style="stroke:#ff0000" />
        </g>
      </g>
    </g>
    <g
       transform="matrix(0.6561,0,0,0.6561,309.00962,170.8855)"
       style="display:inline"
       id="g5864-5-1-4-4">
      <g
         transform="matrix(0.166375,0,0,-0.166375,-252.18234,898.72862)"
         id="g3136-9-0-8-1">
        <g
           clip-path="url(#clipPath3140-8-4-6-7)"
           id="g3138-4-8-6-4">
          <path
             id="path3152-0-4-3-3"
             style="fill:url(#radialGradient9020);fill-opacity:1;fill-rule:nonzero;stroke:none"
             d="m 4526,1528.64 c 28.74,25.96 73.13,23.7 99.08,-5.04 25.96,-28.74 23.7,-73.13 -5.04,-99.08 -28.74,-25.95 -73.13,-23.69 -99.08,5.04 -25.26,27.97 -23.98,70.64 2.89,97.06"
             inkscape:connector-curvature="0" />
        </g>
      </g>
      <path
         transform="matrix(0.99027744,0,0,1,6.5934197,2.3378248)"
         d="m 518.54754,650.71631 c 0,6.20743 -5.17302,11.23954 -11.55425,11.23954 -6.38124,0 -11.55425,-5.03211 -11.55425,-11.23954 0,-6.20743 5.17301,-11.23954 11.55425,-11.23954 6.38123,0 11.55425,5.03211 11.55425,11.23954 z"
         sodipodi:ry="11.239542"
         sodipodi:rx="11.55425"
         sodipodi:cy="650.71631"
         sodipodi:cx="506.99329"
         id="path5860-5-6-4-2"
         style="fill:none;stroke:#000000;stroke-width:3.76836371;stroke-miterlimit:4;stroke-opacity:1;stroke-dasharray:none;stroke-dashoffset:0"
         sodipodi:type="arc" />
    </g>
  </g>
</svg>
