<?xml version="1.0" encoding="UTF-8" standalone="no"?>
<!-- Created with Inkscape (http://www.inkscape.org/) -->

<svg
   xmlns:ns0="http://www.iki.fi/pav/software/textext/"
   xmlns:latexdraw="http://latexdraw.sourceforge.net/namespaces/latexdraw"
   xmlns:dc="http://purl.org/dc/elements/1.1/"
   xmlns:cc="http://creativecommons.org/ns#"
   xmlns:rdf="http://www.w3.org/1999/02/22-rdf-syntax-ns#"
   xmlns:svg="http://www.w3.org/2000/svg"
   xmlns="http://www.w3.org/2000/svg"
   xmlns:sodipodi="http://sodipodi.sourceforge.net/DTD/sodipodi-0.dtd"
   xmlns:inkscape="http://www.inkscape.org/namespaces/inkscape"
   width="792pt"
   height="612pt"
   id="svg3175"
   version="1.1"
   inkscape:version="0.48.1 r9760"
   sodipodi:docname="fig-tiempos.svg">
  <defs
     id="defs3177">
    <marker
       inkscape:stockid="StopL"
       orient="auto"
       refY="0"
       refX="0"
       id="StopL"
       style="overflow:visible">
      <path
         inkscape:connector-curvature="0"
         id="path5054"
         d="M 0,5.65 0,-5.65"
         style="fill:none;stroke:#000000;stroke-width:1pt"
         transform="scale(0.8,0.8)" />
    </marker>
    <marker
       inkscape:stockid="Arrow2Mend"
       orient="auto"
       refY="0"
       refX="0"
       id="Arrow2Mend"
       style="overflow:visible">
      <path
         inkscape:connector-curvature="0"
         id="path4911"
         style="font-size:12px;fill-rule:evenodd;stroke-width:0.625;stroke-linejoin:round"
         d="M 8.7185878,4.0337352 -2.2072895,0.01601326 8.7185884,-4.0017078 c -1.7454984,2.3720609 -1.7354408,5.6174519 -6e-7,8.035443 z"
         transform="scale(-0.6,-0.6)" />
    </marker>
  </defs>
  <sodipodi:namedview
     inkscape:document-units="in"
     pagecolor="#ffffff"
     bordercolor="#666666"
     borderopacity="1.0"
     inkscape:pageopacity="0.0"
     inkscape:pageshadow="2"
     inkscape:zoom="0.81960784"
     inkscape:cx="495"
     inkscape:cy="382.5"
     inkscape:current-layer="layer1"
     id="namedview3179"
     showgrid="false"
     inkscape:window-width="1438"
     inkscape:window-height="847"
     inkscape:window-x="0"
     inkscape:window-y="0"
     inkscape:window-maximized="1" />
  <metadata
     id="metadata3181">
    <rdf:RDF>
      <cc:Work
         rdf:about="">
        <dc:format>image/svg+xml</dc:format>
        <dc:type
           rdf:resource="http://purl.org/dc/dcmitype/StillImage" />
        <dc:title />
      </cc:Work>
    </rdf:RDF>
  </metadata>
  <g
     inkscape:label="Layer 1"
     inkscape:groupmode="layer"
     id="layer1">
    <g
       transform="matrix(1.55952,0,0,1.55952,-279.63698,-62.40296)"
       id="id181"
       latexdraw:type="line">
      <line
         style="stroke:#000000;stroke-width:2"
         id="line33"
         latexdraw:rotationAngle="0.0"
         y2="276"
         y1="288"
         x2="420"
         x1="420" />
    </g>
    <g
       transform="matrix(1.55952,0,0,1.55952,-279.63698,-62.40296)"
       id="id182"
       latexdraw:type="line">
      <line
         style="stroke:#000000;stroke-width:2"
         id="line36"
         latexdraw:rotationAngle="0.0"
         y2="288"
         y1="276"
         x2="276"
         x1="276" />
    </g>
    <g
       transform="matrix(1.55952,0,0,1.55952,-229.63698,-62.40296)"
       id="id183"
       latexdraw:type="line">
      <line
         style="stroke:#000000;stroke-width:2"
         id="line39"
         latexdraw:rotationAngle="0.0"
         y2="288"
         y1="276"
         x2="660"
         x1="660" />
    </g>
    <g
       transform="matrix(1.55952,0,0,1.55952,-229.63698,-62.40296)"
       id="id184"
       latexdraw:type="line">
      <line
         style="stroke:#000000;stroke-width:2"
         id="line42"
         latexdraw:rotationAngle="0.0"
         y2="276"
         y1="288"
         x2="516"
         x1="516" />
    </g>
    <g
       transform="matrix(1.55952,0,0,1.55952,-279.63698,-62.40296)"
       id="id185"
       latexdraw:type="line">
      <line
         style="stroke:#0000ff;stroke-width:2"
         id="line45"
         latexdraw:rotationAngle="0.0"
         y2="276"
         y1="288"
         x2="294"
         x1="282" />
    </g>
    <g
       transform="matrix(1.55952,0,0,1.55952,-279.63698,-62.40296)"
       id="id186"
       latexdraw:type="line">
      <line
         style="stroke:#0000ff;stroke-width:2"
         id="line48"
         latexdraw:rotationAngle="0.0"
         y2="276"
         y1="288"
         x2="306"
         x1="294" />
    </g>
    <g
       transform="matrix(1.55952,0,0,1.55952,-279.63698,-62.40296)"
       id="id187"
       latexdraw:type="line">
      <line
         style="stroke:#0000ff;stroke-width:2"
         id="line51"
         latexdraw:rotationAngle="0.0"
         y2="276"
         y1="288"
         x2="318"
         x1="306" />
    </g>
    <g
       transform="matrix(1.55952,0,0,1.55952,-279.63698,-62.40296)"
       id="id188"
       latexdraw:type="line">
      <line
         style="stroke:#0000ff;stroke-width:2"
         id="line54"
         latexdraw:rotationAngle="0.0"
         y2="276"
         y1="288"
         x2="330"
         x1="318" />
    </g>
    <g
       transform="matrix(1.55952,0,0,1.55952,-279.63698,-62.40296)"
       id="id189"
       latexdraw:type="line">
      <line
         style="stroke:#0000ff;stroke-width:2"
         id="line57"
         latexdraw:rotationAngle="0.0"
         y2="276"
         y1="288"
         x2="342"
         x1="330" />
    </g>
    <g
       transform="matrix(1.55952,0,0,1.55952,-279.63698,-62.40296)"
       id="id190"
       latexdraw:type="line">
      <line
         style="stroke:#0000ff;stroke-width:2"
         id="line60"
         latexdraw:rotationAngle="0.0"
         y2="276"
         y1="288"
         x2="354"
         x1="342" />
    </g>
    <g
       transform="matrix(1.55952,0,0,1.55952,-279.63698,-62.40296)"
       id="id191"
       latexdraw:type="line">
      <line
         style="stroke:#0000ff;stroke-width:2"
         id="line63"
         latexdraw:rotationAngle="0.0"
         y2="276"
         y1="288"
         x2="366"
         x1="354" />
    </g>
    <g
       transform="matrix(1.55952,0,0,1.55952,-279.63698,-62.40296)"
       id="id192"
       latexdraw:type="line">
      <line
         style="stroke:#0000ff;stroke-width:2"
         id="line66"
         latexdraw:rotationAngle="0.0"
         y2="276"
         y1="288"
         x2="378"
         x1="366" />
    </g>
    <g
       transform="matrix(1.55952,0,0,1.55952,-279.63698,-62.40296)"
       id="id193"
       latexdraw:type="line">
      <line
         style="stroke:#0000ff;stroke-width:2"
         id="line69"
         latexdraw:rotationAngle="0.0"
         y2="276"
         y1="288"
         x2="390"
         x1="378" />
    </g>
    <g
       transform="matrix(1.55952,0,0,1.55952,-279.63698,-62.40296)"
       id="id194"
       latexdraw:type="line">
      <line
         style="stroke:#0000ff;stroke-width:2"
         id="line72"
         latexdraw:rotationAngle="0.0"
         y2="276"
         y1="288"
         x2="402"
         x1="390" />
    </g>
    <g
       transform="matrix(1.55952,0,0,1.55952,-279.63698,-62.40296)"
       id="id195"
       latexdraw:type="line">
      <line
         style="stroke:#0000ff;stroke-width:2"
         id="line75"
         latexdraw:rotationAngle="0.0"
         y2="276"
         y1="288"
         x2="414"
         x1="402" />
    </g>
    <g
       transform="matrix(1.55952,0,0,1.55952,-229.63698,-62.40296)"
       id="id196"
       latexdraw:type="line">
      <line
         style="stroke:#0000ff;stroke-width:2"
         id="line78"
         latexdraw:rotationAngle="0.0"
         y2="276"
         y1="288"
         x2="534"
         x1="522" />
    </g>
    <g
       transform="matrix(1.55952,0,0,1.55952,-229.63698,-62.40296)"
       id="id197"
       latexdraw:type="line">
      <line
         style="stroke:#0000ff;stroke-width:2"
         id="line81"
         latexdraw:rotationAngle="0.0"
         y2="276"
         y1="288"
         x2="546"
         x1="534" />
    </g>
    <g
       transform="matrix(1.55952,0,0,1.55952,-229.63698,-62.40296)"
       id="id198"
       latexdraw:type="line">
      <line
         style="stroke:#0000ff;stroke-width:2"
         id="line84"
         latexdraw:rotationAngle="0.0"
         y2="276"
         y1="288"
         x2="558"
         x1="546" />
    </g>
    <g
       transform="matrix(1.55952,0,0,1.55952,-229.63698,-62.40296)"
       id="id199"
       latexdraw:type="line">
      <line
         style="stroke:#0000ff;stroke-width:2"
         id="line87"
         latexdraw:rotationAngle="0.0"
         y2="276"
         y1="288"
         x2="570"
         x1="558" />
    </g>
    <g
       transform="matrix(1.55952,0,0,1.55952,-229.63698,-62.40296)"
       id="id200"
       latexdraw:type="line">
      <line
         style="stroke:#0000ff;stroke-width:2"
         id="line90"
         latexdraw:rotationAngle="0.0"
         y2="276"
         y1="288"
         x2="582"
         x1="570" />
    </g>
    <g
       transform="matrix(1.55952,0,0,1.55952,-229.63698,-62.40296)"
       id="id201"
       latexdraw:type="line">
      <line
         style="stroke:#0000ff;stroke-width:2"
         id="line93"
         latexdraw:rotationAngle="0.0"
         y2="276"
         y1="288"
         x2="594"
         x1="582" />
    </g>
    <g
       transform="matrix(1.55952,0,0,1.55952,-229.63698,-62.40296)"
       id="id202"
       latexdraw:type="line">
      <line
         style="stroke:#0000ff;stroke-width:2"
         id="line96"
         latexdraw:rotationAngle="0.0"
         y2="276"
         y1="288"
         x2="606"
         x1="594" />
    </g>
    <g
       transform="matrix(1.55952,0,0,1.55952,-229.63698,-62.40296)"
       id="id203"
       latexdraw:type="line">
      <line
         style="stroke:#0000ff;stroke-width:2"
         id="line99"
         latexdraw:rotationAngle="0.0"
         y2="276"
         y1="288"
         x2="618"
         x1="606" />
    </g>
    <g
       transform="matrix(1.55952,0,0,1.55952,-229.63698,-62.40296)"
       id="id204"
       latexdraw:type="line">
      <line
         style="stroke:#0000ff;stroke-width:2"
         id="line102"
         latexdraw:rotationAngle="0.0"
         y2="276"
         y1="288"
         x2="630"
         x1="618" />
    </g>
    <g
       transform="matrix(1.55952,0,0,1.55952,-229.63698,-62.40296)"
       id="id205"
       latexdraw:type="line">
      <line
         style="stroke:#0000ff;stroke-width:2"
         id="line105"
         latexdraw:rotationAngle="0.0"
         y2="276"
         y1="288"
         x2="642"
         x1="630" />
    </g>
    <g
       transform="matrix(1.55952,0,0,1.55952,-229.63698,-62.40296)"
       id="id206"
       latexdraw:type="line">
      <line
         style="stroke:#0000ff;stroke-width:2"
         id="line108"
         latexdraw:rotationAngle="0.0"
         y2="276"
         y1="288"
         x2="654"
         x1="642" />
    </g>
    <g
       ns0:preamble=""
       ns0:text="$T_1$"
       word-spacing="normal"
       letter-spacing="normal"
       font-size-adjust="none"
       font-stretch="normal"
       font-weight="normal"
       font-variant="normal"
       font-style="normal"
       stroke-miterlimit="10.433"
       xml:space="preserve"
       transform="matrix(3.8988,0,0,-3.8988,-733.79909,3181.0568)"
       id="content"
       style="font-style:normal;font-variant:normal;font-weight:normal;font-stretch:normal;letter-spacing:normal;word-spacing:normal;text-anchor:start;fill:none;stroke:#000000;stroke-linecap:butt;stroke-linejoin:miter;stroke-miterlimit:10.43299961;stroke-opacity:1;stroke-dasharray:none;stroke-dashoffset:0">
<path
   inkscape:connector-curvature="0"
   id="path3231"
   d="m 227.69,713.17 0,0.03 0.01,0.02 0.01,0.02 0,0.02 0.01,0.03 0,0.02 0.01,0.01 0.01,0.02 0,0.02 0.01,0.01 0,0.02 0.01,0.01 0,0.01 0.01,0.02 0.01,0.01 0,0.01 0.01,0.01 0.01,0.01 0,0 0.01,0.01 0.01,0.01 0,0.01 0.01,0 0.01,0.01 0.01,0 0.01,0.01 0.01,0 0,0.01 0.01,0 0.01,0 0.01,0.01 0.02,0 c 0.09,0.02 0.41,0.02 0.62,0.02 1.01,0 1.46,-0.04 1.46,-0.82 0,-0.15 -0.04,-0.54 -0.08,-0.8 -0.01,-0.03 -0.03,-0.16 -0.03,-0.18 0,-0.06 0.03,-0.13 0.12,-0.13 0.11,0 0.13,0.08 0.15,0.22 l 0.27,1.74 c 0.01,0.04 0.02,0.14 0.02,0.17 0,0.11 -0.1,0.11 -0.27,0.11 h -5.53 c -0.24,0 -0.25,-0.01 -0.32,-0.2 l -0.6,-1.76 c -0.01,-0.01 -0.06,-0.15 -0.06,-0.18 0,-0.06 0.05,-0.1 0.12,-0.1 0.1,0 0.11,0.04 0.17,0.21 0.54,1.54 0.8,1.72 2.27,1.72 h 0.39 c 0.28,0 0.28,-0.04 0.28,-0.12 0,-0.06 -0.03,-0.18 -0.04,-0.21 l -1.34,-5.32 c -0.09,-0.37 -0.12,-0.48 -1.18,-0.48 -0.36,0 -0.42,0 -0.42,-0.19 0,-0.12 0.11,-0.12 0.17,-0.12 0.27,0 0.55,0.02 0.82,0.02 0.28,0 0.57,0.01 0.84,0.01 0.28,0 0.56,-0.01 0.83,-0.01 0.29,0 0.59,-0.02 0.87,-0.02 0.1,0 0.22,0 0.22,0.2 0,0.11 -0.08,0.11 -0.34,0.11 -0.25,0 -0.38,0 -0.64,0.02 -0.29,0.03 -0.37,0.06 -0.37,0.22 0,0.01 0,0.06 0.04,0.21 z"
   style="fill:#000000;stroke-width:0" />
<path
   inkscape:connector-curvature="0"
   id="path3233"
   d="m 231.59,710.07 0,0 0,0.01 0,0.01 0,0.01 0,0.01 0,0 0,0.01 0,0.01 0,0 0,0.01 0,0.01 0,0 0,0.01 0,0 -0.01,0.01 0,0.01 0,0 0,0.01 0,0 0,0.01 -0.01,0.01 0,0.01 0,0 -0.01,0.01 0,0 -0.01,0.01 0,0 -0.01,0.01 -0.01,0 -0.01,0 -0.01,0 0,0.01 -0.01,0 -0.01,0 0,0 -0.01,0 0,0 -0.01,0 0,0 -0.01,0 -0.01,0 -0.01,0 0,0 -0.01,0 -0.01,0 -0.01,0 0,0 -0.01,0 -0.01,0 -0.01,0 c -0.45,-0.44 -1.08,-0.45 -1.37,-0.45 v -0.25 c 0.17,0 0.63,0 1.01,0.2 v -3.56 c 0,-0.23 0,-0.32 -0.69,-0.32 h -0.27 v -0.25 c 0.13,0.01 0.98,0.03 1.24,0.03 0.22,0 1.1,-0.02 1.25,-0.03 v 0.25 h -0.26 c -0.7,0 -0.7,0.09 -0.7,0.32 z"
   style="fill:#000000;stroke-width:0" />
</g>    <g
       id="g3414"
       transform="matrix(3.8988,0,0,-3.8988,-509.89371,3181.0976)"
       xml:space="preserve"
       stroke-miterlimit="10.433"
       font-style="normal"
       font-variant="normal"
       font-weight="normal"
       font-stretch="normal"
       font-size-adjust="none"
       letter-spacing="normal"
       word-spacing="normal"
       ns0:text="$T_2$"
       ns0:preamble=""
       style="font-style:normal;font-variant:normal;font-weight:normal;font-stretch:normal;letter-spacing:normal;word-spacing:normal;text-anchor:start;fill:none;stroke:#000000;stroke-linecap:butt;stroke-linejoin:miter;stroke-miterlimit:10.43299961;stroke-opacity:1;stroke-dasharray:none;stroke-dashoffset:0">
<path
   inkscape:connector-curvature="0"
   style="fill:#000000;stroke-width:0"
   d="m 227.69,713.17 0,0.03 0.01,0.02 0.01,0.02 0,0.02 0.01,0.03 0,0.02 0.01,0.01 0.01,0.02 0,0.02 0.01,0.01 0,0.02 0.01,0.01 0,0.01 0.01,0.02 0.01,0.01 0,0.01 0.01,0.01 0.01,0.01 0,0 0.01,0.01 0.01,0.01 0,0.01 0.01,0 0.01,0.01 0.01,0 0.01,0.01 0.01,0 0,0.01 0.01,0 0.01,0 0.01,0.01 0.02,0 c 0.09,0.02 0.41,0.02 0.62,0.02 1.01,0 1.46,-0.04 1.46,-0.82 0,-0.15 -0.04,-0.54 -0.08,-0.8 -0.01,-0.03 -0.03,-0.16 -0.03,-0.18 0,-0.06 0.03,-0.13 0.12,-0.13 0.11,0 0.13,0.08 0.15,0.22 l 0.27,1.74 c 0.01,0.04 0.02,0.14 0.02,0.17 0,0.11 -0.1,0.11 -0.27,0.11 h -5.53 c -0.24,0 -0.25,-0.01 -0.32,-0.2 l -0.6,-1.76 c -0.01,-0.01 -0.06,-0.15 -0.06,-0.18 0,-0.06 0.05,-0.1 0.12,-0.1 0.1,0 0.11,0.04 0.17,0.21 0.54,1.54 0.8,1.72 2.27,1.72 h 0.39 c 0.28,0 0.28,-0.04 0.28,-0.12 0,-0.06 -0.03,-0.18 -0.04,-0.21 l -1.34,-5.32 c -0.09,-0.37 -0.12,-0.48 -1.18,-0.48 -0.36,0 -0.42,0 -0.42,-0.19 0,-0.12 0.11,-0.12 0.17,-0.12 0.27,0 0.55,0.02 0.82,0.02 0.28,0 0.57,0.01 0.84,0.01 0.28,0 0.56,-0.01 0.83,-0.01 0.29,0 0.59,-0.02 0.87,-0.02 0.1,0 0.22,0 0.22,0.2 0,0.11 -0.08,0.11 -0.34,0.11 -0.25,0 -0.38,0 -0.64,0.02 -0.29,0.03 -0.37,0.06 -0.37,0.22 0,0.01 0,0.06 0.04,0.21 z"
   id="path3416" />
<path
   inkscape:connector-curvature="0"
   style="fill:#000000;stroke-width:0"
   d="m 232.77,706.9 h -0.23 c -0.02,-0.15 -0.09,-0.57 -0.18,-0.63 -0.06,-0.05 -0.6,-0.05 -0.7,-0.05 h -1.28 c 0.74,0.65 0.98,0.85 1.4,1.17 0.51,0.42 0.99,0.85 0.99,1.51 0,0.84 -0.73,1.36 -1.63,1.36 -0.86,0 -1.45,-0.61 -1.45,-1.25 0,-0.35 0.3,-0.39 0.37,-0.39 0.17,0 0.37,0.12 0.37,0.37 0,0.13 -0.05,0.37 -0.41,0.37 0.22,0.5 0.69,0.65 1.02,0.65 0.7,0 1.06,-0.54 1.06,-1.11 0,-0.61 -0.44,-1.09 -0.66,-1.34 l -1.68,-1.66 c -0.07,-0.06 -0.07,-0.07 -0.07,-0.27 h 2.88 z"
   id="path3418" />
</g>    <g
       style="font-style:normal;font-variant:normal;font-weight:normal;font-stretch:normal;letter-spacing:normal;word-spacing:normal;text-anchor:start;fill:none;stroke:#000000;stroke-linecap:butt;stroke-linejoin:miter;stroke-miterlimit:10.43299961;stroke-opacity:1;stroke-dasharray:none;stroke-dashoffset:0"
       ns0:preamble=""
       ns0:text="$t_1$"
       word-spacing="normal"
       letter-spacing="normal"
       font-size-adjust="none"
       font-stretch="normal"
       font-weight="normal"
       font-variant="normal"
       font-style="normal"
       stroke-miterlimit="10.433"
       xml:space="preserve"
       transform="matrix(3.8988,0,0,-3.8988,-306.89361,3181.0976)"
       id="g3603">
<path
   inkscape:connector-curvature="0"
   id="path3605"
   d="m 225.49,711.11 h 0.93 c 0.2,0 0.3,0 0.3,0.2 0,0.11 -0.1,0.11 -0.28,0.11 h -0.88 c 0.36,1.41 0.41,1.61 0.41,1.67 0,0.17 -0.12,0.27 -0.29,0.27 -0.03,0 -0.3,-0.01 -0.39,-0.36 l -0.39,-1.58 h -0.94 c -0.2,0 -0.3,0 -0.3,-0.19 0,-0.12 0.08,-0.12 0.28,-0.12 h 0.88 c -0.72,-2.83 -0.76,-3 -0.76,-3.18 0,-0.54 0.38,-0.92 0.92,-0.92 1.01,0 1.58,1.46 1.58,1.54 0,0.1 -0.08,0.1 -0.12,0.1 -0.09,0 -0.1,-0.03 -0.15,-0.14 -0.43,-1.04 -0.95,-1.28 -1.29,-1.28 -0.21,0 -0.31,0.13 -0.31,0.46 0,0.24 0.02,0.31 0.06,0.48 z"
   style="fill:#000000;stroke-width:0" />
<path
   inkscape:connector-curvature="0"
   id="path3607"
   d="m 229.37,710.07 0,0 0,0.01 0,0.01 0,0.01 0,0.01 0,0 0,0.01 0,0.01 0,0 0,0.01 0,0.01 0,0 0,0.01 0,0 -0.01,0.01 0,0.01 0,0 0,0.01 0,0 0,0.01 -0.01,0.01 0,0.01 0,0 -0.01,0.01 0,0 -0.01,0.01 0,0 -0.01,0.01 -0.01,0 -0.01,0 -0.01,0 0,0.01 -0.01,0 -0.01,0 0,0 -0.01,0 0,0 -0.01,0 0,0 -0.01,0 -0.01,0 -0.01,0 0,0 -0.01,0 -0.01,0 -0.01,0 0,0 -0.01,0 -0.01,0 -0.01,0 c -0.45,-0.44 -1.08,-0.45 -1.37,-0.45 v -0.25 c 0.17,0 0.63,0 1.01,0.2 v -3.56 c 0,-0.23 0,-0.32 -0.69,-0.32 h -0.27 v -0.25 c 0.13,0.01 0.98,0.03 1.24,0.03 0.22,0 1.1,-0.02 1.25,-0.03 v 0.25 h -0.26 c -0.7,0 -0.7,0.09 -0.7,0.32 z"
   style="fill:#000000;stroke-width:0" />
</g>    <g
       id="g3796"
       transform="matrix(3.8988,0,0,-3.8988,-81.3519,3181.2785)"
       xml:space="preserve"
       stroke-miterlimit="10.433"
       font-style="normal"
       font-variant="normal"
       font-weight="normal"
       font-stretch="normal"
       font-size-adjust="none"
       letter-spacing="normal"
       word-spacing="normal"
       ns0:text="$t_2$"
       ns0:preamble=""
       style="font-style:normal;font-variant:normal;font-weight:normal;font-stretch:normal;letter-spacing:normal;word-spacing:normal;text-anchor:start;fill:none;stroke:#000000;stroke-linecap:butt;stroke-linejoin:miter;stroke-miterlimit:10.43299961;stroke-opacity:1;stroke-dasharray:none;stroke-dashoffset:0">
<path
   style="fill:#000000;stroke-width:0"
   inkscape:connector-curvature="0"
   d="m 225.49,711.11 h 0.93 c 0.2,0 0.3,0 0.3,0.2 0,0.11 -0.1,0.11 -0.28,0.11 h -0.88 c 0.36,1.41 0.41,1.61 0.41,1.67 0,0.17 -0.12,0.27 -0.29,0.27 -0.03,0 -0.3,-0.01 -0.39,-0.36 l -0.39,-1.58 h -0.94 c -0.2,0 -0.3,0 -0.3,-0.19 0,-0.12 0.08,-0.12 0.28,-0.12 h 0.88 c -0.72,-2.83 -0.76,-3 -0.76,-3.18 0,-0.54 0.38,-0.92 0.92,-0.92 1.01,0 1.58,1.46 1.58,1.54 0,0.1 -0.08,0.1 -0.12,0.1 -0.09,0 -0.1,-0.03 -0.15,-0.14 -0.43,-1.04 -0.95,-1.28 -1.29,-1.28 -0.21,0 -0.31,0.13 -0.31,0.46 0,0.24 0.02,0.31 0.06,0.48 z"
   id="path3798" />
<path
   style="fill:#000000;stroke-width:0"
   inkscape:connector-curvature="0"
   d="m 230.55,706.9 h -0.23 c -0.02,-0.15 -0.09,-0.57 -0.18,-0.63 -0.06,-0.05 -0.6,-0.05 -0.69,-0.05 h -1.29 c 0.74,0.65 0.98,0.85 1.4,1.17 0.51,0.42 0.99,0.85 0.99,1.51 0,0.84 -0.73,1.36 -1.63,1.36 -0.86,0 -1.45,-0.61 -1.45,-1.25 0,-0.35 0.3,-0.39 0.37,-0.39 0.17,0 0.37,0.12 0.37,0.37 0,0.13 -0.05,0.37 -0.41,0.37 0.22,0.5 0.69,0.65 1.02,0.65 0.69,0 1.06,-0.54 1.06,-1.11 0,-0.61 -0.43,-1.09 -0.66,-1.34 l -1.68,-1.66 c -0.07,-0.06 -0.07,-0.07 -0.07,-0.27 h 2.88 z"
   id="path3800" />
</g>    <g
       style="font-style:normal;font-variant:normal;font-weight:normal;font-stretch:normal;letter-spacing:normal;word-spacing:normal;text-anchor:start;fill:none;stroke:#000000;stroke-linecap:butt;stroke-linejoin:miter;stroke-miterlimit:10.43299961;stroke-opacity:1;stroke-dasharray:none;stroke-dashoffset:0"
       ns0:preamble=""
       ns0:text="$t$"
       word-spacing="normal"
       letter-spacing="normal"
       font-size-adjust="none"
       font-stretch="normal"
       font-weight="normal"
       font-variant="normal"
       font-style="normal"
       stroke-miterlimit="10.433"
       xml:space="preserve"
       transform="matrix(3.8988,0,0,-3.8988,96.268395,3144.5484)"
       id="g3995">
<path
   inkscape:connector-curvature="0"
   id="path3997"
   d="m 225.49,711.11 h 0.93 c 0.2,0 0.3,0 0.3,0.2 0,0.11 -0.1,0.11 -0.28,0.11 h -0.88 c 0.36,1.41 0.41,1.61 0.41,1.67 0,0.17 -0.12,0.27 -0.29,0.27 -0.03,0 -0.3,-0.01 -0.39,-0.36 l -0.39,-1.58 h -0.94 c -0.2,0 -0.3,0 -0.3,-0.19 0,-0.12 0.08,-0.12 0.28,-0.12 h 0.88 c -0.72,-2.83 -0.76,-3 -0.76,-3.18 0,-0.54 0.38,-0.92 0.92,-0.92 1.01,0 1.58,1.46 1.58,1.54 0,0.1 -0.08,0.1 -0.12,0.1 -0.09,0 -0.1,-0.03 -0.15,-0.14 -0.43,-1.04 -0.95,-1.28 -1.29,-1.28 -0.21,0 -0.31,0.13 -0.31,0.46 0,0.24 0.02,0.31 0.06,0.48 z"
   style="fill:#000000;stroke-width:0" />
</g>    <path
       style="fill:none;stroke:#000000;stroke-width:3.51;stroke-linecap:butt;stroke-linejoin:miter;stroke-miterlimit:4;stroke-opacity:1;stroke-dasharray:none;marker-start:url(#StopL);marker-end:none"
       d="m 25.96275,377.80383 436.31689,0"
       id="path3069"
       inkscape:connector-curvature="0" />
    <path
       style="fill:none;stroke:#000000;stroke-width:3.50999999;stroke-linecap:butt;stroke-linejoin:miter;stroke-miterlimit:4;stroke-opacity:1;stroke-dasharray:none;marker-start:none;marker-end:url(#Arrow2Mend)"
       d="m 519.60021,377.80383 428.99632,0"
       id="path11741"
       inkscape:connector-curvature="0" />
    <path
       style="fill:none;stroke:#ff0000;stroke-width:2.33927965;stroke-linecap:butt;stroke-linejoin:miter;stroke-miterlimit:4;stroke-opacity:1;stroke-dasharray:none"
       d="m 374.31345,352.45134 -2e-5,-22.68946 c 62.54375,0 25.64969,0 88.19344,0"
       id="path3065"
       inkscape:connector-curvature="0" />
    <path
       style="fill:none;stroke:#ff0000;stroke-width:2.33927965;stroke-linecap:butt;stroke-linejoin:miter;stroke-miterlimit:4;stroke-opacity:1;stroke-dasharray:none"
       d="m 519.67493,329.76188 c 62.54374,0 217.35723,0 279.90099,0 0,8.29508 0,16.59016 0,24.8852"
       id="path12520"
       inkscape:connector-curvature="0" />
    <path
       style="fill:none;stroke:#ff0000;stroke-width:2.34;stroke-linecap:butt;stroke-linejoin:miter;stroke-miterlimit:4;stroke-opacity:1;stroke-dasharray:none"
       d="m 151.41425,349.80216 -3e-5,-45.87731 c 62.08472,0 249.07673,0 311.16143,0"
       id="path3061"
       inkscape:connector-curvature="0" />
    <path
       style="fill:none;stroke:#ff0000;stroke-width:2.34;stroke-linecap:butt;stroke-linejoin:miter;stroke-miterlimit:4;stroke-opacity:1;stroke-dasharray:none"
       d="m 520.35376,303.92485 c 62.08471,0 -8.516,0 53.56872,0 0,16.77233 0,33.54471 0,50.31707"
       id="path12520-0"
       inkscape:connector-curvature="0" />
    <path
       style="fill:none;stroke:#ff0000;stroke-width:2.33999991;stroke-linecap:butt;stroke-linejoin:miter;stroke-miterlimit:4;stroke-opacity:1;stroke-dasharray:2.34, 4.68;stroke-dashoffset:0"
       d="m 465.29027,303.86657 c 54.78386,0 55.21523,0 55.21523,0"
       id="path4219"
       inkscape:connector-curvature="0" />
    <path
       style="fill:none;stroke:#ff0000;stroke-width:2.33999991;stroke-linecap:butt;stroke-linejoin:miter;stroke-miterlimit:4;stroke-opacity:1;stroke-dasharray:2.34, 4.68;stroke-dashoffset:0"
       d="m 465.01575,329.59187 c 54.78386,0 55.21523,0 55.21523,0"
       id="path4219-8"
       inkscape:connector-curvature="0" />
    <path
       style="fill:none;stroke:#000000;stroke-width:3.50999999;stroke-linecap:butt;stroke-linejoin:miter;stroke-miterlimit:4;stroke-opacity:1;stroke-dasharray:3.51, 7.02;stroke-dashoffset:0"
       d="m 467.01575,377.63066 c 54.78386,0 55.21523,0 55.21523,0"
       id="path4219-1"
       inkscape:connector-curvature="0" />
  </g>
</svg>
