<?xml version="1.0" encoding="UTF-8" standalone="no"?>
<svg
   xmlns:dc="http://purl.org/dc/elements/1.1/"
   xmlns:cc="http://creativecommons.org/ns#"
   xmlns:rdf="http://www.w3.org/1999/02/22-rdf-syntax-ns#"
   xmlns:svg="http://www.w3.org/2000/svg"
   xmlns="http://www.w3.org/2000/svg"
   xmlns:xlink="http://www.w3.org/1999/xlink"
   xmlns:sodipodi="http://sodipodi.sourceforge.net/DTD/sodipodi-0.dtd"
   xmlns:inkscape="http://www.inkscape.org/namespaces/inkscape"
   version="1.1"
   width="600"
   height="600"
   id="svg2"
   inkscape:version="0.48.1 r9760"
   sodipodi:docname="fig-metodo-imagen-esfera-01.svg">
  <metadata
     id="metadata271">
    <rdf:RDF>
      <cc:Work
         rdf:about="">
        <dc:format>image/svg+xml</dc:format>
        <dc:type
           rdf:resource="http://purl.org/dc/dcmitype/StillImage" />
      </cc:Work>
    </rdf:RDF>
  </metadata>
  <sodipodi:namedview
     pagecolor="#ffffff"
     bordercolor="#666666"
     borderopacity="1"
     objecttolerance="10"
     gridtolerance="10"
     guidetolerance="10"
     inkscape:pageopacity="0"
     inkscape:pageshadow="2"
     inkscape:window-width="1440"
     inkscape:window-height="848"
     id="namedview269"
     showgrid="false"
     inkscape:zoom="1.045"
     inkscape:cx="300"
     inkscape:cy="300"
     inkscape:window-x="0"
     inkscape:window-y="0"
     inkscape:window-maximized="1"
     inkscape:current-layer="g715" />
  <title
     id="title4">VFPt_metal_ball_grounded</title>
  <desc
     id="desc6">VFPt_metal_ball_grounded
created with VectorFieldPlot 1.1
http://commons.wikimedia.org/wiki/User:Geek3/VectorFieldPlot

about: http://commons.wikimedia.org/wiki/File:VFPt_metal_ball_grounded.svg
rights: GNU Free Documentation license,
        Creative Commons Attribution ShareAlike license
  </desc>
  <defs
     id="defs8">
    <radialGradient
       id="white_spot"
       cx="0.65"
       cy="0.7"
       r="0.75">
      <stop
         stop-color="#ffffff"
         offset="0"
         stop-opacity="0.7"
         id="stop11" />
      <stop
         stop-color="#ffffff"
         offset="0.1"
         stop-opacity="0.5"
         id="stop13" />
      <stop
         stop-color="#ffffff"
         offset="0.6"
         stop-opacity="0"
         id="stop15" />
      <stop
         stop-color="#000000"
         offset="0.6"
         stop-opacity="0"
         id="stop17" />
      <stop
         stop-color="#000000"
         offset="0.75"
         stop-opacity="0.05"
         id="stop19" />
      <stop
         stop-color="#000000"
         offset="0.85"
         stop-opacity="0.15"
         id="stop21" />
      <stop
         stop-color="#000000"
         offset="1"
         stop-opacity="0.5"
         id="stop23" />
    </radialGradient>
    <path
       id="arrow1"
       stroke="none"
       fill="#000000"
       transform="scale(0.00833333333333)"
       d="M 0.3,0 L -2.2,2.25 L 3.8,0 L -2.2,-2.25 L 0.3,0 Z" />
    <radialGradient
       inkscape:collect="always"
       xlink:href="#white_spot"
       id="radialGradient3248"
       cx="4.4999993"
       cy="5.9999996"
       r="22.5"
       fx="4.4999993"
       fy="5.9999996"
       gradientUnits="userSpaceOnUse" />
    <radialGradient
       inkscape:collect="always"
       xlink:href="#white_spot"
       id="radialGradient3250"
       cx="4.4999993"
       cy="5.9999996"
       r="22.5"
       fx="4.4999993"
       fy="5.9999996"
       gradientUnits="userSpaceOnUse" />
  </defs>
  <g
     id="image"
     transform="matrix(0,120,-120,0,300.4,340.4)">
    <g
       id="fieldlines"
       style="fill:none;stroke:#000000;stroke-width:0.01666667;stroke-linecap:round;stroke-linejoin:round">
      <g
         id="fieldline1">
        <path
           d="m -1,0 0.3094,0.0418 0.1539,0.0189 0.1132,0.0117 0.094,0.0074 0.0826,0.0043 0.0758,0.0015 0.0723,-9e-4 L -0.0277,0.0813 0.0446,0.0754 0.1213,0.0666 0.2072,0.0541 0.3128,0.0359 0.5,0"
           id="path30"
           inkscape:connector-curvature="0" />
        <g
           id="arrows1">
          <use
             xlink:href="#arrow1"
             transform="matrix(1.9988418,0.0680547,-0.0680547,1.9988418,-0.2549,0.0834)"
             id="use33"
             x="0"
             y="0"
             width="600"
             height="600" />
        </g>
      </g>
      <g
         id="fieldline2">
        <path
           d="m -1,0 0.2142,0.0922 0.1143,0.0471 0.0875,0.0335 0.0732,0.0258 0.0649,0.0202 0.0586,0.0159 0.0541,0.0121 0.0508,0.009 0.0482,0.006 0.0463,0.0033 0.0447,7e-4 L -0.0996,0.264 -0.0567,0.2598 -0.0142,0.2531 0.0282,0.2438 0.0708,0.2319 0.1143,0.2172 0.1592,0.1992 0.2063,0.1776 0.2571,0.1513 0.3137,0.1191 0.3829,0.0764 0.5,0"
           id="path36"
           inkscape:connector-curvature="0" />
        <g
           id="arrows2">
          <use
             xlink:href="#arrow1"
             transform="matrix(1.9773035,0.30045118,-0.30045118,1.9773035,-0.296,0.253)"
             id="use39"
             x="0"
             y="0"
             width="600"
             height="600" />
        </g>
      </g>
      <g
         id="fieldline3">
        <path
           d="m -1,0 0.161,0.13 0.0907,0.0706 0.0719,0.0531 0.0625,0.0433 0.0563,0.0362 0.052,0.0305 0.0489,0.0259 0.0464,0.0219 0.0445,0.0182 0.043,0.015 0.0415,0.012 0.0405,0.009 0.0394,0.0063 0.0385,0.0036 0.0376,0.0011 0.0369,-0.0015 0.036,-0.0039 L -0.0169,0.465 0.0179,0.4562 0.0521,0.445 0.0858,0.4313 0.119,0.415 0.1518,0.3962 0.1843,0.3745 0.2166,0.3499 0.2489,0.3221 0.2815,0.2906 0.3147,0.2549 0.3494,0.2137 0.3869,0.165 0.4303,0.1039 0.5,0"
           id="path42"
           inkscape:connector-curvature="0" />
        <g
           id="arrows3">
          <use
             xlink:href="#arrow1"
             transform="matrix(1.8647738,0.72292369,-0.72292369,1.8647738,-0.3835,0.4221)"
             id="use45"
             x="0"
             y="0"
             width="600"
             height="600" />
        </g>
      </g>
      <g
         id="fieldline4">
        <path
           d="m -1,0 0.1134,0.1593 0.0675,0.0912 0.0558,0.0716 0.0503,0.0607 0.0469,0.0529 0.0447,0.0468 0.0433,0.0417 0.0422,0.0373 0.0415,0.0334 0.0409,0.0298 0.0404,0.0263 0.04,0.0232 0.0397,0.0201 0.0392,0.0172 0.0389,0.0143 0.0384,0.0114 0.038,0.0088 0.0374,0.0061 0.0369,0.0034 0.0362,9e-4 L -0.0328,0.7548 0.002,0.7507 0.036,0.7442 0.0693,0.7353 0.1016,0.7241 0.133,0.7105 0.1634,0.6945 0.1928,0.6763 0.2211,0.6558 0.2483,0.6329 0.2744,0.6077 0.2992,0.58 0.3228,0.55 0.3452,0.5174 0.3662,0.4822 0.3859,0.4441 0.4043,0.403 0.4215,0.3584 0.4374,0.3096 0.4523,0.2556 0.4664,0.1941 0.4806,0.12 0.5,0"
           id="path48"
           inkscape:connector-curvature="0" />
        <g
           id="arrows4">
          <use
             xlink:href="#arrow1"
             transform="matrix(1.5654336,1.2447561,-1.2447561,1.5654336,-0.5206,0.5737)"
             id="use51"
             x="0"
             y="0"
             width="600"
             height="600" />
          <use
             xlink:href="#arrow1"
             transform="matrix(1.94811,-0.45262262,0.45262262,1.94811,0.0271,0.7452)"
             id="use53"
             x="0"
             y="0"
             width="600"
             height="600" />
        </g>
      </g>
      <g
         id="fieldline5">
        <path
           d="m -1,0 0.0648,0.1801 0.0413,0.1082 0.0363,0.0889 0.0343,0.0777 0.0335,0.07 0.0335,0.0643 0.0337,0.0595 0.0343,0.0555 0.0349,0.0519 0.0357,0.0486 0.0364,0.0455 0.0372,0.0424 0.0379,0.0396 0.0386,0.0367 0.0393,0.034 0.0398,0.0312 0.0404,0.0284 0.0407,0.0257 0.041,0.0229 0.0413,0.0203 0.0413,0.0175 0.0413,0.0148 0.0412,0.0122 0.041,0.0095 0.0406,0.0069 L 0.0205,1.1966 0.0601,1.1984 0.099,1.1976 0.1372,1.1944 0.1746,1.1887 0.2109,1.1807 0.2463,1.1704 0.2806,1.1578 0.3136,1.143 0.3454,1.126 0.3759,1.1069 0.4049,1.0857 0.4325,1.0625 0.4586,1.0373 0.483,1.0102 0.5058,0.9811 0.5269,0.9502 0.5461,0.9175 0.5635,0.883 0.5789,0.8466 0.5924,0.8086 0.6037,0.7688 0.6129,0.7273 0.6199,0.6841 0.6246,0.6392 0.6269,0.5925 0.6268,0.5441 0.6241,0.4936 0.6187,0.4411 0.6105,0.3861 0.5992,0.3282 0.5845,0.2663 0.5657,0.1984 0.5412,0.1201 0.5,0"
           id="path56"
           inkscape:connector-curvature="0" />
        <g
           id="arrows5">
          <use
             xlink:href="#arrow1"
             transform="matrix(1.072243,1.6882817,-1.6882817,1.072243,-0.6996,0.6854)"
             id="use59"
             x="0"
             y="0"
             width="600"
             height="600" />
          <use
             xlink:href="#arrow1"
             transform="matrix(1.4918823,-1.3320237,1.3320237,1.4918823,0.4201,1.0723)"
             id="use61"
             x="0"
             y="0"
             width="600"
             height="600" />
        </g>
      </g>
      <g
         id="fieldline6">
        <path
           d="m -1,0 0.0141,0.1939 0.0111,0.1222 0.0118,0.1041 0.0131,0.0941 0.0148,0.0876 0.0165,0.083 0.0183,0.0793 0.0202,0.0765 0.0222,0.074 0.0242,0.0717 0.0262,0.0697 0.0281,0.0678 0.0301,0.066 0.0321,0.0642 0.0341,0.0624 0.036,0.0606 0.0378,0.0588 0.0397,0.0569 0.0415,0.0551 0.0432,0.0532 0.0449,0.0512 0.0465,0.0492 0.0481,0.047 0.0495,0.045 0.0508,0.0427 0.0522,0.0405 0.0533,0.0382 0.0544,0.0359 0.0553,0.0334 0.0563,0.031 0.0569,0.0285 0.0577,0.026 0.0581,0.0234 0.0585,0.0208 0.0587,0.0182 0.0589,0.0156 0.0588,0.013 0.0587,0.0103 0.0584,0.0077 0.058,0.0051 0.0574,0.0025 0.0568,0 L 0.7791,2.1837 0.8341,2.1786 0.8879,2.1711 0.9406,2.1611 0.9919,2.1489 1.0418,2.1344 1.0901,2.1177 1.1369,2.0989 1.1818,2.078 1.225,2.0552 1.2663,2.0306 1.3056,2.0041 1.3429,1.976 1.3782,1.9462 1.4113,1.915 1.4422,1.8822 1.471,1.8481 1.4976,1.8127 1.5218,1.7761 1.5438,1.7383 1.5635,1.6994 1.5809,1.6594 1.5959,1.6185 1.6085,1.5766 1.6187,1.5339 1.6265,1.4903 1.6319,1.4459 1.6347,1.4007 1.635,1.3548 1.6327,1.3083 1.6279,1.2611 1.6204,1.2133 1.6101,1.165 1.5972,1.1161 1.5814,1.0668 1.5628,1.0171 1.5413,0.967 1.5168,0.9166 1.4894,0.8659 1.4588,0.8149 1.4252,0.7638 1.3883,0.7126 1.3482,0.6613 1.3048,0.61 1.258,0.5587 1.2078,0.5075 1.1539,0.4563 1.0964,0.4051 1.0349,0.3539 0.9691,0.3026 0.8985,0.2509 0.8222,0.1982 0.7382,0.1434 0.642,0.0839 0.5,0"
           id="path64"
           inkscape:connector-curvature="0" />
        <g
           id="arrows6">
          <use
             xlink:href="#arrow1"
             transform="matrix(0.47028423,1.943922,-1.943922,0.47028423,-0.905,0.743)"
             id="use67"
             x="0"
             y="0"
             width="600"
             height="600" />
          <use
             xlink:href="#arrow1"
             transform="matrix(1.5871316,1.2169689,-1.2169689,1.5871316,-0.2178,1.8573)"
             id="use69"
             x="0"
             y="0"
             width="600"
             height="600" />
          <use
             xlink:href="#arrow1"
             transform="matrix(1.9027592,-0.61604176,0.61604176,1.9027592,1.0368,2.1353)"
             id="use71"
             x="0"
             y="0"
             width="600"
             height="600" />
          <use
             xlink:href="#arrow1"
             transform="matrix(-0.64486182,-1.893186,1.893186,-0.64486182,1.5866,1.0841)"
             id="use73"
             x="0"
             y="0"
             width="600"
             height="600" />
        </g>
      </g>
      <g
         id="fieldline7">
        <path
           d="m -1,0 -0.0395,0.1939 -0.0239,0.1281 -0.0187,0.1127 -0.015,0.105 -0.012,0.1006 -0.0093,0.098 -0.0067,0.0963 -0.0042,0.0953 -0.0017,0.0948 7e-4,0.0947 0.0031,0.0947 0.0056,0.0949 0.008,0.0954 0.0106,0.0958 0.013,0.0966 0.0157,0.0972 0.0182,0.098 0.0209,0.099 0.0236,0.0999 0.0264,0.101 0.0293,0.1021 0.0321,0.1034 0.0351,0.1047 0.0383,0.1062"
           id="path76"
           inkscape:connector-curvature="0" />
        <g
           id="arrows7">
          <use
             xlink:href="#arrow1"
             transform="matrix(-0.15239392,1.9941856,-1.9941856,-0.15239392,-1.1182,0.7401)"
             id="use79"
             x="0"
             y="0"
             width="600"
             height="600" />
          <use
             xlink:href="#arrow1"
             transform="matrix(0.46009947,1.9463577,-1.9463577,0.46009947,-1.0251,1.9336)"
             id="use81"
             x="0"
             y="0"
             width="600"
             height="600" />
        </g>
      </g>
      <g
         id="fieldline8">
        <path
           d="M -1,0 -1.0973,0.1895 -1.162,0.3206 -1.2183,0.44 -1.2696,0.5546 -1.3174,0.6675 -1.3624,0.7803 -1.4051,0.8941 -1.4457,1.0095 -1.4844,1.1272 -1.5213,1.2474 -1.5564,1.3708 -1.5899,1.4975 -1.6217,1.6279 -1.6518,1.7624 -1.6803,1.9013 -1.7072,2.045 -1.7325,2.1937 -1.756,2.348 -1.7779,2.5083"
           id="path84"
           inkscape:connector-curvature="0" />
        <g
           id="arrows8">
          <use
             xlink:href="#arrow1"
             transform="matrix(-0.74629943,1.8555423,-1.8555423,-0.74629943,-1.3212,0.6774)"
             id="use87"
             x="0"
             y="0"
             width="600"
             height="600" />
          <use
             xlink:href="#arrow1"
             transform="matrix(-0.38778384,1.9620458,-1.9620458,-0.38778384,-1.677,1.8858)"
             id="use89"
             x="0"
             y="0"
             width="600"
             height="600" />
        </g>
      </g>
      <g
         id="fieldline9">
        <path
           d="m -1,0 -0.1532,0.1651 -0.1081,0.1196 -0.0978,0.1115 -0.0932,0.1097 -0.091,0.1104 -0.0898,0.1127 -0.0895,0.1159 -0.0896,0.1199 -0.0901,0.1244 -0.0909,0.1295 -0.0921,0.135 -0.0934,0.1412 -0.0951,0.1478 -0.0968,0.155 -0.099,0.1627 -0.1014,0.171 -0.104,0.1801"
           id="path92"
           inkscape:connector-curvature="0" />
        <g
           id="arrows9">
          <use
             xlink:href="#arrow1"
             transform="matrix(-1.2710787,1.5441369,-1.5441369,-1.2710787,-1.4977,0.5609)"
             id="use95"
             x="0"
             y="0"
             width="600"
             height="600" />
          <use
             xlink:href="#arrow1"
             transform="matrix(-1.0604305,1.6957261,-1.6957261,-1.0604305,-2.314,1.7071)"
             id="use97"
             x="0"
             y="0"
             width="600"
             height="600" />
        </g>
      </g>
      <g
         id="fieldline10">
        <path
           d="m -1,0 -0.2204,0.1349 -0.1635,0.1025 -0.1538,0.099 -0.1517,0.1003 -0.153,0.1039 -0.156,0.1086 -0.1603,0.1144 -0.1657,0.121 -0.1718,0.1283 -0.1788,0.1364"
           id="path100"
           inkscape:connector-curvature="0" />
        <g
           id="arrows10">
          <use
             xlink:href="#arrow1"
             transform="matrix(-1.6683494,1.1030006,-1.1030006,-1.6683494,-1.6342,0.4002)"
             id="use103"
             x="0"
             y="0"
             width="600"
             height="600" />
        </g>
      </g>
      <g
         id="fieldline11">
        <path
           d="M -1,0 -1.3236,0.0915 -1.583,0.1671 -1.8387,0.2439 -2.1026,0.3256 -2.3801,0.414 -2.675,0.5104"
           id="path106"
           inkscape:connector-curvature="0" />
        <g
           id="arrows11">
          <use
             xlink:href="#arrow1"
             transform="matrix(-1.9153438,0.57572399,-0.57572399,-1.9153438,-1.7205,0.2084)"
             id="use109"
             x="0"
             y="0"
             width="600"
             height="600" />
        </g>
      </g>
      <g
         id="fieldline12">
        <path
           d="M -1,0 -2.675,0"
           id="path112"
           inkscape:connector-curvature="0" />
        <g
           id="arrows12">
          <use
             xlink:href="#arrow1"
             transform="matrix(-2,0,0,-2,-1.75,0)"
             id="use115"
             x="0"
             y="0"
             width="600"
             height="600" />
        </g>
      </g>
      <g
         id="fieldline13">
        <path
           d="M -1,0 -1.3236,-0.0915 -1.583,-0.1671 -1.8387,-0.2439 -2.1026,-0.3256 -2.3801,-0.414 -2.675,-0.5104"
           id="path118"
           inkscape:connector-curvature="0" />
        <g
           id="arrows13">
          <use
             xlink:href="#arrow1"
             transform="matrix(-1.9153438,-0.57572399,0.57572399,-1.9153438,-1.7205,-0.2084)"
             id="use121"
             x="0"
             y="0"
             width="600"
             height="600" />
        </g>
      </g>
      <g
         id="fieldline14">
        <path
           d="m -1,0 -0.2204,-0.1349 -0.1635,-0.1025 -0.1538,-0.099 -0.1517,-0.1003 -0.153,-0.1039 -0.156,-0.1086 -0.1603,-0.1144 -0.1657,-0.121 -0.1718,-0.1283 -0.1788,-0.1364"
           id="path124"
           inkscape:connector-curvature="0" />
        <g
           id="arrows14">
          <use
             xlink:href="#arrow1"
             transform="matrix(-1.6683494,-1.1030006,1.1030006,-1.6683494,-1.6342,-0.4002)"
             id="use127"
             x="0"
             y="0"
             width="600"
             height="600" />
        </g>
      </g>
      <g
         id="fieldline15">
        <path
           d="m -1,0 -0.1532,-0.1651 -0.1081,-0.1196 -0.0978,-0.1115 -0.0932,-0.1097 -0.091,-0.1104 -0.0898,-0.1127 -0.0895,-0.1159 -0.0896,-0.1199 -0.0901,-0.1244 -0.0909,-0.1295 -0.0921,-0.135 -0.0934,-0.1412 -0.0951,-0.1478 -0.0968,-0.155 -0.099,-0.1627 -0.1014,-0.171 -0.104,-0.1801"
           id="path130"
           inkscape:connector-curvature="0" />
        <g
           id="arrows15">
          <use
             xlink:href="#arrow1"
             transform="matrix(-1.2710787,-1.5441369,1.5441369,-1.2710787,-1.4977,-0.5609)"
             id="use133"
             x="0"
             y="0"
             width="600"
             height="600" />
          <use
             xlink:href="#arrow1"
             transform="matrix(-1.0604305,-1.6957261,1.6957261,-1.0604305,-2.314,-1.7071)"
             id="use135"
             x="0"
             y="0"
             width="600"
             height="600" />
        </g>
      </g>
      <g
         id="fieldline16">
        <path
           d="M -1,0 -1.0973,-0.1895 -1.162,-0.3206 -1.2183,-0.44 -1.2696,-0.5546 -1.3174,-0.6675 -1.3624,-0.7803 -1.4051,-0.8941 -1.4457,-1.0095 -1.4844,-1.1272 -1.5213,-1.2474 -1.5564,-1.3708 -1.5899,-1.4975 -1.6217,-1.6279 -1.6518,-1.7624 -1.6803,-1.9013 -1.7072,-2.045 -1.7325,-2.1937 -1.756,-2.348 -1.7779,-2.5083"
           id="path138"
           inkscape:connector-curvature="0" />
        <g
           id="arrows16">
          <use
             xlink:href="#arrow1"
             transform="matrix(-0.74629943,-1.8555423,1.8555423,-0.74629943,-1.3212,-0.6774)"
             id="use141"
             x="0"
             y="0"
             width="600"
             height="600" />
          <use
             xlink:href="#arrow1"
             transform="matrix(-0.38778384,-1.9620458,1.9620458,-0.38778384,-1.677,-1.8858)"
             id="use143"
             x="0"
             y="0"
             width="600"
             height="600" />
        </g>
      </g>
      <g
         id="fieldline17">
        <path
           d="m -1,0 -0.0395,-0.1939 -0.0239,-0.1281 -0.0187,-0.1127 -0.015,-0.105 -0.012,-0.1006 -0.0093,-0.098 -0.0067,-0.0963 -0.0042,-0.0953 -0.0017,-0.0948 7e-4,-0.0947 0.0031,-0.0947 0.0056,-0.0949 0.008,-0.0954 0.0106,-0.0958 0.013,-0.0966 0.0157,-0.0972 0.0182,-0.098 0.0209,-0.099 0.0236,-0.0999 0.0264,-0.101 0.0293,-0.1021 0.0321,-0.1034 0.0351,-0.1047 0.0383,-0.1062"
           id="path146"
           inkscape:connector-curvature="0" />
        <g
           id="arrows17">
          <use
             xlink:href="#arrow1"
             transform="matrix(-0.15239392,-1.9941856,1.9941856,-0.15239392,-1.1182,-0.7401)"
             id="use149"
             x="0"
             y="0"
             width="600"
             height="600" />
          <use
             xlink:href="#arrow1"
             transform="matrix(0.46009947,-1.9463577,1.9463577,0.46009947,-1.0251,-1.9336)"
             id="use151"
             x="0"
             y="0"
             width="600"
             height="600" />
        </g>
      </g>
      <g
         id="fieldline18">
        <path
           d="m -1,0 0.0141,-0.1939 0.0111,-0.1222 0.0118,-0.1041 0.0131,-0.0941 0.0148,-0.0876 0.0165,-0.083 0.0183,-0.0793 0.0202,-0.0765 0.0222,-0.074 0.0242,-0.0717 0.0262,-0.0697 0.0281,-0.0678 0.0301,-0.066 0.0321,-0.0642 0.0341,-0.0624 0.036,-0.0606 0.0378,-0.0588 0.0397,-0.0569 0.0415,-0.0551 0.0432,-0.0532 0.0449,-0.0512 0.0465,-0.0492 0.0481,-0.047 0.0495,-0.045 0.0508,-0.0427 0.0522,-0.0405 0.0533,-0.0382 0.0544,-0.0359 0.0553,-0.0334 0.0563,-0.031 0.0569,-0.0285 0.0577,-0.026 0.0581,-0.0234 0.0585,-0.0208 0.0587,-0.0182 0.0589,-0.0156 0.0588,-0.013 0.0587,-0.0103 0.0584,-0.0077 0.058,-0.0051 0.0574,-0.0025 0.0568,0 0.0558,0.0026 0.055,0.0051 0.0538,0.0075 0.0527,0.01 0.0513,0.0122 0.0499,0.0145 0.0483,0.0167 0.0468,0.0188 0.0449,0.0209 0.0432,0.0228 0.0413,0.0246 0.0393,0.0265 0.0373,0.0281 0.0353,0.0298 0.0331,0.0312 0.0309,0.0328 0.0288,0.0341 0.0266,0.0354 0.0242,0.0366 0.022,0.0378 0.0197,0.0389 0.0174,0.04 0.015,0.0409 0.0126,0.0419 0.0102,0.0427 0.0078,0.0436 0.0054,0.0444 0.0028,0.0452 3e-4,0.0459 L 1.6327,-1.3083 1.6279,-1.2611 1.6204,-1.2133 1.6101,-1.165 1.5972,-1.1161 1.5814,-1.0668 1.5628,-1.0171 1.5413,-0.967 1.5168,-0.9166 1.4894,-0.8659 1.4588,-0.8149 1.4252,-0.7638 1.3883,-0.7126 1.3482,-0.6613 1.3048,-0.61 1.258,-0.5587 1.2078,-0.5075 1.1539,-0.4563 1.0964,-0.4051 1.0349,-0.3539 0.9691,-0.3026 0.8985,-0.2509 0.8222,-0.1982 0.7382,-0.1434 0.642,-0.0839 0.5,0"
           id="path154"
           inkscape:connector-curvature="0" />
        <g
           id="arrows18">
          <use
             xlink:href="#arrow1"
             transform="matrix(0.47028423,-1.943922,1.943922,0.47028423,-0.905,-0.743)"
             id="use157"
             x="0"
             y="0"
             width="600"
             height="600" />
          <use
             xlink:href="#arrow1"
             transform="matrix(1.5871316,-1.2169689,1.2169689,1.5871316,-0.2178,-1.8573)"
             id="use159"
             x="0"
             y="0"
             width="600"
             height="600" />
          <use
             xlink:href="#arrow1"
             transform="matrix(1.9027592,0.61604176,-0.61604176,1.9027592,1.0368,-2.1353)"
             id="use161"
             x="0"
             y="0"
             width="600"
             height="600" />
          <use
             xlink:href="#arrow1"
             transform="matrix(-0.64486182,1.893186,-1.893186,-0.64486182,1.5866,-1.0841)"
             id="use163"
             x="0"
             y="0"
             width="600"
             height="600" />
        </g>
      </g>
      <g
         id="fieldline19">
        <path
           d="m -1,0 0.0648,-0.1801 0.0413,-0.1082 0.0363,-0.0889 0.0343,-0.0777 0.0335,-0.07 0.0335,-0.0643 0.0337,-0.0595 0.0343,-0.0555 0.0349,-0.0519 0.0357,-0.0486 0.0364,-0.0455 0.0372,-0.0424 0.0379,-0.0396 0.0386,-0.0367 0.0393,-0.034 0.0398,-0.0312 0.0404,-0.0284 0.0407,-0.0257 0.041,-0.0229 0.0413,-0.0203 0.0413,-0.0175 0.0413,-0.0148 0.0412,-0.0122 0.041,-0.0095 0.0406,-0.0069 0.0402,-0.0043 0.0396,-0.0018 0.0389,8e-4 0.0382,0.0032 0.0374,0.0057 0.0363,0.008 0.0354,0.0103 0.0343,0.0126 0.033,0.0148 0.0318,0.017 0.0305,0.0191 0.029,0.0212 0.0276,0.0232 0.0261,0.0252 0.0244,0.0271 0.0228,0.0291 0.0211,0.0309 0.0192,0.0327 0.0174,0.0345 0.0154,0.0364 0.0135,0.038 0.0113,0.0398 0.0092,0.0415 0.007,0.0432 0.0047,0.0449 0.0023,0.0467 -10e-5,0.0484 -0.0027,0.0505 -0.0054,0.0525 -0.0082,0.055 L 0.5992,-0.3282 0.5845,-0.2663 0.5657,-0.1984 0.5412,-0.1201 0.5,0"
           id="path166"
           inkscape:connector-curvature="0" />
        <g
           id="arrows19">
          <use
             xlink:href="#arrow1"
             transform="matrix(1.072243,-1.6882817,1.6882817,1.072243,-0.6996,-0.6854)"
             id="use169"
             x="0"
             y="0"
             width="600"
             height="600" />
          <use
             xlink:href="#arrow1"
             transform="matrix(1.4918823,1.3320237,-1.3320237,1.4918823,0.4201,-1.0723)"
             id="use171"
             x="0"
             y="0"
             width="600"
             height="600" />
        </g>
      </g>
      <g
         id="fieldline20">
        <path
           d="m -1,0 0.1134,-0.1593 0.0675,-0.0912 0.0558,-0.0716 0.0503,-0.0607 0.0469,-0.0529 0.0447,-0.0468 0.0433,-0.0417 0.0422,-0.0373 0.0415,-0.0334 0.0409,-0.0298 0.0404,-0.0263 0.04,-0.0232 0.0397,-0.0201 0.0392,-0.0172 0.0389,-0.0143 0.0384,-0.0114 0.038,-0.0088 0.0374,-0.0061 0.0369,-0.0034 0.0362,-9e-4 0.0356,0.0016 0.0348,0.0041 0.034,0.0065 0.0333,0.0089 0.0323,0.0112 0.0314,0.0136 0.0304,0.016 0.0294,0.0182 0.0283,0.0205 0.0272,0.0229 0.0261,0.0252 0.0248,0.0277 0.0236,0.03 0.0224,0.0326 0.021,0.0352 0.0197,0.0381 0.0184,0.0411 0.0172,0.0446 0.0159,0.0488 0.0149,0.054 0.0141,0.0615 L 0.4806,-0.12 0.5,0"
           id="path174"
           inkscape:connector-curvature="0" />
        <g
           id="arrows20">
          <use
             xlink:href="#arrow1"
             transform="matrix(1.5654336,-1.2447561,1.2447561,1.5654336,-0.5206,-0.5737)"
             id="use177"
             x="0"
             y="0"
             width="600"
             height="600" />
          <use
             xlink:href="#arrow1"
             transform="matrix(1.94811,0.45262262,-0.45262262,1.94811,0.0271,-0.7452)"
             id="use179"
             x="0"
             y="0"
             width="600"
             height="600" />
        </g>
      </g>
      <g
         id="fieldline21">
        <path
           d="m -1,0 0.161,-0.13 0.0907,-0.0706 0.0719,-0.0531 0.0625,-0.0433 0.0563,-0.0362 0.052,-0.0305 0.0489,-0.0259 0.0464,-0.0219 0.0445,-0.0182 0.043,-0.015 0.0415,-0.012 0.0405,-0.009 0.0394,-0.0063 0.0385,-0.0036 0.0376,-0.0011 0.0369,0.0015 0.036,0.0039 0.0355,0.0063 0.0348,0.0088 0.0342,0.0112 0.0337,0.0137 0.0332,0.0163 0.0328,0.0188 0.0325,0.0217 0.0323,0.0246 0.0323,0.0278 0.0326,0.0315 0.0332,0.0357 0.0347,0.0412 0.0375,0.0487 0.0434,0.0611 L 0.5,0"
           id="path182"
           inkscape:connector-curvature="0" />
        <g
           id="arrows21">
          <use
             xlink:href="#arrow1"
             transform="matrix(1.8647738,-0.72292369,0.72292369,1.8647738,-0.3835,-0.4221)"
             id="use185"
             x="0"
             y="0"
             width="600"
             height="600" />
        </g>
      </g>
      <g
         id="fieldline22">
        <path
           d="m -1,0 0.2142,-0.0922 0.1143,-0.0471 0.0875,-0.0335 0.0732,-0.0258 0.0649,-0.0202 0.0586,-0.0159 0.0541,-0.0121 0.0508,-0.009 0.0482,-0.006 0.0463,-0.0033 0.0447,-7e-4 0.0436,0.0018 0.0429,0.0042 0.0425,0.0067 0.0424,0.0093 0.0426,0.0119 0.0435,0.0147 0.0449,0.018 0.0471,0.0216 0.0508,0.0263 0.0566,0.0322 0.0692,0.0427 L 0.5,0"
           id="path188"
           inkscape:connector-curvature="0" />
        <g
           id="arrows22">
          <use
             xlink:href="#arrow1"
             transform="matrix(1.9773035,-0.30045118,0.30045118,1.9773035,-0.296,-0.253)"
             id="use191"
             x="0"
             y="0"
             width="600"
             height="600" />
        </g>
      </g>
      <g
         id="fieldline23">
        <path
           d="m -1,0 0.3094,-0.0418 0.1539,-0.0189 0.1132,-0.0117 0.094,-0.0074 0.0826,-0.0043 0.0758,-0.0015 0.0723,9e-4 0.0711,0.0034 0.0723,0.0059 0.0767,0.0088 0.0859,0.0125 0.1056,0.0182 L 0.5,0"
           id="path194"
           inkscape:connector-curvature="0" />
        <g
           id="arrows23">
          <use
             xlink:href="#arrow1"
             transform="matrix(1.9988418,-0.0680547,0.0680547,1.9988418,-0.2549,-0.0834)"
             id="use197"
             x="0"
             y="0"
             width="600"
             height="600" />
        </g>
      </g>
    </g>
    <g
       id="symbols">
      <g
         id="charge1"
         transform="matrix(0.00833333,0,0,0.00833333,-1,0)">
        <circle
           style="fill:#ff0000;stroke:none"
           cx="0"
           cy="0"
           r="14"
           id="circle201"
           d="M 14,0 C 14,7.7319865 7.7319865,14 0,14 -7.7319865,14 -14,7.7319865 -14,0 c 0,-7.7319865 6.2680135,-14 14,-14 7.7319865,0 14,6.2680135 14,14 z"
           sodipodi:cx="0"
           sodipodi:cy="0"
           sodipodi:rx="14"
           sodipodi:ry="14" />
        <circle
           cx="0"
           cy="0"
           r="14"
           style="fill:url(#radialGradient3248);stroke:#000000;stroke-width:2"
           id="circle203"
           d="M 14,0 C 14,7.7319865 7.7319865,14 0,14 -7.7319865,14 -14,7.7319865 -14,0 c 0,-7.7319865 6.2680135,-14 14,-14 7.7319865,0 14,6.2680135 14,14 z"
           sodipodi:cx="0"
           sodipodi:cy="0"
           sodipodi:rx="14"
           sodipodi:ry="14" />
        <path
           d="M 2,2 V 8 H -2 V 2 h -6 v -4 h 6 v -6 h 4 v 6 H 8 V 2 H 2 z"
           style="fill:#000000;stroke:none"
           id="path205"
           inkscape:connector-curvature="0" />
      </g>
      <g
         id="charge2"
         transform="matrix(0.00589256,0,0,0.00589256,0.5,0)">
        <circle
           style="fill:#0000ff;stroke:none"
           cx="0"
           cy="0"
           r="14"
           id="circle208"
           d="M 14,0 C 14,7.7319865 7.7319865,14 0,14 -7.7319865,14 -14,7.7319865 -14,0 c 0,-7.7319865 6.2680135,-14 14,-14 7.7319865,0 14,6.2680135 14,14 z"
           sodipodi:cx="0"
           sodipodi:cy="0"
           sodipodi:rx="14"
           sodipodi:ry="14" />
        <circle
           cx="0"
           cy="0"
           r="14"
           style="fill:url(#radialGradient3250);stroke:#000000;stroke-width:2"
           id="circle210"
           d="M 14,0 C 14,7.7319865 7.7319865,14 0,14 -7.7319865,14 -14,7.7319865 -14,0 c 0,-7.7319865 6.2680135,-14 14,-14 7.7319865,0 14,6.2680135 14,14 z"
           sodipodi:cx="0"
           sodipodi:cy="0"
           sodipodi:rx="14"
           sodipodi:ry="14" />
        <path
           d="M 8,2 H -8 V -2 H 8 v 4 z"
           style="fill:#000000;stroke:none"
           id="path212"
           inkscape:connector-curvature="0" />
      </g>
      <g
         style="fill:none;stroke:#000000;stroke-linecap:square"
         id="metal_ball"
         transform="translate(1,0)">
        <linearGradient
           y2="1"
           gradientUnits="objectBoundingBox"
           y1="0"
           x2="0"
           x1="0"
           id="rod_shade">
          <stop
             stop-color="#666"
             offset="0"
             id="stop216" />
          <stop
             stop-color="#ddd"
             offset="0.6"
             id="stop218" />
          <stop
             stop-color="#fff"
             offset="0.7"
             id="stop220" />
          <stop
             stop-color="#ccc"
             offset="0.75"
             id="stop222" />
          <stop
             stop-color="#888"
             offset="1"
             id="stop224" />
        </linearGradient>
        <radialGradient
           fx="0.31874996"
           fy="0.42499998"
           gradientUnits="userSpaceOnUse"
           cy="0.085000046"
           cx="0.063749939"
           r="1.16875"
           id="metal_spot">
          <stop
             stop-color="#fff"
             offset="0"
             id="stop229" />
          <stop
             stop-color="#e7e7e7"
             offset="0.15"
             id="stop231" />
          <stop
             stop-color="#ddd"
             offset="0.25"
             id="stop233" />
          <stop
             stop-color="#aaa"
             offset="0.7"
             id="stop235" />
          <stop
             stop-color="#888"
             offset="0.9"
             id="stop237" />
          <stop
             stop-color="#666"
             offset="1"
             id="stop239" />
        </radialGradient>
        <circle
           cy="0"
           cx="0"
           r="1"
           style="fill:url(#metal_spot);stroke-width:0.02"
           id="circle241"
           d="M 1,0 C 1,0.55228475 0.55228475,1 0,1 -0.55228475,1 -1,0.55228475 -1,0 c 0,-0.55228475 0.44771525,-1 1,-1 0.55228475,0 1,0.44771525 1,1 z"
           sodipodi:cx="0"
           sodipodi:cy="0"
           sodipodi:rx="1"
           sodipodi:ry="1" />
        <g
           style="stroke-width:0.01667"
           id="g243">
          <path
             d="m -0.91667,0.075 h 0.03333"
             id="path245"
             inkscape:connector-curvature="0" />
          <path
             d="m -0.89167,0.21667 h 0.03333"
             id="path247"
             inkscape:connector-curvature="0" />
          <path
             d="M -0.83333,0.38333 H -0.8"
             id="path249"
             inkscape:connector-curvature="0" />
          <path
             d="M -0.70833,0.58333 H -0.675"
             id="path251"
             inkscape:connector-curvature="0" />
          <path
             d="m -0.41667,0.80833 h 0.03333"
             id="path253"
             inkscape:connector-curvature="0" />
          <path
             d="M 0.425,0.78333 H 0.45833"
             id="path255"
             inkscape:connector-curvature="0" />
          <path
             d="M 0.425,-0.78333 H 0.45833"
             id="path257"
             inkscape:connector-curvature="0" />
          <path
             d="m -0.41667,-0.80833 h 0.03333"
             id="path259"
             inkscape:connector-curvature="0" />
          <path
             d="M -0.70833,-0.58333 H -0.675"
             id="path261"
             inkscape:connector-curvature="0" />
          <path
             d="M -0.83333,-0.38333 H -0.8"
             id="path263"
             inkscape:connector-curvature="0" />
          <path
             d="m -0.89167,-0.21667 h 0.03333"
             id="path265"
             inkscape:connector-curvature="0" />
          <path
             d="m -0.91667,-0.075 h 0.03333"
             id="path267"
             inkscape:connector-curvature="0" />
        </g>
      </g>
    </g>
  </g>
  <g
     transform="matrix(0.02548825,0,0,0.02638693,66.564393,138.69071)"
     id="g715"
     style="stroke-width:38.55986976;stroke-miterlimit:4;stroke-dasharray:none;visibility:visible">
    <desc
       id="desc717">Group</desc>
    <g
       id="g719"
       style="stroke-width:96.39967441;stroke-miterlimit:4;stroke-dasharray:none">
      <desc
         id="desc721">Drawing</desc>
      <g
         id="g723"
         style="stroke-width:96.39967441;stroke-miterlimit:4;stroke-dasharray:none">
        <g
           style="fill:none;stroke:#000000;stroke-width:96.39967441;stroke-miterlimit:4;stroke-dasharray:none"
           id="g725">
          <path
             inkscape:connector-curvature="0"
             style="fill:none;stroke-width:96.39967441;stroke-miterlimit:4;stroke-dasharray:none"
             d="m 11800,14800 800,0 0,2000"
             id="path727" />
        </g>
        <g
           id="g729"
           style="stroke-width:96.39967441;stroke-miterlimit:4;stroke-dasharray:none" />
      </g>
    </g>
    <g
       id="g731"
       style="stroke-width:96.39967441;stroke-miterlimit:4;stroke-dasharray:none">
      <desc
         id="desc733">Group</desc>
      <g
         id="g735"
         style="stroke-width:96.39967441;stroke-miterlimit:4;stroke-dasharray:none">
        <desc
           id="desc737">Drawing</desc>
        <g
           id="g739"
           style="stroke-width:96.39967441;stroke-miterlimit:4;stroke-dasharray:none">
          <g
             style="fill:none;stroke:#000000;stroke-width:96.39967441;stroke-miterlimit:4;stroke-dasharray:none"
             id="g741">
            <path
               inkscape:connector-curvature="0"
               style="fill:none;stroke-width:96.39967441;stroke-miterlimit:4;stroke-dasharray:none"
               d="m 12100,16900 1100,0"
               id="path743" />
          </g>
          <g
             id="g745"
             style="stroke-width:96.39967441;stroke-miterlimit:4;stroke-dasharray:none" />
        </g>
      </g>
      <g
         id="g747"
         style="stroke-width:96.39967441;stroke-miterlimit:4;stroke-dasharray:none">
        <desc
           id="desc749">Drawing</desc>
        <g
           id="g751"
           style="stroke-width:96.39967441;stroke-miterlimit:4;stroke-dasharray:none">
          <g
             style="fill:none;stroke:#000000;stroke-width:96.39967441;stroke-miterlimit:4;stroke-dasharray:none"
             id="g753">
            <path
               inkscape:connector-curvature="0"
               style="fill:none;stroke-width:96.39967441;stroke-miterlimit:4;stroke-dasharray:none"
               d="m 12300,17100 700,0"
               id="path755" />
          </g>
          <g
             id="g757"
             style="stroke-width:96.39967441;stroke-miterlimit:4;stroke-dasharray:none" />
        </g>
      </g>
      <g
         id="g759"
         style="stroke-width:96.39967441;stroke-miterlimit:4;stroke-dasharray:none">
        <desc
           id="desc761">Drawing</desc>
        <g
           id="g763"
           style="stroke-width:96.39967441;stroke-miterlimit:4;stroke-dasharray:none">
          <g
             style="fill:none;stroke:#000000;stroke-width:96.39967441;stroke-miterlimit:4;stroke-dasharray:none"
             id="g765">
            <path
               inkscape:connector-curvature="0"
               style="fill:none;stroke-width:96.39967441;stroke-miterlimit:4;stroke-dasharray:none"
               d="m 12400,17300 500,0"
               id="path767" />
          </g>
          <g
             id="g769"
             style="stroke-width:96.39967441;stroke-miterlimit:4;stroke-dasharray:none" />
        </g>
      </g>
    </g>
  </g>
</svg>
