<?xml version="1.0" encoding="UTF-8" standalone="no"?>
<svg
   xmlns:ns0="http://www.iki.fi/pav/software/textext/"
   xmlns:dc="http://purl.org/dc/elements/1.1/"
   xmlns:cc="http://creativecommons.org/ns#"
   xmlns:rdf="http://www.w3.org/1999/02/22-rdf-syntax-ns#"
   xmlns:svg="http://www.w3.org/2000/svg"
   xmlns="http://www.w3.org/2000/svg"
   xmlns:xlink="http://www.w3.org/1999/xlink"
   xmlns:sodipodi="http://sodipodi.sourceforge.net/DTD/sodipodi-0.dtd"
   xmlns:inkscape="http://www.inkscape.org/namespaces/inkscape"
   version="1.1"
   width="600"
   height="600"
   id="svg2"
   inkscape:version="0.48.3.1 r9886"
   sodipodi:docname="fig-campo-dipolo-magnetico.svg">
  <sodipodi:namedview
     pagecolor="#ffffff"
     bordercolor="#666666"
     borderopacity="1"
     objecttolerance="10"
     gridtolerance="10"
     guidetolerance="10"
     inkscape:pageopacity="0"
     inkscape:pageshadow="2"
     inkscape:window-width="1440"
     inkscape:window-height="850"
     id="namedview167"
     showgrid="false"
     inkscape:zoom="1.0466667"
     inkscape:cx="300"
     inkscape:cy="300"
     inkscape:window-x="0"
     inkscape:window-y="0"
     inkscape:window-maximized="1"
     inkscape:current-layer="svg2" />
  <metadata
     id="metadata169">
    <rdf:RDF>
      <cc:Work
         rdf:about="">
        <dc:format>image/svg+xml</dc:format>
        <dc:type
           rdf:resource="http://purl.org/dc/dcmitype/StillImage" />
        <dc:title>VFPt_dipole_point</dc:title>
      </cc:Work>
    </rdf:RDF>
  </metadata>
  <title
     id="title4">VFPt_dipole_point</title>
  <desc
     id="desc6">VFPt_dipole_point
created with VectorFieldPlot 1.1
http://commons.wikimedia.org/wiki/User:Geek3/VectorFieldPlot

about: http://commons.wikimedia.org/wiki/File:VFPt_dipole_point.svg
rights: GNU Free Documentation license,
        Creative Commons Attribution ShareAlike license
  </desc>
  <defs
     id="defs8">
    <marker
       inkscape:stockid="Arrow2Send"
       orient="auto"
       refY="0.0"
       refX="0.0"
       id="Arrow2Send"
       style="overflow:visible;">
      <path
         id="path3908"
         style="font-size:12.0;fill-rule:evenodd;stroke-width:0.62500000;stroke-linejoin:round;"
         d="M 8.7185878,4.0337352 L -2.2072895,0.016013256 L 8.7185884,-4.0017078 C 6.9730900,-1.6296469 6.9831476,1.6157441 8.7185878,4.0337352 z "
         transform="scale(0.3) rotate(180) translate(-2.3,0)" />
    </marker>
    <marker
       inkscape:stockid="Arrow2Mend"
       orient="auto"
       refY="0.0"
       refX="0.0"
       id="Arrow2Mend"
       style="overflow:visible;">
      <path
         id="path3902"
         style="font-size:12.0;fill-rule:evenodd;stroke-width:0.62500000;stroke-linejoin:round;"
         d="M 8.7185878,4.0337352 L -2.2072895,0.016013256 L 8.7185884,-4.0017078 C 6.9730900,-1.6296469 6.9831476,1.6157441 8.7185878,4.0337352 z "
         transform="scale(0.6) rotate(180) translate(0,0)" />
    </marker>
    <path
       id="arrow1"
       stroke="none"
       fill="#000000"
       transform="scale(0.01)"
       d="M 0.3,0 L -2.2,2.25 L 3.8,0 L -2.2,-2.25 L 0.3,0 Z" />
    <defs
       id="defs152">
      <radialGradient
         cy="5.9999995"
         cx="4.4999995"
         r="22.5"
         id="light_spot"
         fx="4.4999995"
         fy="5.9999995"
         gradientUnits="userSpaceOnUse">
        <stop
           stop-color="#fff"
           offset="0"
           id="stop155" />
        <stop
           stop-color="#ddd"
           offset="0.15"
           id="stop157" />
        <stop
           stop-color="#aaa"
           offset="0.7"
           id="stop159" />
        <stop
           stop-color="#444"
           offset="1"
           id="stop161" />
      </radialGradient>
    </defs>
    <radialGradient
       inkscape:collect="always"
       xlink:href="#light_spot"
       id="radialGradient3100"
       gradientUnits="userSpaceOnUse"
       cx="4.4999995"
       cy="5.9999995"
       fx="4.4999995"
       fy="5.9999995"
       r="22.5" />
  </defs>
  <g
     id="image"
     transform="matrix(0,-100,-100,0,300,300)"
     style="stroke:#000080">
    <g
       id="fieldlines"
       style="fill:none;stroke:#000080;stroke-width:0.02400000000000000;stroke-linecap:round;stroke-linejoin:round">
      <g
         id="fieldline1"
         style="stroke:#000080">
        <path
           d="m 0,0 0.0102,-0.002 0.0136,-0.0055 0.0147,-0.0087 0.0144,-0.0116 0.0135,-0.0141 0.0121,-0.0162 0.0101,-0.0178 0.008,-0.0189 0.0057,-0.0198 0.0031,-0.0201 7e-4,-0.0199 L 0.1044,-0.1741 0.1002,-0.1926 0.0939,-0.2098 0.0855,-0.2255 0.0754,-0.2394 0.0638,-0.2512 0.0509,-0.2609 0.037,-0.2682 0.0225,-0.2731 0.0076,-0.2756 l -0.0151,0 -0.015,0.0025 -0.0145,0.0049 -0.0139,0.0073 -0.0129,0.0097 -0.0116,0.0118 -0.0101,0.0139 -0.0084,0.0157 -0.0063,0.0172 -0.0042,0.0185 -0.0017,0.0195 7e-4,0.0199 0.0031,0.0201 0.0057,0.0198 0.008,0.0189 0.0101,0.0178 0.0121,0.0162 0.0135,0.0141 0.0144,0.0116 0.0147,0.0087 0.0136,0.0055 L 0,0 z"
           id="path15"
           inkscape:connector-curvature="0"
           style="stroke:#000080" />
        <g
           id="arrows1"
           style="stroke:#000080">
          <use
             xlink:href="#arrow1"
             transform="matrix(-2.5730606,0.59072764,-0.59072764,-2.5730606,0.002,-0.267)"
             id="use18"
             x="0"
             y="0"
             width="600"
             height="600"
             style="stroke:#000080" />
        </g>
      </g>
      <g
         id="fieldline2"
         style="stroke:#000080">
        <path
           d="m 0,0 0.0116,-0.0021 0.0156,-0.0056 0.0171,-0.009 0.0173,-0.0121 0.0168,-0.0149 0.0157,-0.0172 0.014,-0.0193 0.0122,-0.021 0.01,-0.0222 0.0076,-0.0231 0.0052,-0.0237 0.0026,-0.0237 1e-4,-0.0235 L 0.1434,-0.2403 0.1386,-0.2623 0.1315,-0.283 0.1223,-0.3022 0.1113,-0.3196 0.0985,-0.3351 0.0843,-0.3484 0.0689,-0.3595 0.0525,-0.3682 0.0354,-0.3744 0.0178,-0.3782 0,-0.3794 l -0.0178,0.0012 -0.0176,0.0038 -0.0171,0.0062 -0.0164,0.0087 -0.0154,0.0111 -0.0142,0.0133 -0.0128,0.0155 -0.011,0.0174 -0.0092,0.0192 -0.0071,0.0207 -0.0048,0.022 -0.0024,0.0229 1e-4,0.0235 0.0026,0.0237 0.0052,0.0237 0.0076,0.0231 0.01,0.0222 0.0122,0.021 0.014,0.0193 0.0157,0.0172 0.0168,0.0149 0.0173,0.0121 0.0171,0.009 0.0156,0.0056 L 0,0 z"
           id="path21"
           inkscape:connector-curvature="0"
           style="stroke:#000080" />
        <g
           id="arrows2"
           style="stroke:#000080">
          <use
             xlink:href="#arrow1"
             transform="matrix(-2.6037179,0.43618012,-0.43618012,-2.6037179,0.0012,-0.3726)"
             id="use24"
             x="0"
             y="0"
             width="600"
             height="600"
             style="stroke:#000080" />
        </g>
      </g>
      <g
         id="fieldline3"
         style="stroke:#000080">
        <path
           d="m 0,0 0.0131,-0.0021 0.0179,-0.0056 0.02,-0.0092 0.0208,-0.0123 0.0207,-0.0154 0.02,-0.018 L 0.1314,-0.083 0.1488,-0.1055 0.1644,-0.1299 0.1779,-0.1557 0.1892,-0.1826 0.1981,-0.2104 0.2045,-0.2387 0.2084,-0.2671 0.2098,-0.2955 0.2087,-0.3234 0.2051,-0.3505 0.1991,-0.3767 0.1909,-0.4017 0.1805,-0.4252 0.1682,-0.4469 0.154,-0.4669 0.1383,-0.4848 0.1211,-0.5005 0.1028,-0.514 0.0834,-0.5251 0.0633,-0.5339 0.0425,-0.5401 0.0213,-0.5439 0,-0.5451 l -0.0213,0.0012 -0.0212,0.0038 -0.0208,0.0062 -0.0201,0.0088 -0.0194,0.0111 -0.0184,0.0135 -0.0171,0.0157 -0.0157,0.0179 -0.0142,0.0199 -0.0123,0.0218 -0.0104,0.0235 -0.0082,0.025 -0.006,0.0262 -0.0036,0.0271 -0.0011,0.0279 0.0014,0.0284 0.0039,0.0284 0.0064,0.0283 0.0089,0.0278 0.0113,0.0269 0.0135,0.0258 0.0156,0.0244 0.0174,0.0225 0.0189,0.0204 0.02,0.018 0.0207,0.0154 0.0208,0.0123 0.02,0.0092 0.0179,0.0056 L 0,0 z"
           id="path27"
           inkscape:connector-curvature="0"
           style="stroke:#000080" />
        <g
           id="arrows3"
           style="stroke:#000080">
          <use
             xlink:href="#arrow1"
             transform="matrix(-2.6219705,0.30801075,-0.30801075,-2.6219705,6e-4,-0.5403)"
             id="use30"
             x="0"
             y="0"
             width="600"
             height="600"
             style="stroke:#000080" />
        </g>
      </g>
      <g
         id="fieldline4"
         style="stroke:#000080">
        <path
           d="M 0,0 0.0153,-0.0021 0.0363,-0.0078 0.0602,-0.0171 0.0855,-0.0298 0.1113,-0.0457 0.137,-0.0646 0.1622,-0.0862 0.1863,-0.1103 0.2091,-0.1367 0.2302,-0.1651 0.2495,-0.1953 0.2668,-0.227 0.2818,-0.26 0.2946,-0.2939 0.3049,-0.3286 0.3127,-0.3637 0.3179,-0.399 0.3206,-0.4343 0.3208,-0.4692 0.3184,-0.5036 0.3136,-0.5372 0.3064,-0.5698 0.2969,-0.6012 0.2852,-0.6312 0.2714,-0.6596 0.2557,-0.6863 0.2382,-0.7111 0.219,-0.7338 0.1984,-0.7544 0.1765,-0.7728 0.1534,-0.7889 0.1293,-0.8026 0.1044,-0.8138 0.0789,-0.8227 0.0529,-0.829 0.0265,-0.8328 0,-0.834 l -0.0265,0.0012 -0.0264,0.0038 -0.026,0.0063 -0.0255,0.0089 -0.0249,0.0112 -0.0241,0.0137 -0.0231,0.0161 -0.0219,0.0184 -0.0206,0.0206 -0.0192,0.0227 -0.0175,0.0248 -0.0157,0.0267 -0.0138,0.0284 -0.0117,0.03 -0.0095,0.0314 -0.0072,0.0326 -0.0048,0.0336 -0.0024,0.0344 2e-4,0.0349 0.0027,0.0353 0.0052,0.0353 0.0078,0.0351 0.0103,0.0347 0.0128,0.0339 0.015,0.033 0.0173,0.0317 0.0193,0.0302 0.0211,0.0284 0.0228,0.0264 0.0241,0.0241 0.0252,0.0216 0.0257,0.0189 0.0258,0.0159 0.0253,0.0127 0.0239,0.0093 0.021,0.0057 L 0,0 z"
           id="path33"
           inkscape:connector-curvature="0"
           style="stroke:#000080" />
        <g
           id="arrows4"
           style="stroke:#000080">
          <use
             xlink:href="#arrow1"
             transform="matrix(-2.6316434,0.20988798,-0.20988798,-2.6316434,3e-4,-0.8308)"
             id="use36"
             x="0"
             y="0"
             width="600"
             height="600"
             style="stroke:#000080" />
        </g>
      </g>
      <g
         id="fieldline5"
         style="stroke:#000080">
        <path
           d="M 0,0 0.0183,-0.0021 0.0437,-0.0079 0.073,-0.0173 0.1045,-0.0303 0.1374,-0.0466 0.1709,-0.0661 0.2045,-0.0888 0.2377,-0.1143 0.2703,-0.1425 0.302,-0.1732 0.3323,-0.2064 0.3612,-0.2417 0.3884,-0.2789 0.4138,-0.3179 0.4371,-0.3585 0.4583,-0.4005 0.4772,-0.4437 0.4938,-0.4878 0.508,-0.5326 0.5197,-0.578 0.5289,-0.6238 0.5355,-0.6697 0.5395,-0.7155 0.541,-0.7611 0.54,-0.8063 0.5364,-0.8509 0.5304,-0.8947 0.522,-0.9375 0.5112,-0.9791 0.4981,-1.0195 0.4829,-1.0585 0.4656,-1.0959 0.4463,-1.1316 0.4251,-1.1655 0.4022,-1.1974 0.3776,-1.2273 0.3514,-1.2552 0.3239,-1.2808 0.2951,-1.3042 0.2652,-1.3252 0.2343,-1.3439 0.2024,-1.3602 0.1698,-1.374 0.1366,-1.3854 0.1029,-1.3942 0.0688,-1.4005 0.0345,-1.4044 0,-1.4056 l -0.0345,0.0012 -0.0343,0.0039 -0.0341,0.0063 -0.0337,0.0088 -0.0332,0.0114 -0.0326,0.0138 -0.0319,0.0163 -0.0309,0.0187 -0.0299,0.021 -0.0288,0.0234 -0.0275,0.0256 -0.0262,0.0279 -0.0246,0.0299 -0.0229,0.0319 -0.0212,0.0339 -0.0193,0.0357 -0.0173,0.0374 -0.0152,0.039 -0.0131,0.0404 -0.0108,0.0416 -0.0084,0.0428 -0.006,0.0438 -0.0036,0.0446 -0.001,0.0452 0.0015,0.0456 0.004,0.0458 0.0066,0.0459 0.0092,0.0458 0.0117,0.0454 0.0142,0.0448 0.0166,0.0441 0.0189,0.0432 0.0212,0.042 0.0233,0.0406 0.0254,0.039 0.0272,0.0372 0.0289,0.0353 0.0303,0.0332 0.0317,0.0307 0.0326,0.0282 0.0332,0.0255 0.0336,0.0226 0.0335,0.0196 0.0329,0.0163 0.0315,0.013 0.0293,0.0094 0.0254,0.0058 L 0,0 z"
           id="path39"
           inkscape:connector-curvature="0"
           style="stroke:#000080" />
        <g
           id="arrows5"
           style="stroke:#000080">
          <use
             xlink:href="#arrow1"
             transform="matrix(0.05574865,-2.6394113,2.6394113,0.05574865,0.5388,-0.7266)"
             id="use42"
             x="0"
             y="0"
             width="600"
             height="600"
             style="stroke:#000080" />
          <use
             xlink:href="#arrow1"
             transform="matrix(0.19288931,2.6329439,-2.6329439,0.19288931,-0.5389,-0.7267)"
             id="use44"
             x="0"
             y="0"
             width="600"
             height="600"
             style="stroke:#000080" />
        </g>
      </g>
      <g
         id="fieldline6"
         style="stroke:#000080">
        <path
           d="M 0,0 0.0231,-0.0021 0.0556,-0.008 0.0935,-0.0176 0.135,-0.0308 0.1788,-0.0476 0.2243,-0.0678 0.2709,-0.0915 0.3182,-0.1183 0.3658,-0.1483 0.4132,-0.1813 0.4604,-0.2172 0.5069,-0.2559 0.5525,-0.2972 0.5971,-0.341 0.6405,-0.3873 0.6824,-0.4357 0.7228,-0.4863 0.7615,-0.5388 0.7983,-0.5932 0.8332,-0.6493 0.866,-0.7069 0.8967,-0.7658 0.9251,-0.8261 0.9513,-0.8874 0.975,-0.9497 0.9964,-1.0128 1.0152,-1.0766 1.0316,-1.1408 1.0454,-1.2055 1.0567,-1.2704 1.0654,-1.3353 1.0715,-1.4002 1.0751,-1.4649 1.0761,-1.5293 1.0745,-1.5932 1.0704,-1.6565 1.0638,-1.7191 1.0547,-1.7808 1.0432,-1.8416 1.0294,-1.9013 1.0132,-1.9597 0.9947,-2.0169 0.974,-2.0726 0.9512,-2.1268 0.9263,-2.1794 0.8994,-2.2302 0.8705,-2.2793 0.8398,-2.3265 0.8074,-2.3718 0.7733,-2.415 0.7376,-2.4562 0.7004,-2.4952 0.6618,-2.532 0.6218,-2.5665 0.5807,-2.5988 0.5384,-2.6287 0.495,-2.6562 0.4507,-2.6813 0.4056,-2.704 0.3597,-2.7242 0.3131,-2.742 0.2659,-2.7572 0.2182,-2.77 0.1701,-2.7802 0.1217,-2.7878 0.0731,-2.7929 0.0244,-2.7955 l -0.0488,0 -0.0487,0.0026 -0.0487,0.0051 -0.0483,0.0076 -0.0481,0.0102 -0.0477,0.0128 -0.0472,0.0152 -0.0466,0.0178 -0.0459,0.0202 -0.0452,0.0227 -0.0442,0.0251 -0.0434,0.0275 -0.0423,0.0299 -0.0411,0.0323 -0.04,0.0345 -0.0386,0.0369 -0.0372,0.0389 -0.0357,0.0412 -0.0341,0.0432 -0.0325,0.0453 -0.0306,0.0472 -0.0289,0.0491 -0.0269,0.0509 -0.0249,0.0525 -0.0228,0.0542 -0.0207,0.0558 -0.0185,0.0571 -0.0162,0.0585 -0.0138,0.0596 -0.0115,0.0608 -0.0091,0.0617 -0.0066,0.0626 -0.0041,0.0633 -0.0016,0.0639 0.001,0.0644 0.0036,0.0647 0.0061,0.0649 0.0087,0.0649 0.0113,0.0649 0.0138,0.0647 0.0164,0.0642 0.0188,0.0638 0.0214,0.0631 0.0237,0.0623 0.0262,0.0613 0.0284,0.0603 0.0307,0.059 0.0328,0.0575 0.0349,0.0561 0.0368,0.0544 0.0387,0.0525 0.0404,0.0506 0.0419,0.0484 0.0434,0.0463 0.0446,0.0438 0.0456,0.0413 0.0465,0.0387 0.0472,0.0359 0.0474,0.033 0.0476,0.03 0.0473,0.0268 0.0466,0.0237 0.0455,0.0202 0.0438,0.0168 0.0415,0.0132 0.0379,0.0096 0.0325,0.0059 L 0,0 z"
           id="path47"
           inkscape:connector-curvature="0"
           style="stroke:#000080" />
        <g
           id="arrows6"
           style="stroke:#000080">
          <use
             xlink:href="#arrow1"
             transform="matrix(1.48847,-2.1803801,2.1803801,1.48847,0.7649,-0.545)"
             id="use50"
             x="0"
             y="0"
             width="600"
             height="600"
             style="stroke:#000080" />
          <use
             xlink:href="#arrow1"
             transform="matrix(-1.5898954,-2.1075656,2.1075656,-1.5898954,0.8179,-2.356)"
             id="use52"
             x="0"
             y="0"
             width="600"
             height="600"
             style="stroke:#000080" />
          <use
             xlink:href="#arrow1"
             transform="matrix(-1.5119763,2.1641459,-2.1641459,-1.5119763,-0.8179,-2.3561)"
             id="use54"
             x="0"
             y="0"
             width="600"
             height="600"
             style="stroke:#000080" />
          <use
             xlink:href="#arrow1"
             transform="matrix(1.5360552,2.1471223,-2.1471223,1.5360552,-0.7649,-0.5451)"
             id="use56"
             x="0"
             y="0"
             width="600"
             height="600"
             style="stroke:#000080" />
        </g>
      </g>
      <g
         id="fieldline7"
         style="stroke:#000080">
        <path
           d="m -2.8462,-3.012 0.0304,0.1051 0.0328,0.1044 0.0352,0.1038 0.0375,0.1031 0.0399,0.1022 0.0421,0.1013 0.0444,0.1003 0.0466,0.0992 0.0487,0.098 0.0509,0.0968 0.053,0.0955 0.055,0.094 0.057,0.0926 0.0589,0.0909 0.0607,0.0893 0.0626,0.0876 0.0642,0.0857 0.0659,0.0839 0.0675,0.0819 0.069,0.0798 0.0704,0.0776 0.0716,0.0755 0.0729,0.0731 0.074,0.0708 0.075,0.0684 0.0758,0.0658 0.0767,0.0633 0.0772,0.0606 0.0777,0.0578 0.0781,0.0551 0.0782,0.0522 0.0783,0.0492 0.078,0.0463 0.0776,0.0431 0.0771,0.0401 0.0761,0.0368 0.075,0.0336 0.0736,0.0303 0.0717,0.0269 0.0694,0.0235 0.0667,0.0201 0.0633,0.0165 0.059,0.0129 0.0533,0.0094 L -0.032,-0.002 0,0 0.032,-0.002 0.0772,-0.0077 0.1305,-0.0171 0.1895,-0.03 0.2528,-0.0465 0.3195,-0.0666 0.3889,-0.0901 0.4606,-0.117 0.5342,-0.1473 0.6092,-0.1809 0.6853,-0.2177 0.7624,-0.2578 0.84,-0.3009 0.918,-0.3472 0.9963,-0.3964 1.0745,-0.4486 1.1526,-0.5037 1.2303,-0.5615 1.3075,-0.6221 1.3842,-0.6854 1.46,-0.7512 1.535,-0.8196 1.609,-0.8904 1.6819,-0.9635 1.7535,-1.039 l 0.0704,-0.0776 0.069,-0.0798 0.0675,-0.0819 0.0659,-0.0839 0.0642,-0.0857 0.0626,-0.0876 0.0607,-0.0893 0.0589,-0.0909 0.057,-0.0926 0.055,-0.094 0.053,-0.0955 0.0509,-0.0968 0.0487,-0.098 0.0466,-0.0992 0.0444,-0.1003 0.0421,-0.1013 0.0399,-0.1022 0.0375,-0.1031 0.0352,-0.1038 0.0328,-0.1044 0.0304,-0.1051"
           id="path59"
           inkscape:connector-curvature="0"
           style="stroke:#000080" />
        <g
           id="arrows7"
           style="stroke:#000080">
          <use
             xlink:href="#arrow1"
             transform="matrix(1.1577139,2.3726143,-2.3726143,1.1577139,-2.5395,-2.1981)"
             id="use62"
             x="0"
             y="0"
             width="600"
             height="600"
             style="stroke:#000080" />
          <use
             xlink:href="#arrow1"
             transform="matrix(1.9510748,1.7784563,-1.7784563,1.9510748,-1.5155,-0.8018)"
             id="use64"
             x="0"
             y="0"
             width="600"
             height="600"
             style="stroke:#000080" />
          <use
             xlink:href="#arrow1"
             transform="matrix(2.6363093,-0.13954731,0.13954731,2.6363093,-2e-4,-0.003)"
             id="use66"
             x="0"
             y="0"
             width="600"
             height="600"
             style="stroke:#000080" />
          <use
             xlink:href="#arrow1"
             transform="matrix(1.9317162,-1.7994645,1.7994645,1.9317162,1.5154,-0.802)"
             id="use68"
             x="0"
             y="0"
             width="600"
             height="600"
             style="stroke:#000080" />
          <use
             xlink:href="#arrow1"
             transform="matrix(1.1332211,-2.3844097,2.3844097,1.1332211,2.5396,-2.1981)"
             id="use70"
             x="0"
             y="0"
             width="600"
             height="600"
             style="stroke:#000080" />
        </g>
      </g>
      <g
         id="fieldline8"
         style="stroke:#000080">
        <path
           d="m -3.012,-0.6413 0.2024,0.0649 0.1997,0.0616 0.1967,0.0581 0.1936,0.0547 0.1901,0.0513 0.1864,0.0478 0.1826,0.0444 0.1782,0.0409 0.1737,0.0374 0.1686,0.034 0.163,0.0304 0.1571,0.0269 0.1502,0.0234 0.1426,0.0198 0.1339,0.0163 0.1236,0.0127 0.1108,0.0092 0.0932,0.0055 L 0,0 0.0656,-0.002 0.1588,-0.0075 0.2696,-0.0167 0.3932,-0.0294 0.5271,-0.0457 0.6697,-0.0655 0.8199,-0.0889 0.9769,-0.1158 1.14,-0.1462 1.3086,-0.1802 1.4823,-0.2176 1.6605,-0.2585 1.8431,-0.3029 2.0295,-0.3507 2.2196,-0.402 2.4132,-0.4567 2.6099,-0.5148 2.8096,-0.5764 3.012,-0.6413"
           id="path73"
           inkscape:connector-curvature="0"
           style="stroke:#000080" />
        <g
           id="arrows8"
           style="stroke:#000080">
          <use
             xlink:href="#arrow1"
             transform="matrix(2.555332,0.66323341,-0.66323341,2.555332,-2.0249,-0.3498)"
             id="use76"
             x="0"
             y="0"
             width="600"
             height="600"
             style="stroke:#000080" />
          <use
             xlink:href="#arrow1"
             transform="matrix(2.6397095,-0.03916375,0.03916375,2.6397095,0,-0.0011)"
             id="use78"
             x="0"
             y="0"
             width="600"
             height="600"
             style="stroke:#000080" />
          <use
             xlink:href="#arrow1"
             transform="matrix(2.5515879,-0.67749466,0.67749466,2.5515879,2.0249,-0.3498)"
             id="use80"
             x="0"
             y="0"
             width="600"
             height="600"
             style="stroke:#000080" />
        </g>
      </g>
      <g
         id="fieldline9"
         style="stroke:#000080">
        <path
           d="M -3.012,0.6413 -2.8096,0.5764 -2.6099,0.5148 -2.4132,0.4567 -2.2196,0.402 -2.0295,0.3507 -1.8431,0.3029 -1.6605,0.2585 -1.4823,0.2176 -1.3086,0.1802 -1.14,0.1462 -0.977,0.1158 -0.8199,0.0889 -0.6697,0.0655 -0.5271,0.0457 -0.3932,0.0294 -0.2696,0.0167 -0.1588,0.0075 -0.0656,0.002 0,0 0.0656,0.002 0.1588,0.0075 0.2696,0.0167 0.3932,0.0294 0.5271,0.0457 0.6697,0.0655 0.8199,0.0889 0.9769,0.1158 1.14,0.1462 1.3086,0.1802 1.4823,0.2176 1.6605,0.2585 1.8431,0.3029 2.0295,0.3507 2.2196,0.402 2.4132,0.4567 2.6099,0.5148 2.8096,0.5764 3.012,0.6413"
           id="path83"
           inkscape:connector-curvature="0"
           style="stroke:#000080" />
        <g
           id="arrows9"
           style="stroke:#000080">
          <use
             xlink:href="#arrow1"
             transform="matrix(2.555332,-0.66323341,0.66323341,2.555332,-2.0249,0.3498)"
             id="use86"
             x="0"
             y="0"
             width="600"
             height="600"
             style="stroke:#000080" />
          <use
             xlink:href="#arrow1"
             transform="matrix(2.6397095,0.03916375,-0.03916375,2.6397095,0,0.0011)"
             id="use88"
             x="0"
             y="0"
             width="600"
             height="600"
             style="stroke:#000080" />
          <use
             xlink:href="#arrow1"
             transform="matrix(2.5515879,0.67749466,-0.67749466,2.5515879,2.0249,0.3498)"
             id="use90"
             x="0"
             y="0"
             width="600"
             height="600"
             style="stroke:#000080" />
        </g>
      </g>
      <g
         id="fieldline10"
         style="stroke:#000080">
        <path
           d="m -2.8462,3.012 0.0304,-0.1051 0.0328,-0.1044 0.0352,-0.1038 0.0375,-0.1031 0.0399,-0.1022 0.0421,-0.1013 0.0444,-0.1003 0.0466,-0.0992 0.0487,-0.098 0.0509,-0.0968 0.053,-0.0955 0.055,-0.094 0.057,-0.0926 0.0589,-0.0909 0.0607,-0.0893 0.0626,-0.0876 0.0642,-0.0857 0.0659,-0.0839 0.0675,-0.0819 0.069,-0.0798 L -1.7535,1.039 -1.6819,0.9635 -1.609,0.8904 -1.535,0.8196 -1.46,0.7512 -1.3842,0.6854 -1.3075,0.6221 -1.2303,0.5615 -1.1526,0.5037 -1.0745,0.4486 -0.9963,0.3964 -0.918,0.3472 -0.84,0.3009 -0.7624,0.2578 -0.6853,0.2177 -0.6092,0.1809 -0.5342,0.1473 -0.4606,0.117 -0.3889,0.0901 -0.3195,0.0666 -0.2528,0.0465 -0.1895,0.03 -0.1305,0.0171 -0.0772,0.0077 -0.032,0.002 0,0 0.032,0.002 0.0772,0.0077 0.1305,0.0171 0.1895,0.03 0.2528,0.0465 0.3195,0.0666 0.3889,0.0901 0.4606,0.117 0.5342,0.1473 0.6092,0.1809 0.6853,0.2177 0.7624,0.2578 0.84,0.3009 0.918,0.3472 0.9963,0.3964 1.0745,0.4486 1.1526,0.5037 1.2303,0.5615 1.3075,0.6221 1.3842,0.6854 1.46,0.7512 1.535,0.8196 1.609,0.8904 1.6819,0.9635 1.7535,1.039 l 0.0704,0.0776 0.069,0.0798 0.0675,0.0819 0.0659,0.0839 0.0642,0.0857 0.0626,0.0876 0.0607,0.0893 0.0589,0.0909 0.057,0.0926 0.055,0.094 0.053,0.0955 0.0509,0.0968 0.0487,0.098 0.0466,0.0992 0.0444,0.1003 0.0421,0.1013 0.0399,0.1022 0.0375,0.1031 0.0352,0.1038 0.0328,0.1044 0.0304,0.1051"
           id="path93"
           inkscape:connector-curvature="0"
           style="stroke:#000080" />
        <g
           id="arrows10"
           style="stroke:#000080">
          <use
             xlink:href="#arrow1"
             transform="matrix(1.1577139,-2.3726143,2.3726143,1.1577139,-2.5395,2.1981)"
             id="use96"
             x="0"
             y="0"
             width="600"
             height="600"
             style="stroke:#000080" />
          <use
             xlink:href="#arrow1"
             transform="matrix(1.9510748,-1.7784563,1.7784563,1.9510748,-1.5155,0.8018)"
             id="use98"
             x="0"
             y="0"
             width="600"
             height="600"
             style="stroke:#000080" />
          <use
             xlink:href="#arrow1"
             transform="matrix(2.6363093,0.13954731,-0.13954731,2.6363093,-2e-4,0.003)"
             id="use100"
             x="0"
             y="0"
             width="600"
             height="600"
             style="stroke:#000080" />
          <use
             xlink:href="#arrow1"
             transform="matrix(1.9317162,1.7994645,-1.7994645,1.9317162,1.5154,0.802)"
             id="use102"
             x="0"
             y="0"
             width="600"
             height="600"
             style="stroke:#000080" />
          <use
             xlink:href="#arrow1"
             transform="matrix(1.1332211,2.3844097,-2.3844097,1.1332211,2.5396,2.1981)"
             id="use104"
             x="0"
             y="0"
             width="600"
             height="600"
             style="stroke:#000080" />
        </g>
      </g>
      <g
         id="fieldline11"
         style="stroke:#000080">
        <path
           d="M 0,0 0.0231,0.0021 0.0556,0.008 0.0935,0.0176 0.135,0.0308 0.1788,0.0476 0.2243,0.0678 0.2709,0.0915 0.3182,0.1183 0.3658,0.1483 0.4132,0.1813 0.4604,0.2172 0.5069,0.2559 0.5525,0.2972 0.5971,0.341 0.6405,0.3873 0.6824,0.4357 0.7228,0.4863 0.7615,0.5388 0.7983,0.5932 0.8332,0.6493 0.866,0.7069 0.8967,0.7658 0.9251,0.8261 0.9513,0.8874 0.975,0.9497 0.9964,1.0128 1.0152,1.0766 1.0316,1.1408 1.0454,1.2055 1.0567,1.2704 1.0654,1.3353 1.0715,1.4002 1.0751,1.4649 1.0761,1.5293 1.0745,1.5932 1.0704,1.6565 1.0638,1.7191 1.0547,1.7808 1.0432,1.8416 1.0294,1.9013 1.0132,1.9597 0.9947,2.0169 0.974,2.0726 0.9512,2.1268 0.9263,2.1794 0.8994,2.2302 0.8705,2.2793 0.8398,2.3265 0.8074,2.3718 0.7733,2.415 0.7376,2.4562 0.7004,2.4952 0.6618,2.532 0.6218,2.5665 0.5807,2.5988 0.5384,2.6287 0.495,2.6562 0.4507,2.6813 0.4056,2.704 0.3597,2.7242 0.3131,2.742 0.2659,2.7572 0.2182,2.77 0.1701,2.7802 0.1217,2.7878 0.0731,2.7929 0.0244,2.7955 l -0.0488,0 L -0.0731,2.7929 -0.1218,2.7878 -0.1701,2.7802 -0.2182,2.77 -0.2659,2.7572 -0.3131,2.742 -0.3597,2.7242 -0.4056,2.704 -0.4508,2.6813 -0.495,2.6562 -0.5384,2.6287 -0.5807,2.5988 -0.6218,2.5665 -0.6618,2.532 -0.7004,2.4951 -0.7376,2.4562 -0.7733,2.415 -0.8074,2.3718 -0.8399,2.3265 -0.8705,2.2793 -0.8994,2.2302 -0.9263,2.1793 -0.9512,2.1268 -0.974,2.0726 -0.9947,2.0168 -1.0132,1.9597 -1.0294,1.9012 -1.0432,1.8416 -1.0547,1.7808 -1.0638,1.7191 -1.0704,1.6565 -1.0745,1.5932 -1.0761,1.5293 -1.0751,1.4649 -1.0715,1.4002 -1.0654,1.3353 -1.0567,1.2704 -1.0454,1.2055 -1.0316,1.1408 -1.0152,1.0766 -0.9964,1.0128 -0.975,0.9497 -0.9513,0.8874 -0.9251,0.8261 -0.8967,0.7658 -0.866,0.7068 -0.8332,0.6493 -0.7983,0.5932 -0.7615,0.5388 -0.7228,0.4863 -0.6824,0.4357 -0.6405,0.3873 -0.5971,0.341 -0.5525,0.2972 -0.5069,0.2559 -0.4604,0.2172 -0.4132,0.1813 -0.3658,0.1483 -0.3182,0.1183 -0.2709,0.0915 -0.2243,0.0678 -0.1788,0.0476 -0.135,0.0308 -0.0935,0.0176 -0.0556,0.008 -0.0231,0.0021 0,0 z"
           id="path107"
           inkscape:connector-curvature="0"
           style="stroke:#000080" />
        <g
           id="arrows11"
           style="stroke:#000080">
          <use
             xlink:href="#arrow1"
             transform="matrix(1.48847,2.1803801,-2.1803801,1.48847,0.7649,0.545)"
             id="use110"
             x="0"
             y="0"
             width="600"
             height="600"
             style="stroke:#000080" />
          <use
             xlink:href="#arrow1"
             transform="matrix(-1.5898954,2.1075656,-2.1075656,-1.5898954,0.8179,2.356)"
             id="use112"
             x="0"
             y="0"
             width="600"
             height="600"
             style="stroke:#000080" />
          <use
             xlink:href="#arrow1"
             transform="matrix(-1.5119763,-2.1641459,2.1641459,-1.5119763,-0.8179,2.3561)"
             id="use114"
             x="0"
             y="0"
             width="600"
             height="600"
             style="stroke:#000080" />
          <use
             xlink:href="#arrow1"
             transform="matrix(1.5360552,-2.1471223,2.1471223,1.5360552,-0.7649,0.5451)"
             id="use116"
             x="0"
             y="0"
             width="600"
             height="600"
             style="stroke:#000080" />
        </g>
      </g>
      <g
         id="fieldline12"
         style="stroke:#000080">
        <path
           d="M 0,0 0.0183,0.0021 0.0437,0.0079 0.073,0.0173 0.1045,0.0303 0.1374,0.0466 0.1709,0.0661 0.2045,0.0888 0.2377,0.1143 0.2703,0.1425 0.302,0.1732 0.3323,0.2064 0.3612,0.2417 0.3884,0.2789 0.4138,0.3179 0.4371,0.3585 0.4583,0.4005 0.4772,0.4437 0.4938,0.4878 0.508,0.5326 0.5197,0.578 0.5289,0.6238 0.5355,0.6697 0.5395,0.7155 0.541,0.7611 0.54,0.8063 0.5364,0.8509 0.5304,0.8947 0.522,0.9375 0.5112,0.9791 0.4981,1.0195 0.4829,1.0585 0.4656,1.0959 0.4463,1.1316 0.4251,1.1655 0.4022,1.1974 0.3776,1.2273 0.3514,1.2552 0.3239,1.2808 0.2951,1.3042 0.2652,1.3252 0.2343,1.3439 0.2024,1.3602 0.1698,1.374 0.1366,1.3854 0.1029,1.3942 0.0688,1.4005 0.0345,1.4044 0,1.4056 -0.0345,1.4044 -0.0688,1.4005 -0.1029,1.3942 -0.1366,1.3854 -0.1698,1.374 -0.2024,1.3602 -0.2343,1.3439 -0.2652,1.3252 -0.2951,1.3042 -0.3239,1.2808 -0.3514,1.2552 -0.3776,1.2273 -0.4022,1.1974 -0.4251,1.1655 -0.4463,1.1316 -0.4656,1.0959 -0.4829,1.0585 -0.4981,1.0195 -0.5112,0.9791 -0.522,0.9375 -0.5304,0.8947 -0.5364,0.8509 -0.54,0.8063 -0.541,0.7611 -0.5395,0.7155 -0.5355,0.6697 -0.5289,0.6238 -0.5197,0.578 -0.508,0.5326 -0.4938,0.4878 -0.4772,0.4437 -0.4583,0.4005 -0.4371,0.3585 -0.4138,0.3179 -0.3884,0.2789 -0.3612,0.2417 -0.3323,0.2064 -0.302,0.1732 -0.2703,0.1425 -0.2377,0.1143 -0.2045,0.0888 -0.1709,0.0662 -0.1374,0.0466 -0.1045,0.0303 -0.073,0.0173 -0.0437,0.0079 -0.0183,0.0021 0,0 z"
           id="path119"
           inkscape:connector-curvature="0"
           style="stroke:#000080" />
        <g
           id="arrows12"
           style="stroke:#000080">
          <use
             xlink:href="#arrow1"
             transform="matrix(0.05574865,2.6394113,-2.6394113,0.05574865,0.5388,0.7266)"
             id="use122"
             x="0"
             y="0"
             width="600"
             height="600"
             style="stroke:#000080" />
          <use
             xlink:href="#arrow1"
             transform="matrix(0.19288931,-2.6329439,2.6329439,0.19288931,-0.5389,0.7267)"
             id="use124"
             x="0"
             y="0"
             width="600"
             height="600"
             style="stroke:#000080" />
        </g>
      </g>
      <g
         id="fieldline13"
         style="stroke:#000080">
        <path
           d="M 0,0 0.0153,0.0021 0.0363,0.0078 0.0602,0.0171 0.0855,0.0298 0.1113,0.0457 0.137,0.0646 0.1622,0.0862 0.1863,0.1103 0.2091,0.1367 0.2302,0.1651 0.2495,0.1953 0.2668,0.227 0.2818,0.26 0.2946,0.2939 0.3049,0.3286 0.3127,0.3637 0.3179,0.399 0.3206,0.4343 0.3208,0.4692 0.3184,0.5036 0.3136,0.5372 0.3064,0.5698 0.2969,0.6012 0.2852,0.6312 0.2714,0.6596 0.2557,0.6863 0.2382,0.7111 0.219,0.7338 0.1984,0.7544 0.1765,0.7728 0.1534,0.7889 0.1293,0.8026 0.1044,0.8138 0.0789,0.8227 0.0529,0.829 0.0265,0.8328 0,0.834 -0.0265,0.8328 -0.0529,0.829 -0.0789,0.8227 -0.1044,0.8138 -0.1293,0.8026 -0.1534,0.7889 -0.1765,0.7728 -0.1984,0.7544 -0.219,0.7338 -0.2382,0.7111 -0.2557,0.6863 -0.2714,0.6596 -0.2852,0.6312 -0.2969,0.6012 -0.3064,0.5698 -0.3136,0.5372 -0.3184,0.5036 -0.3208,0.4692 -0.3206,0.4343 -0.3179,0.399 -0.3127,0.3637 -0.3049,0.3286 -0.2946,0.2939 -0.2818,0.26 -0.2668,0.227 -0.2495,0.1953 -0.2302,0.1651 -0.2091,0.1367 -0.1863,0.1103 -0.1622,0.0862 -0.137,0.0646 -0.1113,0.0457 -0.0855,0.0298 -0.0602,0.0171 -0.0363,0.0078 -0.0153,0.0021 0,0 z"
           id="path127"
           inkscape:connector-curvature="0"
           style="stroke:#000080" />
        <g
           id="arrows13"
           style="stroke:#000080">
          <use
             xlink:href="#arrow1"
             transform="matrix(-2.6316434,-0.20988798,0.20988798,-2.6316434,3e-4,0.8308)"
             id="use130"
             x="0"
             y="0"
             width="600"
             height="600"
             style="stroke:#000080" />
        </g>
      </g>
      <g
         id="fieldline14"
         style="stroke:#000080">
        <path
           d="m 0,0 0.0131,0.0021 0.0179,0.0056 0.02,0.0092 0.0208,0.0123 0.0207,0.0154 0.02,0.018 L 0.1314,0.083 0.1488,0.1055 0.1644,0.1299 0.1779,0.1557 0.1892,0.1826 0.1981,0.2104 0.2045,0.2387 0.2084,0.2671 0.2098,0.2955 0.2087,0.3234 0.2051,0.3505 0.1991,0.3767 0.1909,0.4017 0.1805,0.4252 0.1682,0.4469 0.154,0.4669 0.1383,0.4848 0.1211,0.5005 0.1028,0.514 0.0834,0.5251 0.0633,0.5339 0.0425,0.5401 0.0213,0.5439 0,0.5451 -0.0213,0.5439 -0.0425,0.5401 -0.0633,0.5339 -0.0834,0.5251 -0.1028,0.514 -0.1212,0.5005 -0.1383,0.4848 -0.154,0.4669 -0.1682,0.447 -0.1805,0.4252 -0.1909,0.4017 -0.1991,0.3767 -0.2051,0.3505 -0.2087,0.3234 -0.2098,0.2955 -0.2084,0.2671 -0.2045,0.2387 -0.1981,0.2104 -0.1892,0.1826 -0.1779,0.1557 -0.1644,0.1299 -0.1488,0.1055 -0.1314,0.083 -0.1125,0.0626 -0.0925,0.0446 -0.0718,0.0292 -0.051,0.0169 -0.031,0.0077 -0.0131,0.0021 0,0 z"
           id="path133"
           inkscape:connector-curvature="0"
           style="stroke:#000080" />
        <g
           id="arrows14"
           style="stroke:#000080">
          <use
             xlink:href="#arrow1"
             transform="matrix(-2.6219705,-0.30801075,0.30801075,-2.6219705,6e-4,0.5403)"
             id="use136"
             x="0"
             y="0"
             width="600"
             height="600"
             style="stroke:#000080" />
        </g>
      </g>
      <g
         id="fieldline15"
         style="stroke:#000080">
        <path
           d="m 0,0 0.0116,0.0021 0.0156,0.0056 0.0171,0.009 0.0173,0.0121 0.0168,0.0149 0.0157,0.0172 0.014,0.0193 0.0122,0.021 0.01,0.0222 0.0076,0.0231 0.0052,0.0237 0.0026,0.0237 1e-4,0.0235 L 0.1434,0.2403 0.1386,0.2623 0.1315,0.283 0.1223,0.3022 0.1113,0.3196 0.0985,0.3351 0.0843,0.3484 0.0689,0.3595 0.0525,0.3682 0.0354,0.3744 0.0178,0.3782 0,0.3794 -0.0178,0.3782 -0.0354,0.3744 -0.0525,0.3682 -0.0689,0.3595 -0.0843,0.3484 -0.0985,0.3351 -0.1113,0.3196 -0.1223,0.3022 -0.1315,0.283 -0.1386,0.2623 -0.1434,0.2403 -0.1458,0.2174 l 1e-4,-0.0235 0.0026,-0.0237 0.0052,-0.0237 0.0076,-0.0231 0.01,-0.0222 0.0122,-0.021 0.014,-0.0193 0.0157,-0.0172 0.0168,-0.0149 0.0173,-0.0121 0.0171,-0.009 L -0.0116,0.0021 0,0 z"
           id="path139"
           inkscape:connector-curvature="0"
           style="stroke:#000080" />
        <g
           id="arrows15"
           style="stroke:#000080">
          <use
             xlink:href="#arrow1"
             transform="matrix(-2.6037179,-0.43618012,0.43618012,-2.6037179,0.0012,0.3726)"
             id="use142"
             x="0"
             y="0"
             width="600"
             height="600"
             style="stroke:#000080" />
        </g>
      </g>
      <g
         id="fieldline16"
         style="stroke:#000080">
        <path
           d="m 0,0 0.0102,0.002 0.0136,0.0055 0.0147,0.0087 0.0144,0.0116 0.0135,0.0141 0.0121,0.0162 0.0101,0.0178 0.008,0.0189 0.0057,0.0198 0.0031,0.0201 7e-4,0.0199 L 0.1044,0.1741 0.1002,0.1926 0.0939,0.2098 0.0855,0.2255 0.0754,0.2394 0.0638,0.2512 0.0509,0.2609 0.037,0.2682 0.0225,0.2731 0.0076,0.2756 l -0.0151,0 L -0.0225,0.2731 -0.037,0.2682 -0.0509,0.2609 -0.0638,0.2512 -0.0754,0.2394 -0.0855,0.2255 -0.0939,0.2098 -0.1002,0.1926 -0.1044,0.1741 -0.1061,0.1546 -0.1054,0.1347 -0.1023,0.1146 -0.0966,0.0948 -0.0886,0.0759 -0.0785,0.0581 -0.0664,0.0419 -0.0529,0.0278 -0.0385,0.0162 -0.0238,0.0075 -0.0102,0.002 0,0 z"
           id="path145"
           inkscape:connector-curvature="0"
           style="stroke:#000080" />
        <g
           id="arrows16"
           style="stroke:#000080">
          <use
             xlink:href="#arrow1"
             transform="matrix(-2.5730606,-0.59072764,0.59072764,-2.5730606,0.002,0.267)"
             id="use148"
             x="0"
             y="0"
             width="600"
             height="600"
             style="stroke:#000080" />
        </g>
      </g>
    </g>
  </g>
  <g
     ns0:preamble=""
     ns0:text="$\\vec{B}$"
     word-spacing="normal"
     letter-spacing="normal"
     font-size-adjust="none"
     font-stretch="normal"
     font-weight="normal"
     font-variant="normal"
     font-style="normal"
     stroke-miterlimit="10.433"
     xml:space="preserve"
     transform="matrix(5,0,0,-5,-640.05256,3658.6027)"
     id="g4832"
     style="font-style:normal;font-variant:normal;font-weight:normal;font-stretch:normal;letter-spacing:normal;word-spacing:normal;text-anchor:start;fill:#000080;stroke:#000080;stroke-linecap:butt;stroke-linejoin:miter;stroke-miterlimit:10.43299960999999954;stroke-opacity:1;stroke-dasharray:none;stroke-dashoffset:0">
<path
   id="path4834"
   d="m 230.39,715.57 -0.02,-0.02 -0.01,-0.01 -0.02,-0.02 -0.01,-0.01 -0.02,-0.02 -0.02,-0.01 -0.02,-0.02 -0.02,-0.02 -0.01,-0.01 -0.02,-0.02 -0.04,-0.04 -0.04,-0.04 -0.04,-0.04 -0.02,-0.02 -0.02,-0.02 -0.01,-0.02 -0.02,-0.02 -0.02,-0.02 -0.01,-0.02 -0.02,-0.02 -0.01,-0.02 -0.01,-0.02 -0.01,-0.02 -0.01,-0.02 -0.01,-0.02 0,-0.02 -0.01,-0.02 0,-0.02 0,-0.01 c 0,-0.1 0.1,-0.2 0.2,-0.2 0.09,0 0.14,0.07 0.19,0.13 0.12,0.15 0.35,0.43 0.79,0.64 0.06,0.04 0.16,0.09 0.16,0.21 0,0.1 -0.07,0.15 -0.14,0.2 -0.22,0.15 -0.32,0.33 -0.4,0.57 -0.02,0.09 -0.06,0.22 -0.2,0.22 -0.14,0 -0.2,-0.13 -0.2,-0.21 0,-0.05 0.08,-0.37 0.24,-0.58 h -3.36 c -0.17,0 -0.35,0 -0.35,-0.2 0,-0.19 0.18,-0.19 0.35,-0.19 z"
   inkscape:connector-curvature="0"
   style="fill:#000080;stroke-width:0;stroke:#000080" />
<path
   id="path4836"
   d="m 225.03,707.9 -0.01,-0.03 -0.01,-0.04 -0.01,-0.03 -0.01,-0.03 -0.01,-0.03 -0.01,-0.03 -0.01,-0.02 -0.01,-0.03 -0.01,-0.02 -0.01,-0.02 -0.01,-0.02 -0.02,-0.02 -0.01,-0.01 -0.02,-0.02 -0.02,-0.01 -0.02,-0.02 -0.02,-0.01 -0.03,-0.01 -0.02,-0.01 -0.03,-0.01 -0.04,-0.01 -0.01,0 -0.02,-0.01 -0.02,0 -0.02,0 -0.02,0 -0.02,-0.01 -0.02,0 -0.02,0 -0.03,0 -0.02,-0.01 -0.03,0 -0.02,0 -0.03,0 -0.03,0 -0.03,0 -0.03,0 -0.03,0 -0.03,0 -0.03,-0.01 -0.04,0 -0.03,0 -0.04,0 c -0.17,0 -0.27,0 -0.27,-0.2 0,-0.11 0.09,-0.11 0.27,-0.11 h 3.56 c 1.57,0 2.75,1.18 2.75,2.16 0,0.71 -0.58,1.29 -1.55,1.4 1.04,0.19 2.09,0.92 2.09,1.87 0,0.74 -0.66,1.37 -1.86,1.37 l -0.14,-0.31 c 0.88,0 1.09,-0.58 1.09,-1.02 0,-0.88 -0.86,-1.82 -2.07,-1.82 h -1.46 l -0.06,-0.22 h 1.89 c 0.95,0 1.14,-0.74 1.14,-1.17 0,-0.98 -0.88,-1.95 -2.06,-1.95 h -1.36 c -0.14,0 -0.16,0 -0.22,0.01 -0.1,0.01 -0.12,0.02 -0.12,0.1 0,0.03 0,0.05 0.05,0.23 l 0.68,2.78 0.06,0.22 0.62,2.47 c 0.09,0.34 0.11,0.37 0.54,0.37 h 1.28 l 0.14,0.31 h -3.35 c -0.19,0 -0.28,0 -0.28,-0.2 0,-0.11 0.09,-0.11 0.28,-0.11 0.01,0 0.2,0 0.37,-0.02 0.18,-0.02 0.27,-0.03 0.27,-0.16 0,-0.03 -0.01,-0.07 -0.04,-0.18 z"
   inkscape:connector-curvature="0"
   style="fill:#000080;stroke-width:0;stroke:#000080" />
</g></svg>
