<?xml version="1.0" encoding="UTF-8" standalone="no"?>
<svg
   xmlns:ns0="http://www.iki.fi/pav/software/textext/"
   xmlns:dc="http://purl.org/dc/elements/1.1/"
   xmlns:cc="http://creativecommons.org/ns#"
   xmlns:rdf="http://www.w3.org/1999/02/22-rdf-syntax-ns#"
   xmlns:svg="http://www.w3.org/2000/svg"
   xmlns="http://www.w3.org/2000/svg"
   xmlns:xlink="http://www.w3.org/1999/xlink"
   xmlns:sodipodi="http://sodipodi.sourceforge.net/DTD/sodipodi-0.dtd"
   xmlns:inkscape="http://www.inkscape.org/namespaces/inkscape"
   width="600"
   height="480"
   viewBox="0 0 600 480"
   id="svg2"
   version="1.1"
   inkscape:version="0.48.1 r9760"
   sodipodi:docname="fig-trayectoria-1D-rel-norel.svg">
  <sodipodi:namedview
     pagecolor="#ffffff"
     bordercolor="#666666"
     borderopacity="1"
     objecttolerance="10"
     gridtolerance="10"
     guidetolerance="10"
     inkscape:pageopacity="0"
     inkscape:pageshadow="2"
     inkscape:window-width="1440"
     inkscape:window-height="850"
     id="namedview142"
     showgrid="false"
     inkscape:zoom="1.3104167"
     inkscape:cx="301.52623"
     inkscape:cy="240"
     inkscape:window-x="0"
     inkscape:window-y="0"
     inkscape:window-maximized="1"
     inkscape:current-layer="svg2" />
  <metadata
     id="metadata144">
    <rdf:RDF>
      <cc:Work
         rdf:about="">
        <dc:format>image/svg+xml</dc:format>
        <dc:type
           rdf:resource="http://purl.org/dc/dcmitype/StillImage" />
      </cc:Work>
    </rdf:RDF>
  </metadata>
  <title
     id="title4">gnuplot</title>
  <desc
     id="desc6">Produced by GNUPLOT 4.4 patchlevel 4 </desc>
  <defs
     id="defs8">
    <circle
       stroke-width="0.5"
       r="0.5"
       id="gpDot" />
    <path
       d="M-1,0 h2 M0,-1 v2"
       stroke="currentColor"
       stroke-width="0.222"
       id="gpPt0" />
    <path
       d="M-1,-1 L1,1 M1,-1 L-1,1"
       stroke="currentColor"
       stroke-width="0.222"
       id="gpPt1" />
    <path
       d="M-1,0 L1,0 M0,-1 L0,1 M-1,-1 L1,1 M-1,1 L1,-1"
       stroke="currentColor"
       stroke-width="0.222"
       id="gpPt2" />
    <rect
       height="2"
       width="2"
       y="-1"
       x="-1"
       stroke="currentColor"
       stroke-width="0.222"
       id="gpPt3" />
    <rect
       height="2"
       width="2"
       y="-1"
       x="-1"
       fill="currentColor"
       stroke="currentColor"
       stroke-width="0.222"
       id="gpPt4" />
    <circle
       r="1"
       cy="0"
       cx="0"
       stroke="currentColor"
       stroke-width="0.222"
       id="gpPt5" />
    <use
       stroke="none"
       fill="currentColor"
       id="gpPt6"
       xlink:href="#gpPt5" />
    <path
       d="M0,-1.33 L-1.33,0.67 L1.33,0.67 z"
       stroke="currentColor"
       stroke-width="0.222"
       id="gpPt7" />
    <use
       stroke="none"
       fill="currentColor"
       id="gpPt8"
       xlink:href="#gpPt7" />
    <use
       transform="rotate(180)"
       stroke="currentColor"
       id="gpPt9"
       xlink:href="#gpPt7" />
    <use
       stroke="none"
       fill="currentColor"
       id="gpPt10"
       xlink:href="#gpPt9" />
    <use
       transform="rotate(45)"
       stroke="currentColor"
       id="gpPt11"
       xlink:href="#gpPt3" />
    <use
       stroke="none"
       fill="currentColor"
       id="gpPt12"
       xlink:href="#gpPt11" />
  </defs>
  <path
     style="color:#000000;fill:none;stroke:currentColor;stroke-width:1;stroke-linecap:butt;stroke-linejoin:miter"
     inkscape:connector-curvature="0"
     d="m 61.9,414.4 9,0 m 494.1,0 -9,0"
     id="path28" />
  <g
     transform="translate(53.6,418.9)"
     style="font-size:15px;text-anchor:end;color:#000000;fill:#000000;stroke:none;font-family:Arial"
     id="g30">
    <text
       id="text32">0</text>
  </g>
  <path
     style="color:#000000;fill:none;stroke:currentColor;stroke-width:1;stroke-linecap:butt;stroke-linejoin:miter"
     inkscape:connector-curvature="0"
     d="m 61.9,313 9,0 m 494.1,0 -9,0"
     id="path34" />
  <g
     transform="translate(53.6,317.5)"
     style="font-size:15px;text-anchor:end;color:#000000;fill:#000000;stroke:none;font-family:Arial"
     id="g36">
    <text
       id="text38">0.5</text>
  </g>
  <path
     style="color:#000000;fill:none;stroke:currentColor;stroke-width:1;stroke-linecap:butt;stroke-linejoin:miter"
     inkscape:connector-curvature="0"
     d="m 61.9,211.5 9,0 m 494.1,0 -9,0"
     id="path40" />
  <g
     transform="translate(53.6,216)"
     style="font-size:15px;text-anchor:end;color:#000000;fill:#000000;stroke:none;font-family:Arial"
     id="g42">
    <text
       id="text44">1</text>
  </g>
  <path
     style="color:#000000;fill:none;stroke:currentColor;stroke-width:1;stroke-linecap:butt;stroke-linejoin:miter"
     inkscape:connector-curvature="0"
     d="m 61.9,110.1 9,0 m 494.1,0 -9,0"
     id="path46" />
  <g
     transform="translate(53.6,114.6)"
     style="font-size:15px;text-anchor:end;color:#000000;fill:#000000;stroke:none;font-family:Arial"
     id="g48">
    <text
       id="text50">1.5</text>
  </g>
  <path
     style="color:#000000;fill:none;stroke:currentColor;stroke-width:1;stroke-linecap:butt;stroke-linejoin:miter"
     inkscape:connector-curvature="0"
     d="m 61.9,8.7 9,0 m 494.1,0 -9,0"
     id="path52" />
  <g
     transform="translate(53.6,13.2)"
     style="font-size:15px;text-anchor:end;color:#000000;fill:#000000;stroke:none;font-family:Arial"
     id="g54">
    <text
       id="text56">2</text>
  </g>
  <path
     style="color:#000000;fill:none;stroke:currentColor;stroke-width:1;stroke-linecap:butt;stroke-linejoin:miter"
     inkscape:connector-curvature="0"
     d="m 61.9,414.4 0,-9 m 0,-396.7 0,9"
     id="path58" />
  <g
     transform="translate(61.9,436.9)"
     style="font-size:15px;text-anchor:middle;color:#000000;fill:#000000;stroke:none;font-family:Arial"
     id="g60">
    <text
       id="text62">0</text>
  </g>
  <path
     style="color:#000000;fill:none;stroke:currentColor;stroke-width:1;stroke-linecap:butt;stroke-linejoin:miter"
     inkscape:connector-curvature="0"
     d="m 145.8,414.4 0,-9 m 0,-396.7 0,9"
     id="path64" />
  <g
     transform="translate(145.8,436.9)"
     style="font-size:15px;text-anchor:middle;color:#000000;fill:#000000;stroke:none;font-family:Arial"
     id="g66">
    <text
       id="text68">0.5</text>
  </g>
  <path
     style="color:#000000;fill:none;stroke:currentColor;stroke-width:1;stroke-linecap:butt;stroke-linejoin:miter"
     inkscape:connector-curvature="0"
     d="m 229.6,414.4 0,-9 m 0,-396.7 0,9"
     id="path70" />
  <g
     transform="translate(229.6,436.9)"
     style="font-size:15px;text-anchor:middle;color:#000000;fill:#000000;stroke:none;font-family:Arial"
     id="g72">
    <text
       id="text74">1</text>
  </g>
  <path
     style="color:#000000;fill:none;stroke:currentColor;stroke-width:1;stroke-linecap:butt;stroke-linejoin:miter"
     inkscape:connector-curvature="0"
     d="m 313.5,414.4 0,-9 m 0,-396.7 0,9"
     id="path76" />
  <g
     transform="translate(313.5,436.9)"
     style="font-size:15px;text-anchor:middle;color:#000000;fill:#000000;stroke:none;font-family:Arial"
     id="g78">
    <text
       id="text80">1.5</text>
  </g>
  <path
     style="color:#000000;fill:none;stroke:currentColor;stroke-width:1;stroke-linecap:butt;stroke-linejoin:miter"
     inkscape:connector-curvature="0"
     d="m 397.3,414.4 0,-9 m 0,-396.7 0,9"
     id="path82" />
  <g
     transform="translate(397.3,436.9)"
     style="font-size:15px;text-anchor:middle;color:#000000;fill:#000000;stroke:none;font-family:Arial"
     id="g84">
    <text
       id="text86">2</text>
  </g>
  <path
     style="color:#000000;fill:none;stroke:currentColor;stroke-width:1;stroke-linecap:butt;stroke-linejoin:miter"
     inkscape:connector-curvature="0"
     d="m 481.2,414.4 0,-9 m 0,-396.7 0,9"
     id="path88" />
  <g
     transform="translate(481.2,436.9)"
     style="font-size:15px;text-anchor:middle;color:#000000;fill:#000000;stroke:none;font-family:Arial"
     id="g90">
    <text
       id="text92">2.5</text>
  </g>
  <path
     style="color:#000000;fill:none;stroke:currentColor;stroke-width:1;stroke-linecap:butt;stroke-linejoin:miter"
     inkscape:connector-curvature="0"
     d="m 565,414.4 0,-9 m 0,-396.7 0,9"
     id="path94" />
  <g
     transform="translate(565,436.9)"
     style="font-size:15px;text-anchor:middle;color:#000000;fill:#000000;stroke:none;font-family:Arial"
     id="g96">
    <text
       id="text98">3</text>
  </g>
  <path
     style="color:#808080;fill:none;stroke:currentColor;stroke-width:1;stroke-linecap:butt;stroke-linejoin:miter"
     inkscape:connector-curvature="0"
     d="m 61.9,414.4 503.1,0 m -503.1,0 0,-405.7"
     id="path102" />
  <path
     style="color:#000000;fill:none;stroke:currentColor;stroke-width:1;stroke-linecap:butt;stroke-linejoin:miter"
     inkscape:connector-curvature="0"
     d="m 61.9,8.7 0,405.7 503.1,0 0,-405.7 -503.1,0 z"
     id="path106" />
  <g
     style="color:#0000ff;fill:none;stroke:currentColor;stroke-width:2.5;stroke-linecap:butt;stroke-linejoin:miter;stroke-miterlimit:4;stroke-dasharray:2.5, 2.5;stroke-dashoffset:0"
     id="g119"
     transform="translate(-10,-8)">
    <path
       sodipodi:nodetypes="cccccccccccccccccccccccccccccccccccccccccccccccccccccccccccccccccccccccccccccc"
       inkscape:connector-curvature="0"
       d="m 71.9,422.4 4.3,-5.2 4.4,-5.3 4.3,-5.2 4.3,-5.3 4.4,-5.2 4.3,-5.3 4.4,-5.2 4.3,-5.3 4.3,-5.2 4.4,-5.3 4.3,-5.2 4.3,-5.3 4.4,-5.2 4.3,-5.2 4.4,-5.3 4.3,-5.2 4.3,-5.3 4.4,-5.2 4.3,-5.3 4.3,-5.2 4.4,-5.3 4.3,-5.2 4.4,-5.3 4.3,-5.2 4.3,-5.3 4.4,-5.2 4.3,-5.2 4.3,-5.3 4.4,-5.2 4.3,-5.3 4.3,-5.2 4.4,-5.3 4.3,-5.2 4.4,-5.3 4.3,-5.2 4.3,-5.3 4.4,-5.2 4.3,-5.3 4.3,-5.2 4.4,-5.2 4.3,-5.3 4.4,-5.2 4.3,-5.3 4.3,-5.2 4.4,-5.3 4.3,-5.2 4.3,-5.3 4.4,-5.2 4.3,-5.3 4.4,-5.2 4.3,-5.3 4.3,-5.2 4.4,-5.2 4.3,-5.3 4.3,-5.2 4.4,-5.3 4.3,-5.2 4.4,-5.3 4.3,-5.2 4.3,-5.3 4.4,-5.2 4.3,-5.3 4.3,-5.2 4.4,-5.3 4.3,-5.2 4.3,-5.2 4.4,-5.3 4.3,-5.2 4.4,-5.3 4.3,-5.2 4.3,-5.3 4.4,-5.2 4.3,-5.3 4.3,-5.2 4.4,-5.3 4.3,-5.2 4.4,-5.3"
       id="path125"
       style="stroke-width:2.5;stroke-miterlimit:4;stroke-dasharray:7.5, 7.5;stroke-dashoffset:0" />
  </g>
  <path
     style="fill:none;stroke:#000000;stroke-width:1.25;stroke-linecap:butt;stroke-linejoin:miter;stroke-miterlimit:4;stroke-opacity:1;stroke-dasharray:1.25, 3.75;stroke-dashoffset:0"
     d="m 61.716907,211.55439 c 502.647443,0 502.647443,0 502.647443,0"
     id="path3891"
     inkscape:connector-curvature="0" />
  <g
     style="color:#ff0000;fill:none;stroke:currentColor;stroke-width:1;stroke-linecap:butt;stroke-linejoin:miter"
     id="g130"
     transform="translate(-10,-8)">
    <path
       sodipodi:nodetypes="ccccccccccccccccccccccccccccccccccccccccccccccccccccccccccccccccccccccccccccccccccccccccccccccccccccccccccccccccccccccccccccccccccccccccccccccccccccccccccccccccccccccccccccccccccccccccccccccccccccccccccccccccccccccccccccc"
       inkscape:connector-curvature="0"
       d="m 71.9,422.4 2.2,-2.6 2.1,-2.6 2.2,-2.7 2.2,-2.6 2.1,-2.6 2.2,-2.6 2.2,-2.6 2.1,-2.6 2.2,-2.5 2.2,-2.6 2.2,-2.6 2.1,-2.5 2.2,-2.5 2.2,-2.5 2.1,-2.5 2.2,-2.5 2.2,-2.5 2.1,-2.4 2.2,-2.4 2.2,-2.4 2.1,-2.4 2.2,-2.3 2.2,-2.3 2.1,-2.3 4.4,-4.5 4.3,-4.5 4.4,-4.3 4.3,-4.2 4.3,-4 4.4,-4 4.3,-3.9 4.3,-3.7 4.4,-3.6 4.3,-3.5 4.4,-3.4 4.3,-3.3 2.2,-1.6 2.1,-1.5 2.2,-1.6 2.2,-1.5 2.1,-1.5 2.2,-1.4 2.2,-1.5 2.1,-1.4 2.2,-1.4 2.2,-1.3 2.1,-1.3 2.2,-1.3 2.2,-1.3 2.1,-1.3 2.2,-1.2 2.2,-1.2 2.2,-1.2 2.1,-1.2 2.2,-1.1 2.2,-1.1 2.1,-1.1 2.2,-1.1 2.2,-1.1 2.1,-1 2.2,-1 2.2,-1 2.1,-1 2.2,-1 2.2,-0.9 2.1,-1 2.2,-0.9 2.2,-0.8 2.2,-0.9 2.1,-0.9 2.2,-0.8 2.2,-0.8 2.1,-0.8 2.2,-0.8 2.2,-0.8 2.1,-0.8 2.2,-0.7 2.2,-0.8 2.1,-0.7 2.2,-0.7 2.2,-0.7 2.1,-0.7 2.2,-0.6 2.2,-0.7 2.1,-0.6 2.2,-0.6 2.2,-0.7 2.2,-0.6 2.1,-0.6 2.2,-0.5 2.2,-0.6 2.1,-0.6 2.2,-0.5 2.2,-0.6 2.1,-0.5 2.2,-0.5 2.2,-0.5 2.1,-0.5 2.2,-0.5 2.2,-0.5 2.1,-0.5 2.2,-0.5 2.2,-0.4 2.2,-0.5 2.1,-0.4 2.2,-0.5 2.2,-0.4 2.1,-0.4 2.2,-0.4 2.2,-0.4 2.1,-0.4 2.2,-0.4 2.2,-0.4 2.1,-0.4 2.2,-0.4 2.2,-0.3 2.1,-0.4 2.2,-0.3 2.2,-0.4 2.1,-0.3 2.2,-0.4 2.2,-0.3 2.2,-0.3 2.1,-0.3 2.2,-0.3 2.2,-0.4 2.1,-0.3 2.2,-0.3 2.2,-0.3 2.1,-0.2 2.2,-0.3 2.2,-0.3 2.1,-0.3 2.2,-0.3 2.2,-0.2 2.1,-0.3 2.2,-0.2 2.2,-0.3 2.1,-0.2 2.2,-0.3 2.2,-0.2 2.2,-0.3 2.1,-0.2 2.2,-0.2 2.2,-0.3 2.1,-0.2 2.2,-0.2 2.2,-0.2 2.1,-0.3 2.2,-0.2 2.2,-0.2 2.1,-0.2 2.2,-0.2 2.2,-0.2 2.1,-0.2 2.2,-0.2 2.2,-0.2 2.2,-0.1 2.1,-0.2 2.2,-0.2 2.2,-0.2 2.1,-0.2 2.2,-0.1 2.2,-0.2 2.1,-0.2 2.2,-0.1 2.2,-0.2 2.1,-0.2 2.2,-0.1 2.2,-0.2 2.1,-0.2 2.2,-0.1 2.2,-0.2 2.1,-0.1 2.2,-0.2 2.2,-0.1 2.2,-0.1 2.1,-0.2 2.2,-0.1 2.2,-0.2 2.1,-0.1 2.2,-0.1 2.2,-0.2 2.1,-0.1 2.2,-0.1 2.2,-0.1 2.1,-0.2 2.2,-0.1 2.2,-0.1 2.1,-0.1 2.2,-0.2 2.2,-0.1 2.1,-0.1 2.2,-0.1 2.2,-0.1 2.2,-0.1 2.1,-0.1 2.2,-0.2 2.2,-0.1 2.1,-0.1 2.2,-0.1 2.2,-0.1 2.1,-0.1 2.2,-0.1 2.2,-0.1 2.1,-0.1 2.2,-0.1 2.2,-0.1 2.1,-0.1 2.2,-0.1 2.2,-0.1 2.2,0 2.1,-0.1 2.2,-0.1 2.2,-0.1 2.1,-0.1 2.2,-0.1 2.2,-0.1 2.1,-0.1 2.2,0"
       id="path136"
       style="stroke-width:2.5;stroke-miterlimit:4;stroke-dasharray:none" />
  </g>
  <path
     style="color:#000000;fill:none;stroke:currentColor;stroke-width:1;stroke-linecap:butt;stroke-linejoin:miter"
     inkscape:connector-curvature="0"
     d="m 61.9,8.7 0,405.7 503.1,0 0,-405.7 -503.1,0 z"
     id="path140" />
  <g
     ns0:preamble=""
     ns0:text="$\\frac{qE}{mc}t$"
     word-spacing="normal"
     letter-spacing="normal"
     font-size-adjust="none"
     font-stretch="normal"
     font-weight="normal"
     font-variant="normal"
     font-style="normal"
     stroke-miterlimit="10.433"
     xml:space="preserve"
     transform="matrix(2.5,0,0,-2.5,-264.59141,2232.9014)"
     id="g5298"
     style="font-style:normal;font-variant:normal;font-weight:normal;font-stretch:normal;letter-spacing:normal;word-spacing:normal;text-anchor:start;fill:none;stroke:#000000;stroke-linecap:butt;stroke-linejoin:miter;stroke-miterlimit:10.43299961;stroke-opacity:1;stroke-dasharray:none;stroke-dashoffset:0">
<path
   id="path5300"
   d="m 228.42,714.43 0,0.01 0,0.01 0,0 0.01,0.01 0,0 0,0.01 0,0.01 0,0 0,0.01 0,0.01 0,0.01 0,0 0,0.01 0,0.01 0,0 0,0.01 c 0,0.04 -0.02,0.1 -0.09,0.1 -0.07,0 -0.36,-0.24 -0.5,-0.46 -0.07,0.14 -0.3,0.46 -0.74,0.46 v -0.2 c 0.49,0 0.62,-0.53 0.62,-0.6 0,-0.04 -0.02,-0.08 -0.02,-0.11 l -0.33,-1.28 c -0.03,-0.12 -0.03,-0.14 -0.13,-0.25 -0.27,-0.32 -0.59,-0.5 -0.87,-0.5 -0.25,0 -0.5,0.18 -0.5,0.67 0,0.37 0.2,1.13 0.36,1.41 0.32,0.56 0.67,0.66 0.87,0.66 v 0.2 c -0.89,0 -1.8,-0.98 -1.8,-1.98 0,-0.68 0.45,-1.16 1.05,-1.16 0.4,0 0.73,0.25 0.88,0.38 -0.01,-0.02 -0.22,-0.89 -0.25,-1.01 -0.1,-0.39 -0.1,-0.39 -0.54,-0.4 -0.08,0 -0.18,0 -0.18,-0.15 0,-0.04 0.04,-0.1 0.11,-0.1 0.23,0 0.48,0.03 0.72,0.03 0.24,0 0.53,-0.03 0.75,-0.03 0.06,0 0.14,0.02 0.14,0.15 0,0.1 -0.1,0.1 -0.19,0.1 -0.15,0 -0.34,0 -0.34,0.08 0,0.03 0,0.04 0.04,0.16 z"
   inkscape:connector-curvature="0"
   style="fill:#000000;stroke-width:0" />
<path
   id="path5302"
   d="m 234.29,713.18 0.01,0 0,0 0,0.01 0,0 0,0.01 0,0 0.01,0 0,0.01 0,0 0,0 0,0.01 0.01,0.01 0,0 0,0.01 0,0 0,0.01 0.01,0 0,0.01 0,0 0,0.01 0,0 0,0 0,0.01 0,0 0,0 0,0 0,0.01 0.01,0 0,0 0,0 0,0 0,0.01 0,0 0,0 0,0 0,0 0,0 c 0,0.04 -0.03,0.1 -0.12,0.1 -0.02,0 -0.05,0 -0.08,-0.03 -0.01,-0.01 -0.02,-0.02 -0.1,-0.2 -0.46,-1 -0.81,-1.35 -1.95,-1.35 h -1.18 c -0.22,0 -0.22,0.01 -0.22,0.07 0,0.01 0,0.04 0.02,0.15 l 0.47,1.86 h 0.78 c 0.55,0 0.64,-0.09 0.64,-0.32 0,-0.08 -0.03,-0.19 -0.05,-0.31 -0.03,-0.07 -0.03,-0.07 -0.03,-0.09 0,-0.01 0.01,-0.09 0.12,-0.09 0.1,0 0.11,0.03 0.14,0.15 l 0.38,1.52 c 0.02,0.08 0.02,0.1 0.02,0.11 0,0.06 -0.06,0.09 -0.12,0.09 -0.09,0 -0.1,-0.03 -0.14,-0.18 -0.14,-0.54 -0.35,-0.63 -0.94,-0.63 h -0.74 l 0.42,1.65 c 0.06,0.22 0.07,0.24 0.36,0.24 h 1.13 c 0.92,0 1.14,-0.19 1.14,-0.81 0,-0.18 -0.02,-0.39 -0.02,-0.42 0,-0.05 0.02,-0.12 0.11,-0.12 0.11,0 0.12,0.07 0.13,0.18 l 0.13,1.21 c 0.02,0.21 -0.03,0.21 -0.21,0.21 h -3.83 c -0.14,0 -0.22,0 -0.22,-0.15 0,-0.1 0.08,-0.1 0.23,-0.1 0.11,0 0.14,0 0.27,-0.01 0.13,-0.02 0.15,-0.03 0.15,-0.1 0,-0.05 -0.02,-0.12 -0.03,-0.15 l -0.91,-3.64 c -0.07,-0.27 -0.08,-0.32 -0.62,-0.32 -0.13,0 -0.21,0 -0.21,-0.15 0,-0.1 0.08,-0.1 0.21,-0.1 h 3.93 c 0.18,0 0.18,0 0.24,0.13 z"
   inkscape:connector-curvature="0"
   style="fill:#000000;stroke-width:0" />
<line
   id="line5304"
   y2="709.62"
   x2="235.25999"
   y1="709.62"
   x1="224.63"
   style="stroke-width:0.398" />
<path
   id="path5306"
   d="m 227.65,704.25 0,-0.01 -0.01,-0.01 0,-0.02 0,-0.01 -0.01,-0.02 0,-0.01 -0.01,-0.03 -0.01,-0.04 -0.01,-0.03 0,-0.03 -0.01,-0.02 0,-0.01 0,-0.02 -0.01,-0.01 0,-0.01 -0.01,-0.02 0,-0.01 0,-0.01 0,-0.02 -0.01,-0.01 0,-0.01 0,-0.01 0,-0.01 0,-0.01 -0.01,0 0,-0.01 0,0 0,-0.01 c 0,-0.15 0.13,-0.22 0.24,-0.22 0.12,0 0.24,0.09 0.27,0.15 0.04,0.07 0.09,0.29 0.13,0.44 0.03,0.13 0.11,0.45 0.15,0.62 0.04,0.15 0.08,0.31 0.12,0.47 0.08,0.29 0.08,0.31 0.21,0.53 0.23,0.33 0.57,0.73 1.12,0.73 0.39,0 0.41,-0.32 0.41,-0.48 0,-0.42 -0.3,-1.19 -0.41,-1.49 -0.08,-0.19 -0.11,-0.25 -0.11,-0.37 0,-0.37 0.31,-0.6 0.67,-0.6 0.69,0 1,0.96 1,1.06 0,0.1 -0.09,0.1 -0.11,0.1 -0.1,0 -0.11,-0.05 -0.14,-0.12 -0.15,-0.56 -0.45,-0.84 -0.73,-0.84 -0.15,0 -0.18,0.09 -0.18,0.24 0,0.16 0.04,0.25 0.16,0.56 0.09,0.22 0.37,0.95 0.37,1.34 0,0.12 0,0.41 -0.26,0.61 -0.11,0.09 -0.32,0.19 -0.64,0.19 -0.63,0 -1.01,-0.41 -1.24,-0.71 -0.05,0.6 -0.55,0.71 -0.9,0.71 -0.58,0 -0.97,-0.36 -1.18,-0.64 -0.05,0.48 -0.46,0.64 -0.74,0.64 -0.3,0 -0.46,-0.22 -0.55,-0.38 -0.16,-0.26 -0.25,-0.65 -0.25,-0.69 0,-0.09 0.09,-0.09 0.11,-0.09 0.1,0 0.11,0.02 0.16,0.21 0.1,0.41 0.23,0.75 0.51,0.75 0.18,0 0.22,-0.15 0.22,-0.34 0,-0.13 -0.06,-0.39 -0.11,-0.58 -0.05,-0.18 -0.11,-0.47 -0.15,-0.62 l -0.22,-0.89 c -0.03,-0.09 -0.07,-0.27 -0.07,-0.29 0,-0.15 0.12,-0.22 0.24,-0.22 0.12,0 0.23,0.09 0.27,0.15 0.03,0.07 0.09,0.29 0.12,0.44 0.04,0.13 0.11,0.45 0.16,0.62 0.04,0.15 0.08,0.31 0.11,0.47 0.08,0.28 0.09,0.34 0.3,0.62 0.19,0.28 0.52,0.64 1.04,0.64 0.4,0 0.41,-0.35 0.41,-0.48 0,-0.18 -0.02,-0.27 -0.12,-0.66 z"
   inkscape:connector-curvature="0"
   style="fill:#000000;stroke-width:0" />
<path
   id="path5308"
   d="m 234.75,706.35 -0.03,0 -0.02,-0.01 -0.02,0 -0.02,-0.01 -0.02,-0.01 -0.02,-0.01 -0.02,0 -0.01,-0.01 -0.02,-0.01 -0.02,-0.02 -0.01,-0.01 -0.01,-0.01 -0.02,-0.01 -0.01,-0.01 -0.01,-0.02 -0.01,-0.01 -0.01,-0.01 -0.01,-0.02 -0.01,-0.01 -0.01,-0.02 -0.01,-0.01 -0.01,-0.02 0,-0.01 -0.01,-0.02 0,-0.01 -0.01,-0.02 0,-0.01 0,-0.02 0,-0.01 -0.01,-0.02 0,-0.01 0,-0.02 c 0,-0.18 0.15,-0.25 0.27,-0.25 0.16,0 0.4,0.11 0.4,0.44 0,0.47 -0.54,0.61 -0.92,0.61 -1.04,0 -2.01,-0.96 -2.01,-1.93 0,-0.6 0.42,-1.21 1.29,-1.21 1.18,0 1.73,0.69 1.73,0.79 0,0.04 -0.07,0.11 -0.12,0.11 -0.04,0 -0.06,-0.01 -0.12,-0.06 -0.54,-0.64 -1.35,-0.64 -1.48,-0.64 -0.5,0 -0.72,0.34 -0.72,0.77 0,0.2 0.09,0.96 0.46,1.44 0.26,0.34 0.62,0.53 0.97,0.53 0.1,0 0.43,-0.01 0.61,-0.21 z"
   inkscape:connector-curvature="0"
   style="fill:#000000;stroke-width:0" />
<path
   id="path5310"
   d="m 238.51,711.11 h 0.93 c 0.2,0 0.3,0 0.3,0.19 0,0.11 -0.1,0.11 -0.28,0.11 h -0.87 c 0.36,1.42 0.4,1.62 0.4,1.68 0,0.17 -0.11,0.26 -0.28,0.26 -0.03,0 -0.31,-0.01 -0.4,-0.35 l -0.39,-1.59 h -0.94 c -0.2,0 -0.3,0 -0.3,-0.19 0,-0.11 0.08,-0.11 0.28,-0.11 h 0.88 c -0.72,-2.83 -0.76,-3 -0.76,-3.18 0,-0.54 0.38,-0.91 0.92,-0.91 1.01,0 1.58,1.45 1.58,1.53 0,0.1 -0.08,0.1 -0.12,0.1 -0.09,0 -0.1,-0.03 -0.15,-0.14 -0.43,-1.04 -0.95,-1.28 -1.29,-1.28 -0.21,0 -0.31,0.13 -0.31,0.46 0,0.24 0.02,0.31 0.06,0.48 z"
   inkscape:connector-curvature="0"
   style="fill:#000000;stroke-width:0" />
</g>  <g
     id="content"
     transform="matrix(2.5,0,0,-2.5,-537.47925,1983.2181)"
     xml:space="preserve"
     stroke-miterlimit="10.433"
     font-style="normal"
     font-variant="normal"
     font-weight="normal"
     font-stretch="normal"
     font-size-adjust="none"
     letter-spacing="normal"
     word-spacing="normal"
     ns0:text="$\\frac{v}{c}$"
     ns0:preamble=""
     style="font-style:normal;font-variant:normal;font-weight:normal;font-stretch:normal;letter-spacing:normal;word-spacing:normal;text-anchor:start;fill:none;stroke:#000000;stroke-linecap:butt;stroke-linejoin:miter;stroke-miterlimit:10.43299961;stroke-opacity:1;stroke-dasharray:none;stroke-dashoffset:0">
<path
   style="fill:#000000;stroke-width:0"
   inkscape:connector-curvature="0"
   d="m 228.35,713.57 0,0.03 0,0.02 -0.01,0.02 0,0.03 0,0.02 0,0.02 0,0.02 -0.01,0.02 0,0.02 0,0.02 -0.01,0.02 0,0.01 -0.01,0.02 0,0.02 -0.01,0.01 0,0.02 -0.01,0.01 -0.01,0.01 0,0.02 -0.01,0.01 -0.01,0.01 0,0.01 -0.01,0.01 -0.01,0.01 0,0.01 -0.01,0.01 -0.02,0.02 -0.01,0.02 -0.02,0.01 -0.01,0.01 -0.02,0.01 -0.02,0.01 -0.01,0.01 -0.02,0.01 -0.01,0 -0.01,0.01 -0.02,0 -0.01,0 -0.01,0.01 -0.01,0 -0.01,0 -0.01,0 0,0 -0.01,0 0,0 c -0.18,0 -0.38,-0.19 -0.38,-0.37 0,-0.11 0.07,-0.17 0.12,-0.21 0.12,-0.1 0.26,-0.28 0.26,-0.56 0,-0.31 -0.46,-1.81 -1.29,-1.81 -0.56,0 -0.56,0.5 -0.56,0.62 0,0.32 0.12,0.71 0.38,1.36 0.06,0.14 0.1,0.25 0.1,0.37 0,0.36 -0.31,0.59 -0.67,0.59 -0.69,0 -1,-0.95 -1,-1.06 0,-0.09 0.09,-0.09 0.11,-0.09 0.1,0 0.11,0.03 0.13,0.11 0.17,0.57 0.47,0.85 0.74,0.85 0.12,0 0.18,-0.08 0.18,-0.24 0,-0.16 -0.06,-0.31 -0.13,-0.47 -0.3,-0.77 -0.37,-1.07 -0.37,-1.32 0,-0.69 0.54,-0.91 1.07,-0.91 1.17,0 1.66,2.02 1.66,2.59 z"
   id="path5507" />
<line
   style="stroke-width:0.398"
   x1="224.63"
   y1="709.62"
   x2="228.86"
   y2="709.62"
   id="line5509" />
<path
   style="fill:#000000;stroke-width:0"
   inkscape:connector-curvature="0"
   d="m 228.01,706.35 -0.02,0 -0.02,-0.01 -0.02,0 -0.02,-0.01 -0.02,-0.01 -0.02,-0.01 -0.02,0 -0.02,-0.01 -0.01,-0.01 -0.02,-0.02 -0.01,-0.01 -0.02,-0.01 -0.01,-0.01 -0.01,-0.01 -0.02,-0.02 -0.01,-0.01 -0.01,-0.01 -0.01,-0.02 -0.01,-0.01 0,-0.02 -0.01,-0.01 -0.01,-0.02 0,-0.01 -0.01,-0.02 0,-0.01 -0.01,-0.02 0,-0.01 0,-0.02 -0.01,-0.01 0,-0.02 0,-0.01 0,-0.02 c 0,-0.18 0.15,-0.25 0.27,-0.25 0.16,0 0.4,0.11 0.4,0.44 0,0.47 -0.54,0.61 -0.92,0.61 -1.04,0 -2.01,-0.96 -2.01,-1.93 0,-0.6 0.42,-1.21 1.28,-1.21 1.18,0 1.73,0.69 1.73,0.79 0,0.04 -0.06,0.11 -0.12,0.11 -0.04,0 -0.05,-0.01 -0.11,-0.06 -0.54,-0.64 -1.36,-0.64 -1.48,-0.64 -0.5,0 -0.72,0.34 -0.72,0.77 0,0.2 0.09,0.96 0.45,1.44 0.27,0.34 0.63,0.53 0.98,0.53 0.1,0 0.43,-0.01 0.6,-0.21 z"
   id="path5511" />
</g>  <g
     id="g5953"
     transform="matrix(2.0419047,0,0,-1.9581399,-291.55339,1517.8769)"
     xml:space="preserve"
     stroke-miterlimit="10.433"
     font-style="normal"
     font-variant="normal"
     font-weight="normal"
     font-stretch="normal"
     font-size-adjust="none"
     letter-spacing="normal"
     word-spacing="normal"
     ns0:text="no-relativista"
     ns0:preamble=""
     style="font-style:normal;font-variant:normal;font-weight:normal;font-stretch:normal;letter-spacing:normal;word-spacing:normal;text-anchor:start;fill:none;stroke:#000000;stroke-linecap:butt;stroke-linejoin:miter;stroke-miterlimit:10.43299961;stroke-opacity:1;stroke-dasharray:none;stroke-dashoffset:0">
<path
   style="fill:#000000;stroke-width:0"
   inkscape:connector-curvature="0"
   d="m 224.53,710.55 v -2.67 c 0,-0.45 -0.11,-0.45 -0.78,-0.45 v -0.31 c 0.35,0.02 0.86,0.04 1.13,0.04 0.26,0 0.77,-0.02 1.11,-0.04 v 0.31 c -0.66,0 -0.77,0 -0.77,0.45 v 1.83 c 0,1.04 0.7,1.59 1.34,1.59 0.63,0 0.74,-0.53 0.74,-1.1 v -2.32 c 0,-0.45 -0.11,-0.45 -0.78,-0.45 v -0.31 c 0.35,0.02 0.86,0.04 1.13,0.04 0.26,0 0.78,-0.02 1.11,-0.04 v 0.31 c -0.51,0 -0.76,0 -0.77,0.3 v 1.9 c 0,0.86 0,1.17 -0.31,1.53 -0.14,0.17 -0.47,0.36 -1.05,0.36 -0.73,0 -1.19,-0.42 -1.47,-1.04 v 1.04 l -1.41,-0.11 v -0.3 c 0.7,0 0.78,-0.07 0.78,-0.56 z"
   id="path5955" />
<path
   style="fill:#000000;stroke-width:0"
   inkscape:connector-curvature="0"
   d="m 233.66,709.26 0,0.11 -0.01,0.12 -0.01,0.12 -0.02,0.11 -0.03,0.11 -0.03,0.11 -0.03,0.11 -0.04,0.11 -0.05,0.1 -0.05,0.1 -0.05,0.1 -0.06,0.09 -0.06,0.09 -0.06,0.09 -0.07,0.09 -0.08,0.08 -0.07,0.07 -0.08,0.08 -0.09,0.07 -0.08,0.06 -0.09,0.06 -0.1,0.06 -0.09,0.05 -0.1,0.05 -0.1,0.04 -0.1,0.04 -0.1,0.03 -0.11,0.03 -0.11,0.02 -0.11,0.01 -0.11,0.01 -0.11,0 -0.01,-0.22 c 0.44,0 0.87,-0.21 1.13,-0.64 0.26,-0.43 0.26,-1.01 0.26,-1.39 0,-0.35 0,-0.89 -0.22,-1.33 -0.22,-0.45 -0.66,-0.74 -1.16,-0.74 h 0 c -0.43,0 -0.87,0.21 -1.14,0.67 -0.25,0.44 -0.25,1.05 -0.25,1.4 0,0.39 0,0.93 0.24,1.37 0.27,0.46 0.74,0.66 1.14,0.66 l 0.01,0.22 c -1.25,0 -2.21,-1.08 -2.21,-2.32 0,-1.29 1.03,-2.24 2.2,-2.24 1.2,0 2.21,0.97 2.21,2.24 z"
   id="path5957" />
<polygon
   style="fill:#000000;stroke-width:0"
   points="236.7,709.56 234.06,709.56 234.06,708.99 236.7,708.99 "
   id="polygon5959" />
<path
   style="fill:#000000;stroke-width:0"
   inkscape:connector-curvature="0"
   d="m 238.93,710.43 v 1.09 l -1.38,-0.11 v -0.3 c 0.7,0 0.78,-0.07 0.78,-0.56 v -2.67 c 0,-0.45 -0.11,-0.45 -0.78,-0.45 v -0.31 c 0.39,0.02 0.85,0.04 1.13,0.04 0.4,0 0.87,0 1.27,-0.04 v 0.31 h -0.21 c -0.74,0 -0.76,0.11 -0.76,0.47 v 1.53 c 0,0.99 0.42,1.87 1.18,1.87 0.07,0 0.09,0 0.11,-0.01 -0.03,-0.01 -0.23,-0.12 -0.23,-0.38 0,-0.28 0.21,-0.43 0.43,-0.43 0.18,0 0.43,0.12 0.43,0.44 0,0.31 -0.31,0.6 -0.74,0.6 -0.73,0 -1.09,-0.66 -1.23,-1.09 z"
   id="path5961" />
<path
   style="fill:#000000;stroke-width:0"
   inkscape:connector-curvature="0"
   d="m 242.28,709.42 0.01,0.21 c 0.06,1.49 0.89,1.73 1.23,1.73 1.03,0 1.13,-1.34 1.13,-1.73 h -2.36 l -0.01,-0.21 h 2.78 c 0.22,0 0.25,0 0.25,0.21 0,0.99 -0.54,1.95 -1.79,1.95 -1.15,0 -2.07,-1.02 -2.07,-2.26 0,-1.34 1.05,-2.3 2.19,-2.3 1.22,0 1.67,1.1 1.67,1.29 0,0.1 -0.08,0.12 -0.13,0.12 -0.09,0 -0.11,-0.06 -0.13,-0.14 -0.35,-1.03 -1.25,-1.03 -1.35,-1.03 -0.49,0 -0.89,0.3 -1.12,0.67 -0.3,0.48 -0.3,1.14 -0.3,1.49 z"
   id="path5963" />
<path
   style="fill:#000000;stroke-width:0"
   inkscape:connector-curvature="0"
   d="m 247.36,714.03 -1.43,-0.11 v -0.31 c 0.7,0 0.78,-0.07 0.78,-0.55 v -5.18 c 0,-0.45 -0.11,-0.45 -0.78,-0.45 v -0.31 c 0.33,0.02 0.86,0.04 1.1,0.04 0.25,0 0.74,-0.02 1.11,-0.04 v 0.31 c -0.67,0 -0.78,0 -0.78,0.45 z"
   id="path5965" />
<path
   style="fill:#000000;stroke-width:0"
   inkscape:connector-curvature="0"
   d="m 251.69,707.88 0,-0.04 0.01,-0.03 0,-0.04 0.01,-0.04 0.01,-0.04 0.01,-0.03 0.01,-0.04 0.02,-0.03 0.01,-0.04 0.02,-0.03 0.02,-0.04 0.02,-0.03 0.02,-0.03 0.02,-0.04 0.02,-0.03 0.02,-0.03 0.03,-0.02 0.03,-0.03 0.02,-0.03 0.03,-0.02 0.03,-0.02 0.03,-0.03 0.04,-0.02 0.03,-0.01 0.03,-0.02 0.04,-0.01 0.04,-0.02 0.04,-0.01 0.04,0 0.04,-0.01 0.04,0 0.04,0 c 0.21,0 0.82,0.14 0.82,0.94 v 0.56 h -0.25 v -0.56 c 0,-0.58 -0.25,-0.64 -0.36,-0.64 -0.33,0 -0.37,0.45 -0.37,0.5 v 1.99 c 0,0.42 0,0.81 -0.35,1.18 -0.39,0.38 -0.89,0.54 -1.37,0.54 -0.82,0 -1.51,-0.46 -1.51,-1.12 0,-0.3 0.2,-0.47 0.46,-0.47 0.28,0 0.46,0.2 0.46,0.46 0,0.12 -0.05,0.45 -0.51,0.46 0.27,0.35 0.76,0.45 1.08,0.45 0.49,0 1.06,-0.38 1.06,-1.27 v -0.37 -0.21 -0.99 c 0,-0.95 -0.72,-1.29 -1.17,-1.29 -0.49,0 -0.9,0.35 -0.9,0.85 0,0.55 0.42,1.37 2.07,1.43 h 0 v 0.21 c -0.51,-0.03 -1.21,-0.06 -1.84,-0.36 -0.75,-0.33 -0.99,-0.85 -0.99,-1.29 0,-0.81 0.96,-1.05 1.59,-1.05 0.66,0 1.12,0.39 1.31,0.86 z"
   id="path5967" />
<path
   style="fill:#000000;stroke-width:0"
   inkscape:connector-curvature="0"
   d="m 255.07,711.11 h 1.43 v 0.3 h -1.43 v 1.84 h -0.25 c -0.01,-0.82 -0.31,-1.89 -1.28,-1.92 v -0.22 h 0.84 v -2.75 c 0,-1.22 0.93,-1.34 1.29,-1.34 0.71,0 0.99,0.7 0.99,1.34 v 0.57 h -0.25 v -0.55 c 0,-0.74 -0.3,-1.12 -0.67,-1.12 -0.67,0 -0.67,0.91 -0.67,1.08 z"
   id="path5969" />
<path
   style="fill:#000000;stroke-width:0"
   inkscape:connector-curvature="0"
   d="m 258.99,711.52 -1.4,-0.11 v -0.3 c 0.65,0 0.74,-0.06 0.74,-0.55 v -2.68 c 0,-0.45 -0.11,-0.45 -0.78,-0.45 v -0.31 c 0.32,0.02 0.86,0.04 1.1,0.04 0.35,0 0.7,-0.02 1.03,-0.04 v 0.31 c -0.65,0 -0.69,0.05 -0.69,0.44 z"
   id="path5971" />
<path
   style="fill:#000000;stroke-width:0"
   inkscape:connector-curvature="0"
   d="m 259.03,713.26 0,0.03 -0.01,0.02 0,0.03 -0.01,0.03 0,0.03 -0.01,0.02 -0.01,0.03 -0.01,0.02 -0.01,0.03 -0.01,0.02 -0.01,0.02 -0.02,0.02 -0.01,0.02 -0.02,0.02 -0.02,0.02 -0.01,0.02 -0.02,0.02 -0.02,0.01 -0.02,0.02 -0.02,0.01 -0.02,0.01 -0.03,0.01 -0.02,0.02 -0.02,0.01 -0.03,0 -0.02,0.01 -0.02,0.01 -0.03,0 -0.02,0.01 -0.03,0 -0.03,0 -0.02,0 c -0.31,0 -0.53,-0.26 -0.53,-0.52 0,-0.27 0.22,-0.53 0.53,-0.53 0.28,0 0.53,0.21 0.53,0.53 z"
   id="path5973" />
<path
   style="fill:#000000;stroke-width:0"
   inkscape:connector-curvature="0"
   d="m 264.14,710.44 0,0.02 0.01,0.02 0.01,0.03 0.01,0.02 0.02,0.03 0.01,0.02 0.01,0.03 0.01,0.03 0.02,0.03 0.02,0.02 0.01,0.03 0.02,0.03 0.02,0.03 0.02,0.02 0.03,0.03 0.02,0.02 0.03,0.03 0.03,0.02 0.03,0.03 0.03,0.02 0.03,0.02 0.04,0.02 0.04,0.02 0.04,0.02 0.04,0.02 0.04,0.01 0.05,0.01 0.05,0.01 0.05,0.01 0.03,0.01 0.03,0 0.02,0 0.03,0 0.03,0.01 0.03,0 v 0.3 c -0.23,-0.01 -0.51,-0.02 -0.74,-0.02 -0.24,0 -0.7,0.02 -0.87,0.02 v -0.3 c 0.37,-0.01 0.48,-0.24 0.48,-0.43 0,-0.09 -0.02,-0.13 -0.06,-0.24 l -1.02,-2.54 -1.12,2.78 c -0.06,0.13 -0.06,0.15 -0.06,0.17 0,0.26 0.39,0.26 0.57,0.26 v 0.3 c -0.3,0 -0.85,-0.02 -1.08,-0.02 -0.27,0 -0.67,0.01 -0.97,0.02 v -0.3 c 0.63,0 0.67,-0.06 0.8,-0.37 l 1.43,-3.53 c 0.06,-0.14 0.08,-0.19 0.21,-0.19 0.13,0 0.17,0.08 0.21,0.19 z"
   id="path5975" />
<path
   style="fill:#000000;stroke-width:0"
   inkscape:connector-curvature="0"
   d="m 267.01,711.52 -1.39,-0.11 v -0.3 c 0.65,0 0.73,-0.06 0.73,-0.55 v -2.68 c 0,-0.45 -0.11,-0.45 -0.77,-0.45 v -0.31 c 0.32,0.02 0.85,0.04 1.09,0.04 0.35,0 0.7,-0.02 1.04,-0.04 v 0.31 c -0.66,0 -0.7,0.05 -0.7,0.44 z"
   id="path5977" />
<path
   style="fill:#000000;stroke-width:0"
   inkscape:connector-curvature="0"
   d="m 267.05,713.26 0,0.03 0,0.02 0,0.03 -0.01,0.03 -0.01,0.03 0,0.02 -0.01,0.03 -0.01,0.02 -0.01,0.03 -0.01,0.02 -0.02,0.02 -0.01,0.02 -0.02,0.02 -0.01,0.02 -0.02,0.02 -0.02,0.02 -0.02,0.02 -0.02,0.01 -0.02,0.02 -0.02,0.01 -0.02,0.01 -0.02,0.01 -0.02,0.02 -0.03,0.01 -0.02,0 -0.02,0.01 -0.03,0.01 -0.02,0 -0.03,0.01 -0.02,0 -0.03,0 -0.03,0 c -0.31,0 -0.52,-0.26 -0.52,-0.52 0,-0.27 0.21,-0.53 0.52,-0.53 0.28,0 0.53,0.21 0.53,0.53 z"
   id="path5979" />
<path
   style="fill:#000000;stroke-width:0"
   inkscape:connector-curvature="0"
   d="m 270.09,709.06 0.02,-0.01 0.03,0 0.03,-0.01 0.03,-0.01 0.03,0 0.04,-0.01 0.03,-0.01 0.04,-0.01 0.04,-0.02 0.05,-0.01 0.04,-0.02 0.04,-0.01 0.05,-0.02 0.04,-0.02 0.05,-0.02 0.04,-0.03 0.04,-0.02 0.04,-0.03 0.05,-0.03 0.04,-0.04 0.03,-0.03 0.04,-0.04 0.03,-0.04 0.03,-0.04 0.03,-0.04 0.02,-0.03 0.01,-0.02 0.01,-0.03 0.01,-0.02 0.01,-0.03 0.01,-0.03 0.01,-0.02 0.01,-0.03 0,-0.03 0.01,-0.03 0,-0.03 0,-0.03 0.01,-0.04 0,-0.03 c 0,-0.51 -0.35,-0.91 -1.13,-0.91 -0.84,0 -1.2,0.57 -1.39,1.42 -0.03,0.13 -0.04,0.17 -0.14,0.17 -0.13,0 -0.13,-0.07 -0.13,-0.25 v -1.32 c 0,-0.16 0,-0.23 0.11,-0.23 0.05,0 0.06,0.01 0.25,0.2 0.02,0.01 0.02,0.03 0.2,0.22 0.44,-0.41 0.89,-0.42 1.1,-0.42 1.15,0 1.6,0.66 1.6,1.38 0,0.53 -0.3,0.82 -0.42,0.94 -0.32,0.32 -0.71,0.4 -1.13,0.48 -0.56,0.11 -1.23,0.24 -1.23,0.82 0,0.35 0.26,0.76 1.12,0.76 1.1,0 1.15,-0.9 1.17,-1.21 0.01,-0.09 0.09,-0.09 0.12,-0.09 0.13,0 0.13,0.05 0.13,0.24 v 1 c 0,0.17 0,0.24 -0.12,0.24 -0.04,0 -0.07,0 -0.19,-0.12 -0.03,-0.04 -0.13,-0.12 -0.17,-0.16 -0.38,0.28 -0.79,0.28 -0.94,0.28 -1.22,0 -1.6,-0.66 -1.6,-1.22 0,-0.35 0.16,-0.63 0.43,-0.85 0.32,-0.25 0.6,-0.31 1.32,-0.45 z"
   id="path5981" />
<path
   style="fill:#000000;stroke-width:0"
   inkscape:connector-curvature="0"
   d="m 273.67,711.11 h 1.43 v 0.3 h -1.43 v 1.84 h -0.25 c -0.01,-0.82 -0.31,-1.89 -1.29,-1.92 v -0.22 h 0.85 v -2.75 c 0,-1.22 0.93,-1.34 1.29,-1.34 0.71,0 0.98,0.7 0.98,1.34 v 0.57 h -0.24 v -0.55 c 0,-0.74 -0.3,-1.12 -0.67,-1.12 -0.67,0 -0.67,0.91 -0.67,1.08 z"
   id="path5983" />
<path
   style="fill:#000000;stroke-width:0"
   inkscape:connector-curvature="0"
   d="m 279.14,707.88 0,-0.04 0.01,-0.03 0.01,-0.04 0,-0.04 0.01,-0.04 0.02,-0.03 0.01,-0.04 0.01,-0.03 0.02,-0.04 0.01,-0.03 0.02,-0.04 0.02,-0.03 0.02,-0.03 0.02,-0.04 0.02,-0.03 0.03,-0.03 0.02,-0.02 0.03,-0.03 0.03,-0.03 0.02,-0.02 0.03,-0.02 0.04,-0.03 0.03,-0.02 0.03,-0.01 0.04,-0.02 0.03,-0.01 0.04,-0.02 0.04,-0.01 0.04,0 0.04,-0.01 0.04,0 0.05,0 c 0.2,0 0.81,0.14 0.81,0.94 v 0.56 h -0.25 v -0.56 c 0,-0.58 -0.25,-0.64 -0.36,-0.64 -0.32,0 -0.36,0.45 -0.36,0.5 v 1.99 c 0,0.42 0,0.81 -0.36,1.18 -0.39,0.38 -0.89,0.54 -1.37,0.54 -0.82,0 -1.5,-0.46 -1.5,-1.12 0,-0.3 0.2,-0.47 0.45,-0.47 0.29,0 0.46,0.2 0.46,0.46 0,0.12 -0.05,0.45 -0.5,0.46 0.26,0.35 0.75,0.45 1.07,0.45 0.49,0 1.06,-0.38 1.06,-1.27 v -0.37 -0.21 -0.99 c 0,-0.95 -0.72,-1.29 -1.17,-1.29 -0.49,0 -0.89,0.35 -0.89,0.85 0,0.55 0.41,1.37 2.06,1.43 h 0 v 0.21 c -0.51,-0.03 -1.21,-0.06 -1.84,-0.36 -0.74,-0.33 -0.99,-0.85 -0.99,-1.29 0,-0.81 0.96,-1.05 1.59,-1.05 0.66,0 1.12,0.39 1.31,0.86 z"
   id="path5985" />
</g>  <g
     style="font-style:normal;font-variant:normal;font-weight:normal;font-stretch:normal;letter-spacing:normal;word-spacing:normal;text-anchor:start;fill:none;stroke:#000000;stroke-linecap:butt;stroke-linejoin:miter;stroke-miterlimit:10.43299961;stroke-opacity:1;stroke-dasharray:none;stroke-dashoffset:0"
     ns0:preamble=""
     ns0:text="relativista"
     text-anchor="start"
     word-spacing="normal"
     letter-spacing="normal"
     font-size-adjust="none"
     font-stretch="normal"
     font-weight="normal"
     font-variant="normal"
     font-style="normal"
     fill-opacity="1"
     fill-rule="evenodd"
     fill="none"
     stroke-opacity="1"
     stroke-dashoffset="0"
     stroke-dasharray="none"
     stroke-miterlimit="10.433"
     stroke-linejoin="miter"
     stroke-linecap="butt"
     stroke="black"
     xml:space="preserve"
     transform="matrix(2.0419047,0,0,-1.9581399,-43.423052,1636.9245)"
     id="g3175">
<path
   id="path3177"
   fill="black"
   stroke-width="0"
   d="M225.1,710.43 V711.52 L223.71,711.41 V711.11 C224.41,711.11,224.49,711.04,224.49,710.55 V707.88 C224.49,707.43,224.38,707.43,223.71,707.43 V707.12 C224.1,707.14,224.57,707.16,224.85,707.16 C225.25,707.16,225.71,707.16,226.11,707.12 V707.43 H225.9 C225.17,707.43,225.15,707.54,225.15,707.9 V709.43 C225.15,710.42,225.57,711.3,226.32,711.3 C226.39,711.3,226.41,711.3,226.43,711.29 C226.4,711.28,226.2,711.17,226.2,710.91 C226.2,710.63,226.41,710.48,226.63,710.48 C226.81,710.48,227.06,710.6,227.06,710.92 C227.06,711.23,226.75,711.52,226.32,711.52 C225.6,711.52,225.24,710.86,225.1,710.43 Z " />
<path
   id="path3179"
   fill="black"
   stroke-width="0"
   d="M228.44,709.42 L228.45,709.63 C228.51,711.12,229.35,711.36,229.69,711.36 C230.71,711.36,230.81,710.02,230.81,709.63 H228.45 L228.44,709.42 H231.22 C231.44,709.42,231.47,709.42,231.47,709.63 C231.47,710.62,230.93,711.58,229.69,711.58 C228.53,711.58,227.61,710.56,227.61,709.32 C227.61,707.98,228.66,707.02,229.81,707.02 C231.02,707.02,231.47,708.12,231.47,708.31 C231.47,708.41,231.39,708.43,231.34,708.43 C231.25,708.43,231.23,708.37,231.21,708.29 C230.86,707.26,229.97,707.26,229.87,707.26 C229.37,707.26,228.97,707.56,228.74,707.93 C228.44,708.41,228.44,709.07,228.44,709.42 Z " />
<path
   id="path3181"
   fill="black"
   stroke-width="0"
   d="M233.53,714.03 L232.09,713.92 V713.61 C232.79,713.61,232.87,713.54,232.87,713.06 V707.88 C232.87,707.43,232.76,707.43,232.09,707.43 V707.12 C232.42,707.14,232.95,707.16,233.2,707.16 C233.45,707.16,233.93,707.14,234.3,707.12 V707.43 C233.64,707.43,233.53,707.43,233.53,707.88 Z " />
<path
   id="path3183"
   fill="black"
   stroke-width="0"
   d="M237.85,707.88 L237.85,707.84 L237.86,707.81 L237.87,707.77 L237.87,707.73 L237.88,707.69 L237.9,707.66 L237.91,707.62 L237.92,707.59 L237.94,707.55 L237.95,707.52 L237.97,707.48 L237.99,707.45 L238.01,707.42 L238.03,707.38 L238.05,707.35 L238.08,707.32 L238.1,707.3 L238.13,707.27 L238.16,707.24 L238.19,707.22 L238.22,707.2 L238.25,707.17 L238.28,707.15 L238.31,707.14 L238.35,707.12 L238.38,707.11 L238.42,707.09 L238.46,707.08 L238.5,707.08 L238.54,707.07 L238.58,707.07 L238.63,707.07 C238.84,707.07,239.44,707.21,239.44,708.01 V708.57 H239.2 V708.01 C239.2,707.43,238.95,707.37,238.84,707.37 C238.51,707.37,238.47,707.82,238.47,707.87 V709.86 C238.47,710.28,238.47,710.67,238.11,711.04 C237.72,711.42,237.22,711.58,236.74,711.58 C235.93,711.58,235.24,711.12,235.24,710.46 C235.24,710.16,235.44,709.99,235.7,709.99 C235.98,709.99,236.15,710.19,236.15,710.45 C236.15,710.57,236.1,710.9,235.65,710.91 C235.91,711.26,236.4,711.36,236.72,711.36 C237.21,711.36,237.78,710.98,237.78,710.09 V709.72 V709.51 V708.52 C237.78,707.57,237.06,707.23,236.61,707.23 C236.12,707.23,235.72,707.58,235.72,708.08 C235.72,708.63,236.13,709.45,237.78,709.51 H237.78 V709.72 C237.27,709.69,236.57,709.66,235.95,709.36 C235.2,709.03,234.95,708.51,234.95,708.07 C234.95,707.26,235.91,707.02,236.54,707.02 C237.2,707.02,237.66,707.41,237.85,707.88 Z " />
<path
   id="path3185"
   fill="black"
   stroke-width="0"
   d="M241.24,711.11 H242.66 V711.41 H241.24 V713.25 H240.99 C240.98,712.43,240.68,711.36,239.7,711.33 V711.11 H240.55 V708.36 C240.55,707.14,241.47,707.02,241.83,707.02 C242.54,707.02,242.82,707.72,242.82,708.36 V708.93 H242.57 V708.38 C242.57,707.64,242.27,707.26,241.9,707.26 C241.24,707.26,241.24,708.17,241.24,708.34 Z " />
<path
   id="path3187"
   fill="black"
   stroke-width="0"
   d="M245.15,711.52 L243.75,711.41 V711.11 C244.4,711.11,244.49,711.05,244.49,710.56 V707.88 C244.49,707.43,244.38,707.43,243.71,707.43 V707.12 C244.03,707.14,244.57,707.16,244.81,707.16 C245.16,707.16,245.51,707.14,245.85,707.12 V707.43 C245.19,707.43,245.15,707.48,245.15,707.87 Z " />
<path
   id="path3189"
   fill="black"
   stroke-width="0"
   d="M245.19,713.26 L245.19,713.29 L245.19,713.31 L245.18,713.34 L245.18,713.37 L245.17,713.4 L245.16,713.42 L245.16,713.45 L245.15,713.47 L245.13,713.5 L245.12,713.52 L245.11,713.54 L245.1,713.56 L245.08,713.58 L245.06,713.6 L245.05,713.62 L245.03,713.64 L245.01,713.66 L244.99,713.67 L244.97,713.69 L244.95,713.7 L244.93,713.71 L244.91,713.72 L244.88,713.74 L244.86,713.75 L244.84,713.75 L244.81,713.76 L244.79,713.77 L244.76,713.77 L244.74,713.78 L244.71,713.78 L244.69,713.78 L244.66,713.78 C244.35,713.78,244.13,713.52,244.13,713.26 C244.13,712.99,244.35,712.73,244.66,712.73 C244.94,712.73,245.19,712.94,245.19,713.26 Z " />
<path
   id="path3191"
   fill="black"
   stroke-width="0"
   d="M250.3,710.44 L250.31,710.46 L250.32,710.48 L250.33,710.51 L250.34,710.53 L250.35,710.56 L250.36,710.58 L250.37,710.61 L250.39,710.64 L250.4,710.67 L250.42,710.69 L250.44,710.72 L250.46,710.75 L250.48,710.78 L250.5,710.8 L250.52,710.83 L250.55,710.85 L250.57,710.88 L250.6,710.9 L250.63,710.93 L250.66,710.95 L250.69,710.97 L250.73,710.99 L250.77,711.01 L250.81,711.03 L250.85,711.05 L250.9,711.06 L250.94,711.07 L250.99,711.08 L251.04,711.09 L251.07,711.1 L251.1,711.1 L251.13,711.1 L251.16,711.1 L251.19,711.11 L251.22,711.11 V711.41 C250.99,711.4,250.7,711.39,250.47,711.39 C250.23,711.39,249.77,711.41,249.6,711.41 V711.11 C249.97,711.1,250.08,710.87,250.08,710.68 C250.08,710.59,250.06,710.55,250.02,710.44 L249,707.9 L247.89,710.68 C247.83,710.81,247.83,710.83,247.83,710.85 C247.83,711.11,248.22,711.11,248.4,711.11 V711.41 C248.1,711.41,247.54,711.39,247.31,711.39 C247.04,711.39,246.64,711.4,246.34,711.41 V711.11 C246.97,711.11,247.01,711.05,247.14,710.74 L248.57,707.21 C248.63,707.07,248.65,707.02,248.78,707.02 C248.91,707.02,248.95,707.1,248.99,707.21 Z " />
<path
   id="path3193"
   fill="black"
   stroke-width="0"
   d="M253.18,711.52 L251.78,711.41 V711.11 C252.43,711.11,252.52,711.05,252.52,710.56 V707.88 C252.52,707.43,252.41,707.43,251.74,707.43 V707.12 C252.06,707.14,252.6,707.16,252.84,707.16 C253.18,707.16,253.53,707.14,253.87,707.12 V707.43 C253.21,707.43,253.18,707.48,253.18,707.87 Z " />
<path
   id="path3195"
   fill="black"
   stroke-width="0"
   d="M253.21,713.26 L253.21,713.29 L253.21,713.31 L253.21,713.34 L253.2,713.37 L253.2,713.4 L253.19,713.42 L253.18,713.45 L253.17,713.47 L253.16,713.5 L253.15,713.52 L253.14,713.54 L253.12,713.56 L253.11,713.58 L253.09,713.6 L253.07,713.62 L253.06,713.64 L253.04,713.66 L253.02,713.67 L253,713.69 L252.98,713.7 L252.96,713.71 L252.93,713.72 L252.91,713.74 L252.89,713.75 L252.86,713.75 L252.84,713.76 L252.81,713.77 L252.79,713.77 L252.76,713.78 L252.74,713.78 L252.71,713.78 L252.69,713.78 C252.38,713.78,252.16,713.52,252.16,713.26 C252.16,712.99,252.38,712.73,252.69,712.73 C252.97,712.73,253.21,712.94,253.21,713.26 Z " />
<path
   id="path3197"
   fill="black"
   stroke-width="0"
   d="M256.25,709.06 L256.27,709.05 L256.3,709.05 L256.33,709.04 L256.36,709.03 L256.39,709.03 L256.43,709.02 L256.47,709.01 L256.51,709 L256.55,708.98 L256.59,708.97 L256.63,708.95 L256.68,708.94 L256.72,708.92 L256.76,708.9 L256.81,708.88 L256.85,708.85 L256.9,708.83 L256.94,708.8 L256.98,708.77 L257.02,708.73 L257.06,708.7 L257.09,708.66 L257.13,708.62 L257.16,708.58 L257.19,708.54 L257.2,708.51 L257.21,708.49 L257.22,708.46 L257.23,708.44 L257.24,708.41 L257.25,708.38 L257.26,708.36 L257.27,708.33 L257.27,708.3 L257.28,708.27 L257.28,708.24 L257.29,708.21 L257.29,708.17 L257.29,708.14 C257.29,707.63,256.94,707.23,256.16,707.23 C255.32,707.23,254.97,707.8,254.78,708.65 C254.75,708.78,254.74,708.82,254.64,708.82 C254.51,708.82,254.51,708.75,254.51,708.57 V707.25 C254.51,707.09,254.51,707.02,254.62,707.02 C254.67,707.02,254.68,707.03,254.87,707.22 C254.89,707.23,254.89,707.25,255.07,707.44 C255.5,707.03,255.95,707.02,256.16,707.02 C257.31,707.02,257.77,707.68,257.77,708.4 C257.77,708.93,257.47,709.22,257.35,709.34 C257.02,709.66,256.63,709.74,256.21,709.82 C255.65,709.93,254.99,710.06,254.99,710.64 C254.99,710.99,255.24,711.4,256.1,711.4 C257.2,711.4,257.25,710.5,257.27,710.19 C257.28,710.1,257.37,710.1,257.39,710.1 C257.52,710.1,257.52,710.15,257.52,710.34 V711.34 C257.52,711.51,257.52,711.58,257.41,711.58 C257.36,711.58,257.34,711.58,257.21,711.46 C257.18,711.42,257.08,711.34,257.04,711.3 C256.66,711.58,256.25,711.58,256.1,711.58 C254.89,711.58,254.51,710.92,254.51,710.36 C254.51,710.01,254.67,709.73,254.94,709.51 C255.26,709.26,255.53,709.2,256.25,709.06 Z " />
<path
   id="path3199"
   fill="black"
   stroke-width="0"
   d="M259.83,711.11 H261.26 V711.41 H259.83 V713.25 H259.58 C259.57,712.43,259.27,711.36,258.3,711.33 V711.11 H259.14 V708.36 C259.14,707.14,260.07,707.02,260.43,707.02 C261.14,707.02,261.42,707.72,261.42,708.36 V708.93 H261.17 V708.38 C261.17,707.64,260.87,707.26,260.5,707.26 C259.83,707.26,259.83,708.17,259.83,708.34 Z " />
<path
   id="path3201"
   fill="black"
   stroke-width="0"
   d="M265.3,707.88 L265.31,707.84 L265.31,707.81 L265.32,707.77 L265.33,707.73 L265.34,707.69 L265.35,707.66 L265.36,707.62 L265.37,707.59 L265.39,707.55 L265.41,707.52 L265.42,707.48 L265.44,707.45 L265.46,707.42 L265.48,707.38 L265.51,707.35 L265.53,707.32 L265.55,707.3 L265.58,707.27 L265.61,707.24 L265.64,707.22 L265.67,707.2 L265.7,707.17 L265.73,707.15 L265.77,707.14 L265.8,707.12 L265.84,707.11 L265.87,707.09 L265.91,707.08 L265.95,707.08 L265.99,707.07 L266.04,707.07 L266.08,707.07 C266.29,707.07,266.9,707.21,266.9,708.01 V708.57 H266.65 V708.01 C266.65,707.43,266.4,707.37,266.29,707.37 C265.96,707.37,265.92,707.82,265.92,707.87 V709.86 C265.92,710.28,265.92,710.67,265.56,711.04 C265.17,711.42,264.67,711.58,264.2,711.58 C263.38,711.58,262.69,711.12,262.69,710.46 C262.69,710.16,262.89,709.99,263.15,709.99 C263.43,709.99,263.61,710.19,263.61,710.45 C263.61,710.57,263.56,710.9,263.1,710.91 C263.37,711.26,263.86,711.36,264.17,711.36 C264.66,711.36,265.23,710.98,265.23,710.09 V709.72 V709.51 V708.52 C265.23,707.57,264.51,707.23,264.07,707.23 C263.58,707.23,263.17,707.58,263.17,708.08 C263.17,708.63,263.59,709.45,265.23,709.51 H265.23 V709.72 C264.72,709.69,264.03,709.66,263.4,709.36 C262.65,709.03,262.4,708.51,262.4,708.07 C262.4,707.26,263.37,707.02,264,707.02 C264.65,707.02,265.11,707.41,265.3,707.88 Z " />
</g></svg>
