<?xml version="1.0" encoding="UTF-8" standalone="no"?>
<!-- Created with Inkscape (http://www.inkscape.org/) -->

<svg
   xmlns:ns0="http://www.iki.fi/pav/software/textext/"
   xmlns:dc="http://purl.org/dc/elements/1.1/"
   xmlns:cc="http://creativecommons.org/ns#"
   xmlns:rdf="http://www.w3.org/1999/02/22-rdf-syntax-ns#"
   xmlns:svg="http://www.w3.org/2000/svg"
   xmlns="http://www.w3.org/2000/svg"
   xmlns:sodipodi="http://sodipodi.sourceforge.net/DTD/sodipodi-0.dtd"
   xmlns:inkscape="http://www.inkscape.org/namespaces/inkscape"
   width="2247.7603"
   height="1003.451"
   id="svg2"
   version="1.1"
   inkscape:version="0.48.4 r9939"
   sodipodi:docname="super2.svg">
  <sodipodi:namedview
     id="base"
     pagecolor="#ffffff"
     bordercolor="#666666"
     borderopacity="1.0"
     inkscape:pageopacity="0.0"
     inkscape:pageshadow="2"
     inkscape:zoom="0.22627417"
     inkscape:cx="1477.0626"
     inkscape:cy="761.85611"
     inkscape:document-units="px"
     inkscape:current-layer="layer1"
     showgrid="true"
     inkscape:window-width="1366"
     inkscape:window-height="706"
     inkscape:window-x="-8"
     inkscape:window-y="-8"
     inkscape:window-maximized="1"
     fit-margin-top="0"
     fit-margin-left="0"
     fit-margin-right="0"
     fit-margin-bottom="0">
    <inkscape:grid
       type="xygrid"
       id="grid2985"
       empspacing="5"
       visible="true"
       enabled="true"
       snapvisiblegridlinesonly="true"
       originx="1570.4159px"
       originy="33.010863px" />
  </sodipodi:namedview>
  <defs
     id="defs4">
    <marker
       style="overflow:visible"
       id="Arrow1Send"
       refX="0"
       refY="0"
       orient="auto"
       inkscape:stockid="Arrow1Send">
      <path
         transform="matrix(-0.2,0,0,-0.2,-1.2,0)"
         style="fill-rule:evenodd;stroke:#000000;stroke-width:1pt"
         d="M 0,0 5,-5 -12.5,0 5,5 0,0 z"
         id="path3898"
         inkscape:connector-curvature="0" />
    </marker>
    <marker
       inkscape:stockid="Arrow1Lend"
       orient="auto"
       refY="0"
       refX="0"
       id="Arrow1Lend"
       style="overflow:visible">
      <path
         id="path3886"
         d="M 0,0 5,-5 -12.5,0 5,5 0,0 z"
         style="fill-rule:evenodd;stroke:#000000;stroke-width:1pt"
         transform="matrix(-0.8,0,0,-0.8,-10,0)"
         inkscape:connector-curvature="0" />
    </marker>
    <marker
       inkscape:stockid="Arrow1Lstart"
       orient="auto"
       refY="0"
       refX="0"
       id="Arrow1Lstart"
       style="overflow:visible">
      <path
         id="path3883"
         d="M 0,0 5,-5 -12.5,0 5,5 0,0 z"
         style="fill-rule:evenodd;stroke:#000000;stroke-width:1pt"
         transform="matrix(0.8,0,0,0.8,10,0)"
         inkscape:connector-curvature="0" />
    </marker>
    <marker
       inkscape:stockid="Arrow1Mend"
       orient="auto"
       refY="0"
       refX="0"
       id="Arrow1Mend"
       style="overflow:visible">
      <path
         id="path3892"
         d="M 0,0 5,-5 -12.5,0 5,5 0,0 z"
         style="fill-rule:evenodd;stroke:#000000;stroke-width:1pt"
         transform="matrix(-0.4,0,0,-0.4,-4,0)"
         inkscape:connector-curvature="0" />
    </marker>
    <inkscape:perspective
       sodipodi:type="inkscape:persp3d"
       inkscape:vp_x="101.6466 : 499.66459 : 1"
       inkscape:vp_y="0 : 1000 : 0"
       inkscape:vp_z="481.13914 : 515.13255 : 1"
       inkscape:persp3d-origin="372.04724 : 350.78739 : 1"
       id="perspective3793" />
    <marker
       inkscape:stockid="Arrow1Mend"
       orient="auto"
       refY="0"
       refX="0"
       id="Arrow1Mend-9"
       style="overflow:visible">
      <path
         inkscape:connector-curvature="0"
         id="path3892-4"
         d="M 0,0 5,-5 -12.5,0 5,5 0,0 z"
         style="fill-rule:evenodd;stroke:#000000;stroke-width:1pt"
         transform="matrix(-0.4,0,0,-0.4,-4,0)" />
    </marker>
    <marker
       inkscape:stockid="Arrow1Mend"
       orient="auto"
       refY="0"
       refX="0"
       id="Arrow1Mend-9-5"
       style="overflow:visible">
      <path
         inkscape:connector-curvature="0"
         id="path3892-4-1"
         d="M 0,0 5,-5 -12.5,0 5,5 0,0 z"
         style="fill-rule:evenodd;stroke:#000000;stroke-width:1pt"
         transform="matrix(-0.4,0,0,-0.4,-4,0)" />
    </marker>
    <marker
       inkscape:stockid="Arrow1Mend"
       orient="auto"
       refY="0"
       refX="0"
       id="Arrow1Mend-2"
       style="overflow:visible">
      <path
         id="path3892-7"
         d="M 0,0 5,-5 -12.5,0 5,5 0,0 z"
         style="fill-rule:evenodd;stroke:#000000;stroke-width:1pt"
         transform="matrix(-0.4,0,0,-0.4,-4,0)"
         inkscape:connector-curvature="0" />
    </marker>
    <marker
       inkscape:stockid="Arrow1Mend"
       orient="auto"
       refY="0"
       refX="0"
       id="Arrow1Mend-9-2"
       style="overflow:visible">
      <path
         inkscape:connector-curvature="0"
         id="path3892-4-16"
         d="M 0,0 5,-5 -12.5,0 5,5 0,0 z"
         style="fill-rule:evenodd;stroke:#000000;stroke-width:1pt"
         transform="matrix(-0.4,0,0,-0.4,-4,0)" />
    </marker>
  </defs>
  <metadata
     id="metadata7">
    <rdf:RDF>
      <cc:Work
         rdf:about="">
        <dc:format>image/svg+xml</dc:format>
        <dc:type
           rdf:resource="http://purl.org/dc/dcmitype/StillImage" />
        <dc:title />
      </cc:Work>
    </rdf:RDF>
  </metadata>
  <g
     inkscape:label="Capa 1"
     inkscape:groupmode="layer"
     id="layer1"
     transform="translate(1570.4159,-81.921898)">
    <path
       style="fill:none;stroke:#000000;stroke-width:4.20858955;stroke-linecap:butt;stroke-linejoin:miter;stroke-miterlimit:4;stroke-opacity:1;stroke-dasharray:none"
       d="m -884.07503,480.17332 0,248.49436 310.20265,0 0,-248.49436 z"
       id="path3837"
       inkscape:connector-curvature="0" />
    <path
       sodipodi:nodetypes="cccccc"
       style="fill:none;stroke:#000000;stroke-width:4.20858955;stroke-linecap:butt;stroke-linejoin:miter;stroke-miterlimit:4;stroke-opacity:1;stroke-dasharray:none"
       d="m -884.07503,480.17332 237.21379,-108.71629 237.21379,0 36.49443,0 -200.71936,108.71629 0,248.49436"
       id="path3841"
       inkscape:connector-curvature="0" />
    <path
       sodipodi:nodetypes="ccc"
       style="fill:none;stroke:#000000;stroke-width:4.20858955;stroke-linecap:butt;stroke-linejoin:miter;stroke-miterlimit:4;stroke-opacity:1;stroke-dasharray:none"
       d="m -370.30187,371.45703 -4.03218,248.49434 -200.71936,108.71629"
       id="path3843"
       inkscape:connector-curvature="0" />
    <path
       style="fill:none;stroke:#fb0000;stroke-width:6.06036901;stroke-linecap:butt;stroke-linejoin:miter;stroke-miterlimit:4;stroke-opacity:1;stroke-dasharray:none;marker-mid:url(#Arrow1Mend)"
       d="m -884.07503,619.9514 164.22493,0 145.97772,0 109.48328,-46.5927 91.23608,-46.59269"
       id="path3877"
       inkscape:connector-curvature="0" />
    <path
       inkscape:connector-curvature="0"
       id="path5103"
       d="m -629.81094,444.70652 0,-279.55617"
       style="fill:none;stroke:#000000;stroke-width:4.20858955;stroke-linecap:butt;stroke-linejoin:miter;stroke-miterlimit:4;stroke-opacity:1;stroke-dasharray:none;marker-end:url(#Arrow1Mend-9)" />
    <g
       style="font-style:normal;font-variant:normal;font-weight:normal;font-stretch:normal;letter-spacing:normal;word-spacing:normal;text-anchor:start;fill:none;stroke:#000000;stroke-linecap:butt;stroke-linejoin:miter;stroke-miterlimit:10.43299961;stroke-opacity:1;stroke-dasharray:none;stroke-dashoffset:0"
       id="g6241"
       transform="matrix(12.21503,0,0,-12.21503,-2611.9627,9295.5411)"
       xml:space="preserve"
       stroke-miterlimit="10.433"
       font-style="normal"
       font-variant="normal"
       font-weight="normal"
       font-stretch="normal"
       font-size-adjust="none"
       letter-spacing="normal"
       word-spacing="normal"
       ns0:text="$M=\\frac{\\mu}{Ah}$\\\\\n$\\mu=IA$\\\\\n$M=\\frac{I}{h}$\n"
       ns0:preamble="">



















</g>    <path
       style="fill:none;stroke:#000000;stroke-width:4.20858955;stroke-linecap:butt;stroke-linejoin:miter;stroke-miterlimit:4;stroke-opacity:1;stroke-dasharray:none"
       d="m -172.43367,482.11468 0,248.49437 310.20265,0 0,-248.49437 z"
       id="path3837-6"
       inkscape:connector-curvature="0" />
    <path
       sodipodi:nodetypes="cccccc"
       style="fill:none;stroke:#000000;stroke-width:4.20858955;stroke-linecap:butt;stroke-linejoin:miter;stroke-miterlimit:4;stroke-opacity:1;stroke-dasharray:none"
       d="m -172.43367,482.11468 237.213789,-108.71629 237.213781,0 36.49443,0 -200.71935,108.71629 0,248.49437"
       id="path3841-1"
       inkscape:connector-curvature="0" />
    <path
       sodipodi:nodetypes="ccc"
       style="fill:none;stroke:#000000;stroke-width:4.20858955;stroke-linecap:butt;stroke-linejoin:miter;stroke-miterlimit:4;stroke-opacity:1;stroke-dasharray:none"
       d="m 338.48833,373.39839 -4.0321,248.49437 -200.71936,108.71629"
       id="path3843-4"
       inkscape:connector-curvature="0" />
    <path
       style="fill:none;stroke:#fb0000;stroke-width:8.41717911;stroke-linecap:butt;stroke-linejoin:miter;stroke-miterlimit:4;stroke-opacity:1;stroke-dasharray:none;marker-mid:url(#Arrow1Mend-9-2)"
       d="m -172.43367,621.89276 164.2249316,0 145.9777184,0 109.48328,-46.59269 91.23607,-46.5927"
       id="path3877-2"
       inkscape:connector-curvature="0" />
    <path
       style="fill:none;stroke:#000000;stroke-width:2.52515388;stroke-linecap:butt;stroke-linejoin:miter;stroke-miterlimit:4;stroke-opacity:1;stroke-dasharray:none;marker-end:url(#Arrow1Lend)"
       d="m -1155.6644,819.96219 1642.24925,0"
       id="path6826"
       inkscape:connector-curvature="0" />
    <path
       style="fill:none;stroke:#000000;stroke-width:2.52515388;stroke-linecap:butt;stroke-linejoin:miter;stroke-miterlimit:4;stroke-opacity:1;stroke-dasharray:none;marker-start:url(#Arrow1Lstart);marker-end:url(#Arrow1Lend)"
       d="m -1523.4599,1008.7596 364.9443,-186.37074 0,-652.29766"
       id="path6828"
       inkscape:connector-curvature="0"
       sodipodi:nodetypes="ccc" />
    <path
       inkscape:connector-curvature="0"
       id="path5103-6"
       d="m 95.5158,440.82379 0,-279.55616"
       style="fill:none;stroke:#000000;stroke-width:9.17472458;stroke-linecap:butt;stroke-linejoin:miter;stroke-miterlimit:4;stroke-opacity:1;stroke-dasharray:none;marker-end:url(#Arrow1Mend-9)" />
    <g
       style="font-style:normal;font-variant:normal;font-weight:normal;font-stretch:normal;letter-spacing:normal;word-spacing:normal;text-anchor:start;fill:none;stroke:#000000;stroke-linecap:butt;stroke-linejoin:miter;stroke-miterlimit:10.43299961;stroke-opacity:1;stroke-dasharray:none;stroke-dashoffset:0"
       id="g7693"
       transform="matrix(10.682224,0,0,-10.682224,-2722.0932,7736.1597)"
       xml:space="preserve"
       stroke-miterlimit="10.433"
       font-style="normal"
       font-variant="normal"
       font-weight="normal"
       font-stretch="normal"
       font-size-adjust="none"
       letter-spacing="normal"
       word-spacing="normal"
       ns0:text="$x$ $y$ $z$\n"
       ns0:preamble="">
<path
   style="fill:#000000;stroke-width:0"
   inkscape:connector-curvature="0"
   d="m 110.91333,625.87789 0,0.02 0.01,0.03 0.01,0.03 0.01,0.04 0.01,0.04 0.01,0.04 0.01,0.04 0.02,0.05 0.01,0.04 0.02,0.05 0.02,0.05 0.02,0.05 0.02,0.05 0.03,0.05 0.02,0.05 0.03,0.05 0.03,0.05 0.03,0.04 0.03,0.05 0.04,0.04 0.04,0.05 0.04,0.04 0.04,0.04 0.04,0.03 0.05,0.03 0.05,0.03 0.02,0.01 0.03,0.02 0.02,0.01 0.03,0.01 0.03,0.01 0.03,0 0.03,0.01 0.02,0.01 0.04,0 0.03,0 0.03,0.01 0.03,0 c 0.05,0 0.29,0 0.5,-0.13 -0.28,-0.05 -0.48,-0.3 -0.48,-0.54 0,-0.16 0.11,-0.35 0.38,-0.35 0.22,0 0.54,0.18 0.54,0.58 0,0.52 -0.59,0.66 -0.93,0.66 -0.58,0 -0.93,-0.53 -1.04,-0.76 -0.25,0.66 -0.79,0.76 -1.08,0.76 -1.03,0 -1.6,-1.29 -1.6,-1.53 0,-0.1 0.1,-0.1 0.12,-0.1 0.08,0 0.11,0.02 0.13,0.11 0.34,1.05 0.99,1.3 1.33,1.3 0.19,0 0.54,-0.09 0.54,-0.67 0,-0.31 -0.17,-0.97 -0.54,-2.36 -0.16,-0.62 -0.51,-1.04 -0.94,-1.04 -0.06,0 -0.29,0 -0.5,0.13 0.25,0.05 0.47,0.26 0.47,0.54 0,0.27 -0.22,0.35 -0.37,0.35 -0.3,0 -0.55,-0.26 -0.55,-0.58 0,-0.46 0.5,-0.65 0.94,-0.65 0.65,0 1.01,0.69 1.04,0.75 0.12,-0.37 0.48,-0.75 1.07,-0.75 1.03,0 1.6,1.28 1.6,1.53 0,0.1 -0.09,0.1 -0.12,0.1 -0.09,0 -0.11,-0.05 -0.13,-0.11 -0.33,-1.07 -1.01,-1.31 -1.33,-1.31 -0.38,0 -0.54,0.32 -0.54,0.66 0,0.22 0.06,0.44 0.17,0.87 z"
   id="path7695" />
<path
   style="fill:#000000;stroke-width:0"
   inkscape:connector-curvature="0"
   d="m 307.19756,650.06125 0,0.01 0,0 0,0.01 0.01,0 0,0.02 0,0.01 0,0.01 0.01,0.01 0,0.01 0,0 0,0.01 0,0.01 0.01,0.01 0,0.01 0,0 0,0.01 0,0 0,0.01 0,0.01 0,0 0.01,0.01 0,0 0,0.01 0,0.01 0,0.01 0,0.01 0,0.01 0,0.01 0,0 0,0.01 c 0,0.18 -0.14,0.27 -0.29,0.27 -0.1,0 -0.26,-0.06 -0.35,-0.21 -0.02,-0.05 -0.1,-0.36 -0.14,-0.54 -0.07,-0.26 -0.14,-0.52 -0.2,-0.79 l -0.44,-1.79 c -0.04,-0.15 -0.47,-0.85 -1.13,-0.85 -0.51,0 -0.62,0.44 -0.62,0.81 0,0.46 0.17,1.07 0.51,1.95 0.16,0.4 0.2,0.51 0.2,0.71 0,0.45 -0.32,0.82 -0.82,0.82 -0.94,0 -1.31,-1.44 -1.31,-1.53 0,-0.1 0.1,-0.1 0.12,-0.1 0.1,0 0.11,0.02 0.16,0.18 0.27,0.93 0.67,1.23 1,1.23 0.09,0 0.25,0 0.25,-0.32 0,-0.25 -0.1,-0.51 -0.16,-0.7 -0.4,-1.05 -0.58,-1.62 -0.58,-2.08 0,-0.89 0.63,-1.18 1.21,-1.18 0.39,0 0.73,0.16 1.01,0.44 -0.13,-0.51 -0.25,-1 -0.65,-1.53 -0.26,-0.34 -0.64,-0.62 -1.1,-0.62 -0.13,0 -0.58,0.03 -0.75,0.41 0.16,0 0.29,0 0.43,0.12 0.1,0.09 0.2,0.22 0.2,0.41 0,0.31 -0.27,0.35 -0.37,0.35 -0.23,0 -0.56,-0.16 -0.56,-0.65 0,-0.49 0.44,-0.86 1.05,-0.86 1.03,0 2.05,0.9 2.33,2.02 z"
   id="path7697" />
<path
   style="fill:#000000;stroke-width:0"
   inkscape:connector-curvature="0"
   d="m 145.21603,712.92321 0.05,0.05 0.04,0.05 0.05,0.05 0.05,0.05 0.04,0.05 0.04,0.04 0.05,0.04 0.04,0.05 0.04,0.04 0.04,0.04 0.04,0.03 0.03,0.04 0.04,0.04 0.04,0.03 0.07,0.07 0.06,0.06 0.07,0.06 0.07,0.06 0.06,0.06 0.13,0.11 0.06,0.05 0.07,0.06 c 0,0.01 0.62,0.54 0.98,0.9 0.94,0.92 1.16,1.4 1.16,1.44 0,0.1 -0.09,0.1 -0.11,0.1 -0.07,0 -0.1,-0.02 -0.15,-0.11 -0.3,-0.48 -0.51,-0.64 -0.75,-0.64 -0.23,0 -0.35,0.15 -0.5,0.32 -0.19,0.23 -0.36,0.43 -0.69,0.43 -0.75,0 -1.2,-0.93 -1.2,-1.14 0,-0.05 0.03,-0.11 0.12,-0.11 0.09,0 0.11,0.05 0.13,0.11 0.19,0.46 0.76,0.47 0.84,0.47 0.21,0 0.4,-0.07 0.63,-0.15 0.4,-0.15 0.51,-0.15 0.76,-0.15 -0.35,-0.42 -1.19,-1.14 -1.38,-1.3 l -0.89,-0.83 c -0.68,-0.67 -1.03,-1.24 -1.03,-1.31 0,-0.09 0.1,-0.09 0.12,-0.09 0.08,0 0.1,0.02 0.16,0.13 0.23,0.34 0.53,0.61 0.85,0.61 0.22,0 0.32,-0.09 0.57,-0.38 0.17,-0.21 0.35,-0.36 0.64,-0.36 0.98,0 1.56,1.26 1.56,1.53 0,0.04 -0.04,0.1 -0.12,0.1 -0.09,0 -0.11,-0.06 -0.14,-0.13 -0.23,-0.65 -0.86,-0.84 -1.19,-0.84 -0.2,0 -0.38,0.06 -0.59,0.13 -0.34,0.13 -0.48,0.17 -0.69,0.17 -0.02,0 -0.18,0 -0.27,-0.03 z"
   id="path7699" />
</g>    <g
       style="font-style:normal;font-variant:normal;font-weight:normal;font-stretch:normal;letter-spacing:normal;word-spacing:normal;text-anchor:start;fill:none;stroke:#000000;stroke-linecap:butt;stroke-linejoin:miter;stroke-miterlimit:10.43299961;stroke-opacity:1;stroke-dasharray:none;stroke-dashoffset:0"
       ns0:preamble=""
       ns0:text="$M_z(y)$\n\n\n"
       word-spacing="normal"
       letter-spacing="normal"
       font-size-adjust="none"
       font-stretch="normal"
       font-weight="normal"
       font-variant="normal"
       font-style="normal"
       stroke-miterlimit="10.433"
       xml:space="preserve"
       transform="matrix(9.3060722,0,0,-9.3060722,-3007.5575,6847.5098)"
       id="content">
<path
   id="path8013"
   d="m 232.65,713.15 0,0.03 0.01,0.03 0.01,0.03 0.01,0.03 0,0.02 0.01,0.03 0.01,0.02 0.01,0.03 0.01,0.02 0.01,0.02 0.01,0.02 0.02,0.02 0.01,0.01 0.02,0.02 0.02,0.01 0.02,0.02 0.02,0.01 0.02,0.01 0.03,0.01 0.03,0.01 0.03,0.01 0.01,0 0.02,0.01 0.02,0 0.02,0 0.01,0.01 0.02,0 0.03,0 0.02,0.01 0.02,0 0.02,0 0.03,0 0.02,0 0.03,0.01 0.02,0 0.03,0 0.03,0 0.03,0 0.03,0 0.03,0 0.03,0 0.04,0 0.03,0 c 0.23,0 0.32,0 0.32,0.2 0,0.11 -0.1,0.11 -0.27,0.11 h -1.31 c -0.26,0 -0.27,0 -0.39,-0.19 l -3.63,-5.66 -0.78,5.62 c -0.03,0.23 -0.05,0.23 -0.31,0.23 h -1.36 c -0.19,0 -0.3,0 -0.3,-0.19 0,-0.12 0.09,-0.12 0.29,-0.12 0.13,0 0.31,-0.01 0.43,-0.02 0.16,-0.02 0.22,-0.05 0.22,-0.16 0,-0.04 -0.01,-0.07 -0.04,-0.19 l -1.27,-5.05 c -0.1,-0.4 -0.26,-0.72 -1.07,-0.75 -0.05,0 -0.18,-0.01 -0.18,-0.19 0,-0.08 0.06,-0.11 0.14,-0.11 0.32,0 0.67,0.03 0.99,0.03 0.34,0 0.7,-0.03 1.03,-0.03 0.05,0 0.18,0 0.18,0.19 0,0.11 -0.11,0.11 -0.18,0.11 -0.57,0.01 -0.68,0.21 -0.68,0.44 0,0.07 0.01,0.12 0.04,0.23 l 1.36,5.41 h 0.01 l 0.85,-6.16 c 0.02,-0.12 0.03,-0.22 0.15,-0.22 0.11,0 0.17,0.1 0.22,0.17 l 4.02,6.29 h 0.01 l -1.42,-5.69 c -0.1,-0.39 -0.12,-0.47 -0.91,-0.47 -0.17,0 -0.28,0 -0.28,-0.19 0,-0.11 0.12,-0.11 0.15,-0.11 0.28,0 0.96,0.03 1.23,0.03 0.41,0 0.84,-0.03 1.25,-0.03 0.06,0 0.19,0 0.19,0.19 0,0.11 -0.09,0.11 -0.28,0.11 -0.37,0 -0.65,0 -0.65,0.18 0,0.04 0,0.06 0.05,0.24 z"
   inkscape:connector-curvature="0"
   style="fill:#000000;stroke-width:0" />
<path
   id="path8015"
   d="m 234.27,706.24 0.03,0.04 0.03,0.03 0.04,0.03 0.03,0.04 0.04,0.03 0.02,0.02 0.01,0.02 0.02,0.02 0.03,0.02 0.02,0.02 0.02,0.02 0.03,0.02 0.02,0.02 0.03,0.03 0.03,0.02 0.03,0.03 0.03,0.02 0.03,0.03 0.04,0.03 0.04,0.03 0.04,0.04 0.04,0.03 0.04,0.04 0.05,0.03 0.05,0.04 0.05,0.05 0.05,0.04 c 0.15,0.12 0.67,0.53 0.88,0.73 0.42,0.42 0.69,0.77 0.69,0.85 0,0.09 -0.1,0.09 -0.12,0.09 -0.07,0 -0.09,-0.02 -0.12,-0.07 -0.22,-0.32 -0.36,-0.43 -0.53,-0.43 -0.08,0 -0.19,0.01 -0.4,0.21 -0.23,0.24 -0.39,0.29 -0.55,0.29 -0.55,0 -0.93,-0.61 -0.93,-0.82 0,-0.06 0.07,-0.08 0.12,-0.08 0.08,0 0.09,0.02 0.12,0.1 0.11,0.24 0.5,0.26 0.61,0.26 0.16,0 0.34,-0.05 0.44,-0.07 0.38,-0.08 0.43,-0.08 0.6,-0.08 -0.18,-0.19 -0.3,-0.31 -0.96,-0.84 -0.55,-0.43 -0.74,-0.61 -0.87,-0.75 -0.42,-0.41 -0.62,-0.71 -0.62,-0.77 0,-0.09 0.09,-0.09 0.12,-0.09 0.07,0 0.08,0.02 0.12,0.07 0.19,0.27 0.4,0.42 0.64,0.42 0.08,0 0.19,0 0.37,-0.18 0.22,-0.2 0.36,-0.31 0.58,-0.31 0.75,0 1.22,0.84 1.22,1.08 0,0.08 -0.08,0.09 -0.12,0.09 -0.09,0 -0.1,-0.03 -0.13,-0.11 -0.13,-0.35 -0.54,-0.52 -0.88,-0.52 -0.16,0 -0.34,0.04 -0.51,0.08 -0.32,0.07 -0.38,0.07 -0.5,0.07 -0.02,0 -0.12,0 -0.16,-0.01 z"
   inkscape:connector-curvature="0"
   style="fill:#000000;stroke-width:0" />
<path
   id="path8017"
   d="m 240.98,704.74 0,0.01 0,0 0,0 0,0.01 0,0 0,0 0,0.01 0,0 -0.01,0 0,0.01 0,0 0,0.01 -0.01,0 0,0.01 0,0 -0.01,0.01 0,0.01 -0.01,0 0,0.01 -0.01,0 0,0.01 0,0 -0.01,0 0,0.01 -0.01,0 0,0.01 0,0 -0.01,0.01 0,0 -0.01,0.01 0,0 -0.01,0.01 -0.01,0.01 0,0 -0.01,0.01 0,0.01 -0.01,0 -0.01,0.01 -0.01,0.01 0,0 -0.01,0.01 -0.01,0.01 c -1.24,1.25 -1.56,3.13 -1.56,4.65 0,1.73 0.38,3.46 1.6,4.7 0.13,0.12 0.13,0.14 0.13,0.17 0,0.07 -0.04,0.1 -0.1,0.1 -0.1,0 -0.99,-0.68 -1.58,-1.94 -0.51,-1.09 -0.63,-2.2 -0.63,-3.03 0,-0.78 0.11,-1.98 0.66,-3.1 0.6,-1.22 1.45,-1.87 1.55,-1.87 0.06,0 0.1,0.03 0.1,0.1 z"
   inkscape:connector-curvature="0"
   style="fill:#000000;stroke-width:0" />
<path
   id="path8019"
   d="m 246.4,710.91 0,0.01 0,0 0,0.01 0,0 0.01,0.02 0,0.01 0,0.01 0.01,0.01 0,0.01 0,0 0,0.01 0,0.01 0.01,0.01 0,0.01 0,0 0,0.01 0,0 0,0.01 0,0.01 0,0 0,0.01 0,0 0.01,0.01 0,0.01 0,0.01 0,0.01 0,0.01 0,0.01 0,0 0,0.01 c 0,0.18 -0.14,0.27 -0.29,0.27 -0.1,0 -0.26,-0.06 -0.35,-0.21 -0.02,-0.05 -0.1,-0.36 -0.14,-0.54 -0.07,-0.26 -0.14,-0.52 -0.2,-0.79 l -0.45,-1.79 c -0.03,-0.15 -0.46,-0.85 -1.12,-0.85 -0.51,0 -0.62,0.44 -0.62,0.81 0,0.46 0.17,1.07 0.51,1.95 0.16,0.4 0.2,0.51 0.2,0.71 0,0.45 -0.32,0.82 -0.82,0.82 -0.94,0 -1.31,-1.44 -1.31,-1.53 0,-0.1 0.1,-0.1 0.12,-0.1 0.1,0 0.11,0.02 0.16,0.18 0.27,0.93 0.67,1.23 1,1.23 0.08,0 0.25,0 0.25,-0.32 0,-0.25 -0.1,-0.51 -0.17,-0.7 -0.39,-1.05 -0.57,-1.62 -0.57,-2.08 0,-0.89 0.62,-1.18 1.21,-1.18 0.39,0 0.73,0.16 1,0.44 -0.12,-0.51 -0.24,-1 -0.64,-1.53 -0.26,-0.34 -0.64,-0.62 -1.1,-0.62 -0.13,0 -0.58,0.03 -0.75,0.41 0.16,0 0.29,0 0.43,0.12 0.09,0.09 0.2,0.22 0.2,0.41 0,0.31 -0.27,0.35 -0.37,0.35 -0.23,0 -0.56,-0.16 -0.56,-0.65 0,-0.49 0.44,-0.86 1.05,-0.86 1.03,0 2.05,0.9 2.33,2.02 z"
   inkscape:connector-curvature="0"
   style="fill:#000000;stroke-width:0" />
<path
   id="path8021"
   d="m 249.68,709.61 0,0.07 0,0.08 0,0.08 -0.01,0.08 0,0.17 -0.02,0.17 -0.01,0.18 -0.02,0.19 -0.03,0.2 -0.03,0.2 -0.04,0.2 -0.05,0.21 -0.05,0.21 -0.06,0.21 -0.07,0.21 -0.08,0.21 -0.04,0.11 -0.05,0.11 -0.05,0.1 -0.05,0.11 c -0.59,1.22 -1.45,1.87 -1.55,1.87 -0.06,0 -0.1,-0.04 -0.1,-0.1 0,-0.03 0,-0.05 0.19,-0.23 0.98,-0.99 1.54,-2.57 1.54,-4.64 0,-1.7 -0.37,-3.45 -1.6,-4.7 -0.13,-0.12 -0.13,-0.14 -0.13,-0.17 0,-0.06 0.04,-0.1 0.1,-0.1 0.1,0 0.99,0.68 1.58,1.94 0.51,1.09 0.63,2.19 0.63,3.03 z"
   inkscape:connector-curvature="0"
   style="fill:#000000;stroke-width:0" />
</g>    <g
       id="g8165"
       transform="matrix(9.3060722,0,0,-9.3060722,-2483.1825,6838.7598)"
       xml:space="preserve"
       stroke-miterlimit="10.433"
       font-style="normal"
       font-variant="normal"
       font-weight="normal"
       font-stretch="normal"
       font-size-adjust="none"
       letter-spacing="normal"
       word-spacing="normal"
       ns0:text="$M_z(y+dy)$\n\n\n\n"
       ns0:preamble=""
       style="font-style:normal;font-variant:normal;font-weight:normal;font-stretch:normal;letter-spacing:normal;word-spacing:normal;text-anchor:start;fill:none;stroke:#000000;stroke-linecap:butt;stroke-linejoin:miter;stroke-miterlimit:10.43299961;stroke-opacity:1;stroke-dasharray:none;stroke-dashoffset:0">
<path
   style="fill:#000000;stroke-width:0"
   inkscape:connector-curvature="0"
   d="m 232.65,713.15 0,0.03 0.01,0.03 0.01,0.03 0.01,0.03 0,0.02 0.01,0.03 0.01,0.02 0.01,0.03 0.01,0.02 0.01,0.02 0.01,0.02 0.02,0.02 0.01,0.01 0.02,0.02 0.02,0.01 0.02,0.02 0.02,0.01 0.02,0.01 0.03,0.01 0.03,0.01 0.03,0.01 0.01,0 0.02,0.01 0.02,0 0.02,0 0.01,0.01 0.02,0 0.03,0 0.02,0.01 0.02,0 0.02,0 0.03,0 0.02,0 0.03,0.01 0.02,0 0.03,0 0.03,0 0.03,0 0.03,0 0.03,0 0.03,0 0.04,0 0.03,0 c 0.23,0 0.32,0 0.32,0.2 0,0.11 -0.1,0.11 -0.27,0.11 h -1.31 c -0.26,0 -0.27,0 -0.39,-0.19 l -3.63,-5.66 -0.78,5.62 c -0.03,0.23 -0.05,0.23 -0.31,0.23 h -1.36 c -0.19,0 -0.3,0 -0.3,-0.19 0,-0.12 0.09,-0.12 0.29,-0.12 0.13,0 0.31,-0.01 0.43,-0.02 0.16,-0.02 0.22,-0.05 0.22,-0.16 0,-0.04 -0.01,-0.07 -0.04,-0.19 l -1.27,-5.05 c -0.1,-0.4 -0.26,-0.72 -1.07,-0.75 -0.05,0 -0.18,-0.01 -0.18,-0.19 0,-0.08 0.06,-0.11 0.14,-0.11 0.32,0 0.67,0.03 0.99,0.03 0.34,0 0.7,-0.03 1.03,-0.03 0.05,0 0.18,0 0.18,0.19 0,0.11 -0.11,0.11 -0.18,0.11 -0.57,0.01 -0.68,0.21 -0.68,0.44 0,0.07 0.01,0.12 0.04,0.23 l 1.36,5.41 h 0.01 l 0.85,-6.16 c 0.02,-0.12 0.03,-0.22 0.15,-0.22 0.11,0 0.17,0.1 0.22,0.17 l 4.02,6.29 h 0.01 l -1.42,-5.69 c -0.1,-0.39 -0.12,-0.47 -0.91,-0.47 -0.17,0 -0.28,0 -0.28,-0.19 0,-0.11 0.12,-0.11 0.15,-0.11 0.28,0 0.96,0.03 1.23,0.03 0.41,0 0.84,-0.03 1.25,-0.03 0.06,0 0.19,0 0.19,0.19 0,0.11 -0.09,0.11 -0.28,0.11 -0.37,0 -0.65,0 -0.65,0.18 0,0.04 0,0.06 0.05,0.24 z"
   id="path8167" />
<path
   style="fill:#000000;stroke-width:0"
   inkscape:connector-curvature="0"
   d="m 234.27,706.24 0.03,0.04 0.03,0.03 0.04,0.03 0.03,0.04 0.04,0.03 0.02,0.02 0.01,0.02 0.02,0.02 0.03,0.02 0.02,0.02 0.02,0.02 0.03,0.02 0.02,0.02 0.03,0.03 0.03,0.02 0.03,0.03 0.03,0.02 0.03,0.03 0.04,0.03 0.04,0.03 0.04,0.04 0.04,0.03 0.04,0.04 0.05,0.03 0.05,0.04 0.05,0.05 0.05,0.04 c 0.15,0.12 0.67,0.53 0.88,0.73 0.42,0.42 0.69,0.77 0.69,0.85 0,0.09 -0.1,0.09 -0.12,0.09 -0.07,0 -0.09,-0.02 -0.12,-0.07 -0.22,-0.32 -0.36,-0.43 -0.53,-0.43 -0.08,0 -0.19,0.01 -0.4,0.21 -0.23,0.24 -0.39,0.29 -0.55,0.29 -0.55,0 -0.93,-0.61 -0.93,-0.82 0,-0.06 0.07,-0.08 0.12,-0.08 0.08,0 0.09,0.02 0.12,0.1 0.11,0.24 0.5,0.26 0.61,0.26 0.16,0 0.34,-0.05 0.44,-0.07 0.38,-0.08 0.43,-0.08 0.6,-0.08 -0.18,-0.19 -0.3,-0.31 -0.96,-0.84 -0.55,-0.43 -0.74,-0.61 -0.87,-0.75 -0.42,-0.41 -0.62,-0.71 -0.62,-0.77 0,-0.09 0.09,-0.09 0.12,-0.09 0.07,0 0.08,0.02 0.12,0.07 0.19,0.27 0.4,0.42 0.64,0.42 0.08,0 0.19,0 0.37,-0.18 0.22,-0.2 0.36,-0.31 0.58,-0.31 0.75,0 1.22,0.84 1.22,1.08 0,0.08 -0.08,0.09 -0.12,0.09 -0.09,0 -0.1,-0.03 -0.13,-0.11 -0.13,-0.35 -0.54,-0.52 -0.88,-0.52 -0.16,0 -0.34,0.04 -0.51,0.08 -0.32,0.07 -0.38,0.07 -0.5,0.07 -0.02,0 -0.12,0 -0.16,-0.01 z"
   id="path8169" />
<path
   style="fill:#000000;stroke-width:0"
   inkscape:connector-curvature="0"
   d="m 240.98,704.74 0,0.01 0,0 0,0 0,0.01 0,0 0,0 0,0.01 0,0 -0.01,0 0,0.01 0,0 0,0.01 -0.01,0 0,0.01 0,0 -0.01,0.01 0,0.01 -0.01,0 0,0.01 -0.01,0 0,0.01 0,0 -0.01,0 0,0.01 -0.01,0 0,0.01 0,0 -0.01,0.01 0,0 -0.01,0.01 0,0 -0.01,0.01 -0.01,0.01 0,0 -0.01,0.01 0,0.01 -0.01,0 -0.01,0.01 -0.01,0.01 0,0 -0.01,0.01 -0.01,0.01 c -1.24,1.25 -1.56,3.13 -1.56,4.65 0,1.73 0.38,3.46 1.6,4.7 0.13,0.12 0.13,0.14 0.13,0.17 0,0.07 -0.04,0.1 -0.1,0.1 -0.1,0 -0.99,-0.68 -1.58,-1.94 -0.51,-1.09 -0.63,-2.2 -0.63,-3.03 0,-0.78 0.11,-1.98 0.66,-3.1 0.6,-1.22 1.45,-1.87 1.55,-1.87 0.06,0 0.1,0.03 0.1,0.1 z"
   id="path8171" />
<path
   style="fill:#000000;stroke-width:0"
   inkscape:connector-curvature="0"
   d="m 246.4,710.91 0,0.01 0,0 0,0.01 0,0 0.01,0.02 0,0.01 0,0.01 0.01,0.01 0,0.01 0,0 0,0.01 0,0.01 0.01,0.01 0,0.01 0,0 0,0.01 0,0 0,0.01 0,0.01 0,0 0,0.01 0,0 0.01,0.01 0,0.01 0,0.01 0,0.01 0,0.01 0,0.01 0,0 0,0.01 c 0,0.18 -0.14,0.27 -0.29,0.27 -0.1,0 -0.26,-0.06 -0.35,-0.21 -0.02,-0.05 -0.1,-0.36 -0.14,-0.54 -0.07,-0.26 -0.14,-0.52 -0.2,-0.79 l -0.45,-1.79 c -0.03,-0.15 -0.46,-0.85 -1.12,-0.85 -0.51,0 -0.62,0.44 -0.62,0.81 0,0.46 0.17,1.07 0.51,1.95 0.16,0.4 0.2,0.51 0.2,0.71 0,0.45 -0.32,0.82 -0.82,0.82 -0.94,0 -1.31,-1.44 -1.31,-1.53 0,-0.1 0.1,-0.1 0.12,-0.1 0.1,0 0.11,0.02 0.16,0.18 0.27,0.93 0.67,1.23 1,1.23 0.08,0 0.25,0 0.25,-0.32 0,-0.25 -0.1,-0.51 -0.17,-0.7 -0.39,-1.05 -0.57,-1.62 -0.57,-2.08 0,-0.89 0.62,-1.18 1.21,-1.18 0.39,0 0.73,0.16 1,0.44 -0.12,-0.51 -0.24,-1 -0.64,-1.53 -0.26,-0.34 -0.64,-0.62 -1.1,-0.62 -0.13,0 -0.58,0.03 -0.75,0.41 0.16,0 0.29,0 0.43,0.12 0.09,0.09 0.2,0.22 0.2,0.41 0,0.31 -0.27,0.35 -0.37,0.35 -0.23,0 -0.56,-0.16 -0.56,-0.65 0,-0.49 0.44,-0.86 1.05,-0.86 1.03,0 2.05,0.9 2.33,2.02 z"
   id="path8173" />
<path
   style="fill:#000000;stroke-width:0"
   inkscape:connector-curvature="0"
   d="m 253.09,709.41 h 2.77 c 0.14,0 0.33,0 0.33,0.2 0,0.2 -0.19,0.2 -0.33,0.2 h -2.77 v 2.78 c 0,0.14 0,0.33 -0.2,0.33 -0.2,0 -0.2,-0.19 -0.2,-0.33 v -2.78 h -2.79 c -0.14,0 -0.33,0 -0.33,-0.2 0,-0.2 0.19,-0.2 0.33,-0.2 h 2.79 v -2.78 c 0,-0.14 0,-0.33 0.2,-0.33 0.2,0 0.2,0.19 0.2,0.33 z"
   id="path8175" />
<path
   style="fill:#000000;stroke-width:0"
   inkscape:connector-curvature="0"
   d="m 264.11,713.91 0,0 0,0 0,0 0,0 0,0.01 0,0 0,0 0,0.01 0,0 0,0.01 0,0 0,0 0,0.01 0,0 -0.01,0.01 0,0 0,0.01 0,0 -0.01,0.01 0,0 -0.01,0.01 0,0 0,0 0,0 -0.01,0.01 0,0 0,0 -0.01,0 0,0 0,0.01 -0.01,0 0,0 0,0 -0.01,0 0,0 -0.01,0 0,0 -0.01,0.01 0,0 -0.01,0 0,0 -0.01,0 0,0 -0.01,0 -0.01,0 c -0.14,0 -1.09,-0.09 -1.26,-0.11 -0.08,-0.01 -0.14,-0.06 -0.14,-0.19 0,-0.12 0.09,-0.12 0.24,-0.12 0.48,0 0.5,-0.07 0.5,-0.17 l -0.03,-0.2 -0.6,-2.35 c -0.18,0.37 -0.47,0.64 -0.91,0.64 -1.17,0 -2.4,-1.47 -2.4,-2.92 0,-0.93 0.55,-1.58 1.32,-1.58 l 0.02,0.21 c -0.49,0 -0.64,0.55 -0.64,0.94 0,0.49 0.32,1.72 0.55,2.17 0.31,0.59 0.76,0.96 1.16,0.96 0.64,0 0.78,-0.82 0.78,-0.88 0,-0.06 -0.02,-0.12 -0.03,-0.17 l -0.49,-1.94 c -0.05,-0.18 -0.05,-0.2 -0.2,-0.37 -0.44,-0.55 -0.85,-0.71 -1.13,-0.71 l -0.02,-0.21 c 0.2,0 0.7,0.03 1.3,0.74 0.08,-0.42 0.42,-0.74 0.9,-0.74 0.35,0 0.58,0.22 0.74,0.54 0.17,0.36 0.3,0.97 0.3,0.99 0,0.1 -0.09,0.1 -0.12,0.1 -0.1,0 -0.11,-0.05 -0.14,-0.18 -0.17,-0.65 -0.35,-1.24 -0.76,-1.24 -0.27,0 -0.3,0.26 -0.3,0.46 0,0.24 0.02,0.31 0.06,0.48 z"
   id="path8177" />
<path
   style="fill:#000000;stroke-width:0"
   inkscape:connector-curvature="0"
   d="m 269,710.91 0,0.01 0.01,0 0,0.01 0,0 0,0.02 0.01,0.01 0,0.01 0,0.01 0,0.01 0.01,0 0,0.01 0,0.01 0,0.01 0,0.01 0,0 0,0.01 0.01,0 0,0.01 0,0.01 0,0 0,0.01 0,0 0,0.01 0,0.01 0,0.01 0,0.01 0,0.01 0,0.01 0,0 0,0.01 c 0,0.18 -0.14,0.27 -0.29,0.27 -0.1,0 -0.26,-0.06 -0.35,-0.21 -0.01,-0.05 -0.1,-0.36 -0.13,-0.54 -0.07,-0.26 -0.14,-0.52 -0.2,-0.79 l -0.45,-1.79 c -0.04,-0.15 -0.47,-0.85 -1.13,-0.85 -0.5,0 -0.61,0.44 -0.61,0.81 0,0.46 0.17,1.07 0.51,1.95 0.15,0.4 0.19,0.51 0.19,0.71 0,0.45 -0.31,0.82 -0.81,0.82 -0.95,0 -1.32,-1.44 -1.32,-1.53 0,-0.1 0.1,-0.1 0.12,-0.1 0.1,0 0.11,0.02 0.16,0.18 0.27,0.93 0.67,1.23 1.01,1.23 0.08,0 0.25,0 0.25,-0.32 0,-0.25 -0.1,-0.51 -0.17,-0.7 -0.4,-1.05 -0.58,-1.62 -0.58,-2.08 0,-0.89 0.63,-1.18 1.21,-1.18 0.39,0 0.73,0.16 1.01,0.44 -0.13,-0.51 -0.25,-1 -0.65,-1.53 -0.26,-0.34 -0.63,-0.62 -1.09,-0.62 -0.14,0 -0.59,0.03 -0.76,0.41 0.16,0 0.29,0 0.43,0.12 0.1,0.09 0.2,0.22 0.2,0.41 0,0.31 -0.27,0.35 -0.37,0.35 -0.23,0 -0.56,-0.16 -0.56,-0.65 0,-0.49 0.44,-0.86 1.06,-0.86 1.02,0 2.05,0.9 2.33,2.02 z"
   id="path8179" />
<path
   style="fill:#000000;stroke-width:0"
   inkscape:connector-curvature="0"
   d="m 272.28,709.61 0,0.07 0,0.08 0,0.08 0,0.08 -0.01,0.17 -0.01,0.17 -0.02,0.18 -0.02,0.19 -0.03,0.2 -0.03,0.2 -0.04,0.2 -0.05,0.21 -0.05,0.21 -0.06,0.21 -0.07,0.21 -0.08,0.21 -0.04,0.11 -0.05,0.11 -0.04,0.1 -0.05,0.11 c -0.6,1.22 -1.46,1.87 -1.55,1.87 -0.06,0 -0.1,-0.04 -0.1,-0.1 0,-0.03 0,-0.05 0.18,-0.23 0.98,-0.99 1.55,-2.57 1.55,-4.64 0,-1.7 -0.37,-3.45 -1.61,-4.7 -0.12,-0.12 -0.12,-0.14 -0.12,-0.17 0,-0.06 0.04,-0.1 0.1,-0.1 0.09,0 0.99,0.68 1.58,1.94 0.5,1.09 0.62,2.19 0.62,3.03 z"
   id="path8181" />
</g>    <g
       ns0:preamble=""
       ns0:text="$\\}$\n"
       word-spacing="normal"
       letter-spacing="normal"
       font-size-adjust="none"
       font-stretch="normal"
       font-weight="normal"
       font-variant="normal"
       font-style="normal"
       stroke-miterlimit="10.433"
       xml:space="preserve"
       transform="matrix(11.666089,0,0,-24.121376,-2213.7439,17617.088)"
       id="g8291"
       style="font-style:normal;font-variant:normal;font-weight:normal;font-stretch:normal;letter-spacing:normal;word-spacing:normal;text-anchor:start;fill:none;stroke:#000000;stroke-linecap:butt;stroke-linejoin:miter;stroke-miterlimit:10.43299961;stroke-opacity:1;stroke-dasharray:none;stroke-dashoffset:0">
<path
   id="path8293"
   d="m 225.58,705.96 0,-0.03 0,-0.04 -0.01,-0.04 0,-0.05 -0.01,-0.04 -0.01,-0.04 -0.01,-0.04 -0.02,-0.05 -0.01,-0.04 -0.02,-0.05 -0.02,-0.04 -0.03,-0.04 -0.03,-0.05 -0.03,-0.04 -0.03,-0.04 -0.03,-0.04 -0.04,-0.04 -0.05,-0.04 -0.04,-0.04 -0.05,-0.04 -0.05,-0.03 -0.06,-0.03 -0.06,-0.03 -0.06,-0.03 -0.07,-0.03 -0.08,-0.03 -0.07,-0.02 -0.08,-0.02 -0.05,-0.01 -0.04,-0.01 -0.04,0 -0.05,-0.01 -0.04,-0.01 -0.05,0 -0.05,-0.01 -0.05,0 c -0.05,-0.01 -0.09,-0.05 -0.09,-0.11 0,-0.11 0.11,-0.11 0.2,-0.11 0.96,0 1.89,0.49 1.9,1.24 v 2.27 c 0,0.39 0,0.7 0.4,1.03 0.34,0.29 0.72,0.31 0.94,0.32 0.05,0.01 0.09,0.05 0.09,0.11 0,0.1 -0.06,0.1 -0.16,0.11 -0.66,0.04 -1.13,0.39 -1.24,0.88 -0.03,0.11 -0.03,0.13 -0.03,0.49 v 1.96 c 0,0.42 0,0.74 -0.48,1.12 -0.4,0.31 -1.08,0.41 -1.42,0.41 -0.09,0 -0.2,0 -0.2,-0.11 0,-0.1 0.06,-0.1 0.16,-0.11 0.62,-0.04 1.11,-0.36 1.24,-0.87 0.03,-0.09 0.03,-0.11 0.03,-0.46 v -2.09 c 0,-0.46 0.08,-0.63 0.4,-0.94 0.21,-0.21 0.5,-0.31 0.78,-0.39 -0.82,-0.23 -1.18,-0.69 -1.18,-1.26 z"
   inkscape:connector-curvature="0"
   style="fill:#000000;stroke-width:0" />
</g>    <g
       style="font-style:normal;font-variant:normal;font-weight:normal;font-stretch:normal;letter-spacing:normal;word-spacing:normal;text-anchor:start;fill:none;stroke:#000000;stroke-linecap:butt;stroke-linejoin:miter;stroke-miterlimit:10.43299961;stroke-opacity:1;stroke-dasharray:none;stroke-dashoffset:0"
       id="g8407"
       transform="matrix(11.659173,0,0,-11.659173,-2132.0467,8778.364)"
       xml:space="preserve"
       stroke-miterlimit="10.433"
       font-style="normal"
       font-variant="normal"
       font-weight="normal"
       font-stretch="normal"
       font-size-adjust="none"
       letter-spacing="normal"
       word-spacing="normal"
       ns0:text="$dz$\n"
       ns0:preamble="">
<path
   style="fill:#000000;stroke-width:0"
   inkscape:connector-curvature="0"
   d="m 228.57,713.91 0,0 0,0 0,0 0,0 0,0.01 0,0 0,0 -0.01,0.01 0,0 0,0.01 0,0 0,0 0,0.01 0,0 0,0.01 -0.01,0 0,0.01 0,0 -0.01,0.01 0,0 -0.01,0.01 0,0 0,0 0,0 -0.01,0.01 0,0 0,0 -0.01,0 0,0 0,0.01 -0.01,0 0,0 0,0 -0.01,0 0,0 -0.01,0 0,0 -0.01,0.01 0,0 -0.01,0 0,0 -0.01,0 0,0 -0.01,0 0,0 c -0.15,0 -1.1,-0.09 -1.27,-0.11 -0.08,-0.01 -0.14,-0.06 -0.14,-0.19 0,-0.12 0.09,-0.12 0.24,-0.12 0.48,0 0.5,-0.07 0.5,-0.17 l -0.03,-0.2 -0.6,-2.35 c -0.18,0.37 -0.46,0.64 -0.91,0.64 -1.17,0 -2.4,-1.47 -2.4,-2.92 0,-0.93 0.55,-1.58 1.32,-1.58 l 0.02,0.21 c -0.49,0 -0.63,0.55 -0.63,0.94 0,0.49 0.31,1.72 0.54,2.17 0.31,0.59 0.76,0.96 1.16,0.96 0.64,0 0.78,-0.82 0.78,-0.88 0,-0.06 -0.02,-0.12 -0.03,-0.17 l -0.49,-1.94 c -0.05,-0.18 -0.05,-0.2 -0.2,-0.37 -0.44,-0.55 -0.85,-0.71 -1.13,-0.71 l -0.02,-0.21 c 0.2,0 0.7,0.03 1.3,0.74 0.08,-0.42 0.42,-0.74 0.9,-0.74 0.35,0 0.58,0.22 0.74,0.54 0.17,0.36 0.3,0.97 0.3,0.99 0,0.1 -0.09,0.1 -0.12,0.1 -0.1,0 -0.11,-0.05 -0.14,-0.18 -0.17,-0.65 -0.35,-1.24 -0.76,-1.24 -0.27,0 -0.3,0.26 -0.3,0.46 0,0.24 0.02,0.31 0.06,0.48 z"
   id="path8409" />
<path
   style="fill:#000000;stroke-width:0"
   inkscape:connector-curvature="0"
   d="m 229.94,707.95 0.05,0.05 0.05,0.05 0.05,0.05 0.04,0.05 0.05,0.05 0.04,0.04 0.04,0.04 0.04,0.05 0.04,0.04 0.04,0.04 0.04,0.03 0.04,0.04 0.03,0.04 0.04,0.03 0.07,0.07 0.07,0.06 0.06,0.06 0.07,0.06 0.06,0.06 0.13,0.11 0.07,0.05 0.07,0.06 c 0,0.01 0.61,0.54 0.97,0.9 0.94,0.92 1.16,1.4 1.16,1.44 0,0.1 -0.09,0.1 -0.11,0.1 -0.06,0 -0.1,-0.02 -0.14,-0.11 -0.3,-0.48 -0.51,-0.64 -0.75,-0.64 -0.24,0 -0.36,0.15 -0.51,0.32 -0.19,0.23 -0.36,0.43 -0.68,0.43 -0.75,0 -1.21,-0.93 -1.21,-1.14 0,-0.05 0.03,-0.11 0.12,-0.11 0.09,0 0.11,0.05 0.13,0.11 0.19,0.46 0.77,0.47 0.85,0.47 0.2,0 0.39,-0.07 0.62,-0.15 0.4,-0.15 0.51,-0.15 0.77,-0.15 -0.36,-0.42 -1.2,-1.14 -1.39,-1.3 l -0.89,-0.83 c -0.68,-0.67 -1.03,-1.24 -1.03,-1.31 0,-0.09 0.11,-0.09 0.12,-0.09 0.08,0 0.1,0.02 0.16,0.13 0.23,0.34 0.53,0.61 0.85,0.61 0.23,0 0.33,-0.09 0.58,-0.38 0.17,-0.21 0.35,-0.36 0.63,-0.36 0.99,0 1.57,1.26 1.57,1.53 0,0.04 -0.04,0.1 -0.12,0.1 -0.09,0 -0.11,-0.06 -0.14,-0.13 -0.23,-0.65 -0.87,-0.84 -1.2,-0.84 -0.2,0 -0.37,0.06 -0.58,0.13 -0.34,0.13 -0.49,0.17 -0.7,0.17 -0.02,0 -0.18,0 -0.27,-0.03 z"
   id="path8411" />
</g>    <g
       ns0:preamble=""
       ns0:text="$\\}$ $dy$\n"
       word-spacing="normal"
       letter-spacing="normal"
       font-size-adjust="none"
       font-stretch="normal"
       font-weight="normal"
       font-variant="normal"
       font-style="normal"
       stroke-miterlimit="10.433"
       xml:space="preserve"
       transform="matrix(12.614696,0,0,-12.614696,-3264.9341,9878.9649)"
       id="g8531"
       style="font-style:normal;font-variant:normal;font-weight:normal;font-stretch:normal;letter-spacing:normal;word-spacing:normal;text-anchor:start;fill:none;stroke:#000000;stroke-linecap:butt;stroke-linejoin:miter;stroke-miterlimit:10.43299961;stroke-opacity:1;stroke-dasharray:none;stroke-dashoffset:0">
<path
   id="path8533"
   d="m 218.51719,723.15716 -0.0884,0 -0.11794,0 -0.11793,0.009 -0.14742,0 -0.11793,0.009 -0.11794,0.009 -0.11793,0.009 -0.14742,0.0177 -0.11793,0.009 -0.14741,0.0177 -0.11794,0.0177 -0.11793,0.0265 -0.14743,0.0265 -0.11793,0.0265 -0.11793,0.0265 -0.11793,0.0265 -0.11794,0.0354 -0.11793,0.0442 -0.11794,0.0354 -0.11793,0.0442 -0.0884,0.0442 -0.0885,0.0531 -0.0884,0.0531 -0.0885,0.0531 -0.0884,0.0619 -0.0884,0.0708 -0.059,0.0619 -0.059,0.0708 -0.0295,0.0442 -0.0295,0.0354 0,0.0354 -0.0295,0.0442 -0.0295,0.0354 0,0.0442 -0.0295,0.0442 0,0.0442 c -0.0295,0.0442 -0.14741,0.0796 -0.32431,0.0796 -0.32432,0 -0.32432,-0.0973 -0.32432,-0.1769 0,-0.84912 1.44469,-1.6717 3.65595,-1.68055 l 6.69275,0 c 1.14986,0 2.06384,0 3.0368,-0.35379 0.85502,-0.30074 0.91399,-0.63685 0.94347,-0.83144 0.0295,-0.0442 0.14741,-0.0796 0.32431,-0.0796 0.29484,0 0.29484,0.0531 0.32432,0.14152 0.11793,0.58377 1.14986,0.99948 2.59455,1.09678 0.32431,0.0265 0.38328,0.0265 1.44468,0.0265 l 5.77877,0 c 1.2383,0 2.18177,0 3.30215,0.42456 0.91399,0.3538 1.20881,0.95526 1.20881,1.25599 0,0.0796 0,0.1769 -0.32431,0.1769 -0.29484,0 -0.29484,-0.0531 -0.32432,-0.14152 -0.11793,-0.54839 -1.0614,-0.9818 -2.56506,-1.09678 -0.26535,-0.0265 -0.32431,-0.0265 -1.35624,-0.0265 l -6.16205,0 c -1.35624,0 -1.85746,-0.0708 -2.77144,-0.35379 -0.61915,-0.18575 -0.91399,-0.44225 -1.14986,-0.68991 -0.67812,0.72529 -2.03435,1.0437 -3.71491,1.0437 z"
   inkscape:connector-curvature="0"
   style="fill:#000000;stroke-width:0" />
<path
   id="path8535"
   d="m 229.0947,718.26637 0,0 0,0 0,0 0,0 0,0.008 0,0 0,0 0,0.008 0,0 0,0.008 -0.008,0 0,0 0,0.008 0,0 0,0.008 -0.008,0 0,0.008 0,0 0,0.008 -0.008,0 0,0.008 -0.008,0 0,0 0,0 0,0.008 -0.008,0 0,0 0,0 -0.008,0 0,0.008 0,0 -0.008,0 0,0 -0.008,0 0,0 0,0 -0.008,0 0,0.008 -0.008,0 0,0 -0.008,0 0,0 -0.008,0 -0.008,0 0,0 c -0.12468,0 -0.91429,-0.0748 -1.04728,-0.0914 -0.0665,-0.008 -0.11636,-0.0499 -0.11636,-0.15792 0,-0.0997 0.0748,-0.0997 0.19117,-0.0997 0.39896,0 0.41558,-0.0582 0.41558,-0.1413 l -0.0249,-0.16624 -0.4904,-1.95325 c -0.14961,0.30753 -0.39065,0.53195 -0.76467,0.53195 -0.96417,0 -1.99482,-1.22183 -1.99482,-2.42703 0,-0.77299 0.45715,-1.31325 1.10546,-1.31325 l 0.0166,0.17455 c -0.41558,0 -0.53195,0.45714 -0.53195,0.7813 0,0.40727 0.26598,1.42962 0.45715,1.80364 0.24935,0.4904 0.62338,0.79793 0.95585,0.79793 0.54026,0 0.65662,-0.68156 0.65662,-0.73143 0,-0.0499 -0.0166,-0.0997 -0.0249,-0.1413 l -0.41559,-1.61248 c -0.0416,-0.14961 -0.0416,-0.16623 -0.16623,-0.30753 -0.36572,-0.45715 -0.7065,-0.59013 -0.93092,-0.59013 l -0.0166,-0.17455 c 0.15792,0 0.57351,0.0249 1.07221,0.61507 0.0665,-0.3491 0.35741,-0.61507 0.74806,-0.61507 0.29091,0 0.48208,0.18286 0.61507,0.44883 0.1413,0.29922 0.24935,0.80624 0.24935,0.82286 0,0.0831 -0.0748,0.0831 -0.0997,0.0831 -0.0831,0 -0.0914,-0.0416 -0.11637,-0.14961 -0.1413,-0.54026 -0.29091,-1.03065 -0.63169,-1.03065 -0.22441,0 -0.24104,0.2161 -0.24104,0.38233 0,0.19949 0.0166,0.25767 0.0416,0.39897 z"
   inkscape:connector-curvature="0"
   style="fill:#000000;stroke-width:0" />
<path
   id="path8537"
   d="m 233.15914,715.77285 0,0.008 0,0 0,0.008 0,0 0.008,0.0166 0,0.008 0,0.008 0,0.008 0.008,0.008 0,0 0,0.008 0,0.008 0,0.008 0.008,0.008 0,0 0,0.008 0,0 0,0.008 0,0.008 0,0 0,0.008 0,0 0,0.008 0,0.008 0,0.008 0,0.008 0,0.008 0,0.008 0,0 0,0.008 c 0,0.14961 -0.11636,0.22442 -0.23273,0.22442 -0.0831,0 -0.2161,-0.0499 -0.29091,-0.17455 -0.0166,-0.0416 -0.0831,-0.29922 -0.11636,-0.44883 -0.0582,-0.21611 -0.11637,-0.43221 -0.16624,-0.65663 l -0.37402,-1.4878 c -0.0333,-0.12467 -0.39066,-0.70649 -0.93092,-0.70649 -0.4239,0 -0.51533,0.36571 -0.51533,0.67325 0,0.38234 0.1413,0.88935 0.4239,1.62078 0.13299,0.33247 0.16624,0.4239 0.16624,0.59014 0,0.37402 -0.26598,0.68156 -0.68156,0.68156 -0.78131,0 -1.08884,-1.19689 -1.08884,-1.2717 0,-0.0831 0.0831,-0.0831 0.0997,-0.0831 0.0831,0 0.0914,0.0166 0.13299,0.14961 0.22441,0.77299 0.54857,1.02234 0.83117,1.02234 0.0665,0 0.20779,0 0.20779,-0.26598 0,-0.20779 -0.0831,-0.42389 -0.1413,-0.58182 -0.33247,-0.87273 -0.48208,-1.3465 -0.48208,-1.72884 0,-0.73974 0.52364,-0.98078 1.01403,-0.98078 0.32416,0 0.59845,0.13299 0.83118,0.36572 -0.10805,-0.4239 -0.2078,-0.83118 -0.53195,-1.2717 -0.21611,-0.2826 -0.53195,-0.51533 -0.91429,-0.51533 -0.11637,0 -0.4904,0.0249 -0.63169,0.34078 0.14129,0 0.24104,0 0.3574,0.0997 0.0831,0.0748 0.16623,0.18286 0.16623,0.34079 0,0.25766 -0.22441,0.29091 -0.30753,0.29091 -0.19117,0 -0.45714,-0.13299 -0.45714,-0.54027 0,-0.40727 0.3574,-0.7148 0.87273,-0.7148 0.8561,0 1.7039,0.74805 1.93663,1.67896 z"
   inkscape:connector-curvature="0"
   style="fill:#000000;stroke-width:0" />
</g>    <g
       style="font-style:normal;font-variant:normal;font-weight:normal;font-stretch:normal;letter-spacing:normal;word-spacing:normal;text-anchor:start;fill:none;stroke:#000000;stroke-linecap:butt;stroke-linejoin:miter;stroke-miterlimit:10.43299961;stroke-opacity:1;stroke-dasharray:none;stroke-dashoffset:0"
       ns0:preamble=""
       ns0:text="$I_x=\\left[M_z(y+dy)-M_z(y)\\right]dz=\\frac{\\partial M_z}{\\partial y}dydz$\n\n"
       text-anchor="start"
       word-spacing="normal"
       letter-spacing="normal"
       font-size-adjust="none"
       font-stretch="normal"
       font-weight="normal"
       font-variant="normal"
       font-style="normal"
       fill-opacity="1"
       fill-rule="evenodd"
       fill="none"
       stroke-opacity="1"
       stroke-dashoffset="0"
       stroke-dasharray="none"
       stroke-miterlimit="10.433"
       stroke-linejoin="miter"
       stroke-linecap="butt"
       stroke="black"
       xml:space="preserve"
       transform="matrix(10.850083,0,0,-10.850083,-3719.329,8704.5047)"
       id="g6366">
<path
   id="path6368"
   fill="black"
   stroke-width="0"
   d="M227.15,713.15 L227.16,713.18 L227.17,713.21 L227.18,713.24 L227.19,713.27 L227.19,713.29 L227.2,713.32 L227.21,713.34 L227.22,713.37 L227.23,713.39 L227.24,713.41 L227.26,713.43 L227.27,713.45 L227.29,713.46 L227.3,713.48 L227.32,713.49 L227.34,713.51 L227.37,713.52 L227.39,713.53 L227.42,713.54 L227.45,713.55 L227.48,713.56 L227.5,713.56 L227.52,713.57 L227.54,713.57 L227.56,713.57 L227.58,713.58 L227.6,713.58 L227.62,713.58 L227.64,713.59 L227.67,713.59 L227.69,713.59 L227.72,713.59 L227.74,713.59 L227.77,713.6 L227.8,713.6 L227.83,713.6 L227.86,713.6 L227.89,713.6 L227.92,713.6 L227.95,713.6 L227.99,713.6 L228.02,713.6 L228.06,713.6 C228.3,713.6,228.38,713.6,228.38,713.79 C228.38,713.91,228.27,713.91,228.23,713.91 C227.94,713.91,227.2,713.88,226.91,713.88 C226.62,713.88,225.89,713.91,225.59,713.91 C225.52,713.91,225.39,713.91,225.39,713.71 C225.39,713.6,225.48,713.6,225.67,713.6 C226.09,713.6,226.36,713.6,226.36,713.41 C226.36,713.36,226.36,713.34,226.34,713.25 L224.99,707.9 C224.9,707.53,224.88,707.43,224.09,707.43 C223.86,707.43,223.77,707.43,223.77,707.23 C223.77,707.13,223.89,707.13,223.92,707.13 C224.21,707.13,224.93,707.16,225.22,707.16 C225.52,707.16,226.26,707.13,226.56,707.13 C226.64,707.13,226.76,707.13,226.76,707.31 C226.76,707.43,226.68,707.43,226.46,707.43 C226.28,707.43,226.23,707.43,226.03,707.45 C225.82,707.47,225.78,707.51,225.78,707.62 C225.78,707.7,225.8,707.78,225.82,707.85 Z " />
<path
   id="path6370"
   fill="black"
   stroke-width="0"
   d="M229.55,706.37 L229.54,706.35 L229.53,706.32 L229.52,706.3 L229.51,706.27 L229.5,706.25 L229.49,706.22 L229.48,706.2 L229.46,706.17 L229.45,706.15 L229.44,706.12 L229.42,706.1 L229.4,706.07 L229.38,706.05 L229.37,706.02 L229.35,706 L229.33,705.97 L229.31,705.95 L229.28,705.93 L229.26,705.91 L229.24,705.89 L229.21,705.87 L229.19,705.85 L229.16,705.83 L229.13,705.82 L229.11,705.8 L229.08,705.79 L229.05,705.78 L229.02,705.77 L228.99,705.77 L228.96,705.76 L228.92,705.76 L228.89,705.76 C228.87,705.76,228.66,705.76,228.51,705.85 C228.8,705.94,228.82,706.19,228.82,706.24 C228.82,706.39,228.7,706.49,228.54,706.49 C228.35,706.49,228.15,706.33,228.15,706.07 C228.15,705.72,228.54,705.56,228.88,705.56 C229.2,705.56,229.48,705.76,229.66,706.05 C229.82,705.69,230.21,705.56,230.49,705.56 C231.29,705.56,231.71,706.43,231.71,706.63 C231.71,706.72,231.62,706.72,231.6,706.72 C231.5,706.72,231.5,706.68,231.47,706.6 C231.32,706.12,230.9,705.76,230.51,705.76 C230.24,705.76,230.09,705.94,230.09,706.21 C230.09,706.39,230.26,707.02,230.45,707.79 C230.59,708.33,230.9,708.5,231.13,708.5 C231.15,708.5,231.36,708.5,231.51,708.41 C231.29,708.34,231.2,708.15,231.2,708.02 C231.2,707.87,231.32,707.77,231.48,707.77 C231.64,707.77,231.87,707.9,231.87,708.19 C231.87,708.58,231.43,708.7,231.15,708.7 C230.8,708.7,230.52,708.47,230.37,708.2 C230.24,708.49,229.92,708.7,229.53,708.7 C228.75,708.7,228.31,707.84,228.31,707.63 C228.31,707.54,228.4,707.54,228.43,707.54 C228.51,707.54,228.52,707.57,228.56,707.66 C228.73,708.2,229.17,708.5,229.51,708.5 C229.74,708.5,229.93,708.38,229.93,708.04 C229.93,707.91,229.85,707.56,229.78,707.32 Z " />
<path
   id="path6372"
   fill="black"
   stroke-width="0"
   d="M242.43,710.37 L242.46,710.37 L242.49,710.37 L242.52,710.37 L242.53,710.38 L242.55,710.38 L242.56,710.38 L242.57,710.38 L242.59,710.38 L242.6,710.38 L242.62,710.39 L242.63,710.39 L242.64,710.39 L242.65,710.4 L242.67,710.4 L242.68,710.41 L242.69,710.41 L242.7,710.42 L242.71,710.43 L242.72,710.44 L242.73,710.45 L242.74,710.46 L242.74,710.46 L242.74,710.47 L242.75,710.47 L242.75,710.48 L242.75,710.49 L242.76,710.49 L242.76,710.5 L242.76,710.51 L242.76,710.51 L242.76,710.52 L242.76,710.53 L242.77,710.54 L242.77,710.55 L242.77,710.55 L242.77,710.56 L242.77,710.57 C242.77,710.77,242.58,710.77,242.44,710.77 H236.48 C236.34,710.77,236.15,710.77,236.15,710.57 C236.15,710.37,236.34,710.37,236.49,710.37 Z " />
<path
   id="path6374"
   fill="black"
   stroke-width="0"
   d="M242.44,708.45 L242.45,708.45 L242.47,708.45 L242.49,708.45 L242.52,708.45 L242.54,708.45 L242.55,708.45 L242.56,708.45 L242.58,708.45 L242.59,708.45 L242.6,708.46 L242.62,708.46 L242.63,708.46 L242.64,708.47 L242.66,708.47 L242.67,708.48 L242.68,708.48 L242.69,708.49 L242.7,708.49 L242.71,708.5 L242.72,708.51 L242.73,708.52 L242.73,708.52 L242.74,708.53 L242.74,708.54 L242.74,708.54 L242.75,708.55 L242.75,708.55 L242.75,708.56 L242.76,708.57 L242.76,708.57 L242.76,708.58 L242.76,708.59 L242.76,708.59 L242.76,708.6 L242.77,708.61 L242.77,708.62 L242.77,708.63 L242.77,708.64 L242.77,708.65 C242.77,708.84,242.58,708.84,242.43,708.84 H236.49 C236.34,708.84,236.15,708.84,236.15,708.65 C236.15,708.45,236.34,708.45,236.48,708.45 Z " />
<polygon
   id="polygon6376"
   fill="black"
   stroke-width="0"
   points="248.65,704.64 248.65,705.04 247.68,705.04 247.68,714.18 248.65,714.18 248.65,714.58 247.29,714.58 247.29,704.64 " />
<path
   id="path6378"
   fill="black"
   stroke-width="0"
   d="M258.09,713.15 L258.1,713.18 L258.11,713.21 L258.11,713.24 L258.12,713.27 L258.13,713.29 L258.14,713.32 L258.15,713.34 L258.16,713.37 L258.17,713.39 L258.18,713.41 L258.19,713.43 L258.2,713.45 L258.22,713.46 L258.23,713.48 L258.25,713.49 L258.27,713.51 L258.29,713.52 L258.32,713.53 L258.34,713.54 L258.37,713.55 L258.4,713.56 L258.42,713.56 L258.44,713.57 L258.45,713.57 L258.47,713.57 L258.49,713.58 L258.51,713.58 L258.53,713.58 L258.55,713.59 L258.58,713.59 L258.6,713.59 L258.62,713.59 L258.65,713.59 L258.67,713.6 L258.7,713.6 L258.73,713.6 L258.76,713.6 L258.78,713.6 L258.82,713.6 L258.85,713.6 L258.88,713.6 L258.91,713.6 L258.95,713.6 C259.17,713.6,259.27,713.6,259.27,713.8 C259.27,713.91,259.17,713.91,259,713.91 H257.68 C257.42,713.91,257.41,713.91,257.3,713.72 L253.66,708.06 L252.89,713.68 C252.86,713.91,252.84,713.91,252.58,713.91 H251.22 C251.03,713.91,250.92,713.91,250.92,713.72 C250.92,713.6,251.01,713.6,251.21,713.6 C251.34,713.6,251.51,713.59,251.63,713.58 C251.79,713.56,251.85,713.53,251.85,713.42 C251.85,713.38,251.84,713.35,251.81,713.23 L250.55,708.18 C250.45,707.78,250.28,707.46,249.48,707.43 C249.43,707.43,249.3,707.42,249.3,707.24 C249.3,707.16,249.36,707.13,249.43,707.13 C249.75,707.13,250.1,707.16,250.43,707.16 C250.77,707.16,251.13,707.13,251.46,707.13 C251.51,707.13,251.63,707.13,251.63,707.32 C251.63,707.43,251.52,707.43,251.46,707.43 C250.89,707.44,250.78,707.64,250.78,707.87 C250.78,707.94,250.79,707.99,250.82,708.1 L252.17,713.51 H252.18 L253.04,707.35 C253.06,707.23,253.07,707.13,253.19,707.13 C253.3,707.13,253.35,707.23,253.4,707.3 L257.42,713.59 H257.43 L256.01,707.9 C255.91,707.51,255.89,707.43,255.11,707.43 C254.94,707.43,254.83,707.43,254.83,707.24 C254.83,707.13,254.95,707.13,254.98,707.13 C255.26,707.13,255.93,707.16,256.21,707.16 C256.62,707.16,257.05,707.13,257.45,707.13 C257.51,707.13,257.64,707.13,257.64,707.32 C257.64,707.43,257.55,707.43,257.36,707.43 C257,707.43,256.72,707.43,256.72,707.61 C256.72,707.65,256.72,707.67,256.77,707.85 Z " />
<path
   id="path6380"
   fill="black"
   stroke-width="0"
   d="M259.71,706.24 L259.75,706.28 L259.78,706.31 L259.81,706.34 L259.85,706.38 L259.88,706.41 L259.9,706.43 L259.92,706.45 L259.94,706.47 L259.96,706.49 L259.98,706.51 L260.01,706.53 L260.03,706.55 L260.06,706.57 L260.09,706.6 L260.11,706.62 L260.15,706.65 L260.18,706.67 L260.21,706.7 L260.25,706.73 L260.28,706.76 L260.32,706.8 L260.37,706.83 L260.41,706.87 L260.46,706.9 L260.51,706.94 L260.56,706.99 L260.61,707.03 C260.76,707.15,261.28,707.56,261.48,707.76 C261.91,708.18,262.17,708.53,262.17,708.61 C262.17,708.7,262.08,708.7,262.05,708.7 C261.99,708.7,261.97,708.68,261.93,708.63 C261.72,708.31,261.57,708.2,261.4,708.2 C261.32,708.2,261.22,708.21,261.01,708.41 C260.77,708.65,260.62,708.7,260.46,708.7 C259.9,708.7,259.52,708.09,259.52,707.88 C259.52,707.82,259.6,707.8,259.64,707.8 C259.73,707.8,259.74,707.82,259.77,707.9 C259.87,708.14,260.26,708.16,260.38,708.16 C260.54,708.16,260.72,708.11,260.81,708.09 C261.2,708.01,261.24,708.01,261.42,708.01 C261.24,707.82,261.11,707.7,260.45,707.17 C259.91,706.74,259.72,706.56,259.59,706.42 C259.17,706.01,258.97,705.71,258.97,705.65 C258.97,705.56,259.06,705.56,259.09,705.56 C259.16,705.56,259.17,705.58,259.2,705.63 C259.39,705.9,259.61,706.05,259.85,706.05 C259.93,706.05,260.03,706.05,260.22,705.87 C260.44,705.67,260.58,705.56,260.8,705.56 C261.55,705.56,262.01,706.4,262.01,706.64 C262.01,706.72,261.93,706.73,261.89,706.73 C261.81,706.73,261.8,706.7,261.77,706.62 C261.64,706.27,261.22,706.1,260.88,706.1 C260.72,706.1,260.55,706.14,260.38,706.18 C260.05,706.25,260,706.25,259.87,706.25 C259.86,706.25,259.76,706.25,259.71,706.24 Z " />
<path
   id="path6382"
   fill="black"
   stroke-width="0"
   d="M266.43,704.74 L266.43,704.75 L266.43,704.75 L266.43,704.75 L266.43,704.76 L266.43,704.76 L266.42,704.76 L266.42,704.77 L266.42,704.77 L266.42,704.77 L266.42,704.78 L266.42,704.78 L266.41,704.79 L266.41,704.79 L266.41,704.8 L266.4,704.8 L266.4,704.81 L266.39,704.82 L266.39,704.82 L266.38,704.83 L266.38,704.83 L266.38,704.84 L266.37,704.84 L266.37,704.84 L266.36,704.85 L266.36,704.85 L266.36,704.86 L266.35,704.86 L266.35,704.87 L266.34,704.87 L266.34,704.88 L266.33,704.88 L266.33,704.89 L266.32,704.9 L266.31,704.9 L266.31,704.91 L266.3,704.92 L266.29,704.92 L266.29,704.93 L266.28,704.94 L266.27,704.94 L266.27,704.95 L266.26,704.96 C265.01,706.21,264.7,708.09,264.7,709.61 C264.7,711.34,265.07,713.07,266.3,714.31 C266.43,714.43,266.43,714.45,266.43,714.48 C266.43,714.55,266.39,714.58,266.33,714.58 C266.23,714.58,265.33,713.9,264.75,712.64 C264.24,711.55,264.12,710.44,264.12,709.61 C264.12,708.83,264.23,707.63,264.78,706.51 C265.37,705.29,266.23,704.64,266.33,704.64 C266.39,704.64,266.43,704.67,266.43,704.74 Z " />
<path
   id="path6384"
   fill="black"
   stroke-width="0"
   d="M271.84,710.91 L271.84,710.92 L271.85,710.92 L271.85,710.93 L271.85,710.93 L271.85,710.95 L271.86,710.96 L271.86,710.97 L271.86,710.98 L271.86,710.99 L271.87,710.99 L271.87,711 L271.87,711.01 L271.87,711.02 L271.87,711.03 L271.87,711.03 L271.88,711.04 L271.88,711.04 L271.88,711.05 L271.88,711.06 L271.88,711.06 L271.88,711.07 L271.88,711.07 L271.88,711.08 L271.88,711.09 L271.88,711.1 L271.88,711.11 L271.88,711.12 L271.88,711.13 L271.88,711.13 L271.88,711.14 C271.88,711.32,271.74,711.41,271.6,711.41 C271.49,711.41,271.34,711.35,271.25,711.2 C271.23,711.15,271.15,710.84,271.11,710.66 C271.04,710.4,270.97,710.14,270.91,709.87 L270.46,708.08 C270.42,707.93,269.99,707.23,269.34,707.23 C268.83,707.23,268.72,707.67,268.72,708.04 C268.72,708.5,268.89,709.11,269.23,709.99 C269.39,710.39,269.43,710.5,269.43,710.7 C269.43,711.15,269.11,711.52,268.61,711.52 C267.67,711.52,267.3,710.08,267.3,709.99 C267.3,709.89,267.4,709.89,267.42,709.89 C267.52,709.89,267.52,709.91,267.58,710.07 C267.84,711,268.24,711.3,268.58,711.3 C268.66,711.3,268.83,711.3,268.83,710.98 C268.83,710.73,268.73,710.47,268.66,710.28 C268.26,709.23,268.08,708.66,268.08,708.2 C268.08,707.31,268.71,707.02,269.3,707.02 C269.68,707.02,270.02,707.18,270.3,707.46 C270.17,706.95,270.05,706.46,269.65,705.93 C269.4,705.59,269.02,705.31,268.56,705.31 C268.42,705.31,267.97,705.34,267.8,705.72 C267.96,705.72,268.09,705.72,268.23,705.84 C268.33,705.93,268.43,706.06,268.43,706.25 C268.43,706.56,268.16,706.6,268.06,706.6 C267.83,706.6,267.51,706.44,267.51,705.95 C267.51,705.46,267.94,705.09,268.56,705.09 C269.58,705.09,270.61,705.99,270.89,707.11 Z " />
<path
   id="path6386"
   fill="black"
   stroke-width="0"
   d="M278.53,709.41 H281.31 C281.45,709.41,281.64,709.41,281.64,709.61 C281.64,709.81,281.45,709.81,281.31,709.81 H278.53 V712.59 C278.53,712.73,278.53,712.92,278.33,712.92 C278.14,712.92,278.14,712.73,278.14,712.59 V709.81 H275.35 C275.21,709.81,275.02,709.81,275.02,709.61 C275.02,709.41,275.21,709.41,275.35,709.41 H278.14 V706.63 C278.14,706.49,278.14,706.3,278.33,706.3 C278.53,706.3,278.53,706.49,278.53,706.63 Z " />
<path
   id="path6388"
   fill="black"
   stroke-width="0"
   d="M289.56,713.91 L289.56,713.91 L289.56,713.91 L289.56,713.91 L289.56,713.91 L289.56,713.92 L289.56,713.92 L289.56,713.92 L289.56,713.93 L289.56,713.93 L289.56,713.94 L289.56,713.94 L289.56,713.94 L289.55,713.95 L289.55,713.95 L289.55,713.96 L289.55,713.96 L289.54,713.97 L289.54,713.97 L289.54,713.98 L289.53,713.98 L289.53,713.99 L289.53,713.99 L289.52,713.99 L289.52,713.99 L289.52,714 L289.52,714 L289.51,714 L289.51,714 L289.51,714 L289.5,714.01 L289.5,714.01 L289.5,714.01 L289.49,714.01 L289.49,714.01 L289.48,714.01 L289.48,714.01 L289.47,714.01 L289.47,714.02 L289.46,714.02 L289.46,714.02 L289.45,714.02 L289.45,714.02 L289.44,714.02 L289.44,714.02 L289.43,714.02 C289.28,714.02,288.34,713.93,288.17,713.91 C288.09,713.9,288.03,713.85,288.03,713.72 C288.03,713.6,288.12,713.6,288.27,713.6 C288.74,713.6,288.77,713.53,288.77,713.43 L288.73,713.23 L288.14,710.88 C287.96,711.25,287.67,711.52,287.22,711.52 C286.06,711.52,284.83,710.05,284.83,708.6 C284.83,707.67,285.37,707.02,286.15,707.02 L286.17,707.23 C285.67,707.23,285.53,707.78,285.53,708.17 C285.53,708.66,285.85,709.89,286.08,710.34 C286.39,710.93,286.83,711.3,287.23,711.3 C287.88,711.3,288.02,710.48,288.02,710.42 C288.02,710.36,288,710.3,287.99,710.25 L287.49,708.31 C287.44,708.13,287.44,708.11,287.29,707.94 C286.86,707.39,286.45,707.23,286.17,707.23 L286.15,707.02 C286.35,707.02,286.85,707.05,287.44,707.76 C287.52,707.34,287.87,707.02,288.35,707.02 C288.7,707.02,288.92,707.24,289.08,707.56 C289.25,707.92,289.38,708.53,289.38,708.55 C289.38,708.65,289.29,708.65,289.26,708.65 C289.16,708.65,289.15,708.6,289.12,708.47 C288.95,707.82,288.77,707.23,288.37,707.23 C288.1,707.23,288.07,707.49,288.07,707.69 C288.07,707.93,288.09,708,288.13,708.17 Z " />
<path
   id="path6390"
   fill="black"
   stroke-width="0"
   d="M294.45,710.91 L294.45,710.92 L294.45,710.92 L294.45,710.93 L294.46,710.93 L294.46,710.95 L294.46,710.96 L294.46,710.97 L294.47,710.98 L294.47,710.99 L294.47,710.99 L294.47,711 L294.48,711.01 L294.48,711.02 L294.48,711.03 L294.48,711.03 L294.48,711.04 L294.48,711.04 L294.48,711.05 L294.48,711.06 L294.48,711.06 L294.49,711.07 L294.49,711.07 L294.49,711.08 L294.49,711.09 L294.49,711.1 L294.49,711.11 L294.49,711.12 L294.49,711.13 L294.49,711.13 L294.49,711.14 C294.49,711.32,294.35,711.41,294.2,711.41 C294.1,711.41,293.94,711.35,293.85,711.2 C293.83,711.15,293.75,710.84,293.71,710.66 C293.64,710.4,293.57,710.14,293.51,709.87 L293.07,708.08 C293.02,707.93,292.6,707.23,291.94,707.23 C291.43,707.23,291.32,707.67,291.32,708.04 C291.32,708.5,291.49,709.11,291.83,709.99 C291.99,710.39,292.03,710.5,292.03,710.7 C292.03,711.15,291.71,711.52,291.21,711.52 C290.27,711.52,289.9,710.08,289.9,709.99 C289.9,709.89,290,709.89,290.02,709.89 C290.12,709.89,290.13,709.91,290.18,710.07 C290.45,711,290.85,711.3,291.18,711.3 C291.26,711.3,291.43,711.3,291.43,710.98 C291.43,710.73,291.33,710.47,291.26,710.28 C290.87,709.23,290.69,708.66,290.69,708.2 C290.69,707.31,291.31,707.02,291.9,707.02 C292.29,707.02,292.63,707.18,292.91,707.46 C292.78,706.95,292.66,706.46,292.26,705.93 C292,705.59,291.62,705.31,291.17,705.31 C291.02,705.31,290.58,705.34,290.41,705.72 C290.57,705.72,290.7,705.72,290.84,705.84 C290.94,705.93,291.04,706.06,291.04,706.25 C291.04,706.56,290.77,706.6,290.67,706.6 C290.44,706.6,290.11,706.44,290.11,705.95 C290.11,705.46,290.55,705.09,291.17,705.09 C292.19,705.09,293.21,705.99,293.49,707.11 Z " />
<path
   id="path6392"
   fill="black"
   stroke-width="0"
   d="M297.73,709.61 L297.73,709.68 L297.73,709.76 L297.73,709.84 L297.72,709.92 L297.72,710.09 L297.7,710.26 L297.69,710.44 L297.67,710.63 L297.64,710.83 L297.61,711.03 L297.57,711.23 L297.52,711.44 L297.47,711.65 L297.41,711.86 L297.34,712.07 L297.26,712.28 L297.22,712.39 L297.17,712.5 L297.12,712.6 L297.07,712.71 C296.48,713.93,295.62,714.58,295.52,714.58 C295.46,714.58,295.42,714.54,295.42,714.48 C295.42,714.45,295.42,714.43,295.61,714.25 C296.58,713.26,297.15,711.68,297.15,709.61 C297.15,707.91,296.78,706.16,295.55,704.91 C295.42,704.79,295.42,704.77,295.42,704.74 C295.42,704.68,295.46,704.64,295.52,704.64 C295.62,704.64,296.52,705.32,297.1,706.58 C297.61,707.67,297.73,708.77,297.73,709.61 Z " />
<path
   id="path6394"
   fill="black"
   stroke-width="0"
   d="M307.5,709.41 L307.53,709.41 L307.56,709.41 L307.59,709.41 L307.61,709.41 L307.62,709.41 L307.64,709.41 L307.65,709.42 L307.67,709.42 L307.68,709.42 L307.7,709.42 L307.71,709.43 L307.72,709.43 L307.74,709.43 L307.75,709.44 L307.76,709.45 L307.77,709.45 L307.78,709.46 L307.79,709.47 L307.8,709.47 L307.81,709.48 L307.82,709.49 L307.82,709.5 L307.82,709.5 L307.83,709.51 L307.83,709.52 L307.83,709.52 L307.83,709.53 L307.84,709.54 L307.84,709.54 L307.84,709.55 L307.84,709.56 L307.84,709.57 L307.84,709.57 L307.85,709.58 L307.85,709.59 L307.85,709.6 L307.85,709.61 C307.85,709.81,307.67,709.81,307.5,709.81 H302.12 C301.95,709.81,301.77,709.81,301.77,709.61 C301.77,709.41,301.95,709.41,302.12,709.41 Z " />
<path
   id="path6396"
   fill="black"
   stroke-width="0"
   d="M320.12,713.15 L320.13,713.18 L320.13,713.21 L320.14,713.24 L320.15,713.27 L320.16,713.29 L320.17,713.32 L320.18,713.34 L320.18,713.37 L320.19,713.39 L320.21,713.41 L320.22,713.43 L320.23,713.45 L320.25,713.46 L320.26,713.48 L320.28,713.49 L320.3,713.51 L320.32,713.52 L320.34,713.53 L320.37,713.54 L320.4,713.55 L320.43,713.56 L320.45,713.56 L320.46,713.57 L320.48,713.57 L320.5,713.57 L320.52,713.58 L320.54,713.58 L320.56,713.58 L320.58,713.59 L320.6,713.59 L320.63,713.59 L320.65,713.59 L320.67,713.59 L320.7,713.6 L320.73,713.6 L320.75,713.6 L320.78,713.6 L320.81,713.6 L320.84,713.6 L320.87,713.6 L320.91,713.6 L320.94,713.6 L320.97,713.6 C321.2,713.6,321.29,713.6,321.29,713.8 C321.29,713.91,321.19,713.91,321.02,713.91 H319.71 C319.45,713.91,319.44,713.91,319.32,713.72 L315.69,708.06 L314.92,713.68 C314.89,713.91,314.86,713.91,314.61,713.91 H313.24 C313.05,713.91,312.95,713.91,312.95,713.72 C312.95,713.6,313.03,713.6,313.23,713.6 C313.36,713.6,313.54,713.59,313.66,713.58 C313.82,713.56,313.88,713.53,313.88,713.42 C313.88,713.38,313.87,713.35,313.84,713.23 L312.58,708.18 C312.48,707.78,312.31,707.46,311.5,707.43 C311.45,707.43,311.32,707.42,311.32,707.24 C311.32,707.16,311.38,707.13,311.46,707.13 C311.78,707.13,312.13,707.16,312.46,707.16 C312.8,707.16,313.15,707.13,313.48,707.13 C313.53,707.13,313.66,707.13,313.66,707.32 C313.66,707.43,313.55,707.43,313.48,707.43 C312.92,707.44,312.8,707.64,312.8,707.87 C312.8,707.94,312.82,707.99,312.85,708.1 L314.2,713.51 H314.21 L315.06,707.35 C315.08,707.23,315.09,707.13,315.21,707.13 C315.32,707.13,315.38,707.23,315.43,707.3 L319.45,713.59 H319.46 L318.04,707.9 C317.94,707.51,317.92,707.43,317.13,707.43 C316.96,707.43,316.86,707.43,316.86,707.24 C316.86,707.13,316.97,707.13,317,707.13 C317.28,707.13,317.96,707.16,318.24,707.16 C318.65,707.16,319.07,707.13,319.48,707.13 C319.54,707.13,319.67,707.13,319.67,707.32 C319.67,707.43,319.58,707.43,319.39,707.43 C319.02,707.43,318.74,707.43,318.74,707.61 C318.74,707.65,318.74,707.67,318.8,707.85 Z " />
<path
   id="path6398"
   fill="black"
   stroke-width="0"
   d="M321.74,706.24 L321.77,706.28 L321.81,706.31 L321.84,706.34 L321.87,706.38 L321.91,706.41 L321.93,706.43 L321.95,706.45 L321.97,706.47 L321.99,706.49 L322.01,706.51 L322.04,706.53 L322.06,706.55 L322.09,706.57 L322.11,706.6 L322.14,706.62 L322.17,706.65 L322.2,706.67 L322.24,706.7 L322.27,706.73 L322.31,706.76 L322.35,706.8 L322.39,706.83 L322.44,706.87 L322.48,706.9 L322.53,706.94 L322.58,706.99 L322.64,707.03 C322.79,707.15,323.31,707.56,323.51,707.76 C323.93,708.18,324.2,708.53,324.2,708.61 C324.2,708.7,324.11,708.7,324.08,708.7 C324.02,708.7,324,708.68,323.96,708.63 C323.75,708.31,323.6,708.2,323.43,708.2 C323.35,708.2,323.24,708.21,323.04,708.41 C322.8,708.65,322.64,708.7,322.48,708.7 C321.93,708.7,321.55,708.09,321.55,707.88 C321.55,707.82,321.62,707.8,321.67,707.8 C321.75,707.8,321.77,707.82,321.8,707.9 C321.9,708.14,322.29,708.16,322.4,708.16 C322.56,708.16,322.74,708.11,322.84,708.09 C323.22,708.01,323.27,708.01,323.45,708.01 C323.27,707.82,323.14,707.7,322.48,707.17 C321.93,706.74,321.75,706.56,321.61,706.42 C321.2,706.01,320.99,705.71,320.99,705.65 C320.99,705.56,321.08,705.56,321.11,705.56 C321.18,705.56,321.2,705.58,321.23,705.63 C321.42,705.9,321.64,706.05,321.87,706.05 C321.96,706.05,322.06,706.05,322.25,705.87 C322.46,705.67,322.6,705.56,322.83,705.56 C323.57,705.56,324.04,706.4,324.04,706.64 C324.04,706.72,323.96,706.73,323.92,706.73 C323.84,706.73,323.82,706.7,323.8,706.62 C323.66,706.27,323.25,706.1,322.91,706.1 C322.75,706.1,322.58,706.14,322.4,706.18 C322.08,706.25,322.03,706.25,321.9,706.25 C321.89,706.25,321.78,706.25,321.74,706.24 Z " />
<path
   id="path6400"
   fill="black"
   stroke-width="0"
   d="M328.45,704.74 L328.45,704.75 L328.45,704.75 L328.45,704.75 L328.45,704.76 L328.45,704.76 L328.45,704.76 L328.45,704.77 L328.45,704.77 L328.45,704.77 L328.44,704.78 L328.44,704.78 L328.44,704.79 L328.44,704.79 L328.43,704.8 L328.43,704.8 L328.42,704.81 L328.42,704.82 L328.41,704.82 L328.41,704.83 L328.41,704.83 L328.4,704.84 L328.4,704.84 L328.39,704.84 L328.39,704.85 L328.39,704.85 L328.38,704.86 L328.38,704.86 L328.37,704.87 L328.37,704.87 L328.36,704.88 L328.36,704.88 L328.35,704.89 L328.35,704.9 L328.34,704.9 L328.33,704.91 L328.33,704.92 L328.32,704.92 L328.31,704.93 L328.31,704.94 L328.3,704.94 L328.29,704.95 L328.28,704.96 C327.04,706.21,326.72,708.09,326.72,709.61 C326.72,711.34,327.1,713.07,328.32,714.31 C328.45,714.43,328.45,714.45,328.45,714.48 C328.45,714.55,328.41,714.58,328.35,714.58 C328.25,714.58,327.36,713.9,326.77,712.64 C326.26,711.55,326.14,710.44,326.14,709.61 C326.14,708.83,326.25,707.63,326.8,706.51 C327.4,705.29,328.25,704.64,328.35,704.64 C328.41,704.64,328.45,704.67,328.45,704.74 Z " />
<path
   id="path6402"
   fill="black"
   stroke-width="0"
   d="M333.87,710.91 L333.87,710.92 L333.87,710.92 L333.88,710.93 L333.88,710.93 L333.88,710.95 L333.88,710.96 L333.89,710.97 L333.89,710.98 L333.89,710.99 L333.89,710.99 L333.9,711 L333.9,711.01 L333.9,711.02 L333.9,711.03 L333.9,711.03 L333.9,711.04 L333.9,711.04 L333.91,711.05 L333.91,711.06 L333.91,711.06 L333.91,711.07 L333.91,711.07 L333.91,711.08 L333.91,711.09 L333.91,711.1 L333.91,711.11 L333.91,711.12 L333.91,711.13 L333.91,711.13 L333.91,711.14 C333.91,711.32,333.77,711.41,333.62,711.41 C333.52,711.41,333.36,711.35,333.27,711.2 C333.25,711.15,333.17,710.84,333.13,710.66 C333.06,710.4,332.99,710.14,332.93,709.87 L332.49,708.08 C332.45,707.93,332.02,707.23,331.36,707.23 C330.86,707.23,330.75,707.67,330.75,708.04 C330.75,708.5,330.92,709.11,331.25,709.99 C331.41,710.39,331.45,710.5,331.45,710.7 C331.45,711.15,331.13,711.52,330.64,711.52 C329.69,711.52,329.32,710.08,329.32,709.99 C329.32,709.89,329.42,709.89,329.44,709.89 C329.54,709.89,329.55,709.91,329.6,710.07 C329.87,711,330.27,711.3,330.61,711.3 C330.69,711.3,330.86,711.3,330.86,710.98 C330.86,710.73,330.76,710.47,330.69,710.28 C330.29,709.23,330.11,708.66,330.11,708.2 C330.11,707.31,330.74,707.02,331.32,707.02 C331.71,707.02,332.05,707.18,332.33,707.46 C332.2,706.95,332.08,706.46,331.68,705.93 C331.42,705.59,331.05,705.31,330.59,705.31 C330.45,705.31,330,705.34,329.83,705.72 C329.99,705.72,330.12,705.72,330.26,705.84 C330.36,705.93,330.46,706.06,330.46,706.25 C330.46,706.56,330.19,706.6,330.09,706.6 C329.86,706.6,329.53,706.44,329.53,705.95 C329.53,705.46,329.97,705.09,330.59,705.09 C331.61,705.09,332.64,705.99,332.92,707.11 Z " />
<path
   id="path6404"
   fill="black"
   stroke-width="0"
   d="M337.15,709.61 L337.15,709.68 L337.15,709.76 L337.15,709.84 L337.15,709.92 L337.14,710.09 L337.13,710.26 L337.11,710.44 L337.09,710.63 L337.06,710.83 L337.03,711.03 L336.99,711.23 L336.94,711.44 L336.89,711.65 L336.83,711.86 L336.76,712.07 L336.68,712.28 L336.64,712.39 L336.59,712.5 L336.55,712.6 L336.5,712.71 C335.9,713.93,335.04,714.58,334.94,714.58 C334.88,714.58,334.84,714.54,334.84,714.48 C334.84,714.45,334.84,714.43,335.03,714.25 C336.01,713.26,336.58,711.68,336.58,709.61 C336.58,707.91,336.21,706.16,334.97,704.91 C334.84,704.79,334.84,704.77,334.84,704.74 C334.84,704.68,334.88,704.64,334.94,704.64 C335.04,704.64,335.94,705.32,336.53,706.58 C337.03,707.67,337.15,708.77,337.15,709.61 Z " />
<polygon
   id="polygon6406"
   fill="black"
   stroke-width="0"
   points="339.73,714.58 338.37,714.58 338.37,714.18 339.33,714.18 339.33,705.04 338.37,705.04 338.37,704.64 339.73,704.64 " />
<path
   id="path6408"
   fill="black"
   stroke-width="0"
   d="M347.71,713.91 L347.71,713.91 L347.71,713.91 L347.71,713.91 L347.71,713.91 L347.71,713.92 L347.71,713.92 L347.71,713.92 L347.71,713.93 L347.71,713.93 L347.71,713.94 L347.71,713.94 L347.71,713.94 L347.71,713.95 L347.7,713.95 L347.7,713.96 L347.7,713.96 L347.7,713.97 L347.69,713.97 L347.69,713.98 L347.69,713.98 L347.68,713.99 L347.68,713.99 L347.68,713.99 L347.67,713.99 L347.67,714 L347.67,714 L347.67,714 L347.66,714 L347.66,714 L347.66,714.01 L347.65,714.01 L347.65,714.01 L347.64,714.01 L347.64,714.01 L347.64,714.01 L347.63,714.01 L347.63,714.01 L347.62,714.02 L347.62,714.02 L347.61,714.02 L347.61,714.02 L347.6,714.02 L347.6,714.02 L347.59,714.02 L347.58,714.02 C347.43,714.02,346.49,713.93,346.32,713.91 C346.24,713.9,346.18,713.85,346.18,713.72 C346.18,713.6,346.27,713.6,346.42,713.6 C346.9,713.6,346.92,713.53,346.92,713.43 L346.89,713.23 L346.29,710.88 C346.11,711.25,345.82,711.52,345.38,711.52 C344.21,711.52,342.98,710.05,342.98,708.6 C342.98,707.67,343.52,707.02,344.3,707.02 L344.32,707.23 C343.82,707.23,343.68,707.78,343.68,708.17 C343.68,708.66,344,709.89,344.23,710.34 C344.54,710.93,344.99,711.3,345.39,711.3 C346.03,711.3,346.17,710.48,346.17,710.42 C346.17,710.36,346.15,710.3,346.14,710.25 L345.64,708.31 C345.59,708.13,345.59,708.11,345.44,707.94 C345.01,707.39,344.6,707.23,344.32,707.23 L344.3,707.02 C344.5,707.02,345,707.05,345.59,707.76 C345.67,707.34,346.02,707.02,346.5,707.02 C346.85,707.02,347.08,707.24,347.23,707.56 C347.4,707.92,347.53,708.53,347.53,708.55 C347.53,708.65,347.44,708.65,347.41,708.65 C347.32,708.65,347.3,708.6,347.27,708.47 C347.11,707.82,346.93,707.23,346.52,707.23 C346.25,707.23,346.22,707.49,346.22,707.69 C346.22,707.93,346.24,708,346.28,708.17 Z " />
<path
   id="path6410"
   fill="black"
   stroke-width="0"
   d="M349.09,707.95 L349.14,708 L349.19,708.05 L349.23,708.1 L349.28,708.15 L349.32,708.2 L349.37,708.24 L349.41,708.28 L349.45,708.33 L349.49,708.37 L349.53,708.41 L349.57,708.44 L349.6,708.48 L349.64,708.52 L349.68,708.55 L349.75,708.62 L349.82,708.68 L349.88,708.74 L349.95,708.8 L350.01,708.86 L350.14,708.97 L350.21,709.02 L350.27,709.08 C350.27,709.09,350.89,709.62,351.25,709.98 C352.19,710.9,352.41,711.38,352.41,711.42 C352.41,711.52,352.32,711.52,352.3,711.52 C352.23,711.52,352.2,711.5,352.15,711.41 C351.85,710.93,351.64,710.77,351.41,710.77 C351.17,710.77,351.05,710.92,350.9,711.09 C350.71,711.32,350.54,711.52,350.21,711.52 C349.47,711.52,349.01,710.59,349.01,710.38 C349.01,710.33,349.04,710.27,349.13,710.27 C349.22,710.27,349.24,710.32,349.26,710.38 C349.45,710.84,350.02,710.85,350.1,710.85 C350.31,710.85,350.5,710.78,350.73,710.7 C351.13,710.55,351.24,710.55,351.49,710.55 C351.14,710.13,350.3,709.41,350.11,709.25 L349.22,708.42 C348.54,707.75,348.19,707.18,348.19,707.11 C348.19,707.02,348.29,707.02,348.31,707.02 C348.39,707.02,348.41,707.04,348.47,707.15 C348.7,707.49,349,707.76,349.32,707.76 C349.55,707.76,349.64,707.67,349.89,707.38 C350.06,707.17,350.24,707.02,350.53,707.02 C351.52,707.02,352.09,708.28,352.09,708.55 C352.09,708.59,352.05,708.65,351.97,708.65 C351.88,708.65,351.86,708.59,351.83,708.52 C351.61,707.87,350.97,707.68,350.64,707.68 C350.44,707.68,350.26,707.74,350.05,707.81 C349.71,707.94,349.57,707.98,349.36,707.98 C349.34,707.98,349.18,707.98,349.09,707.95 Z " />
<path
   id="path6412"
   fill="black"
   stroke-width="0"
   d="M362.44,710.37 L362.47,710.37 L362.5,710.37 L362.52,710.37 L362.54,710.38 L362.55,710.38 L362.57,710.38 L362.58,710.38 L362.6,710.38 L362.61,710.38 L362.62,710.39 L362.64,710.39 L362.65,710.39 L362.66,710.4 L362.68,710.4 L362.69,710.41 L362.7,710.41 L362.71,710.42 L362.72,710.43 L362.73,710.44 L362.74,710.45 L362.74,710.46 L362.75,710.46 L362.75,710.47 L362.75,710.47 L362.76,710.48 L362.76,710.49 L362.76,710.49 L362.77,710.5 L362.77,710.51 L362.77,710.51 L362.77,710.52 L362.77,710.53 L362.77,710.54 L362.77,710.55 L362.78,710.55 L362.78,710.56 L362.78,710.57 C362.78,710.77,362.59,710.77,362.45,710.77 H356.49 C356.35,710.77,356.16,710.77,356.16,710.57 C356.16,710.37,356.35,710.37,356.5,710.37 Z " />
<path
   id="path6414"
   fill="black"
   stroke-width="0"
   d="M362.45,708.45 L362.46,708.45 L362.47,708.45 L362.5,708.45 L362.53,708.45 L362.54,708.45 L362.56,708.45 L362.57,708.45 L362.59,708.45 L362.6,708.45 L362.61,708.46 L362.63,708.46 L362.64,708.46 L362.65,708.47 L362.66,708.47 L362.68,708.48 L362.69,708.48 L362.7,708.49 L362.71,708.49 L362.72,708.5 L362.73,708.51 L362.74,708.52 L362.74,708.52 L362.74,708.53 L362.75,708.54 L362.75,708.54 L362.75,708.55 L362.76,708.55 L362.76,708.56 L362.76,708.57 L362.77,708.57 L362.77,708.58 L362.77,708.59 L362.77,708.59 L362.77,708.6 L362.77,708.61 L362.77,708.62 L362.78,708.63 L362.78,708.64 L362.78,708.65 C362.78,708.84,362.59,708.84,362.44,708.84 H356.5 C356.35,708.84,356.16,708.84,356.16,708.65 C356.16,708.45,356.35,708.45,356.49,708.45 Z " />
<path
   id="path6416"
   fill="black"
   stroke-width="0"
   d="M370.97,713.56 L370.96,713.6 L370.95,713.64 L370.94,713.67 L370.92,713.71 L370.91,713.75 L370.89,713.79 L370.87,713.82 L370.86,713.86 L370.83,713.89 L370.81,713.93 L370.79,713.96 L370.76,714 L370.74,714.03 L370.71,714.06 L370.68,714.09 L370.65,714.12 L370.61,714.15 L370.58,714.18 L370.54,714.2 L370.5,714.23 L370.46,714.25 L370.42,714.27 L370.38,714.29 L370.33,714.31 L370.29,714.33 L370.24,714.34 L370.19,714.35 L370.14,714.36 L370.08,714.37 L370.02,714.38 L369.97,714.38 L369.91,714.38 L369.93,714.19 C370.61,714.19,370.83,713.66,370.83,713.24 C370.83,712.78,370.38,711.29,369.21,711.29 H369.21 C368.42,711.29,368.33,711.89,368.33,712.1 C368.33,712.37,368.52,713.05,368.59,713.23 C368.71,713.55,369.15,714.19,369.93,714.19 L369.91,714.38 C368.93,714.38,368.12,713.65,367.87,713.03 C367.83,712.91,367.73,712.62,367.73,712.34 C367.73,711.86,368.11,711.07,369.2,711.07 C371,711.07,371.73,713.32,371.73,714.3 C371.73,715.49,370.95,716.17,370.02,716.17 C368.88,716.17,368.57,715.27,368.57,715.05 C368.57,715,368.6,714.8,368.85,714.8 C369.09,714.8,369.24,715.02,369.24,715.19 C369.24,715.38,369.1,715.44,368.97,715.45 C369.31,715.97,369.89,715.97,370,715.97 C370.53,715.97,371.14,715.65,371.14,714.66 C371.14,714.36,371.11,714.12,370.98,713.56 Z " />
<path
   id="path6418"
   fill="black"
   stroke-width="0"
   d="M379.11,715.4 L379.11,715.42 L379.12,715.44 L379.12,715.46 L379.13,715.48 L379.13,715.5 L379.14,715.52 L379.15,715.54 L379.15,715.55 L379.16,715.57 L379.17,715.58 L379.18,715.6 L379.18,715.61 L379.2,715.62 L379.21,715.63 L379.22,715.64 L379.23,715.65 L379.25,715.66 L379.26,715.66 L379.28,715.67 L379.3,715.68 L379.32,715.68 L379.33,715.69 L379.34,715.69 L379.36,715.69 L379.37,715.69 L379.38,715.69 L379.4,715.7 L379.41,715.7 L379.43,715.7 L379.44,715.7 L379.46,715.7 L379.47,715.7 L379.49,715.7 L379.51,715.71 L379.53,715.71 L379.55,715.71 L379.57,715.71 L379.59,715.71 L379.61,715.71 L379.63,715.71 L379.65,715.71 L379.67,715.71 L379.7,715.71 C379.84,715.71,379.93,715.71,379.93,715.85 C379.93,715.96,379.85,715.96,379.73,715.96 H378.78 C378.58,715.96,378.57,715.95,378.48,715.82 L375.79,711.86 L375.1,715.77 C375.07,715.95,375.07,715.96,374.86,715.96 H373.86 C373.72,715.96,373.63,715.96,373.63,715.81 C373.63,715.71,373.71,715.71,373.87,715.71 C373.98,715.71,374.01,715.71,374.13,715.7 C374.27,715.68,374.29,715.67,374.29,715.6 C374.29,715.59,374.29,715.55,374.26,715.45 L373.38,711.95 C373.32,711.72,373.21,711.48,372.66,711.46 C372.6,711.46,372.51,711.45,372.51,711.31 C372.51,711.3,372.52,711.21,372.61,711.21 C372.82,711.21,373.12,711.24,373.34,711.24 C373.51,711.24,373.91,711.21,374.08,711.21 C374.11,711.21,374.22,711.21,374.22,711.36 C374.22,711.45,374.13,711.46,374.06,711.46 C373.62,711.47,373.62,711.66,373.62,711.75 C373.62,711.78,373.62,711.82,373.65,711.93 L374.57,715.63 H374.58 L375.32,711.4 C375.35,711.27,375.36,711.21,375.46,711.21 C375.56,711.21,375.62,711.29,375.67,711.36 L378.59,715.7 L378.6,715.69 L377.61,711.75 C377.56,711.52,377.55,711.46,377,711.46 C376.88,711.46,376.79,711.46,376.79,711.31 C376.79,711.3,376.79,711.21,376.9,711.21 C377.04,711.21,377.2,711.23,377.34,711.23 C377.48,711.23,377.64,711.24,377.78,711.24 C377.97,711.24,378.46,711.21,378.66,711.21 C378.7,711.21,378.81,711.21,378.81,711.36 C378.81,711.46,378.72,711.46,378.58,711.46 C378.58,711.46,378.44,711.46,378.32,711.47 C378.16,711.49,378.16,711.51,378.16,711.58 C378.16,711.62,378.18,711.69,378.19,711.73 Z " />
<path
   id="path6420"
   fill="black"
   stroke-width="0"
   d="M380.73,710.67 L380.77,710.7 L380.81,710.74 L380.86,710.77 L380.9,710.81 L380.94,710.84 L380.99,710.88 L381.03,710.91 L381.08,710.95 L381.12,710.99 L381.17,711.02 L381.22,711.06 L381.27,711.09 L381.32,711.13 L381.37,711.16 L381.42,711.2 L381.47,711.24 C381.8,711.48,382.02,711.64,382.23,711.84 C382.48,712.07,382.64,712.29,382.64,712.34 C382.64,712.41,382.57,712.41,382.54,712.41 C382.47,712.41,382.46,712.41,382.43,712.35 C382.24,712.09,382.12,712.07,382.04,712.07 C381.96,712.07,381.88,712.08,381.73,712.2 C381.56,712.33,381.45,712.41,381.26,712.41 C380.81,712.41,380.52,711.97,380.52,711.82 C380.52,711.74,380.58,711.74,380.62,711.74 C380.67,711.74,380.7,711.75,380.72,711.8 C380.74,711.86,380.79,711.98,381.19,711.98 C381.33,711.98,381.44,711.97,381.69,711.93 C381.88,711.9,381.94,711.9,382.02,711.9 C381.88,711.77,381.72,711.64,381.35,711.37 C380.99,711.12,380.78,710.96,380.55,710.74 C380.35,710.57,380.12,710.3,380.12,710.23 C380.12,710.16,380.19,710.16,380.22,710.16 C380.28,710.16,380.3,710.16,380.33,710.2 C380.47,710.4,380.65,710.5,380.82,710.5 C380.96,710.5,381.03,710.45,381.21,710.31 C381.35,710.21,381.46,710.16,381.61,710.16 C382.19,710.16,382.58,710.75,382.58,710.95 C382.58,711.02,382.49,711.02,382.47,711.02 C382.39,711.02,382.38,711,382.36,710.94 C382.25,710.64,381.85,710.59,381.66,710.59 C381.56,710.59,381.43,710.6,381.29,710.63 C381.01,710.67,380.93,710.67,380.86,710.67 C380.78,710.67,380.77,710.67,380.73,710.67 Z " />
<line
   id="line6422"
   stroke-width="0.398"
   y2="709.62"
   x2="383.71"
   y1="709.62"
   x1="367.32" />
<path
   id="path6424"
   fill="black"
   stroke-width="0"
   d="M374.68,706.04 L374.67,706.08 L374.66,706.12 L374.65,706.15 L374.63,706.19 L374.62,706.23 L374.6,706.27 L374.58,706.3 L374.56,706.34 L374.54,706.37 L374.52,706.41 L374.5,706.44 L374.47,706.48 L374.45,706.51 L374.42,706.54 L374.39,706.57 L374.36,706.6 L374.32,706.63 L374.29,706.66 L374.25,706.68 L374.21,706.71 L374.17,706.73 L374.13,706.75 L374.09,706.77 L374.04,706.79 L374,706.81 L373.95,706.82 L373.9,706.83 L373.84,706.84 L373.79,706.85 L373.73,706.86 L373.68,706.86 L373.61,706.86 L373.64,706.67 C374.32,706.67,374.54,706.14,374.54,705.72 C374.54,705.26,374.09,703.77,372.92,703.77 H372.92 C372.13,703.77,372.04,704.36,372.04,704.58 C372.04,704.85,372.23,705.53,372.3,705.71 C372.42,706.03,372.86,706.67,373.64,706.67 L373.61,706.86 C372.64,706.86,371.83,706.13,371.58,705.51 C371.54,705.39,371.44,705.1,371.44,704.82 C371.44,704.34,371.82,703.55,372.9,703.55 C374.71,703.55,375.44,705.8,375.44,706.78 C375.44,707.97,374.66,708.66,373.73,708.66 C372.59,708.66,372.28,707.75,372.28,707.53 C372.28,707.48,372.31,707.28,372.56,707.28 C372.8,707.28,372.95,707.5,372.95,707.67 C372.95,707.85,372.81,707.92,372.67,707.93 C373.02,708.45,373.59,708.45,373.71,708.45 C374.23,708.45,374.85,708.13,374.85,707.14 C374.85,706.84,374.82,706.6,374.69,706.04 Z " />
<path
   id="path6426"
   fill="black"
   stroke-width="0"
   d="M379.58,706.31 L379.58,706.32 L379.59,706.32 L379.59,706.33 L379.59,706.33 L379.59,706.33 L379.59,706.34 L379.59,706.34 L379.59,706.35 L379.6,706.36 L379.6,706.36 L379.6,706.37 L379.6,706.38 L379.6,706.38 L379.6,706.39 L379.6,706.39 L379.61,706.4 L379.61,706.4 L379.61,706.41 L379.61,706.41 L379.61,706.41 L379.61,706.42 L379.61,706.42 L379.61,706.42 L379.61,706.43 L379.61,706.44 L379.61,706.44 L379.61,706.45 L379.61,706.45 L379.61,706.46 L379.61,706.46 L379.61,706.47 C379.61,706.6,379.5,706.69,379.38,706.69 C379.3,706.69,379.17,706.65,379.1,706.52 C379.08,706.48,379.02,706.26,378.98,706.12 L378.84,705.54 C378.8,705.37,378.58,704.5,378.56,704.42 C378.55,704.42,378.25,703.82,377.7,703.82 C377.23,703.82,377.23,704.27,377.23,704.39 C377.23,704.77,377.39,705.21,377.6,705.74 C377.68,705.96,377.72,706.05,377.72,706.16 C377.72,706.5,377.43,706.76,377.05,706.76 C376.35,706.76,376.04,705.81,376.04,705.69 C376.04,705.6,376.14,705.6,376.16,705.6 C376.25,705.6,376.26,705.64,376.28,705.71 C376.46,706.29,376.76,706.56,377.03,706.56 C377.15,706.56,377.21,706.48,377.21,706.32 C377.21,706.16,377.15,706.01,377.11,705.91 C376.78,705.07,376.71,704.81,376.71,704.5 C376.71,704.39,376.71,704.06,376.98,703.84 C377.2,703.66,377.49,703.62,377.67,703.62 C377.95,703.62,378.2,703.72,378.43,703.93 C378.34,703.55,378.27,703.26,377.98,702.91 C377.79,702.7,377.51,702.47,377.14,702.47 C377.09,702.47,376.76,702.47,376.62,702.7 C376.99,702.74,376.99,703.07,376.99,703.08 C376.99,703.3,376.79,703.34,376.72,703.34 C376.55,703.34,376.32,703.2,376.32,702.88 C376.32,702.53,376.65,702.27,377.15,702.27 C377.85,702.27,378.71,702.81,378.92,703.68 Z " />
<path
   id="path6428"
   fill="black"
   stroke-width="0"
   d="M390.04,713.91 L390.04,713.91 L390.04,713.91 L390.04,713.91 L390.04,713.91 L390.04,713.92 L390.04,713.92 L390.04,713.92 L390.04,713.93 L390.04,713.93 L390.04,713.94 L390.03,713.94 L390.03,713.94 L390.03,713.95 L390.03,713.95 L390.03,713.96 L390.02,713.96 L390.02,713.97 L390.02,713.97 L390.01,713.98 L390.01,713.98 L390.01,713.99 L390,713.99 L390,713.99 L390,713.99 L390,714 L389.99,714 L389.99,714 L389.99,714 L389.98,714 L389.98,714.01 L389.98,714.01 L389.97,714.01 L389.97,714.01 L389.96,714.01 L389.96,714.01 L389.96,714.01 L389.95,714.01 L389.95,714.02 L389.94,714.02 L389.94,714.02 L389.93,714.02 L389.93,714.02 L389.92,714.02 L389.91,714.02 L389.91,714.02 C389.76,714.02,388.81,713.93,388.64,713.91 C388.57,713.9,388.51,713.85,388.51,713.72 C388.51,713.6,388.6,713.6,388.74,713.6 C389.22,713.6,389.24,713.53,389.24,713.43 L389.21,713.23 L388.61,710.88 C388.44,711.25,388.15,711.52,387.7,711.52 C386.54,711.52,385.3,710.05,385.3,708.6 C385.3,707.67,385.85,707.02,386.63,707.02 L386.64,707.23 C386.15,707.23,386.01,707.78,386.01,708.17 C386.01,708.66,386.33,709.89,386.56,710.34 C386.86,710.93,387.31,711.3,387.71,711.3 C388.36,711.3,388.5,710.48,388.5,710.42 C388.5,710.36,388.48,710.3,388.47,710.25 L387.97,708.31 C387.92,708.13,387.92,708.11,387.77,707.94 C387.33,707.39,386.92,707.23,386.64,707.23 L386.63,707.02 C386.82,707.02,387.32,707.05,387.92,707.76 C388,707.34,388.35,707.02,388.82,707.02 C389.17,707.02,389.4,707.24,389.56,707.56 C389.73,707.92,389.86,708.53,389.86,708.55 C389.86,708.65,389.77,708.65,389.74,708.65 C389.64,708.65,389.63,708.6,389.6,708.47 C389.43,707.82,389.25,707.23,388.84,707.23 C388.58,707.23,388.55,707.49,388.55,707.69 C388.55,707.93,388.57,708,388.61,708.17 Z " />
<path
   id="path6430"
   fill="black"
   stroke-width="0"
   d="M394.92,710.91 L394.93,710.92 L394.93,710.92 L394.93,710.93 L394.93,710.93 L394.94,710.95 L394.94,710.96 L394.94,710.97 L394.94,710.98 L394.95,710.99 L394.95,710.99 L394.95,711 L394.95,711.01 L394.95,711.02 L394.96,711.03 L394.96,711.03 L394.96,711.04 L394.96,711.04 L394.96,711.05 L394.96,711.06 L394.96,711.06 L394.96,711.07 L394.96,711.07 L394.96,711.08 L394.96,711.09 L394.96,711.1 L394.96,711.11 L394.96,711.12 L394.96,711.13 L394.96,711.13 L394.96,711.14 C394.96,711.32,394.83,711.41,394.68,711.41 C394.58,711.41,394.42,711.35,394.33,711.2 C394.31,711.15,394.23,710.84,394.19,710.66 C394.12,710.4,394.05,710.14,393.99,709.87 L393.54,708.08 C393.5,707.93,393.07,707.23,392.42,707.23 C391.91,707.23,391.8,707.67,391.8,708.04 C391.8,708.5,391.97,709.11,392.31,709.99 C392.47,710.39,392.51,710.5,392.51,710.7 C392.51,711.15,392.19,711.52,391.69,711.52 C390.75,711.52,390.38,710.08,390.38,709.99 C390.38,709.89,390.48,709.89,390.5,709.89 C390.6,709.89,390.61,709.91,390.66,710.07 C390.92,711,391.32,711.3,391.66,711.3 C391.74,711.3,391.91,711.3,391.91,710.98 C391.91,710.73,391.81,710.47,391.74,710.28 C391.34,709.23,391.16,708.66,391.16,708.2 C391.16,707.31,391.79,707.02,392.38,707.02 C392.77,707.02,393.1,707.18,393.38,707.46 C393.25,706.95,393.13,706.46,392.74,705.93 C392.48,705.59,392.1,705.31,391.64,705.31 C391.5,705.31,391.05,705.34,390.89,705.72 C391.05,705.72,391.17,705.72,391.31,705.84 C391.41,705.93,391.51,706.06,391.51,706.25 C391.51,706.56,391.24,706.6,391.14,706.6 C390.92,706.6,390.59,706.44,390.59,705.95 C390.59,705.46,391.02,705.09,391.64,705.09 C392.67,705.09,393.69,705.99,393.97,707.11 Z " />
<path
   id="path6432"
   fill="black"
   stroke-width="0"
   d="M400.47,713.91 L400.47,713.91 L400.47,713.91 L400.47,713.91 L400.47,713.91 L400.47,713.92 L400.47,713.92 L400.47,713.92 L400.47,713.93 L400.46,713.93 L400.46,713.94 L400.46,713.94 L400.46,713.94 L400.46,713.95 L400.46,713.95 L400.46,713.96 L400.45,713.96 L400.45,713.97 L400.45,713.97 L400.44,713.98 L400.44,713.98 L400.44,713.99 L400.43,713.99 L400.43,713.99 L400.43,713.99 L400.42,714 L400.42,714 L400.42,714 L400.42,714 L400.41,714 L400.41,714.01 L400.41,714.01 L400.4,714.01 L400.4,714.01 L400.39,714.01 L400.39,714.01 L400.38,714.01 L400.38,714.01 L400.38,714.02 L400.37,714.02 L400.37,714.02 L400.36,714.02 L400.35,714.02 L400.35,714.02 L400.34,714.02 L400.34,714.02 C400.19,714.02,399.24,713.93,399.07,713.91 C398.99,713.9,398.93,713.85,398.93,713.72 C398.93,713.6,399.02,713.6,399.17,713.6 C399.65,713.6,399.67,713.53,399.67,713.43 L399.64,713.23 L399.04,710.88 C398.86,711.25,398.58,711.52,398.13,711.52 C396.96,711.52,395.73,710.05,395.73,708.6 C395.73,707.67,396.28,707.02,397.05,707.02 L397.07,707.23 C396.58,707.23,396.44,707.78,396.44,708.17 C396.44,708.66,396.76,709.89,396.98,710.34 C397.29,710.93,397.74,711.3,398.14,711.3 C398.79,711.3,398.92,710.48,398.92,710.42 C398.92,710.36,398.9,710.3,398.89,710.25 L398.4,708.31 C398.35,708.13,398.35,708.11,398.2,707.94 C397.76,707.39,397.35,707.23,397.07,707.23 L397.05,707.02 C397.25,707.02,397.75,707.05,398.35,707.76 C398.43,707.34,398.77,707.02,399.25,707.02 C399.6,707.02,399.83,707.24,399.99,707.56 C400.16,707.92,400.29,708.53,400.29,708.55 C400.29,708.65,400.2,708.65,400.17,708.65 C400.07,708.65,400.06,708.6,400.03,708.47 C399.86,707.82,399.68,707.23,399.27,707.23 C399,707.23,398.97,707.49,398.97,707.69 C398.97,707.93,398.99,708,399.03,708.17 Z " />
<path
   id="path6434"
   fill="black"
   stroke-width="0"
   d="M401.84,707.95 L401.89,708 L401.94,708.05 L401.99,708.1 L402.03,708.15 L402.08,708.2 L402.12,708.24 L402.16,708.28 L402.2,708.33 L402.24,708.37 L402.28,708.41 L402.32,708.44 L402.36,708.48 L402.39,708.52 L402.43,708.55 L402.5,708.62 L402.57,708.68 L402.64,708.74 L402.7,708.8 L402.77,708.86 L402.89,708.97 L402.96,709.02 L403.03,709.08 C403.03,709.09,403.64,709.62,404,709.98 C404.95,710.9,405.17,711.38,405.17,711.42 C405.17,711.52,405.08,711.52,405.05,711.52 C404.99,711.52,404.96,711.5,404.91,711.41 C404.61,710.93,404.4,710.77,404.16,710.77 C403.92,710.77,403.8,710.92,403.65,711.09 C403.46,711.32,403.29,711.52,402.97,711.52 C402.22,711.52,401.76,710.59,401.76,710.38 C401.76,710.33,401.79,710.27,401.88,710.27 C401.97,710.27,401.99,710.32,402.01,710.38 C402.2,710.84,402.78,710.85,402.86,710.85 C403.07,710.85,403.25,710.78,403.48,710.7 C403.88,710.55,403.99,710.55,404.25,710.55 C403.89,710.13,403.05,709.41,402.87,709.25 L401.97,708.42 C401.29,707.75,400.95,707.18,400.95,707.11 C400.95,707.02,401.05,707.02,401.07,707.02 C401.14,707.02,401.17,707.04,401.23,707.15 C401.45,707.49,401.75,707.76,402.07,707.76 C402.3,707.76,402.4,707.67,402.65,707.38 C402.82,707.17,403,707.02,403.28,707.02 C404.27,707.02,404.85,708.28,404.85,708.55 C404.85,708.59,404.81,708.65,404.73,708.65 C404.64,708.65,404.62,708.59,404.59,708.52 C404.36,707.87,403.72,707.68,403.39,707.68 C403.2,707.68,403.02,707.74,402.81,707.81 C402.47,707.94,402.32,707.98,402.11,707.98 C402.09,707.98,401.93,707.98,401.84,707.95 Z " />
</g>  </g>
</svg>
