<?xml version="1.0" encoding="UTF-8" standalone="no"?>
<!-- Created with matplotlib (http://matplotlib.sourceforge.net/) -->

<svg
   xmlns:dc="http://purl.org/dc/elements/1.1/"
   xmlns:cc="http://creativecommons.org/ns#"
   xmlns:rdf="http://www.w3.org/1999/02/22-rdf-syntax-ns#"
   xmlns:svg="http://www.w3.org/2000/svg"
   xmlns="http://www.w3.org/2000/svg"
   xmlns:xlink="http://www.w3.org/1999/xlink"
   xmlns:sodipodi="http://sodipodi.sourceforge.net/DTD/sodipodi-0.dtd"
   xmlns:inkscape="http://www.inkscape.org/namespaces/inkscape"
   height="432pt"
   version="1.1"
   viewBox="0 0 576 432"
   width="576pt"
   id="svg2"
   inkscape:version="0.48.3.1 r9886"
   sodipodi:docname="fig-antena-media-onda.svg">
  <metadata
     id="metadata254">
    <rdf:RDF>
      <cc:Work
         rdf:about="">
        <dc:format>image/svg+xml</dc:format>
        <dc:type
           rdf:resource="http://purl.org/dc/dcmitype/StillImage" />
      </cc:Work>
    </rdf:RDF>
  </metadata>
  <sodipodi:namedview
     pagecolor="#ffffff"
     bordercolor="#666666"
     borderopacity="1"
     objecttolerance="10"
     gridtolerance="10"
     guidetolerance="10"
     inkscape:pageopacity="0"
     inkscape:pageshadow="2"
     inkscape:window-width="1440"
     inkscape:window-height="850"
     id="namedview252"
     showgrid="false"
     inkscape:zoom="1.162963"
     inkscape:cx="360"
     inkscape:cy="278.20379"
     inkscape:window-x="0"
     inkscape:window-y="0"
     inkscape:window-maximized="1"
     inkscape:current-layer="axes_1" />
  <defs
     id="defs4">
    <style
       type="text/css"
       id="style6">
*{stroke-linecap:square;stroke-linejoin:round;}
  </style>
  </defs>
  <g
     id="figure_1">
    <g
       id="patch_1">
      <path
         d=" M0 432 L576 432 L576 0 L0 0 z "
         style="fill:#ffffff;"
         id="path10" />
    </g>
    <g
       id="axes_1">
      <g
         id="patch_2">
        <path
           d=" M295.2 388.8 C341.027 388.8 384.983 370.593 417.388 338.188 C449.793 305.783 468 261.827 468 216 C468 170.173 449.793 126.217 417.388 93.8119 C384.983 61.4073 341.027 43.2 295.2 43.2 C249.373 43.2 205.417 61.4073 173.012 93.8119 C140.607 126.217 122.4 170.173 122.4 216 C122.4 261.827 140.607 305.783 173.012 338.188 C205.417 370.593 249.373 388.8 295.2 388.8 z "
           style="fill:#ffffff;"
           id="path14" />
      </g>
      <g
         id="line2d_1">
        <path
           clip-path="url(#p1a6d84fd10)"
           d=" M295.306 215.997 L296.891 215.785 L298.979 215.275 L301.85 214.284 L305.451 212.652 L307.501 211.547 L309.703 210.226 L312.044 208.67 L314.509 206.862 L317.079 204.787 L319.738 202.429 L322.464 199.777 L325.235 196.819 L328.027 193.546 L330.814 189.952 L333.569 186.034 L336.261 181.79 L338.861 177.225 L341.338 172.343 L343.659 167.157 L345.792 161.68 L347.704 155.931 L349.364 149.935 L350.739 143.718 L351.802 137.313 L352.523 130.757 L352.878 124.091 L352.845 117.359 L352.405 110.609 L351.543 103.893 L350.251 97.264 L348.522 90.7778 L346.358 84.4909 L343.763 78.4604 L340.749 72.7429 L337.333 67.3935 L333.538 62.4654 L329.391 58.0086 L324.926 54.0694 L320.18 50.6893 L315.196 47.9045 L310.02 45.7452 L304.7 44.235 L299.288 43.3905 L293.836 43.2212 L288.397 43.7288 L283.025 44.9077 L277.771 46.745 L272.685 49.2204 L267.815 52.3071 L263.204 55.9716 L258.894 60.1751 L254.919 64.8736 L251.31 70.0188 L248.093 75.559 L245.287 81.4401 L242.906 87.6059 L240.959 93.9995 L239.449 100.564 L238.373 107.244 L237.724 113.983 L237.489 120.73 L237.652 127.435 L238.193 134.052 L239.088 140.537 L240.311 146.852 L241.832 152.962 L243.622 158.838 L245.649 164.453 L247.88 169.787 L250.283 174.823 L252.825 179.547 L255.476 183.953 L258.203 188.034 L260.977 191.79 L263.77 195.222 L266.554 198.337 L269.306 201.141 L272.001 203.644 L274.618 205.859 L277.138 207.798 L279.542 209.478 L281.816 210.915 L285.914 213.128 L289.339 214.585 L292.019 215.442 L294.537 215.948 L295.173 216 L294.537 216.052 L293.063 216.306 L290.775 216.921 L287.716 218.058 L283.944 219.875 L281.816 221.085 L279.542 222.522 L277.138 224.202 L274.618 226.141 L272.001 228.356 L269.306 230.859 L266.554 233.663 L263.77 236.778 L260.977 240.21 L258.203 243.966 L255.476 248.047 L252.825 252.453 L250.283 257.177 L247.88 262.213 L245.649 267.547 L243.622 273.162 L241.832 279.038 L240.311 285.148 L239.088 291.463 L238.193 297.948 L237.652 304.565 L237.489 311.27 L237.724 318.017 L238.373 324.756 L239.449 331.436 L240.959 338 L242.906 344.394 L245.287 350.56 L248.093 356.441 L251.31 361.981 L254.919 367.126 L258.894 371.825 L263.204 376.028 L267.815 379.693 L272.685 382.78 L277.771 385.255 L283.025 387.092 L288.397 388.271 L293.836 388.779 L299.288 388.609 L304.7 387.765 L310.02 386.255 L315.196 384.096 L320.18 381.311 L324.926 377.931 L329.391 373.991 L333.538 369.535 L337.333 364.607 L340.749 359.257 L343.763 353.54 L346.358 347.509 L348.522 341.222 L350.251 334.736 L351.543 328.107 L352.405 321.391 L352.845 314.641 L352.878 307.909 L352.523 301.243 L351.802 294.687 L350.739 288.282 L349.364 282.065 L347.704 276.069 L345.792 270.32 L343.659 264.843 L341.338 259.657 L338.861 254.775 L336.261 250.21 L333.569 245.966 L330.814 242.048 L328.027 238.454 L325.235 235.181 L322.464 232.223 L319.738 229.571 L317.079 227.213 L314.509 225.138 L312.044 223.33 L309.703 221.774 L305.451 219.348 L301.85 217.716 L298.979 216.725 L296.891 216.215 L295.306 216.003 L306 216 L306 216"
           style="fill:none;stroke:#0000ff;stroke-width:2.0;"
           id="path17" />
      </g>
      <g
         id="line2d_2">
        <path
           clip-path="url(#p1a6d84fd10)"
           d=" M295.2 216 L296.739 215.854 L299.418 215.329 L303.302 214.179 L305.65 213.303 L308.237 212.192 L311.038 210.826 L314.024 209.186 L317.165 207.255 L320.429 205.021 L323.782 202.473 L327.19 199.605 L330.618 196.412 L334.029 192.895 L337.389 189.058 L340.66 184.906 L343.807 180.45 L346.797 175.703 L349.595 170.681 L352.171 165.405 L354.492 159.896 L356.533 154.181 L358.266 148.287 L359.668 142.244 L360.718 136.085 L361.4 129.844 L361.698 123.556 L361.6 117.259 L361.1 110.99 L360.191 104.788 L358.874 98.6907 L357.15 92.7379 L355.025 86.9675 L352.508 81.4169 L349.613 76.1228 L346.355 71.1203 L342.752 66.4428 L338.828 62.122 L334.606 58.1873 L330.114 54.6654 L325.383 51.5806 L320.442 48.9541 L315.327 46.8041 L310.072 45.1456 L304.714 43.9899 L299.289 43.3453 L293.836 43.2161 L288.392 43.6034 L282.996 44.5043 L277.685 45.9126 L272.496 47.8185 L267.464 50.2088 L262.623 53.0669 L258.008 56.3731 L253.648 60.1047 L249.571 64.236 L245.805 68.7389 L242.372 73.5829 L239.293 78.7356 L236.585 84.1624 L234.263 89.8275 L232.338 95.6939 L230.816 101.724 L229.703 107.878 L228.999 114.119 L228.701 120.406 L228.802 126.704 L229.294 132.973 L230.162 139.177 L231.391 145.282 L232.961 151.255 L234.851 157.063 L237.035 162.678 L239.487 168.073 L242.178 173.225 L245.076 178.112 L248.149 182.715 L251.363 187.021 L254.682 191.016 L258.072 194.694 L261.496 198.049 L264.919 201.079 L268.304 203.787 L271.616 206.177 L274.823 208.258 L277.89 210.041 L280.787 211.542 L283.485 212.778 L285.955 213.769 L290.119 215.109 L293.111 215.768 L295.157 216.001 L294.813 216.018 L293.111 216.232 L290.119 216.891 L288.174 217.463 L285.955 218.231 L283.485 219.222 L280.787 220.458 L277.89 221.959 L274.823 223.742 L271.616 225.823 L268.304 228.213 L264.919 230.921 L261.496 233.951 L258.072 237.306 L254.682 240.984 L251.363 244.979 L248.149 249.285 L245.076 253.888 L242.178 258.775 L239.487 263.927 L237.035 269.322 L234.851 274.937 L232.961 280.745 L231.391 286.718 L230.162 292.823 L229.294 299.027 L228.802 305.296 L228.701 311.594 L228.999 317.881 L229.703 324.122 L230.816 330.276 L232.338 336.306 L234.263 342.172 L236.585 347.838 L239.293 353.264 L242.372 358.417 L245.805 363.261 L249.571 367.764 L253.648 371.895 L258.008 375.627 L262.623 378.933 L267.464 381.791 L272.496 384.181 L277.685 386.087 L282.996 387.496 L288.392 388.397 L293.836 388.784 L299.289 388.655 L304.714 388.01 L310.072 386.854 L315.327 385.196 L320.442 383.046 L325.383 380.419 L330.114 377.335 L334.606 373.813 L338.828 369.878 L342.752 365.557 L346.355 360.88 L349.613 355.877 L352.508 350.583 L355.025 345.033 L357.15 339.262 L358.874 333.309 L360.191 327.212 L361.1 321.01 L361.6 314.741 L361.698 308.444 L361.4 302.156 L360.718 295.915 L359.668 289.756 L358.266 283.713 L356.533 277.819 L354.492 272.104 L352.171 266.595 L349.595 261.319 L346.797 256.297 L343.807 251.55 L340.66 247.094 L337.389 242.942 L334.029 239.105 L330.618 235.588 L327.19 232.395 L323.782 229.527 L320.429 226.979 L317.165 224.745 L314.024 222.814 L311.038 221.174 L308.237 219.808 L305.65 218.697 L301.218 217.154 L297.92 216.345 L295.372 216.005 L295.2 216 L295.2 216"
           style="fill:none;stroke:#008000;stroke-width:2.0;"
           id="path20" />
      </g>
      <g
         id="matplotlib.axis_1">
        <g
           id="xtick_1">
          <g
             id="line2d_3">
            <path
               clip-path="url(#p1a6d84fd10)"
               d=" M295.2 216 L468 216"
               style="fill:none;stroke:#000000;stroke-dasharray:1.000000,3.000000;stroke-dashoffset:0.0;stroke-linecap:butt;stroke-width:0.5;"
               id="path25" />
          </g>
          <g
             id="text_1">
            <!-- 0° -->
            <defs
               id="defs28">
              <path
                 d=" M31.7812 66.4062 Q24.1719 66.4062 20.3281 58.9062 Q16.5 51.4219 16.5 36.375 Q16.5 21.3906 20.3281 13.8906 Q24.1719 6.39062 31.7812 6.39062 Q39.4531 6.39062 43.2812 13.8906 Q47.125 21.3906 47.125 36.375 Q47.125 51.4219 43.2812 58.9062 Q39.4531 66.4062 31.7812 66.4062 M31.7812 74.2188 Q44.0469 74.2188 50.5156 64.5156 Q56.9844 54.8281 56.9844 36.375 Q56.9844 17.9688 50.5156 8.26562 Q44.0469 -1.42188 31.7812 -1.42188 Q19.5312 -1.42188 13.0625 8.26562 Q6.59375 17.9688 6.59375 36.375 Q6.59375 54.8281 13.0625 64.5156 Q19.5312 74.2188 31.7812 74.2188"
                 id="DejaVuSans-30" />
              <path
                 d=" M25 67.9219 Q21.0938 67.9219 18.4062 65.2031 Q15.7188 62.5 15.7188 58.5938 Q15.7188 54.7344 18.4062 52.0781 Q21.0938 49.4219 25 49.4219 Q28.9062 49.4219 31.5938 52.0781 Q34.2812 54.7344 34.2812 58.5938 Q34.2812 62.4531 31.5625 65.1875 Q28.8594 67.9219 25 67.9219 M25 74.2188 Q28.125 74.2188 31 73.0156 Q33.8906 71.8281 35.9844 69.5781 Q38.2344 67.3906 39.3594 64.5938 Q40.4844 61.8125 40.4844 58.5938 Q40.4844 52.1562 35.9688 47.6875 Q31.4531 43.2188 24.9062 43.2188 Q18.3125 43.2188 13.9062 47.6094 Q9.51562 52 9.51562 58.5938 Q9.51562 65.1406 14 69.6719 Q18.5 74.2188 25 74.2188"
                 id="DejaVuSans-b0" />
            </defs>
            <g
               transform="translate(479.4290625 220.3678125)scale(0.12 -0.12)"
               id="g32">
              <use
                 xlink:href="#DejaVuSans-30"
                 id="use34" />
              <use
                 x="63.623046875"
                 xlink:href="#DejaVuSans-b0"
                 id="use36" />
            </g>
          </g>
        </g>
        <g
           id="xtick_2">
          <g
             id="line2d_4">
            <path
               clip-path="url(#p1a6d84fd10)"
               d=" M295.2 216 L417.388 93.8119"
               style="fill:none;stroke:#000000;stroke-dasharray:1.000000,3.000000;stroke-dashoffset:0.0;stroke-linecap:butt;stroke-width:0.5;"
               id="path40" />
          </g>
          <g
             id="text_2">
            <!-- 45° -->
            <defs
               id="defs43">
              <path
                 d=" M10.7969 72.9062 L49.5156 72.9062 L49.5156 64.5938 L19.8281 64.5938 L19.8281 46.7344 Q21.9688 47.4688 24.1094 47.8281 Q26.2656 48.1875 28.4219 48.1875 Q40.625 48.1875 47.75 41.5 Q54.8906 34.8125 54.8906 23.3906 Q54.8906 11.625 47.5625 5.09375 Q40.2344 -1.42188 26.9062 -1.42188 Q22.3125 -1.42188 17.5469 -0.640625 Q12.7969 0.140625 7.71875 1.70312 L7.71875 11.625 Q12.1094 9.23438 16.7969 8.0625 Q21.4844 6.89062 26.7031 6.89062 Q35.1562 6.89062 40.0781 11.3281 Q45.0156 15.7656 45.0156 23.3906 Q45.0156 31 40.0781 35.4375 Q35.1562 39.8906 26.7031 39.8906 Q22.75 39.8906 18.8125 39.0156 Q14.8906 38.1406 10.7969 36.2812 z "
                 id="DejaVuSans-35" />
              <path
                 d=" M37.7969 64.3125 L12.8906 25.3906 L37.7969 25.3906 z  M35.2031 72.9062 L47.6094 72.9062 L47.6094 25.3906 L58.0156 25.3906 L58.0156 17.1875 L47.6094 17.1875 L47.6094 0 L37.7969 0 L37.7969 17.1875 L4.89062 17.1875 L4.89062 26.7031 z "
                 id="DejaVuSans-34" />
            </defs>
            <g
               transform="translate(419.836231968 85.9609555321)scale(0.12 -0.12)"
               id="g47">
              <use
                 xlink:href="#DejaVuSans-34"
                 id="use49" />
              <use
                 x="63.623046875"
                 xlink:href="#DejaVuSans-35"
                 id="use51" />
              <use
                 x="127.24609375"
                 xlink:href="#DejaVuSans-b0"
                 id="use53" />
            </g>
          </g>
        </g>
        <g
           id="xtick_3">
          <g
             id="line2d_5">
            <path
               clip-path="url(#p1a6d84fd10)"
               d=" M295.2 216 L295.2 43.2"
               style="fill:none;stroke:#000000;stroke-dasharray:1.000000,3.000000;stroke-dashoffset:0.0;stroke-linecap:butt;stroke-width:0.5;"
               id="path57" />
          </g>
          <g
             id="text_3">
            <!-- 90° -->
            <defs
               id="defs60">
              <path
                 d=" M10.9844 1.51562 L10.9844 10.5 Q14.7031 8.73438 18.5 7.8125 Q22.3125 6.89062 25.9844 6.89062 Q35.75 6.89062 40.8906 13.4531 Q46.0469 20.0156 46.7812 33.4062 Q43.9531 29.2031 39.5938 26.9531 Q35.25 24.7031 29.9844 24.7031 Q19.0469 24.7031 12.6719 31.3125 Q6.29688 37.9375 6.29688 49.4219 Q6.29688 60.6406 12.9375 67.4219 Q19.5781 74.2188 30.6094 74.2188 Q43.2656 74.2188 49.9219 64.5156 Q56.5938 54.8281 56.5938 36.375 Q56.5938 19.1406 48.4062 8.85938 Q40.2344 -1.42188 26.4219 -1.42188 Q22.7031 -1.42188 18.8906 -0.6875 Q15.0938 0.046875 10.9844 1.51562 M30.6094 32.4219 Q37.25 32.4219 41.125 36.9531 Q45.0156 41.5 45.0156 49.4219 Q45.0156 57.2812 41.125 61.8438 Q37.25 66.4062 30.6094 66.4062 Q23.9688 66.4062 20.0938 61.8438 Q16.2188 57.2812 16.2188 49.4219 Q16.2188 41.5 20.0938 36.9531 Q23.9688 32.4219 30.6094 32.4219"
                 id="DejaVuSans-39" />
            </defs>
            <g
               transform="translate(285.51375 30.2878125)scale(0.12 -0.12)"
               id="g63">
              <use
                 xlink:href="#DejaVuSans-39"
                 id="use65" />
              <use
                 x="63.623046875"
                 xlink:href="#DejaVuSans-30"
                 id="use67" />
              <use
                 x="127.24609375"
                 xlink:href="#DejaVuSans-b0"
                 id="use69" />
            </g>
          </g>
        </g>
        <g
           id="xtick_4">
          <g
             id="line2d_6">
            <path
               clip-path="url(#p1a6d84fd10)"
               d=" M295.2 216 L173.012 93.8119"
               style="fill:none;stroke:#000000;stroke-dasharray:1.000000,3.000000;stroke-dashoffset:0.0;stroke-linecap:butt;stroke-width:0.5;"
               id="path73" />
          </g>
          <g
             id="text_4">
            <!-- 135° -->
            <defs
               id="defs76">
              <path
                 d=" M12.4062 8.29688 L28.5156 8.29688 L28.5156 63.9219 L10.9844 60.4062 L10.9844 69.3906 L28.4219 72.9062 L38.2812 72.9062 L38.2812 8.29688 L54.3906 8.29688 L54.3906 0 L12.4062 0 z "
                 id="DejaVuSans-31" />
              <path
                 d=" M40.5781 39.3125 Q47.6562 37.7969 51.625 33 Q55.6094 28.2188 55.6094 21.1875 Q55.6094 10.4062 48.1875 4.48438 Q40.7656 -1.42188 27.0938 -1.42188 Q22.5156 -1.42188 17.6562 -0.515625 Q12.7969 0.390625 7.625 2.20312 L7.625 11.7188 Q11.7188 9.32812 16.5938 8.10938 Q21.4844 6.89062 26.8125 6.89062 Q36.0781 6.89062 40.9375 10.5469 Q45.7969 14.2031 45.7969 21.1875 Q45.7969 27.6406 41.2812 31.2656 Q36.7656 34.9062 28.7188 34.9062 L20.2188 34.9062 L20.2188 43.0156 L29.1094 43.0156 Q36.375 43.0156 40.2344 45.9219 Q44.0938 48.8281 44.0938 54.2969 Q44.0938 59.9062 40.1094 62.9062 Q36.1406 65.9219 28.7188 65.9219 Q24.6562 65.9219 20.0156 65.0312 Q15.375 64.1562 9.8125 62.3125 L9.8125 71.0938 Q15.4375 72.6562 20.3438 73.4375 Q25.25 74.2188 29.5938 74.2188 Q40.8281 74.2188 47.3594 69.1094 Q53.9062 64.0156 53.9062 55.3281 Q53.9062 49.2656 50.4375 45.0938 Q46.9688 40.9219 40.5781 39.3125"
                 id="DejaVuSans-33" />
            </defs>
            <g
               transform="translate(147.570643032 85.9609555321)scale(0.12 -0.12)"
               id="g80">
              <use
                 xlink:href="#DejaVuSans-31"
                 id="use82" />
              <use
                 x="63.623046875"
                 xlink:href="#DejaVuSans-33"
                 id="use84" />
              <use
                 x="127.24609375"
                 xlink:href="#DejaVuSans-35"
                 id="use86" />
              <use
                 x="190.869140625"
                 xlink:href="#DejaVuSans-b0"
                 id="use88" />
            </g>
          </g>
        </g>
        <g
           id="xtick_5">
          <g
             id="line2d_7">
            <path
               clip-path="url(#p1a6d84fd10)"
               d=" M295.2 216 L122.4 216"
               style="fill:none;stroke:#000000;stroke-dasharray:1.000000,3.000000;stroke-dashoffset:0.0;stroke-linecap:butt;stroke-width:0.5;"
               id="path92" />
          </g>
          <g
             id="text_5">
            <!-- 180° -->
            <defs
               id="defs95">
              <path
                 d=" M31.7812 34.625 Q24.75 34.625 20.7188 30.8594 Q16.7031 27.0938 16.7031 20.5156 Q16.7031 13.9219 20.7188 10.1562 Q24.75 6.39062 31.7812 6.39062 Q38.8125 6.39062 42.8594 10.1719 Q46.9219 13.9688 46.9219 20.5156 Q46.9219 27.0938 42.8906 30.8594 Q38.875 34.625 31.7812 34.625 M21.9219 38.8125 Q15.5781 40.375 12.0312 44.7188 Q8.5 49.0781 8.5 55.3281 Q8.5 64.0625 14.7188 69.1406 Q20.9531 74.2188 31.7812 74.2188 Q42.6719 74.2188 48.875 69.1406 Q55.0781 64.0625 55.0781 55.3281 Q55.0781 49.0781 51.5312 44.7188 Q48 40.375 41.7031 38.8125 Q48.8281 37.1562 52.7969 32.3125 Q56.7812 27.4844 56.7812 20.5156 Q56.7812 9.90625 50.3125 4.23438 Q43.8438 -1.42188 31.7812 -1.42188 Q19.7344 -1.42188 13.25 4.23438 Q6.78125 9.90625 6.78125 20.5156 Q6.78125 27.4844 10.7812 32.3125 Q14.7969 37.1562 21.9219 38.8125 M18.3125 54.3906 Q18.3125 48.7344 21.8438 45.5625 Q25.3906 42.3906 31.7812 42.3906 Q38.1406 42.3906 41.7188 45.5625 Q45.3125 48.7344 45.3125 54.3906 Q45.3125 60.0625 41.7188 63.2344 Q38.1406 66.4062 31.7812 66.4062 Q25.3906 66.4062 21.8438 63.2344 Q18.3125 60.0625 18.3125 54.3906"
                 id="DejaVuSans-38" />
            </defs>
            <g
               transform="translate(91.8975 220.3678125)scale(0.12 -0.12)"
               id="g98">
              <use
                 xlink:href="#DejaVuSans-31"
                 id="use100" />
              <use
                 x="63.623046875"
                 xlink:href="#DejaVuSans-38"
                 id="use102" />
              <use
                 x="127.24609375"
                 xlink:href="#DejaVuSans-30"
                 id="use104" />
              <use
                 x="190.869140625"
                 xlink:href="#DejaVuSans-b0"
                 id="use106" />
            </g>
          </g>
        </g>
        <g
           id="xtick_6">
          <g
             id="line2d_8">
            <path
               clip-path="url(#p1a6d84fd10)"
               d=" M295.2 216 L173.012 338.188"
               style="fill:none;stroke:#000000;stroke-dasharray:1.000000,3.000000;stroke-dashoffset:0.0;stroke-linecap:butt;stroke-width:0.5;"
               id="path110" />
          </g>
          <g
             id="text_6">
            <!-- 225° -->
            <defs
               id="defs113">
              <path
                 d=" M19.1875 8.29688 L53.6094 8.29688 L53.6094 0 L7.32812 0 L7.32812 8.29688 Q12.9375 14.1094 22.625 23.8906 Q32.3281 33.6875 34.8125 36.5312 Q39.5469 41.8438 41.4219 45.5312 Q43.3125 49.2188 43.3125 52.7812 Q43.3125 58.5938 39.2344 62.25 Q35.1562 65.9219 28.6094 65.9219 Q23.9688 65.9219 18.8125 64.3125 Q13.6719 62.7031 7.8125 59.4219 L7.8125 69.3906 Q13.7656 71.7812 18.9375 73 Q24.125 74.2188 28.4219 74.2188 Q39.75 74.2188 46.4844 68.5469 Q53.2188 62.8906 53.2188 53.4219 Q53.2188 48.9219 51.5312 44.8906 Q49.8594 40.875 45.4062 35.4062 Q44.1875 33.9844 37.6406 27.2188 Q31.1094 20.4531 19.1875 8.29688"
                 id="DejaVuSans-32" />
            </defs>
            <g
               transform="translate(147.351268032 354.774669468)scale(0.12 -0.12)"
               id="g116">
              <use
                 xlink:href="#DejaVuSans-32"
                 id="use118" />
              <use
                 x="63.623046875"
                 xlink:href="#DejaVuSans-32"
                 id="use120" />
              <use
                 x="127.24609375"
                 xlink:href="#DejaVuSans-35"
                 id="use122" />
              <use
                 x="190.869140625"
                 xlink:href="#DejaVuSans-b0"
                 id="use124" />
            </g>
          </g>
        </g>
        <g
           id="xtick_7">
          <g
             id="line2d_9">
            <path
               clip-path="url(#p1a6d84fd10)"
               d=" M295.2 216 L295.2 388.8"
               style="fill:none;stroke:#000000;stroke-dasharray:1.000000,3.000000;stroke-dashoffset:0.0;stroke-linecap:butt;stroke-width:0.5;"
               id="path128" />
          </g>
          <g
             id="text_7">
            <!-- 270° -->
            <defs
               id="defs131">
              <path
                 d=" M8.20312 72.9062 L55.0781 72.9062 L55.0781 68.7031 L28.6094 0 L18.3125 0 L43.2188 64.5938 L8.20312 64.5938 z "
                 id="DejaVuSans-37" />
            </defs>
            <g
               transform="translate(281.758125 410.4478125)scale(0.12 -0.12)"
               id="g134">
              <use
                 xlink:href="#DejaVuSans-32"
                 id="use136" />
              <use
                 x="63.623046875"
                 xlink:href="#DejaVuSans-37"
                 id="use138" />
              <use
                 x="127.24609375"
                 xlink:href="#DejaVuSans-30"
                 id="use140" />
              <use
                 x="190.869140625"
                 xlink:href="#DejaVuSans-b0"
                 id="use142" />
            </g>
          </g>
        </g>
        <g
           id="xtick_8">
          <g
             id="line2d_10">
            <path
               clip-path="url(#p1a6d84fd10)"
               d=" M295.2 216 L417.388 338.188"
               style="fill:none;stroke:#000000;stroke-dasharray:1.000000,3.000000;stroke-dashoffset:0.0;stroke-linecap:butt;stroke-width:0.5;"
               id="path146" />
          </g>
          <g
             id="text_8">
            <!-- 315° -->
            <g
               transform="translate(416.182794468 354.774669468)scale(0.12 -0.12)"
               id="g149">
              <use
                 xlink:href="#DejaVuSans-33"
                 id="use151" />
              <use
                 x="63.623046875"
                 xlink:href="#DejaVuSans-31"
                 id="use153" />
              <use
                 x="127.24609375"
                 xlink:href="#DejaVuSans-35"
                 id="use155" />
              <use
                 x="190.869140625"
                 xlink:href="#DejaVuSans-b0"
                 id="use157" />
            </g>
          </g>
        </g>
      </g>
      <g
         id="matplotlib.axis_2">
        <g
           id="ytick_1">
          <g
             id="line2d_11">
            <path
               clip-path="url(#p1a6d84fd10)"
               d=" M329.76 216 L329.739 214.794 L329.676 213.589 L329.424 211.19 L329.005 208.815 L328.421 206.474 L327.676 204.18 L326.772 201.943 L325.715 199.775 L324.509 197.686 L323.16 195.686 L321.674 193.785 L320.06 191.993 L318.325 190.317 L316.477 188.766 L314.526 187.348 L312.48 186.07 L310.35 184.938 L308.146 183.957 L305.88 183.131 L303.561 182.467 L301.201 181.965 L298.813 181.629 L296.406 181.461 L293.994 181.461 L291.587 181.629 L289.199 181.965 L286.839 182.467 L284.52 183.131 L282.254 183.957 L280.05 184.938 L277.92 186.07 L275.874 187.348 L273.923 188.766 L272.075 190.317 L270.34 191.993 L268.726 193.785 L267.24 195.686 L265.891 197.686 L264.685 199.775 L263.628 201.943 L262.724 204.18 L261.979 206.474 L261.395 208.815 L260.976 211.19 L260.724 213.589 L260.64 216 L260.724 218.411 L260.976 220.81 L261.395 223.185 L261.979 225.526 L262.724 227.82 L263.628 230.057 L264.685 232.225 L265.891 234.314 L267.24 236.314 L268.726 238.215 L270.34 240.007 L272.075 241.683 L273.923 243.234 L275.874 244.652 L277.92 245.93 L280.05 247.062 L282.254 248.043 L284.52 248.869 L286.839 249.533 L289.199 250.035 L291.587 250.371 L293.994 250.539 L296.406 250.539 L298.813 250.371 L301.201 250.035 L303.561 249.533 L305.88 248.869 L308.146 248.043 L310.35 247.062 L312.48 245.93 L314.526 244.652 L316.477 243.234 L318.325 241.683 L320.06 240.007 L321.674 238.215 L323.16 236.314 L324.509 234.314 L325.715 232.225 L326.772 230.057 L327.676 227.82 L328.421 225.526 L329.005 223.185 L329.424 220.81 L329.676 218.411 L329.76 216 L329.76 216"
               style="fill:none;stroke:#000000;stroke-dasharray:1.000000,3.000000;stroke-dashoffset:0.0;stroke-linecap:butt;stroke-width:0.5;"
               id="path162" />
          </g>
        </g>
        <g
           id="ytick_2">
          <g
             id="line2d_12">
            <path
               clip-path="url(#p1a6d84fd10)"
               d=" M364.32 216 L364.278 213.588 L364.152 211.178 L363.647 206.38 L362.81 201.629 L361.642 196.948 L360.152 192.36 L358.344 187.886 L356.229 183.55 L353.817 179.372 L351.119 175.372 L348.149 171.571 L344.921 167.985 L341.45 164.634 L337.755 161.533 L333.851 158.697 L329.76 156.14 L325.5 153.875 L321.093 151.913 L316.559 150.263 L311.922 148.933 L307.203 147.93 L302.425 147.259 L297.612 146.922 L292.788 146.922 L287.975 147.259 L283.197 147.93 L278.478 148.933 L273.841 150.263 L269.307 151.913 L264.9 153.875 L260.64 156.14 L256.549 158.697 L252.645 161.533 L248.95 164.634 L245.479 167.985 L242.251 171.571 L239.281 175.372 L236.583 179.372 L234.171 183.55 L232.056 187.886 L230.248 192.36 L228.758 196.948 L227.59 201.629 L226.753 206.38 L226.248 211.178 L226.08 216 L226.248 220.822 L226.753 225.62 L227.59 230.371 L228.758 235.052 L230.248 239.64 L232.056 244.114 L234.171 248.45 L236.583 252.628 L239.281 256.628 L242.251 260.429 L245.479 264.015 L248.95 267.366 L252.645 270.467 L256.549 273.303 L260.64 275.86 L264.9 278.125 L269.307 280.087 L273.841 281.737 L278.478 283.067 L283.197 284.07 L287.975 284.741 L292.788 285.078 L297.612 285.078 L302.425 284.741 L307.203 284.07 L311.922 283.067 L316.559 281.737 L321.093 280.087 L325.5 278.125 L329.76 275.86 L333.851 273.303 L337.755 270.467 L341.45 267.366 L344.921 264.015 L348.149 260.429 L351.119 256.628 L353.817 252.628 L356.229 248.45 L358.344 244.114 L360.152 239.64 L361.642 235.052 L362.81 230.371 L363.647 225.62 L364.152 220.822 L364.32 216 L364.32 216"
               style="fill:none;stroke:#000000;stroke-dasharray:1.000000,3.000000;stroke-dashoffset:0.0;stroke-linecap:butt;stroke-width:0.5;"
               id="path166" />
          </g>
        </g>
        <g
           id="ytick_3">
          <g
             id="line2d_13">
            <path
               clip-path="url(#p1a6d84fd10)"
               d=" M398.88 216 L398.817 212.382 L398.627 208.768 L398.312 205.162 L397.871 201.571 L397.305 197.996 L396.614 194.444 L395.8 190.918 L394.864 187.422 L393.806 183.961 L392.627 180.539 L391.33 177.161 L389.916 173.83 L388.387 170.55 L386.744 167.325 L384.99 164.16 L383.126 161.058 L381.155 158.023 L379.079 155.058 L376.901 152.168 L374.623 149.356 L372.249 146.625 L369.781 143.978 L367.222 141.419 L364.575 138.951 L361.844 136.577 L359.032 134.299 L356.142 132.121 L353.177 130.045 L350.142 128.074 L347.04 126.21 L343.875 124.456 L340.65 122.813 L337.37 121.284 L334.039 119.87 L330.661 118.573 L327.239 117.394 L323.778 116.336 L320.282 115.4 L316.756 114.586 L313.204 113.895 L309.629 113.329 L306.038 112.888 L302.432 112.573 L298.818 112.383 L295.2 112.32 L291.582 112.383 L287.968 112.573 L284.362 112.888 L280.771 113.329 L277.196 113.895 L273.644 114.586 L270.118 115.4 L266.622 116.336 L263.161 117.394 L259.739 118.573 L256.361 119.87 L253.03 121.284 L249.75 122.813 L246.525 124.456 L243.36 126.21 L240.258 128.074 L237.223 130.045 L234.258 132.121 L231.368 134.299 L228.556 136.577 L225.825 138.951 L223.178 141.419 L220.619 143.978 L218.151 146.625 L215.777 149.356 L213.499 152.168 L211.321 155.058 L209.245 158.023 L207.274 161.058 L205.41 164.16 L203.656 167.325 L202.013 170.55 L200.484 173.83 L199.07 177.161 L197.773 180.539 L196.594 183.961 L195.536 187.422 L194.6 190.918 L193.786 194.444 L193.095 197.996 L192.529 201.571 L192.088 205.162 L191.773 208.768 L191.583 212.382 L191.52 216 L191.583 219.618 L191.773 223.232 L192.088 226.838 L192.529 230.429 L193.095 234.004 L193.786 237.556 L194.6 241.082 L195.536 244.578 L196.594 248.039 L197.773 251.461 L199.07 254.839 L200.484 258.17 L202.013 261.45 L203.656 264.675 L205.41 267.84 L207.274 270.942 L209.245 273.977 L211.321 276.942 L213.499 279.832 L215.777 282.644 L218.151 285.375 L220.619 288.022 L223.178 290.581 L225.825 293.049 L228.556 295.423 L231.368 297.701 L234.258 299.879 L237.223 301.955 L240.258 303.926 L243.36 305.79 L246.525 307.544 L249.75 309.187 L253.03 310.716 L256.361 312.13 L259.739 313.427 L263.161 314.606 L266.622 315.664 L270.118 316.6 L273.644 317.414 L277.196 318.105 L280.771 318.671 L284.362 319.112 L287.968 319.427 L291.582 319.617 L295.2 319.68 L298.818 319.617 L302.432 319.427 L306.038 319.112 L309.629 318.671 L313.204 318.105 L316.756 317.414 L320.282 316.6 L323.778 315.664 L327.239 314.606 L330.661 313.427 L334.039 312.13 L337.37 310.716 L340.65 309.187 L343.875 307.544 L347.04 305.79 L350.142 303.926 L353.177 301.955 L356.142 299.879 L359.032 297.701 L361.844 295.423 L364.575 293.049 L367.222 290.581 L369.781 288.022 L372.249 285.375 L374.623 282.644 L376.901 279.832 L379.079 276.942 L381.155 273.977 L383.126 270.942 L384.99 267.84 L386.744 264.675 L388.387 261.45 L389.916 258.17 L391.33 254.839 L392.627 251.461 L393.806 248.039 L394.864 244.578 L395.8 241.082 L396.614 237.556 L397.305 234.004 L397.871 230.429 L398.312 226.838 L398.627 223.232 L398.817 219.618 L398.88 216 L398.88 216"
               style="fill:none;stroke:#000000;stroke-dasharray:1.000000,3.000000;stroke-dashoffset:0.0;stroke-linecap:butt;stroke-width:0.5;"
               id="path170" />
          </g>
        </g>
        <g
           id="ytick_4">
          <g
             id="line2d_14">
            <path
               clip-path="url(#p1a6d84fd10)"
               d=" M433.44 216 L433.356 211.175 L433.103 206.357 L432.683 201.55 L432.095 196.761 L431.34 191.995 L430.419 187.258 L429.334 182.557 L428.085 177.896 L426.674 173.281 L425.103 168.719 L423.374 164.214 L421.489 159.773 L419.449 155.4 L417.259 151.1 L414.919 146.88 L412.434 142.744 L409.806 138.697 L407.039 134.745 L404.135 130.891 L401.098 127.141 L397.932 123.499 L394.642 119.97 L391.23 116.558 L387.701 113.268 L384.059 110.102 L380.309 107.065 L376.455 104.161 L372.503 101.394 L368.456 98.7658 L364.32 96.2806 L360.1 93.9413 L355.8 91.7507 L351.427 89.7115 L346.986 87.8261 L342.481 86.0969 L337.919 84.5259 L333.304 83.1152 L328.643 81.8663 L323.942 80.7809 L319.205 79.8602 L314.439 79.1053 L309.65 78.5173 L304.843 78.0967 L300.025 77.8442 L295.2 77.76 L290.375 77.8442 L285.557 78.0967 L280.75 78.5173 L275.961 79.1053 L271.195 79.8602 L266.458 80.7809 L261.757 81.8663 L257.096 83.1152 L252.481 84.5259 L247.919 86.0969 L243.414 87.8261 L238.973 89.7115 L234.6 91.7507 L230.3 93.9413 L226.08 96.2806 L221.944 98.7658 L217.897 101.394 L213.945 104.161 L210.091 107.065 L206.341 110.102 L202.699 113.268 L199.17 116.558 L195.758 119.97 L192.468 123.499 L189.302 127.141 L186.265 130.891 L183.361 134.745 L180.594 138.697 L177.966 142.744 L175.481 146.88 L173.141 151.1 L170.951 155.4 L168.911 159.773 L167.026 164.214 L165.297 168.719 L163.726 173.281 L162.315 177.896 L161.066 182.557 L159.981 187.258 L159.06 191.995 L158.305 196.761 L157.717 201.55 L157.297 206.357 L157.044 211.175 L156.96 216 L157.044 220.825 L157.297 225.643 L157.717 230.45 L158.305 235.239 L159.06 240.005 L159.981 244.742 L161.066 249.443 L162.315 254.104 L163.726 258.719 L165.297 263.281 L167.026 267.786 L168.911 272.227 L170.951 276.6 L173.141 280.9 L175.481 285.12 L177.966 289.256 L180.594 293.303 L183.361 297.255 L186.265 301.109 L189.302 304.859 L192.468 308.501 L195.758 312.03 L199.17 315.442 L202.699 318.732 L206.341 321.898 L210.091 324.935 L213.945 327.839 L217.897 330.606 L221.944 333.234 L226.08 335.719 L230.3 338.059 L234.6 340.249 L238.973 342.289 L243.414 344.174 L247.919 345.903 L252.481 347.474 L257.096 348.885 L261.757 350.134 L266.458 351.219 L271.195 352.14 L275.961 352.895 L280.75 353.483 L285.557 353.903 L290.375 354.156 L295.2 354.24 L300.025 354.156 L304.843 353.903 L309.65 353.483 L314.439 352.895 L319.205 352.14 L323.942 351.219 L328.643 350.134 L333.304 348.885 L337.919 347.474 L342.481 345.903 L346.986 344.174 L351.427 342.289 L355.8 340.249 L360.1 338.059 L364.32 335.719 L368.456 333.234 L372.503 330.606 L376.455 327.839 L380.309 324.935 L384.059 321.898 L387.701 318.732 L391.23 315.442 L394.642 312.03 L397.932 308.501 L401.098 304.859 L404.135 301.109 L407.039 297.255 L409.806 293.303 L412.434 289.256 L414.919 285.12 L417.259 280.9 L419.449 276.6 L421.489 272.227 L423.374 267.786 L425.103 263.281 L426.674 258.719 L428.085 254.104 L429.334 249.443 L430.419 244.742 L431.34 240.005 L432.095 235.239 L432.683 230.45 L433.103 225.643 L433.356 220.825 L433.44 216 L433.44 216"
               style="fill:none;stroke:#000000;stroke-dasharray:1.000000,3.000000;stroke-dashoffset:0.0;stroke-linecap:butt;stroke-width:0.5;"
               id="path174" />
          </g>
        </g>
        <g
           id="ytick_5">
          <g
             id="line2d_15">
            <path
               clip-path="url(#p1a6d84fd10)"
               d=" M468 216 L467.895 209.969 L467.579 203.946 L467.053 197.937 L466.318 191.951 L465.375 185.994 L464.224 180.073 L462.867 174.196 L461.306 168.37 L459.543 162.602 L457.579 156.899 L455.417 151.268 L453.061 145.716 L450.512 140.249 L447.773 134.875 L444.849 129.6 L441.743 124.43 L438.458 119.371 L434.998 114.431 L431.368 109.614 L427.572 104.926 L423.615 100.374 L419.502 95.963 L415.237 91.6981 L410.826 87.5846 L406.274 83.6275 L401.586 79.8317 L396.769 76.2019 L391.829 72.7423 L386.77 69.4573 L381.6 66.3508 L376.325 63.4267 L370.951 60.6884 L365.484 58.1393 L359.932 55.7826 L354.301 53.6211 L348.598 51.6574 L342.83 49.894 L337.004 48.3329 L331.127 46.9761 L325.206 45.8252 L319.249 44.8817 L313.263 44.1466 L307.254 43.6209 L301.231 43.3053 L295.2 43.2 L289.169 43.3053 L283.146 43.6209 L277.137 44.1466 L271.151 44.8817 L265.194 45.8252 L259.273 46.9761 L253.396 48.3329 L247.57 49.894 L241.802 51.6574 L236.099 53.6211 L230.468 55.7826 L224.916 58.1393 L219.449 60.6884 L214.075 63.4267 L208.8 66.3508 L203.63 69.4573 L198.571 72.7423 L193.631 76.2019 L188.814 79.8317 L184.126 83.6275 L179.574 87.5846 L175.163 91.6981 L170.898 95.963 L166.785 100.374 L162.828 104.926 L159.032 109.614 L155.402 114.431 L151.942 119.371 L148.657 124.43 L145.551 129.6 L142.627 134.875 L139.888 140.249 L137.339 145.716 L134.983 151.268 L132.821 156.899 L130.857 162.602 L129.094 168.37 L127.533 174.196 L126.176 180.073 L125.025 185.994 L124.082 191.951 L123.347 197.937 L122.821 203.946 L122.505 209.969 L122.4 216 L122.505 222.031 L122.821 228.054 L123.347 234.063 L124.082 240.049 L125.025 246.006 L126.176 251.927 L127.533 257.804 L129.094 263.63 L130.857 269.398 L132.821 275.101 L134.983 280.732 L137.339 286.284 L139.888 291.751 L142.627 297.125 L145.551 302.4 L148.657 307.57 L151.942 312.629 L155.402 317.569 L159.032 322.386 L162.828 327.074 L166.785 331.626 L170.898 336.037 L175.163 340.302 L179.574 344.415 L184.126 348.372 L188.814 352.168 L193.631 355.798 L198.571 359.258 L203.63 362.543 L208.8 365.649 L214.075 368.573 L219.449 371.312 L224.916 373.861 L230.468 376.217 L236.099 378.379 L241.802 380.343 L247.57 382.106 L253.396 383.667 L259.273 385.024 L265.194 386.175 L271.151 387.118 L277.137 387.853 L283.146 388.379 L289.169 388.695 L295.2 388.8 L301.231 388.695 L307.254 388.379 L313.263 387.853 L319.249 387.118 L325.206 386.175 L331.127 385.024 L337.004 383.667 L342.83 382.106 L348.598 380.343 L354.301 378.379 L359.932 376.217 L365.484 373.861 L370.951 371.312 L376.325 368.573 L381.6 365.649 L386.77 362.543 L391.829 359.258 L396.769 355.798 L401.586 352.168 L406.274 348.372 L410.826 344.415 L415.237 340.302 L419.502 336.037 L423.615 331.626 L427.572 327.074 L431.368 322.386 L434.998 317.569 L438.458 312.629 L441.743 307.57 L444.849 302.4 L447.773 297.125 L450.512 291.751 L453.061 286.284 L455.417 280.732 L457.579 275.101 L459.543 269.398 L461.306 263.63 L462.867 257.804 L464.224 251.927 L465.375 246.006 L466.318 240.049 L467.053 234.063 L467.579 228.054 L467.895 222.031 L468 216 L468 216"
               style="fill:none;stroke:#000000;stroke-dasharray:1.000000,3.000000;stroke-dashoffset:0.0;stroke-linecap:butt;stroke-width:0.5;"
               id="path178" />
          </g>
        </g>
      </g>
      <g
         id="patch_3">
        <path
           d=" M295.2 388.8 C341.027 388.8 384.983 370.593 417.388 338.188 C449.793 305.783 468 261.827 468 216 C468 170.173 449.793 126.217 417.388 93.8119 C384.983 61.4073 341.027 43.2 295.2 43.2 C249.373 43.2 205.417 61.4073 173.012 93.8119 C140.607 126.217 122.4 170.173 122.4 216 C122.4 261.827 140.607 305.783 173.012 338.188 C205.417 370.593 249.373 388.8 295.2 388.8 z "
           style="fill:none;stroke:#000000;"
           id="path181" />
      </g>
      <g
         id="legend_1"
         transform="translate(41.273885,-43.337584)"
         style="stroke-linecap:square;stroke-linejoin:round">
        <g
           id="patch_4"
           style="stroke-linecap:square;stroke-linejoin:round">
          <path
             d="m 331.056,239.255 129.744,0 0,-46.51 -129.744,0 0,46.51 z"
             style="fill:#ffffff;stroke:#000000;stroke-linecap:square;stroke-linejoin:round"
             id="path185"
             inkscape:connector-curvature="0" />
        </g>
        <g
           id="line2d_16"
           style="stroke-linecap:square;stroke-linejoin:round">
          <path
             d="m 341.136,204.407 20.16,0"
             style="fill:none;stroke:#0000ff;stroke-width:2;stroke-linecap:square;stroke-linejoin:round"
             id="path188"
             inkscape:connector-curvature="0" />
        </g>
        <g
           id="line2d_17"
           style="stroke-linecap:square;stroke-linejoin:round" />
        <g
           id="text_9"
           style="stroke-linecap:square;stroke-linejoin:round">
          <!-- antena $\lambda/2$ -->
          <defs
             id="defs192">
            <path
               d="m 4.98438,0 0,2.6875 q 0,0.25 0.1875,0.53125 L 20.7031,20.4062 q 3.5157,3.8126 5.7031,6.3907 2.2032,2.5937 4.3438,5.9687 2.1562,3.375 3.4062,6.8594 1.25,3.4844 1.25,7.3906 0,4.1094 -1.5156,7.8438 -1.5156,3.7344 -4.5156,5.9844 -3,2.25 -7.25,2.25 -4.3438,0 -7.8125,-2.625 -3.4687,-2.6094 -4.89062,-6.75 0.39062,0.0937 1.07812,0.0937 2.25,0 3.8281,-1.5156 1.5938,-1.5157 1.5938,-3.9063 0,-2.2968 -1.5938,-3.8906 Q 12.75,42.9219 10.5,42.9219 q -2.34375,0 -3.9375,1.625 -1.57812,1.6406 -1.57812,3.8437 0,3.7656 1.40624,7.0469 1.42188,3.2969 4.07818,5.8594 2.6718,2.5781 6.0156,3.9375 3.3437,1.375 7.0937,1.375 5.7188,0 10.6407,-2.4219 4.9374,-2.4219 7.8124,-6.8437 2.8907,-4.4063 2.8907,-10.3282 0,-4.3437 -1.9063,-8.25 -1.9062,-3.9062 -4.8906,-7.1094 -2.9688,-3.1874 -7.6094,-7.25 Q 25.875,20.3594 24.4219,19 L 13.0938,8.10938 l 9.6093,0 q 7.0781,0 11.8438,0.10937 4.7656,0.125 5.0469,0.375 Q 40.7656,9.85938 42,17.8281 l 2.9219,0 L 42.0938,0 z"
               id="Cmr10-32"
               inkscape:connector-curvature="0"
               style="stroke-linecap:square;stroke-linejoin:round" />
            <path
               d="m 54.8906,33.0156 0,-33.0156 -8.9844,0 0,32.7188 q 0,7.7656 -3.0312,11.6093 -3.0312,3.8594 -9.0781,3.8594 -7.2813,0 -11.4844,-4.6406 -4.2031,-4.625 -4.2031,-12.6407 l 0,-30.9062 -9.03128,0 0,54.6875 9.03128,0 0,-8.5 q 3.2344,4.9375 7.5937,7.375 Q 30.0781,56 35.7969,56 q 9.4219,0 14.25,-5.8281 4.8437,-5.8281 4.8437,-17.1563"
               id="DejaVuSans-6e"
               inkscape:connector-curvature="0"
               style="stroke-linecap:square;stroke-linejoin:round" />
            <path
               id="DejaVuSans-20"
               d=""
               inkscape:connector-curvature="0"
               style="stroke-linecap:square;stroke-linejoin:round" />
            <path
               d="m 5.07812,1.70312 q 0,1.46876 1.3125,2.79688 L 34.5156,32.0781 24.6094,59.9062 q -1.1719,3.1876 -2.4688,5.0313 -1.2968,1.8594 -3.7344,1.8594 -1.125,0 -1.125,1.3125 0.1094,0.5937 0.5,0.9375 0.3907,0.3437 1.0157,0.3437 10.5,0 12.7031,-6.2031 L 51.8125,6.5 Q 53.125,2.25 54.5,0.78125 54.9844,0.046875 54.9844,-0.203125 54.9844,-1.125 54.2031,-1.125 l -5.4219,0 q -2.4843,0.734375 -3.9531,4.34375 L 35.6875,28.8125 11.5312,0.390625 Q 9.71875,-1.3125 8.29688,-1.3125 q -1.26563,0 -2.25,0.875 -0.96876,0.875 -0.96876,2.14062"
               id="Cmmi10-b8"
               inkscape:connector-curvature="0"
               style="stroke-linecap:square;stroke-linejoin:round" />
            <path
               d="m 18.3125,70.2188 0,-15.5313 18.5,0 0,-6.9844 -18.5,0 0,-29.6875 q 0,-6.6875 1.8281,-8.59372 1.8282,-1.90626 7.4532,-1.90626 l 9.2187,0 0,-7.51562 -9.2187,0 Q 17.1875,0 13.2344,3.875 9.28125,7.76562 9.28125,18.0156 l 0,29.6875 -6.59375,0 0,6.9844 6.59375,0 0,15.5313 z"
               id="DejaVuSans-74"
               inkscape:connector-curvature="0"
               style="stroke-linecap:square;stroke-linejoin:round" />
            <path
               d="m 5.60938,-23 q 0,0.2969 0.10937,0.3906 L 40.4844,73.7812 q 0.1875,0.5782 0.6718,0.8907 0.5,0.3281 1.125,0.3281 0.8907,0 1.4376,-0.5469 Q 44.2812,73.9219 44.2812,73 l 0,-0.3906 L 9.51562,-23.7812 Q 8.9375,-25 7.625,-25 6.78125,-25 6.1875,-24.4062 5.60938,-23.8281 5.60938,-23"
               id="Cmmi10-3d"
               inkscape:connector-curvature="0"
               style="stroke-linecap:square;stroke-linejoin:round" />
            <path
               d="m 56.2031,29.5938 0,-4.3907 -41.3125,0 q 0.5938,-9.2812 5.5938,-14.1406 5,-4.85938 13.9375,-4.85938 5.1719,0 10.0312,1.26563 4.8594,1.26563 9.6563,3.81245 l 0,-8.49995 q -4.8438,-2.046875 -9.9219,-3.125 -5.0781,-1.07813 -10.2969,-1.07813 -13.0937,0 -20.7344,7.60938 -7.64058,7.625 -7.64058,20.625 0,13.4219 7.24998,21.2969 Q 20.0156,56 32.3281,56 q 11.0313,0 17.4531,-7.1094 6.4219,-7.0937 6.4219,-19.2968 m -8.9843,2.6406 q -0.0938,7.3594 -4.125,11.75 -4.0313,4.4062 -10.6719,4.4062 -7.5157,0 -12.0313,-4.25 -4.5156,-4.25 -5.2031,-11.9687 z"
               id="DejaVuSans-65"
               inkscape:connector-curvature="0"
               style="stroke-linecap:square;stroke-linejoin:round" />
            <path
               d="m 34.2812,27.4844 q -10.8906,0 -15.0937,-2.4844 -4.2031,-2.4844 -4.2031,-8.5 0,-4.7812 3.1562,-7.59375 3.1563,-2.79687 8.5625,-2.79687 7.4844,0 12,5.29682 4.5157,5.2969 4.5157,14.0782 l 0,2 z m 17.9219,3.7187 0,-31.2031 -8.9843,0 0,8.29688 Q 40.1406,3.32812 35.5469,0.953125 30.9531,-1.42188 24.3125,-1.42188 q -8.3906,0 -13.3594,4.71876 Q 6,8.01562 6,15.9219 q 0,9.2187 6.1719,13.9062 6.1875,4.6875 18.4375,4.6875 l 12.6094,0 0,0.8906 q 0,6.2032 -4.0782,9.5938 -4.0781,3.3906 -11.4531,3.3906 -4.6875,0 -9.1406,-1.125 -4.4375,-1.125 -8.5313,-3.375 l 0,8.3125 q 4.9219,1.9063 9.5625,2.8438 Q 24.2188,56 28.6094,56 q 11.875,0 17.7344,-6.1562 5.8593,-6.1407 5.8593,-18.6407"
               id="DejaVuSans-61"
               inkscape:connector-curvature="0"
               style="stroke-linecap:square;stroke-linejoin:round" />
          </defs>
          <g
             transform="matrix(0.144,0,0,-0.144,377.136,213.04687)"
             id="g202"
             style="stroke-linecap:square;stroke-linejoin:round">
            <use
               transform="translate(0,25)"
               xlink:href="#DejaVuSans-61"
               id="use204"
               style="stroke-linecap:square;stroke-linejoin:round"
               x="0"
               y="0"
               width="576"
               height="432" />
            <use
               transform="translate(61.279297,25)"
               xlink:href="#DejaVuSans-6e"
               id="use206"
               style="stroke-linecap:square;stroke-linejoin:round"
               x="0"
               y="0"
               width="576"
               height="432" />
            <use
               transform="translate(124.6582,25)"
               xlink:href="#DejaVuSans-74"
               id="use208"
               style="stroke-linecap:square;stroke-linejoin:round"
               x="0"
               y="0"
               width="576"
               height="432" />
            <use
               transform="translate(163.86719,25)"
               xlink:href="#DejaVuSans-65"
               id="use210"
               style="stroke-linecap:square;stroke-linejoin:round"
               x="0"
               y="0"
               width="576"
               height="432" />
            <use
               transform="translate(225.39062,25)"
               xlink:href="#DejaVuSans-6e"
               id="use212"
               style="stroke-linecap:square;stroke-linejoin:round"
               x="0"
               y="0"
               width="576"
               height="432" />
            <use
               transform="translate(288.76953,25)"
               xlink:href="#DejaVuSans-61"
               id="use214"
               style="stroke-linecap:square;stroke-linejoin:round"
               x="0"
               y="0"
               width="576"
               height="432" />
            <use
               transform="translate(350.04883,25)"
               xlink:href="#DejaVuSans-20"
               id="use216"
               style="stroke-linecap:square;stroke-linejoin:round"
               x="0"
               y="0"
               width="576"
               height="432" />
            <use
               transform="translate(381.83594,25)"
               xlink:href="#Cmmi10-b8"
               id="use218"
               style="stroke-linecap:square;stroke-linejoin:round"
               x="0"
               y="0"
               width="576"
               height="432" />
            <use
               transform="translate(440.13672,25)"
               xlink:href="#Cmmi10-3d"
               id="use220"
               style="stroke-linecap:square;stroke-linejoin:round"
               x="0"
               y="0"
               width="576"
               height="432" />
            <use
               transform="translate(490.13672,25)"
               xlink:href="#Cmr10-32"
               id="use222"
               style="stroke-linecap:square;stroke-linejoin:round"
               x="0"
               y="0"
               width="576"
               height="432" />
          </g>
        </g>
        <g
           id="line2d_18"
           style="stroke-linecap:square;stroke-linejoin:round">
          <path
             d="m 341.136,228.167 20.16,0"
             style="fill:none;stroke:#008000;stroke-width:2;stroke-linecap:square;stroke-linejoin:round"
             id="path225"
             inkscape:connector-curvature="0" />
        </g>
        <g
           id="line2d_19"
           style="stroke-linecap:square;stroke-linejoin:round" />
        <g
           id="text_10"
           style="stroke-linecap:square;stroke-linejoin:round">
          <!-- $\sin^2\theta$ -->
          <defs
             id="defs229">
            <path
               d="m 16.1094,-1.125 q -4.5313,0 -7.26565,3.3125 Q 6.10938,5.51562 5.04688,10.2031 4,14.8906 4,19.4844 l 0,0.0937 q 0,4.9844 0.95312,10.3438 0.95313,5.375 2.75,10.7187 1.8125,5.3594 3.92188,9.5625 1.4688,2.9219 3.7812,6.5313 2.3126,3.625 5.1719,6.7656 2.8594,3.1562 6.1563,5.0781 3.2968,1.9375 6.6718,1.9375 l 0.0938,0 q 3.6094,0 6.0156,-2.0156 2.4219,-2 3.7656,-5.125 1.3438,-3.125 1.875,-6.6875 0.5469,-3.5625 0.5469,-6.7813 0,-7.5781 -2.0469,-15.4687 -2.0468,-7.875 -5.6718,-15.25 Q 36.625,16.4062 34.2031,12.6406 31.7812,8.89062 29.0781,5.90625 26.375,2.9375 23,0.90625 19.625,-1.125 16.2188,-1.125 z m 0.2031,2.64062 q 3.3125,0 6.3594,3.53126 3.0625,3.54687 5.3593,8.59372 2.2969,5.0625 4.0313,10.3594 1.7344,5.2969 2.5625,9.0156 l -20.4219,0 q -1.5625,-6.3125 -2.4375,-10.875 -0.875,-4.5625 -0.875,-8.9531 0,-11.67188 5.4219,-11.67188 m -1.3281,35.01558 20.5156,0 q 1.0781,4.3907 1.7031,7.3438 0.6407,2.9531 1.0781,6.2188 0.4376,3.2812 0.4376,6.1093 0,11.7188 -5.3126,11.7188 -6.3593,0 -10.9687,-10.2344 -4.6094,-10.2187 -7.4531,-21.1563"
               id="Cmmi10-b5"
               inkscape:connector-curvature="0"
               style="stroke-linecap:square;stroke-linejoin:round" />
            <path
               d="m 2.98438,0 0,3.51562 q 3.40624,0 5.60937,0.53126 2.20315,0.54687 2.20315,2.64062 l 0,27.2969 q 0,2.6875 -0.81252,3.875 -0.79688,1.2031 -2.3125,1.4687 -1.51563,0.2657 -4.6875,0.2657 l 0,3.5156 14.50002,1.0781 0,-9.7656 q 2,4.2969 5.9218,7.0312 3.9376,2.7344 8.5782,2.7344 6.9375,0 10.4218,-3.3281 3.5,-3.3125 3.5,-10.1406 l 0,-24.0313 q 0,-2.09375 2.1876,-2.64062 2.2031,-0.53126 5.625,-0.53126 l 0,-3.51562 -22.9063,0 0,3.51562 q 3.4219,0 5.6094,0.53126 2.2031,0.54687 2.2031,2.64062 l 0,23.7344 q 0,4.875 -1.4219,8.0312 -1.4062,3.1563 -5.8125,3.1563 -5.7968,0 -9.5468,-4.6406 -3.7344,-4.6407 -3.7344,-10.5469 l 0,-19.7344 q 0,-2.09375 2.2031,-2.64062 2.2031,-0.53126 5.5625,-0.53126 L 25.875,0 z"
               id="Cmr10-6e"
               inkscape:connector-curvature="0"
               style="stroke-linecap:square;stroke-linejoin:round" />
            <path
               d="m 3.32812,-0.296875 0,16.312475 q 0,0.7813 0.875,0.7813 l 1.21876,0 Q 6,16.7969 6.20312,16.0156 8.98438,1.51562 19.6719,1.51562 q 4.75,0 7.9375,2.14063 3.2031,2.15625 3.2031,6.64065 0,3.2343 -2.5,5.5 -2.4844,2.2656 -5.9063,3.0937 l -6.6874,1.3282 q -3.3594,0.7343 -6.12505,2.2343 -2.75,1.5157 -4.51563,4.0313 -1.75,2.5156 -1.75,5.8437 0,4.3907 2.3125,7.1875 2.3125,2.8125 6.01558,4.0625 3.7188,1.25 8.0157,1.25 5.1406,0 8.9375,-2.7343 L 31.5,44.5781 q 0,0.25 0.4844,0.25 l 0.7344,0 q 0.2968,0 0.5312,-0.2812 Q 33.5,44.2812 33.5,44 l 0,-13.0938 q 0,-0.9218 -0.7812,-0.9218 l -1.2188,0 q -0.8906,0 -0.8906,0.9218 0,5.2344 -2.9063,8.4063 -2.8906,3.1719 -8.125,3.1719 -4.4843,0 -7.7812,-1.6719 Q 8.5,39.1562 8.5,35.1094 q 0,-2.7813 2.3594,-4.5625 2.375,-1.7813 5.5468,-2.5625 l 6.7813,-1.2813 q 3.4219,-0.7812 6.375,-2.6406 2.9531,-1.8437 4.6875,-4.6875 1.7344,-2.8281 1.7344,-6.3906 0,-3.6094 -1.25,-6.28128 Q 33.5,4.04688 31.2656,2.28125 29.0469,0.53125 26.0156,-0.296875 23,-1.125 19.6719,-1.125 q -6.25,0 -10.68752,4.20312 L 5.32812,-0.875 q 0,-0.25 -0.54687,-0.25 l -0.57813,0 q -0.875,0 -0.875,0.828125"
               id="Cmr10-73"
               inkscape:connector-curvature="0"
               style="stroke-linecap:square;stroke-linejoin:round" />
            <path
               d="m 3.07812,0 0,3.51562 q 3.42188,0 5.60938,0.53126 2.2031,0.54687 2.2031,2.64062 l 0,27.2969 q 0,3.8594 -1.49998,4.7344 -1.48437,0.875 -5.875,0.875 l 0,3.5156 14.40628,1.0781 0,-37.5 q 0,-2.09375 1.9062,-2.64062 1.9063,-0.53126 5.0781,-0.53126 L 24.9062,0 z m 4.25,61.375 q 0,2.2031 1.65626,3.8594 1.65622,1.6562 3.81252,1.6562 1.4062,0 2.7187,-0.7344 1.3282,-0.7187 2.0625,-2.0468 0.7344,-1.3125 0.7344,-2.7344 0,-2.1406 -1.6719,-3.8125 -1.6562,-1.6563 -3.8437,-1.6563 -2.1563,0 -3.81252,1.6563 -1.65626,1.6719 -1.65626,3.8125"
               id="Cmr10-69"
               inkscape:connector-curvature="0"
               style="stroke-linecap:square;stroke-linejoin:round" />
          </defs>
          <g
             transform="matrix(0.144,0,0,-0.144,377.136,233.49487)"
             id="g235"
             style="stroke-linecap:square;stroke-linejoin:round">
            <use
               transform="translate(0,2.8578125)"
               xlink:href="#Cmr10-73"
               id="use237"
               style="stroke-linecap:square;stroke-linejoin:round"
               x="0"
               y="0"
               width="576"
               height="432" />
            <use
               transform="translate(39.404297,2.8578125)"
               xlink:href="#Cmr10-69"
               id="use239"
               style="stroke-linecap:square;stroke-linejoin:round"
               x="0"
               y="0"
               width="576"
               height="432" />
            <use
               transform="translate(67.089844,2.8578125)"
               xlink:href="#Cmr10-6e"
               id="use241"
               style="stroke-linecap:square;stroke-linejoin:round"
               x="0"
               y="0"
               width="576"
               height="432" />
            <use
               transform="matrix(0.7,0,0,0.7,122.60742,45.373438)"
               xlink:href="#Cmr10-32"
               id="use243"
               style="stroke-linecap:square;stroke-linejoin:round"
               x="0"
               y="0"
               width="576"
               height="432" />
            <use
               transform="translate(189.61367,2.8578125)"
               xlink:href="#Cmmi10-b5"
               id="use245"
               style="stroke-linecap:square;stroke-linejoin:round"
               x="0"
               y="0"
               width="576"
               height="432" />
          </g>
        </g>
      </g>
    </g>
  </g>
  <defs
     id="defs247">
    <clipPath
       id="p1a6d84fd10">
      <path
         d=" M295.2 388.8 C341.027 388.8 384.983 370.593 417.388 338.188 C449.793 305.783 468 261.827 468 216 C468 170.173 449.793 126.217 417.388 93.8119 C384.983 61.4073 341.027 43.2 295.2 43.2 C249.373 43.2 205.417 61.4073 173.012 93.8119 C140.607 126.217 122.4 170.173 122.4 216 C122.4 261.827 140.607 305.783 173.012 338.188 C205.417 370.593 249.373 388.8 295.2 388.8 z "
         id="path250" />
    </clipPath>
  </defs>
</svg>
