<?xml version="1.0" encoding="UTF-8" standalone="no"?>
<!-- Created with Inkscape (http://www.inkscape.org/) -->

<svg
   xmlns:ns0="http://www.iki.fi/pav/software/textext/"
   xmlns:dc="http://purl.org/dc/elements/1.1/"
   xmlns:cc="http://creativecommons.org/ns#"
   xmlns:rdf="http://www.w3.org/1999/02/22-rdf-syntax-ns#"
   xmlns:svg="http://www.w3.org/2000/svg"
   xmlns="http://www.w3.org/2000/svg"
   xmlns:sodipodi="http://sodipodi.sourceforge.net/DTD/sodipodi-0.dtd"
   xmlns:inkscape="http://www.inkscape.org/namespaces/inkscape"
   width="792pt"
   height="612pt"
   id="svg3073"
   version="1.1"
   inkscape:version="0.48.1 r9760"
   sodipodi:docname="fig-interferometro.svg">
  <sodipodi:namedview
     inkscape:document-units="in"
     pagecolor="#ffffff"
     bordercolor="#666666"
     borderopacity="1.0"
     inkscape:pageopacity="0.0"
     inkscape:pageshadow="2"
     inkscape:zoom="0.81960784"
     inkscape:cx="497.44019"
     inkscape:cy="382.5"
     inkscape:current-layer="layer1"
     id="namedview3077"
     showgrid="false"
     inkscape:window-width="1438"
     inkscape:window-height="847"
     inkscape:window-x="0"
     inkscape:window-y="0"
     inkscape:window-maximized="1" />
  <defs
     id="defs3075" />
  <metadata
     id="metadata3079">
    <rdf:RDF>
      <cc:Work
         rdf:about="">
        <dc:format>image/svg+xml</dc:format>
        <dc:type
           rdf:resource="http://purl.org/dc/dcmitype/StillImage" />
        <dc:title />
      </cc:Work>
    </rdf:RDF>
  </metadata>
  <g
     id="layer1"
     inkscape:groupmode="layer"
     inkscape:label="Layer 1">
    <path
       id="path3485"
       style="font-size:12px;fill:#ff0000;fill-rule:evenodd;stroke-width:0.625;stroke-linejoin:round"
       d="m 310.77474,447.94199 34.1037,12.23802 -33.90756,12.77142 c 5.37476,-7.42538 5.26427,-17.52609 -0.19614,-25.00944 z"
       inkscape:connector-curvature="0" />
    <path
       id="path3277"
       style="fill:none;stroke:#ff8080;stroke-width:5.18748522;stroke-linecap:butt;stroke-linejoin:miter;stroke-miterlimit:4;stroke-opacity:1;stroke-dasharray:none"
       d="m 420.04606,459.45194 489.99468,-7.2257 -462.66659,-20.91448"
       inkscape:connector-curvature="0" />
    <path
       id="path3489"
       style="fill:none;stroke:#ff8080;stroke-width:5.18748522;stroke-linecap:butt;stroke-linejoin:miter;stroke-miterlimit:4;stroke-opacity:1;stroke-dasharray:none"
       d="M 418.9878,458.46724 425.03989,27.041402 448.38358,431.66524"
       inkscape:connector-curvature="0" />
    <path
       id="path3274"
       style="fill:#ff0000;fill-opacity:1;fill-rule:evenodd;stroke:none"
       d="m 420.12258,456.98639 -170.61964,1.37792 0,5.18748 170.70066,-1.37791 -0.0811,-5.18749 z"
       inkscape:connector-curvature="0" />
    <path
       id="path3491"
       style="fill:none;stroke:#ff0000;stroke-width:5.18748522;stroke-linecap:butt;stroke-linejoin:miter;stroke-miterlimit:4;stroke-opacity:1;stroke-dasharray:none"
       d="m 448.44338,431.99607 11.47483,198.89738"
       inkscape:connector-curvature="0" />
    <path
       id="path3521"
       style="font-size:12px;fill:#ff8080;fill-opacity:1;fill-rule:evenodd;stroke-width:0.625;stroke-linejoin:round"
       d="m 525.57102,445.09792 34.10371,12.23806 -33.9076,12.77136 c 5.37478,-7.42537 5.26429,-17.52604 -0.19613,-25.00942 z"
       inkscape:connector-curvature="0" />
    <path
       id="path3523"
       style="font-size:12px;fill:#ff8080;fill-opacity:1;fill-rule:evenodd;stroke-width:0.625;stroke-linejoin:round"
       d="m 635.76068,452.79827 -33.03802,-14.87702 34.80539,-10.07066 c -5.94096,6.98064 -6.62359,17.05881 -1.76737,24.94768 z"
       inkscape:connector-curvature="0" />
    <path
       id="path3525"
       style="font-size:12px;fill:#ff8080;fill-rule:evenodd;stroke-width:0.625;stroke-linejoin:round"
       d="m 407.28051,378.90862 12.72083,-33.92663 12.28892,34.08545 c -7.34839,-5.47961 -17.44963,-5.51246 -25.00975,-0.15865 z"
       inkscape:connector-curvature="0" />
    <path
       id="path3527"
       style="font-size:12px;fill:#ff8080;fill-rule:evenodd;stroke-width:0.625;stroke-linejoin:round"
       d="m 452.2275,287.99929 -10.01907,34.82031 -14.926,-33.0159 c 7.75576,4.88598 17.82839,4.12606 24.94507,-1.80441 z"
       inkscape:connector-curvature="0" />
    <path
       id="path3529"
       style="fill:none;stroke:#000000;stroke-width:9.0781002;stroke-linecap:butt;stroke-linejoin:miter;stroke-miterlimit:4;stroke-opacity:0.36078431;stroke-dasharray:none"
       d="M 378.28153,497.23528 489.13001,386.38684"
       inkscape:connector-curvature="0" />
    <rect
       id="rect2303"
       style="fill:#c0c0c0;fill-opacity:1;stroke:#000000;stroke-width:2.59374261;stroke-linecap:butt;stroke-linejoin:miter;stroke-miterlimit:4;stroke-opacity:1;stroke-dasharray:none;stroke-dashoffset:0"
       transform="matrix(0.99996925,-0.00784159,0.00784159,0.99996925,0,0)"
       y="441.48889"
       x="159.10539"
       height="42.421806"
       width="86.771896" />
    <path
       id="path3531"
       style="font-size:12px;fill:#ff0000;fill-rule:evenodd;stroke-width:0.625;stroke-linejoin:round"
       d="m 465.69776,518.3506 -10.01904,34.8203 -14.92602,-33.01587 c 7.75575,4.88601 17.82841,4.12602 24.94506,-1.80443 z"
       inkscape:connector-curvature="0" />
    <rect
       id="rect3541"
       style="fill:#c0c0c0;fill-opacity:1;stroke:#000000;stroke-width:2.59374213;stroke-linecap:butt;stroke-linejoin:miter;stroke-miterlimit:4;stroke-opacity:1;stroke-dasharray:none;stroke-dashoffset:0"
       transform="matrix(-0.05273867,-0.99860835,0.99860835,-0.05273867,0,0)"
       y="405.77551"
       x="-739.06427"
       height="42.42181"
       width="86.771896" />
    <path
       id="path3543"
       style="fill:none;stroke:#000000;stroke-width:9.07810019999999973;stroke-linecap:butt;stroke-linejoin:miter;stroke-miterlimit:4;stroke-opacity:1.0;stroke-dasharray:none"
       d="m 909.72391,390.21743 0,128.13086"
       inkscape:connector-curvature="0" />
    <path
       id="path3545"
       style="fill:#000000;stroke:#000000;stroke-width:9.07810019999999973;stroke-linecap:butt;stroke-linejoin:miter;stroke-miterlimit:4;stroke-opacity:1.0;stroke-dasharray:none"
       d="m 497.20945,28.424741 -147.32458,0"
       inkscape:connector-curvature="0" />
    <text
       id="text2180"
       y="68.094376"
       x="291.9285"
       style="font-size:31.12490654px;font-style:normal;font-weight:normal;fill:#000000;fill-opacity:1;stroke:none;font-family:Bitstream Vera Sans"
       xml:space="preserve"><tspan
         style="font-size:25.93742561px"
         y="68.094376"
         x="291.9285"
         id="tspan2182"
         sodipodi:role="line">Espejo</tspan></text>
    <text
       id="text2184"
       y="492.36417"
       x="805.52124"
       style="font-size:31.12490654px;font-style:normal;font-weight:normal;fill:#000000;fill-opacity:1;stroke:none;font-family:Bitstream Vera Sans"
       xml:space="preserve"><tspan
         style="font-size:25.93742561px"
         y="492.36417"
         x="805.52124"
         id="tspan2186"
         sodipodi:role="line">Espejo</tspan></text>
    <text
       id="text2188"
       y="395.91031"
       x="136.02843"
       style="font-size:25.93742561px;font-style:normal;font-weight:normal;fill:#000000;fill-opacity:1;stroke:none;font-family:Bitstream Vera Sans"
       xml:space="preserve"><tspan
         id="tspan2192"
         y="395.91031"
         x="136.02843"
         sodipodi:role="line">Fuente de luz </tspan><tspan
         id="tspan2196"
         y="428.33209"
         x="136.02843"
         sodipodi:role="line">coherente</tspan></text>
    <text
       id="text2198"
       y="334.55237"
       x="499.84866"
       style="font-size:25.93742561px;font-style:normal;font-weight:normal;fill:#000000;fill-opacity:1;stroke:none;font-family:Bitstream Vera Sans"
       xml:space="preserve"><tspan
         y="334.55237"
         x="499.84866"
         id="tspan2200"
         sodipodi:role="line">Espejo </tspan><tspan
         id="tspan2202"
         y="366.97415"
         x="499.84866"
         sodipodi:role="line">semi-transparente</tspan></text>
    <text
       id="text2204"
       y="668.26086"
       x="503.16367"
       style="font-size:25.93742561px;font-style:normal;font-weight:normal;fill:#000000;fill-opacity:1;stroke:none;font-family:Bitstream Vera Sans"
       xml:space="preserve"><tspan
         y="668.26086"
         x="503.16367"
         id="tspan2206"
         sodipodi:role="line">Detector</tspan></text>
    <text
       id="text2203"
       y="347.5047"
       x="1048.0187"
       style="font-size:25.93742561px;font-style:normal;font-weight:normal;fill:#000000;fill-opacity:1;stroke:none;font-family:Bitstream Vera Sans"
       xml:space="preserve"><tspan
         y="347.5047"
         x="1048.0187"
         id="tspan2205"
         sodipodi:role="line" /></text>
    <g
       ns0:preamble=""
       ns0:text="$A$"
       word-spacing="normal"
       letter-spacing="normal"
       font-size-adjust="none"
       font-stretch="normal"
       font-weight="normal"
       font-variant="normal"
       font-style="normal"
       stroke-miterlimit="10.433"
       xml:space="preserve"
       transform="matrix(4,0,0,-4,-481.55502,3326.9856)"
       id="content"
       style="font-style:normal;font-variant:normal;font-weight:normal;font-stretch:normal;letter-spacing:normal;word-spacing:normal;text-anchor:start;fill:none;stroke:#000000;stroke-linecap:butt;stroke-linejoin:miter;stroke-miterlimit:10.43299961;stroke-opacity:1;stroke-dasharray:none;stroke-dashoffset:0">
<path
   id="path3268"
   d="m 225.22,708.27 -0.04,-0.06 -0.04,-0.06 -0.04,-0.05 -0.03,-0.06 -0.04,-0.05 -0.04,-0.04 -0.03,-0.05 -0.04,-0.04 -0.04,-0.04 -0.04,-0.03 -0.03,-0.04 -0.04,-0.03 -0.04,-0.03 -0.04,-0.03 -0.03,-0.02 -0.04,-0.03 -0.04,-0.02 -0.04,-0.02 -0.04,-0.02 -0.03,-0.01 -0.04,-0.02 -0.04,-0.01 -0.04,-0.02 -0.04,-0.01 -0.04,-0.01 -0.04,-0.01 -0.04,0 -0.04,-0.01 -0.08,-0.01 -0.08,-0.01 c -0.12,-0.01 -0.21,-0.01 -0.21,-0.2 0,-0.06 0.05,-0.11 0.13,-0.11 0.27,0 0.58,0.04 0.86,0.04 0.33,0 0.68,-0.04 0.99,-0.04 0.06,0 0.19,0 0.19,0.19 0,0.11 -0.09,0.12 -0.16,0.12 -0.22,0.02 -0.46,0.1 -0.46,0.35 0,0.12 0.06,0.23 0.14,0.37 l 0.75,1.27 h 2.51 l -0.03,0.31 h -2.29 l 1.97,3.29 0.32,-3.29 0.03,-0.31 c 0.01,-0.2 0.15,-1.56 0.15,-1.66 0,-0.3 -0.51,-0.33 -0.71,-0.33 -0.14,0 -0.24,0 -0.24,-0.2 0,-0.11 0.12,-0.11 0.14,-0.11 0.41,0 0.83,0.04 1.24,0.04 0.25,0 0.88,-0.04 1.13,-0.04 0.06,0 0.18,0 0.18,0.2 0,0.11 -0.1,0.11 -0.23,0.11 -0.62,0 -0.62,0.07 -0.65,0.36 l -0.61,6.22 c -0.02,0.2 -0.02,0.24 -0.18,0.24 -0.16,0 -0.21,-0.07 -0.27,-0.17 z"
   inkscape:connector-curvature="0"
   style="fill:#000000;stroke-width:0" />
</g>    <g
       id="g3369"
       transform="matrix(4,0,0,-4,-31.551197,3257.5725)"
       xml:space="preserve"
       stroke="black"
       stroke-linecap="butt"
       stroke-linejoin="miter"
       stroke-miterlimit="10.433"
       stroke-dasharray="none"
       stroke-dashoffset="0"
       stroke-opacity="1"
       fill="none"
       fill-rule="evenodd"
       fill-opacity="1"
       font-style="normal"
       font-variant="normal"
       font-weight="normal"
       font-stretch="normal"
       font-size-adjust="none"
       letter-spacing="normal"
       word-spacing="normal"
       text-anchor="start"
       ns0:text="$B$"
       ns0:preamble=""
       style="font-style:normal;font-variant:normal;font-weight:normal;font-stretch:normal;letter-spacing:normal;word-spacing:normal;text-anchor:start;fill:none;stroke:#000000;stroke-linecap:butt;stroke-linejoin:miter;stroke-miterlimit:10.43299961;stroke-opacity:1;stroke-dasharray:none;stroke-dashoffset:0">
<path
   d="M225.03,707.9 L225.02,707.87 L225.01,707.83 L225,707.8 L224.99,707.77 L224.98,707.74 L224.97,707.71 L224.96,707.69 L224.95,707.66 L224.94,707.64 L224.93,707.62 L224.92,707.6 L224.9,707.58 L224.89,707.57 L224.87,707.55 L224.85,707.54 L224.83,707.52 L224.81,707.51 L224.78,707.5 L224.76,707.49 L224.73,707.48 L224.69,707.47 L224.68,707.47 L224.66,707.46 L224.64,707.46 L224.62,707.46 L224.6,707.46 L224.58,707.45 L224.56,707.45 L224.54,707.45 L224.51,707.45 L224.49,707.44 L224.46,707.44 L224.44,707.44 L224.41,707.44 L224.38,707.44 L224.35,707.44 L224.32,707.44 L224.29,707.44 L224.26,707.44 L224.23,707.43 L224.19,707.43 L224.16,707.43 L224.12,707.43 C223.95,707.43,223.85,707.43,223.85,707.23 C223.85,707.12,223.94,707.12,224.12,707.12 H227.68 C229.25,707.12,230.43,708.3,230.43,709.28 C230.43,709.99,229.85,710.57,228.88,710.68 C229.92,710.87,230.97,711.6,230.97,712.55 C230.97,713.29,230.31,713.92,229.11,713.92 L228.97,713.61 C229.85,713.61,230.06,713.03,230.06,712.59 C230.06,711.71,229.2,710.77,227.99,710.77 H226.53 L226.47,710.55 H228.36 C229.31,710.55,229.5,709.81,229.5,709.38 C229.5,708.4,228.62,707.43,227.44,707.43 H226.08 C225.94,707.43,225.92,707.43,225.86,707.44 C225.76,707.45,225.74,707.46,225.74,707.54 C225.74,707.57,225.74,707.59,225.79,707.77 L226.47,710.55 L226.53,710.77 L227.15,713.24 C227.24,713.58,227.26,713.61,227.69,713.61 H228.97 L229.11,713.92 H225.76 C225.57,713.92,225.48,713.92,225.48,713.72 C225.48,713.61,225.57,713.61,225.76,713.61 C225.77,713.61,225.96,713.61,226.13,713.59 C226.31,713.57,226.4,713.56,226.4,713.43 C226.4,713.4,226.39,713.36,226.36,713.25 Z "
   stroke-width="0"
   fill="black"
   id="path3371" />
</g>    <g
       style="font-style:normal;font-variant:normal;font-weight:normal;font-stretch:normal;letter-spacing:normal;word-spacing:normal;text-anchor:start;fill:none;stroke:#000000;stroke-linecap:butt;stroke-linejoin:miter;stroke-miterlimit:10.43299961;stroke-opacity:1;stroke-dasharray:none;stroke-dashoffset:0"
       ns0:preamble=""
       ns0:text="$C$"
       text-anchor="start"
       word-spacing="normal"
       letter-spacing="normal"
       font-size-adjust="none"
       font-stretch="normal"
       font-weight="normal"
       font-variant="normal"
       font-style="normal"
       fill-opacity="1"
       fill-rule="evenodd"
       fill="none"
       stroke-opacity="1"
       stroke-dashoffset="0"
       stroke-dasharray="none"
       stroke-miterlimit="10.433"
       stroke-linejoin="miter"
       stroke-linecap="butt"
       stroke="black"
       xml:space="preserve"
       transform="matrix(4,0,0,-4,-451.26411,2901.3046)"
       id="g3458">
<path
   id="path3460"
   fill="black"
   stroke-width="0"
   d="M231.01,714.04 L231.01,714.04 L231.01,714.05 L231.01,714.05 L231.01,714.05 L231.01,714.06 L231.01,714.06 L231,714.07 L231,714.07 L231,714.07 L231,714.08 L231,714.08 L231,714.09 L230.99,714.09 L230.99,714.09 L230.99,714.1 L230.99,714.1 L230.98,714.11 L230.98,714.11 L230.98,714.11 L230.97,714.12 L230.97,714.12 L230.96,714.12 L230.96,714.13 L230.95,714.13 L230.95,714.13 L230.94,714.13 L230.94,714.13 L230.94,714.14 L230.94,714.14 L230.93,714.14 L230.93,714.14 L230.93,714.14 L230.92,714.14 L230.92,714.14 L230.91,714.14 L230.91,714.14 L230.91,714.14 L230.9,714.14 L230.9,714.14 C230.87,714.14,230.86,714.13,230.75,714.02 L230.05,713.26 C229.96,713.4,229.5,714.14,228.4,714.14 C226.17,714.14,223.93,711.94,223.93,709.63 C223.93,707.99,225.11,706.91,226.63,706.91 C227.5,706.91,228.26,707.3,228.79,707.76 C229.71,708.58,229.88,709.48,229.88,709.51 C229.88,709.61,229.78,709.61,229.76,709.61 C229.7,709.61,229.65,709.59,229.63,709.51 C229.54,709.22,229.31,708.52,228.63,707.94 C227.94,707.38,227.31,707.22,226.79,707.22 C225.89,707.22,224.84,707.73,224.84,709.28 C224.84,709.85,225.05,711.46,226.04,712.63 C226.65,713.34,227.59,713.83,228.48,713.83 C229.49,713.83,230.08,713.07,230.08,711.91 C230.08,711.51,230.05,711.5,230.05,711.41 C230.05,711.3,230.16,711.3,230.2,711.3 C230.33,711.3,230.33,711.33,230.38,711.5 Z " />
</g>  </g>
</svg>
