<?xml version="1.0" encoding="UTF-8" standalone="no"?>
<svg
   xmlns:ns0="http://www.iki.fi/pav/software/textext/"
   xmlns:dc="http://purl.org/dc/elements/1.1/"
   xmlns:cc="http://creativecommons.org/ns#"
   xmlns:rdf="http://www.w3.org/1999/02/22-rdf-syntax-ns#"
   xmlns:svg="http://www.w3.org/2000/svg"
   xmlns="http://www.w3.org/2000/svg"
   xmlns:xlink="http://www.w3.org/1999/xlink"
   xmlns:sodipodi="http://sodipodi.sourceforge.net/DTD/sodipodi-0.dtd"
   xmlns:inkscape="http://www.inkscape.org/namespaces/inkscape"
   version="1.1"
   width="600"
   height="500"
   id="svg2"
   inkscape:version="0.48.1 r9760"
   sodipodi:docname="VFPt_image_charge_plane_horizontal.svg">
  <metadata
     id="metadata181">
    <rdf:RDF>
      <cc:Work
         rdf:about="">
        <dc:format>image/svg+xml</dc:format>
        <dc:type
           rdf:resource="http://purl.org/dc/dcmitype/StillImage" />
      </cc:Work>
    </rdf:RDF>
  </metadata>
  <sodipodi:namedview
     pagecolor="#ffffff"
     bordercolor="#666666"
     borderopacity="1"
     objecttolerance="10"
     gridtolerance="10"
     guidetolerance="10"
     inkscape:pageopacity="0"
     inkscape:pageshadow="2"
     inkscape:window-width="1440"
     inkscape:window-height="848"
     id="namedview179"
     showgrid="false"
     inkscape:zoom="1.254"
     inkscape:cx="300"
     inkscape:cy="250"
     inkscape:window-x="0"
     inkscape:window-y="0"
     inkscape:window-maximized="1"
     inkscape:current-layer="svg2" />
  <title
     id="title4">VFPt_image_charge_plane_horizontal</title>
  <desc
     id="desc6">VFPt_image_charge_plane_horizontal
created with VectorFieldPlot 1.1
http://commons.wikimedia.org/wiki/User:Geek3/VectorFieldPlot

about: http://commons.wikimedia.org/wiki/File:VFPt_image_charge_plane_horizontal.svg
rights: GNU Free Documentation license,
        Creative Commons Attribution ShareAlike license
  </desc>
  <defs
     id="defs8">
    <radialGradient
       id="white_spot"
       cx="4.4999993"
       cy="5.9999996"
       r="22.5"
       fx="4.4999993"
       fy="5.9999996"
       gradientUnits="userSpaceOnUse">
      <stop
         stop-color="#ffffff"
         offset="0"
         stop-opacity="0.7"
         id="stop11" />
      <stop
         stop-color="#ffffff"
         offset="0.1"
         stop-opacity="0.5"
         id="stop13" />
      <stop
         stop-color="#ffffff"
         offset="0.6"
         stop-opacity="0"
         id="stop15" />
      <stop
         stop-color="#000000"
         offset="0.6"
         stop-opacity="0"
         id="stop17" />
      <stop
         stop-color="#000000"
         offset="0.75"
         stop-opacity="0.05"
         id="stop19" />
      <stop
         stop-color="#000000"
         offset="0.85"
         stop-opacity="0.15"
         id="stop21" />
      <stop
         stop-color="#000000"
         offset="1"
         stop-opacity="0.5"
         id="stop23" />
    </radialGradient>
    <path
       id="arrow1"
       stroke="none"
       fill="#000000"
       transform="scale(0.01)"
       d="M 0.3,0 L -2.2,2.25 L 3.8,0 L -2.2,-2.25 L 0.3,0 Z" />
  </defs>
  <rect
     id="background"
     x="34.209999"
     y="-480"
     width="432"
     height="360"
     transform="matrix(0,1,-1,0,0,0)"
     style="fill:#ffffff" />
  <g
     id="image"
     transform="matrix(0,72,72,0,264.54,250.75)">
    <g
       id="fieldlines"
       style="fill:none;stroke:#000000;stroke-width:0.02;stroke-linecap:round;stroke-linejoin:round">
      <g
         id="fieldline1">
        <path
           d="M 0,0 0,3.01"
           id="path30"
           inkscape:connector-curvature="0" />
        <g
           id="arrows1">
          <use
             xlink:href="#arrow1"
             transform="matrix(0,2.7,-2.7,0,0,2.107)"
             id="use33"
             x="0"
             y="0"
             width="600"
             height="500" />
        </g>
      </g>
      <g
         id="fieldline2">
        <path
           d="m 0,0 -0.1252,0.3643 -0.0919,0.2606 -0.086,0.2368 -0.0846,0.226 -0.085,0.22 -0.0862,0.2166 -0.088,0.2144 L -0.737,1.9517 -0.8294,2.164 -0.9243,2.3757 -1.0217,2.5872 -1.1218,2.7986 -1.2245,3.01"
           id="path36"
           inkscape:connector-curvature="0" />
        <g
           id="arrows2">
          <use
             xlink:href="#arrow1"
             transform="matrix(-1.0869847,2.4715307,-2.4715307,-1.0869847,-0.8128,2.1256)"
             id="use39"
             x="0"
             y="0"
             width="600"
             height="500" />
        </g>
      </g>
      <g
         id="fieldline3">
        <path
           d="M 0,0 -0.1855,0.2394 -0.3151,0.4031 -0.4323,0.5473 -0.5441,0.6813 -0.6535,0.8085 -0.7619,0.9309 -0.8701,1.0494 -0.9786,1.1646 -1.0878,1.2771 -1.198,1.387 -1.3092,1.4946 -1.4217,1.6 -1.5355,1.7033 -1.6507,1.8045 -1.7672,1.9037 -1.8852,2.0009 -2.0046,2.0962 -2.1255,2.1894 -2.2477,2.2807 -2.3714,2.37 -2.4965,2.4572 -2.6229,2.5425 -2.7506,2.6257 -2.8797,2.7068 -3.01,2.7858"
           id="path42"
           inkscape:connector-curvature="0" />
        <g
           id="arrows3">
          <use
             xlink:href="#arrow1"
             transform="matrix(-2.1270487,1.6630286,-1.6630286,-2.1270487,-1.9901,2.0844)"
             id="use45"
             x="0"
             y="0"
             width="600"
             height="500" />
        </g>
      </g>
      <g
         id="fieldline4">
        <path
           d="M 0,0 -0.2222,0.1476 -0.3711,0.2439 -0.503,0.3266 -0.6261,0.4009 -0.744,0.4693 -0.8586,0.5331 -0.971,0.5929 l -0.1109,0.0563 -0.1099,0.053 -0.109,0.05 -0.1086,0.0471 -0.1081,0.0444 -0.1079,0.0415 -0.1077,0.039 -0.1075,0.0362 -0.1073,0.0337 -0.1072,0.0311 -0.1071,0.0286 -0.1069,0.026 -0.1067,0.0234 -0.1065,0.021 -0.1063,0.0184 -0.1059,0.0159 -0.1056,0.0134 -0.1052,0.011 -0.1047,0.0084"
           id="path48"
           inkscape:connector-curvature="0" />
        <g
           id="arrows4">
          <use
             xlink:href="#arrow1"
             transform="matrix(-2.6036823,0.71472965,-0.71472965,-2.6036823,-2.043,1.0214)"
             id="use51"
             x="0"
             y="0"
             width="600"
             height="500" />
        </g>
      </g>
      <g
         id="fieldline5">
        <path
           d="M 0,0 -0.2396,0.0653 -0.3949,0.1054 -0.529,0.1378 -0.6515,0.1649 -0.7666,0.188 -0.8764,0.2077 -0.9822,0.2242 -1.0848,0.2378 -1.1847,0.2486 -1.2824,0.2568 -1.378,0.2625 -1.4718,0.2656 -1.5639,0.2663 -1.6544,0.2646 -1.7433,0.2605 -1.8307,0.254 -1.9166,0.2453 -2.0009,0.2344 -2.0838,0.2212 -2.1651,0.2058 -2.2449,0.1882 -2.3231,0.1686 -2.3996,0.1469 -2.4746,0.1232 -2.5478,0.0974 -2.6193,0.0698 -2.6891,0.0402 -2.757,0.0088 -2.8231,-0.0244 -2.8874,-0.0593 -2.9497,-0.096 -3.01,-0.1342"
           id="path54"
           inkscape:connector-curvature="0" />
        <g
           id="arrows5">
          <use
             xlink:href="#arrow1"
             transform="matrix(-2.6435187,-0.54937136,0.54937136,-2.6435187,-2.1476,0.2087)"
             id="use57"
             x="0"
             y="0"
             width="600"
             height="500" />
        </g>
      </g>
      <g
         id="fieldline6">
        <path
           d="m 0,0 -0.2428,-0.0112 -0.1521,-0.0092 -0.1284,-0.01 -0.1146,-0.0113 -0.1055,-0.0129 -0.0988,-0.0144 -0.0934,-0.0162 -0.0889,-0.0178 -0.0851,-0.0195 -0.0816,-0.0213 -0.0784,-0.023 -0.0756,-0.0247 -0.0727,-0.0263 -0.0701,-0.028 -0.0675,-0.0297 -0.065,-0.0312 -0.0625,-0.0327 -0.0601,-0.0343 -0.0577,-0.0357 -0.0553,-0.0372 -0.0528,-0.0385 -0.0505,-0.0398 -0.048,-0.041 -0.0457,-0.0422 -0.0432,-0.0434 -0.0408,-0.0444 -0.0383,-0.0454 -0.036,-0.0464 L -2.2448,-0.8349 -2.2758,-0.883 -2.3044,-0.9318 -2.3305,-0.9813 -2.3541,-1.0314 -2.3752,-1.082 -2.3939,-1.1332 -2.41,-1.1848 -2.4237,-1.2368 -2.4349,-1.289 -2.4436,-1.3416 -2.4499,-1.3943 -2.4536,-1.4471 -2.4549,-1.5"
           id="path60"
           inkscape:connector-curvature="0" />
        <g
           id="arrows6">
          <use
             xlink:href="#arrow1"
             transform="matrix(-1.8551363,-1.9617516,1.9617516,-1.8551363,-2.0854,-0.6412)"
             id="use63"
             x="0"
             y="0"
             width="600"
             height="500" />
        </g>
      </g>
      <g
         id="fieldline7">
        <path
           d="m 0,0 -0.23,-0.0827 -0.1395,-0.0524 -0.1148,-0.0457 -0.1003,-0.0424 -0.0903,-0.0409 -0.0829,-0.0402 -0.0768,-0.0399 -0.0716,-0.04 -0.0671,-0.0404 -0.063,-0.0408 -0.0594,-0.0413 -0.0558,-0.042 L -1.204,-0.5913 -1.2534,-0.6345 -1.2998,-0.6784 -1.3432,-0.723 -1.3838,-0.7682 -1.4215,-0.8141 -1.4565,-0.8605 -1.4888,-0.9075 -1.5184,-0.955 -1.5453,-1.0029 -1.5697,-1.0514 -1.5913,-1.1002 -1.6105,-1.1494 -1.627,-1.1989 -1.641,-1.2487 -1.6524,-1.2986 -1.6613,-1.3488 -1.6676,-1.3991 -1.6714,-1.4495 -1.6727,-1.5"
           id="path66"
           inkscape:connector-curvature="0" />
        <g
           id="arrows7">
          <use
             xlink:href="#arrow1"
             transform="matrix(-1.5847319,-2.1860066,2.1860066,-1.5847319,-1.435,-0.8325)"
             id="use69"
             x="0"
             y="0"
             width="600"
             height="500" />
        </g>
      </g>
      <g
         id="fieldline8">
        <path
           d="M 0,0 -0.2003,-0.1448 -0.3182,-0.2325 -0.413,-0.3056 -0.494,-0.371 -0.5655,-0.4316 -0.6298,-0.4891 -0.6882,-0.5444 -0.7415,-0.5981 -0.7905,-0.6507 -0.8354,-0.7024 -0.8768,-0.7535 -0.9148,-0.8041 -0.9496,-0.8544 -0.9814,-0.9045 -1.0103,-0.9543 -1.0364,-1.0041 -1.0598,-1.0538 -1.0806,-1.1034 -1.0988,-1.153 -1.1145,-1.2026 -1.1278,-1.2521 -1.1385,-1.3017 -1.1469,-1.3513 -1.1529,-1.4008 -1.1564,-1.4504 -1.1576,-1.5"
           id="path72"
           inkscape:connector-curvature="0" />
        <g
           id="arrows8">
          <use
             xlink:href="#arrow1"
             transform="matrix(-1.2966034,-2.3682946,2.3682946,-1.2966034,-0.9995,-0.9368)"
             id="use75"
             x="0"
             y="0"
             width="600"
             height="500" />
        </g>
      </g>
      <g
         id="fieldline9">
        <path
           d="M 0,0 -0.1702,-0.2082 -0.2671,-0.3301 -0.3426,-0.4287 -0.4061,-0.5154 -0.4608,-0.5942 -0.5087,-0.6674 -0.551,-0.7366 -0.5887,-0.8028 -0.6221,-0.8667 -0.6518,-0.9286 -0.678,-0.9891 -0.701,-1.0483 -0.721,-1.1066 -0.7381,-1.1641 -0.7523,-1.2209 -0.7639,-1.2773 -0.7728,-1.3333 -0.7792,-1.389 -0.783,-1.4445 -0.7842,-1.5"
           id="path78"
           inkscape:connector-curvature="0" />
        <g
           id="arrows9">
          <use
             xlink:href="#arrow1"
             transform="matrix(-0.97067232,-2.5194831,2.5194831,-0.97067232,-0.6799,-0.9954)"
             id="use81"
             x="0"
             y="0"
             width="600"
             height="500" />
        </g>
      </g>
      <g
         id="fieldline10">
        <path
           d="m 0,0 -0.1263,-0.2648 -0.0698,-0.1507 -0.053,-0.1195 -0.0434,-0.1033 -0.0366,-0.0925 -0.0311,-0.085 -0.0266,-0.0794 -0.0229,-0.0751 -0.0195,-0.072 -0.0164,-0.0694 -0.0136,-0.0673 -0.0109,-0.066 -0.0083,-0.0646 -0.006,-0.064 L -0.4879,-1.4369 -0.4891,-1.5"
           id="path84"
           inkscape:connector-curvature="0" />
        <g
           id="arrows10">
          <use
             xlink:href="#arrow1"
             transform="matrix(-0.65181731,-2.6201401,2.6201401,-0.65181731,-0.4249,-1.0281)"
             id="use87"
             x="0"
             y="0"
             width="600"
             height="500" />
        </g>
      </g>
      <g
         id="fieldline11">
        <path
           d="M 0,0 -0.0777,-0.3501 -0.1188,-0.5438 -0.1485,-0.6942 -0.1718,-0.8228 -0.1902,-0.9373 -0.2048,-1.0422 -0.2163,-1.1404 -0.2248,-1.2339 -0.2308,-1.3243 -0.2343,-1.4126 -0.2355,-1.5"
           id="path90"
           inkscape:connector-curvature="0" />
        <g
           id="arrows11">
          <use
             xlink:href="#arrow1"
             transform="matrix(-0.32249808,-2.6806706,2.6806706,-0.32249808,-0.2048,-1.0449)"
             id="use93"
             x="0"
             y="0"
             width="600"
             height="500" />
        </g>
      </g>
      <g
         id="fieldline12">
        <path
           d="M 0,-0.1055 0,-1.5"
           id="path96"
           inkscape:connector-curvature="0" />
        <g
           id="arrows12">
          <use
             xlink:href="#arrow1"
             transform="matrix(0,-2.7,2.7,0,0,-1.0817)"
             id="use99"
             x="0"
             y="0"
             width="600"
             height="500" />
        </g>
      </g>
      <g
         id="fieldline13">
        <path
           d="M 0,0 0.0777,-0.3501 0.1188,-0.5438 0.1485,-0.6942 0.1718,-0.8228 0.1902,-0.9373 0.2048,-1.0422 0.2163,-1.1404 0.2248,-1.2339 0.2308,-1.3243 0.2343,-1.4126 0.2355,-1.5"
           id="path102"
           inkscape:connector-curvature="0" />
        <g
           id="arrows13">
          <use
             xlink:href="#arrow1"
             transform="matrix(0.32249808,-2.6806706,2.6806706,0.32249808,0.2048,-1.0449)"
             id="use105"
             x="0"
             y="0"
             width="600"
             height="500" />
        </g>
      </g>
      <g
         id="fieldline14">
        <path
           d="m 0,0 0.1263,-0.2648 0.0698,-0.1507 0.053,-0.1195 0.0434,-0.1033 0.0366,-0.0925 0.0311,-0.085 0.0266,-0.0794 0.0229,-0.0751 0.0195,-0.072 0.0164,-0.0694 0.0136,-0.0673 0.0109,-0.066 0.0083,-0.0646 0.006,-0.064 L 0.4879,-1.4369 0.4891,-1.5"
           id="path108"
           inkscape:connector-curvature="0" />
        <g
           id="arrows14">
          <use
             xlink:href="#arrow1"
             transform="matrix(0.65181731,-2.6201401,2.6201401,0.65181731,0.4249,-1.0281)"
             id="use111"
             x="0"
             y="0"
             width="600"
             height="500" />
        </g>
      </g>
      <g
         id="fieldline15">
        <path
           d="M 0,0 0.1702,-0.2082 0.2671,-0.3301 0.3426,-0.4287 0.4061,-0.5154 0.4608,-0.5942 0.5087,-0.6674 0.551,-0.7366 0.5887,-0.8028 0.6221,-0.8667 0.6518,-0.9286 0.678,-0.9891 0.701,-1.0483 0.721,-1.1066 0.7381,-1.1641 0.7523,-1.2209 0.7639,-1.2773 0.7728,-1.3333 0.7792,-1.389 0.783,-1.4445 0.7842,-1.5"
           id="path114"
           inkscape:connector-curvature="0" />
        <g
           id="arrows15">
          <use
             xlink:href="#arrow1"
             transform="matrix(0.97067232,-2.5194831,2.5194831,0.97067232,0.6799,-0.9954)"
             id="use117"
             x="0"
             y="0"
             width="600"
             height="500" />
        </g>
      </g>
      <g
         id="fieldline16">
        <path
           d="M 0,0 0.2003,-0.1448 0.3182,-0.2325 0.413,-0.3056 0.494,-0.371 0.5655,-0.4316 0.6298,-0.4891 0.6882,-0.5444 0.7415,-0.5981 0.7905,-0.6507 0.8354,-0.7024 0.8768,-0.7535 0.9148,-0.8041 0.9496,-0.8544 0.9814,-0.9045 1.0103,-0.9543 1.0364,-1.0041 1.0598,-1.0538 1.0806,-1.1034 1.0988,-1.153 1.1145,-1.2026 1.1278,-1.2521 1.1385,-1.3017 1.1469,-1.3513 1.1529,-1.4008 1.1564,-1.4504 1.1576,-1.5"
           id="path120"
           inkscape:connector-curvature="0" />
        <g
           id="arrows16">
          <use
             xlink:href="#arrow1"
             transform="matrix(1.2966034,-2.3682946,2.3682946,1.2966034,0.9995,-0.9368)"
             id="use123"
             x="0"
             y="0"
             width="600"
             height="500" />
        </g>
      </g>
      <g
         id="fieldline17">
        <path
           d="m 0,0 0.23,-0.0827 0.1395,-0.0524 0.1148,-0.0457 0.1003,-0.0424 0.0903,-0.0409 0.0829,-0.0402 0.0768,-0.0399 0.0716,-0.04 0.0671,-0.0404 0.063,-0.0408 0.0594,-0.0413 0.0558,-0.042 L 1.204,-0.5913 1.2534,-0.6345 1.2998,-0.6784 1.3432,-0.723 1.3838,-0.7682 1.4215,-0.8141 1.4565,-0.8605 1.4888,-0.9075 1.5184,-0.955 1.5453,-1.0029 1.5697,-1.0514 1.5913,-1.1002 1.6105,-1.1494 1.627,-1.1989 1.641,-1.2487 1.6524,-1.2986 1.6613,-1.3488 1.6676,-1.3991 1.6714,-1.4495 1.6727,-1.5"
           id="path126"
           inkscape:connector-curvature="0" />
        <g
           id="arrows17">
          <use
             xlink:href="#arrow1"
             transform="matrix(1.5847319,-2.1860066,2.1860066,1.5847319,1.435,-0.8325)"
             id="use129"
             x="0"
             y="0"
             width="600"
             height="500" />
        </g>
      </g>
      <g
         id="fieldline18">
        <path
           d="m 0,0 0.2428,-0.0112 0.1521,-0.0092 0.1284,-0.01 0.1146,-0.0113 0.1055,-0.0129 0.0988,-0.0144 0.0934,-0.0162 0.0889,-0.0178 0.0851,-0.0195 0.0816,-0.0213 0.0784,-0.023 0.0756,-0.0247 0.0727,-0.0263 0.0701,-0.028 0.0675,-0.0297 0.065,-0.0312 0.0625,-0.0327 0.0601,-0.0343 0.0577,-0.0357 0.0553,-0.0372 0.0528,-0.0385 0.0505,-0.0398 0.048,-0.041 0.0457,-0.0422 0.0432,-0.0434 0.0408,-0.0444 0.0383,-0.0454 0.036,-0.0464 L 2.2448,-0.8349 2.2758,-0.883 2.3044,-0.9318 2.3305,-0.9813 2.3541,-1.0314 2.3752,-1.082 2.3939,-1.1332 2.41,-1.1848 2.4237,-1.2368 2.4349,-1.289 2.4436,-1.3416 2.4499,-1.3943 2.4536,-1.4471 2.4549,-1.5"
           id="path132"
           inkscape:connector-curvature="0" />
        <g
           id="arrows18">
          <use
             xlink:href="#arrow1"
             transform="matrix(1.8551363,-1.9617516,1.9617516,1.8551363,2.0854,-0.6412)"
             id="use135"
             x="0"
             y="0"
             width="600"
             height="500" />
        </g>
      </g>
      <g
         id="fieldline19">
        <path
           d="M 0,0 0.2396,0.0653 0.3949,0.1054 0.529,0.1378 0.6515,0.1649 0.7666,0.188 0.8764,0.2077 0.9822,0.2242 1.0848,0.2378 1.1847,0.2486 1.2824,0.2568 1.378,0.2625 1.4718,0.2656 1.5639,0.2663 1.6544,0.2646 1.7433,0.2605 1.8307,0.254 1.9166,0.2453 2.0009,0.2344 2.0838,0.2212 2.1651,0.2058 2.2449,0.1882 2.3231,0.1686 2.3996,0.1469 2.4746,0.1232 2.5478,0.0974 2.6193,0.0698 2.6891,0.0402 2.757,0.0088 2.8231,-0.0244 2.8874,-0.0593 2.9497,-0.096 3.01,-0.1342"
           id="path138"
           inkscape:connector-curvature="0" />
        <g
           id="arrows19">
          <use
             xlink:href="#arrow1"
             transform="matrix(2.6435187,-0.54937136,0.54937136,2.6435187,2.1476,0.2087)"
             id="use141"
             x="0"
             y="0"
             width="600"
             height="500" />
        </g>
      </g>
      <g
         id="fieldline20">
        <path
           d="M 0,0 0.2222,0.1476 0.3711,0.2439 0.503,0.3266 0.6261,0.4009 0.744,0.4693 0.8586,0.5331 0.971,0.5929 l 0.1109,0.0563 0.1099,0.053 0.109,0.05 0.1086,0.0471 0.1081,0.0444 0.1079,0.0415 0.1077,0.039 0.1075,0.0362 0.1073,0.0337 0.1072,0.0311 0.1071,0.0286 0.1069,0.026 0.1067,0.0234 0.1065,0.021 0.1063,0.0184 0.1059,0.0159 0.1056,0.0134 0.1052,0.011 0.1047,0.0084"
           id="path144"
           inkscape:connector-curvature="0" />
        <g
           id="arrows20">
          <use
             xlink:href="#arrow1"
             transform="matrix(2.6036823,0.71472965,-0.71472965,2.6036823,2.043,1.0214)"
             id="use147"
             x="0"
             y="0"
             width="600"
             height="500" />
        </g>
      </g>
      <g
         id="fieldline21">
        <path
           d="M 0,0 0.1855,0.2394 0.3151,0.4031 0.4323,0.5473 0.5441,0.6813 0.6535,0.8085 0.7619,0.9309 0.8701,1.0494 0.9786,1.1646 1.0878,1.2771 1.198,1.387 1.3092,1.4946 1.4217,1.6 1.5355,1.7033 1.6507,1.8045 1.7672,1.9037 1.8852,2.0009 2.0046,2.0962 2.1255,2.1894 2.2477,2.2807 2.3714,2.37 2.4965,2.4572 2.6229,2.5425 2.7506,2.6257 2.8797,2.7068 3.01,2.7858"
           id="path150"
           inkscape:connector-curvature="0" />
        <g
           id="arrows21">
          <use
             xlink:href="#arrow1"
             transform="matrix(2.1270487,1.6630286,-1.6630286,2.1270487,1.9901,2.0844)"
             id="use153"
             x="0"
             y="0"
             width="600"
             height="500" />
        </g>
      </g>
      <g
         id="fieldline22">
        <path
           d="m 0,0 0.1252,0.3643 0.0919,0.2606 0.086,0.2368 0.0846,0.226 0.085,0.22 0.0862,0.2166 0.088,0.2144 L 0.737,1.9517 0.8294,2.164 0.9243,2.3757 1.0217,2.5872 1.1218,2.7986 1.2245,3.01"
           id="path156"
           inkscape:connector-curvature="0" />
        <g
           id="arrows22">
          <use
             xlink:href="#arrow1"
             transform="matrix(1.0869847,2.4715307,-2.4715307,1.0869847,0.8128,2.1256)"
             id="use159"
             x="0"
             y="0"
             width="600"
             height="500" />
        </g>
      </g>
    </g>
    <g
       id="symbols">
      <circle
         sodipodi:ry="14"
         sodipodi:rx="14"
         sodipodi:cy="0"
         sodipodi:cx="0"
         d="M 14,0 C 14,7.7319865 7.7319865,14 0,14 -7.7319865,14 -14,7.7319865 -14,0 c 0,-7.7319865 6.2680135,-14 14,-14 7.7319865,0 14,6.2680135 14,14 z"
         id="circle163"
         r="14"
         cy="0"
         cx="0"
         style="fill:#ff0000;stroke:none"
         transform="scale(0.015,0.015)" />
      <circle
         sodipodi:ry="14"
         sodipodi:rx="14"
         sodipodi:cy="0"
         sodipodi:cx="0"
         d="M 14,0 C 14,7.7319865 7.7319865,14 0,14 -7.7319865,14 -14,7.7319865 -14,0 c 0,-7.7319865 6.2680135,-14 14,-14 7.7319865,0 14,6.2680135 14,14 z"
         id="circle165"
         style="fill:url(#white_spot);stroke:#000000;stroke-width:2"
         r="14"
         cy="0"
         cx="0"
         transform="scale(0.015,0.015)" />
      <g
         id="metal_surface">
        <defs
           id="defs170">
          <linearGradient
             id="grad1"
             x1="-0.9931767"
             x2="-0.9931767"
             y1="-6.463408"
             y2="-4.4770546"
             gradientUnits="userSpaceOnUse"
             gradientTransform="scale(3.1036773,0.32219845)">
            <stop
               stop-color="#bbb"
               offset="0"
               stop-opacity="0"
               id="stop173" />
            <stop
               stop-color="#bbb"
               offset="1"
               stop-opacity="1"
               id="stop175" />
          </linearGradient>
        </defs>
        <rect
           y="-2.02"
           x="-3.02"
           style="fill:url(#grad1);stroke:#000000;stroke-width:0.03"
           height="0.51499999"
           width="6.04"
           id="rect177" />
      </g>
    </g>
  </g>
  <g
     style="font-style:normal;font-variant:normal;font-weight:normal;font-stretch:normal;letter-spacing:normal;word-spacing:normal;text-anchor:start;fill:none;stroke:#000000;stroke-linecap:butt;stroke-linejoin:miter;stroke-miterlimit:10.43299961;stroke-opacity:1;stroke-dasharray:none;stroke-dashoffset:0"
     id="content"
     transform="matrix(3.055235,0,0,-2.8502792,-426.1828,2269.807)"
     xml:space="preserve"
     stroke-miterlimit="10.433"
     font-style="normal"
     font-variant="normal"
     font-weight="normal"
     font-stretch="normal"
     font-size-adjust="none"
     letter-spacing="normal"
     word-spacing="normal"
     ns0:text="$q$"
     ns0:preamble="">
<path
   style="fill:#000000;stroke-width:0"
   inkscape:connector-curvature="0"
   d="m 227.94,711.41 0,0.01 0,0 0,0.01 0,0 0,0 -0.01,0.01 0,0 0,0.01 0,0 0,0 0,0.01 -0.01,0 0,0.01 0,0 0,0.01 -0.01,0 0,0 0,0.01 -0.01,0 0,0 0,0.01 -0.01,0 0,0 -0.01,0 0,0.01 -0.01,0 0,0 -0.01,0 0,0 -0.01,0 -0.01,0 0,0 c -0.11,0 -0.51,-0.39 -0.68,-0.68 -0.22,0.53 -0.61,0.69 -0.93,0.69 v -0.22 c 0.65,0 0.79,-0.8 0.79,-0.87 0,-0.06 -0.55,-2.24 -0.58,-2.28 -0.15,-0.28 -0.7,-0.92 -1.26,-0.92 h 0 c -0.6,0 -0.64,0.77 -0.64,0.94 0,0.48 0.29,1.56 0.46,1.98 0.31,0.74 0.82,1.15 1.23,1.15 v 0.22 c -1.17,0 -2.4,-1.47 -2.4,-2.91 0,-0.98 0.59,-1.59 1.32,-1.59 0.42,0 0.81,0.23 1.17,0.59 -0.09,-0.35 -0.42,-1.69 -0.45,-1.78 -0.08,-0.28 -0.16,-0.32 -0.71,-0.33 -0.13,0 -0.23,0 -0.23,-0.2 0,-0.01 0,-0.11 0.13,-0.11 0.32,0 0.67,0.03 0.99,0.03 0.34,0 0.7,-0.03 1.03,-0.03 0.05,0 0.18,0 0.18,0.2 0,0.11 -0.1,0.11 -0.26,0.11 -0.48,0 -0.48,0.07 -0.48,0.16 0,0.07 0.02,0.13 0.04,0.22 z"
   id="path3362" />
</g></svg>
