<?xml version="1.0" encoding="utf-8" standalone="no"?>
<!DOCTYPE svg PUBLIC "-//W3C//DTD SVG 1.1//EN"
  "http://www.w3.org/Graphics/SVG/1.1/DTD/svg11.dtd">
<!-- Created with matplotlib (http://matplotlib.sourceforge.net/) -->
<svg height="432pt" version="1.1" viewBox="0 0 576 432" width="576pt" xmlns="http://www.w3.org/2000/svg" xmlns:xlink="http://www.w3.org/1999/xlink">
 <defs>
  <style type="text/css">
*{stroke-linecap:square;stroke-linejoin:round;}
  </style>
 </defs>
 <g id="figure_1">
  <g id="patch_1">
   <path d="
M0 432
L576 432
L576 0
L0 0
z
" style="fill:#ffffff;"/>
  </g>
  <g id="axes_1">
   <g id="patch_2">
    <path d="
M295.2 388.8
C341.027 388.8 384.983 370.593 417.388 338.188
C449.793 305.783 468 261.827 468 216
C468 170.173 449.793 126.217 417.388 93.8119
C384.983 61.4073 341.027 43.2 295.2 43.2
C249.373 43.2 205.417 61.4073 173.012 93.8119
C140.607 126.217 122.4 170.173 122.4 216
C122.4 261.827 140.607 305.783 173.012 338.188
C205.417 370.593 249.373 388.8 295.2 388.8
z
" style="fill:#ffffff;"/>
   </g>
   <g id="line2d_1">
    <path clip-path="url(#p4bac5e7e03)" d="
M295.2 216
L296.612 215.866
L299.074 215.383
L302.653 214.325
L304.822 213.517
L307.216 212.491
L309.814 211.226
L312.59 209.705
L315.519 207.911
L318.571 205.83
L321.717 203.45
L324.926 200.765
L328.165 197.769
L331.402 194.459
L334.604 190.836
L337.737 186.905
L340.768 182.673
L343.663 178.15
L346.391 173.351
L348.919 168.292
L351.219 162.993
L353.262 157.478
L355.021 151.771
L356.472 145.901
L357.592 139.898
L358.363 133.797
L358.767 127.63
L358.792 121.435
L358.427 115.249
L357.665 109.111
L356.502 103.06
L354.939 97.1361
L352.98 91.3787
L350.63 85.827
L347.903 80.5195
L344.81 75.4933
L341.372 70.7841
L337.607 66.426
L333.541 62.4505
L329.201 58.8867
L324.615 55.761
L319.816 53.0967
L314.838 50.9137
L309.717 49.2284
L304.489 48.0534
L299.193 47.3978
L293.868 47.2664
L288.553 47.6603
L283.286 48.5765
L278.107 50.0079
L273.052 51.9439
L268.16 54.3699
L263.463 57.2676
L258.996 60.6154
L254.79 64.3885
L250.871 68.5592
L247.267 73.0969
L243.999 77.9689
L241.087 83.1404
L238.547 88.5747
L236.391 94.2341
L234.629 100.08
L233.266 106.072
L232.304 112.171
L231.741 118.338
L231.572 124.534
L231.788 130.719
L232.378 136.858
L233.326 142.914
L234.614 148.854
L236.221 154.646
L238.125 160.261
L240.3 165.671
L242.718 170.853
L245.35 175.784
L248.166 180.447
L251.133 184.826
L254.219 188.909
L257.39 192.686
L260.614 196.153
L263.856 199.306
L267.085 202.147
L270.266 204.678
L273.369 206.907
L276.363 208.843
L279.219 210.499
L281.909 211.889
L284.408 213.032
L288.74 214.655
L292.05 215.549
L294.845 215.983
L295.161 216.001
L294.845 216.017
L293.283 216.213
L290.531 216.819
L286.692 218.053
L284.408 218.968
L281.909 220.111
L279.219 221.501
L276.363 223.157
L273.369 225.093
L270.266 227.322
L267.085 229.853
L263.856 232.694
L260.614 235.847
L257.39 239.314
L254.219 243.091
L251.133 247.174
L248.166 251.553
L245.35 256.216
L242.718 261.147
L240.3 266.329
L238.125 271.739
L236.221 277.354
L234.614 283.146
L233.326 289.086
L232.378 295.142
L231.788 301.281
L231.572 307.466
L231.741 313.662
L232.304 319.829
L233.266 325.928
L234.629 331.92
L236.391 337.766
L238.547 343.425
L241.087 348.86
L243.999 354.031
L247.267 358.903
L250.871 363.441
L254.79 367.611
L258.996 371.385
L263.463 374.732
L268.16 377.63
L273.052 380.056
L278.107 381.992
L283.286 383.424
L288.553 384.34
L293.868 384.734
L299.193 384.602
L304.489 383.947
L309.717 382.772
L314.838 381.086
L319.816 378.903
L324.615 376.239
L329.201 373.113
L333.541 369.55
L337.607 365.574
L341.372 361.216
L344.81 356.507
L347.903 351.481
L350.63 346.173
L352.98 340.621
L354.939 334.864
L356.502 328.94
L357.665 322.889
L358.427 316.751
L358.792 310.565
L358.767 304.37
L358.363 298.203
L357.592 292.102
L356.472 286.099
L355.021 280.229
L353.262 274.522
L351.219 269.007
L348.919 263.708
L346.391 258.649
L343.663 253.85
L340.768 249.327
L337.737 245.095
L334.604 241.164
L331.402 237.541
L328.165 234.231
L324.926 231.235
L321.717 228.55
L318.571 226.17
L315.519 224.089
L312.59 222.295
L309.814 220.774
L307.216 219.509
L302.653 217.675
L299.074 216.617
L296.612 216.134
L295.2 216
L295.2 216" style="fill:none;stroke:#0000ff;stroke-width:2.0;"/>
   </g>
   <g id="line2d_2">
    <path clip-path="url(#p4bac5e7e03)" d="
M295.2 216
L296.46 215.88
L298.609 215.457
L301.617 214.558
L305.246 213.066
L307.204 212.079
L309.207 210.93
L311.213 209.625
L313.184 208.174
L315.078 206.592
L316.858 204.9
L318.489 203.12
L319.937 201.281
L321.174 199.412
L322.176 197.549
L322.923 195.724
L323.4 193.975
L323.601 192.338
L323.521 190.848
L323.165 189.539
L322.542 188.441
L321.667 187.583
L320.56 186.987
L319.246 186.671
L317.754 186.647
L316.116 186.923
L314.368 187.497
L312.545 188.361
L310.684 189.504
L308.823 190.902
L306.996 192.53
L305.236 194.354
L303.573 196.337
L302.033 198.436
L300.636 200.604
L299.399 202.794
L298.331 204.957
L296.714 209.004
L295.748 212.372
L295.309 214.747
L295.2 215.989
L295.19 215.738
L295.021 214.26
L294.466 211.612
L293.346 208.042
L292.538 206.013
L291.557 203.882
L290.403 201.7
L289.085 199.514
L287.614 197.375
L286.009 195.329
L284.295 193.42
L282.497 191.689
L280.649 190.172
L278.783 188.899
L276.937 187.893
L275.146 187.173
L273.449 186.747
L271.88 186.622
L270.473 186.793
L269.259 187.251
L268.265 187.981
L267.514 188.962
L267.023 190.169
L266.804 191.573
L266.865 193.141
L267.204 194.838
L267.818 196.629
L268.694 198.478
L269.816 200.348
L271.162 202.206
L272.706 204.019
L274.415 205.759
L276.257 207.398
L278.195 208.917
L280.188 210.296
L282.198 211.524
L284.183 212.593
L287.923 214.244
L291.112 215.283
L293.494 215.811
L295.164 216.001
L294.881 216.015
L293.494 216.189
L291.112 216.717
L287.923 217.756
L284.183 219.407
L282.198 220.476
L280.188 221.704
L278.195 223.083
L276.257 224.602
L274.415 226.241
L272.706 227.981
L271.162 229.794
L269.816 231.652
L268.694 233.522
L267.818 235.371
L267.204 237.162
L266.865 238.859
L266.804 240.427
L267.023 241.831
L267.514 243.038
L268.265 244.019
L269.259 244.749
L270.473 245.207
L271.88 245.378
L273.449 245.253
L275.146 244.827
L276.937 244.107
L278.783 243.101
L280.649 241.828
L282.497 240.311
L284.295 238.58
L286.009 236.671
L287.614 234.625
L289.085 232.486
L290.403 230.3
L291.557 228.118
L292.538 225.987
L293.985 222.077
L294.804 218.931
L295.19 216.262
L295.2 216.011
L295.202 216.095
L295.202 216.095
L295.309 217.253
L295.748 219.628
L296.714 222.996
L297.437 224.957
L298.331 227.043
L299.399 229.206
L300.636 231.396
L302.033 233.564
L303.573 235.663
L305.236 237.646
L306.996 239.47
L308.823 241.098
L310.684 242.496
L312.545 243.639
L314.368 244.503
L316.116 245.077
L317.754 245.353
L319.246 245.329
L320.56 245.013
L321.667 244.417
L322.542 243.559
L323.165 242.461
L323.521 241.152
L323.601 239.662
L323.4 238.025
L322.923 236.276
L322.176 234.451
L321.174 232.588
L319.937 230.719
L318.489 228.88
L316.858 227.1
L315.078 225.408
L313.184 223.826
L311.213 222.375
L309.207 221.07
L307.204 219.921
L303.371 218.109
L300.019 216.924
L297.415 216.281
L295.2 216
L295.2 216" style="fill:none;stroke:#008000;stroke-width:2.0;"/>
   </g>
   <g id="line2d_3">
    <path clip-path="url(#p4bac5e7e03)" d="
M295.2 216
L295.992 215.925
L297.312 215.664
L299.091 215.126
L301.118 214.272
L303.153 213.121
L304.96 211.753
L306.336 210.293
L307.136 208.898
L307.294 208.276
L307.288 207.732
L307.122 207.281
L306.803 206.938
L306.345 206.714
L305.765 206.617
L305.082 206.65
L303.495 207.094
L301.769 207.988
L300.082 209.213
L298.577 210.619
L297.35 212.039
L296.099 213.889
L295.364 215.42
L295.2 216
L295.167 215.834
L294.859 214.982
L294.14 213.617
L293.308 212.379
L292.158 210.978
L290.716 209.554
L289.063 208.268
L287.331 207.279
L285.692 206.714
L284.965 206.617
L284.331 206.65
L283.809 206.811
L283.419 207.095
L283.175 207.494
L283.088 207.993
L283.164 208.579
L283.405 209.231
L283.806 209.931
L285.049 211.391
L286.765 212.795
L288.765 214.01
L290.816 214.942
L292.679 215.558
L294.646 215.956
L295.178 216
L294.646 216.044
L293.468 216.248
L291.786 216.711
L289.799 217.485
L287.744 218.567
L285.859 219.891
L284.359 221.342
L283.405 222.769
L283.164 223.421
L283.088 224.007
L283.175 224.506
L283.419 224.905
L283.809 225.189
L284.331 225.35
L284.965 225.383
L285.692 225.286
L287.331 224.721
L289.063 223.732
L290.716 222.446
L292.158 221.022
L293.308 219.621
L294.444 217.856
L295.132 216.29
L295.2 216
L295.248 216.222
L295.624 217.2
L296.439 218.672
L297.35 219.961
L298.577 221.381
L300.082 222.787
L301.769 224.012
L303.495 224.906
L305.082 225.35
L305.765 225.383
L306.345 225.286
L306.803 225.062
L307.122 224.719
L307.288 224.268
L307.294 223.724
L307.136 223.102
L306.814 222.423
L306.336 221.707
L304.96 220.247
L303.153 218.879
L301.118 217.728
L299.091 216.874
L297.312 216.336
L295.29 216.003
L295.2 216
L295.2 216" style="fill:none;stroke:#ff0000;stroke-width:2.0;"/>
   </g>
   <g id="line2d_4">
    <path clip-path="url(#p4bac5e7e03)" d="
M295.2 216
L295.954 215.904
L297.26 215.537
L298.713 214.852
L299.519 214.281
L300.057 213.701
L300.261 213.201
L300.122 212.857
L299.683 212.722
L299.025 212.813
L298.255 213.109
L297.109 213.816
L295.968 214.858
L295.285 215.801
L295.2 216
L295.161 215.896
L294.706 215.185
L293.786 214.219
L292.734 213.435
L291.561 212.869
L290.865 212.723
L290.362 212.802
L290.142 213.097
L290.259 213.566
L290.718 214.133
L291.466 214.715
L292.894 215.444
L294.26 215.865
L295.188 216
L294.895 216.024
L293.843 216.238
L292.4 216.77
L291.061 217.573
L290.448 218.158
L290.157 218.686
L290.212 219.075
L290.583 219.266
L291.195 219.231
L291.948 218.981
L293.111 218.315
L294.073 217.516
L294.953 216.473
L295.2 216
L295.251 216.131
L295.62 216.719
L296.466 217.647
L297.475 218.443
L298.648 219.062
L299.375 219.261
L299.936 219.239
L300.233 218.995
L300.203 218.564
L299.827 218.013
L299.143 217.427
L298.244 216.889
L296.783 216.304
L295.396 216.012
L295.2 216
L295.2 216" style="fill:none;stroke:#00bfbf;stroke-width:2.0;"/>
   </g>
   <g id="line2d_5">
    <path clip-path="url(#p4bac5e7e03)" d="
M295.2 216
L295.775 215.909
L296.657 215.575
L297.241 215.112
L297.253 214.865
L296.927 214.819
L296.248 215.07
L295.55 215.573
L295.2 216
L295.125 215.877
L294.683 215.427
L293.889 214.943
L293.276 214.814
L293.105 214.968
L293.199 215.167
L293.642 215.518
L294.52 215.881
L295.194 216
L294.903 216.033
L294.072 216.272
L293.31 216.718
L293.105 217.032
L293.181 217.158
L293.55 217.167
L294.238 216.882
L294.976 216.301
L295.2 216
L295.26 216.103
L295.657 216.522
L296.423 217.019
L297.065 217.191
L297.292 217.072
L297.241 216.888
L296.852 216.54
L295.989 216.151
L295.2 216
L295.2 216" style="fill:none;stroke:#bf00bf;stroke-width:2.0;"/>
   </g>
   <g id="matplotlib.axis_1">
    <g id="xtick_1">
     <g id="line2d_6">
      <path clip-path="url(#p4bac5e7e03)" d="
M295.2 216
L468 216" style="fill:none;stroke:#000000;stroke-dasharray:1.000000,3.000000;stroke-dashoffset:0.0;stroke-linecap:butt;stroke-width:0.5;"/>
     </g>
     <g id="text_1">
      <!-- 0° -->
      <defs>
       <path d="
M31.7812 66.4062
Q24.1719 66.4062 20.3281 58.9062
Q16.5 51.4219 16.5 36.375
Q16.5 21.3906 20.3281 13.8906
Q24.1719 6.39062 31.7812 6.39062
Q39.4531 6.39062 43.2812 13.8906
Q47.125 21.3906 47.125 36.375
Q47.125 51.4219 43.2812 58.9062
Q39.4531 66.4062 31.7812 66.4062
M31.7812 74.2188
Q44.0469 74.2188 50.5156 64.5156
Q56.9844 54.8281 56.9844 36.375
Q56.9844 17.9688 50.5156 8.26562
Q44.0469 -1.42188 31.7812 -1.42188
Q19.5312 -1.42188 13.0625 8.26562
Q6.59375 17.9688 6.59375 36.375
Q6.59375 54.8281 13.0625 64.5156
Q19.5312 74.2188 31.7812 74.2188" id="DejaVuSans-30"/>
       <path d="
M25 67.9219
Q21.0938 67.9219 18.4062 65.2031
Q15.7188 62.5 15.7188 58.5938
Q15.7188 54.7344 18.4062 52.0781
Q21.0938 49.4219 25 49.4219
Q28.9062 49.4219 31.5938 52.0781
Q34.2812 54.7344 34.2812 58.5938
Q34.2812 62.4531 31.5625 65.1875
Q28.8594 67.9219 25 67.9219
M25 74.2188
Q28.125 74.2188 31 73.0156
Q33.8906 71.8281 35.9844 69.5781
Q38.2344 67.3906 39.3594 64.5938
Q40.4844 61.8125 40.4844 58.5938
Q40.4844 52.1562 35.9688 47.6875
Q31.4531 43.2188 24.9062 43.2188
Q18.3125 43.2188 13.9062 47.6094
Q9.51562 52 9.51562 58.5938
Q9.51562 65.1406 14 69.6719
Q18.5 74.2188 25 74.2188" id="DejaVuSans-b0"/>
      </defs>
      <g transform="translate(479.4290625 220.3678125)scale(0.12 -0.12)">
       <use xlink:href="#DejaVuSans-30"/>
       <use x="63.623046875" xlink:href="#DejaVuSans-b0"/>
      </g>
     </g>
    </g>
    <g id="xtick_2">
     <g id="line2d_7">
      <path clip-path="url(#p4bac5e7e03)" d="
M295.2 216
L417.388 93.8119" style="fill:none;stroke:#000000;stroke-dasharray:1.000000,3.000000;stroke-dashoffset:0.0;stroke-linecap:butt;stroke-width:0.5;"/>
     </g>
     <g id="text_2">
      <!-- 45° -->
      <defs>
       <path d="
M10.7969 72.9062
L49.5156 72.9062
L49.5156 64.5938
L19.8281 64.5938
L19.8281 46.7344
Q21.9688 47.4688 24.1094 47.8281
Q26.2656 48.1875 28.4219 48.1875
Q40.625 48.1875 47.75 41.5
Q54.8906 34.8125 54.8906 23.3906
Q54.8906 11.625 47.5625 5.09375
Q40.2344 -1.42188 26.9062 -1.42188
Q22.3125 -1.42188 17.5469 -0.640625
Q12.7969 0.140625 7.71875 1.70312
L7.71875 11.625
Q12.1094 9.23438 16.7969 8.0625
Q21.4844 6.89062 26.7031 6.89062
Q35.1562 6.89062 40.0781 11.3281
Q45.0156 15.7656 45.0156 23.3906
Q45.0156 31 40.0781 35.4375
Q35.1562 39.8906 26.7031 39.8906
Q22.75 39.8906 18.8125 39.0156
Q14.8906 38.1406 10.7969 36.2812
z
" id="DejaVuSans-35"/>
       <path d="
M37.7969 64.3125
L12.8906 25.3906
L37.7969 25.3906
z

M35.2031 72.9062
L47.6094 72.9062
L47.6094 25.3906
L58.0156 25.3906
L58.0156 17.1875
L47.6094 17.1875
L47.6094 0
L37.7969 0
L37.7969 17.1875
L4.89062 17.1875
L4.89062 26.7031
z
" id="DejaVuSans-34"/>
      </defs>
      <g transform="translate(419.836231968 85.9609555321)scale(0.12 -0.12)">
       <use xlink:href="#DejaVuSans-34"/>
       <use x="63.623046875" xlink:href="#DejaVuSans-35"/>
       <use x="127.24609375" xlink:href="#DejaVuSans-b0"/>
      </g>
     </g>
    </g>
    <g id="xtick_3">
     <g id="line2d_8">
      <path clip-path="url(#p4bac5e7e03)" d="
M295.2 216
L295.2 43.2" style="fill:none;stroke:#000000;stroke-dasharray:1.000000,3.000000;stroke-dashoffset:0.0;stroke-linecap:butt;stroke-width:0.5;"/>
     </g>
     <g id="text_3">
      <!-- 90° -->
      <defs>
       <path d="
M10.9844 1.51562
L10.9844 10.5
Q14.7031 8.73438 18.5 7.8125
Q22.3125 6.89062 25.9844 6.89062
Q35.75 6.89062 40.8906 13.4531
Q46.0469 20.0156 46.7812 33.4062
Q43.9531 29.2031 39.5938 26.9531
Q35.25 24.7031 29.9844 24.7031
Q19.0469 24.7031 12.6719 31.3125
Q6.29688 37.9375 6.29688 49.4219
Q6.29688 60.6406 12.9375 67.4219
Q19.5781 74.2188 30.6094 74.2188
Q43.2656 74.2188 49.9219 64.5156
Q56.5938 54.8281 56.5938 36.375
Q56.5938 19.1406 48.4062 8.85938
Q40.2344 -1.42188 26.4219 -1.42188
Q22.7031 -1.42188 18.8906 -0.6875
Q15.0938 0.046875 10.9844 1.51562
M30.6094 32.4219
Q37.25 32.4219 41.125 36.9531
Q45.0156 41.5 45.0156 49.4219
Q45.0156 57.2812 41.125 61.8438
Q37.25 66.4062 30.6094 66.4062
Q23.9688 66.4062 20.0938 61.8438
Q16.2188 57.2812 16.2188 49.4219
Q16.2188 41.5 20.0938 36.9531
Q23.9688 32.4219 30.6094 32.4219" id="DejaVuSans-39"/>
      </defs>
      <g transform="translate(285.51375 30.2878125)scale(0.12 -0.12)">
       <use xlink:href="#DejaVuSans-39"/>
       <use x="63.623046875" xlink:href="#DejaVuSans-30"/>
       <use x="127.24609375" xlink:href="#DejaVuSans-b0"/>
      </g>
     </g>
    </g>
    <g id="xtick_4">
     <g id="line2d_9">
      <path clip-path="url(#p4bac5e7e03)" d="
M295.2 216
L173.012 93.8119" style="fill:none;stroke:#000000;stroke-dasharray:1.000000,3.000000;stroke-dashoffset:0.0;stroke-linecap:butt;stroke-width:0.5;"/>
     </g>
     <g id="text_4">
      <!-- 135° -->
      <defs>
       <path d="
M12.4062 8.29688
L28.5156 8.29688
L28.5156 63.9219
L10.9844 60.4062
L10.9844 69.3906
L28.4219 72.9062
L38.2812 72.9062
L38.2812 8.29688
L54.3906 8.29688
L54.3906 0
L12.4062 0
z
" id="DejaVuSans-31"/>
       <path d="
M40.5781 39.3125
Q47.6562 37.7969 51.625 33
Q55.6094 28.2188 55.6094 21.1875
Q55.6094 10.4062 48.1875 4.48438
Q40.7656 -1.42188 27.0938 -1.42188
Q22.5156 -1.42188 17.6562 -0.515625
Q12.7969 0.390625 7.625 2.20312
L7.625 11.7188
Q11.7188 9.32812 16.5938 8.10938
Q21.4844 6.89062 26.8125 6.89062
Q36.0781 6.89062 40.9375 10.5469
Q45.7969 14.2031 45.7969 21.1875
Q45.7969 27.6406 41.2812 31.2656
Q36.7656 34.9062 28.7188 34.9062
L20.2188 34.9062
L20.2188 43.0156
L29.1094 43.0156
Q36.375 43.0156 40.2344 45.9219
Q44.0938 48.8281 44.0938 54.2969
Q44.0938 59.9062 40.1094 62.9062
Q36.1406 65.9219 28.7188 65.9219
Q24.6562 65.9219 20.0156 65.0312
Q15.375 64.1562 9.8125 62.3125
L9.8125 71.0938
Q15.4375 72.6562 20.3438 73.4375
Q25.25 74.2188 29.5938 74.2188
Q40.8281 74.2188 47.3594 69.1094
Q53.9062 64.0156 53.9062 55.3281
Q53.9062 49.2656 50.4375 45.0938
Q46.9688 40.9219 40.5781 39.3125" id="DejaVuSans-33"/>
      </defs>
      <g transform="translate(147.570643032 85.9609555321)scale(0.12 -0.12)">
       <use xlink:href="#DejaVuSans-31"/>
       <use x="63.623046875" xlink:href="#DejaVuSans-33"/>
       <use x="127.24609375" xlink:href="#DejaVuSans-35"/>
       <use x="190.869140625" xlink:href="#DejaVuSans-b0"/>
      </g>
     </g>
    </g>
    <g id="xtick_5">
     <g id="line2d_10">
      <path clip-path="url(#p4bac5e7e03)" d="
M295.2 216
L122.4 216" style="fill:none;stroke:#000000;stroke-dasharray:1.000000,3.000000;stroke-dashoffset:0.0;stroke-linecap:butt;stroke-width:0.5;"/>
     </g>
     <g id="text_5">
      <!-- 180° -->
      <defs>
       <path d="
M31.7812 34.625
Q24.75 34.625 20.7188 30.8594
Q16.7031 27.0938 16.7031 20.5156
Q16.7031 13.9219 20.7188 10.1562
Q24.75 6.39062 31.7812 6.39062
Q38.8125 6.39062 42.8594 10.1719
Q46.9219 13.9688 46.9219 20.5156
Q46.9219 27.0938 42.8906 30.8594
Q38.875 34.625 31.7812 34.625
M21.9219 38.8125
Q15.5781 40.375 12.0312 44.7188
Q8.5 49.0781 8.5 55.3281
Q8.5 64.0625 14.7188 69.1406
Q20.9531 74.2188 31.7812 74.2188
Q42.6719 74.2188 48.875 69.1406
Q55.0781 64.0625 55.0781 55.3281
Q55.0781 49.0781 51.5312 44.7188
Q48 40.375 41.7031 38.8125
Q48.8281 37.1562 52.7969 32.3125
Q56.7812 27.4844 56.7812 20.5156
Q56.7812 9.90625 50.3125 4.23438
Q43.8438 -1.42188 31.7812 -1.42188
Q19.7344 -1.42188 13.25 4.23438
Q6.78125 9.90625 6.78125 20.5156
Q6.78125 27.4844 10.7812 32.3125
Q14.7969 37.1562 21.9219 38.8125
M18.3125 54.3906
Q18.3125 48.7344 21.8438 45.5625
Q25.3906 42.3906 31.7812 42.3906
Q38.1406 42.3906 41.7188 45.5625
Q45.3125 48.7344 45.3125 54.3906
Q45.3125 60.0625 41.7188 63.2344
Q38.1406 66.4062 31.7812 66.4062
Q25.3906 66.4062 21.8438 63.2344
Q18.3125 60.0625 18.3125 54.3906" id="DejaVuSans-38"/>
      </defs>
      <g transform="translate(91.8975 220.3678125)scale(0.12 -0.12)">
       <use xlink:href="#DejaVuSans-31"/>
       <use x="63.623046875" xlink:href="#DejaVuSans-38"/>
       <use x="127.24609375" xlink:href="#DejaVuSans-30"/>
       <use x="190.869140625" xlink:href="#DejaVuSans-b0"/>
      </g>
     </g>
    </g>
    <g id="xtick_6">
     <g id="line2d_11">
      <path clip-path="url(#p4bac5e7e03)" d="
M295.2 216
L173.012 338.188" style="fill:none;stroke:#000000;stroke-dasharray:1.000000,3.000000;stroke-dashoffset:0.0;stroke-linecap:butt;stroke-width:0.5;"/>
     </g>
     <g id="text_6">
      <!-- 225° -->
      <defs>
       <path d="
M19.1875 8.29688
L53.6094 8.29688
L53.6094 0
L7.32812 0
L7.32812 8.29688
Q12.9375 14.1094 22.625 23.8906
Q32.3281 33.6875 34.8125 36.5312
Q39.5469 41.8438 41.4219 45.5312
Q43.3125 49.2188 43.3125 52.7812
Q43.3125 58.5938 39.2344 62.25
Q35.1562 65.9219 28.6094 65.9219
Q23.9688 65.9219 18.8125 64.3125
Q13.6719 62.7031 7.8125 59.4219
L7.8125 69.3906
Q13.7656 71.7812 18.9375 73
Q24.125 74.2188 28.4219 74.2188
Q39.75 74.2188 46.4844 68.5469
Q53.2188 62.8906 53.2188 53.4219
Q53.2188 48.9219 51.5312 44.8906
Q49.8594 40.875 45.4062 35.4062
Q44.1875 33.9844 37.6406 27.2188
Q31.1094 20.4531 19.1875 8.29688" id="DejaVuSans-32"/>
      </defs>
      <g transform="translate(147.351268032 354.774669468)scale(0.12 -0.12)">
       <use xlink:href="#DejaVuSans-32"/>
       <use x="63.623046875" xlink:href="#DejaVuSans-32"/>
       <use x="127.24609375" xlink:href="#DejaVuSans-35"/>
       <use x="190.869140625" xlink:href="#DejaVuSans-b0"/>
      </g>
     </g>
    </g>
    <g id="xtick_7">
     <g id="line2d_12">
      <path clip-path="url(#p4bac5e7e03)" d="
M295.2 216
L295.2 388.8" style="fill:none;stroke:#000000;stroke-dasharray:1.000000,3.000000;stroke-dashoffset:0.0;stroke-linecap:butt;stroke-width:0.5;"/>
     </g>
     <g id="text_7">
      <!-- 270° -->
      <defs>
       <path d="
M8.20312 72.9062
L55.0781 72.9062
L55.0781 68.7031
L28.6094 0
L18.3125 0
L43.2188 64.5938
L8.20312 64.5938
z
" id="DejaVuSans-37"/>
      </defs>
      <g transform="translate(281.758125 410.4478125)scale(0.12 -0.12)">
       <use xlink:href="#DejaVuSans-32"/>
       <use x="63.623046875" xlink:href="#DejaVuSans-37"/>
       <use x="127.24609375" xlink:href="#DejaVuSans-30"/>
       <use x="190.869140625" xlink:href="#DejaVuSans-b0"/>
      </g>
     </g>
    </g>
    <g id="xtick_8">
     <g id="line2d_13">
      <path clip-path="url(#p4bac5e7e03)" d="
M295.2 216
L417.388 338.188" style="fill:none;stroke:#000000;stroke-dasharray:1.000000,3.000000;stroke-dashoffset:0.0;stroke-linecap:butt;stroke-width:0.5;"/>
     </g>
     <g id="text_8">
      <!-- 315° -->
      <g transform="translate(416.182794468 354.774669468)scale(0.12 -0.12)">
       <use xlink:href="#DejaVuSans-33"/>
       <use x="63.623046875" xlink:href="#DejaVuSans-31"/>
       <use x="127.24609375" xlink:href="#DejaVuSans-35"/>
       <use x="190.869140625" xlink:href="#DejaVuSans-b0"/>
      </g>
     </g>
    </g>
   </g>
   <g id="matplotlib.axis_2">
    <g id="ytick_1">
     <g id="line2d_14">
      <path clip-path="url(#p4bac5e7e03)" d="
M316.8 216
L316.682 213.742
L316.328 211.509
L315.743 209.325
L314.933 207.214
L313.906 205.2
L312.675 203.304
L311.252 201.547
L309.653 199.948
L307.896 198.525
L306 197.294
L303.986 196.267
L301.875 195.457
L299.691 194.872
L297.458 194.518
L295.2 194.4
L292.942 194.518
L290.709 194.872
L288.525 195.457
L286.414 196.267
L284.4 197.294
L282.504 198.525
L280.747 199.948
L279.148 201.547
L277.725 203.304
L276.494 205.2
L275.467 207.214
L274.657 209.325
L274.072 211.509
L273.718 213.742
L273.6 216
L273.718 218.258
L274.072 220.491
L274.657 222.675
L275.467 224.786
L276.494 226.8
L277.725 228.696
L279.148 230.453
L280.747 232.052
L282.504 233.475
L284.4 234.706
L286.414 235.733
L288.525 236.543
L290.709 237.128
L292.942 237.482
L295.2 237.6
L297.458 237.482
L299.691 237.128
L301.875 236.543
L303.986 235.733
L306 234.706
L307.896 233.475
L309.653 232.052
L311.252 230.453
L312.675 228.696
L313.906 226.8
L314.933 224.786
L315.743 222.675
L316.328 220.491
L316.682 218.258
L316.8 216
L316.8 216" style="fill:none;stroke:#000000;stroke-dasharray:1.000000,3.000000;stroke-dashoffset:0.0;stroke-linecap:butt;stroke-width:0.5;"/>
     </g>
    </g>
    <g id="ytick_2">
     <g id="line2d_15">
      <path clip-path="url(#p4bac5e7e03)" d="
M338.4 216
L338.374 214.492
L338.295 212.987
L337.98 209.988
L337.456 207.018
L336.727 204.092
L335.795 201.225
L334.665 198.429
L333.343 195.719
L331.836 193.107
L330.15 190.608
L328.293 188.232
L326.275 185.991
L324.106 183.896
L321.797 181.958
L319.357 180.186
L316.8 178.588
L314.138 177.172
L311.383 175.946
L308.55 174.914
L305.651 174.083
L302.702 173.456
L299.716 173.037
L296.708 172.826
L293.692 172.826
L290.684 173.037
L287.698 173.456
L284.749 174.083
L281.85 174.914
L279.017 175.946
L276.262 177.172
L273.6 178.588
L271.043 180.186
L268.603 181.958
L266.294 183.896
L264.125 185.991
L262.107 188.232
L260.25 190.608
L258.564 193.107
L257.057 195.719
L255.735 198.429
L254.605 201.225
L253.673 204.092
L252.944 207.018
L252.42 209.988
L252.105 212.987
L252 216
L252.105 219.013
L252.42 222.012
L252.944 224.982
L253.673 227.908
L254.605 230.775
L255.735 233.571
L257.057 236.281
L258.564 238.893
L260.25 241.392
L262.107 243.768
L264.125 246.009
L266.294 248.104
L268.603 250.042
L271.043 251.814
L273.6 253.412
L276.262 254.828
L279.017 256.054
L281.85 257.086
L284.749 257.917
L287.698 258.544
L290.684 258.963
L293.692 259.174
L296.708 259.174
L299.716 258.963
L302.702 258.544
L305.651 257.917
L308.55 257.086
L311.383 256.054
L314.138 254.828
L316.8 253.412
L319.357 251.814
L321.797 250.042
L324.106 248.104
L326.275 246.009
L328.293 243.768
L330.15 241.392
L331.836 238.893
L333.343 236.281
L334.665 233.571
L335.795 230.775
L336.727 227.908
L337.456 224.982
L337.98 222.012
L338.295 219.013
L338.4 216
L338.4 216" style="fill:none;stroke:#000000;stroke-dasharray:1.000000,3.000000;stroke-dashoffset:0.0;stroke-linecap:butt;stroke-width:0.5;"/>
     </g>
    </g>
    <g id="ytick_3">
     <g id="line2d_16">
      <path clip-path="url(#p4bac5e7e03)" d="
M360 216
L359.961 213.739
L359.842 211.48
L359.369 206.982
L358.584 202.527
L357.49 198.139
L356.092 193.837
L354.398 189.643
L352.415 185.578
L350.154 181.661
L347.624 177.912
L344.84 174.347
L341.813 170.986
L338.56 167.844
L335.095 164.937
L331.436 162.278
L327.6 159.882
L323.606 157.758
L319.475 155.918
L315.224 154.372
L310.877 153.125
L306.452 152.184
L301.973 151.555
L297.461 151.239
L292.939 151.239
L288.427 151.555
L283.948 152.184
L279.523 153.125
L275.176 154.372
L270.925 155.918
L266.794 157.758
L262.8 159.882
L258.964 162.278
L255.305 164.937
L251.84 167.844
L248.587 170.986
L245.56 174.347
L242.776 177.912
L240.246 181.661
L237.985 185.578
L236.002 189.643
L234.308 193.837
L232.91 198.139
L231.816 202.527
L231.031 206.982
L230.558 211.48
L230.4 216
L230.558 220.52
L231.031 225.018
L231.816 229.473
L232.91 233.861
L234.308 238.163
L236.002 242.357
L237.985 246.422
L240.246 250.339
L242.776 254.088
L245.56 257.653
L248.587 261.014
L251.84 264.156
L255.305 267.063
L258.964 269.722
L262.8 272.118
L266.794 274.242
L270.925 276.082
L275.176 277.628
L279.523 278.875
L283.948 279.816
L288.427 280.445
L292.939 280.761
L297.461 280.761
L301.973 280.445
L306.452 279.816
L310.877 278.875
L315.224 277.628
L319.475 276.082
L323.606 274.242
L327.6 272.118
L331.436 269.722
L335.095 267.063
L338.56 264.156
L341.813 261.014
L344.84 257.653
L347.624 254.088
L350.154 250.339
L352.415 246.422
L354.398 242.357
L356.092 238.163
L357.49 233.861
L358.584 229.473
L359.369 225.018
L359.842 220.52
L360 216
L360 216" style="fill:none;stroke:#000000;stroke-dasharray:1.000000,3.000000;stroke-dashoffset:0.0;stroke-linecap:butt;stroke-width:0.5;"/>
     </g>
    </g>
    <g id="ytick_4">
     <g id="line2d_17">
      <path clip-path="url(#p4bac5e7e03)" d="
M381.6 216
L381.547 212.985
L381.39 209.973
L380.759 203.975
L379.712 198.036
L378.253 192.185
L376.389 186.449
L374.13 180.858
L371.487 175.438
L368.471 170.215
L365.099 165.215
L361.386 160.463
L357.351 155.982
L353.013 151.792
L348.393 147.916
L343.514 144.371
L338.4 141.175
L333.075 138.344
L327.566 135.891
L321.899 133.829
L316.102 132.166
L310.203 130.913
L304.231 130.073
L298.215 129.653
L292.185 129.653
L286.169 130.073
L280.197 130.913
L274.298 132.166
L268.501 133.829
L262.834 135.891
L257.325 138.344
L252 141.175
L246.886 144.371
L242.007 147.916
L237.387 151.792
L233.049 155.982
L229.014 160.463
L225.301 165.215
L221.929 170.215
L218.913 175.438
L216.27 180.858
L214.011 186.449
L212.147 192.185
L210.688 198.036
L209.641 203.975
L209.01 209.973
L208.8 216
L209.01 222.027
L209.641 228.025
L210.688 233.964
L212.147 239.815
L214.011 245.551
L216.27 251.142
L218.913 256.562
L221.929 261.785
L225.301 266.785
L229.014 271.537
L233.049 276.018
L237.387 280.208
L242.007 284.084
L246.886 287.629
L252 290.825
L257.325 293.656
L262.834 296.109
L268.501 298.171
L274.298 299.834
L280.197 301.087
L286.169 301.927
L292.185 302.347
L298.215 302.347
L304.231 301.927
L310.203 301.087
L316.102 299.834
L321.899 298.171
L327.566 296.109
L333.075 293.656
L338.4 290.825
L343.514 287.629
L348.393 284.084
L353.013 280.208
L357.351 276.018
L361.386 271.537
L365.099 266.785
L368.471 261.785
L371.487 256.562
L374.13 251.142
L376.389 245.551
L378.253 239.815
L379.712 233.964
L380.759 228.025
L381.39 222.027
L381.6 216
L381.6 216" style="fill:none;stroke:#000000;stroke-dasharray:1.000000,3.000000;stroke-dashoffset:0.0;stroke-linecap:butt;stroke-width:0.5;"/>
     </g>
    </g>
    <g id="ytick_5">
     <g id="line2d_18">
      <path clip-path="url(#p4bac5e7e03)" d="
M403.2 216
L403.134 212.231
L402.937 208.466
L402.608 204.711
L402.149 200.969
L401.559 197.246
L400.84 193.546
L399.992 189.872
L399.016 186.231
L397.914 182.626
L396.687 179.062
L395.336 175.542
L393.863 172.072
L392.27 168.656
L390.558 165.297
L388.731 162
L386.789 158.769
L384.736 155.607
L382.574 152.519
L380.305 149.509
L377.933 146.579
L375.46 143.734
L372.889 140.977
L370.223 138.311
L367.466 135.74
L364.621 133.267
L361.691 130.895
L358.681 128.626
L355.593 126.464
L352.431 124.411
L349.2 122.469
L345.903 120.642
L342.544 118.93
L339.128 117.337
L335.658 115.864
L332.138 114.513
L328.574 113.286
L324.969 112.184
L321.328 111.208
L317.654 110.36
L313.954 109.641
L310.231 109.051
L306.489 108.592
L302.734 108.263
L298.969 108.066
L295.2 108
L291.431 108.066
L287.666 108.263
L283.911 108.592
L280.169 109.051
L276.446 109.641
L272.746 110.36
L269.072 111.208
L265.431 112.184
L261.826 113.286
L258.262 114.513
L254.742 115.864
L251.272 117.337
L247.856 118.93
L244.497 120.642
L241.2 122.469
L237.969 124.411
L234.807 126.464
L231.719 128.626
L228.709 130.895
L225.779 133.267
L222.934 135.74
L220.177 138.311
L217.511 140.977
L214.94 143.734
L212.467 146.579
L210.095 149.509
L207.826 152.519
L205.664 155.607
L203.611 158.769
L201.669 162
L199.842 165.297
L198.13 168.656
L196.537 172.072
L195.064 175.542
L193.713 179.062
L192.486 182.626
L191.384 186.231
L190.408 189.872
L189.56 193.546
L188.841 197.246
L188.251 200.969
L187.792 204.711
L187.463 208.466
L187.266 212.231
L187.2 216
L187.266 219.769
L187.463 223.534
L187.792 227.289
L188.251 231.031
L188.841 234.754
L189.56 238.454
L190.408 242.128
L191.384 245.769
L192.486 249.374
L193.713 252.938
L195.064 256.458
L196.537 259.928
L198.13 263.344
L199.842 266.703
L201.669 270
L203.611 273.231
L205.664 276.393
L207.826 279.481
L210.095 282.491
L212.467 285.421
L214.94 288.266
L217.511 291.023
L220.177 293.689
L222.934 296.26
L225.779 298.733
L228.709 301.105
L231.719 303.374
L234.807 305.536
L237.969 307.589
L241.2 309.531
L244.497 311.358
L247.856 313.07
L251.272 314.663
L254.742 316.136
L258.262 317.487
L261.826 318.714
L265.431 319.816
L269.072 320.792
L272.746 321.64
L276.446 322.359
L280.169 322.949
L283.911 323.408
L287.666 323.737
L291.431 323.934
L295.2 324
L298.969 323.934
L302.734 323.737
L306.489 323.408
L310.231 322.949
L313.954 322.359
L317.654 321.64
L321.328 320.792
L324.969 319.816
L328.574 318.714
L332.138 317.487
L335.658 316.136
L339.128 314.663
L342.544 313.07
L345.903 311.358
L349.2 309.531
L352.431 307.589
L355.593 305.536
L358.681 303.374
L361.691 301.105
L364.621 298.733
L367.466 296.26
L370.223 293.689
L372.889 291.023
L375.46 288.266
L377.933 285.421
L380.305 282.491
L382.574 279.481
L384.736 276.393
L386.789 273.231
L388.731 270
L390.558 266.703
L392.27 263.344
L393.863 259.928
L395.336 256.458
L396.687 252.938
L397.914 249.374
L399.016 245.769
L399.992 242.128
L400.84 238.454
L401.559 234.754
L402.149 231.031
L402.608 227.289
L402.937 223.534
L403.134 219.769
L403.2 216
L403.2 216" style="fill:none;stroke:#000000;stroke-dasharray:1.000000,3.000000;stroke-dashoffset:0.0;stroke-linecap:butt;stroke-width:0.5;"/>
     </g>
    </g>
    <g id="ytick_6">
     <g id="line2d_19">
      <path clip-path="url(#p4bac5e7e03)" d="
M424.8 216
L424.721 211.477
L424.484 206.96
L424.09 202.453
L423.539 197.963
L422.831 193.495
L421.968 189.055
L420.95 184.647
L419.78 180.277
L418.457 175.951
L416.984 171.674
L415.363 167.451
L413.595 163.287
L411.684 159.187
L409.63 155.156
L407.437 151.2
L405.107 147.322
L402.643 143.529
L400.049 139.823
L397.326 136.21
L394.479 132.695
L391.512 129.281
L388.426 125.972
L385.228 122.774
L381.919 119.688
L378.505 116.721
L374.99 113.874
L371.377 111.151
L367.671 108.557
L363.878 106.093
L360 103.763
L356.044 101.57
L352.013 99.5163
L347.913 97.6045
L343.749 95.837
L339.526 94.2158
L335.249 92.7431
L330.923 91.4205
L326.553 90.2497
L322.145 89.2321
L317.705 88.3689
L313.237 87.6613
L308.747 87.11
L304.24 86.7157
L299.723 86.4789
L295.2 86.4
L290.677 86.4789
L286.16 86.7157
L281.653 87.11
L277.163 87.6613
L272.695 88.3689
L268.255 89.2321
L263.847 90.2497
L259.477 91.4205
L255.151 92.7431
L250.874 94.2158
L246.651 95.837
L242.487 97.6045
L238.387 99.5163
L234.356 101.57
L230.4 103.763
L226.522 106.093
L222.729 108.557
L219.023 111.151
L215.41 113.874
L211.895 116.721
L208.481 119.688
L205.172 122.774
L201.974 125.972
L198.888 129.281
L195.921 132.695
L193.074 136.21
L190.351 139.823
L187.757 143.529
L185.293 147.322
L182.963 151.2
L180.77 155.156
L178.716 159.187
L176.805 163.287
L175.037 167.451
L173.416 171.674
L171.943 175.951
L170.62 180.277
L169.45 184.647
L168.432 189.055
L167.569 193.495
L166.861 197.963
L166.31 202.453
L165.916 206.96
L165.679 211.477
L165.6 216
L165.679 220.523
L165.916 225.04
L166.31 229.547
L166.861 234.037
L167.569 238.505
L168.432 242.945
L169.45 247.353
L170.62 251.723
L171.943 256.049
L173.416 260.326
L175.037 264.549
L176.805 268.713
L178.716 272.813
L180.77 276.844
L182.963 280.8
L185.293 284.678
L187.757 288.471
L190.351 292.177
L193.074 295.79
L195.921 299.305
L198.888 302.719
L201.974 306.028
L205.172 309.226
L208.481 312.312
L211.895 315.279
L215.41 318.126
L219.023 320.849
L222.729 323.443
L226.522 325.907
L230.4 328.237
L234.356 330.43
L238.387 332.484
L242.487 334.395
L246.651 336.163
L250.874 337.784
L255.151 339.257
L259.477 340.58
L263.847 341.75
L268.255 342.768
L272.695 343.631
L277.163 344.339
L281.653 344.89
L286.16 345.284
L290.677 345.521
L295.2 345.6
L299.723 345.521
L304.24 345.284
L308.747 344.89
L313.237 344.339
L317.705 343.631
L322.145 342.768
L326.553 341.75
L330.923 340.58
L335.249 339.257
L339.526 337.784
L343.749 336.163
L347.913 334.395
L352.013 332.484
L356.044 330.43
L360 328.237
L363.878 325.907
L367.671 323.443
L371.377 320.849
L374.99 318.126
L378.505 315.279
L381.919 312.312
L385.228 309.226
L388.426 306.028
L391.512 302.719
L394.479 299.305
L397.326 295.79
L400.049 292.177
L402.643 288.471
L405.107 284.678
L407.437 280.8
L409.63 276.844
L411.684 272.813
L413.595 268.713
L415.363 264.549
L416.984 260.326
L418.457 256.049
L419.78 251.723
L420.95 247.353
L421.968 242.945
L422.831 238.505
L423.539 234.037
L424.09 229.547
L424.484 225.04
L424.721 220.523
L424.8 216
L424.8 216" style="fill:none;stroke:#000000;stroke-dasharray:1.000000,3.000000;stroke-dashoffset:0.0;stroke-linecap:butt;stroke-width:0.5;"/>
     </g>
    </g>
    <g id="ytick_7">
     <g id="line2d_20">
      <path clip-path="url(#p4bac5e7e03)" d="
M446.4 216
L446.308 210.723
L446.032 205.453
L445.572 200.195
L444.929 194.957
L444.103 189.744
L443.096 184.564
L441.909 179.421
L440.543 174.324
L439 169.277
L437.282 164.287
L435.39 159.359
L433.328 154.501
L431.098 149.718
L428.702 145.016
L426.143 140.4
L423.425 135.876
L420.55 131.45
L417.523 127.127
L414.347 122.912
L411.026 118.811
L407.563 114.827
L403.964 110.968
L400.232 107.236
L396.373 103.637
L392.389 100.174
L388.288 96.8528
L384.073 93.6766
L379.75 90.6495
L375.324 87.7751
L370.8 85.057
L366.184 82.4983
L361.482 80.1023
L356.699 77.8719
L351.841 75.8098
L346.913 73.9185
L341.923 72.2003
L336.876 70.6572
L331.779 69.2913
L326.636 68.1041
L321.456 67.0971
L316.243 66.2715
L311.005 65.6283
L305.747 65.1683
L300.477 64.8921
L295.2 64.8
L289.923 64.8921
L284.653 65.1683
L279.395 65.6283
L274.157 66.2715
L268.944 67.0971
L263.764 68.1041
L258.621 69.2913
L253.524 70.6572
L248.477 72.2003
L243.487 73.9185
L238.559 75.8098
L233.701 77.8719
L228.918 80.1023
L224.216 82.4983
L219.6 85.057
L215.076 87.7751
L210.65 90.6495
L206.327 93.6766
L202.112 96.8528
L198.011 100.174
L194.027 103.637
L190.168 107.236
L186.436 110.968
L182.837 114.827
L179.374 118.811
L176.053 122.912
L172.877 127.127
L169.85 131.45
L166.975 135.876
L164.257 140.4
L161.698 145.016
L159.302 149.718
L157.072 154.501
L155.01 159.359
L153.118 164.287
L151.4 169.277
L149.857 174.324
L148.491 179.421
L147.304 184.564
L146.297 189.744
L145.471 194.957
L144.828 200.195
L144.368 205.453
L144.092 210.723
L144 216
L144.092 221.277
L144.368 226.547
L144.828 231.805
L145.471 237.043
L146.297 242.256
L147.304 247.436
L148.491 252.579
L149.857 257.676
L151.4 262.723
L153.118 267.713
L155.01 272.641
L157.072 277.499
L159.302 282.282
L161.698 286.984
L164.257 291.6
L166.975 296.124
L169.85 300.55
L172.877 304.873
L176.053 309.088
L179.374 313.189
L182.837 317.173
L186.436 321.032
L190.168 324.764
L194.027 328.363
L198.011 331.826
L202.112 335.147
L206.327 338.323
L210.65 341.35
L215.076 344.225
L219.6 346.943
L224.216 349.502
L228.918 351.898
L233.701 354.128
L238.559 356.19
L243.487 358.082
L248.477 359.8
L253.524 361.343
L258.621 362.709
L263.764 363.896
L268.944 364.903
L274.157 365.729
L279.395 366.372
L284.653 366.832
L289.923 367.108
L295.2 367.2
L300.477 367.108
L305.747 366.832
L311.005 366.372
L316.243 365.729
L321.456 364.903
L326.636 363.896
L331.779 362.709
L336.876 361.343
L341.923 359.8
L346.913 358.082
L351.841 356.19
L356.699 354.128
L361.482 351.898
L366.184 349.502
L370.8 346.943
L375.324 344.225
L379.75 341.35
L384.073 338.323
L388.288 335.147
L392.389 331.826
L396.373 328.363
L400.232 324.764
L403.964 321.032
L407.563 317.173
L411.026 313.189
L414.347 309.088
L417.523 304.873
L420.55 300.55
L423.425 296.124
L426.143 291.6
L428.702 286.984
L431.098 282.282
L433.328 277.499
L435.39 272.641
L437.282 267.713
L439 262.723
L440.543 257.676
L441.909 252.579
L443.096 247.436
L444.103 242.256
L444.929 237.043
L445.572 231.805
L446.032 226.547
L446.308 221.277
L446.4 216
L446.4 216" style="fill:none;stroke:#000000;stroke-dasharray:1.000000,3.000000;stroke-dashoffset:0.0;stroke-linecap:butt;stroke-width:0.5;"/>
     </g>
    </g>
    <g id="ytick_8">
     <g id="line2d_21">
      <path clip-path="url(#p4bac5e7e03)" d="
M468 216
L467.895 209.969
L467.579 203.946
L467.053 197.937
L466.318 191.951
L465.375 185.994
L464.224 180.073
L462.867 174.196
L461.306 168.37
L459.543 162.602
L457.579 156.899
L455.417 151.268
L453.061 145.716
L450.512 140.249
L447.773 134.875
L444.849 129.6
L441.743 124.43
L438.458 119.371
L434.998 114.431
L431.368 109.614
L427.572 104.926
L423.615 100.374
L419.502 95.963
L415.237 91.6981
L410.826 87.5846
L406.274 83.6275
L401.586 79.8317
L396.769 76.2019
L391.829 72.7423
L386.77 69.4573
L381.6 66.3508
L376.325 63.4267
L370.951 60.6884
L365.484 58.1393
L359.932 55.7826
L354.301 53.6211
L348.598 51.6574
L342.83 49.894
L337.004 48.3329
L331.127 46.9761
L325.206 45.8252
L319.249 44.8817
L313.263 44.1466
L307.254 43.6209
L301.231 43.3053
L295.2 43.2
L289.169 43.3053
L283.146 43.6209
L277.137 44.1466
L271.151 44.8817
L265.194 45.8252
L259.273 46.9761
L253.396 48.3329
L247.57 49.894
L241.802 51.6574
L236.099 53.6211
L230.468 55.7826
L224.916 58.1393
L219.449 60.6884
L214.075 63.4267
L208.8 66.3508
L203.63 69.4573
L198.571 72.7423
L193.631 76.2019
L188.814 79.8317
L184.126 83.6275
L179.574 87.5846
L175.163 91.6981
L170.898 95.963
L166.785 100.374
L162.828 104.926
L159.032 109.614
L155.402 114.431
L151.942 119.371
L148.657 124.43
L145.551 129.6
L142.627 134.875
L139.888 140.249
L137.339 145.716
L134.983 151.268
L132.821 156.899
L130.857 162.602
L129.094 168.37
L127.533 174.196
L126.176 180.073
L125.025 185.994
L124.082 191.951
L123.347 197.937
L122.821 203.946
L122.505 209.969
L122.4 216
L122.505 222.031
L122.821 228.054
L123.347 234.063
L124.082 240.049
L125.025 246.006
L126.176 251.927
L127.533 257.804
L129.094 263.63
L130.857 269.398
L132.821 275.101
L134.983 280.732
L137.339 286.284
L139.888 291.751
L142.627 297.125
L145.551 302.4
L148.657 307.57
L151.942 312.629
L155.402 317.569
L159.032 322.386
L162.828 327.074
L166.785 331.626
L170.898 336.037
L175.163 340.302
L179.574 344.415
L184.126 348.372
L188.814 352.168
L193.631 355.798
L198.571 359.258
L203.63 362.543
L208.8 365.649
L214.075 368.573
L219.449 371.312
L224.916 373.861
L230.468 376.217
L236.099 378.379
L241.802 380.343
L247.57 382.106
L253.396 383.667
L259.273 385.024
L265.194 386.175
L271.151 387.118
L277.137 387.853
L283.146 388.379
L289.169 388.695
L295.2 388.8
L301.231 388.695
L307.254 388.379
L313.263 387.853
L319.249 387.118
L325.206 386.175
L331.127 385.024
L337.004 383.667
L342.83 382.106
L348.598 380.343
L354.301 378.379
L359.932 376.217
L365.484 373.861
L370.951 371.312
L376.325 368.573
L381.6 365.649
L386.77 362.543
L391.829 359.258
L396.769 355.798
L401.586 352.168
L406.274 348.372
L410.826 344.415
L415.237 340.302
L419.502 336.037
L423.615 331.626
L427.572 327.074
L431.368 322.386
L434.998 317.569
L438.458 312.629
L441.743 307.57
L444.849 302.4
L447.773 297.125
L450.512 291.751
L453.061 286.284
L455.417 280.732
L457.579 275.101
L459.543 269.398
L461.306 263.63
L462.867 257.804
L464.224 251.927
L465.375 246.006
L466.318 240.049
L467.053 234.063
L467.579 228.054
L467.895 222.031
L468 216
L468 216" style="fill:none;stroke:#000000;stroke-dasharray:1.000000,3.000000;stroke-dashoffset:0.0;stroke-linecap:butt;stroke-width:0.5;"/>
     </g>
    </g>
   </g>
   <g id="patch_3">
    <path d="
M295.2 388.8
C341.027 388.8 384.983 370.593 417.388 338.188
C449.793 305.783 468 261.827 468 216
C468 170.173 449.793 126.217 417.388 93.8119
C384.983 61.4073 341.027 43.2 295.2 43.2
C249.373 43.2 205.417 61.4073 173.012 93.8119
C140.607 126.217 122.4 170.173 122.4 216
C122.4 261.827 140.607 305.783 173.012 338.188
C205.417 370.593 249.373 388.8 295.2 388.8
z
" style="fill:none;stroke:#000000;"/>
   </g>
   <g id="legend_1">
    <g id="patch_4">
     <path d="
M375.82 157.612
L460.8 157.612
L460.8 50.4
L375.82 50.4
L375.82 157.612
z
" style="fill:#ffffff;stroke:#000000;"/>
    </g>
    <g id="line2d_22">
     <path d="
M385.9 62.0617
L406.06 62.0617" style="fill:none;stroke:#0000ff;stroke-width:2.0;"/>
    </g>
    <g id="line2d_23"/>
    <g id="text_9">
     <!-- m=1 -->
     <defs>
      <path d="
M52 44.1875
Q55.375 50.25 60.0625 53.125
Q64.75 56 71.0938 56
Q79.6406 56 84.2812 50.0156
Q88.9219 44.0469 88.9219 33.0156
L88.9219 0
L79.8906 0
L79.8906 32.7188
Q79.8906 40.5781 77.0938 44.375
Q74.3125 48.1875 68.6094 48.1875
Q61.625 48.1875 57.5625 43.5469
Q53.5156 38.9219 53.5156 30.9062
L53.5156 0
L44.4844 0
L44.4844 32.7188
Q44.4844 40.625 41.7031 44.4062
Q38.9219 48.1875 33.1094 48.1875
Q26.2188 48.1875 22.1562 43.5312
Q18.1094 38.875 18.1094 30.9062
L18.1094 0
L9.07812 0
L9.07812 54.6875
L18.1094 54.6875
L18.1094 46.1875
Q21.1875 51.2188 25.4844 53.6094
Q29.7812 56 35.6875 56
Q41.6562 56 45.8281 52.9688
Q50 49.9531 52 44.1875" id="DejaVuSans-6d"/>
      <path d="
M10.5938 45.4062
L73.1875 45.4062
L73.1875 37.2031
L10.5938 37.2031
z

M10.5938 25.4844
L73.1875 25.4844
L73.1875 17.1875
L10.5938 17.1875
z
" id="DejaVuSans-3d"/>
     </defs>
     <g transform="translate(421.89975 67.10175)scale(0.144 -0.144)">
      <use xlink:href="#DejaVuSans-6d"/>
      <use x="97.412109375" xlink:href="#DejaVuSans-3d"/>
      <use x="181.201171875" xlink:href="#DejaVuSans-31"/>
     </g>
    </g>
    <g id="line2d_24">
     <path d="
M385.9 83.1983
L406.06 83.1983" style="fill:none;stroke:#008000;stroke-width:2.0;"/>
    </g>
    <g id="line2d_25"/>
    <g id="text_10">
     <!-- m=2 -->
     <g transform="translate(421.89975 88.23825)scale(0.144 -0.144)">
      <use xlink:href="#DejaVuSans-6d"/>
      <use x="97.412109375" xlink:href="#DejaVuSans-3d"/>
      <use x="181.201171875" xlink:href="#DejaVuSans-32"/>
     </g>
    </g>
    <g id="line2d_26">
     <path d="
M385.9 104.335
L406.06 104.335" style="fill:none;stroke:#ff0000;stroke-width:2.0;"/>
    </g>
    <g id="line2d_27"/>
    <g id="text_11">
     <!-- m=3 -->
     <g transform="translate(421.89975 109.37475)scale(0.144 -0.144)">
      <use xlink:href="#DejaVuSans-6d"/>
      <use x="97.412109375" xlink:href="#DejaVuSans-3d"/>
      <use x="181.201171875" xlink:href="#DejaVuSans-33"/>
     </g>
    </g>
    <g id="line2d_28">
     <path d="
M385.9 125.471
L406.06 125.471" style="fill:none;stroke:#00bfbf;stroke-width:2.0;"/>
    </g>
    <g id="line2d_29"/>
    <g id="text_12">
     <!-- m=4 -->
     <g transform="translate(421.89975 130.51125)scale(0.144 -0.144)">
      <use xlink:href="#DejaVuSans-6d"/>
      <use x="97.412109375" xlink:href="#DejaVuSans-3d"/>
      <use x="181.201171875" xlink:href="#DejaVuSans-34"/>
     </g>
    </g>
    <g id="line2d_30">
     <path d="
M385.9 146.608
L406.06 146.608" style="fill:none;stroke:#bf00bf;stroke-width:2.0;"/>
    </g>
    <g id="line2d_31"/>
    <g id="text_13">
     <!-- m=5 -->
     <g transform="translate(421.89975 151.64775)scale(0.144 -0.144)">
      <use xlink:href="#DejaVuSans-6d"/>
      <use x="97.412109375" xlink:href="#DejaVuSans-3d"/>
      <use x="181.201171875" xlink:href="#DejaVuSans-35"/>
     </g>
    </g>
   </g>
  </g>
 </g>
 <defs>
  <clipPath id="p4bac5e7e03">
   <path d="
M295.2 388.8
C341.027 388.8 384.983 370.593 417.388 338.188
C449.793 305.783 468 261.827 468 216
C468 170.173 449.793 126.217 417.388 93.8119
C384.983 61.4073 341.027 43.2 295.2 43.2
C249.373 43.2 205.417 61.4073 173.012 93.8119
C140.607 126.217 122.4 170.173 122.4 216
C122.4 261.827 140.607 305.783 173.012 338.188
C205.417 370.593 249.373 388.8 295.2 388.8
z
"/>
  </clipPath>
 </defs>
</svg>
