<?xml version="1.0" encoding="UTF-8" standalone="no"?>
<!-- Created with Inkscape (http://www.inkscape.org/) -->

<svg
   xmlns:ns0="http://www.iki.fi/pav/software/textext/"
   xmlns:dc="http://purl.org/dc/elements/1.1/"
   xmlns:cc="http://creativecommons.org/ns#"
   xmlns:rdf="http://www.w3.org/1999/02/22-rdf-syntax-ns#"
   xmlns:svg="http://www.w3.org/2000/svg"
   xmlns="http://www.w3.org/2000/svg"
   xmlns:sodipodi="http://sodipodi.sourceforge.net/DTD/sodipodi-0.dtd"
   xmlns:inkscape="http://www.inkscape.org/namespaces/inkscape"
   width="792pt"
   height="612pt"
   id="svg3903"
   version="1.1"
   inkscape:version="0.48.1 r9760"
   sodipodi:docname="fig-B-conductor-recto-01.svg">
  <sodipodi:namedview
     inkscape:document-units="in"
     pagecolor="#ffffff"
     bordercolor="#666666"
     borderopacity="1.0"
     inkscape:pageopacity="0.0"
     inkscape:pageshadow="2"
     inkscape:zoom="0.81960784"
     inkscape:cx="671.56682"
     inkscape:cy="382.5"
     inkscape:current-layer="layer1"
     id="namedview3907"
     showgrid="false"
     inkscape:window-width="1440"
     inkscape:window-height="848"
     inkscape:window-x="0"
     inkscape:window-y="0"
     inkscape:window-maximized="1" />
  <defs
     id="defs3905" />
  <metadata
     id="metadata3909">
    <rdf:RDF>
      <cc:Work
         rdf:about="">
        <dc:format>image/svg+xml</dc:format>
        <dc:type
           rdf:resource="http://purl.org/dc/dcmitype/StillImage" />
        <dc:title />
      </cc:Work>
    </rdf:RDF>
  </metadata>
  <g
     id="layer1"
     inkscape:groupmode="layer"
     inkscape:label="Layer 1">
    <g
       transform="matrix(0.03125,0,0,0.03125,46.001799,45.332589)"
       class="Group"
       id="g130"
       style="visibility:visible">
      <g
         class="Group"
         id="g132">
        <g
           class="Group"
           id="g134">
          <g
             class="Drawing"
             id="g136">
            <g
               id="g138">
              <g
                 style="fill:#ff0000;stroke:none"
                 id="g140">
                <path
                   inkscape:connector-curvature="0"
                   d="m 10474,10681 308,-70 196,296 289,412 323,421 154,181 141,141 -189,210 -162,-155 -165,-182 -164,-201 -160,-215 -571,-838 z"
                   id="path142" />
              </g>
              <g
                 style="fill:none;stroke:none"
                 id="g144">
                <rect
                   x="10474"
                   y="10611"
                   width="1413"
                   height="1662"
                   id="rect146" />
              </g>
            </g>
          </g>
        </g>
      </g>
    </g>
    <g
       transform="matrix(0.03125,0,0,0.03125,46.001799,45.332589)"
       class="Group"
       id="g148"
       style="visibility:visible">
      <g
         class="Group"
         id="g150">
        <g
           class="Group"
           id="g152">
          <g
             class="Drawing"
             id="g154">
            <g
               id="g156">
              <g
                 style="fill:#ff0000;stroke:none"
                 id="g158">
                <path
                   inkscape:connector-curvature="0"
                   d="m 12262,10167 308,-70 151,224 178,245 174,220 78,87 66,65 -189,210 -82,-75 -84,-87 -88,-101 -90,-115 -198,-272 -224,-331 z"
                   id="path160" />
              </g>
              <g
                 style="fill:none;stroke:none"
                 id="g162">
                <rect
                   x="12262"
                   y="10097"
                   width="956"
                   height="1052"
                   id="rect164" />
              </g>
            </g>
          </g>
        </g>
      </g>
    </g>
    <g
       transform="matrix(0.03125,0,0,0.03125,46.001799,45.332589)"
       class="Group"
       id="g166"
       style="visibility:visible">
      <g
         class="Group"
         id="g168">
        <g
           class="Group"
           id="g170">
          <g
             class="Drawing"
             id="g172">
            <g
               id="g174">
              <g
                 style="fill:#2323dc;stroke:none"
                 id="g176">
                <path
                   inkscape:connector-curvature="0"
                   d="m 14160,14852 -2505,2796 -710,-214 -102,1659 2206,-933 -641,-239 2513,-2786 -761,-283 z"
                   id="path178" />
              </g>
              <g
                 style="fill:none;stroke:none"
                 id="g180">
                <rect
                   x="10843"
                   y="14852"
                   width="4079"
                   height="4242"
                   id="rect182" />
              </g>
            </g>
          </g>
        </g>
      </g>
    </g>
    <g
       transform="matrix(0.03125,0,0,0.03125,46.001799,45.332589)"
       class="Group"
       id="g184"
       style="visibility:visible">
      <g
         class="Group"
         id="g186">
        <g
           class="Group"
           id="g188">
          <g
             class="Drawing"
             id="g190">
            <g
               id="g192">
              <g
                 style="fill:#868452;stroke:none"
                 id="g194">
                <path
                   inkscape:connector-curvature="0"
                   d="m 22939,269 -1056,1173 121,18 120,26 117,34 115,43 111,51 106,58 102,66 96,74 89,79 83,88 74,93 66,101 58,106 47,114 38,119 25,125 1039,-1137 20,-59 14,-62 8,-62 4,-62 -3,-64 -8,-64 -30,-125 -49,-125 -66,-119 -81,-112 -94,-104 -107,-93 -118,-81 -126,-66 -134,-49 -140,-29 -145,-9 -148,15 -74,16 -74,23 z"
                   id="path196" />
              </g>
              <g
                 style="fill:none;stroke:none"
                 id="g198">
                <rect
                   x="21883"
                   y="215"
                   width="2454"
                   height="2423"
                   id="rect200" />
              </g>
            </g>
          </g>
        </g>
      </g>
    </g>
    <g
       transform="matrix(0.03125,0,0,0.03125,46.001799,45.332589)"
       class="Group"
       id="g202"
       style="visibility:visible">
      <g
         class="Group"
         id="g204">
        <g
           class="Group"
           id="g206">
          <g
             class="Drawing"
             id="g208">
            <g
               id="g210">
              <g
                 style="fill:#8d8f56;stroke:none"
                 id="g212">
                <path
                   inkscape:connector-curvature="0"
                   d="m 22060,1465 91,13 94,24 96,35 96,46 97,55 95,63 92,71 88,78 84,84 78,89 71,94 64,97 54,101 44,102 32,105 20,104 1017,-1126 22,-67 15,-67 10,-67 4,-66 -4,-66 -9,-65 -33,-125 -51,-121 -67,-114 -81,-106 -93,-97 -103,-87 -109,-76 -114,-61 -117,-48 -116,-33 -114,-15 -55,-1 -54,3 -52,9 -50,14 -1042,1221 z"
                   id="path214" />
              </g>
              <g
                 style="fill:none;stroke:none"
                 id="g216">
                <rect
                   x="22060"
                   y="218"
                   width="2265"
                   height="2409"
                   id="rect218" />
              </g>
            </g>
          </g>
        </g>
      </g>
    </g>
    <g
       transform="matrix(0.03125,0,0,0.03125,46.001799,45.332589)"
       class="Group"
       id="g220"
       style="visibility:visible">
      <g
         class="Group"
         id="g222">
        <g
           class="Group"
           id="g224">
          <g
             class="Drawing"
             id="g226">
            <g
               id="g228">
              <g
                 style="fill:#bbb76e;stroke:none"
                 id="g230">
                <path
                   inkscape:connector-curvature="0"
                   d="m 22295,1531 71,23 77,34 79,44 82,52 82,59 81,66 80,72 76,77 71,81 66,83 59,86 50,88 39,87 29,87 17,87 3,42 -1,42 1018,-1141 30,-125 10,-122 -8,-118 -23,-113 -38,-109 -50,-102 -61,-97 -70,-88 -77,-81 -83,-72 -86,-64 -88,-53 -88,-43 -87,-32 -83,-20 -79,-9 -1098,1279 z"
                   id="path232" />
              </g>
              <g
                 style="fill:none;stroke:none"
                 id="g234">
                <rect
                   x="22295"
                   y="252"
                   width="2020"
                   height="2390"
                   id="rect236" />
              </g>
            </g>
          </g>
        </g>
      </g>
    </g>
    <g
       transform="matrix(0.03125,0,0,0.03125,46.001799,45.332589)"
       class="Group"
       id="g238"
       style="visibility:visible">
      <g
         class="Group"
         id="g240">
        <g
           class="Group"
           id="g242">
          <g
             class="Drawing"
             id="g244">
            <g
               id="g246">
              <g
                 style="fill:#ffffa5;stroke:none"
                 id="g248">
                <path
                   inkscape:connector-curvature="0"
                   d="m 22586,1685 99,67 103,83 102,100 98,113 46,63 43,66 39,68 37,72 33,75 26,76 22,81 17,82 1024,-1131 20,-114 9,-109 -2,-102 -13,-98 -21,-92 -30,-86 -37,-79 -43,-75 -48,-69 -52,-63 -54,-57 -56,-52 -59,-46 -57,-40 -57,-34 -54,-29 -1135,1330 z"
                   id="path250" />
              </g>
              <g
                 style="fill:none;stroke:none"
                 id="g252">
                <rect
                   x="22586"
                   y="354"
                   width="1719"
                   height="2278"
                   id="rect254" />
              </g>
            </g>
          </g>
        </g>
      </g>
    </g>
    <g
       transform="matrix(0.03125,0,0,0.03125,46.001799,45.332589)"
       class="Group"
       id="g256"
       style="visibility:visible">
      <g
         class="Group"
         id="g258">
        <g
           class="Group"
           id="g260">
          <g
             class="Drawing"
             id="g262">
            <g
               id="g264">
              <g
                 style="fill:#f0f17c;stroke:none"
                 id="g266">
                <path
                   inkscape:connector-curvature="0"
                   d="m 22934,1971 57,74 51,75 46,75 41,79 35,81 30,84 28,88 25,94 1028,-1120 15,-70 11,-67 6,-63 3,-59 -2,-58 -5,-55 -8,-52 -12,-50 -15,-50 -17,-47 -21,-46 -23,-47 -53,-91 -60,-92 -1160,1317 z"
                   id="path268" />
              </g>
              <g
                 style="fill:none;stroke:none"
                 id="g270">
                <rect
                   x="22934"
                   y="654"
                   width="1377"
                   height="1968"
                   id="rect272" />
              </g>
            </g>
          </g>
        </g>
      </g>
    </g>
    <g
       transform="matrix(0.03125,0,0,0.03125,46.001799,45.332589)"
       class="Group"
       id="g274"
       style="visibility:visible">
      <g
         class="Group"
         id="g276">
        <g
           class="Group"
           id="g278">
          <g
             class="Drawing"
             id="g280">
            <g
               id="g282">
              <g
                 style="fill:#40884a;stroke:none"
                 id="g284">
                <path
                   inkscape:connector-curvature="0"
                   d="m 7324,17015 14028,-15468 61,-39 70,-29 75,-23 81,-14 85,-8 88,-1 93,6 92,12 95,18 94,25 93,28 91,35 88,39 84,44 80,48 75,52 82,69 79,77 72,83 66,88 60,91 53,95 47,97 39,98 32,97 24,97 17,95 9,91 1,88 -7,82 -17,77 -26,69 -13882,15454 -83,87 -88,72 -92,57 -98,43 -100,31 -103,17 -105,6 -108,-7 -107,-17 -107,-27 -213,-81 -205,-113 -191,-142 -175,-163 -149,-181 -121,-193 -48,-100 -38,-99 -28,-101 -18,-100 -6,-100 5,-98 18,-96 32,-92 45,-91 61,-85 z"
                   id="path286" />
              </g>
              <g
                 style="fill:none;stroke:none"
                 id="g288">
                <rect
                   x="7163"
                   y="1433"
                   width="16116"
                   height="17469"
                   id="rect290" />
              </g>
            </g>
          </g>
        </g>
      </g>
    </g>
    <g
       transform="matrix(0.03125,0,0,0.03125,46.001799,45.332589)"
       class="Group"
       id="g292"
       style="visibility:visible">
      <g
         class="Group"
         id="g294">
        <g
           class="Group"
           id="g296">
          <g
             class="Drawing"
             id="g298">
            <g
               id="g300">
              <g
                 style="fill:#4b914d;stroke:none"
                 id="g302">
                <path
                   inkscape:connector-curvature="0"
                   d="m 7810,16771 14042,-15305 251,27 95,12 42,8 43,10 40,13 41,17 44,20 47,25 104,67 128,93 82,69 78,77 72,83 66,88 59,92 53,93 46,97 38,97 32,95 23,95 17,92 8,89 1,83 -9,78 -17,71 -12,32 -13,31 -13865,15432 31,-86 22,-84 14,-84 6,-83 -1,-83 -8,-83 -36,-162 -62,-157 -83,-150 -102,-141 -118,-132 -132,-121 -142,-109 -150,-95 -156,-78 -158,-63 -158,-43 -154,-24 -149,-3 z"
                   id="path304" />
              </g>
              <g
                 style="fill:none;stroke:none"
                 id="g306">
                <rect
                   x="7810"
                   y="1466"
                   width="15454"
                   height="17087"
                   id="rect308" />
              </g>
            </g>
          </g>
        </g>
      </g>
    </g>
    <g
       transform="matrix(0.03125,0,0,0.03125,46.001799,45.332589)"
       class="Group"
       id="g310"
       style="visibility:visible">
      <g
         class="Group"
         id="g312">
        <g
           class="Group"
           id="g314">
          <g
             class="Drawing"
             id="g316">
            <g
               id="g318">
              <g
                 style="fill:#58b25a;stroke:none"
                 id="g320">
                <path
                   inkscape:connector-curvature="0"
                   d="m 8189,16808 13952,-15308 120,31 55,18 58,22 62,30 70,39 83,52 98,66 86,66 79,75 73,80 66,88 60,90 52,95 45,96 39,98 31,97 23,95 15,94 8,89 0,85 -10,79 -17,72 -12,32 -14,31 -13864,15442 45,-149 23,-145 1,-144 -18,-138 -38,-135 -53,-130 -69,-124 -83,-119 -94,-112 -105,-105 -114,-98 -122,-89 -127,-81 -133,-72 -135,-62 -136,-51 z"
                   id="path322" />
              </g>
              <g
                 style="fill:none;stroke:none"
                 id="g324">
                <rect
                   x="8189"
                   y="1500"
                   width="15076"
                   height="17063"
                   id="rect326" />
              </g>
            </g>
          </g>
        </g>
      </g>
    </g>
    <g
       transform="matrix(0.03125,0,0,0.03125,46.001799,45.332589)"
       class="Group"
       id="g328"
       style="visibility:visible">
      <g
         class="Group"
         id="g330">
        <g
           class="Group"
           id="g332">
          <g
             class="Drawing"
             id="g334">
            <g
               id="g336">
              <g
                 style="fill:#94fb8e;stroke:none"
                 id="g338">
                <path
                   inkscape:connector-curvature="0"
                   d="m 8577,16976 13882,-15367 98,48 96,63 93,74 86,85 82,94 74,101 68,107 60,110 50,113 41,114 31,113 20,109 9,106 -6,99 -6,48 -12,45 -14,42 -18,41 -13864,15441 38,-138 21,-131 7,-126 -8,-120 -22,-115 -33,-108 -45,-105 -54,-99 -64,-95 -72,-91 -79,-86 -84,-82 -183,-152 -192,-138 z"
                   id="path340" />
              </g>
              <g
                 style="fill:none;stroke:none"
                 id="g342">
                <rect
                   x="8577"
                   y="1609"
                   width="14691"
                   height="16954"
                   id="rect344" />
              </g>
            </g>
          </g>
        </g>
      </g>
    </g>
    <g
       transform="matrix(0.03125,0,0,0.03125,46.001799,45.332589)"
       class="Group"
       id="g346"
       style="visibility:visible">
      <g
         class="Group"
         id="g348">
        <g
           class="Group"
           id="g350">
          <g
             class="Drawing"
             id="g352">
            <g
               id="g354">
              <g
                 style="fill:#6cf36e;stroke:none"
                 id="g356">
                <path
                   inkscape:connector-curvature="0"
                   d="m 9081,17386 13876,-15359 77,119 70,127 62,132 26,70 23,69 18,71 14,71 9,71 5,73 -3,72 -8,73 -15,72 -23,73 -13865,15442 27,-121 20,-111 10,-100 4,-91 -3,-83 -8,-77 -15,-69 -20,-65 -25,-61 -29,-58 -66,-110 -161,-230 z"
                   id="path358" />
              </g>
              <g
                 style="fill:none;stroke:none"
                 id="g360">
                <rect
                   x="9081"
                   y="2027"
                   width="14181"
                   height="16536"
                   id="rect362" />
              </g>
            </g>
          </g>
        </g>
      </g>
    </g>
    <g
       transform="matrix(0.03125,0,0,0.03125,46.001799,45.332589)"
       class="Group"
       id="g364"
       style="visibility:visible">
      <g
         class="Group"
         id="g366">
        <g
           class="Group"
           id="g368">
          <g
             class="Drawing"
             id="g370">
            <g
               id="g372">
              <g
                 style="fill:#62cb60;stroke:none"
                 id="g374">
                <path
                   inkscape:connector-curvature="0"
                   d="m 9401,18232 13864,-15424 3,39 1,36 -2,36 -5,34 -7,35 -10,36 -26,83 -13869,15456 29,-118 7,-43 5,-35 10,-135 z"
                   id="path376" />
              </g>
              <g
                 style="fill:none;stroke:none"
                 id="g378">
                <rect
                   x="9350"
                   y="2807"
                   width="13920"
                   height="15757"
                   id="rect380" />
              </g>
            </g>
          </g>
        </g>
      </g>
    </g>
    <g
       transform="matrix(0.03125,0,0,0.03125,46.001799,45.332589)"
       class="Group"
       id="g382"
       style="visibility:visible">
      <g
         class="Group"
         id="g384">
        <g
           class="Drawing"
           id="g386">
          <g
             id="g388">
            <g
               style="fill:#ff0000;stroke:none"
               id="g390">
              <path
                 inkscape:connector-curvature="0"
                 d="m 16143,11018 205,104 287,86 143,33 142,24 142,14 140,3 138,-11 138,-23 138,-40 136,-57 134,-74 132,-95 132,-114 130,-139 61,-77 53,-82 46,-87 39,-91 58,-193 31,-205 6,-216 -17,-223 -40,-228 -61,-228 -79,-229 -99,-224 -116,-218 -131,-209 -145,-197 -160,-182 -170,-165 -181,-144 -357,-240 -334,-188 -158,-75 -153,-63 -149,-52 -144,-40 -143,-30 -138,-19 -136,-10 -133,0 -132,9 -131,19 -129,26 -129,35 156,338 -1086,-290 448,-784 301,374 143,-43 150,-31 157,-18 164,-6 171,9 175,21 182,35 185,50 190,63 193,76 196,93 198,106 200,120 202,136 403,318 194,182 179,195 163,207 146,216 129,224 109,229 92,235 71,236 51,237 29,236 8,232 -17,228 -39,220 -65,211 -89,200 -116,188 -115,139 -131,121 -145,102 -158,85 -168,68 -175,51 -183,36 -187,21 -189,8 -190,-8 -189,-20 -185,-33 -179,-45 -172,-55 -163,-67 -128,-84 218,-247 z"
                 id="path392" />
            </g>
            <g
               style="fill:none;stroke:none"
               id="g394">
              <rect
                 x="14079"
                 y="6167"
                 width="4830"
                 height="5411"
                 id="rect396" />
            </g>
          </g>
        </g>
      </g>
    </g>
    <g
       transform="matrix(0.03125,0,0,0.03125,46.001799,45.332589)"
       class="Group"
       id="g398"
       style="visibility:visible">
      <g
         class="Group"
         id="g400">
        <g
           class="Group"
           id="g402">
          <g
             class="Drawing"
             id="g404">
            <g
               id="g406">
              <g
                 style="fill:#ff0000;stroke:none"
                 id="g408">
                <path
                   inkscape:connector-curvature="0"
                   d="m 14899,12405 593,311 340,150 346,130 352,111 354,86 356,62 353,33 351,2 345,-30 338,-66 329,-104 318,-144 304,-186 289,-231 272,-279 123,-155 107,-164 91,-170 76,-176 111,-371 56,-389 7,-402 -37,-413 -79,-415 -115,-416 -148,-410 -174,-401 -199,-386 -218,-365 -231,-343 -244,-312 -250,-279 -252,-240 -341,-283 -344,-255 -345,-227 -344,-202 -342,-177 -340,-151 -334,-126 -329,-102 -321,-79 -311,-56 -301,-34 -289,-12 -277,10 -260,30 -244,50 -227,71 156,338 -1086,-290 448,-784 301,374 246,-81 272,-54 297,-27 316,-3 336,24 350,50 363,75 372,103 377,128 381,154 381,181 377,206 373,233 363,259 351,285 337,311 207,218 220,255 451,614 219,350 206,374 188,394 163,413 132,424 93,434 51,441 2,443 -55,442 -117,437 -185,429 -259,417 -240,281 -277,238 -309,196 -337,158 -360,118 -379,82 -394,46 -403,13 -409,-22 -412,-52 -407,-83 -400,-112 -386,-138 -371,-165 -350,-190 -312,-204 204,-228 z"
                   id="path410" />
              </g>
              <g
                 style="fill:none;stroke:none"
                 id="g412">
                <rect
                   x="12884"
                   y="4164"
                   width="8174"
                   height="9436"
                   id="rect414" />
              </g>
            </g>
          </g>
        </g>
      </g>
    </g>
    <g
       transform="matrix(0.03125,0,0,0.03125,46.001799,45.332589)"
       class="Group"
       id="g416"
       style="visibility:visible">
      <g
         class="Group"
         id="g418">
        <g
           class="Group"
           id="g420">
          <g
             class="Drawing"
             id="g422">
            <g
               id="g424">
              <g
                 style="fill:#ff0000;stroke:none"
                 id="g426">
                <path
                   inkscape:connector-curvature="0"
                   d="m 13695,13748 1197,642 611,283 600,240 589,191 577,142 564,92 549,40 534,-15 518,-69 500,-126 482,-186 461,-246 441,-307 420,-371 397,-436 179,-240 153,-249 130,-259 104,-267 144,-555 58,-578 -17,-595 -87,-606 -148,-612 -202,-608 -249,-600 -287,-585 -318,-564 -344,-537 -359,-503 -369,-463 -370,-417 -364,-364 -520,-450 -529,-396 -532,-340 -533,-291 -530,-244 -523,-199 -511,-158 -498,-120 -478,-85 -457,-53 -430,-24 -399,1 -367,24 -328,44 -287,60 -241,74 156,338 -1086,-290 448,-784 301,374 257,-86 303,-68 347,-48 387,-24 424,3 456,32 485,65 510,102 532,140 548,183 564,228 573,277 579,328 582,384 582,441 576,502 276,277 310,351 674,889 674,1087 310,599 278,626 235,645 182,656 116,660 42,656 -46,645 -59,316 -85,309 -110,303 -141,296 -169,287 -201,277 -350,398 -388,355 -424,310 -456,265 -487,216 -516,165 -544,113 -568,57 -592,2 -612,-59 -633,-120 -648,-184 -664,-249 -679,-318 -688,-387 -693,-436 201,-219 z"
                   id="path428" />
              </g>
              <g
                 style="fill:none;stroke:none"
                 id="g430">
                <rect
                   x="11696"
                   y="2127"
                   width="11552"
                   height="13594"
                   id="rect432" />
              </g>
            </g>
          </g>
        </g>
      </g>
    </g>
    <g
       transform="matrix(0.03125,0,0,0.03125,46.001799,45.332589)"
       class="Group"
       id="g434"
       style="visibility:visible">
      <g
         class="Group"
         id="g436">
        <g
           class="Group"
           id="g438">
          <g
             class="Drawing"
             id="g440">
            <g
               id="g442">
              <g
                 style="fill:#868452;stroke:none"
                 id="g444">
                <path
                   inkscape:connector-curvature="0"
                   d="m 7705,17143 -1470,1641 -30,73 -21,72 -14,73 -4,73 2,71 10,71 16,70 22,69 62,132 83,125 99,113 114,102 125,89 132,70 138,53 138,32 69,8 68,3 66,-5 66,-10 62,-19 61,-23 58,-32 55,-38 1444,-1582 20,-59 14,-62 9,-62 3,-62 -2,-64 -9,-64 -29,-125 -49,-125 -66,-119 -81,-112 -95,-104 -106,-93 -118,-81 -126,-66 -134,-49 -141,-29 -144,-9 -148,15 -74,16 -75,23 z"
                   id="path446" />
              </g>
              <g
                 style="fill:none;stroke:none"
                 id="g448">
                <rect
                   x="6166"
                   y="17089"
                   width="2937"
                   height="2996"
                   id="rect450" />
              </g>
            </g>
          </g>
        </g>
      </g>
    </g>
    <g
       transform="matrix(0.03125,0,0,0.03125,46.001799,45.332589)"
       class="Group"
       id="g452"
       style="visibility:visible">
      <g
         class="Group"
         id="g454">
        <g
           class="Group"
           id="g456">
          <g
             class="Drawing"
             id="g458">
            <g
               id="g460">
              <g
                 style="fill:#8d8f56;stroke:none"
                 id="g462">
                <path
                   inkscape:connector-curvature="0"
                   d="m 6611,18554 101,6 107,20 111,32 110,44 111,54 106,66 101,75 93,85 83,95 70,102 55,110 38,118 13,62 8,64 1,65 -5,66 -9,68 -16,69 -52,142 1402,-1523 22,-67 15,-67 10,-67 3,-66 -3,-66 -9,-65 -33,-125 -51,-121 -67,-114 -82,-106 -92,-97 -103,-87 -110,-76 -113,-61 -117,-48 -116,-33 -114,-15 -55,-1 -54,3 -53,9 -50,14 -1256,1436 z"
                   id="path464" />
              </g>
              <g
                 style="fill:none;stroke:none"
                 id="g466">
                <rect
                   x="6611"
                   y="17091"
                   width="2479"
                   height="2807"
                   id="rect468" />
              </g>
            </g>
          </g>
        </g>
      </g>
    </g>
    <g
       transform="matrix(0.03125,0,0,0.03125,46.001799,45.332589)"
       class="Group"
       id="g470"
       style="visibility:visible">
      <g
         class="Group"
         id="g472">
        <g
           class="Group"
           id="g474">
          <g
             class="Drawing"
             id="g476">
            <g
               id="g478">
              <g
                 style="fill:#bbb76e;stroke:none"
                 id="g480">
                <path
                   inkscape:connector-curvature="0"
                   d="m 6867,18589 74,21 80,30 84,40 87,49 85,57 84,66 80,75 74,82 65,88 56,95 42,104 29,108 13,115 -7,121 -26,125 -49,132 1402,-1523 30,-125 10,-122 -8,-118 -24,-113 -38,-109 -50,-102 -61,-97 -70,-88 -76,-81 -83,-72 -86,-64 -88,-53 -89,-43 -87,-32 -83,-20 -78,-9 -1292,1463 z"
                   id="path482" />
              </g>
              <g
                 style="fill:none;stroke:none"
                 id="g484">
                <rect
                   x="6867"
                   y="17125"
                   width="2214"
                   height="2773"
                   id="rect486" />
              </g>
            </g>
          </g>
        </g>
      </g>
    </g>
    <g
       transform="matrix(0.03125,0,0,0.03125,46.001799,45.332589)"
       class="Group"
       id="g488"
       style="visibility:visible">
      <g
         class="Group"
         id="g490">
        <g
           class="Group"
           id="g492">
          <g
             class="Drawing"
             id="g494">
            <g
               id="g496">
              <g
                 style="fill:#ffffa5;stroke:none"
                 id="g498">
                <path
                   inkscape:connector-curvature="0"
                   d="m 7150,18691 105,70 59,45 58,50 60,55 57,63 54,67 49,73 44,80 35,84 26,90 16,95 4,101 -11,105 -25,112 -42,116 1402,-1523 20,-113 9,-109 -3,-103 -13,-97 -21,-90 -31,-85 -37,-80 -43,-73 -48,-68 -52,-63 -55,-56 -58,-51 -57,-46 -58,-39 -57,-34 -54,-29 -1333,1453 z"
                   id="path500" />
              </g>
              <g
                 style="fill:none;stroke:none"
                 id="g502">
                <rect
                   x="7150"
                   y="17238"
                   width="1921"
                   height="2660"
                   id="rect504" />
              </g>
            </g>
          </g>
        </g>
      </g>
    </g>
    <g
       transform="matrix(0.03125,0,0,0.03125,46.001799,45.332589)"
       class="Drawing"
       id="g542"
       style="visibility:visible">
      <g
         id="g544">
        <g
           style="fill:none;stroke:#000000;stroke-width:100;stroke-linejoin:round"
           id="g546">
          <path
             inkscape:connector-curvature="0"
             style="fill:none"
             d="m 16300,8800 4500,2500"
             id="path548" />
        </g>
      </g>
    </g>
    <g
       transform="matrix(0.03125,0,0,0.03125,46.001799,45.332589)"
       class="Drawing"
       id="g562"
       style="visibility:visible">
      <g
         transform="matrix(0.98878154,0,0,0.99285187,220.36565,97.314582)"
         id="g564">
        <g
           style="fill:none;stroke:#000000;stroke-width:200;stroke-linejoin:round"
           id="g566">
          <path
             inkscape:connector-curvature="0"
             style="fill:none"
             d="m 18557,6098 c 48,41 95,82 142,124 130,116 254,234 372,354"
             id="path568" />
          <path
             inkscape:connector-curvature="0"
             style="fill:none"
             d="m 19415,6947 c 113,130 219,262 320,396"
             id="path570" />
          <path
             inkscape:connector-curvature="0"
             style="fill:none"
             d="m 20027,7760 c 93,144 178,289 257,434"
             id="path572" />
          <path
             inkscape:connector-curvature="0"
             style="fill:none"
             d="m 20508,8654 c 69,159 129,317 181,475"
             id="path574" />
          <path
             inkscape:connector-curvature="0"
             style="fill:none"
             d="m 20821,9617 c 36,169 62,337 78,502"
             id="path576" />
          <path
             inkscape:connector-curvature="0"
             style="fill:none"
             d="m 20913,10629 c -7,171 -26,340 -57,504"
             id="path578" />
          <path
             inkscape:connector-curvature="0"
             style="fill:none"
             d="m 20719,11620 c -59,159 -132,312 -218,458"
             id="path580" />
          <path
             inkscape:connector-curvature="0"
             style="fill:none"
             d="m 20204,12491 c -11,11 -21,23 -31,35 -105,117 -217,224 -337,320"
             id="path582" />
          <path
             inkscape:connector-curvature="0"
             style="fill:none"
             d="m 19415,13127 c -147,81 -302,149 -463,204"
             id="path584" />
          <path
             inkscape:connector-curvature="0"
             style="fill:none"
             d="m 18460,13459 c -165,29 -334,47 -507,55"
             id="path586" />
          <path
             inkscape:connector-curvature="0"
             style="fill:none"
             d="m 17448,13503 c -165,-13 -333,-35 -503,-67"
             id="path588" />
          <path
             inkscape:connector-curvature="0"
             style="fill:none"
             d="m 16449,13317 c -160,-46 -320,-100 -481,-162"
             id="path590" />
          <path
             inkscape:connector-curvature="0"
             style="fill:none"
             d="m 15504,12954 c -152,-73 -302,-152 -453,-239"
             id="path592" />
          <path
             inkscape:connector-curvature="0"
             style="fill:none"
             d="m 14621,12448 c -138,-93 -276,-192 -412,-296"
             id="path594" />
          <path
             inkscape:connector-curvature="0"
             style="fill:none"
             d="m 13814,11828 c -23,-21 -47,-42 -71,-63 -105,-95 -207,-191 -306,-288"
             id="path596" />
          <path
             inkscape:connector-curvature="0"
             style="fill:none"
             d="m 13090,11111 c -115,-130 -224,-261 -327,-394"
             id="path598" />
          <path
             inkscape:connector-curvature="0"
             style="fill:none"
             d="m 12467,10305 c -95,-143 -183,-287 -264,-431"
             id="path600" />
          <path
             inkscape:connector-curvature="0"
             style="fill:none"
             d="m 11972,9417 c -71,-157 -134,-314 -188,-471"
             id="path602" />
          <path
             inkscape:connector-curvature="0"
             style="fill:none"
             d="m 11643,8462 c -40,-170 -70,-338 -89,-504"
             id="path604" />
          <path
             inkscape:connector-curvature="0"
             style="fill:none"
             d="m 11527,7451 c 3,-172 17,-341 44,-505"
             id="path606" />
          <path
             inkscape:connector-curvature="0"
             style="fill:none"
             d="m 11693,6454 c 54,-161 122,-316 204,-465"
             id="path608" />
          <path
             inkscape:connector-curvature="0"
             style="fill:none"
             d="m 12179,5568 c 30,-36 60,-72 92,-107 83,-94 172,-181 265,-261"
             id="path610" />
          <path
             inkscape:connector-curvature="0"
             style="fill:none"
             d="m 12947,4906 c 145,-86 298,-159 457,-219"
             id="path612" />
          <path
             inkscape:connector-curvature="0"
             style="fill:none"
             d="m 13893,4546 c 163,-34 331,-57 503,-68"
             id="path614" />
          <path
             inkscape:connector-curvature="0"
             style="fill:none"
             d="m 14902,4477 c 166,10 334,29 505,58"
             id="path616" />
          <path
             inkscape:connector-curvature="0"
             style="fill:none"
             d="m 15906,4645 c 160,44 320,95 481,154"
             id="path618" />
          <path
             inkscape:connector-curvature="0"
             style="fill:none"
             d="m 16856,4994 c 152,71 305,148 457,233"
             id="path620" />
          <path
             inkscape:connector-curvature="0"
             style="fill:none"
             d="m 17743,5488 c 141,91 280,189 418,292"
             id="path622" />
        </g>
        <g
           style="fill:none;stroke:none"
           id="g624">
          <rect
             x="14747"
             y="2690"
             width="10601"
             height="7437"
             id="rect626" />
        </g>
      </g>
    </g>
    <g
       transform="matrix(0.03125,0,0,0.03125,46.001799,45.332589)"
       class="Drawing"
       id="g628"
       style="visibility:visible">
      <g
         id="g630">
        <g
           style="fill:none;stroke:#000000;stroke-width:200;stroke-linejoin:round"
           id="g632">
          <path
             inkscape:connector-curvature="0"
             style="fill:none"
             d="m 7000,19200 -991,991"
             id="path634" />
        </g>
        <g
           style="fill:#000000;stroke:none"
           id="g636">
          <path
             inkscape:connector-curvature="0"
             d="m 5500,20700 849,-424 -425,-425 -424,849 z"
             id="path638" />
        </g>
      </g>
    </g>
    <g
       ns0:preamble=""
       ns0:text="$\\vec{B}$"
       word-spacing="normal"
       letter-spacing="normal"
       font-size-adjust="none"
       font-stretch="normal"
       font-weight="normal"
       font-variant="normal"
       font-style="normal"
       stroke-miterlimit="10.433"
       xml:space="preserve"
       transform="matrix(5,0,0,-5,-765.74163,3815.8852)"
       id="content"
       style="font-style:normal;font-variant:normal;font-weight:normal;font-stretch:normal;letter-spacing:normal;word-spacing:normal;text-anchor:start;fill:none;stroke:#000000;stroke-linecap:butt;stroke-linejoin:miter;stroke-miterlimit:10.43299961;stroke-opacity:1;stroke-dasharray:none;stroke-dashoffset:0">
<path
   id="path6147"
   d="m 230.39,715.57 -0.02,-0.02 -0.01,-0.01 -0.02,-0.02 -0.01,-0.01 -0.02,-0.02 -0.02,-0.01 -0.02,-0.02 -0.02,-0.02 -0.01,-0.01 -0.02,-0.02 -0.04,-0.04 -0.04,-0.04 -0.04,-0.04 -0.02,-0.02 -0.02,-0.02 -0.01,-0.02 -0.02,-0.02 -0.02,-0.02 -0.01,-0.02 -0.02,-0.02 -0.01,-0.02 -0.01,-0.02 -0.01,-0.02 -0.01,-0.02 -0.01,-0.02 0,-0.02 -0.01,-0.02 0,-0.02 0,-0.01 c 0,-0.1 0.1,-0.2 0.2,-0.2 0.09,0 0.14,0.07 0.19,0.13 0.12,0.15 0.35,0.43 0.79,0.64 0.06,0.04 0.16,0.09 0.16,0.21 0,0.1 -0.07,0.15 -0.14,0.2 -0.22,0.15 -0.32,0.33 -0.4,0.57 -0.02,0.09 -0.06,0.22 -0.2,0.22 -0.14,0 -0.2,-0.13 -0.2,-0.21 0,-0.05 0.08,-0.37 0.24,-0.58 h -3.36 c -0.17,0 -0.35,0 -0.35,-0.2 0,-0.19 0.18,-0.19 0.35,-0.19 z"
   inkscape:connector-curvature="0"
   style="fill:#000000;stroke-width:0" />
<path
   id="path6149"
   d="m 225.03,707.9 -0.01,-0.03 -0.01,-0.04 -0.01,-0.03 -0.01,-0.03 -0.01,-0.03 -0.01,-0.03 -0.01,-0.02 -0.01,-0.03 -0.01,-0.02 -0.01,-0.02 -0.01,-0.02 -0.02,-0.02 -0.01,-0.01 -0.02,-0.02 -0.02,-0.01 -0.02,-0.02 -0.02,-0.01 -0.03,-0.01 -0.02,-0.01 -0.03,-0.01 -0.04,-0.01 -0.01,0 -0.02,-0.01 -0.02,0 -0.02,0 -0.02,0 -0.02,-0.01 -0.02,0 -0.02,0 -0.03,0 -0.02,-0.01 -0.03,0 -0.02,0 -0.03,0 -0.03,0 -0.03,0 -0.03,0 -0.03,0 -0.03,0 -0.03,-0.01 -0.04,0 -0.03,0 -0.04,0 c -0.17,0 -0.27,0 -0.27,-0.2 0,-0.11 0.09,-0.11 0.27,-0.11 h 3.56 c 1.57,0 2.75,1.18 2.75,2.16 0,0.71 -0.58,1.29 -1.55,1.4 1.04,0.19 2.09,0.92 2.09,1.87 0,0.74 -0.66,1.37 -1.86,1.37 l -0.14,-0.31 c 0.88,0 1.09,-0.58 1.09,-1.02 0,-0.88 -0.86,-1.82 -2.07,-1.82 h -1.46 l -0.06,-0.22 h 1.89 c 0.95,0 1.14,-0.74 1.14,-1.17 0,-0.98 -0.88,-1.95 -2.06,-1.95 h -1.36 c -0.14,0 -0.16,0 -0.22,0.01 -0.1,0.01 -0.12,0.02 -0.12,0.1 0,0.03 0,0.05 0.05,0.23 l 0.68,2.78 0.06,0.22 0.62,2.47 c 0.09,0.34 0.11,0.37 0.54,0.37 h 1.28 l 0.14,0.31 h -3.35 c -0.19,0 -0.28,0 -0.28,-0.2 0,-0.11 0.09,-0.11 0.28,-0.11 0.01,0 0.2,0 0.37,-0.02 0.18,-0.02 0.27,-0.03 0.27,-0.16 0,-0.03 -0.01,-0.07 -0.04,-0.18 z"
   inkscape:connector-curvature="0"
   style="fill:#000000;stroke-width:0" />
</g>    <g
       style="font-style:normal;font-variant:normal;font-weight:normal;font-stretch:normal;letter-spacing:normal;word-spacing:normal;text-anchor:start;fill:none;stroke:#000000;stroke-linecap:butt;stroke-linejoin:miter;stroke-miterlimit:10.43299961;stroke-opacity:1;stroke-dasharray:none;stroke-dashoffset:0"
       ns0:preamble=""
       ns0:text="$I$"
       text-anchor="start"
       word-spacing="normal"
       letter-spacing="normal"
       font-size-adjust="none"
       font-stretch="normal"
       font-weight="normal"
       font-variant="normal"
       font-style="normal"
       fill-opacity="1"
       fill-rule="evenodd"
       fill="none"
       stroke-opacity="1"
       stroke-dashoffset="0"
       stroke-dasharray="none"
       stroke-miterlimit="10.433"
       stroke-linejoin="miter"
       stroke-linecap="butt"
       stroke="black"
       xml:space="preserve"
       transform="matrix(5,0,0,-5,-639.97596,4140.4405)"
       id="g7675">
<path
   id="path7677"
   fill="black"
   stroke-width="0"
   d="M227.16,713.16 L227.17,713.19 L227.18,713.22 L227.18,713.25 L227.19,713.28 L227.2,713.31 L227.21,713.33 L227.22,713.36 L227.23,713.38 L227.24,713.4 L227.25,713.42 L227.26,713.44 L227.28,713.46 L227.29,713.48 L227.31,713.49 L227.33,713.51 L227.35,713.52 L227.38,713.53 L227.4,713.54 L227.43,713.55 L227.46,713.56 L227.49,713.57 L227.51,713.58 L227.53,713.58 L227.54,713.58 L227.56,713.59 L227.58,713.59 L227.61,713.59 L227.63,713.6 L227.65,713.6 L227.67,713.6 L227.7,713.6 L227.72,713.6 L227.75,713.61 L227.78,713.61 L227.81,713.61 L227.83,713.61 L227.86,713.61 L227.9,713.61 L227.93,713.61 L227.96,713.61 L228,713.61 L228.03,713.61 L228.07,713.61 C228.31,713.61,228.39,713.61,228.39,713.8 C228.39,713.92,228.28,713.92,228.24,713.92 C227.95,713.92,227.21,713.89,226.92,713.89 C226.62,713.89,225.89,713.92,225.6,713.92 C225.52,713.92,225.4,713.92,225.4,713.72 C225.4,713.61,225.49,713.61,225.68,713.61 C226.09,713.61,226.36,713.61,226.36,713.42 C226.36,713.38,226.36,713.35,226.34,713.27 L225,707.9 C224.91,707.53,224.88,707.43,224.09,707.43 C223.86,707.43,223.77,707.43,223.77,707.23 C223.77,707.12,223.89,707.12,223.92,707.12 C224.21,707.12,224.94,707.16,225.23,707.16 C225.52,707.16,226.26,707.12,226.56,707.12 C226.64,707.12,226.76,707.12,226.76,707.31 C226.76,707.43,226.68,707.43,226.46,707.43 C226.28,707.43,226.23,707.43,226.03,707.45 C225.82,707.47,225.79,707.51,225.79,707.62 C225.79,707.7,225.8,707.78,225.82,707.85 Z " />
</g>    <g
       id="g8174"
       transform="matrix(5,0,0,-5,-925.47835,4253.9095)"
       xml:space="preserve"
       stroke-miterlimit="10.433"
       font-style="normal"
       font-variant="normal"
       font-weight="normal"
       font-stretch="normal"
       font-size-adjust="none"
       letter-spacing="normal"
       word-spacing="normal"
       ns0:text="$z$"
       ns0:preamble=""
       style="font-style:normal;font-variant:normal;font-weight:normal;font-stretch:normal;letter-spacing:normal;word-spacing:normal;text-anchor:start;fill:none;stroke:#000000;stroke-linecap:butt;stroke-linejoin:miter;stroke-miterlimit:10.43299961;stroke-opacity:1;stroke-dasharray:none;stroke-dashoffset:0">
<path
   style="fill:#000000;stroke-width:0"
   inkscape:connector-curvature="0"
   d="m 224.76,707.95 0.05,0.05 0.05,0.06 0.04,0.04 0.05,0.05 0.04,0.05 0.05,0.04 0.04,0.05 0.04,0.04 0.04,0.04 0.04,0.04 0.04,0.04 0.04,0.03 0.03,0.04 0.04,0.03 0.07,0.07 0.07,0.06 0.06,0.06 0.07,0.06 0.06,0.06 0.13,0.11 0.07,0.06 0.06,0.06 c 0,0.01 0.62,0.53 0.98,0.89 0.95,0.93 1.17,1.41 1.17,1.44 0,0.1 -0.09,0.1 -0.11,0.1 -0.07,0 -0.1,-0.02 -0.15,-0.11 -0.3,-0.47 -0.51,-0.63 -0.75,-0.63 -0.24,0 -0.36,0.15 -0.51,0.32 -0.19,0.23 -0.36,0.42 -0.69,0.42 -0.74,0 -1.2,-0.92 -1.2,-1.13 0,-0.05 0.03,-0.11 0.12,-0.11 0.09,0 0.11,0.05 0.13,0.11 0.19,0.46 0.77,0.47 0.84,0.47 0.21,0 0.4,-0.07 0.63,-0.15 0.4,-0.15 0.51,-0.15 0.77,-0.15 -0.36,-0.43 -1.2,-1.15 -1.38,-1.3 l -0.9,-0.84 c -0.68,-0.67 -1.03,-1.24 -1.03,-1.31 0,-0.09 0.1,-0.09 0.12,-0.09 0.08,0 0.1,0.01 0.16,0.13 0.23,0.34 0.53,0.61 0.85,0.61 0.23,0 0.33,-0.09 0.58,-0.38 0.17,-0.21 0.34,-0.36 0.63,-0.36 0.99,0 1.57,1.26 1.57,1.53 0,0.05 -0.04,0.1 -0.12,0.1 -0.09,0 -0.11,-0.06 -0.14,-0.13 -0.23,-0.65 -0.87,-0.84 -1.2,-0.84 -0.2,0 -0.38,0.06 -0.58,0.13 -0.34,0.13 -0.49,0.17 -0.7,0.17 -0.02,0 -0.18,0 -0.27,-0.03 z"
   id="path8176" />
</g>    <g
       style="font-style:normal;font-variant:normal;font-weight:normal;font-stretch:normal;letter-spacing:normal;word-spacing:normal;text-anchor:start;fill:none;stroke:#000000;stroke-linecap:butt;stroke-linejoin:miter;stroke-miterlimit:10.43299961;stroke-opacity:1;stroke-dasharray:none;stroke-dashoffset:0"
       ns0:preamble=""
       ns0:text="$\\rho$"
       text-anchor="start"
       word-spacing="normal"
       letter-spacing="normal"
       font-size-adjust="none"
       font-stretch="normal"
       font-weight="normal"
       font-variant="normal"
       font-style="normal"
       fill-opacity="1"
       fill-rule="evenodd"
       fill="none"
       stroke-opacity="1"
       stroke-dashoffset="0"
       stroke-dasharray="none"
       stroke-miterlimit="10.433"
       stroke-linejoin="miter"
       stroke-linecap="butt"
       stroke="black"
       xml:space="preserve"
       transform="matrix(5,0,0,-5,-408.35873,3957.0865)"
       id="g3465">
<path
   id="path3467"
   fill="black"
   stroke-width="0"
   d="M223.76,705.4 L223.76,705.4 L223.76,705.39 L223.76,705.39 L223.76,705.38 L223.75,705.38 L223.75,705.37 L223.75,705.37 L223.75,705.36 L223.75,705.36 L223.75,705.35 L223.75,705.35 L223.75,705.35 L223.75,705.34 L223.75,705.34 L223.74,705.33 L223.74,705.32 L223.74,705.32 L223.74,705.31 L223.74,705.31 L223.74,705.3 L223.74,705.3 L223.74,705.29 L223.73,705.29 L223.73,705.28 L223.73,705.28 L223.73,705.28 L223.73,705.27 L223.73,705.27 L223.73,705.27 L223.73,705.26 L223.73,705.26 L223.73,705.26 L223.73,705.26 L223.73,705.25 L223.73,705.25 L223.73,705.24 C223.73,705.09,223.84,704.97,224.01,704.97 C224.22,704.97,224.34,705.15,224.36,705.18 C224.41,705.27,224.73,706.61,225,707.68 C225.2,707.28,225.51,707.02,225.98,707.02 L225.97,707.23 C225.28,707.23,225.12,708.03,225.12,708.12 C225.12,708.16,225.17,708.36,225.2,708.49 C225.48,709.6,225.57,709.96,225.79,710.36 C226.22,711.09,226.72,711.3,227.03,711.3 C227.4,711.3,227.72,711.02,227.72,710.33 C227.72,709.78,227.43,708.67,227.16,708.18 C226.83,707.55,226.35,707.23,225.97,707.23 H225.97 L225.98,707.02 C227.15,707.02,228.44,708.42,228.44,709.9 C228.44,710.96,227.78,711.52,227.05,711.52 C226.08,711.52,225.04,710.53,224.74,709.32 Z " />
</g>  </g>
</svg>
