<?xml version="1.0" encoding="UTF-8" standalone="no"?>
<!-- Created with Inkscape (http://www.inkscape.org/) -->

<svg
   xmlns:ns0="http://www.iki.fi/pav/software/textext/"
   xmlns:dc="http://purl.org/dc/elements/1.1/"
   xmlns:cc="http://creativecommons.org/ns#"
   xmlns:rdf="http://www.w3.org/1999/02/22-rdf-syntax-ns#"
   xmlns:svg="http://www.w3.org/2000/svg"
   xmlns="http://www.w3.org/2000/svg"
   xmlns:sodipodi="http://sodipodi.sourceforge.net/DTD/sodipodi-0.dtd"
   xmlns:inkscape="http://www.inkscape.org/namespaces/inkscape"
   id="svg2"
   version="1.1"
   inkscape:version="0.47 r22583"
   width="765"
   height="990"
   xml:space="preserve"
   sodipodi:docname="fig_dipolo.eps"><sodipodi:namedview
   pagecolor="#ffffff"
   bordercolor="#666666"
   borderopacity="1"
   objecttolerance="10"
   gridtolerance="10"
   guidetolerance="10"
   inkscape:pageopacity="0"
   inkscape:pageshadow="2"
   inkscape:window-width="1276"
   inkscape:window-height="746"
   id="namedview4"
   showgrid="false"
   inkscape:zoom="0.67425131"
   inkscape:cx="436.54223"
   inkscape:cy="546.3223"
   inkscape:window-x="-1"
   inkscape:window-y="-3"
   inkscape:window-maximized="1"
   inkscape:current-layer="g12" /><metadata
   id="metadata8"><rdf:RDF><cc:Work
       rdf:about=""><dc:format>image/svg+xml</dc:format><dc:type
         rdf:resource="http://purl.org/dc/dcmitype/StillImage" /><dc:title></dc:title></cc:Work></rdf:RDF></metadata><defs
   id="defs6"><marker
     inkscape:stockid="Arrow2Lend"
     orient="auto"
     refY="0.0"
     refX="0.0"
     id="Arrow2Lend"
     style="overflow:visible;"><path
       id="path3918"
       style="font-size:12.0;fill-rule:evenodd;stroke-width:0.62500000;stroke-linejoin:round;"
       d="M 8.7185878,4.0337352 L -2.2072895,0.016013256 L 8.7185884,-4.0017078 C 6.9730900,-1.6296469 6.9831476,1.6157441 8.7185878,4.0337352 z "
       transform="scale(1.1) rotate(180) translate(1,0)" /></marker><inkscape:perspective
     sodipodi:type="inkscape:persp3d"
     inkscape:vp_x="0 : 0.5 : 1"
     inkscape:vp_y="0 : 1000 : 0"
     inkscape:vp_z="1 : 0.5 : 1"
     inkscape:persp3d-origin="0.5 : 0.33333333 : 1"
     id="perspective10" /><clipPath
     clipPathUnits="userSpaceOnUse"
     id="clipPath22"><path
       d="m 269.375,6660.62 5411.245,0 0,-5411.24 -5411.245,0 0,5411.24 z"
       id="path24" /></clipPath><clipPath
     clipPathUnits="userSpaceOnUse"
     id="clipPath116"><path
       d="m 2968.06,6090.41 c -1175.89,0 -2129.138,-953.25 -2129.138,-2129.14 0,-1175.89 953.248,-2129.15 2129.138,-2129.15 1175.9,0 2129.14,953.26 2129.14,2129.15 0,1175.89 -953.24,2129.14 -2129.14,2129.14 z"
       id="path118" /></clipPath><clipPath
     clipPathUnits="userSpaceOnUse"
     id="clipPath126"><path
       d="m 269.375,6660.62 5411.245,0 0,-5411.24 -5411.245,0 0,5411.24 z"
       id="path128" /></clipPath><clipPath
     clipPathUnits="userSpaceOnUse"
     id="clipPath148"><path
       d="m 4029.5,3663.62 180.38,0 0,-208.12 -180.38,0 0,208.12 z"
       id="path150" /></clipPath><clipPath
     clipPathUnits="userSpaceOnUse"
     id="clipPath158"><path
       d="m 269.375,6660.62 5411.245,0 0,-5411.24 -5411.245,0 0,5411.24 z"
       id="path160" /></clipPath><clipPath
     clipPathUnits="userSpaceOnUse"
     id="clipPath238"><path
       d="m 4875.88,6105.62 208.12,0 0,-235.87 -208.12,0 0,235.87 z"
       id="path240" /></clipPath><clipPath
     clipPathUnits="userSpaceOnUse"
     id="clipPath248"><path
       d="m 269.375,6660.62 5411.245,0 0,-5411.24 -5411.245,0 0,5411.24 z"
       id="path250" /></clipPath><marker
     inkscape:stockid="Arrow2Lend6"
     orient="auto"
     refY="0.0"
     refX="0.0"
     id="Arrow2Lend6"
     style="overflow:visible;"><path
       id="path4363"
       style="stroke-linejoin:round;font-size:12.0;fill-rule:evenodd;stroke:#0000ff;stroke-width:0.62500000;fill:#0000ff"
       d="M 8.7185878,4.0337352 L -2.2072895,0.016013256 L 8.7185884,-4.0017078 C 6.9730900,-1.6296469 6.9831476,1.6157441 8.7185878,4.0337352 z "
       transform="scale(1.1) rotate(180) translate(1,0)" /></marker></defs><g
   id="g12"
   inkscape:groupmode="layer"
   inkscape:label="ink_ext_XXXXXX"
   transform="matrix(1.25,0,0,-1.25,0,990)"><g
   id="g14"
   transform="scale(0.1,0.1)"><path
     d="m 200,1180 5550,0 0,5550 -5550,0 0,-5550 z"
     style="fill:#ffffff;fill-opacity:1;fill-rule:nonzero;stroke:none"
     id="path16" /><g
     id="g18"><g
       id="g20"
       clip-path="url(#clipPath22)"><path
         d="m 3391.11,3961.27 c 0,233.64 -189.41,423.05 -423.05,423.05 -233.65,0 -423.06,-189.41 -423.06,-423.05 0,-233.64 189.41,-423.05 423.06,-423.05 233.64,0 423.05,189.41 423.05,423.05"
         style="fill:none;stroke:#a5a5a5;stroke-opacity:1;stroke-width:13.875;stroke-linecap:butt;stroke-linejoin:round;stroke-miterlimit:10;stroke-dasharray:none"
         id="path26" /><path
         d="m 3814.16,3961.27 c 0,467.3 -378.82,846.11 -846.1,846.11 -467.29,0 -846.11,-378.81 -846.11,-846.11 0,-467.29 378.82,-846.11 846.11,-846.11 467.28,0 846.1,378.82 846.1,846.11"
         style="fill:none;stroke:#a5a5a5;stroke-opacity:1;stroke-width:13.875;stroke-linecap:butt;stroke-linejoin:round;stroke-miterlimit:10;stroke-dasharray:none"
         id="path28" /><path
         d="m 4237.22,3961.27 c 0,700.94 -568.22,1269.16 -1269.16,1269.16 -700.94,0 -1269.16,-568.22 -1269.16,-1269.16 0,-700.93 568.22,-1269.16 1269.16,-1269.16 700.94,0 1269.16,568.23 1269.16,1269.16"
         style="fill:none;stroke:#a5a5a5;stroke-opacity:1;stroke-width:13.875;stroke-linecap:butt;stroke-linejoin:round;stroke-miterlimit:10;stroke-dasharray:none"
         id="path30" /><path
         d="m 4660.27,3961.27 c 0,934.58 -757.63,1692.21 -1692.21,1692.21 -934.59,0 -1692.21,-757.63 -1692.21,-1692.21 0,-934.58 757.62,-1692.21 1692.21,-1692.21 934.58,0 1692.21,757.63 1692.21,1692.21"
         style="fill:none;stroke:#a5a5a5;stroke-opacity:1;stroke-width:13.875;stroke-linecap:butt;stroke-linejoin:round;stroke-miterlimit:10;stroke-dasharray:none"
         id="path32" /><path
         d="m 5083.32,3961.27 c 0,1168.23 -947.04,2115.26 -2115.26,2115.26 C 1799.83,6076.53 852.797,5129.5 852.797,3961.27 852.797,2793.04 1799.83,1846 2968.06,1846 c 1168.22,0 2115.26,947.04 2115.26,2115.27"
         style="fill:none;stroke:#a5a5a5;stroke-opacity:1;stroke-width:13.875;stroke-linecap:butt;stroke-linejoin:round;stroke-miterlimit:10;stroke-dasharray:none"
         id="path34" /><path
         d="m 3179.59,3961.27 c 0,116.83 -94.71,211.53 -211.53,211.53 -116.83,0 -211.54,-94.7 -211.54,-211.53 0,-116.82 94.71,-211.52 211.54,-211.52 116.82,0 211.53,94.7 211.53,211.52"
         style="fill:none;stroke:#e9e9e9;stroke-opacity:1;stroke-width:13.875;stroke-linecap:butt;stroke-linejoin:round;stroke-miterlimit:10;stroke-dasharray:none"
         id="path36" /><path
         d="m 3602.64,3961.27 c 0,350.47 -284.11,634.59 -634.58,634.59 -350.47,0 -634.58,-284.12 -634.58,-634.59 0,-350.47 284.11,-634.57 634.58,-634.57 350.47,0 634.58,284.1 634.58,634.57"
         style="fill:none;stroke:#e9e9e9;stroke-opacity:1;stroke-width:13.875;stroke-linecap:butt;stroke-linejoin:round;stroke-miterlimit:10;stroke-dasharray:none"
         id="path38" /><path
         d="m 4025.68,3961.27 c 0,584.11 -473.51,1057.64 -1057.62,1057.64 -584.12,0 -1057.63,-473.53 -1057.63,-1057.64 0,-584.11 473.51,-1057.63 1057.63,-1057.63 584.11,0 1057.62,473.52 1057.62,1057.63"
         style="fill:none;stroke:#e9e9e9;stroke-opacity:1;stroke-width:13.875;stroke-linecap:butt;stroke-linejoin:round;stroke-miterlimit:10;stroke-dasharray:none"
         id="path40" /><path
         d="m 4448.75,3961.27 c 0,817.77 -662.94,1480.68 -1480.69,1480.68 -817.76,0 -1480.68,-662.91 -1480.68,-1480.68 0,-817.76 662.92,-1480.68 1480.68,-1480.68 817.75,0 1480.69,662.92 1480.69,1480.68"
         style="fill:none;stroke:#e9e9e9;stroke-opacity:1;stroke-width:13.875;stroke-linecap:butt;stroke-linejoin:round;stroke-miterlimit:10;stroke-dasharray:none"
         id="path42" /><path
         d="m 4871.8,3961.27 c 0,1051.41 -852.33,1903.74 -1903.74,1903.74 -1051.4,0 -1903.74,-852.33 -1903.74,-1903.74 0,-1051.4 852.34,-1903.73 1903.74,-1903.73 1051.41,0 1903.74,852.33 1903.74,1903.73"
         style="fill:none;stroke:#e9e9e9;stroke-opacity:1;stroke-width:13.875;stroke-linecap:butt;stroke-linejoin:round;stroke-miterlimit:10;stroke-dasharray:none"
         id="path44" /><path
         d="m 2968.06,3961.27 2156.89,0"
         style="fill:none;stroke:#a5a5a5;stroke-opacity:1;stroke-width:13.875;stroke-linecap:butt;stroke-linejoin:round;stroke-miterlimit:10;stroke-dasharray:none"
         id="path46" /><path
         d="M 2968.06,3961.27 4493.2,5486.42"
         style="fill:none;stroke:#a5a5a5;stroke-opacity:1;stroke-width:13.875;stroke-linecap:butt;stroke-linejoin:round;stroke-miterlimit:10;stroke-dasharray:none"
         id="path48" /><path
         d="m 2968.06,3961.27 0,2156.89"
         style="fill:none;stroke:#a5a5a5;stroke-opacity:1;stroke-width:13.875;stroke-linecap:butt;stroke-linejoin:round;stroke-miterlimit:10;stroke-dasharray:none"
         id="path50" /><path
         d="M 2968.06,3961.27 1442.91,5486.42"
         style="fill:none;stroke:#a5a5a5;stroke-opacity:1;stroke-width:13.875;stroke-linecap:butt;stroke-linejoin:round;stroke-miterlimit:10;stroke-dasharray:none"
         id="path52" /><path
         d="m 2968.06,3961.27 -2156.888,0"
         style="fill:none;stroke:#a5a5a5;stroke-opacity:1;stroke-width:13.875;stroke-linecap:butt;stroke-linejoin:round;stroke-miterlimit:10;stroke-dasharray:none"
         id="path54" /><path
         d="M 2968.06,3961.27 1442.91,2436.12"
         style="fill:none;stroke:#a5a5a5;stroke-opacity:1;stroke-width:13.875;stroke-linecap:butt;stroke-linejoin:round;stroke-miterlimit:10;stroke-dasharray:none"
         id="path56" /><path
         d="m 2968.06,3961.27 0,-2156.89"
         style="fill:none;stroke:#a5a5a5;stroke-opacity:1;stroke-width:13.875;stroke-linecap:butt;stroke-linejoin:round;stroke-miterlimit:10;stroke-dasharray:none"
         id="path58" /><path
         d="M 2968.06,3961.27 4493.2,2436.12"
         style="fill:none;stroke:#a5a5a5;stroke-opacity:1;stroke-width:13.875;stroke-linecap:butt;stroke-linejoin:round;stroke-miterlimit:10;stroke-dasharray:none"
         id="path60" /><path
         d="m 2968.06,3961.27 2156.89,0"
         style="fill:none;stroke:#a5a5a5;stroke-opacity:1;stroke-width:13.875;stroke-linecap:butt;stroke-linejoin:round;stroke-miterlimit:10;stroke-dasharray:none"
         id="path62" /><path
         d="M 2968.06,3961.27 5083.5,4382.06"
         style="fill:none;stroke:#e9e9e9;stroke-opacity:1;stroke-width:13.875;stroke-linecap:butt;stroke-linejoin:round;stroke-miterlimit:10;stroke-dasharray:none"
         id="path64" /><path
         d="m 2968.06,3961.27 1992.7,825.41"
         style="fill:none;stroke:#e9e9e9;stroke-opacity:1;stroke-width:13.875;stroke-linecap:butt;stroke-linejoin:round;stroke-miterlimit:10;stroke-dasharray:none"
         id="path66" /><path
         d="m 2968.06,3961.27 1793.39,1198.3"
         style="fill:none;stroke:#e9e9e9;stroke-opacity:1;stroke-width:13.875;stroke-linecap:butt;stroke-linejoin:round;stroke-miterlimit:10;stroke-dasharray:none"
         id="path68" /><path
         d="m 2968.06,3961.27 1198.3,1793.39"
         style="fill:none;stroke:#e9e9e9;stroke-opacity:1;stroke-width:13.875;stroke-linecap:butt;stroke-linejoin:round;stroke-miterlimit:10;stroke-dasharray:none"
         id="path70" /><path
         d="m 2968.06,3961.27 825.4,1992.7"
         style="fill:none;stroke:#e9e9e9;stroke-opacity:1;stroke-width:13.875;stroke-linecap:butt;stroke-linejoin:round;stroke-miterlimit:10;stroke-dasharray:none"
         id="path72" /><path
         d="m 2968.06,3961.27 420.79,2115.44"
         style="fill:none;stroke:#e9e9e9;stroke-opacity:1;stroke-width:13.875;stroke-linecap:butt;stroke-linejoin:round;stroke-miterlimit:10;stroke-dasharray:none"
         id="path74" /><path
         d="m 2968.06,3961.27 -420.8,2115.44"
         style="fill:none;stroke:#e9e9e9;stroke-opacity:1;stroke-width:13.875;stroke-linecap:butt;stroke-linejoin:round;stroke-miterlimit:10;stroke-dasharray:none"
         id="path76" /><path
         d="m 2968.06,3961.27 -825.41,1992.7"
         style="fill:none;stroke:#e9e9e9;stroke-opacity:1;stroke-width:13.875;stroke-linecap:butt;stroke-linejoin:round;stroke-miterlimit:10;stroke-dasharray:none"
         id="path78" /><path
         d="M 2968.06,3961.27 1769.75,5754.66"
         style="fill:none;stroke:#e9e9e9;stroke-opacity:1;stroke-width:13.875;stroke-linecap:butt;stroke-linejoin:round;stroke-miterlimit:10;stroke-dasharray:none"
         id="path80" /><path
         d="M 2968.06,3961.27 1174.67,5159.57"
         style="fill:none;stroke:#e9e9e9;stroke-opacity:1;stroke-width:13.875;stroke-linecap:butt;stroke-linejoin:round;stroke-miterlimit:10;stroke-dasharray:none"
         id="path82" /><path
         d="M 2968.06,3961.27 975.355,4786.68"
         style="fill:none;stroke:#e9e9e9;stroke-opacity:1;stroke-width:13.875;stroke-linecap:butt;stroke-linejoin:round;stroke-miterlimit:10;stroke-dasharray:none"
         id="path84" /><path
         d="M 2968.06,3961.27 852.613,4382.06"
         style="fill:none;stroke:#e9e9e9;stroke-opacity:1;stroke-width:13.875;stroke-linecap:butt;stroke-linejoin:round;stroke-miterlimit:10;stroke-dasharray:none"
         id="path86" /><path
         d="M 2968.06,3961.27 852.613,3540.48"
         style="fill:none;stroke:#e9e9e9;stroke-opacity:1;stroke-width:13.875;stroke-linecap:butt;stroke-linejoin:round;stroke-miterlimit:10;stroke-dasharray:none"
         id="path88" /><path
         d="M 2968.06,3961.27 975.355,3135.86"
         style="fill:none;stroke:#e9e9e9;stroke-opacity:1;stroke-width:13.875;stroke-linecap:butt;stroke-linejoin:round;stroke-miterlimit:10;stroke-dasharray:none"
         id="path90" /><path
         d="M 2968.06,3961.27 1174.67,2762.97"
         style="fill:none;stroke:#e9e9e9;stroke-opacity:1;stroke-width:13.875;stroke-linecap:butt;stroke-linejoin:round;stroke-miterlimit:10;stroke-dasharray:none"
         id="path92" /><path
         d="M 2968.06,3961.27 1769.75,2167.89"
         style="fill:none;stroke:#e9e9e9;stroke-opacity:1;stroke-width:13.875;stroke-linecap:butt;stroke-linejoin:round;stroke-miterlimit:10;stroke-dasharray:none"
         id="path94" /><path
         d="M 2968.06,3961.27 2142.65,1968.56"
         style="fill:none;stroke:#e9e9e9;stroke-opacity:1;stroke-width:13.875;stroke-linecap:butt;stroke-linejoin:round;stroke-miterlimit:10;stroke-dasharray:none"
         id="path96" /><path
         d="M 2968.06,3961.27 2547.26,1845.82"
         style="fill:none;stroke:#e9e9e9;stroke-opacity:1;stroke-width:13.875;stroke-linecap:butt;stroke-linejoin:round;stroke-miterlimit:10;stroke-dasharray:none"
         id="path98" /><path
         d="M 2968.06,3961.27 3388.85,1845.82"
         style="fill:none;stroke:#e9e9e9;stroke-opacity:1;stroke-width:13.875;stroke-linecap:butt;stroke-linejoin:round;stroke-miterlimit:10;stroke-dasharray:none"
         id="path100" /><path
         d="m 2968.06,3961.27 825.4,-1992.71"
         style="fill:none;stroke:#e9e9e9;stroke-opacity:1;stroke-width:13.875;stroke-linecap:butt;stroke-linejoin:round;stroke-miterlimit:10;stroke-dasharray:none"
         id="path102" /><path
         d="M 2968.06,3961.27 4166.36,2167.89"
         style="fill:none;stroke:#e9e9e9;stroke-opacity:1;stroke-width:13.875;stroke-linecap:butt;stroke-linejoin:round;stroke-miterlimit:10;stroke-dasharray:none"
         id="path104" /><path
         d="M 2968.06,3961.27 4761.45,2762.97"
         style="fill:none;stroke:#e9e9e9;stroke-opacity:1;stroke-width:13.875;stroke-linecap:butt;stroke-linejoin:round;stroke-miterlimit:10;stroke-dasharray:none"
         id="path106" /><path
         d="m 2968.06,3961.27 1992.7,-825.41"
         style="fill:none;stroke:#e9e9e9;stroke-opacity:1;stroke-width:13.875;stroke-linecap:butt;stroke-linejoin:round;stroke-miterlimit:10;stroke-dasharray:none"
         id="path108" /><path
         d="M 2968.06,3961.27 5083.5,3540.48"
         style="fill:none;stroke:#e9e9e9;stroke-opacity:1;stroke-width:13.875;stroke-linecap:butt;stroke-linejoin:round;stroke-miterlimit:10;stroke-dasharray:none"
         id="path110" /></g></g><g
     id="g112"><g
       id="g114"
       clip-path="url(#clipPath116)"><path
         d="m 2968.06,3961.27 39.06,5.39 92.26,29.01 70.91,33.33 80.73,48.63 87.41,66.03 89.49,84 86.93,101.44 80.57,118.36 65.54,123.42 53.73,134.6 40.45,148.52 22.68,154.67 4.19,81.21 -1.21,81.36 -6.68,80.96 -12.27,80.01 -41.04,154.48 -62.62,144.13 -85.47,133.07 -104.55,113.55 -105.43,80.95 -115.3,60.99 -138.06,42.88 -142.58,14.27 -143.14,-14.91 -138.45,-43.71 -124.89,-68.09 -112.8,-91.53 -89.28,-101.15 -74.67,-115.83 -67.7,-153 -43.22,-164.8 -16.97,-144.9 0.85,-146.37 22.32,-167.9 43.29,-160.99 53.46,-133.45 65.08,-122.42 81.37,-119.41 87.79,-102.13 85.62,-80.41 83.81,-63.95 81.62,-49.95 71.96,-34.38 96.42,-30.65 28.53,-4.61 10.24,-0.72 -9.2,-0.61 -28.99,-4.59 -93.02,-29.15 -68.75,-32.17 -78.1,-46.57 -86.94,-64.83 -89.26,-82.67 -85.53,-98.19 -79.73,-114.59 -68.1,-125.03 -55.97,-136.93 -44.6,-162.81 -23.14,-170.05 -2.8,-77.49 2.11,-77.52 7.12,-77.09 12.19,-76.18 42.93,-157.34 65.35,-146.3 77.35,-119.34 92.84,-103.62 116.62,-92.15 128.99,-67.34 129.15,-38.79 133.02,-13.88 139.2,12.55 135.15,39.82 124.3,64.13 113.01,87.19 102.8,113.25 84.01,132.25 61.08,141.56 40.32,151.48 12.42,79.96 6.84,80.93 1.34,81.34 -4.03,81.2 -23.25,158.57 -41.87,152.1 -52.75,131.07 -63.98,120.39 -83.58,122.56 -90.3,104.34 -82.61,77.1 -80.89,61.79 -80.7,49.72 -71.43,34.52 -99.79,32.09 -38.81,5.32"
         style="fill:none;stroke:#ff0000;stroke-opacity:1;stroke-width:13.875;stroke-linecap:butt;stroke-linejoin:round;stroke-miterlimit:10;stroke-dasharray:none"
         id="path120" /></g></g><g
     id="g122"><g
       id="g124"
       clip-path="url(#clipPath126)"><path
         d="m 2968.06,3961.27 2156.89,0"
         style="fill:none;stroke:#000000;stroke-opacity:1;stroke-width:13.875;stroke-linecap:butt;stroke-linejoin:round;stroke-miterlimit:10;stroke-dasharray:none"
         id="path130" /><path
         d="m 2968.06,3961.27 2156.89,0"
         style="fill:none;stroke:#000000;stroke-opacity:1;stroke-width:13.875;stroke-linecap:butt;stroke-linejoin:round;stroke-miterlimit:10;stroke-dasharray:none"
         id="path132" /><path
         d="m 3179.59,3961.27 0,-36.07"
         style="fill:none;stroke:#000000;stroke-opacity:1;stroke-width:13.875;stroke-linecap:butt;stroke-linejoin:round;stroke-miterlimit:10;stroke-dasharray:none"
         id="path134" /><path
         d="m 3602.64,3961.27 0,-36.07"
         style="fill:none;stroke:#000000;stroke-opacity:1;stroke-width:13.875;stroke-linecap:butt;stroke-linejoin:round;stroke-miterlimit:10;stroke-dasharray:none"
         id="path136" /><path
         d="m 4025.68,3961.27 0,-36.07"
         style="fill:none;stroke:#000000;stroke-opacity:1;stroke-width:13.875;stroke-linecap:butt;stroke-linejoin:round;stroke-miterlimit:10;stroke-dasharray:none"
         id="path138" /><path
         d="m 4448.75,3961.27 0,-36.07"
         style="fill:none;stroke:#000000;stroke-opacity:1;stroke-width:13.875;stroke-linecap:butt;stroke-linejoin:round;stroke-miterlimit:10;stroke-dasharray:none"
         id="path140" /><path
         d="m 4871.8,3961.27 0,-36.07"
         style="fill:none;stroke:#000000;stroke-opacity:1;stroke-width:13.875;stroke-linecap:butt;stroke-linejoin:round;stroke-miterlimit:10;stroke-dasharray:none"
         id="path142" /></g></g><g
     id="g144"><g
       id="g146"
       clip-path="url(#clipPath148)"><path
         d="m 4100.16,3574.74 55.95,0 0,-2.16 -60.93,-63.52 25.8,0 c 6.07,0 9.93,0.25 11.6,0.76 1.66,0.5 3.17,1.51 4.55,3.02 1.37,1.53 2.92,4.31 4.66,8.36 l 3.26,0 -7.81,-24.08 -57.24,0 0,2.61 60.93,63.3 -25.36,0 c -5.36,0 -8.61,-0.14 -9.76,-0.43 -1.59,-0.29 -3.19,-1.19 -4.77,-2.71 -1.59,-1.51 -3.26,-4 -5,-7.47 l -3.47,0 7.59,22.32"
         style="fill:#000000;fill-opacity:1;fill-rule:nonzero;stroke:none"
         id="path152" /></g></g><g
     id="g154"><g
       id="g156"
       clip-path="url(#clipPath158)"><path
         d="m 2968.06,3961.27 0,-72.15"
         style="fill:none;stroke:#000000;stroke-opacity:1;stroke-width:13.875;stroke-linecap:butt;stroke-linejoin:round;stroke-miterlimit:10;stroke-dasharray:none"
         id="path162" /><path
         d="m 2925.99,3764.22 c 0,13.6 2.07,25.33 6.19,35.24 4.11,9.9 9.57,17.24 16.36,21.99 5.35,3.76 10.85,5.65 16.48,5.65 9.1,0 17.28,-4.64 24.49,-13.87 9.12,-11.58 13.67,-27.25 13.67,-47.05 0,-13.88 -1.98,-25.66 -5.97,-35.34 -3.96,-9.69 -9.07,-16.74 -15.27,-21.14 -6.22,-4.41 -12.14,-6.61 -17.79,-6.61 -11.42,0 -20.95,6.73 -28.61,20.16 -6.37,11.41 -9.55,25.08 -9.55,40.97 z m 17.35,-2.17 c 0,-16.46 2.02,-29.91 6.07,-40.32 3.32,-8.67 8.32,-13.01 14.96,-13.01 3.18,0 6.47,1.41 9.87,4.23 3.4,2.82 5.96,7.63 7.7,14.42 2.73,9.97 4.1,24.21 4.1,42.7 0,13.59 -1.44,24.94 -4.33,34.04 -2.02,6.8 -4.77,11.57 -8.24,14.32 -2.3,1.87 -5.2,2.82 -8.67,2.82 -3.9,0 -7.44,-1.74 -10.61,-5.21 -4.21,-4.91 -7.05,-12.61 -8.58,-23.09 -1.51,-10.47 -2.27,-20.78 -2.27,-30.9"
         style="fill:#000000;fill-opacity:1;fill-rule:nonzero;stroke:none"
         id="path164" /><path
         d="m 3391.11,3961.27 0,-72.15"
         style="fill:none;stroke:#000000;stroke-opacity:1;stroke-width:13.875;stroke-linecap:butt;stroke-linejoin:round;stroke-miterlimit:10;stroke-dasharray:none"
         id="path166" /><path
         d="m 3286.74,3764.22 c 0,13.6 2.07,25.33 6.19,35.24 4.11,9.9 9.57,17.24 16.36,21.99 5.35,3.76 10.85,5.65 16.48,5.65 9.11,0 17.28,-4.64 24.49,-13.87 9.12,-11.58 13.67,-27.25 13.67,-47.05 0,-13.88 -1.98,-25.66 -5.97,-35.34 -3.96,-9.69 -9.07,-16.74 -15.27,-21.14 -6.22,-4.41 -12.14,-6.61 -17.79,-6.61 -11.42,0 -20.95,6.73 -28.61,20.16 -6.37,11.41 -9.55,25.08 -9.55,40.97 z m 17.35,-2.17 c 0,-16.46 2.02,-29.91 6.07,-40.32 3.32,-8.67 8.32,-13.01 14.96,-13.01 3.18,0 6.47,1.41 9.87,4.23 3.4,2.82 5.96,7.63 7.7,14.42 2.73,9.97 4.1,24.21 4.1,42.7 0,13.59 -1.44,24.94 -4.33,34.04 -2.02,6.8 -4.77,11.57 -8.24,14.32 -2.3,1.87 -5.2,2.82 -8.67,2.82 -3.9,0 -7.44,-1.74 -10.61,-5.21 -4.21,-4.91 -7.05,-12.61 -8.58,-23.09 -1.51,-10.47 -2.27,-20.78 -2.27,-30.9 z m 76.1,-86.92 0,3.9 c 6.06,2.02 10.73,5.13 13.97,9.32 3.27,4.19 4.89,8.67 4.89,13.43 0,1.01 -0.23,1.96 -0.66,2.83 -0.43,0.43 -0.85,0.64 -1.3,0.64 -0.57,0 -1.94,-0.57 -4.11,-1.73 -1.16,-0.43 -2.31,-0.64 -3.46,-0.64 -2.9,0 -5.18,0.82 -6.84,2.48 -1.66,1.67 -2.49,4.01 -2.49,7.05 0,2.89 1.08,5.34 3.25,7.37 2.16,2.02 4.84,3.04 8.02,3.04 3.9,0 7.36,-1.67 10.4,-4.98 3.04,-3.34 4.55,-7.82 4.55,-13.45 0,-6.08 -2.09,-11.71 -6.28,-16.91 -4.19,-5.21 -10.84,-9.33 -19.94,-12.35 z m 117.94,53.11 -8.24,-22.99 -70.46,0 0,3.26 c 20.66,18.93 35.23,34.4 43.68,46.4 8.46,11.99 12.68,22.91 12.68,32.73 0,7.66 -2.3,13.91 -6.94,18.76 -4.62,4.83 -10.18,7.26 -16.69,7.26 -5.77,0 -11.02,-1.7 -15.72,-5.1 -4.69,-3.4 -8.13,-8.42 -10.3,-15.06 l -3.24,0 c 1.44,10.83 5.2,19.14 11.26,24.93 6.08,5.77 13.67,8.67 22.77,8.67 9.69,0 17.78,-3.11 24.28,-9.32 6.51,-6.22 9.76,-13.52 9.76,-21.9 0,-6.08 -1.44,-12.14 -4.33,-18.22 -4.34,-9.53 -11.35,-19.57 -21.03,-30.13 -14.6,-16.04 -23.79,-25.73 -27.53,-29.04 l 31.22,0 c 6.35,0 10.79,0.25 13.32,0.74 2.54,0.52 4.84,1.49 6.93,2.93 2.11,1.45 3.88,3.47 5.32,6.08 l 3.26,0"
         style="fill:#000000;fill-opacity:1;fill-rule:nonzero;stroke:none"
         id="path168" /><path
         d="m 3814.16,3961.27 0,-72.15"
         style="fill:none;stroke:#000000;stroke-opacity:1;stroke-width:13.875;stroke-linecap:butt;stroke-linejoin:round;stroke-miterlimit:10;stroke-dasharray:none"
         id="path170" /><path
         d="m 3716.87,3764.22 c 0,13.6 2.07,25.33 6.19,35.24 4.1,9.9 9.57,17.24 16.35,21.99 5.36,3.76 10.86,5.65 16.49,5.65 9.1,0 17.27,-4.64 24.49,-13.87 9.11,-11.58 13.66,-27.25 13.66,-47.05 0,-13.88 -1.98,-25.66 -5.96,-35.34 -3.97,-9.69 -9.07,-16.74 -15.28,-21.14 -6.21,-4.41 -12.14,-6.61 -17.79,-6.61 -11.41,0 -20.95,6.73 -28.61,20.16 -6.36,11.41 -9.54,25.08 -9.54,40.97 z m 17.34,-2.17 c 0,-16.46 2.03,-29.91 6.08,-40.32 3.32,-8.67 8.31,-13.01 14.96,-13.01 3.18,0 6.46,1.41 9.86,4.23 3.4,2.82 5.97,7.63 7.7,14.42 2.74,9.97 4.11,24.21 4.11,42.7 0,13.59 -1.44,24.94 -4.33,34.04 -2.02,6.8 -4.77,11.57 -8.24,14.32 -2.3,1.87 -5.21,2.82 -8.67,2.82 -3.9,0 -7.44,-1.74 -10.62,-5.21 -4.2,-4.91 -7.04,-12.61 -8.57,-23.09 -1.51,-10.47 -2.28,-20.78 -2.28,-30.9 z m 76.11,-86.92 0,3.9 c 6.06,2.02 10.72,5.13 13.97,9.32 3.26,4.19 4.88,8.67 4.88,13.43 0,1.01 -0.22,1.96 -0.65,2.83 -0.43,0.43 -0.86,0.64 -1.31,0.64 -0.56,0 -1.94,-0.57 -4.1,-1.73 -1.16,-0.43 -2.32,-0.64 -3.47,-0.64 -2.9,0 -5.18,0.82 -6.84,2.48 -1.65,1.67 -2.48,4.01 -2.48,7.05 0,2.89 1.08,5.34 3.24,7.37 2.17,2.02 4.85,3.04 8.02,3.04 3.9,0 7.37,-1.67 10.41,-4.98 3.04,-3.34 4.55,-7.82 4.55,-13.45 0,-6.08 -2.09,-11.71 -6.29,-16.91 -4.18,-5.21 -10.83,-9.33 -19.93,-12.35 z m 119.22,74.13 0,-12.57 -16.04,0 0,-31.44 -14.52,0 0,31.44 -50.51,0 0,11.28 55.5,79.13 9.53,0 0,-77.84 16.04,0 z m -30.56,0 0,59.42 -41.84,-59.42 41.84,0"
         style="fill:#000000;fill-opacity:1;fill-rule:nonzero;stroke:none"
         id="path172" /><path
         d="m 4237.22,3961.27 0,-72.15"
         style="fill:none;stroke:#000000;stroke-opacity:1;stroke-width:13.875;stroke-linecap:butt;stroke-linejoin:round;stroke-miterlimit:10;stroke-dasharray:none"
         id="path174" /><path
         d="m 4133.12,3764.22 c 0,13.6 2.07,25.33 6.19,35.24 4.1,9.9 9.57,17.24 16.35,21.99 5.36,3.76 10.86,5.65 16.49,5.65 9.1,0 17.27,-4.64 24.49,-13.87 9.11,-11.58 13.66,-27.25 13.66,-47.05 0,-13.88 -1.98,-25.66 -5.96,-35.34 -3.97,-9.69 -9.07,-16.74 -15.28,-21.14 -6.21,-4.41 -12.14,-6.61 -17.79,-6.61 -11.41,0 -20.95,6.73 -28.61,20.16 -6.36,11.41 -9.54,25.08 -9.54,40.97 z m 17.34,-2.17 c 0,-16.46 2.03,-29.91 6.08,-40.32 3.32,-8.67 8.31,-13.01 14.96,-13.01 3.18,0 6.46,1.41 9.86,4.23 3.4,2.82 5.97,7.63 7.7,14.42 2.74,9.97 4.11,24.21 4.11,42.7 0,13.59 -1.44,24.94 -4.33,34.04 -2.02,6.8 -4.77,11.57 -8.24,14.32 -2.3,1.87 -5.21,2.82 -8.67,2.82 -3.9,0 -7.44,-1.74 -10.62,-5.21 -4.2,-4.91 -7.04,-12.61 -8.57,-23.09 -1.51,-10.47 -2.28,-20.78 -2.28,-30.9 z m 76.11,-86.92 0,3.9 c 6.06,2.02 10.72,5.13 13.97,9.32 3.26,4.19 4.88,8.67 4.88,13.43 0,1.01 -0.22,1.96 -0.65,2.83 -0.43,0.43 -0.86,0.64 -1.31,0.64 -0.56,0 -1.94,-0.57 -4.1,-1.73 -1.16,-0.43 -2.32,-0.64 -3.47,-0.64 -2.9,0 -5.18,0.82 -6.84,2.48 -1.65,1.67 -2.48,4.01 -2.48,7.05 0,2.89 1.08,5.34 3.24,7.37 2.17,2.02 4.85,3.04 8.02,3.04 3.9,0 7.37,-1.67 10.41,-4.98 3.04,-3.34 4.55,-7.82 4.55,-13.45 0,-6.08 -2.09,-11.71 -6.29,-16.91 -4.18,-5.21 -10.83,-9.33 -19.93,-12.35 z m 116.2,151.97 0,-3.26 c -7.81,-0.72 -14.16,-2.23 -19.08,-4.55 -4.91,-2.31 -9.75,-5.86 -14.53,-10.61 -4.77,-4.78 -8.71,-10.09 -11.82,-15.95 -3.11,-5.85 -5.74,-12.75 -7.91,-20.7 8.54,5.79 17.06,8.67 25.59,8.67 8.09,0 15.14,-3.29 21.13,-9.86 5.99,-6.58 9.01,-15.07 9.01,-25.48 0,-9.97 -3.04,-19.07 -9.12,-27.32 -7.23,-9.96 -16.83,-14.95 -28.83,-14.95 -8.25,0 -15.18,2.74 -20.82,8.24 -11.12,10.4 -16.69,23.99 -16.69,40.75 0,10.7 2.14,20.85 6.4,30.47 4.26,9.6 10.36,18.17 18.31,25.68 7.96,7.52 15.59,12.54 22.89,15.07 7.29,2.54 14.05,3.8 20.27,3.8 l 5.2,0 z m -54.85,-61.58 c -1.01,-7.95 -1.53,-14.37 -1.53,-19.28 0,-5.65 1.06,-11.76 3.16,-18.33 2.09,-6.58 5.16,-11.81 9.21,-15.72 3.04,-2.74 6.71,-4.11 11.06,-4.11 5.05,0 9.6,2.42 13.65,7.26 4.05,4.84 6.08,11.67 6.08,20.49 0,10.12 -2.03,18.81 -6.08,26.11 -4.05,7.3 -9.68,10.95 -16.92,10.95 -2.3,0 -4.73,-0.46 -7.25,-1.4 -2.53,-0.94 -6.33,-2.93 -11.38,-5.97"
         style="fill:#000000;fill-opacity:1;fill-rule:nonzero;stroke:none"
         id="path176" /><path
         d="m 4660.27,3961.27 0,-72.15"
         style="fill:none;stroke:#000000;stroke-opacity:1;stroke-width:13.875;stroke-linecap:butt;stroke-linejoin:round;stroke-miterlimit:10;stroke-dasharray:none"
         id="path178" /><path
         d="m 4563.24,3764.22 c 0,13.6 2.07,25.33 6.19,35.24 4.11,9.9 9.57,17.24 16.36,21.99 5.35,3.76 10.85,5.65 16.48,5.65 9.11,0 17.28,-4.64 24.49,-13.87 9.12,-11.58 13.67,-27.25 13.67,-47.05 0,-13.88 -1.98,-25.66 -5.97,-35.34 -3.96,-9.69 -9.07,-16.74 -15.27,-21.14 -6.22,-4.41 -12.14,-6.61 -17.79,-6.61 -11.42,0 -20.95,6.73 -28.61,20.16 -6.37,11.41 -9.55,25.08 -9.55,40.97 z m 17.35,-2.17 c 0,-16.46 2.02,-29.91 6.07,-40.32 3.32,-8.67 8.32,-13.01 14.96,-13.01 3.18,0 6.47,1.41 9.87,4.23 3.4,2.82 5.96,7.63 7.7,14.42 2.73,9.97 4.1,24.21 4.1,42.7 0,13.59 -1.44,24.94 -4.33,34.04 -2.02,6.8 -4.77,11.57 -8.24,14.32 -2.3,1.87 -5.2,2.82 -8.67,2.82 -3.9,0 -7.44,-1.74 -10.61,-5.21 -4.21,-4.91 -7.05,-12.61 -8.58,-23.09 -1.51,-10.47 -2.27,-20.78 -2.27,-30.9 z m 76.1,-86.92 0,3.9 c 6.06,2.02 10.73,5.13 13.97,9.32 3.27,4.19 4.89,8.67 4.89,13.43 0,1.01 -0.23,1.96 -0.66,2.83 -0.43,0.43 -0.85,0.64 -1.3,0.64 -0.57,0 -1.94,-0.57 -4.11,-1.73 -1.16,-0.43 -2.31,-0.64 -3.46,-0.64 -2.9,0 -5.18,0.82 -6.84,2.48 -1.66,1.67 -2.49,4.01 -2.49,7.05 0,2.89 1.08,5.34 3.25,7.37 2.16,2.02 4.84,3.04 8.02,3.04 3.9,0 7.36,-1.67 10.4,-4.98 3.04,-3.34 4.55,-7.82 4.55,-13.45 0,-6.08 -2.09,-11.71 -6.28,-16.91 -4.19,-5.21 -10.84,-9.33 -19.94,-12.35 z m 70.03,90.19 c -9.55,7.79 -15.69,14.05 -18.44,18.74 -2.73,4.71 -4.11,9.57 -4.11,14.64 0,7.8 3,14.48 8.99,20.05 6,5.56 13.99,8.35 23.96,8.35 9.68,0 17.45,-2.61 23.3,-7.81 5.86,-5.2 8.78,-11.13 8.78,-17.77 0,-4.48 -1.59,-9.04 -4.77,-13.66 -3.18,-4.63 -9.75,-10.13 -19.73,-16.48 10.27,-7.95 17.07,-14.24 20.38,-18.86 4.49,-5.92 6.73,-12.22 6.73,-18.87 0,-8.38 -3.19,-15.56 -9.54,-21.56 -6.36,-6.01 -14.74,-9 -25.15,-9 -11.41,0 -20.31,3.53 -26.66,10.62 -5.07,5.77 -7.59,12.08 -7.59,18.86 0,5.2 1.8,10.41 5.41,15.61 3.62,5.2 9.77,10.92 18.44,17.14 z m 13.65,9.53 c 7.08,6.35 11.56,11.37 13.45,15.06 1.87,3.7 2.81,7.84 2.81,12.47 0,6.07 -1.73,10.87 -5.2,14.42 -3.47,3.54 -8.17,5.31 -14.1,5.31 -6.06,0 -10.97,-1.74 -14.73,-5.21 -3.76,-3.47 -5.65,-7.51 -5.65,-12.14 0,-3.02 0.8,-6.1 2.39,-9.21 1.59,-3.11 3.83,-6.04 6.73,-8.78 l 14.3,-11.92 z m -9.55,-12.8 c -4.91,-4.03 -8.51,-8.49 -10.83,-13.33 -2.3,-4.84 -3.47,-10.07 -3.47,-15.72 0,-7.66 2.07,-13.77 6.18,-18.32 4.12,-4.55 9.36,-6.82 15.71,-6.82 6.38,0 11.47,1.8 15.3,5.43 3.83,3.6 5.74,7.93 5.74,13 0,4.19 -1.15,8.01 -3.47,11.48 -4.05,6.22 -12.43,14.31 -25.16,24.28"
         style="fill:#000000;fill-opacity:1;fill-rule:nonzero;stroke:none"
         id="path180" /><path
         d="m 5083.32,3961.27 0,-72.15"
         style="fill:none;stroke:#000000;stroke-opacity:1;stroke-width:13.875;stroke-linecap:butt;stroke-linejoin:round;stroke-miterlimit:10;stroke-dasharray:none"
         id="path182" /><path
         d="m 5083.5,4382.06 35.38,7.03"
         style="fill:none;stroke:#000000;stroke-opacity:1;stroke-width:13.875;stroke-linecap:butt;stroke-linejoin:round;stroke-miterlimit:10;stroke-dasharray:none"
         id="path184" /><path
         d="m 4761.45,5159.57 30,20.05"
         style="fill:none;stroke:#000000;stroke-opacity:1;stroke-width:13.875;stroke-linecap:butt;stroke-linejoin:round;stroke-miterlimit:10;stroke-dasharray:none"
         id="path186" /><path
         d="m 4960.76,4786.68 33.33,13.81"
         style="fill:none;stroke:#000000;stroke-opacity:1;stroke-width:13.875;stroke-linecap:butt;stroke-linejoin:round;stroke-miterlimit:10;stroke-dasharray:none"
         id="path188" /><path
         d="m 4166.36,5754.66 20.04,29.99"
         style="fill:none;stroke:#000000;stroke-opacity:1;stroke-width:13.875;stroke-linecap:butt;stroke-linejoin:round;stroke-miterlimit:10;stroke-dasharray:none"
         id="path190" /><path
         d="m 3388.85,6076.71 7.03,35.38"
         style="fill:none;stroke:#000000;stroke-opacity:1;stroke-width:13.875;stroke-linecap:butt;stroke-linejoin:round;stroke-miterlimit:10;stroke-dasharray:none"
         id="path192" /><path
         d="m 3793.46,5953.97 13.81,33.33"
         style="fill:none;stroke:#000000;stroke-opacity:1;stroke-width:13.875;stroke-linecap:butt;stroke-linejoin:round;stroke-miterlimit:10;stroke-dasharray:none"
         id="path194" /><path
         d="m 5083.5,3540.48 35.38,-7.03"
         style="fill:none;stroke:#000000;stroke-opacity:1;stroke-width:13.875;stroke-linecap:butt;stroke-linejoin:round;stroke-miterlimit:10;stroke-dasharray:none"
         id="path196" /><path
         d="m 4761.45,2762.97 30,-20.05"
         style="fill:none;stroke:#000000;stroke-opacity:1;stroke-width:13.875;stroke-linecap:butt;stroke-linejoin:round;stroke-miterlimit:10;stroke-dasharray:none"
         id="path198" /><path
         d="m 4960.76,3135.86 33.33,-13.81"
         style="fill:none;stroke:#000000;stroke-opacity:1;stroke-width:13.875;stroke-linecap:butt;stroke-linejoin:round;stroke-miterlimit:10;stroke-dasharray:none"
         id="path200" /><path
         d="m 4166.36,2167.89 20.04,-30"
         style="fill:none;stroke:#000000;stroke-opacity:1;stroke-width:13.875;stroke-linecap:butt;stroke-linejoin:round;stroke-miterlimit:10;stroke-dasharray:none"
         id="path202" /><path
         d="m 3388.85,1845.82 7.03,-35.38"
         style="fill:none;stroke:#000000;stroke-opacity:1;stroke-width:13.875;stroke-linecap:butt;stroke-linejoin:round;stroke-miterlimit:10;stroke-dasharray:none"
         id="path204" /><path
         d="m 3793.46,1968.56 13.81,-33.33"
         style="fill:none;stroke:#000000;stroke-opacity:1;stroke-width:13.875;stroke-linecap:butt;stroke-linejoin:round;stroke-miterlimit:10;stroke-dasharray:none"
         id="path206" /><path
         d="m 2547.26,6076.71 -7.03,35.38"
         style="fill:none;stroke:#000000;stroke-opacity:1;stroke-width:13.875;stroke-linecap:butt;stroke-linejoin:round;stroke-miterlimit:10;stroke-dasharray:none"
         id="path208" /><path
         d="m 1769.75,5754.66 -20.04,29.99"
         style="fill:none;stroke:#000000;stroke-opacity:1;stroke-width:13.875;stroke-linecap:butt;stroke-linejoin:round;stroke-miterlimit:10;stroke-dasharray:none"
         id="path210" /><path
         d="m 2142.65,5953.97 -13.8,33.33"
         style="fill:none;stroke:#000000;stroke-opacity:1;stroke-width:13.875;stroke-linecap:butt;stroke-linejoin:round;stroke-miterlimit:10;stroke-dasharray:none"
         id="path212" /><path
         d="m 1174.67,5159.57 -29.99,20.05"
         style="fill:none;stroke:#000000;stroke-opacity:1;stroke-width:13.875;stroke-linecap:butt;stroke-linejoin:round;stroke-miterlimit:10;stroke-dasharray:none"
         id="path214" /><path
         d="m 852.613,4382.06 -35.379,7.03"
         style="fill:none;stroke:#000000;stroke-opacity:1;stroke-width:13.875;stroke-linecap:butt;stroke-linejoin:round;stroke-miterlimit:10;stroke-dasharray:none"
         id="path216" /><path
         d="m 975.355,4786.68 -33.332,13.81"
         style="fill:none;stroke:#000000;stroke-opacity:1;stroke-width:13.875;stroke-linecap:butt;stroke-linejoin:round;stroke-miterlimit:10;stroke-dasharray:none"
         id="path218" /><path
         d="m 2547.26,1845.82 -7.03,-35.38"
         style="fill:none;stroke:#000000;stroke-opacity:1;stroke-width:13.875;stroke-linecap:butt;stroke-linejoin:round;stroke-miterlimit:10;stroke-dasharray:none"
         id="path220" /><path
         d="m 1769.75,2167.89 -20.04,-30"
         style="fill:none;stroke:#000000;stroke-opacity:1;stroke-width:13.875;stroke-linecap:butt;stroke-linejoin:round;stroke-miterlimit:10;stroke-dasharray:none"
         id="path222" /><path
         d="m 2142.65,1968.56 -13.8,-33.33"
         style="fill:none;stroke:#000000;stroke-opacity:1;stroke-width:13.875;stroke-linecap:butt;stroke-linejoin:round;stroke-miterlimit:10;stroke-dasharray:none"
         id="path224" /><path
         d="m 1174.67,2762.97 -29.99,-20.05"
         style="fill:none;stroke:#000000;stroke-opacity:1;stroke-width:13.875;stroke-linecap:butt;stroke-linejoin:round;stroke-miterlimit:10;stroke-dasharray:none"
         id="path226" /><path
         d="m 852.613,3540.48 -35.379,-7.03"
         style="fill:none;stroke:#000000;stroke-opacity:1;stroke-width:13.875;stroke-linecap:butt;stroke-linejoin:round;stroke-miterlimit:10;stroke-dasharray:none"
         id="path228" /><path
         d="m 975.355,3135.86 -33.332,-13.81"
         style="fill:none;stroke:#000000;stroke-opacity:1;stroke-width:13.875;stroke-linecap:butt;stroke-linejoin:round;stroke-miterlimit:10;stroke-dasharray:none"
         id="path230" /><path
         d="m 5124.95,3961.27 c 0,1191.23 -965.68,2156.89 -2156.89,2156.89 -1191.22,0 -2156.888,-965.66 -2156.888,-2156.89 0,-1191.22 965.668,-2156.89 2156.888,-2156.89 1191.21,0 2156.89,965.67 2156.89,2156.89"
         style="fill:none;stroke:#000000;stroke-opacity:1;stroke-width:13.875;stroke-linecap:butt;stroke-linejoin:round;stroke-miterlimit:10;stroke-dasharray:none"
         id="path232" /></g></g><g
     id="g234"><g
       id="g236"
       clip-path="url(#clipPath238)"><path
         d="m 4957.39,5968.39 1.08,-18.86 c 0.14,-4.33 0.86,-8.6 2.17,-12.79 1.3,-4.19 2.88,-7.88 4.77,-11.06 1.88,-3.18 4.01,-5.74 6.4,-7.69 2.37,-1.95 4.8,-2.93 7.25,-2.93 2.61,0 5.1,1.08 7.48,3.25 2.39,2.17 4.48,4.88 6.29,8.14 1.8,3.25 3.33,6.89 4.55,10.94 1.23,4.05 1.91,8.09 2.07,12.14 l 1.08,18.86 -43.14,0 z m 42.26,26.45 c -0.13,1.59 -0.36,3.4 -0.63,5.42 -0.3,2.03 -0.74,4.09 -1.31,6.18 -0.58,2.1 -1.16,4.08 -1.73,5.96 -0.59,1.88 -1.24,3.47 -1.96,4.77 -1.87,3.62 -4.26,6.62 -7.14,9 -2.9,2.38 -5.57,3.58 -8.04,3.58 -1.87,0 -4.29,-1.09 -7.25,-3.25 -2.97,-2.17 -5.32,-4.92 -7.05,-8.24 -0.86,-1.59 -1.67,-3.44 -2.39,-5.53 -0.72,-2.1 -1.33,-4.19 -1.85,-6.29 -0.5,-2.09 -0.92,-4.15 -1.28,-6.18 -0.37,-2.02 -0.63,-3.76 -0.77,-5.2 l -1.08,-17.35 43.58,0 -1.1,17.13 z m 19.3,-20.16 c 0,-9.83 -0.72,-18.39 -2.16,-25.69 -1.44,-7.3 -3.26,-13.19 -5.43,-17.67 -1.44,-3.03 -3.28,-5.96 -5.52,-8.78 -2.25,-2.82 -4.77,-5.27 -7.59,-7.37 -2.81,-2.1 -5.81,-3.76 -9,-4.99 -3.18,-1.22 -6.58,-1.84 -10.19,-1.84 -6.21,0 -12.2,1.99 -17.99,5.96 -5.77,3.98 -10.48,9.58 -14.09,16.81 -2.6,5.05 -4.56,11.16 -5.85,18.31 -1.31,7.16 -1.96,15.58 -1.96,25.26 0,8.24 0.58,15.11 1.74,20.6 1.15,5.49 2.81,10.55 4.98,15.17 1.89,3.76 4.05,7.16 6.5,10.19 2.46,3.04 5.14,5.71 8.02,8.02 2.91,2.32 5.93,4.09 9.12,5.32 3.18,1.22 6.36,1.84 9.53,1.84 2.61,0 5.39,-0.51 8.36,-1.52 2.95,-1.01 5.88,-2.57 8.76,-4.66 2.91,-2.1 5.75,-4.81 8.58,-8.13 2.82,-3.33 5.38,-7.23 7.69,-11.71 2.17,-4.48 3.8,-9.64 4.88,-15.5 1.08,-5.85 1.62,-12.39 1.62,-19.62"
         style="fill:#000000;fill-opacity:1;fill-rule:nonzero;stroke:none"
         id="path242" /></g></g><g
     id="g244"><g
       id="g246"
       clip-path="url(#clipPath248)"><path
         d="m 5124.95,3961.27 72.14,0"
         style="fill:none;stroke:#000000;stroke-opacity:1;stroke-width:13.875;stroke-linecap:butt;stroke-linejoin:round;stroke-miterlimit:10;stroke-dasharray:none"
         id="path252" /><path
         d="m 5201.49,3958.47 c 0,13.6 2.07,25.33 6.19,35.24 4.11,9.9 9.57,17.24 16.36,21.99 5.35,3.76 10.85,5.65 16.48,5.65 9.1,0 17.28,-4.64 24.49,-13.87 9.12,-11.58 13.67,-27.25 13.67,-47.05 0,-13.88 -1.98,-25.66 -5.97,-35.34 -3.96,-9.69 -9.07,-16.74 -15.27,-21.14 -6.22,-4.41 -12.14,-6.61 -17.79,-6.61 -11.42,0 -20.95,6.73 -28.61,20.16 -6.37,11.41 -9.55,25.08 -9.55,40.97 z m 17.35,-2.17 c 0,-16.46 2.02,-29.91 6.07,-40.32 3.32,-8.67 8.32,-13.01 14.96,-13.01 3.18,0 6.47,1.41 9.87,4.23 3.4,2.82 5.96,7.63 7.7,14.42 2.73,9.97 4.1,24.21 4.1,42.7 0,13.59 -1.44,24.94 -4.33,34.04 -2.02,6.8 -4.77,11.57 -8.24,14.32 -2.3,1.87 -5.2,2.82 -8.67,2.82 -3.9,0 -7.44,-1.74 -10.61,-5.21 -4.21,-4.91 -7.05,-12.61 -8.58,-23.09 -1.51,-10.47 -2.27,-20.78 -2.27,-30.9"
         style="fill:#000000;fill-opacity:1;fill-rule:nonzero;stroke:none"
         id="path254" /><path
         d="m 4493.2,5486.42 51.02,51.02"
         style="fill:none;stroke:#000000;stroke-opacity:1;stroke-width:13.875;stroke-linecap:butt;stroke-linejoin:round;stroke-miterlimit:10;stroke-dasharray:none"
         id="path256" /><path
         d="m 4680.1,5716.69 c 0,-3.47 -0.47,-7.01 -1.4,-10.62 -0.95,-3.61 -2.32,-6.87 -4.12,-9.76 -1.81,-2.89 -4.1,-5.24 -6.83,-7.04 -2.75,-1.81 -5.86,-2.71 -9.32,-2.71 -3.33,0 -6.37,1.44 -9.12,4.33 -2.73,2.9 -4.98,7.23 -6.72,13.01 -0.29,0.72 -0.5,1.77 -0.65,3.15 -0.14,1.37 -0.29,2.78 -0.43,4.22 -0.13,1.45 -0.25,2.85 -0.33,4.23 -0.07,1.37 -0.1,2.49 -0.1,3.36 0,6.94 0.5,14.02 1.51,21.25 1.02,7.22 1.81,14.45 2.39,21.68 l -20.38,0 c -1.31,-13.59 -2.53,-25.01 -3.68,-34.26 -1.16,-9.25 -2.38,-17.49 -3.69,-24.71 -0.43,-2.03 -0.83,-3.87 -1.19,-5.53 -0.36,-1.66 -0.83,-3.07 -1.42,-4.23 -1.29,-2.74 -2.92,-4.62 -4.87,-5.63 -1.95,-1.02 -3.71,-1.52 -5.31,-1.52 -2.89,0 -5.24,1.01 -7.05,3.03 -1.8,2.02 -2.71,4.12 -2.71,6.29 0,2.6 0.68,4.73 2.06,6.39 1.37,1.67 2.86,3.51 4.45,5.53 1.58,1.88 3.07,3.8 4.44,5.75 1.37,1.95 2.28,4.44 2.71,7.48 l 5.2,41.41 -8.45,0 c -1.87,0 -3.98,-0.51 -6.29,-1.52 -2.31,-1.01 -4.25,-2.6 -5.85,-4.77 l -3.69,-5.2 -3.03,0 c 2.74,8.38 6.11,14.95 10.08,19.72 3.98,4.77 9.14,7.16 15.49,7.16 l 66.79,0 0,-15.39 -22.77,0 c -0.29,-3.47 -0.57,-7.16 -0.86,-11.06 -0.29,-3.9 -0.54,-7.73 -0.76,-11.49 -0.23,-3.76 -0.37,-7.34 -0.43,-10.73 -0.07,-3.4 -0.12,-6.25 -0.12,-8.56 0,-2.17 0.23,-4.23 0.65,-6.18 0.43,-1.96 1.16,-3.73 2.17,-5.32 1.01,-1.59 2.25,-2.89 3.69,-3.9 1.45,-1.01 3.25,-1.51 5.41,-1.51 1.45,0 3.08,0.5 4.89,1.51 1.8,1.01 3.22,2.6 4.23,4.77 0.43,0.87 0.75,1.95 0.97,3.25 0.21,1.31 0.4,2.68 0.54,4.12 l 3.9,0 0,0"
         style="fill:#000000;fill-opacity:1;fill-rule:nonzero;stroke:none"
         id="path258" /><path
         d="m 4668.39,5497.51 0,-12.57 -16.04,0 0,-31.44 -14.53,0 0,31.44 -50.5,0 0,11.27 55.5,79.13 9.53,0 0,-77.83 16.04,0 z m -30.57,0 0,59.4 -41.83,-59.4 41.83,0"
         style="fill:#000000;fill-opacity:1;fill-rule:nonzero;stroke:none"
         id="path260" /><path
         d="m 4563.69,5626.94 152.62,0"
         style="fill:none;stroke:#000000;stroke-opacity:1;stroke-width:13.875;stroke-linecap:square;stroke-linejoin:miter;stroke-miterlimit:10;stroke-dasharray:none"
         id="path262" /><path
         d="m 2968.06,6118.16 0,72.15"
         style="fill:none;stroke:#000000;stroke-opacity:1;stroke-width:13.875;stroke-linecap:butt;stroke-linejoin:round;stroke-miterlimit:10;stroke-dasharray:none"
         id="path264" /><path
         d="m 3015.1,6479.82 c 0,-3.47 -0.47,-7.01 -1.4,-10.62 -0.95,-3.62 -2.32,-6.87 -4.12,-9.76 -1.81,-2.89 -4.1,-5.24 -6.83,-7.05 -2.75,-1.8 -5.86,-2.71 -9.32,-2.71 -3.33,0 -6.37,1.45 -9.12,4.34 -2.73,2.89 -4.98,7.23 -6.72,13.01 -0.29,0.72 -0.5,1.77 -0.65,3.14 -0.14,1.37 -0.29,2.78 -0.43,4.23 -0.13,1.44 -0.25,2.85 -0.33,4.22 -0.07,1.38 -0.1,2.5 -0.1,3.36 0,6.94 0.5,14.02 1.51,21.25 1.02,7.23 1.81,14.45 2.39,21.68 l -20.38,0 c -1.31,-13.59 -2.53,-25 -3.68,-34.25 -1.16,-9.25 -2.38,-17.49 -3.69,-24.72 -0.43,-2.02 -0.83,-3.87 -1.19,-5.53 -0.36,-1.66 -0.83,-3.07 -1.42,-4.22 -1.29,-2.75 -2.92,-4.63 -4.87,-5.64 -1.95,-1.01 -3.71,-1.52 -5.31,-1.52 -2.89,0 -5.24,1.01 -7.05,3.04 -1.8,2.02 -2.71,4.12 -2.71,6.29 0,2.6 0.68,4.73 2.06,6.39 1.37,1.66 2.86,3.5 4.45,5.53 1.58,1.88 3.07,3.79 4.44,5.74 1.37,1.96 2.28,4.45 2.71,7.48 l 5.2,41.41 -8.45,0 c -1.87,0 -3.98,-0.5 -6.29,-1.52 -2.31,-1.01 -4.25,-2.6 -5.85,-4.77 l -3.69,-5.2 -3.03,0 c 2.74,8.38 6.11,14.96 10.08,19.73 3.98,4.77 9.14,7.15 15.49,7.15 l 66.79,0 0,-15.39 -22.77,0 c -0.29,-3.47 -0.57,-7.15 -0.86,-11.05 -0.29,-3.91 -0.54,-7.74 -0.76,-11.5 -0.23,-3.75 -0.37,-7.33 -0.43,-10.73 -0.07,-3.39 -0.12,-6.25 -0.12,-8.56 0,-2.17 0.23,-4.23 0.65,-6.18 0.43,-1.95 1.16,-3.72 2.17,-5.31 1.01,-1.59 2.25,-2.89 3.69,-3.9 1.45,-1.02 3.25,-1.52 5.41,-1.52 1.45,0 3.08,0.5 4.89,1.52 1.8,1.01 3.22,2.6 4.23,4.77 0.43,0.86 0.75,1.95 0.97,3.25 0.21,1.3 0.4,2.67 0.54,4.12 l 3.9,0 0,0"
         style="fill:#000000;fill-opacity:1;fill-rule:nonzero;stroke:none"
         id="path266" /><path
         d="m 3002.1,6239.61 -8.24,-22.99 -70.46,0 0,3.26 c 20.66,18.93 35.23,34.4 43.68,46.39 8.46,12 12.68,22.91 12.68,32.74 0,7.66 -2.3,13.91 -6.94,18.75 -4.62,4.85 -10.18,7.26 -16.69,7.26 -5.77,0 -11.02,-1.7 -15.72,-5.09 -4.69,-3.39 -8.13,-8.42 -10.3,-15.07 l -3.24,0 c 1.44,10.84 5.2,19.15 11.26,24.93 6.08,5.78 13.67,8.67 22.77,8.67 9.69,0 17.78,-3.1 24.28,-9.32 6.51,-6.21 9.76,-13.51 9.76,-21.89 0,-6.07 -1.44,-12.14 -4.33,-18.21 -4.34,-9.54 -11.35,-19.59 -21.04,-30.14 -14.59,-16.04 -23.78,-25.72 -27.52,-29.05 l 31.22,0 c 6.35,0 10.79,0.25 13.32,0.76 2.53,0.5 4.84,1.48 6.93,2.93 2.11,1.44 3.87,3.46 5.32,6.07 l 3.26,0"
         style="fill:#000000;fill-opacity:1;fill-rule:nonzero;stroke:none"
         id="path268" /><path
         d="m 2898.69,6390.06 152.62,0"
         style="fill:none;stroke:#000000;stroke-opacity:1;stroke-width:13.875;stroke-linecap:square;stroke-linejoin:miter;stroke-miterlimit:10;stroke-dasharray:none"
         id="path270" /><path
         d="m 1442.91,5486.42 -51.02,51.02"
         style="fill:none;stroke:#000000;stroke-opacity:1;stroke-width:13.875;stroke-linecap:butt;stroke-linejoin:round;stroke-miterlimit:10;stroke-dasharray:none"
         id="path272" /><path
         d="m 1124.86,5841.57 c 3.46,8.09 7.8,14.31 13,18.64 5.21,4.34 11.64,6.5 19.3,6.5 9.68,0 17.05,-3.1 22.11,-9.32 3.9,-4.62 5.85,-9.53 5.85,-14.74 0,-8.81 -5.49,-17.85 -16.47,-27.1 7.37,-2.89 12.93,-7.01 16.69,-12.35 3.76,-5.35 5.64,-11.64 5.64,-18.87 0,-10.26 -3.33,-19.15 -9.98,-26.66 -8.52,-9.97 -20.88,-14.96 -37.07,-14.96 -8.09,0 -13.58,1.01 -16.47,3.03 -2.89,2.03 -4.34,4.19 -4.34,6.51 0,1.73 0.69,3.21 2.06,4.44 1.37,1.23 3,1.85 4.88,1.85 1.44,0 2.96,-0.22 4.55,-0.66 1.01,-0.29 3.29,-1.33 6.83,-3.14 3.54,-1.81 5.96,-2.93 7.26,-3.36 2.17,-0.58 4.48,-0.87 6.94,-0.87 5.93,0 11.13,2.31 15.61,6.94 4.48,4.62 6.72,10.12 6.72,16.48 0,4.62 -1.01,9.1 -3.04,13.44 -1.59,3.32 -3.32,5.85 -5.2,7.59 -2.46,2.31 -5.89,4.4 -10.3,6.28 -4.4,1.88 -8.92,2.82 -13.55,2.82 l -2.81,0 0,2.82 c 4.62,0.58 9.28,2.24 13.98,4.99 4.7,2.74 8.09,6.03 10.19,9.86 2.09,3.83 3.14,8.13 3.14,12.9 0,5.92 -1.88,10.77 -5.63,14.53 -3.76,3.75 -8.46,5.63 -14.1,5.63 -9.1,0 -16.69,-4.84 -22.76,-14.52 l -3.03,1.3"
         style="fill:#000000;fill-opacity:1;fill-rule:nonzero;stroke:none"
         id="path274" /><path
         d="m 1336.23,5772.19 c 0,-3.47 -0.47,-7.01 -1.41,-10.62 -0.94,-3.61 -2.31,-6.87 -4.12,-9.76 -1.81,-2.89 -4.08,-5.24 -6.82,-7.04 -2.75,-1.81 -5.86,-2.71 -9.33,-2.71 -3.32,0 -6.36,1.44 -9.1,4.33 -2.75,2.9 -4.99,7.23 -6.72,13.01 -0.29,0.72 -0.51,1.77 -0.66,3.15 -0.14,1.37 -0.28,2.78 -0.43,4.22 -0.14,1.45 -0.25,2.85 -0.32,4.23 -0.07,1.37 -0.11,2.49 -0.11,3.36 0,6.94 0.5,14.02 1.52,21.25 1.01,7.22 1.8,14.45 2.38,21.68 l -20.38,0 c -1.3,-13.59 -2.53,-25.01 -3.68,-34.26 -1.16,-9.25 -2.39,-17.49 -3.69,-24.71 -0.43,-2.03 -0.83,-3.87 -1.19,-5.53 -0.36,-1.66 -0.83,-3.07 -1.41,-4.23 -1.3,-2.74 -2.93,-4.62 -4.88,-5.63 -1.95,-1.02 -3.72,-1.52 -5.31,-1.52 -2.89,0 -5.24,1.01 -7.05,3.03 -1.81,2.02 -2.71,4.12 -2.71,6.29 0,2.6 0.69,4.73 2.07,6.39 1.37,1.67 2.85,3.51 4.44,5.53 1.59,1.88 3.07,3.8 4.44,5.75 1.38,1.95 2.28,4.44 2.71,7.48 l 5.21,41.41 -8.46,0 c -1.88,0 -3.97,-0.51 -6.29,-1.52 -2.31,-1.01 -4.26,-2.6 -5.85,-4.77 l -3.69,-5.2 -3.03,0 c 2.75,8.38 6.1,14.95 10.08,19.72 3.97,4.77 9.14,7.16 15.5,7.16 l 66.77,0 0,-15.39 -22.76,0 c -0.29,-3.47 -0.58,-7.16 -0.87,-11.06 -0.29,-3.9 -0.54,-7.73 -0.76,-11.49 -0.21,-3.76 -0.36,-7.34 -0.43,-10.73 -0.07,-3.4 -0.11,-6.25 -0.11,-8.56 0,-2.17 0.22,-4.23 0.65,-6.18 0.44,-1.96 1.16,-3.73 2.17,-5.32 1.01,-1.59 2.24,-2.89 3.69,-3.9 1.44,-1.01 3.25,-1.51 5.42,-1.51 1.44,0 3.07,0.5 4.88,1.51 1.8,1.01 3.21,2.6 4.22,4.77 0.44,0.87 0.76,1.95 0.98,3.25 0.21,1.31 0.39,2.68 0.54,4.12 l 3.9,0 0,0"
         style="fill:#000000;fill-opacity:1;fill-rule:nonzero;stroke:none"
         id="path276" /><path
         d="m 1269.02,5553.01 0,-12.57 -16.04,0 0,-31.44 -14.52,0 0,31.44 -50.52,0 0,11.27 55.5,79.13 9.54,0 0,-77.83 16.04,0 z m -30.56,0 0,59.4 -41.85,-59.4 41.85,0"
         style="fill:#000000;fill-opacity:1;fill-rule:nonzero;stroke:none"
         id="path278" /><path
         d="m 1094.94,5682.44 277.5,0"
         style="fill:none;stroke:#000000;stroke-opacity:1;stroke-width:13.875;stroke-linecap:square;stroke-linejoin:miter;stroke-miterlimit:10;stroke-dasharray:none"
         id="path280" /><path
         d="m 811.172,3961.27 -72.149,0"
         style="fill:none;stroke:#000000;stroke-opacity:1;stroke-width:13.875;stroke-linecap:butt;stroke-linejoin:round;stroke-miterlimit:10;stroke-dasharray:none"
         id="path282" /><path
         d="m 725.73,3912.95 c 0,-3.47 -0.468,-7.01 -1.406,-10.62 -0.941,-3.62 -2.312,-6.87 -4.121,-9.77 -1.808,-2.88 -4.082,-5.23 -6.828,-7.03 -2.746,-1.82 -5.855,-2.72 -9.324,-2.72 -3.324,0 -6.36,1.44 -9.106,4.34 -2.746,2.89 -4.984,7.23 -6.718,13 -0.289,0.73 -0.508,1.78 -0.653,3.15 -0.144,1.38 -0.289,2.78 -0.433,4.24 -0.145,1.44 -0.25,2.84 -0.325,4.21 -0.07,1.37 -0.109,2.5 -0.109,3.36 0,6.94 0.508,14.03 1.52,21.26 1.011,7.22 1.804,14.44 2.382,21.67 l -20.379,0 c -1.3,-13.58 -2.527,-25 -3.683,-34.26 -1.156,-9.24 -2.387,-17.48 -3.688,-24.71 -0.433,-2.03 -0.832,-3.86 -1.191,-5.52 -0.359,-1.67 -0.832,-3.08 -1.41,-4.23 -1.301,-2.75 -2.926,-4.62 -4.875,-5.64 -1.953,-1.01 -3.723,-1.52 -5.313,-1.52 -2.89,0 -5.238,1.01 -7.047,3.04 -1.808,2.02 -2.711,4.12 -2.711,6.28 0,2.61 0.688,4.73 2.063,6.4 1.371,1.66 2.852,3.51 4.441,5.53 1.59,1.88 3.071,3.79 4.446,5.75 1.375,1.94 2.277,4.44 2.711,7.48 l 5.203,41.4 -8.457,0 c -1.879,0 -3.973,-0.5 -6.285,-1.51 -2.313,-1.02 -4.266,-2.61 -5.856,-4.78 l -3.683,-5.2 -3.036,0 c 2.746,8.38 6.106,14.96 10.082,19.73 3.973,4.77 9.141,7.16 15.5,7.16 l 66.774,0 0,-15.4 -22.766,0 c -0.289,-3.47 -0.578,-7.15 -0.867,-11.06 -0.289,-3.9 -0.539,-7.73 -0.758,-11.49 -0.215,-3.76 -0.359,-7.33 -0.433,-10.72 -0.075,-3.4 -0.11,-6.26 -0.11,-8.56 0,-2.18 0.219,-4.24 0.653,-6.19 0.433,-1.95 1.156,-3.72 2.168,-5.32 1.011,-1.58 2.238,-2.88 3.683,-3.9 1.445,-1.01 3.254,-1.51 5.422,-1.51 1.445,0 3.07,0.5 4.879,1.51 1.805,1.02 3.215,2.61 4.226,4.78 0.434,0.86 0.758,1.96 0.977,3.24 0.215,1.31 0.395,2.68 0.539,4.13 l 3.902,0 0,0"
         style="fill:#000000;fill-opacity:1;fill-rule:nonzero;stroke:none"
         id="path284" /><path
         d="m 1442.91,2436.12 -51.02,-51.02"
         style="fill:none;stroke:#000000;stroke-opacity:1;stroke-width:13.875;stroke-linecap:butt;stroke-linejoin:round;stroke-miterlimit:10;stroke-dasharray:none"
         id="path286" /><path
         d="m 1194.01,2395.59 -6.94,-14.96 -35.77,0 -7.8,-16.05 c 15.46,-2.31 27.75,-8.09 36.86,-17.35 7.8,-7.93 11.7,-17.34 11.7,-28.18 0,-6.35 -1.26,-12.21 -3.79,-17.55 -2.53,-5.35 -5.75,-9.9 -9.65,-13.66 -3.9,-3.77 -8.24,-6.72 -13.01,-8.88 -6.65,-3.34 -13.58,-5 -20.81,-5 -7.08,0 -12.25,1.24 -15.5,3.69 -3.25,2.46 -4.88,5.14 -4.88,8.02 0,1.74 0.69,3.22 2.06,4.44 1.38,1.24 3.07,1.85 5.09,1.85 1.45,0 2.75,-0.23 3.91,-0.66 1.16,-0.42 3.11,-1.66 5.85,-3.67 4.48,-3.04 8.96,-4.57 13.44,-4.57 6.94,0 12.98,2.61 18.11,7.82 5.12,5.2 7.69,11.55 7.69,19.07 0,7.23 -2.31,13.95 -6.94,20.16 -4.62,6.22 -10.98,11.06 -19.08,14.53 -6.5,2.59 -15.24,4.12 -26.23,4.55 l 22.98,46.4 42.71,0"
         style="fill:#000000;fill-opacity:1;fill-rule:nonzero;stroke:none"
         id="path288" /><path
         d="m 1336.23,2303.45 c 0,-3.47 -0.47,-7.01 -1.41,-10.62 -0.94,-3.62 -2.31,-6.87 -4.12,-9.77 -1.81,-2.88 -4.08,-5.23 -6.82,-7.03 -2.75,-1.82 -5.86,-2.72 -9.33,-2.72 -3.32,0 -6.36,1.44 -9.1,4.34 -2.75,2.89 -4.99,7.23 -6.72,13 -0.29,0.73 -0.51,1.78 -0.66,3.15 -0.14,1.38 -0.28,2.78 -0.43,4.24 -0.14,1.44 -0.25,2.84 -0.32,4.21 -0.07,1.37 -0.11,2.5 -0.11,3.36 0,6.94 0.5,14.03 1.52,21.26 1.01,7.22 1.8,14.44 2.38,21.67 l -20.38,0 c -1.3,-13.58 -2.53,-25 -3.68,-34.26 -1.16,-9.24 -2.39,-17.48 -3.69,-24.71 -0.43,-2.03 -0.83,-3.86 -1.19,-5.52 -0.36,-1.67 -0.83,-3.08 -1.41,-4.23 -1.3,-2.75 -2.93,-4.62 -4.88,-5.64 -1.95,-1.01 -3.72,-1.52 -5.31,-1.52 -2.89,0 -5.24,1.01 -7.05,3.04 -1.81,2.02 -2.71,4.12 -2.71,6.28 0,2.61 0.69,4.73 2.07,6.4 1.37,1.66 2.85,3.51 4.44,5.53 1.59,1.88 3.07,3.79 4.44,5.75 1.38,1.94 2.28,4.44 2.71,7.48 l 5.21,41.4 -8.46,0 c -1.88,0 -3.97,-0.5 -6.29,-1.51 -2.31,-1.02 -4.26,-2.61 -5.85,-4.78 l -3.69,-5.2 -3.03,0 c 2.75,8.38 6.1,14.96 10.08,19.73 3.97,4.77 9.14,7.16 15.5,7.16 l 66.77,0 0,-15.4 -22.76,0 c -0.29,-3.47 -0.58,-7.15 -0.87,-11.06 -0.29,-3.9 -0.54,-7.73 -0.76,-11.49 -0.21,-3.76 -0.36,-7.32 -0.43,-10.72 -0.07,-3.4 -0.11,-6.26 -0.11,-8.56 0,-2.18 0.22,-4.24 0.65,-6.19 0.44,-1.95 1.16,-3.72 2.17,-5.32 1.01,-1.58 2.24,-2.88 3.69,-3.9 1.44,-1.01 3.25,-1.51 5.42,-1.51 1.44,0 3.07,0.5 4.88,1.51 1.8,1.02 3.21,2.61 4.22,4.78 0.44,0.86 0.76,1.96 0.98,3.24 0.21,1.31 0.39,2.68 0.54,4.13 l 3.9,0 0,0"
         style="fill:#000000;fill-opacity:1;fill-rule:nonzero;stroke:none"
         id="path290" /><path
         d="m 1269.02,2084.26 0,-12.57 -16.04,0 0,-31.44 -14.52,0 0,31.44 -50.52,0 0,11.28 55.5,79.13 9.54,0 0,-77.84 16.04,0 z m -30.56,0 0,59.42 -41.85,-59.42 41.85,0"
         style="fill:#000000;fill-opacity:1;fill-rule:nonzero;stroke:none"
         id="path292" /><path
         d="m 1094.94,2213.69 277.5,0"
         style="fill:none;stroke:#000000;stroke-opacity:1;stroke-width:13.875;stroke-linecap:square;stroke-linejoin:miter;stroke-miterlimit:10;stroke-dasharray:none"
         id="path294" /><path
         d="m 2968.06,1804.38 0,-72.15"
         style="fill:none;stroke:#000000;stroke-opacity:1;stroke-width:13.875;stroke-linecap:butt;stroke-linejoin:round;stroke-miterlimit:10;stroke-dasharray:none"
         id="path296" /><path
         d="m 2859.23,1651.32 c 3.47,8.1 7.79,14.3 13,18.65 5.2,4.33 11.64,6.51 19.3,6.51 9.68,0 17.05,-3.11 22.11,-9.33 3.9,-4.63 5.86,-9.54 5.86,-14.75 0,-8.81 -5.5,-17.84 -16.48,-27.1 7.36,-2.88 12.93,-7 16.69,-12.34 3.76,-5.36 5.63,-11.64 5.63,-18.87 0,-10.26 -3.31,-19.15 -9.96,-26.67 -8.53,-9.96 -20.9,-14.96 -37.08,-14.96 -8.1,0 -13.58,1.01 -16.48,3.04 -2.88,2.02 -4.33,4.19 -4.33,6.51 0,1.73 0.68,3.2 2.06,4.44 1.37,1.23 2.99,1.84 4.88,1.84 1.45,0 2.96,-0.22 4.55,-0.65 1.02,-0.29 3.29,-1.33 6.83,-3.15 3.54,-1.8 5.96,-2.93 7.27,-3.36 2.16,-0.57 4.47,-0.86 6.94,-0.86 5.92,0 11.12,2.3 15.6,6.94 4.47,4.62 6.72,10.11 6.72,16.47 0,4.63 -1.01,9.1 -3.04,13.44 -1.58,3.33 -3.32,5.86 -5.2,7.59 -2.46,2.31 -5.89,4.41 -10.3,6.29 -4.41,1.87 -8.92,2.82 -13.55,2.82 l -2.82,0 0,2.81 c 4.64,0.58 9.3,2.25 13.99,5 4.7,2.73 8.09,6.02 10.18,9.86 2.11,3.83 3.15,8.12 3.15,12.89 0,5.93 -1.87,10.77 -5.63,14.53 -3.76,3.76 -8.47,5.63 -14.1,5.63 -9.1,0 -16.69,-4.84 -22.75,-14.52 l -3.04,1.3"
         style="fill:#000000;fill-opacity:1;fill-rule:nonzero;stroke:none"
         id="path298" /><path
         d="m 3070.6,1581.95 c 0,-3.47 -0.47,-7.01 -1.4,-10.62 -0.95,-3.62 -2.32,-6.87 -4.12,-9.77 -1.81,-2.88 -4.1,-5.23 -6.83,-7.03 -2.75,-1.82 -5.86,-2.72 -9.32,-2.72 -3.33,0 -6.37,1.44 -9.12,4.34 -2.73,2.89 -4.98,7.23 -6.72,13 -0.29,0.73 -0.5,1.78 -0.65,3.15 -0.14,1.38 -0.29,2.78 -0.43,4.24 -0.13,1.44 -0.25,2.84 -0.33,4.21 -0.07,1.37 -0.1,2.5 -0.1,3.36 0,6.94 0.5,14.03 1.51,21.26 1.02,7.22 1.81,14.44 2.39,21.67 l -20.38,0 c -1.31,-13.58 -2.53,-25 -3.68,-34.26 -1.16,-9.24 -2.38,-17.48 -3.69,-24.71 -0.43,-2.03 -0.83,-3.86 -1.19,-5.52 -0.36,-1.67 -0.83,-3.08 -1.42,-4.23 -1.29,-2.75 -2.92,-4.62 -4.87,-5.64 -1.95,-1.01 -3.71,-1.52 -5.31,-1.52 -2.89,0 -5.24,1.01 -7.05,3.04 -1.8,2.02 -2.71,4.12 -2.71,6.28 0,2.61 0.68,4.73 2.06,6.4 1.37,1.66 2.86,3.51 4.45,5.53 1.58,1.88 3.07,3.79 4.44,5.75 1.37,1.94 2.28,4.44 2.71,7.48 l 5.2,41.4 -8.45,0 c -1.87,0 -3.98,-0.5 -6.29,-1.51 -2.31,-1.02 -4.25,-2.61 -5.85,-4.78 l -3.69,-5.2 -3.03,0 c 2.74,8.38 6.11,14.96 10.08,19.73 3.98,4.77 9.14,7.16 15.49,7.16 l 66.79,0 0,-15.4 -22.77,0 c -0.29,-3.47 -0.57,-7.15 -0.86,-11.06 -0.29,-3.9 -0.54,-7.73 -0.76,-11.49 -0.23,-3.76 -0.37,-7.32 -0.43,-10.72 -0.07,-3.4 -0.12,-6.26 -0.12,-8.56 0,-2.18 0.23,-4.24 0.65,-6.19 0.43,-1.95 1.16,-3.72 2.17,-5.32 1.01,-1.58 2.25,-2.88 3.69,-3.9 1.45,-1.01 3.25,-1.51 5.41,-1.51 1.45,0 3.08,0.5 4.89,1.51 1.8,1.02 3.22,2.61 4.23,4.78 0.43,0.86 0.75,1.96 0.97,3.24 0.21,1.31 0.4,2.68 0.54,4.13 l 3.9,0 0,0"
         style="fill:#000000;fill-opacity:1;fill-rule:nonzero;stroke:none"
         id="path300" /><path
         d="m 3002.1,1341.74 -8.24,-22.99 -70.46,0 0,3.26 c 20.66,18.93 35.23,34.4 43.68,46.4 8.46,11.99 12.68,22.91 12.68,32.73 0,7.66 -2.3,13.92 -6.94,18.76 -4.62,4.83 -10.18,7.26 -16.69,7.26 -5.77,0 -11.02,-1.7 -15.72,-5.1 -4.69,-3.4 -8.13,-8.42 -10.3,-15.06 l -3.24,0 c 1.44,10.83 5.2,19.14 11.26,24.93 6.08,5.77 13.67,8.67 22.77,8.67 9.69,0 17.78,-3.11 24.28,-9.32 6.51,-6.22 9.76,-13.52 9.76,-21.9 0,-6.08 -1.44,-12.14 -4.33,-18.22 -4.34,-9.53 -11.35,-19.57 -21.04,-30.13 -14.59,-16.04 -23.78,-25.73 -27.52,-29.04 l 31.22,0 c 6.35,0 10.79,0.25 13.32,0.74 2.53,0.52 4.84,1.49 6.93,2.93 2.11,1.45 3.87,3.47 5.32,6.08 l 3.26,0"
         style="fill:#000000;fill-opacity:1;fill-rule:nonzero;stroke:none"
         id="path302" /><path
         d="m 2829.31,1492.19 277.5,0"
         style="fill:none;stroke:#000000;stroke-opacity:1;stroke-width:13.875;stroke-linecap:square;stroke-linejoin:miter;stroke-miterlimit:10;stroke-dasharray:none"
         id="path304" /><path
         d="m 4493.2,2436.12 51.02,-51.02"
         style="fill:none;stroke:#000000;stroke-opacity:1;stroke-width:13.875;stroke-linecap:butt;stroke-linejoin:round;stroke-miterlimit:10;stroke-dasharray:none"
         id="path306" /><path
         d="m 4602.7,2395.59 63.95,0 0,-3.47 -39.89,-118.37 -9.75,0 35.56,107.54 -32.75,0 c -6.64,0 -11.33,-0.81 -14.08,-2.39 -5.06,-2.75 -9.03,-6.94 -11.93,-12.59 l -2.6,0.88 11.49,28.4"
         style="fill:#000000;fill-opacity:1;fill-rule:nonzero;stroke:none"
         id="path308" /><path
         d="m 4804.97,2303.45 c 0,-3.47 -0.47,-7.01 -1.4,-10.62 -0.94,-3.62 -2.32,-6.87 -4.12,-9.77 -1.8,-2.88 -4.09,-5.23 -6.83,-7.03 -2.74,-1.82 -5.85,-2.72 -9.32,-2.72 -3.33,0 -6.37,1.44 -9.12,4.34 -2.73,2.89 -4.98,7.23 -6.71,13 -0.29,0.73 -0.5,1.78 -0.65,3.15 -0.14,1.38 -0.29,2.78 -0.43,4.24 -0.14,1.44 -0.25,2.84 -0.34,4.21 -0.07,1.37 -0.09,2.5 -0.09,3.36 0,6.94 0.5,14.03 1.51,21.26 1.01,7.22 1.8,14.44 2.39,21.67 l -20.39,0 c -1.3,-13.58 -2.52,-25 -3.67,-34.26 -1.17,-9.24 -2.39,-17.48 -3.69,-24.71 -0.43,-2.03 -0.84,-3.86 -1.2,-5.52 -0.36,-1.67 -0.83,-3.08 -1.41,-4.23 -1.29,-2.75 -2.93,-4.62 -4.87,-5.64 -1.96,-1.01 -3.72,-1.52 -5.32,-1.52 -2.88,0 -5.24,1.01 -7.04,3.04 -1.81,2.02 -2.71,4.12 -2.71,6.28 0,2.61 0.68,4.73 2.05,6.4 1.38,1.66 2.86,3.51 4.46,5.53 1.58,1.88 3.06,3.79 4.44,5.75 1.37,1.94 2.27,4.44 2.7,7.48 l 5.2,41.4 -8.45,0 c -1.87,0 -3.98,-0.5 -6.28,-1.51 -2.32,-1.02 -4.26,-2.61 -5.86,-4.78 l -3.69,-5.2 -3.02,0 c 2.73,8.38 6.1,14.96 10.07,19.73 3.98,4.77 9.15,7.16 15.5,7.16 l 66.78,0 0,-15.4 -22.77,0 c -0.29,-3.47 -0.57,-7.15 -0.86,-11.06 -0.29,-3.9 -0.54,-7.73 -0.76,-11.49 -0.22,-3.76 -0.36,-7.32 -0.43,-10.72 -0.07,-3.4 -0.11,-6.26 -0.11,-8.56 0,-2.18 0.22,-4.24 0.65,-6.19 0.43,-1.95 1.15,-3.72 2.16,-5.32 1.02,-1.58 2.25,-2.88 3.7,-3.9 1.44,-1.01 3.24,-1.51 5.41,-1.51 1.44,0 3.08,0.5 4.88,1.51 1.81,1.02 3.22,2.61 4.23,4.78 0.43,0.86 0.75,1.96 0.98,3.24 0.2,1.31 0.4,2.68 0.53,4.13 l 3.9,0 0,0"
         style="fill:#000000;fill-opacity:1;fill-rule:nonzero;stroke:none"
         id="path310" /><path
         d="m 4737.76,2084.26 0,-12.57 -16.04,0 0,-31.44 -14.52,0 0,31.44 -50.51,0 0,11.28 55.5,79.13 9.53,0 0,-77.84 16.04,0 z m -30.56,0 0,59.42 -41.84,-59.42 41.84,0"
         style="fill:#000000;fill-opacity:1;fill-rule:nonzero;stroke:none"
         id="path312" /><path
         d="m 4563.69,2213.69 277.5,0"
         style="fill:none;stroke:#000000;stroke-opacity:1;stroke-width:13.875;stroke-linecap:square;stroke-linejoin:miter;stroke-miterlimit:10;stroke-dasharray:none"
         id="path314" /></g></g><path
     style="fill:none;stroke:#0000ff;stroke-width:24;stroke-linecap:butt;stroke-linejoin:miter;stroke-miterlimit:4;stroke-opacity:1;stroke-dasharray:none;marker-end:url(#Arrow2Lend6)"
     d="m 2970.4876,3965.8573 2111.3677,-2.9293"
     id="path3120" /></g>
</g><g
   id="g6905"
   transform="matrix(3,0,0,-3,-66.816018,1897.7574)"
   xml:space="preserve"
   stroke-miterlimit="10.433"
   font-style="normal"
   font-variant="normal"
   font-weight="normal"
   font-stretch="normal"
   font-size-adjust="none"
   letter-spacing="normal"
   word-spacing="normal"
   ns0:text="$\\textcolor{blue}{\\ddot{\\vec{p}}}$"
   ns0:preamble="/home/pato/Documentos/color.tex"
   style="font-style:normal;font-variant:normal;font-weight:normal;font-stretch:normal;letter-spacing:normal;word-spacing:normal;text-anchor:start;fill:none;stroke:#0000ff;stroke-linecap:butt;stroke-linejoin:miter;stroke-miterlimit:10.43299961;stroke-opacity:1;stroke-dasharray:none;stroke-dashoffset:0">
<path
   style="fill:#0000ff;stroke:#0000ff;stroke-width:0"
   d="m 225.47,486.23 0,0.03 0,0.02 -0.01,0.02 0,0.02 0,0.03 -0.01,0.02 -0.01,0.02 -0.01,0.02 -0.01,0.02 -0.01,0.03 -0.01,0.02 -0.01,0.02 -0.01,0.02 -0.02,0.02 -0.01,0.01 -0.02,0.02 -0.01,0.02 -0.02,0.02 -0.02,0.01 -0.02,0.02 -0.02,0.01 -0.02,0.01 -0.02,0.02 -0.02,0.01 -0.03,0.01 -0.02,0.01 -0.03,0 -0.02,0.01 -0.03,0.01 -0.02,0 -0.03,0 -0.03,0 c -0.28,0 -0.5,-0.22 -0.5,-0.5 0,-0.28 0.22,-0.49 0.5,-0.49 0.3,0 0.5,0.25 0.5,0.49 z"
   id="path6166" />
<path
   style="fill:#0000ff;stroke:#0000ff;stroke-width:0"
   d="m 227.39,486.23 0,0.03 0,0.03 0,0.02 -0.01,0.03 0,0.02 -0.01,0.02 -0.01,0.03 -0.01,0.02 -0.01,0.02 -0.01,0.02 -0.01,0.02 -0.01,0.02 -0.01,0.02 -0.02,0.02 -0.01,0.02 -0.02,0.02 -0.02,0.01 -0.02,0.02 -0.02,0.01 -0.01,0.02 -0.03,0.01 -0.02,0.01 -0.02,0.01 -0.02,0.01 -0.02,0.01 -0.03,0.01 -0.02,0.01 -0.02,0 -0.03,0.01 -0.02,0 -0.03,0 -0.02,0 c -0.3,0 -0.5,-0.26 -0.5,-0.5 0,-0.24 0.2,-0.49 0.5,-0.49 0.27,0 0.49,0.21 0.49,0.49 z"
   id="path6168" />
<path
   style="fill:#0000ff;stroke:#0000ff;stroke-width:0"
   d="m 228.87,483.16 -0.02,-0.01 -0.01,-0.02 -0.02,-0.01 -0.02,-0.01 -0.01,-0.02 -0.02,-0.02 -0.02,-0.01 -0.02,-0.02 -0.02,-0.02 -0.02,-0.02 -0.03,-0.04 -0.04,-0.03 -0.04,-0.04 -0.02,-0.03 -0.02,-0.02 -0.02,-0.02 -0.01,-0.02 -0.02,-0.02 -0.01,-0.02 -0.02,-0.02 -0.01,-0.02 -0.01,-0.02 -0.01,-0.02 -0.01,-0.02 -0.01,-0.02 0,-0.01 -0.01,-0.02 0,-0.02 0,-0.02 c 0,-0.1 0.1,-0.2 0.2,-0.2 0.09,0 0.14,0.07 0.19,0.13 0.11,0.15 0.34,0.43 0.78,0.65 0.07,0.04 0.17,0.09 0.17,0.21 0,0.1 -0.07,0.15 -0.14,0.2 -0.22,0.15 -0.33,0.33 -0.41,0.57 -0.02,0.09 -0.06,0.22 -0.2,0.22 -0.14,0 -0.2,-0.13 -0.2,-0.21 0,-0.05 0.09,-0.37 0.24,-0.58 h -3.35 c -0.17,0 -0.35,0 -0.35,-0.2 0,-0.2 0.18,-0.2 0.35,-0.2 z"
   id="path6170" />
<path
   style="fill:#0000ff;stroke:#0000ff;stroke-width:0"
   d="m 223.88,476.02 -0.01,-0.03 0,-0.03 -0.01,-0.03 -0.01,-0.03 0,-0.02 -0.01,-0.03 -0.01,-0.02 -0.01,-0.02 0,-0.02 -0.01,-0.02 -0.01,-0.02 -0.01,-0.01 -0.01,-0.02 -0.01,-0.01 -0.01,-0.01 -0.01,-0.01 -0.02,-0.01 -0.01,-0.01 -0.02,-0.01 -0.02,-0.01 -0.01,-0.01 -0.02,0 -0.03,-0.01 -0.02,0 -0.02,-0.01 -0.03,0 -0.02,0 -0.01,-0.01 -0.02,0 -0.01,0 -0.02,0 -0.01,0 -0.02,0 -0.02,0 -0.02,0 -0.02,0 -0.02,0 -0.02,0 c -0.12,0 -0.23,0 -0.23,-0.19 0,-0.08 0.05,-0.12 0.13,-0.12 0.27,0 0.56,0.03 0.84,0.03 0.33,0 0.67,-0.03 0.99,-0.03 0.05,0 0.18,0 0.18,0.2 0,0.11 -0.1,0.11 -0.24,0.11 -0.5,0 -0.5,0.07 -0.5,0.16 0,0.12 0.42,1.74 0.49,1.99 0.13,-0.29 0.4,-0.64 0.91,-0.64 l -0.01,0.22 c -0.65,0 -0.78,0.83 -0.78,0.89 0,0.02 0,0.04 0.03,0.16 l 0.48,1.95 c 0.07,0.27 0.34,0.55 0.52,0.7 0.35,0.31 0.64,0.38 0.81,0.38 0.4,0 0.64,-0.35 0.64,-0.94 0,-0.59 -0.33,-1.73 -0.51,-2.11 -0.34,-0.7 -0.82,-1.03 -1.19,-1.03 l 0.01,-0.22 c 1.16,0 2.4,1.46 2.4,2.92 0,0.94 -0.56,1.6 -1.32,1.6 -0.5,0 -0.98,-0.36 -1.31,-0.75 -0.1,0.54 -0.52,0.75 -0.89,0.75 -0.46,0 -0.65,-0.39 -0.74,-0.57 -0.18,-0.34 -0.31,-0.94 -0.31,-0.97 0,-0.1 0.1,-0.1 0.12,-0.1 0.1,0 0.11,0.01 0.17,0.23 0.17,0.71 0.37,1.19 0.73,1.19 0.17,0 0.31,-0.08 0.31,-0.46 0,-0.23 -0.03,-0.34 -0.07,-0.51 z"
   id="path6172" />
</g>
</svg>