<?xml version="1.0" encoding="UTF-8" standalone="no"?>
<!-- Created with Inkscape (http://www.inkscape.org/) -->

<svg
   xmlns:dc="http://purl.org/dc/elements/1.1/"
   xmlns:cc="http://creativecommons.org/ns#"
   xmlns:rdf="http://www.w3.org/1999/02/22-rdf-syntax-ns#"
   xmlns:svg="http://www.w3.org/2000/svg"
   xmlns="http://www.w3.org/2000/svg"
   xmlns:sodipodi="http://sodipodi.sourceforge.net/DTD/sodipodi-0.dtd"
   xmlns:inkscape="http://www.inkscape.org/namespaces/inkscape"
   width="850"
   height="480"
   id="svg2"
   sodipodi:version="0.32"
   inkscape:version="0.48.0 r9654"
   sodipodi:docname="tensor-energia-momentum.svg"
   inkscape:output_extension="org.inkscape.output.svg.inkscape"
   version="1.0">
  <sodipodi:namedview
     id="base"
     pagecolor="#ffffff"
     bordercolor="#666666"
     borderopacity="1.0"
     gridtolerance="10000"
     guidetolerance="10"
     objecttolerance="10"
     inkscape:pageopacity="0.0"
     inkscape:pageshadow="2"
     inkscape:zoom="1.3104167"
     inkscape:cx="440.30921"
     inkscape:cy="315.47722"
     inkscape:document-units="px"
     inkscape:current-layer="g2550"
     inkscape:window-width="1440"
     inkscape:window-height="849"
     inkscape:window-x="0"
     inkscape:window-y="0"
     width="790.35px"
     height="490.6px"
     showgrid="false"
     borderlayer="false"
     showborder="true"
     inkscape:window-maximized="1" />
  <defs
     id="defs4">
    <inkscape:perspective
       sodipodi:type="inkscape:persp3d"
       inkscape:vp_x="0 : 245.3 : 1"
       inkscape:vp_y="0 : 1000 : 0"
       inkscape:vp_z="790.34998 : 245.3 : 1"
       inkscape:persp3d-origin="395.17499 : 163.53334 : 1"
       id="perspective93" />
  </defs>
  <metadata
     id="metadata7">
    <rdf:RDF>
      <cc:Work
         rdf:about="">
        <dc:format>image/svg+xml</dc:format>
        <dc:type
           rdf:resource="http://purl.org/dc/dcmitype/StillImage" />
        <dc:title />
      </cc:Work>
    </rdf:RDF>
  </metadata>
  <g
     inkscape:label="labels"
     id="layer3"
     inkscape:groupmode="layer"
     transform="translate(-123.9207,-304.0563)" />
  <g
     inkscape:label="tensor"
     id="layer2"
     inkscape:groupmode="layer"
     transform="translate(-123.9207,-304.0563)">
    <g
       id="g2550"
       transform="translate(18.741539,16.699565)">
      <rect
         height="182.83763"
         x="175.75682"
         y="466.81238"
         width="90.913712"
         id="rect2539"
         style="fill:#e3dbdb;fill-opacity:1;stroke:#aaccff;stroke-width:3.00000024;stroke-linecap:square;stroke-linejoin:miter;stroke-miterlimit:4;stroke-dasharray:none;stroke-dashoffset:17.1;stroke-opacity:1" />
      <rect
         height="53.53809"
         x="175.75682"
         y="403.93054"
         width="90.913712"
         id="rect2620"
         style="fill:#e3dbdb;fill-opacity:1;stroke:#aaccff;stroke-width:2.99999976;stroke-linecap:square;stroke-linejoin:miter;stroke-miterlimit:4;stroke-dasharray:none;stroke-dashoffset:17.1;stroke-opacity:1" />
      <rect
         height="53.53809"
         x="307.32922"
         y="403.93054"
         width="336.38077"
         id="rect2624"
         style="fill:#e3dbdb;fill-opacity:1;stroke:#aaccff;stroke-width:2.99999976;stroke-linecap:square;stroke-linejoin:miter;stroke-miterlimit:4;stroke-dasharray:none;stroke-dashoffset:17.1;stroke-opacity:1" />
      <rect
         style="fill:#e9c6af;fill-opacity:1;stroke:#aaccff;stroke-width:2.99999976;stroke-linecap:square;stroke-linejoin:miter;stroke-miterlimit:4;stroke-dasharray:none;stroke-dashoffset:17.1;stroke-opacity:1"
         id="rect2626"
         width="336.38077"
         y="466.81219"
         x="307.32922"
         height="182.838" />
      <path
         style="fill:#87de87;fill-opacity:1;stroke-width:3;stroke-linecap:square;stroke-linejoin:miter;stroke-miterlimit:4;stroke-dasharray:none;stroke-dashoffset:17.1;stroke-opacity:1"
         id="rect2630"
         d="M 307.31659,466.81877 L 307.31659,514.81877 L 582.69163,649.66252 L 643.72288,649.66252 L 643.72288,611.16252 L 349.0041,466.81877 L 307.31659,466.81877 z" />
      <text
         sodipodi:linespacing="100%"
         x="220.64726"
         y="317.26724"
         id="text2683"
         style="font-size:40px;font-style:normal;font-variant:normal;font-weight:bold;font-stretch:normal;text-align:center;line-height:100%;writing-mode:lr-tb;text-anchor:middle;fill:#aaccff;fill-opacity:1;stroke:none;font-family:Arial"
         xml:space="preserve"><tspan
           id="tspan3339"
           x="220.64726"
           y="317.26724"
           sodipodi:role="line">densidad</tspan><tspan
           x="220.64726"
           y="357.26724"
           sodipodi:role="line"
           id="tspan3090">de energía</tspan></text>
      <text
         x="349.96097"
         y="357.26724"
         id="text2687"
         style="font-size:40px;font-style:normal;font-weight:bold;fill:#aaccff;fill-opacity:1;stroke:none;font-family:Arial"
         xml:space="preserve"><tspan
           x="349.96097"
           y="357.26724"
           id="tspan2689"
           sodipodi:role="line">flujo de energía</tspan></text>
      <text
         sodipodi:linespacing="100%"
         x="221.27226"
         y="710.2392"
         id="text2691"
         style="font-size:40px;font-style:normal;font-variant:normal;font-weight:bold;font-stretch:normal;text-align:center;line-height:100%;writing-mode:lr-tb;text-anchor:middle;fill:#aaccff;fill-opacity:1;stroke:none;font-family:Arial"
         xml:space="preserve"><tspan
           x="221.27226"
           y="710.2392"
           id="tspan2693"
           sodipodi:role="line">densidad de </tspan><tspan
           id="tspan3337"
           x="221.27226"
           y="750.2392"
           sodipodi:role="line">momentum</tspan></text>
      <text
         sodipodi:linespacing="100%"
         x="475.57828"
         y="710.2392"
         id="text2695"
         style="font-size:40px;font-style:normal;font-variant:normal;font-weight:bold;font-stretch:normal;text-align:center;line-height:100%;writing-mode:lr-tb;text-anchor:middle;fill:#aaccff;fill-opacity:1;stroke:none;font-family:Arial"
         xml:space="preserve"><tspan
           x="481.12515"
           y="710.2392"
           id="tspan2697"
           sodipodi:role="line">flujo de</tspan><tspan
           id="tspan3353"
           x="475.57828"
           y="750.2392"
           sodipodi:role="line">momentum</tspan></text>
      <text
         x="710.53137"
         y="518.67517"
         id="text2699"
         style="font-size:40px;font-style:normal;font-weight:bold;fill:#e9c6af;fill-opacity:1;stroke:none;font-family:Arial"
         xml:space="preserve"><tspan
           x="710.53137"
           y="518.67517"
           id="tspan2701"
           sodipodi:role="line">esfuerzos</tspan><tspan
           x="710.53137"
           y="568.67517"
           sodipodi:role="line"
           id="tspan3069">de corte</tspan></text>
      <text
         x="708.03137"
         y="624.33026"
         id="text2703"
         style="font-size:40px;font-style:normal;font-weight:bold;fill:#87de87;fill-opacity:1;stroke:none;font-family:Arial"
         xml:space="preserve"><tspan
           x="708.03137"
           y="624.33026"
           id="tspan2705"
           sodipodi:role="line">presión</tspan></text>
      <path
         id="path3341"
         d="M 705.2139,533.05007 L 619.03526,533.05007"
         style="fill:none;fill-rule:evenodd;stroke:#e9c6af;stroke-width:3.99999976;stroke-linecap:butt;stroke-linejoin:miter;stroke-opacity:1" />
      <path
         id="path3343"
         d="M 705.21404,613.70445 L 619.0354,613.70445"
         style="fill:none;fill-rule:evenodd;stroke:#87de87;stroke-width:3.99999976;stroke-linecap:butt;stroke-linejoin:miter;stroke-opacity:1" />
      <path
         id="path3345"
         d="M 475.51955,404.55514 L 475.51955,370.96833"
         style="fill:none;fill-rule:evenodd;stroke:#aaccff;stroke-width:3.99999976;stroke-linecap:butt;stroke-linejoin:miter;stroke-opacity:1" />
      <path
         id="path3347"
         d="M 221.21363,404.55523 L 221.21363,370.96842"
         style="fill:none;fill-rule:evenodd;stroke:#aaccff;stroke-width:3.99999976;stroke-linecap:butt;stroke-linejoin:miter;stroke-opacity:1" />
      <path
         id="path3349"
         d="M 221.21363,683.53086 L 221.21363,649.94405"
         style="fill:none;fill-rule:evenodd;stroke:#aaccff;stroke-width:3.99999976;stroke-linecap:butt;stroke-linejoin:miter;stroke-opacity:1" />
      <path
         id="path3351"
         d="M 475.51955,683.53123 L 475.51955,649.94442"
         style="fill:none;fill-rule:evenodd;stroke:#aaccff;stroke-width:3.99999976;stroke-linecap:butt;stroke-linejoin:miter;stroke-opacity:1" />
      <g
         transform="translate(-717.96833,38.125372)"
         id="g2731">
        <g
           style="font-style:normal;font-variant:normal;font-weight:normal;font-stretch:normal;letter-spacing:normal;word-spacing:normal;text-anchor:start;fill:none;fill-opacity:1;stroke:#000000;stroke-width:0.99999994;stroke-linecap:butt;stroke-linejoin:miter;stroke-miterlimit:10.43299961;stroke-dasharray:none;stroke-dashoffset:0;stroke-opacity:1"
           letter-spacing="normal"
           fill-rule="even-odd"
           font-size-adjust="none"
           xml:space="preserve"
           transform="matrix(1.0629921,0,0,-1.0629921,-186.02362,789.27165)"
           word-spacing="normal"
           stroke-miterlimit="10.433"
           font-stretch="normal"
           font-variant="normal"
           id="content"
           font-weight="normal"
           font-style="normal"><polygon
             style="fill:#000000;stroke-width:0"
             points="981.24,311.33 984.68,311.33 984.68,397.5 997.83,397.5 997.83,400.94 981.24,400.94 981.24,311.33 "
             id="polygon2734" /><polygon
             style="fill:#000000;stroke-width:0"
             points="984.68,312.05 981.24,312.05 981.24,282.06 984.68,282.06 984.68,312.05 "
             id="polygon2736" /><polygon
             style="fill:#000000;stroke-width:0"
             points="984.68,282.05 981.24,282.05 981.24,252.06 984.68,252.06 984.68,282.05 "
             id="polygon2738" /><polygon
             style="fill:#000000;stroke-width:0"
             points="981.24,162.38 997.83,162.38 997.83,165.82 984.68,165.82 984.68,251.99 981.24,251.99 981.24,162.38 "
             id="polygon2740" /><path
             style="fill:#000000;stroke-width:0"
             d="M 1044.3,389.24 L 1044.3,389.37 L 1044.3,389.49 L 1044.4,389.6 L 1044.4,389.71 L 1044.4,389.82 L 1044.5,389.91 L 1044.5,390.01 L 1044.5,390.09 L 1044.5,390.18 L 1044.6,390.25 L 1044.6,390.33 L 1044.6,390.39 L 1044.7,390.46 L 1044.7,390.52 L 1044.7,390.57 L 1044.7,390.63 L 1044.8,390.67 L 1044.8,390.72 L 1044.8,390.76 L 1044.9,390.8 L 1044.9,390.83 L 1045,390.87 L 1045,390.9 L 1045,390.92 L 1045.1,390.95 L 1045.1,390.97 L 1045.2,390.99 L 1045.2,391.01 L 1045.3,391.03 L 1045.3,391.05 L 1045.4,391.06 L 1045.4,391.08 C 1045.9,391.18 1047.5,391.18 1048.6,391.18 C 1053.6,391.18 1055.8,390.98 1055.8,387.09 C 1055.8,386.35 1055.6,384.41 1055.4,383.11 C 1055.4,382.91 1055.3,382.31 1055.3,382.16 C 1055.3,381.86 1055.4,381.52 1055.9,381.52 C 1056.4,381.52 1056.5,381.91 1056.6,382.66 L 1058,391.33 C 1058,391.53 1058.1,392.03 1058.1,392.18 C 1058.1,392.72 1057.6,392.72 1056.7,392.72 L 1029.1,392.72 C 1027.9,392.72 1027.8,392.67 1027.5,391.73 L 1024.5,382.96 C 1024.4,382.86 1024.2,382.16 1024.2,382.06 C 1024.2,381.77 1024.4,381.52 1024.8,381.52 C 1025.3,381.52 1025.3,381.77 1025.6,382.56 C 1028.3,390.28 1029.6,391.18 1037,391.18 L 1038.9,391.18 C 1040.3,391.18 1040.3,390.98 1040.3,390.58 C 1040.3,390.28 1040.2,389.68 1040.1,389.54 L 1033.5,362.93 C 1033,361.09 1032.9,360.54 1027.5,360.54 C 1025.7,360.54 1025.4,360.54 1025.4,359.6 C 1025.4,359 1026,359 1026.3,359 L 1043.1,359 C 1043.6,359 1044.2,359 1044.2,360 C 1044.2,360.54 1043.8,360.54 1042.5,360.54 C 1041.2,360.54 1040.6,360.54 1039.3,360.64 C 1037.8,360.79 1037.4,360.94 1037.4,361.74 C 1037.4,361.79 1037.4,362.04 1037.6,362.79 L 1044.3,389.24 z"
             id="path2742" /><path
             style="fill:#000000;stroke-width:0"
             d="M 1070,363.12 L 1070,363.83 L 1070,364.51 L 1069.9,365.17 L 1069.9,365.81 L 1069.8,366.43 L 1069.8,367.02 L 1069.7,367.6 L 1069.6,368.16 L 1069.4,368.71 L 1069.3,369.24 L 1069.1,369.75 L 1068.9,370.25 L 1068.7,370.74 L 1068.5,371.22 L 1068.2,371.69 L 1068.1,371.93 L 1067.9,372.16 C 1066.9,373.76 1064.7,375.15 1061.9,375.15 L 1061.9,374.18 C 1063.8,374.18 1065.6,373.03 1066.2,371 C 1066.8,369.12 1066.8,366.61 1066.8,363.58 C 1066.8,361 1066.8,358.41 1066.4,356.22 C 1065.7,353.05 1063.3,352.28 1061.9,352.28 L 1061.9,352.28 C 1060.3,352.28 1058.2,353.22 1057.5,356.08 C 1057,358.14 1057,361 1057,363.58 C 1057,366.12 1057,368.77 1057.5,370.69 C 1058.2,373.45 1060.5,374.18 1061.9,374.18 L 1061.9,375.15 C 1053.8,375.15 1053.8,365.63 1053.8,363.12 C 1053.8,360.61 1053.8,351.3 1061.9,351.3 C 1070,351.3 1070,360.61 1070,363.12 z"
             id="path2744" /><path
             style="fill:#000000;stroke-width:0"
             d="M 1090,363.12 L 1090,363.83 L 1090,364.51 L 1089.9,365.17 L 1089.9,365.81 L 1089.8,366.43 L 1089.8,367.02 L 1089.7,367.6 L 1089.6,368.16 L 1089.4,368.71 L 1089.3,369.24 L 1089.1,369.75 L 1088.9,370.25 L 1088.7,370.74 L 1088.5,371.22 L 1088.2,371.69 L 1088.1,371.93 L 1087.9,372.16 C 1086.9,373.76 1084.7,375.15 1081.9,375.15 L 1081.9,374.18 C 1083.8,374.18 1085.6,373.03 1086.2,371 C 1086.8,369.12 1086.8,366.61 1086.8,363.58 C 1086.8,361 1086.8,358.41 1086.4,356.22 C 1085.7,353.05 1083.3,352.28 1081.9,352.28 L 1081.9,352.28 C 1080.3,352.28 1078.2,353.22 1077.5,356.08 C 1077,358.14 1077,361 1077,363.58 C 1077,366.12 1077,368.77 1077.5,370.69 C 1078.2,373.45 1080.5,374.18 1081.9,374.18 L 1081.9,375.15 C 1073.8,375.15 1073.8,365.63 1073.8,363.12 C 1073.8,360.61 1073.8,351.3 1081.9,351.3 C 1090,351.3 1090,360.61 1090,363.12 z"
             id="path2746" /><path
             style="fill:#000000;stroke-width:0"
             d="M 1165.3,389.24 L 1165.3,389.37 L 1165.3,389.49 L 1165.4,389.6 L 1165.4,389.71 L 1165.4,389.82 L 1165.5,389.91 L 1165.5,390.01 L 1165.5,390.09 L 1165.5,390.18 L 1165.6,390.25 L 1165.6,390.33 L 1165.6,390.39 L 1165.7,390.46 L 1165.7,390.52 L 1165.7,390.57 L 1165.7,390.63 L 1165.8,390.67 L 1165.8,390.72 L 1165.8,390.76 L 1165.9,390.8 L 1165.9,390.83 L 1166,390.87 L 1166,390.9 L 1166,390.92 L 1166.1,390.95 L 1166.1,390.97 L 1166.2,390.99 L 1166.2,391.01 L 1166.3,391.03 L 1166.3,391.05 L 1166.4,391.06 L 1166.4,391.08 C 1166.9,391.18 1168.5,391.18 1169.6,391.18 C 1174.6,391.18 1176.8,390.98 1176.8,387.09 C 1176.8,386.35 1176.6,384.41 1176.4,383.11 C 1176.4,382.91 1176.3,382.31 1176.3,382.16 C 1176.3,381.86 1176.4,381.52 1176.9,381.52 C 1177.4,381.52 1177.5,381.91 1177.6,382.66 L 1179,391.33 C 1179,391.53 1179.1,392.03 1179.1,392.18 C 1179.1,392.72 1178.6,392.72 1177.7,392.72 L 1150.1,392.72 C 1148.9,392.72 1148.8,392.67 1148.5,391.73 L 1145.5,382.96 C 1145.4,382.86 1145.2,382.16 1145.2,382.06 C 1145.2,381.77 1145.4,381.52 1145.8,381.52 C 1146.3,381.52 1146.3,381.77 1146.6,382.56 C 1149.3,390.28 1150.6,391.18 1158,391.18 L 1159.9,391.18 C 1161.3,391.18 1161.3,390.98 1161.3,390.58 C 1161.3,390.28 1161.2,389.68 1161.1,389.54 L 1154.5,362.93 C 1154,361.09 1153.9,360.54 1148.5,360.54 C 1146.7,360.54 1146.4,360.54 1146.4,359.6 C 1146.4,359 1147,359 1147.3,359 L 1164.1,359 C 1164.6,359 1165.2,359 1165.2,360 C 1165.2,360.54 1164.8,360.54 1163.5,360.54 C 1162.2,360.54 1161.6,360.54 1160.3,360.64 C 1158.8,360.79 1158.4,360.94 1158.4,361.74 C 1158.4,361.79 1158.4,362.04 1158.6,362.79 L 1165.3,389.24 z"
             id="path2748" /><path
             style="fill:#000000;stroke-width:0"
             d="M 1191,363.12 L 1191,363.83 L 1191,364.51 L 1190.9,365.17 L 1190.9,365.81 L 1190.8,366.43 L 1190.8,367.02 L 1190.7,367.6 L 1190.6,368.16 L 1190.4,368.71 L 1190.3,369.24 L 1190.1,369.75 L 1189.9,370.25 L 1189.7,370.74 L 1189.5,371.22 L 1189.2,371.69 L 1189.1,371.93 L 1188.9,372.16 C 1187.9,373.76 1185.7,375.15 1182.9,375.15 L 1182.9,374.18 C 1184.8,374.18 1186.6,373.03 1187.2,371 C 1187.8,369.12 1187.8,366.61 1187.8,363.58 C 1187.8,361 1187.8,358.41 1187.4,356.22 C 1186.7,353.05 1184.3,352.28 1182.9,352.28 L 1182.9,352.28 C 1181.3,352.28 1179.2,353.22 1178.5,356.08 C 1178,358.14 1178,361 1178,363.58 C 1178,366.12 1178,368.77 1178.5,370.69 C 1179.2,373.45 1181.5,374.18 1182.9,374.18 L 1182.9,375.15 C 1174.8,375.15 1174.8,365.63 1174.8,363.12 C 1174.8,360.61 1174.8,351.3 1182.9,351.3 C 1191,351.3 1191,360.61 1191,363.12 z"
             id="path2750" /><path
             style="fill:#000000;stroke-width:0"
             d="M 1204.7,374.18 L 1204.7,374.22 L 1204.7,374.26 L 1204.7,374.3 L 1204.7,374.34 L 1204.7,374.38 L 1204.7,374.42 L 1204.7,374.45 L 1204.7,374.49 L 1204.7,374.52 L 1204.7,374.55 L 1204.7,374.59 L 1204.7,374.62 L 1204.7,374.64 L 1204.7,374.67 L 1204.7,374.7 L 1204.7,374.73 L 1204.6,374.75 L 1204.6,374.77 L 1204.6,374.82 L 1204.6,374.86 L 1204.6,374.9 L 1204.6,374.93 L 1204.6,374.96 L 1204.5,374.99 L 1204.5,375.02 L 1204.5,375.04 L 1204.5,375.06 L 1204.4,375.08 L 1204.4,375.09 L 1204.4,375.1 L 1204.3,375.12 L 1204.3,375.12 L 1204.2,375.13 L 1204.2,375.13 L 1204.2,375.14 L 1204.2,375.14 L 1204.1,375.14 L 1204.1,375.14 L 1204.1,375.14 L 1204,375.15 L 1204,375.15 L 1204,375.15 L 1203.9,375.15 L 1203.9,375.15 L 1203.9,375.15 L 1203.8,375.15 L 1203.8,375.15 L 1203.7,375.15 L 1203.7,375.15 L 1203.6,375.15 C 1201.4,372.96 1198.2,372.92 1196.8,372.92 L 1196.8,371.67 C 1197.6,371.67 1199.9,371.67 1201.9,372.64 L 1201.9,354.86 C 1201.9,353.71 1201.9,353.25 1198.4,353.25 L 1197,353.25 L 1197,352 L 1209.5,352 L 1209.5,353.25 L 1208.2,353.25 C 1204.7,353.25 1204.7,353.71 1204.7,354.86 L 1204.7,374.18 z"
             id="path2752" /><path
             style="fill:#000000;stroke-width:0"
             d="M 1286.3,389.24 L 1286.3,389.37 L 1286.3,389.49 L 1286.4,389.6 L 1286.4,389.71 L 1286.4,389.82 L 1286.5,389.91 L 1286.5,390.01 L 1286.5,390.09 L 1286.5,390.18 L 1286.6,390.25 L 1286.6,390.33 L 1286.6,390.39 L 1286.7,390.46 L 1286.7,390.52 L 1286.7,390.57 L 1286.7,390.63 L 1286.8,390.67 L 1286.8,390.72 L 1286.8,390.76 L 1286.9,390.8 L 1286.9,390.83 L 1287,390.87 L 1287,390.9 L 1287,390.92 L 1287.1,390.95 L 1287.1,390.97 L 1287.2,390.99 L 1287.2,391.01 L 1287.3,391.03 L 1287.3,391.05 L 1287.4,391.06 L 1287.4,391.08 C 1287.9,391.18 1289.5,391.18 1290.6,391.18 C 1295.6,391.18 1297.8,390.98 1297.8,387.09 C 1297.8,386.35 1297.6,384.41 1297.4,383.11 C 1297.4,382.91 1297.3,382.31 1297.3,382.16 C 1297.3,381.86 1297.4,381.52 1297.9,381.52 C 1298.4,381.52 1298.5,381.91 1298.6,382.66 L 1300,391.33 C 1300,391.53 1300.1,392.03 1300.1,392.18 C 1300.1,392.72 1299.6,392.72 1298.7,392.72 L 1271.1,392.72 C 1269.9,392.72 1269.8,392.67 1269.5,391.73 L 1266.5,382.96 C 1266.4,382.86 1266.2,382.16 1266.2,382.06 C 1266.2,381.77 1266.4,381.52 1266.8,381.52 C 1267.3,381.52 1267.3,381.77 1267.6,382.56 C 1270.3,390.28 1271.6,391.18 1279,391.18 L 1280.9,391.18 C 1282.3,391.18 1282.3,390.98 1282.3,390.58 C 1282.3,390.28 1282.2,389.68 1282.1,389.54 L 1275.5,362.93 C 1275,361.09 1274.9,360.54 1269.5,360.54 C 1267.7,360.54 1267.4,360.54 1267.4,359.6 C 1267.4,359 1268,359 1268.3,359 L 1285.1,359 C 1285.6,359 1286.2,359 1286.2,360 C 1286.2,360.54 1285.8,360.54 1284.5,360.54 C 1283.2,360.54 1282.6,360.54 1281.3,360.64 C 1279.8,360.79 1279.4,360.94 1279.4,361.74 C 1279.4,361.79 1279.4,362.04 1279.6,362.79 L 1286.3,389.24 z"
             id="path2754" /><path
             style="fill:#000000;stroke-width:0"
             d="M 1312,363.12 L 1312,363.83 L 1312,364.51 L 1311.9,365.17 L 1311.9,365.81 L 1311.8,366.43 L 1311.8,367.02 L 1311.7,367.6 L 1311.6,368.16 L 1311.4,368.71 L 1311.3,369.24 L 1311.1,369.75 L 1310.9,370.25 L 1310.7,370.74 L 1310.5,371.22 L 1310.2,371.69 L 1310.1,371.93 L 1309.9,372.16 C 1308.9,373.76 1306.7,375.15 1303.9,375.15 L 1303.9,374.18 C 1305.8,374.18 1307.6,373.03 1308.2,371 C 1308.8,369.12 1308.8,366.61 1308.8,363.58 C 1308.8,361 1308.8,358.41 1308.4,356.22 C 1307.7,353.05 1305.3,352.28 1303.9,352.28 L 1303.9,352.28 C 1302.3,352.28 1300.2,353.22 1299.5,356.08 C 1299,358.14 1299,361 1299,363.58 C 1299,366.12 1299,368.77 1299.5,370.69 C 1300.2,373.45 1302.5,374.18 1303.9,374.18 L 1303.9,375.15 C 1295.8,375.15 1295.8,365.63 1295.8,363.12 C 1295.8,360.61 1295.8,351.3 1303.9,351.3 C 1312,351.3 1312,360.61 1312,363.12 z"
             id="path2756" /><path
             style="fill:#000000;stroke-width:0"
             d="M 1331.6,358.35 L 1330.4,358.35 C 1330.3,357.58 1330,355.52 1329.5,355.17 C 1329.2,354.96 1326.6,354.96 1326.1,354.96 L 1319.7,354.96 C 1323.3,358.21 1324.5,359.18 1326.6,360.82 C 1329.2,362.88 1331.6,365.04 1331.6,368.36 C 1331.6,372.57 1327.9,375.15 1323.4,375.15 C 1319.1,375.15 1316.2,372.12 1316.2,368.91 C 1316.2,367.13 1317.7,366.96 1318,366.96 C 1318.9,366.96 1319.9,367.55 1319.9,368.81 C 1319.9,369.43 1319.7,370.66 1317.8,370.66 C 1318.9,373.13 1321.3,373.9 1322.9,373.9 C 1326.4,373.9 1328.2,371.18 1328.2,368.36 C 1328.2,365.32 1326.1,362.91 1324.9,361.66 L 1316.6,353.36 C 1316.2,353.05 1316.2,352.98 1316.2,352 L 1330.6,352 L 1331.6,358.35 z"
             id="path2758" /><path
             style="fill:#000000;stroke-width:0"
             d="M 1407.3,389.24 L 1407.3,389.37 L 1407.3,389.49 L 1407.4,389.6 L 1407.4,389.71 L 1407.4,389.82 L 1407.5,389.91 L 1407.5,390.01 L 1407.5,390.09 L 1407.5,390.18 L 1407.6,390.25 L 1407.6,390.33 L 1407.6,390.39 L 1407.7,390.46 L 1407.7,390.52 L 1407.7,390.57 L 1407.7,390.63 L 1407.8,390.67 L 1407.8,390.72 L 1407.8,390.76 L 1407.9,390.8 L 1407.9,390.83 L 1408,390.87 L 1408,390.9 L 1408,390.92 L 1408.1,390.95 L 1408.1,390.97 L 1408.2,390.99 L 1408.2,391.01 L 1408.3,391.03 L 1408.3,391.05 L 1408.4,391.06 L 1408.4,391.08 C 1408.9,391.18 1410.5,391.18 1411.6,391.18 C 1416.6,391.18 1418.8,390.98 1418.8,387.09 C 1418.8,386.35 1418.6,384.41 1418.4,383.11 C 1418.4,382.91 1418.3,382.31 1418.3,382.16 C 1418.3,381.86 1418.4,381.52 1418.9,381.52 C 1419.4,381.52 1419.5,381.91 1419.6,382.66 L 1421,391.33 C 1421,391.53 1421.1,392.03 1421.1,392.18 C 1421.1,392.72 1420.6,392.72 1419.7,392.72 L 1392.1,392.72 C 1390.9,392.72 1390.8,392.67 1390.5,391.73 L 1387.5,382.96 C 1387.4,382.86 1387.2,382.16 1387.2,382.06 C 1387.2,381.77 1387.4,381.52 1387.8,381.52 C 1388.3,381.52 1388.3,381.77 1388.6,382.56 C 1391.3,390.28 1392.6,391.18 1400,391.18 L 1401.9,391.18 C 1403.3,391.18 1403.3,390.98 1403.3,390.58 C 1403.3,390.28 1403.2,389.68 1403.1,389.54 L 1396.5,362.93 C 1396,361.09 1395.9,360.54 1390.5,360.54 C 1388.7,360.54 1388.4,360.54 1388.4,359.6 C 1388.4,359 1389,359 1389.3,359 L 1406.1,359 C 1406.6,359 1407.2,359 1407.2,360 C 1407.2,360.54 1406.8,360.54 1405.5,360.54 C 1404.2,360.54 1403.6,360.54 1402.3,360.64 C 1400.8,360.79 1400.4,360.94 1400.4,361.74 C 1400.4,361.79 1400.4,362.04 1400.6,362.79 L 1407.3,389.24 z"
             id="path2760" /><path
             style="fill:#000000;stroke-width:0"
             d="M 1433,363.12 L 1433,363.83 L 1433,364.51 L 1432.9,365.17 L 1432.9,365.81 L 1432.8,366.43 L 1432.8,367.02 L 1432.7,367.6 L 1432.6,368.16 L 1432.4,368.71 L 1432.3,369.24 L 1432.1,369.75 L 1431.9,370.25 L 1431.7,370.74 L 1431.5,371.22 L 1431.2,371.69 L 1431.1,371.93 L 1430.9,372.16 C 1429.9,373.76 1427.7,375.15 1424.9,375.15 L 1424.9,374.18 C 1426.8,374.18 1428.6,373.03 1429.2,371 C 1429.8,369.12 1429.8,366.61 1429.8,363.58 C 1429.8,361 1429.8,358.41 1429.4,356.22 C 1428.7,353.05 1426.3,352.28 1424.9,352.28 L 1424.9,352.28 C 1423.3,352.28 1421.2,353.22 1420.5,356.08 C 1420,358.14 1420,361 1420,363.58 C 1420,366.12 1420,368.77 1420.5,370.69 C 1421.2,373.45 1423.5,374.18 1424.9,374.18 L 1424.9,375.15 C 1416.8,375.15 1416.8,365.63 1416.8,363.12 C 1416.8,360.61 1416.8,351.3 1424.9,351.3 C 1433,351.3 1433,360.61 1433,363.12 z"
             id="path2762" /><path
             style="fill:#000000;stroke-width:0"
             d="M 1444.5,363.64 L 1444.8,363.64 L 1445,363.62 L 1445.3,363.6 L 1445.5,363.56 L 1445.7,363.51 L 1446,363.45 L 1446.2,363.38 L 1446.4,363.29 L 1446.6,363.2 L 1446.8,363.09 L 1447,362.98 L 1447.2,362.85 L 1447.4,362.72 L 1447.5,362.57 L 1447.7,362.41 L 1447.9,362.24 L 1448,362.06 L 1448.2,361.86 L 1448.3,361.66 L 1448.4,361.45 L 1448.5,361.22 L 1448.7,360.99 L 1448.8,360.74 L 1448.8,360.48 L 1448.9,360.21 L 1449,359.93 L 1449.1,359.64 L 1449.1,359.34 L 1449.1,359.03 L 1449.2,358.71 L 1449.2,358.38 L 1449.2,358.03 C 1449.2,353.71 1446.7,352.42 1444.7,352.42 C 1443.3,352.42 1440.2,352.8 1438.7,354.86 C 1440.4,354.93 1440.8,356.08 1440.8,356.81 C 1440.8,357.93 1439.9,358.73 1438.8,358.73 C 1437.9,358.73 1436.9,358.14 1436.9,356.71 C 1436.9,353.43 1440.5,351.3 1444.7,351.3 C 1449.6,351.3 1452.9,354.55 1452.9,358.03 C 1452.9,360.75 1450.7,363.47 1446.9,364.27 C 1450.5,365.6 1451.8,368.21 1451.8,370.34 C 1451.8,373.1 1448.7,375.15 1444.8,375.15 C 1440.9,375.15 1438,373.27 1438,370.48 C 1438,369.3 1438.7,368.63 1439.8,368.63 C 1440.9,368.63 1441.6,369.43 1441.6,370.41 C 1441.6,371.42 1440.9,372.16 1439.8,372.22 C 1441,373.76 1443.4,374.14 1444.7,374.14 C 1446.3,374.14 1448.5,373.38 1448.5,370.34 C 1448.5,368.88 1448,367.27 1447.1,366.19 C 1445.9,364.87 1444.9,364.8 1443.2,364.69 C 1442.3,364.62 1442.2,364.62 1442.1,364.59 C 1442,364.59 1441.7,364.52 1441.7,364.13 C 1441.7,363.64 1442,363.64 1442.6,363.64 L 1444.5,363.64 z"
             id="path2764" /><path
             style="fill:#000000;stroke-width:0"
             d="M 1044.3,330.24 L 1044.3,330.37 L 1044.3,330.49 L 1044.4,330.6 L 1044.4,330.71 L 1044.4,330.82 L 1044.5,330.91 L 1044.5,331.01 L 1044.5,331.09 L 1044.5,331.18 L 1044.6,331.25 L 1044.6,331.33 L 1044.6,331.39 L 1044.7,331.46 L 1044.7,331.52 L 1044.7,331.57 L 1044.7,331.63 L 1044.8,331.67 L 1044.8,331.72 L 1044.8,331.76 L 1044.9,331.8 L 1044.9,331.83 L 1045,331.87 L 1045,331.9 L 1045,331.92 L 1045.1,331.95 L 1045.1,331.97 L 1045.2,331.99 L 1045.2,332.01 L 1045.3,332.03 L 1045.3,332.05 L 1045.4,332.06 L 1045.4,332.08 C 1045.9,332.18 1047.5,332.18 1048.6,332.18 C 1053.6,332.18 1055.8,331.98 1055.8,328.09 C 1055.8,327.35 1055.6,325.41 1055.4,324.11 C 1055.4,323.91 1055.3,323.31 1055.3,323.16 C 1055.3,322.86 1055.4,322.52 1055.9,322.52 C 1056.4,322.52 1056.5,322.91 1056.6,323.66 L 1058,332.33 C 1058,332.53 1058.1,333.03 1058.1,333.18 C 1058.1,333.72 1057.6,333.72 1056.7,333.72 L 1029.1,333.72 C 1027.9,333.72 1027.8,333.67 1027.5,332.73 L 1024.5,323.96 C 1024.4,323.86 1024.2,323.16 1024.2,323.06 C 1024.2,322.77 1024.4,322.52 1024.8,322.52 C 1025.3,322.52 1025.3,322.77 1025.6,323.56 C 1028.3,331.28 1029.6,332.18 1037,332.18 L 1038.9,332.18 C 1040.3,332.18 1040.3,331.98 1040.3,331.58 C 1040.3,331.28 1040.2,330.68 1040.1,330.54 L 1033.5,303.93 C 1033,302.09 1032.9,301.54 1027.5,301.54 C 1025.7,301.54 1025.4,301.54 1025.4,300.6 C 1025.4,300 1026,300 1026.3,300 L 1043.1,300 C 1043.6,300 1044.2,300 1044.2,301 C 1044.2,301.54 1043.8,301.54 1042.5,301.54 C 1041.2,301.54 1040.6,301.54 1039.3,301.64 C 1037.8,301.79 1037.4,301.94 1037.4,302.74 C 1037.4,302.79 1037.4,303.04 1037.6,303.79 L 1044.3,330.24 z"
             id="path2766" /><path
             style="fill:#000000;stroke-width:0"
             d="M 1063.7,314.18 L 1063.7,314.22 L 1063.7,314.26 L 1063.7,314.3 L 1063.7,314.34 L 1063.7,314.38 L 1063.7,314.42 L 1063.7,314.45 L 1063.7,314.49 L 1063.7,314.52 L 1063.7,314.55 L 1063.7,314.59 L 1063.7,314.62 L 1063.7,314.64 L 1063.7,314.67 L 1063.7,314.7 L 1063.7,314.73 L 1063.6,314.75 L 1063.6,314.77 L 1063.6,314.82 L 1063.6,314.86 L 1063.6,314.9 L 1063.6,314.93 L 1063.6,314.96 L 1063.5,314.99 L 1063.5,315.02 L 1063.5,315.04 L 1063.5,315.06 L 1063.4,315.08 L 1063.4,315.09 L 1063.4,315.1 L 1063.3,315.12 L 1063.3,315.12 L 1063.2,315.13 L 1063.2,315.13 L 1063.2,315.14 L 1063.2,315.14 L 1063.1,315.14 L 1063.1,315.14 L 1063.1,315.14 L 1063,315.15 L 1063,315.15 L 1063,315.15 L 1062.9,315.15 L 1062.9,315.15 L 1062.9,315.15 L 1062.8,315.15 L 1062.8,315.15 L 1062.7,315.15 L 1062.7,315.15 L 1062.6,315.15 C 1060.4,312.96 1057.2,312.92 1055.8,312.92 L 1055.8,311.67 C 1056.6,311.67 1058.9,311.67 1060.9,312.64 L 1060.9,294.86 C 1060.9,293.71 1060.9,293.25 1057.4,293.25 L 1056,293.25 L 1056,292 L 1068.5,292 L 1068.5,293.25 L 1067.2,293.25 C 1063.7,293.25 1063.7,293.71 1063.7,294.86 L 1063.7,314.18 z"
             id="path2768" /><path
             style="fill:#000000;stroke-width:0"
             d="M 1090,303.12 L 1090,303.83 L 1090,304.51 L 1089.9,305.17 L 1089.9,305.81 L 1089.8,306.43 L 1089.8,307.02 L 1089.7,307.6 L 1089.6,308.16 L 1089.4,308.71 L 1089.3,309.24 L 1089.1,309.75 L 1088.9,310.25 L 1088.7,310.74 L 1088.5,311.22 L 1088.2,311.69 L 1088.1,311.93 L 1087.9,312.16 C 1086.9,313.76 1084.7,315.15 1081.9,315.15 L 1081.9,314.18 C 1083.8,314.18 1085.6,313.03 1086.2,311 C 1086.8,309.12 1086.8,306.61 1086.8,303.58 C 1086.8,301 1086.8,298.41 1086.4,296.22 C 1085.7,293.05 1083.3,292.28 1081.9,292.28 L 1081.9,292.28 C 1080.3,292.28 1078.2,293.22 1077.5,296.08 C 1077,298.14 1077,301 1077,303.58 C 1077,306.12 1077,308.77 1077.5,310.69 C 1078.2,313.45 1080.5,314.18 1081.9,314.18 L 1081.9,315.15 C 1073.8,315.15 1073.8,305.63 1073.8,303.12 C 1073.8,300.61 1073.8,291.3 1081.9,291.3 C 1090,291.3 1090,300.61 1090,303.12 z"
             id="path2770" /><path
             style="fill:#000000;stroke-width:0"
             d="M 1165.3,330.24 L 1165.3,330.37 L 1165.3,330.49 L 1165.4,330.6 L 1165.4,330.71 L 1165.4,330.82 L 1165.5,330.91 L 1165.5,331.01 L 1165.5,331.09 L 1165.5,331.18 L 1165.6,331.25 L 1165.6,331.33 L 1165.6,331.39 L 1165.7,331.46 L 1165.7,331.52 L 1165.7,331.57 L 1165.7,331.63 L 1165.8,331.67 L 1165.8,331.72 L 1165.8,331.76 L 1165.9,331.8 L 1165.9,331.83 L 1166,331.87 L 1166,331.9 L 1166,331.92 L 1166.1,331.95 L 1166.1,331.97 L 1166.2,331.99 L 1166.2,332.01 L 1166.3,332.03 L 1166.3,332.05 L 1166.4,332.06 L 1166.4,332.08 C 1166.9,332.18 1168.5,332.18 1169.6,332.18 C 1174.6,332.18 1176.8,331.98 1176.8,328.09 C 1176.8,327.35 1176.6,325.41 1176.4,324.11 C 1176.4,323.91 1176.3,323.31 1176.3,323.16 C 1176.3,322.86 1176.4,322.52 1176.9,322.52 C 1177.4,322.52 1177.5,322.91 1177.6,323.66 L 1179,332.33 C 1179,332.53 1179.1,333.03 1179.1,333.18 C 1179.1,333.72 1178.6,333.72 1177.7,333.72 L 1150.1,333.72 C 1148.9,333.72 1148.8,333.67 1148.5,332.73 L 1145.5,323.96 C 1145.4,323.86 1145.2,323.16 1145.2,323.06 C 1145.2,322.77 1145.4,322.52 1145.8,322.52 C 1146.3,322.52 1146.3,322.77 1146.6,323.56 C 1149.3,331.28 1150.6,332.18 1158,332.18 L 1159.9,332.18 C 1161.3,332.18 1161.3,331.98 1161.3,331.58 C 1161.3,331.28 1161.2,330.68 1161.1,330.54 L 1154.5,303.93 C 1154,302.09 1153.9,301.54 1148.5,301.54 C 1146.7,301.54 1146.4,301.54 1146.4,300.6 C 1146.4,300 1147,300 1147.3,300 L 1164.1,300 C 1164.6,300 1165.2,300 1165.2,301 C 1165.2,301.54 1164.8,301.54 1163.5,301.54 C 1162.2,301.54 1161.6,301.54 1160.3,301.64 C 1158.8,301.79 1158.4,301.94 1158.4,302.74 C 1158.4,302.79 1158.4,303.04 1158.6,303.79 L 1165.3,330.24 z"
             id="path2772" /><path
             style="fill:#000000;stroke-width:0"
             d="M 1184.7,314.18 L 1184.7,314.22 L 1184.7,314.26 L 1184.7,314.3 L 1184.7,314.34 L 1184.7,314.38 L 1184.7,314.42 L 1184.7,314.45 L 1184.7,314.49 L 1184.7,314.52 L 1184.7,314.55 L 1184.7,314.59 L 1184.7,314.62 L 1184.7,314.64 L 1184.7,314.67 L 1184.7,314.7 L 1184.7,314.73 L 1184.6,314.75 L 1184.6,314.77 L 1184.6,314.82 L 1184.6,314.86 L 1184.6,314.9 L 1184.6,314.93 L 1184.6,314.96 L 1184.5,314.99 L 1184.5,315.02 L 1184.5,315.04 L 1184.5,315.06 L 1184.4,315.08 L 1184.4,315.09 L 1184.4,315.1 L 1184.3,315.12 L 1184.3,315.12 L 1184.2,315.13 L 1184.2,315.13 L 1184.2,315.14 L 1184.2,315.14 L 1184.1,315.14 L 1184.1,315.14 L 1184.1,315.14 L 1184,315.15 L 1184,315.15 L 1184,315.15 L 1183.9,315.15 L 1183.9,315.15 L 1183.9,315.15 L 1183.8,315.15 L 1183.8,315.15 L 1183.7,315.15 L 1183.7,315.15 L 1183.6,315.15 C 1181.4,312.96 1178.2,312.92 1176.8,312.92 L 1176.8,311.67 C 1177.6,311.67 1179.9,311.67 1181.9,312.64 L 1181.9,294.86 C 1181.9,293.71 1181.9,293.25 1178.4,293.25 L 1177,293.25 L 1177,292 L 1189.5,292 L 1189.5,293.25 L 1188.2,293.25 C 1184.7,293.25 1184.7,293.71 1184.7,294.86 L 1184.7,314.18 z"
             id="path2774" /><path
             style="fill:#000000;stroke-width:0"
             d="M 1204.7,314.18 L 1204.7,314.22 L 1204.7,314.26 L 1204.7,314.3 L 1204.7,314.34 L 1204.7,314.38 L 1204.7,314.42 L 1204.7,314.45 L 1204.7,314.49 L 1204.7,314.52 L 1204.7,314.55 L 1204.7,314.59 L 1204.7,314.62 L 1204.7,314.64 L 1204.7,314.67 L 1204.7,314.7 L 1204.7,314.73 L 1204.6,314.75 L 1204.6,314.77 L 1204.6,314.82 L 1204.6,314.86 L 1204.6,314.9 L 1204.6,314.93 L 1204.6,314.96 L 1204.5,314.99 L 1204.5,315.02 L 1204.5,315.04 L 1204.5,315.06 L 1204.4,315.08 L 1204.4,315.09 L 1204.4,315.1 L 1204.3,315.12 L 1204.3,315.12 L 1204.2,315.13 L 1204.2,315.13 L 1204.2,315.14 L 1204.2,315.14 L 1204.1,315.14 L 1204.1,315.14 L 1204.1,315.14 L 1204,315.15 L 1204,315.15 L 1204,315.15 L 1203.9,315.15 L 1203.9,315.15 L 1203.9,315.15 L 1203.8,315.15 L 1203.8,315.15 L 1203.7,315.15 L 1203.7,315.15 L 1203.6,315.15 C 1201.4,312.96 1198.2,312.92 1196.8,312.92 L 1196.8,311.67 C 1197.6,311.67 1199.9,311.67 1201.9,312.64 L 1201.9,294.86 C 1201.9,293.71 1201.9,293.25 1198.4,293.25 L 1197,293.25 L 1197,292 L 1209.5,292 L 1209.5,293.25 L 1208.2,293.25 C 1204.7,293.25 1204.7,293.71 1204.7,294.86 L 1204.7,314.18 z"
             id="path2776" /><path
             style="fill:#000000;stroke-width:0"
             d="M 1286.3,330.24 L 1286.3,330.37 L 1286.3,330.49 L 1286.4,330.6 L 1286.4,330.71 L 1286.4,330.82 L 1286.5,330.91 L 1286.5,331.01 L 1286.5,331.09 L 1286.5,331.18 L 1286.6,331.25 L 1286.6,331.33 L 1286.6,331.39 L 1286.7,331.46 L 1286.7,331.52 L 1286.7,331.57 L 1286.7,331.63 L 1286.8,331.67 L 1286.8,331.72 L 1286.8,331.76 L 1286.9,331.8 L 1286.9,331.83 L 1287,331.87 L 1287,331.9 L 1287,331.92 L 1287.1,331.95 L 1287.1,331.97 L 1287.2,331.99 L 1287.2,332.01 L 1287.3,332.03 L 1287.3,332.05 L 1287.4,332.06 L 1287.4,332.08 C 1287.9,332.18 1289.5,332.18 1290.6,332.18 C 1295.6,332.18 1297.8,331.98 1297.8,328.09 C 1297.8,327.35 1297.6,325.41 1297.4,324.11 C 1297.4,323.91 1297.3,323.31 1297.3,323.16 C 1297.3,322.86 1297.4,322.52 1297.9,322.52 C 1298.4,322.52 1298.5,322.91 1298.6,323.66 L 1300,332.33 C 1300,332.53 1300.1,333.03 1300.1,333.18 C 1300.1,333.72 1299.6,333.72 1298.7,333.72 L 1271.1,333.72 C 1269.9,333.72 1269.8,333.67 1269.5,332.73 L 1266.5,323.96 C 1266.4,323.86 1266.2,323.16 1266.2,323.06 C 1266.2,322.77 1266.4,322.52 1266.8,322.52 C 1267.3,322.52 1267.3,322.77 1267.6,323.56 C 1270.3,331.28 1271.6,332.18 1279,332.18 L 1280.9,332.18 C 1282.3,332.18 1282.3,331.98 1282.3,331.58 C 1282.3,331.28 1282.2,330.68 1282.1,330.54 L 1275.5,303.93 C 1275,302.09 1274.9,301.54 1269.5,301.54 C 1267.7,301.54 1267.4,301.54 1267.4,300.6 C 1267.4,300 1268,300 1268.3,300 L 1285.1,300 C 1285.6,300 1286.2,300 1286.2,301 C 1286.2,301.54 1285.8,301.54 1284.5,301.54 C 1283.2,301.54 1282.6,301.54 1281.3,301.64 C 1279.8,301.79 1279.4,301.94 1279.4,302.74 C 1279.4,302.79 1279.4,303.04 1279.6,303.79 L 1286.3,330.24 z"
             id="path2778" /><path
             style="fill:#000000;stroke-width:0"
             d="M 1305.7,314.18 L 1305.7,314.22 L 1305.7,314.26 L 1305.7,314.3 L 1305.7,314.34 L 1305.7,314.38 L 1305.7,314.42 L 1305.7,314.45 L 1305.7,314.49 L 1305.7,314.52 L 1305.7,314.55 L 1305.7,314.59 L 1305.7,314.62 L 1305.7,314.64 L 1305.7,314.67 L 1305.7,314.7 L 1305.7,314.73 L 1305.6,314.75 L 1305.6,314.77 L 1305.6,314.82 L 1305.6,314.86 L 1305.6,314.9 L 1305.6,314.93 L 1305.6,314.96 L 1305.5,314.99 L 1305.5,315.02 L 1305.5,315.04 L 1305.5,315.06 L 1305.4,315.08 L 1305.4,315.09 L 1305.4,315.1 L 1305.3,315.12 L 1305.3,315.12 L 1305.2,315.13 L 1305.2,315.13 L 1305.2,315.14 L 1305.2,315.14 L 1305.1,315.14 L 1305.1,315.14 L 1305.1,315.14 L 1305,315.15 L 1305,315.15 L 1305,315.15 L 1304.9,315.15 L 1304.9,315.15 L 1304.9,315.15 L 1304.8,315.15 L 1304.8,315.15 L 1304.7,315.15 L 1304.7,315.15 L 1304.6,315.15 C 1302.4,312.96 1299.2,312.92 1297.8,312.92 L 1297.8,311.67 C 1298.6,311.67 1300.9,311.67 1302.9,312.64 L 1302.9,294.86 C 1302.9,293.71 1302.9,293.25 1299.4,293.25 L 1298,293.25 L 1298,292 L 1310.5,292 L 1310.5,293.25 L 1309.2,293.25 C 1305.7,293.25 1305.7,293.71 1305.7,294.86 L 1305.7,314.18 z"
             id="path2780" /><path
             style="fill:#000000;stroke-width:0"
             d="M 1331.6,298.35 L 1330.4,298.35 C 1330.3,297.58 1330,295.52 1329.5,295.17 C 1329.2,294.96 1326.6,294.96 1326.1,294.96 L 1319.7,294.96 C 1323.3,298.21 1324.5,299.18 1326.6,300.82 C 1329.2,302.88 1331.6,305.04 1331.6,308.36 C 1331.6,312.57 1327.9,315.15 1323.4,315.15 C 1319.1,315.15 1316.2,312.12 1316.2,308.91 C 1316.2,307.13 1317.7,306.96 1318,306.96 C 1318.9,306.96 1319.9,307.55 1319.9,308.81 C 1319.9,309.43 1319.7,310.66 1317.8,310.66 C 1318.9,313.13 1321.3,313.9 1322.9,313.9 C 1326.4,313.9 1328.2,311.18 1328.2,308.36 C 1328.2,305.32 1326.1,302.91 1324.9,301.66 L 1316.6,293.36 C 1316.2,293.05 1316.2,292.98 1316.2,292 L 1330.6,292 L 1331.6,298.35 z"
             id="path2782" /><path
             style="fill:#000000;stroke-width:0"
             d="M 1407.3,330.24 L 1407.3,330.37 L 1407.3,330.49 L 1407.4,330.6 L 1407.4,330.71 L 1407.4,330.82 L 1407.5,330.91 L 1407.5,331.01 L 1407.5,331.09 L 1407.5,331.18 L 1407.6,331.25 L 1407.6,331.33 L 1407.6,331.39 L 1407.7,331.46 L 1407.7,331.52 L 1407.7,331.57 L 1407.7,331.63 L 1407.8,331.67 L 1407.8,331.72 L 1407.8,331.76 L 1407.9,331.8 L 1407.9,331.83 L 1408,331.87 L 1408,331.9 L 1408,331.92 L 1408.1,331.95 L 1408.1,331.97 L 1408.2,331.99 L 1408.2,332.01 L 1408.3,332.03 L 1408.3,332.05 L 1408.4,332.06 L 1408.4,332.08 C 1408.9,332.18 1410.5,332.18 1411.6,332.18 C 1416.6,332.18 1418.8,331.98 1418.8,328.09 C 1418.8,327.35 1418.6,325.41 1418.4,324.11 C 1418.4,323.91 1418.3,323.31 1418.3,323.16 C 1418.3,322.86 1418.4,322.52 1418.9,322.52 C 1419.4,322.52 1419.5,322.91 1419.6,323.66 L 1421,332.33 C 1421,332.53 1421.1,333.03 1421.1,333.18 C 1421.1,333.72 1420.6,333.72 1419.7,333.72 L 1392.1,333.72 C 1390.9,333.72 1390.8,333.67 1390.5,332.73 L 1387.5,323.96 C 1387.4,323.86 1387.2,323.16 1387.2,323.06 C 1387.2,322.77 1387.4,322.52 1387.8,322.52 C 1388.3,322.52 1388.3,322.77 1388.6,323.56 C 1391.3,331.28 1392.6,332.18 1400,332.18 L 1401.9,332.18 C 1403.3,332.18 1403.3,331.98 1403.3,331.58 C 1403.3,331.28 1403.2,330.68 1403.1,330.54 L 1396.5,303.93 C 1396,302.09 1395.9,301.54 1390.5,301.54 C 1388.7,301.54 1388.4,301.54 1388.4,300.6 C 1388.4,300 1389,300 1389.3,300 L 1406.1,300 C 1406.6,300 1407.2,300 1407.2,301 C 1407.2,301.54 1406.8,301.54 1405.5,301.54 C 1404.2,301.54 1403.6,301.54 1402.3,301.64 C 1400.8,301.79 1400.4,301.94 1400.4,302.74 C 1400.4,302.79 1400.4,303.04 1400.6,303.79 L 1407.3,330.24 z"
             id="path2784" /><path
             style="fill:#000000;stroke-width:0"
             d="M 1426.7,314.18 L 1426.7,314.22 L 1426.7,314.26 L 1426.7,314.3 L 1426.7,314.34 L 1426.7,314.38 L 1426.7,314.42 L 1426.7,314.45 L 1426.7,314.49 L 1426.7,314.52 L 1426.7,314.55 L 1426.7,314.59 L 1426.7,314.62 L 1426.7,314.64 L 1426.7,314.67 L 1426.7,314.7 L 1426.7,314.73 L 1426.6,314.75 L 1426.6,314.77 L 1426.6,314.82 L 1426.6,314.86 L 1426.6,314.9 L 1426.6,314.93 L 1426.6,314.96 L 1426.5,314.99 L 1426.5,315.02 L 1426.5,315.04 L 1426.5,315.06 L 1426.4,315.08 L 1426.4,315.09 L 1426.4,315.1 L 1426.3,315.12 L 1426.3,315.12 L 1426.2,315.13 L 1426.2,315.13 L 1426.2,315.14 L 1426.2,315.14 L 1426.1,315.14 L 1426.1,315.14 L 1426.1,315.14 L 1426,315.15 L 1426,315.15 L 1426,315.15 L 1425.9,315.15 L 1425.9,315.15 L 1425.9,315.15 L 1425.8,315.15 L 1425.8,315.15 L 1425.7,315.15 L 1425.7,315.15 L 1425.6,315.15 C 1423.4,312.96 1420.2,312.92 1418.8,312.92 L 1418.8,311.67 C 1419.6,311.67 1421.9,311.67 1423.9,312.64 L 1423.9,294.86 C 1423.9,293.71 1423.9,293.25 1420.4,293.25 L 1419,293.25 L 1419,292 L 1431.5,292 L 1431.5,293.25 L 1430.2,293.25 C 1426.7,293.25 1426.7,293.71 1426.7,294.86 L 1426.7,314.18 z"
             id="path2786" /><path
             style="fill:#000000;stroke-width:0"
             d="M 1444.5,303.64 L 1444.8,303.64 L 1445,303.62 L 1445.3,303.6 L 1445.5,303.56 L 1445.7,303.51 L 1446,303.45 L 1446.2,303.38 L 1446.4,303.29 L 1446.6,303.2 L 1446.8,303.09 L 1447,302.98 L 1447.2,302.85 L 1447.4,302.72 L 1447.5,302.57 L 1447.7,302.41 L 1447.9,302.24 L 1448,302.06 L 1448.2,301.86 L 1448.3,301.66 L 1448.4,301.45 L 1448.5,301.22 L 1448.7,300.99 L 1448.8,300.74 L 1448.8,300.48 L 1448.9,300.21 L 1449,299.93 L 1449.1,299.64 L 1449.1,299.34 L 1449.1,299.03 L 1449.2,298.71 L 1449.2,298.38 L 1449.2,298.03 C 1449.2,293.71 1446.7,292.42 1444.7,292.42 C 1443.3,292.42 1440.2,292.8 1438.7,294.86 C 1440.4,294.93 1440.8,296.08 1440.8,296.81 C 1440.8,297.93 1439.9,298.73 1438.8,298.73 C 1437.9,298.73 1436.9,298.14 1436.9,296.71 C 1436.9,293.43 1440.5,291.3 1444.7,291.3 C 1449.6,291.3 1452.9,294.55 1452.9,298.03 C 1452.9,300.75 1450.7,303.47 1446.9,304.27 C 1450.5,305.6 1451.8,308.21 1451.8,310.34 C 1451.8,313.1 1448.7,315.15 1444.8,315.15 C 1440.9,315.15 1438,313.27 1438,310.48 C 1438,309.3 1438.7,308.63 1439.8,308.63 C 1440.9,308.63 1441.6,309.43 1441.6,310.41 C 1441.6,311.42 1440.9,312.16 1439.8,312.22 C 1441,313.76 1443.4,314.14 1444.7,314.14 C 1446.3,314.14 1448.5,313.38 1448.5,310.34 C 1448.5,308.88 1448,307.27 1447.1,306.19 C 1445.9,304.87 1444.9,304.8 1443.2,304.69 C 1442.3,304.62 1442.2,304.62 1442.1,304.59 C 1442,304.59 1441.7,304.52 1441.7,304.13 C 1441.7,303.64 1442,303.64 1442.6,303.64 L 1444.5,303.64 z"
             id="path2788" /><path
             style="fill:#000000;stroke-width:0"
             d="M 1044.3,270.24 L 1044.3,270.37 L 1044.3,270.49 L 1044.4,270.6 L 1044.4,270.71 L 1044.4,270.82 L 1044.5,270.91 L 1044.5,271.01 L 1044.5,271.09 L 1044.5,271.18 L 1044.6,271.25 L 1044.6,271.33 L 1044.6,271.39 L 1044.7,271.46 L 1044.7,271.52 L 1044.7,271.57 L 1044.7,271.63 L 1044.8,271.67 L 1044.8,271.72 L 1044.8,271.76 L 1044.9,271.8 L 1044.9,271.83 L 1045,271.87 L 1045,271.9 L 1045,271.92 L 1045.1,271.95 L 1045.1,271.97 L 1045.2,271.99 L 1045.2,272.01 L 1045.3,272.03 L 1045.3,272.05 L 1045.4,272.06 L 1045.4,272.08 C 1045.9,272.18 1047.5,272.18 1048.6,272.18 C 1053.6,272.18 1055.8,271.98 1055.8,268.09 C 1055.8,267.35 1055.6,265.41 1055.4,264.11 C 1055.4,263.91 1055.3,263.31 1055.3,263.16 C 1055.3,262.86 1055.4,262.52 1055.9,262.52 C 1056.4,262.52 1056.5,262.91 1056.6,263.66 L 1058,272.33 C 1058,272.53 1058.1,273.03 1058.1,273.18 C 1058.1,273.72 1057.6,273.72 1056.7,273.72 L 1029.1,273.72 C 1027.9,273.72 1027.8,273.67 1027.5,272.73 L 1024.5,263.96 C 1024.4,263.86 1024.2,263.16 1024.2,263.06 C 1024.2,262.77 1024.4,262.52 1024.8,262.52 C 1025.3,262.52 1025.3,262.77 1025.6,263.56 C 1028.3,271.28 1029.6,272.18 1037,272.18 L 1038.9,272.18 C 1040.3,272.18 1040.3,271.98 1040.3,271.58 C 1040.3,271.28 1040.2,270.68 1040.1,270.54 L 1033.5,243.93 C 1033,242.09 1032.9,241.54 1027.5,241.54 C 1025.7,241.54 1025.4,241.54 1025.4,240.6 C 1025.4,240 1026,240 1026.3,240 L 1043.1,240 C 1043.6,240 1044.2,240 1044.2,241 C 1044.2,241.54 1043.8,241.54 1042.5,241.54 C 1041.2,241.54 1040.6,241.54 1039.3,241.65 C 1037.8,241.79 1037.4,241.94 1037.4,242.74 C 1037.4,242.79 1037.4,243.04 1037.6,243.79 L 1044.3,270.24 z"
             id="path2790" /><path
             style="fill:#000000;stroke-width:0"
             d="M 1069.6,238.35 L 1068.4,238.35 C 1068.3,237.58 1068,235.52 1067.5,235.17 C 1067.2,234.96 1064.6,234.96 1064.1,234.96 L 1057.7,234.96 C 1061.3,238.21 1062.5,239.18 1064.6,240.82 C 1067.2,242.88 1069.6,245.04 1069.6,248.35 C 1069.6,252.57 1065.9,255.15 1061.4,255.15 C 1057.1,255.15 1054.2,252.12 1054.2,248.91 C 1054.2,247.13 1055.7,246.96 1056,246.96 C 1056.9,246.96 1057.9,247.55 1057.9,248.81 C 1057.9,249.43 1057.7,250.66 1055.8,250.66 C 1056.9,253.13 1059.3,253.9 1060.9,253.9 C 1064.4,253.9 1066.2,251.18 1066.2,248.35 C 1066.2,245.32 1064.1,242.91 1062.9,241.66 L 1054.6,233.36 C 1054.2,233.05 1054.2,232.98 1054.2,232 L 1068.6,232 L 1069.6,238.35 z"
             id="path2792" /><path
             style="fill:#000000;stroke-width:0"
             d="M 1090,243.12 L 1090,243.83 L 1090,244.51 L 1089.9,245.17 L 1089.9,245.81 L 1089.8,246.43 L 1089.8,247.02 L 1089.7,247.6 L 1089.6,248.16 L 1089.4,248.71 L 1089.3,249.24 L 1089.1,249.75 L 1088.9,250.25 L 1088.7,250.74 L 1088.5,251.22 L 1088.2,251.69 L 1088.1,251.93 L 1087.9,252.16 C 1086.9,253.76 1084.7,255.15 1081.9,255.15 L 1081.9,254.18 C 1083.8,254.18 1085.6,253.03 1086.2,251 C 1086.8,249.12 1086.8,246.61 1086.8,243.58 C 1086.8,241 1086.8,238.41 1086.4,236.22 C 1085.7,233.05 1083.3,232.28 1081.9,232.28 L 1081.9,232.28 C 1080.3,232.28 1078.2,233.22 1077.5,236.08 C 1077,238.14 1077,241 1077,243.58 C 1077,246.12 1077,248.77 1077.5,250.69 C 1078.2,253.45 1080.5,254.18 1081.9,254.18 L 1081.9,255.15 C 1073.8,255.15 1073.8,245.63 1073.8,243.12 C 1073.8,240.61 1073.8,231.3 1081.9,231.3 C 1090,231.3 1090,240.61 1090,243.12 z"
             id="path2794" /><path
             style="fill:#000000;stroke-width:0"
             d="M 1165.3,270.24 L 1165.3,270.37 L 1165.3,270.49 L 1165.4,270.6 L 1165.4,270.71 L 1165.4,270.82 L 1165.5,270.91 L 1165.5,271.01 L 1165.5,271.09 L 1165.5,271.18 L 1165.6,271.25 L 1165.6,271.33 L 1165.6,271.39 L 1165.7,271.46 L 1165.7,271.52 L 1165.7,271.57 L 1165.7,271.63 L 1165.8,271.67 L 1165.8,271.72 L 1165.8,271.76 L 1165.9,271.8 L 1165.9,271.83 L 1166,271.87 L 1166,271.9 L 1166,271.92 L 1166.1,271.95 L 1166.1,271.97 L 1166.2,271.99 L 1166.2,272.01 L 1166.3,272.03 L 1166.3,272.05 L 1166.4,272.06 L 1166.4,272.08 C 1166.9,272.18 1168.5,272.18 1169.6,272.18 C 1174.6,272.18 1176.8,271.98 1176.8,268.09 C 1176.8,267.35 1176.6,265.41 1176.4,264.11 C 1176.4,263.91 1176.3,263.31 1176.3,263.16 C 1176.3,262.86 1176.4,262.52 1176.9,262.52 C 1177.4,262.52 1177.5,262.91 1177.6,263.66 L 1179,272.33 C 1179,272.53 1179.1,273.03 1179.1,273.18 C 1179.1,273.72 1178.6,273.72 1177.7,273.72 L 1150.1,273.72 C 1148.9,273.72 1148.8,273.67 1148.5,272.73 L 1145.5,263.96 C 1145.4,263.86 1145.2,263.16 1145.2,263.06 C 1145.2,262.77 1145.4,262.52 1145.8,262.52 C 1146.3,262.52 1146.3,262.77 1146.6,263.56 C 1149.3,271.28 1150.6,272.18 1158,272.18 L 1159.9,272.18 C 1161.3,272.18 1161.3,271.98 1161.3,271.58 C 1161.3,271.28 1161.2,270.68 1161.1,270.54 L 1154.5,243.93 C 1154,242.09 1153.9,241.54 1148.5,241.54 C 1146.7,241.54 1146.4,241.54 1146.4,240.6 C 1146.4,240 1147,240 1147.3,240 L 1164.1,240 C 1164.6,240 1165.2,240 1165.2,241 C 1165.2,241.54 1164.8,241.54 1163.5,241.54 C 1162.2,241.54 1161.6,241.54 1160.3,241.65 C 1158.8,241.79 1158.4,241.94 1158.4,242.74 C 1158.4,242.79 1158.4,243.04 1158.6,243.79 L 1165.3,270.24 z"
             id="path2796" /><path
             style="fill:#000000;stroke-width:0"
             d="M 1190.6,238.35 L 1189.4,238.35 C 1189.3,237.58 1189,235.52 1188.5,235.17 C 1188.2,234.96 1185.6,234.96 1185.1,234.96 L 1178.7,234.96 C 1182.3,238.21 1183.5,239.18 1185.6,240.82 C 1188.2,242.88 1190.6,245.04 1190.6,248.35 C 1190.6,252.57 1186.9,255.15 1182.4,255.15 C 1178.1,255.15 1175.2,252.12 1175.2,248.91 C 1175.2,247.13 1176.7,246.96 1177,246.96 C 1177.9,246.96 1178.9,247.55 1178.9,248.81 C 1178.9,249.43 1178.7,250.66 1176.8,250.66 C 1177.9,253.13 1180.3,253.9 1181.9,253.9 C 1185.4,253.9 1187.2,251.18 1187.2,248.35 C 1187.2,245.32 1185.1,242.91 1183.9,241.66 L 1175.6,233.36 C 1175.2,233.05 1175.2,232.98 1175.2,232 L 1189.6,232 L 1190.6,238.35 z"
             id="path2798" /><path
             style="fill:#000000;stroke-width:0"
             d="M 1204.7,254.18 L 1204.7,254.22 L 1204.7,254.26 L 1204.7,254.3 L 1204.7,254.34 L 1204.7,254.38 L 1204.7,254.42 L 1204.7,254.45 L 1204.7,254.49 L 1204.7,254.52 L 1204.7,254.55 L 1204.7,254.59 L 1204.7,254.62 L 1204.7,254.64 L 1204.7,254.67 L 1204.7,254.7 L 1204.7,254.73 L 1204.6,254.75 L 1204.6,254.77 L 1204.6,254.82 L 1204.6,254.86 L 1204.6,254.9 L 1204.6,254.93 L 1204.6,254.96 L 1204.5,254.99 L 1204.5,255.02 L 1204.5,255.04 L 1204.5,255.06 L 1204.4,255.08 L 1204.4,255.09 L 1204.4,255.1 L 1204.3,255.12 L 1204.3,255.12 L 1204.2,255.13 L 1204.2,255.13 L 1204.2,255.14 L 1204.2,255.14 L 1204.1,255.14 L 1204.1,255.14 L 1204.1,255.14 L 1204,255.15 L 1204,255.15 L 1204,255.15 L 1203.9,255.15 L 1203.9,255.15 L 1203.9,255.15 L 1203.8,255.15 L 1203.8,255.15 L 1203.7,255.15 L 1203.7,255.15 L 1203.6,255.15 C 1201.4,252.96 1198.2,252.92 1196.8,252.92 L 1196.8,251.67 C 1197.6,251.67 1199.9,251.67 1201.9,252.64 L 1201.9,234.86 C 1201.9,233.71 1201.9,233.25 1198.4,233.25 L 1197,233.25 L 1197,232 L 1209.5,232 L 1209.5,233.25 L 1208.2,233.25 C 1204.7,233.25 1204.7,233.71 1204.7,234.86 L 1204.7,254.18 z"
             id="path2800" /><path
             style="fill:#000000;stroke-width:0"
             d="M 1286.3,270.24 L 1286.3,270.37 L 1286.3,270.49 L 1286.4,270.6 L 1286.4,270.71 L 1286.4,270.82 L 1286.5,270.91 L 1286.5,271.01 L 1286.5,271.09 L 1286.5,271.18 L 1286.6,271.25 L 1286.6,271.33 L 1286.6,271.39 L 1286.7,271.46 L 1286.7,271.52 L 1286.7,271.57 L 1286.7,271.63 L 1286.8,271.67 L 1286.8,271.72 L 1286.8,271.76 L 1286.9,271.8 L 1286.9,271.83 L 1287,271.87 L 1287,271.9 L 1287,271.92 L 1287.1,271.95 L 1287.1,271.97 L 1287.2,271.99 L 1287.2,272.01 L 1287.3,272.03 L 1287.3,272.05 L 1287.4,272.06 L 1287.4,272.08 C 1287.9,272.18 1289.5,272.18 1290.6,272.18 C 1295.6,272.18 1297.8,271.98 1297.8,268.09 C 1297.8,267.35 1297.6,265.41 1297.4,264.11 C 1297.4,263.91 1297.3,263.31 1297.3,263.16 C 1297.3,262.86 1297.4,262.52 1297.9,262.52 C 1298.4,262.52 1298.5,262.91 1298.6,263.66 L 1300,272.33 C 1300,272.53 1300.1,273.03 1300.1,273.18 C 1300.1,273.72 1299.6,273.72 1298.7,273.72 L 1271.1,273.72 C 1269.9,273.72 1269.8,273.67 1269.5,272.73 L 1266.5,263.96 C 1266.4,263.86 1266.2,263.16 1266.2,263.06 C 1266.2,262.77 1266.4,262.52 1266.8,262.52 C 1267.3,262.52 1267.3,262.77 1267.6,263.56 C 1270.3,271.28 1271.6,272.18 1279,272.18 L 1280.9,272.18 C 1282.3,272.18 1282.3,271.98 1282.3,271.58 C 1282.3,271.28 1282.2,270.68 1282.1,270.54 L 1275.5,243.93 C 1275,242.09 1274.9,241.54 1269.5,241.54 C 1267.7,241.54 1267.4,241.54 1267.4,240.6 C 1267.4,240 1268,240 1268.3,240 L 1285.1,240 C 1285.6,240 1286.2,240 1286.2,241 C 1286.2,241.54 1285.8,241.54 1284.5,241.54 C 1283.2,241.54 1282.6,241.54 1281.3,241.65 C 1279.8,241.79 1279.4,241.94 1279.4,242.74 C 1279.4,242.79 1279.4,243.04 1279.6,243.79 L 1286.3,270.24 z"
             id="path2802" /><path
             style="fill:#000000;stroke-width:0"
             d="M 1311.6,238.35 L 1310.4,238.35 C 1310.3,237.58 1310,235.52 1309.5,235.17 C 1309.2,234.96 1306.6,234.96 1306.1,234.96 L 1299.7,234.96 C 1303.3,238.21 1304.5,239.18 1306.6,240.82 C 1309.2,242.88 1311.6,245.04 1311.6,248.35 C 1311.6,252.57 1307.9,255.15 1303.4,255.15 C 1299.1,255.15 1296.2,252.12 1296.2,248.91 C 1296.2,247.13 1297.7,246.96 1298,246.96 C 1298.9,246.96 1299.9,247.55 1299.9,248.81 C 1299.9,249.43 1299.7,250.66 1297.8,250.66 C 1298.9,253.13 1301.3,253.9 1302.9,253.9 C 1306.4,253.9 1308.2,251.18 1308.2,248.35 C 1308.2,245.32 1306.1,242.91 1304.9,241.66 L 1296.6,233.36 C 1296.2,233.05 1296.2,232.98 1296.2,232 L 1310.6,232 L 1311.6,238.35 z"
             id="path2804" /><path
             style="fill:#000000;stroke-width:0"
             d="M 1331.6,238.35 L 1330.4,238.35 C 1330.3,237.58 1330,235.52 1329.5,235.17 C 1329.2,234.96 1326.6,234.96 1326.1,234.96 L 1319.7,234.96 C 1323.3,238.21 1324.5,239.18 1326.6,240.82 C 1329.2,242.88 1331.6,245.04 1331.6,248.35 C 1331.6,252.57 1327.9,255.15 1323.4,255.15 C 1319.1,255.15 1316.2,252.12 1316.2,248.91 C 1316.2,247.13 1317.7,246.96 1318,246.96 C 1318.9,246.96 1319.9,247.55 1319.9,248.81 C 1319.9,249.43 1319.7,250.66 1317.8,250.66 C 1318.9,253.13 1321.3,253.9 1322.9,253.9 C 1326.4,253.9 1328.2,251.18 1328.2,248.35 C 1328.2,245.32 1326.1,242.91 1324.9,241.66 L 1316.6,233.36 C 1316.2,233.05 1316.2,232.98 1316.2,232 L 1330.6,232 L 1331.6,238.35 z"
             id="path2806" /><path
             style="fill:#000000;stroke-width:0"
             d="M 1407.3,270.24 L 1407.3,270.37 L 1407.3,270.49 L 1407.4,270.6 L 1407.4,270.71 L 1407.4,270.82 L 1407.5,270.91 L 1407.5,271.01 L 1407.5,271.09 L 1407.5,271.18 L 1407.6,271.25 L 1407.6,271.33 L 1407.6,271.39 L 1407.7,271.46 L 1407.7,271.52 L 1407.7,271.57 L 1407.7,271.63 L 1407.8,271.67 L 1407.8,271.72 L 1407.8,271.76 L 1407.9,271.8 L 1407.9,271.83 L 1408,271.87 L 1408,271.9 L 1408,271.92 L 1408.1,271.95 L 1408.1,271.97 L 1408.2,271.99 L 1408.2,272.01 L 1408.3,272.03 L 1408.3,272.05 L 1408.4,272.06 L 1408.4,272.08 C 1408.9,272.18 1410.5,272.18 1411.6,272.18 C 1416.6,272.18 1418.8,271.98 1418.8,268.09 C 1418.8,267.35 1418.6,265.41 1418.4,264.11 C 1418.4,263.91 1418.3,263.31 1418.3,263.16 C 1418.3,262.86 1418.4,262.52 1418.9,262.52 C 1419.4,262.52 1419.5,262.91 1419.6,263.66 L 1421,272.33 C 1421,272.53 1421.1,273.03 1421.1,273.18 C 1421.1,273.72 1420.6,273.72 1419.7,273.72 L 1392.1,273.72 C 1390.9,273.72 1390.8,273.67 1390.5,272.73 L 1387.5,263.96 C 1387.4,263.86 1387.2,263.16 1387.2,263.06 C 1387.2,262.77 1387.4,262.52 1387.8,262.52 C 1388.3,262.52 1388.3,262.77 1388.6,263.56 C 1391.3,271.28 1392.6,272.18 1400,272.18 L 1401.9,272.18 C 1403.3,272.18 1403.3,271.98 1403.3,271.58 C 1403.3,271.28 1403.2,270.68 1403.1,270.54 L 1396.5,243.93 C 1396,242.09 1395.9,241.54 1390.5,241.54 C 1388.7,241.54 1388.4,241.54 1388.4,240.6 C 1388.4,240 1389,240 1389.3,240 L 1406.1,240 C 1406.6,240 1407.2,240 1407.2,241 C 1407.2,241.54 1406.8,241.54 1405.5,241.54 C 1404.2,241.54 1403.6,241.54 1402.3,241.65 C 1400.8,241.79 1400.4,241.94 1400.4,242.74 C 1400.4,242.79 1400.4,243.04 1400.6,243.79 L 1407.3,270.24 z"
             id="path2808" /><path
             style="fill:#000000;stroke-width:0"
             d="M 1432.6,238.35 L 1431.4,238.35 C 1431.3,237.58 1431,235.52 1430.5,235.17 C 1430.2,234.96 1427.6,234.96 1427.1,234.96 L 1420.7,234.96 C 1424.3,238.21 1425.5,239.18 1427.6,240.82 C 1430.2,242.88 1432.6,245.04 1432.6,248.35 C 1432.6,252.57 1428.9,255.15 1424.4,255.15 C 1420.1,255.15 1417.2,252.12 1417.2,248.91 C 1417.2,247.13 1418.7,246.96 1419,246.96 C 1419.9,246.96 1420.9,247.55 1420.9,248.81 C 1420.9,249.43 1420.7,250.66 1418.8,250.66 C 1419.9,253.13 1422.3,253.9 1423.9,253.9 C 1427.4,253.9 1429.2,251.18 1429.2,248.35 C 1429.2,245.32 1427.1,242.91 1425.9,241.66 L 1417.6,233.36 C 1417.2,233.05 1417.2,232.98 1417.2,232 L 1431.6,232 L 1432.6,238.35 z"
             id="path2810" /><path
             style="fill:#000000;stroke-width:0"
             d="M 1444.5,243.65 L 1444.8,243.64 L 1445,243.62 L 1445.3,243.6 L 1445.5,243.56 L 1445.7,243.51 L 1446,243.45 L 1446.2,243.38 L 1446.4,243.29 L 1446.6,243.2 L 1446.8,243.09 L 1447,242.98 L 1447.2,242.85 L 1447.4,242.72 L 1447.5,242.57 L 1447.7,242.41 L 1447.9,242.24 L 1448,242.06 L 1448.2,241.86 L 1448.3,241.66 L 1448.4,241.45 L 1448.5,241.22 L 1448.7,240.99 L 1448.8,240.74 L 1448.8,240.48 L 1448.9,240.21 L 1449,239.93 L 1449.1,239.64 L 1449.1,239.34 L 1449.1,239.03 L 1449.2,238.71 L 1449.2,238.38 L 1449.2,238.03 C 1449.2,233.71 1446.7,232.42 1444.7,232.42 C 1443.3,232.42 1440.2,232.8 1438.7,234.86 C 1440.4,234.93 1440.8,236.08 1440.8,236.81 C 1440.8,237.93 1439.9,238.73 1438.8,238.73 C 1437.9,238.73 1436.9,238.14 1436.9,236.71 C 1436.9,233.43 1440.5,231.3 1444.7,231.3 C 1449.6,231.3 1452.9,234.55 1452.9,238.03 C 1452.9,240.75 1450.7,243.47 1446.9,244.27 C 1450.5,245.6 1451.8,248.21 1451.8,250.34 C 1451.8,253.1 1448.7,255.15 1444.8,255.15 C 1440.9,255.15 1438,253.27 1438,250.48 C 1438,249.3 1438.7,248.63 1439.8,248.63 C 1440.9,248.63 1441.6,249.43 1441.6,250.41 C 1441.6,251.42 1440.9,252.16 1439.8,252.22 C 1441,253.76 1443.4,254.14 1444.7,254.14 C 1446.3,254.14 1448.5,253.38 1448.5,250.34 C 1448.5,248.88 1448,247.27 1447.1,246.19 C 1445.9,244.87 1444.9,244.8 1443.2,244.69 C 1442.3,244.62 1442.2,244.62 1442.1,244.59 C 1442,244.59 1441.7,244.52 1441.7,244.13 C 1441.7,243.65 1442,243.65 1442.6,243.65 L 1444.5,243.65 z"
             id="path2812" /><path
             style="fill:#000000;stroke-width:0"
             d="M 1044.3,210.24 L 1044.3,210.37 L 1044.3,210.49 L 1044.4,210.6 L 1044.4,210.71 L 1044.4,210.82 L 1044.5,210.91 L 1044.5,211.01 L 1044.5,211.09 L 1044.5,211.18 L 1044.6,211.25 L 1044.6,211.33 L 1044.6,211.39 L 1044.7,211.46 L 1044.7,211.52 L 1044.7,211.57 L 1044.7,211.63 L 1044.8,211.67 L 1044.8,211.72 L 1044.8,211.76 L 1044.9,211.8 L 1044.9,211.83 L 1045,211.87 L 1045,211.9 L 1045,211.92 L 1045.1,211.95 L 1045.1,211.97 L 1045.2,211.99 L 1045.2,212.01 L 1045.3,212.03 L 1045.3,212.05 L 1045.4,212.06 L 1045.4,212.08 C 1045.9,212.18 1047.5,212.18 1048.6,212.18 C 1053.6,212.18 1055.8,211.98 1055.8,208.09 C 1055.8,207.35 1055.6,205.41 1055.4,204.11 C 1055.4,203.91 1055.3,203.31 1055.3,203.16 C 1055.3,202.86 1055.4,202.52 1055.9,202.52 C 1056.4,202.52 1056.5,202.91 1056.6,203.66 L 1058,212.33 C 1058,212.53 1058.1,213.03 1058.1,213.18 C 1058.1,213.72 1057.6,213.72 1056.7,213.72 L 1029.1,213.72 C 1027.9,213.72 1027.8,213.67 1027.5,212.73 L 1024.5,203.96 C 1024.4,203.86 1024.2,203.16 1024.2,203.06 C 1024.2,202.77 1024.4,202.52 1024.8,202.52 C 1025.3,202.52 1025.3,202.77 1025.6,203.56 C 1028.3,211.28 1029.6,212.18 1037,212.18 L 1038.9,212.18 C 1040.3,212.18 1040.3,211.98 1040.3,211.58 C 1040.3,211.28 1040.2,210.68 1040.1,210.54 L 1033.5,183.93 C 1033,182.09 1032.9,181.54 1027.5,181.54 C 1025.7,181.54 1025.4,181.54 1025.4,180.6 C 1025.4,180 1026,180 1026.3,180 L 1043.1,180 C 1043.6,180 1044.2,180 1044.2,181 C 1044.2,181.54 1043.8,181.54 1042.5,181.54 C 1041.2,181.54 1040.6,181.54 1039.3,181.65 C 1037.8,181.79 1037.4,181.94 1037.4,182.74 C 1037.4,182.79 1037.4,183.04 1037.6,183.79 L 1044.3,210.24 z"
             id="path2814" /><path
             style="fill:#000000;stroke-width:0"
             d="M 1061.5,184.65 L 1061.8,184.64 L 1062,184.62 L 1062.3,184.6 L 1062.5,184.56 L 1062.7,184.51 L 1063,184.45 L 1063.2,184.38 L 1063.4,184.29 L 1063.6,184.2 L 1063.8,184.09 L 1064,183.98 L 1064.2,183.85 L 1064.4,183.72 L 1064.5,183.57 L 1064.7,183.41 L 1064.9,183.24 L 1065,183.06 L 1065.2,182.86 L 1065.3,182.66 L 1065.4,182.45 L 1065.5,182.22 L 1065.7,181.99 L 1065.8,181.74 L 1065.8,181.48 L 1065.9,181.21 L 1066,180.93 L 1066.1,180.64 L 1066.1,180.34 L 1066.1,180.03 L 1066.2,179.71 L 1066.2,179.38 L 1066.2,179.03 C 1066.2,174.71 1063.7,173.42 1061.7,173.42 C 1060.3,173.42 1057.2,173.8 1055.7,175.86 C 1057.4,175.93 1057.8,177.08 1057.8,177.81 C 1057.8,178.93 1056.9,179.73 1055.8,179.73 C 1054.9,179.73 1053.9,179.14 1053.9,177.71 C 1053.9,174.43 1057.5,172.3 1061.7,172.3 C 1066.6,172.3 1069.9,175.55 1069.9,179.03 C 1069.9,181.75 1067.7,184.47 1063.9,185.27 C 1067.5,186.6 1068.8,189.21 1068.8,191.34 C 1068.8,194.1 1065.7,196.15 1061.8,196.15 C 1057.9,196.15 1055,194.27 1055,191.48 C 1055,190.3 1055.7,189.63 1056.8,189.63 C 1057.9,189.63 1058.6,190.43 1058.6,191.41 C 1058.6,192.42 1057.9,193.16 1056.8,193.22 C 1058,194.76 1060.4,195.14 1061.7,195.14 C 1063.3,195.14 1065.5,194.38 1065.5,191.34 C 1065.5,189.88 1065,188.27 1064.1,187.19 C 1062.9,185.87 1061.9,185.8 1060.2,185.69 C 1059.3,185.62 1059.2,185.62 1059.1,185.59 C 1059,185.59 1058.7,185.52 1058.7,185.13 C 1058.7,184.65 1059,184.65 1059.6,184.65 L 1061.5,184.65 z"
             id="path2816" /><path
             style="fill:#000000;stroke-width:0"
             d="M 1090,184.12 L 1090,184.83 L 1090,185.51 L 1089.9,186.17 L 1089.9,186.81 L 1089.8,187.43 L 1089.8,188.02 L 1089.7,188.6 L 1089.6,189.16 L 1089.4,189.71 L 1089.3,190.24 L 1089.1,190.75 L 1088.9,191.25 L 1088.7,191.74 L 1088.5,192.22 L 1088.2,192.69 L 1088.1,192.93 L 1087.9,193.16 C 1086.9,194.76 1084.7,196.15 1081.9,196.15 L 1081.9,195.18 C 1083.8,195.18 1085.6,194.03 1086.2,192 C 1086.8,190.12 1086.8,187.61 1086.8,184.58 C 1086.8,182 1086.8,179.41 1086.4,177.22 C 1085.7,174.05 1083.3,173.28 1081.9,173.28 L 1081.9,173.28 C 1080.3,173.28 1078.2,174.22 1077.5,177.08 C 1077,179.14 1077,182 1077,184.58 C 1077,187.12 1077,189.77 1077.5,191.69 C 1078.2,194.45 1080.5,195.18 1081.9,195.18 L 1081.9,196.15 C 1073.8,196.15 1073.8,186.63 1073.8,184.12 C 1073.8,181.61 1073.8,172.3 1081.9,172.3 C 1090,172.3 1090,181.61 1090,184.12 z"
             id="path2818" /><path
             style="fill:#000000;stroke-width:0"
             d="M 1165.3,210.24 L 1165.3,210.37 L 1165.3,210.49 L 1165.4,210.6 L 1165.4,210.71 L 1165.4,210.82 L 1165.5,210.91 L 1165.5,211.01 L 1165.5,211.09 L 1165.5,211.18 L 1165.6,211.25 L 1165.6,211.33 L 1165.6,211.39 L 1165.7,211.46 L 1165.7,211.52 L 1165.7,211.57 L 1165.7,211.63 L 1165.8,211.67 L 1165.8,211.72 L 1165.8,211.76 L 1165.9,211.8 L 1165.9,211.83 L 1166,211.87 L 1166,211.9 L 1166,211.92 L 1166.1,211.95 L 1166.1,211.97 L 1166.2,211.99 L 1166.2,212.01 L 1166.3,212.03 L 1166.3,212.05 L 1166.4,212.06 L 1166.4,212.08 C 1166.9,212.18 1168.5,212.18 1169.6,212.18 C 1174.6,212.18 1176.8,211.98 1176.8,208.09 C 1176.8,207.35 1176.6,205.41 1176.4,204.11 C 1176.4,203.91 1176.3,203.31 1176.3,203.16 C 1176.3,202.86 1176.4,202.52 1176.9,202.52 C 1177.4,202.52 1177.5,202.91 1177.6,203.66 L 1179,212.33 C 1179,212.53 1179.1,213.03 1179.1,213.18 C 1179.1,213.72 1178.6,213.72 1177.7,213.72 L 1150.1,213.72 C 1148.9,213.72 1148.8,213.67 1148.5,212.73 L 1145.5,203.96 C 1145.4,203.86 1145.2,203.16 1145.2,203.06 C 1145.2,202.77 1145.4,202.52 1145.8,202.52 C 1146.3,202.52 1146.3,202.77 1146.6,203.56 C 1149.3,211.28 1150.6,212.18 1158,212.18 L 1159.9,212.18 C 1161.3,212.18 1161.3,211.98 1161.3,211.58 C 1161.3,211.28 1161.2,210.68 1161.1,210.54 L 1154.5,183.93 C 1154,182.09 1153.9,181.54 1148.5,181.54 C 1146.7,181.54 1146.4,181.54 1146.4,180.6 C 1146.4,180 1147,180 1147.3,180 L 1164.1,180 C 1164.6,180 1165.2,180 1165.2,181 C 1165.2,181.54 1164.8,181.54 1163.5,181.54 C 1162.2,181.54 1161.6,181.54 1160.3,181.65 C 1158.8,181.79 1158.4,181.94 1158.4,182.74 C 1158.4,182.79 1158.4,183.04 1158.6,183.79 L 1165.3,210.24 z"
             id="path2820" /><path
             style="fill:#000000;stroke-width:0"
             d="M 1182.5,184.65 L 1182.8,184.64 L 1183,184.62 L 1183.3,184.6 L 1183.5,184.56 L 1183.7,184.51 L 1184,184.45 L 1184.2,184.38 L 1184.4,184.29 L 1184.6,184.2 L 1184.8,184.09 L 1185,183.98 L 1185.2,183.85 L 1185.4,183.72 L 1185.5,183.57 L 1185.7,183.41 L 1185.9,183.24 L 1186,183.06 L 1186.2,182.86 L 1186.3,182.66 L 1186.4,182.45 L 1186.5,182.22 L 1186.7,181.99 L 1186.8,181.74 L 1186.8,181.48 L 1186.9,181.21 L 1187,180.93 L 1187.1,180.64 L 1187.1,180.34 L 1187.1,180.03 L 1187.2,179.71 L 1187.2,179.38 L 1187.2,179.03 C 1187.2,174.71 1184.7,173.42 1182.7,173.42 C 1181.3,173.42 1178.2,173.8 1176.7,175.86 C 1178.4,175.93 1178.8,177.08 1178.8,177.81 C 1178.8,178.93 1177.9,179.73 1176.8,179.73 C 1175.9,179.73 1174.9,179.14 1174.9,177.71 C 1174.9,174.43 1178.5,172.3 1182.7,172.3 C 1187.6,172.3 1190.9,175.55 1190.9,179.03 C 1190.9,181.75 1188.7,184.47 1184.9,185.27 C 1188.5,186.6 1189.8,189.21 1189.8,191.34 C 1189.8,194.1 1186.7,196.15 1182.8,196.15 C 1178.9,196.15 1176,194.27 1176,191.48 C 1176,190.3 1176.7,189.63 1177.8,189.63 C 1178.9,189.63 1179.6,190.43 1179.6,191.41 C 1179.6,192.42 1178.9,193.16 1177.8,193.22 C 1179,194.76 1181.4,195.14 1182.7,195.14 C 1184.3,195.14 1186.5,194.38 1186.5,191.34 C 1186.5,189.88 1186,188.27 1185.1,187.19 C 1183.9,185.87 1182.9,185.8 1181.2,185.69 C 1180.3,185.62 1180.2,185.62 1180.1,185.59 C 1180,185.59 1179.7,185.52 1179.7,185.13 C 1179.7,184.65 1180,184.65 1180.6,184.65 L 1182.5,184.65 z"
             id="path2822" /><path
             style="fill:#000000;stroke-width:0"
             d="M 1204.7,195.18 L 1204.7,195.22 L 1204.7,195.26 L 1204.7,195.3 L 1204.7,195.34 L 1204.7,195.38 L 1204.7,195.42 L 1204.7,195.45 L 1204.7,195.49 L 1204.7,195.52 L 1204.7,195.55 L 1204.7,195.59 L 1204.7,195.62 L 1204.7,195.64 L 1204.7,195.67 L 1204.7,195.7 L 1204.7,195.73 L 1204.6,195.75 L 1204.6,195.77 L 1204.6,195.82 L 1204.6,195.86 L 1204.6,195.9 L 1204.6,195.93 L 1204.6,195.96 L 1204.5,195.99 L 1204.5,196.02 L 1204.5,196.04 L 1204.5,196.06 L 1204.4,196.08 L 1204.4,196.09 L 1204.4,196.1 L 1204.3,196.12 L 1204.3,196.12 L 1204.2,196.13 L 1204.2,196.13 L 1204.2,196.14 L 1204.2,196.14 L 1204.1,196.14 L 1204.1,196.14 L 1204.1,196.14 L 1204,196.15 L 1204,196.15 L 1204,196.15 L 1203.9,196.15 L 1203.9,196.15 L 1203.9,196.15 L 1203.8,196.15 L 1203.8,196.15 L 1203.7,196.15 L 1203.7,196.15 L 1203.6,196.15 C 1201.4,193.96 1198.2,193.92 1196.8,193.92 L 1196.8,192.67 C 1197.6,192.67 1199.9,192.67 1201.9,193.64 L 1201.9,175.86 C 1201.9,174.71 1201.9,174.25 1198.4,174.25 L 1197,174.25 L 1197,173 L 1209.5,173 L 1209.5,174.25 L 1208.2,174.25 C 1204.7,174.25 1204.7,174.71 1204.7,175.86 L 1204.7,195.18 z"
             id="path2824" /><path
             style="fill:#000000;stroke-width:0"
             d="M 1286.3,210.24 L 1286.3,210.37 L 1286.3,210.49 L 1286.4,210.6 L 1286.4,210.71 L 1286.4,210.82 L 1286.5,210.91 L 1286.5,211.01 L 1286.5,211.09 L 1286.5,211.18 L 1286.6,211.25 L 1286.6,211.33 L 1286.6,211.39 L 1286.7,211.46 L 1286.7,211.52 L 1286.7,211.57 L 1286.7,211.63 L 1286.8,211.67 L 1286.8,211.72 L 1286.8,211.76 L 1286.9,211.8 L 1286.9,211.83 L 1287,211.87 L 1287,211.9 L 1287,211.92 L 1287.1,211.95 L 1287.1,211.97 L 1287.2,211.99 L 1287.2,212.01 L 1287.3,212.03 L 1287.3,212.05 L 1287.4,212.06 L 1287.4,212.08 C 1287.9,212.18 1289.5,212.18 1290.6,212.18 C 1295.6,212.18 1297.8,211.98 1297.8,208.09 C 1297.8,207.35 1297.6,205.41 1297.4,204.11 C 1297.4,203.91 1297.3,203.31 1297.3,203.16 C 1297.3,202.86 1297.4,202.52 1297.9,202.52 C 1298.4,202.52 1298.5,202.91 1298.6,203.66 L 1300,212.33 C 1300,212.53 1300.1,213.03 1300.1,213.18 C 1300.1,213.72 1299.6,213.72 1298.7,213.72 L 1271.1,213.72 C 1269.9,213.72 1269.8,213.67 1269.5,212.73 L 1266.5,203.96 C 1266.4,203.86 1266.2,203.16 1266.2,203.06 C 1266.2,202.77 1266.4,202.52 1266.8,202.52 C 1267.3,202.52 1267.3,202.77 1267.6,203.56 C 1270.3,211.28 1271.6,212.18 1279,212.18 L 1280.9,212.18 C 1282.3,212.18 1282.3,211.98 1282.3,211.58 C 1282.3,211.28 1282.2,210.68 1282.1,210.54 L 1275.5,183.93 C 1275,182.09 1274.9,181.54 1269.5,181.54 C 1267.7,181.54 1267.4,181.54 1267.4,180.6 C 1267.4,180 1268,180 1268.3,180 L 1285.1,180 C 1285.6,180 1286.2,180 1286.2,181 C 1286.2,181.54 1285.8,181.54 1284.5,181.54 C 1283.2,181.54 1282.6,181.54 1281.3,181.65 C 1279.8,181.79 1279.4,181.94 1279.4,182.74 C 1279.4,182.79 1279.4,183.04 1279.6,183.79 L 1286.3,210.24 z"
             id="path2826" /><path
             style="fill:#000000;stroke-width:0"
             d="M 1303.5,184.65 L 1303.8,184.64 L 1304,184.62 L 1304.3,184.6 L 1304.5,184.56 L 1304.7,184.51 L 1305,184.45 L 1305.2,184.38 L 1305.4,184.29 L 1305.6,184.2 L 1305.8,184.09 L 1306,183.98 L 1306.2,183.85 L 1306.4,183.72 L 1306.5,183.57 L 1306.7,183.41 L 1306.9,183.24 L 1307,183.06 L 1307.2,182.86 L 1307.3,182.66 L 1307.4,182.45 L 1307.5,182.22 L 1307.7,181.99 L 1307.8,181.74 L 1307.8,181.48 L 1307.9,181.21 L 1308,180.93 L 1308.1,180.64 L 1308.1,180.34 L 1308.1,180.03 L 1308.2,179.71 L 1308.2,179.38 L 1308.2,179.03 C 1308.2,174.71 1305.7,173.42 1303.7,173.42 C 1302.3,173.42 1299.2,173.8 1297.7,175.86 C 1299.4,175.93 1299.8,177.08 1299.8,177.81 C 1299.8,178.93 1298.9,179.73 1297.8,179.73 C 1296.9,179.73 1295.9,179.14 1295.9,177.71 C 1295.9,174.43 1299.5,172.3 1303.7,172.3 C 1308.6,172.3 1311.9,175.55 1311.9,179.03 C 1311.9,181.75 1309.7,184.47 1305.9,185.27 C 1309.5,186.6 1310.8,189.21 1310.8,191.34 C 1310.8,194.1 1307.7,196.15 1303.8,196.15 C 1299.9,196.15 1297,194.27 1297,191.48 C 1297,190.3 1297.7,189.63 1298.8,189.63 C 1299.9,189.63 1300.6,190.43 1300.6,191.41 C 1300.6,192.42 1299.9,193.16 1298.8,193.22 C 1300,194.76 1302.4,195.14 1303.7,195.14 C 1305.3,195.14 1307.5,194.38 1307.5,191.34 C 1307.5,189.88 1307,188.27 1306.1,187.19 C 1304.9,185.87 1303.9,185.8 1302.2,185.69 C 1301.3,185.62 1301.2,185.62 1301.1,185.59 C 1301,185.59 1300.7,185.52 1300.7,185.13 C 1300.7,184.65 1301,184.65 1301.6,184.65 L 1303.5,184.65 z"
             id="path2828" /><path
             style="fill:#000000;stroke-width:0"
             d="M 1331.6,179.35 L 1330.4,179.35 C 1330.3,178.58 1330,176.52 1329.5,176.17 C 1329.2,175.96 1326.6,175.96 1326.1,175.96 L 1319.7,175.96 C 1323.3,179.21 1324.5,180.18 1326.6,181.82 C 1329.2,183.88 1331.6,186.04 1331.6,189.35 C 1331.6,193.57 1327.9,196.15 1323.4,196.15 C 1319.1,196.15 1316.2,193.12 1316.2,189.91 C 1316.2,188.13 1317.7,187.96 1318,187.96 C 1318.9,187.96 1319.9,188.55 1319.9,189.81 C 1319.9,190.43 1319.7,191.66 1317.8,191.66 C 1318.9,194.13 1321.3,194.9 1322.9,194.9 C 1326.4,194.9 1328.2,192.18 1328.2,189.35 C 1328.2,186.32 1326.1,183.91 1324.9,182.66 L 1316.6,174.36 C 1316.2,174.05 1316.2,173.98 1316.2,173 L 1330.6,173 L 1331.6,179.35 z"
             id="path2830" /><path
             style="fill:#000000;stroke-width:0"
             d="M 1407.3,210.24 L 1407.3,210.37 L 1407.3,210.49 L 1407.4,210.6 L 1407.4,210.71 L 1407.4,210.82 L 1407.5,210.91 L 1407.5,211.01 L 1407.5,211.09 L 1407.5,211.18 L 1407.6,211.25 L 1407.6,211.33 L 1407.6,211.39 L 1407.7,211.46 L 1407.7,211.52 L 1407.7,211.57 L 1407.7,211.63 L 1407.8,211.67 L 1407.8,211.72 L 1407.8,211.76 L 1407.9,211.8 L 1407.9,211.83 L 1408,211.87 L 1408,211.9 L 1408,211.92 L 1408.1,211.95 L 1408.1,211.97 L 1408.2,211.99 L 1408.2,212.01 L 1408.3,212.03 L 1408.3,212.05 L 1408.4,212.06 L 1408.4,212.08 C 1408.9,212.18 1410.5,212.18 1411.6,212.18 C 1416.6,212.18 1418.8,211.98 1418.8,208.09 C 1418.8,207.35 1418.6,205.41 1418.4,204.11 C 1418.4,203.91 1418.3,203.31 1418.3,203.16 C 1418.3,202.86 1418.4,202.52 1418.9,202.52 C 1419.4,202.52 1419.5,202.91 1419.6,203.66 L 1421,212.33 C 1421,212.53 1421.1,213.03 1421.1,213.18 C 1421.1,213.72 1420.6,213.72 1419.7,213.72 L 1392.1,213.72 C 1390.9,213.72 1390.8,213.67 1390.5,212.73 L 1387.5,203.96 C 1387.4,203.86 1387.2,203.16 1387.2,203.06 C 1387.2,202.77 1387.4,202.52 1387.8,202.52 C 1388.3,202.52 1388.3,202.77 1388.6,203.56 C 1391.3,211.28 1392.6,212.18 1400,212.18 L 1401.9,212.18 C 1403.3,212.18 1403.3,211.98 1403.3,211.58 C 1403.3,211.28 1403.2,210.68 1403.1,210.54 L 1396.5,183.93 C 1396,182.09 1395.9,181.54 1390.5,181.54 C 1388.7,181.54 1388.4,181.54 1388.4,180.6 C 1388.4,180 1389,180 1389.3,180 L 1406.1,180 C 1406.6,180 1407.2,180 1407.2,181 C 1407.2,181.54 1406.8,181.54 1405.5,181.54 C 1404.2,181.54 1403.6,181.54 1402.3,181.65 C 1400.8,181.79 1400.4,181.94 1400.4,182.74 C 1400.4,182.79 1400.4,183.04 1400.6,183.79 L 1407.3,210.24 z"
             id="path2832" /><path
             style="fill:#000000;stroke-width:0"
             d="M 1424.5,184.65 L 1424.8,184.64 L 1425,184.62 L 1425.3,184.6 L 1425.5,184.56 L 1425.7,184.51 L 1426,184.45 L 1426.2,184.38 L 1426.4,184.29 L 1426.6,184.2 L 1426.8,184.09 L 1427,183.98 L 1427.2,183.85 L 1427.4,183.72 L 1427.5,183.57 L 1427.7,183.41 L 1427.9,183.24 L 1428,183.06 L 1428.2,182.86 L 1428.3,182.66 L 1428.4,182.45 L 1428.5,182.22 L 1428.7,181.99 L 1428.8,181.74 L 1428.8,181.48 L 1428.9,181.21 L 1429,180.93 L 1429.1,180.64 L 1429.1,180.34 L 1429.1,180.03 L 1429.2,179.71 L 1429.2,179.38 L 1429.2,179.03 C 1429.2,174.71 1426.7,173.42 1424.7,173.42 C 1423.3,173.42 1420.2,173.8 1418.7,175.86 C 1420.4,175.93 1420.8,177.08 1420.8,177.81 C 1420.8,178.93 1419.9,179.73 1418.8,179.73 C 1417.9,179.73 1416.9,179.14 1416.9,177.71 C 1416.9,174.43 1420.5,172.3 1424.7,172.3 C 1429.6,172.3 1432.9,175.55 1432.9,179.03 C 1432.9,181.75 1430.7,184.47 1426.9,185.27 C 1430.5,186.6 1431.8,189.21 1431.8,191.34 C 1431.8,194.1 1428.7,196.15 1424.8,196.15 C 1420.9,196.15 1418,194.27 1418,191.48 C 1418,190.3 1418.7,189.63 1419.8,189.63 C 1420.9,189.63 1421.6,190.43 1421.6,191.41 C 1421.6,192.42 1420.9,193.16 1419.8,193.22 C 1421,194.76 1423.4,195.14 1424.7,195.14 C 1426.3,195.14 1428.5,194.38 1428.5,191.34 C 1428.5,189.88 1428,188.27 1427.1,187.19 C 1425.9,185.87 1424.9,185.8 1423.2,185.69 C 1422.3,185.62 1422.2,185.62 1422.1,185.59 C 1422,185.59 1421.7,185.52 1421.7,185.13 C 1421.7,184.65 1422,184.65 1422.6,184.65 L 1424.5,184.65 z"
             id="path2834" /><path
             style="fill:#000000;stroke-width:0"
             d="M 1444.5,184.65 L 1444.8,184.64 L 1445,184.62 L 1445.3,184.6 L 1445.5,184.56 L 1445.7,184.51 L 1446,184.45 L 1446.2,184.38 L 1446.4,184.29 L 1446.6,184.2 L 1446.8,184.09 L 1447,183.98 L 1447.2,183.85 L 1447.4,183.72 L 1447.5,183.57 L 1447.7,183.41 L 1447.9,183.24 L 1448,183.06 L 1448.2,182.86 L 1448.3,182.66 L 1448.4,182.45 L 1448.5,182.22 L 1448.7,181.99 L 1448.8,181.74 L 1448.8,181.48 L 1448.9,181.21 L 1449,180.93 L 1449.1,180.64 L 1449.1,180.34 L 1449.1,180.03 L 1449.2,179.71 L 1449.2,179.38 L 1449.2,179.03 C 1449.2,174.71 1446.7,173.42 1444.7,173.42 C 1443.3,173.42 1440.2,173.8 1438.7,175.86 C 1440.4,175.93 1440.8,177.08 1440.8,177.81 C 1440.8,178.93 1439.9,179.73 1438.8,179.73 C 1437.9,179.73 1436.9,179.14 1436.9,177.71 C 1436.9,174.43 1440.5,172.3 1444.7,172.3 C 1449.6,172.3 1452.9,175.55 1452.9,179.03 C 1452.9,181.75 1450.7,184.47 1446.9,185.27 C 1450.5,186.6 1451.8,189.21 1451.8,191.34 C 1451.8,194.1 1448.7,196.15 1444.8,196.15 C 1440.9,196.15 1438,194.27 1438,191.48 C 1438,190.3 1438.7,189.63 1439.8,189.63 C 1440.9,189.63 1441.6,190.43 1441.6,191.41 C 1441.6,192.42 1440.9,193.16 1439.8,193.22 C 1441,194.76 1443.4,195.14 1444.7,195.14 C 1446.3,195.14 1448.5,194.38 1448.5,191.34 C 1448.5,189.88 1448,188.27 1447.1,187.19 C 1445.9,185.87 1444.9,185.8 1443.2,185.69 C 1442.3,185.62 1442.2,185.62 1442.1,185.59 C 1442,185.59 1441.7,185.52 1441.7,185.13 C 1441.7,184.65 1442,184.65 1442.6,184.65 L 1444.5,184.65 z"
             id="path2836" /><polygon
             style="fill:#000000;stroke-width:0"
             points="1495.5,311.33 1498.9,311.33 1498.9,400.94 1482.3,400.94 1482.3,397.5 1495.5,397.5 1495.5,311.33 "
             id="polygon2838" /><polygon
             style="fill:#000000;stroke-width:0"
             points="1498.9,312.05 1495.5,312.05 1495.5,282.06 1498.9,282.06 1498.9,312.05 "
             id="polygon2840" /><polygon
             style="fill:#000000;stroke-width:0"
             points="1498.9,282.05 1495.5,282.05 1495.5,252.06 1498.9,252.06 1498.9,282.05 "
             id="polygon2842" /><polygon
             style="fill:#000000;stroke-width:0"
             points="1495.5,165.82 1482.3,165.82 1482.3,162.38 1498.9,162.38 1498.9,251.99 1495.5,251.99 1495.5,165.82 "
             id="polygon2844" /></g>      </g>
    </g>
  </g>
</svg>
