<?xml version='1.0' encoding='utf-8'?>
<svg xmlns:xlink="http://www.w3.org/1999/xlink" xmlns="http://www.w3.org/2000/svg" version="1.1" baseProfile="full" width="320" height="300">
  <title>VFPt_Earths_Magnetic_Field_Confusion</title>
  <desc>VFPt_Earths_Magnetic_Field_Confusion
created with VectorFieldPlot 1.3
http://commons.wikimedia.org/wiki/User:Geek3/VectorFieldPlot

about: http://commons.wikimedia.org/wiki/File:VFPt_Earths_Magnetic_Field_Confusion.svg
rights: GNU Free Documentation license,
        Creative Commons Attribution ShareAlike license
  </desc>
  <defs>
    <path id="arrow1" stroke="none" fill="#000000" transform="scale(0.0666666666667)" d="M 0.3,0 L -2.2,2.25 L 3.8,0 L -2.2,-2.25 L 0.3,0 Z"/>
  </defs>
  <rect id="background" x="0" y="0" width="320" height="300" fill="#ffffff"/>
  <g id="image" transform="translate(160.0,150.0) scale(15.0,-15.0)">
    <g id="symbols1">
      <circle cx="0" style="fill:#add8e6; stroke:#0000ff; stroke-width:0.066667" r="6" cy="0"/>
    </g>
    <g id="fieldlines" fill="none" stroke="#000000" stroke-width="0.133333333333" stroke-linejoin="round" stroke-linecap="round">
      <g id="fieldline1">
        <path d="M 0.8543,0.3109 L 0.9337,0.0958 L 1.0105,-0.1059 L 1.0817,-0.2872 L 1.1466,-0.4469 L 1.2056,-0.5867 L 1.2596,-0.7093 L 1.3093,-0.8172 L 1.3556,-0.9126 L 1.3991,-0.9975 L 1.4403,-1.0733 L 1.4796,-1.1412 L 1.5614,-0.9570 L 1.6193,-0.8245 L 1.6609,-0.7236 L 1.6956,-0.6333 L 1.7253,-0.5495 L 1.7509,-0.4698 L 1.7729,-0.3933 L 1.7917,-0.3192 L 1.8074,-0.2470 L 1.8203,-0.1766 L 1.8304,-0.1075 L 1.8378,-0.0398 L 1.8425,0.0267 L 1.8447,0.0922 L 1.8444,0.1565 L 1.8417,0.2200 L 1.8364,0.2825 L 1.8288,0.3440 L 1.8187,0.4048 L 1.8063,0.4646 L 1.7915,0.5234 L 1.7744,0.5816 L 1.7549,0.6388 L 1.7331,0.6951 L 1.7088,0.7506 L 1.6823,0.8053 L 1.6534,0.8591 L 1.6220,0.9120 L 1.5883,0.9641 L 1.5522,1.0153 L 1.5135,1.0657 L 1.4723,1.1152 L 1.4286,1.1640 L 1.3821,1.2119 L 1.3329,1.2590 L 1.2808,1.3054 L 1.2257,1.3511 L 1.1672,1.3963 L 1.1052,1.4409 L 1.0391,1.4854 L 0.9684,1.5300 L 0.8917,1.5751 L 0.8072,1.6220 L 0.7103,1.6725 L 0.5808,1.7368 L 0.3998,1.8253 L 0.4134,1.7481 L 0.4306,1.6638 L 0.4518,1.5708 L 0.4777,1.4678 L 0.5089,1.3533 L 0.5462,1.2249 L 0.5909,1.0798 L 0.6439,0.9156 L 0.7059,0.7308 L 0.7768,0.5268 L 0.8543,0.3109 Z"/>
        <g id="arrows1">
          <use xlink:href="#arrow1" transform="translate(1.7368,0.6300) rotate(115.63) scale(2.4)"/>
        </g>
      </g>
      <g id="fieldline2">
        <path d="M 0.6834,0.2487 L 0.7737,0.0044 L 0.8590,-0.2196 L 0.9358,-0.4147 L 1.0041,-0.5817 L 1.0649,-0.7243 L 1.1198,-0.8469 L 1.1698,-0.9528 L 1.2159,-1.0450 L 1.2589,-1.1255 L 1.2993,-1.1962 L 1.3376,-1.2582 L 1.3739,-1.3125 L 1.4085,-1.3600 L 1.4415,-1.4012 L 1.4729,-1.4366 L 1.5026,-1.4664 L 1.5304,-1.4910 L 1.5561,-1.5106 L 1.5791,-1.5252 L 1.5987,-1.5350 L 1.6137,-1.5403 L 1.6234,-1.5416 L 1.6343,-1.5397 L 1.6682,-1.5292 L 1.7339,-1.5052 L 1.8204,-1.4708 L 1.9136,-1.4309 L 2.0074,-1.3879 L 2.0997,-1.3429 L 2.1896,-1.2962 L 2.2769,-1.2481 L 2.3613,-1.1987 L 2.4430,-1.1480 L 2.5218,-1.0961 L 2.5978,-1.0431 L 2.6710,-0.9890 L 2.7415,-0.9338 L 2.8093,-0.8775 L 2.8743,-0.8202 L 2.9366,-0.7620 L 2.9963,-0.7028 L 3.0532,-0.6428 L 3.1075,-0.5819 L 3.1591,-0.5203 L 3.2080,-0.4579 L 3.2543,-0.3949 L 3.2979,-0.3313 L 3.3389,-0.2671 L 3.3771,-0.2024 L 3.4128,-0.1372 L 3.4457,-0.0717 L 3.4760,-0.0059 L 3.5037,0.0602 L 3.5287,0.1265 L 3.5511,0.1930 L 3.5709,0.2595 L 3.5880,0.3260 L 3.6025,0.3926 L 3.6145,0.4590 L 3.6238,0.5253 L 3.6306,0.5913 L 3.6348,0.6571 L 3.6365,0.7226 L 3.6356,0.7877 L 3.6323,0.8523 L 3.6264,0.9165 L 3.6180,0.9801 L 3.6072,1.0431 L 3.5939,1.1055 L 3.5782,1.1671 L 3.5601,1.2280 L 3.5396,1.2882 L 3.5167,1.3473 L 3.4914,1.4057 L 3.4638,1.4630 L 3.4339,1.5193 L 3.4017,1.5745 L 3.3673,1.6287 L 3.3305,1.6816 L 3.2916,1.7333 L 3.2504,1.7837 L 3.2070,1.8328 L 3.1615,1.8805 L 3.1139,1.9267 L 3.0641,1.9715 L 3.0123,2.0147 L 2.9584,2.0564 L 2.9025,2.0963 L 2.8446,2.1346 L 2.7848,2.1711 L 2.7230,2.2058 L 2.6593,2.2387 L 2.5938,2.2697 L 2.5264,2.2987 L 2.4573,2.3257 L 2.3864,2.3506 L 2.3138,2.3735 L 2.2395,2.3942 L 2.1635,2.4128 L 2.0860,2.4291 L 2.0068,2.4432 L 1.9261,2.4549 L 1.8439,2.4643 L 1.7602,2.4713 L 1.6750,2.4759 L 1.5884,2.4779 L 1.5003,2.4775 L 1.4109,2.4745 L 1.3200,2.4689 L 1.2277,2.4607 L 1.1340,2.4498 L 1.0389,2.4362 L 0.9424,2.4197 L 0.8446,2.4005 L 0.7457,2.3785 L 0.6461,2.3536 L 0.5466,2.3263 L 0.4496,2.2970 L 0.3610,2.2677 L 0.2950,2.2437 L 0.2622,2.2300 L 0.2528,2.2245 L 0.2461,2.2172 L 0.2380,2.2036 L 0.2293,2.1835 L 0.2211,2.1576 L 0.2140,2.1261 L 0.2085,2.0893 L 0.2049,2.0474 L 0.2036,2.0002 L 0.2048,1.9474 L 0.2087,1.8889 L 0.2158,1.8238 L 0.2264,1.7517 L 0.2409,1.6716 L 0.2597,1.5825 L 0.2835,1.4823 L 0.3133,1.3689 L 0.3501,1.2397 L 0.3951,1.0915 L 0.4501,0.9199 L 0.5167,0.7210 L 0.5954,0.4943 L 0.6834,0.2487 Z"/>
        <g id="arrows2">
          <use xlink:href="#arrow1" transform="translate(3.5227,1.2804) rotate(115.24) scale(2.4)"/>
        </g>
      </g>
      <g id="fieldline3">
        <path d="M 0.5126,0.1866 L 0.6127,-0.0848 L 0.7049,-0.3279 L 0.7849,-0.5323 L 0.8544,-0.7035 L 0.9158,-0.8484 L 0.9706,-0.9716 L 1.0203,-1.0775 L 1.0661,-1.1696 L 1.1090,-1.2503 L 1.1496,-1.3215 L 1.1883,-1.3846 L 1.2256,-1.4407 L 1.2618,-1.4907 L 1.2972,-1.5355 L 1.3321,-1.5755 L 1.3666,-1.6114 L 1.4012,-1.6438 L 1.4360,-1.6729 L 1.4716,-1.6994 L 1.5084,-1.7237 L 1.5472,-1.7461 L 1.5885,-1.7670 L 1.6333,-1.7867 L 1.6825,-1.8055 L 1.7368,-1.8233 L 1.7972,-1.8403 L 1.8642,-1.8564 L 1.9384,-1.8715 L 2.0196,-1.8853 L 2.1078,-1.8975 L 2.2024,-1.9080 L 2.3025,-1.9165 L 2.4072,-1.9227 L 2.5156,-1.9266 L 2.6268,-1.9280 L 2.7400,-1.9268 L 2.8545,-1.9230 L 2.9700,-1.9167 L 3.0858,-1.9077 L 3.2018,-1.8962 L 3.3175,-1.8822 L 3.4328,-1.8656 L 3.5475,-1.8465 L 3.6614,-1.8250 L 3.7744,-1.8011 L 3.8865,-1.7747 L 3.9973,-1.7460 L 4.1070,-1.7150 L 4.2154,-1.6817 L 4.3224,-1.6462 L 4.4280,-1.6085 L 4.5321,-1.5686 L 4.6346,-1.5265 L 4.7355,-1.4824 L 4.8347,-1.4363 L 4.9321,-1.3881 L 5.0278,-1.3380 L 5.1216,-1.2860 L 5.2134,-1.2322 L 5.3034,-1.1765 L 5.3913,-1.1191 L 5.4772,-1.0600 L 5.5611,-0.9992 L 5.6428,-0.9368 L 5.7223,-0.8729 L 5.7996,-0.8074 L 5.8747,-0.7406 L 5.9475,-0.6723 L 6.0180,-0.6027 L 6.0862,-0.5319 L 6.1520,-0.4598 L 6.2154,-0.3866 L 6.2764,-0.3123 L 6.3350,-0.2370 L 6.3910,-0.1607 L 6.4446,-0.0835 L 6.4957,-0.0054 L 6.5443,0.0734 L 6.5903,0.1530 L 6.6338,0.2333 L 6.6747,0.3142 L 6.7131,0.3956 L 6.7489,0.4776 L 6.7821,0.5599 L 6.8127,0.6427 L 6.8407,0.7258 L 6.8661,0.8091 L 6.8889,0.8926 L 6.9091,0.9763 L 6.9267,1.0601 L 6.9417,1.1439 L 6.9541,1.2277 L 6.9639,1.3114 L 6.9712,1.3949 L 6.9758,1.4783 L 6.9779,1.5614 L 6.9775,1.6443 L 6.9745,1.7268 L 6.9689,1.8089 L 6.9609,1.8905 L 6.9503,1.9717 L 6.9372,2.0523 L 6.9217,2.1323 L 6.9037,2.2116 L 6.8832,2.2902 L 6.8602,2.3681 L 6.8349,2.4452 L 6.8071,2.5214 L 6.7769,2.5968 L 6.7444,2.6711 L 6.7095,2.7445 L 6.6723,2.8169 L 6.6328,2.8881 L 6.5910,2.9582 L 6.5469,3.0272 L 6.5005,3.0949 L 6.4520,3.1613 L 6.4012,3.2264 L 6.3483,3.2902 L 6.2932,3.3525 L 6.2360,3.4133 L 6.1767,3.4726 L 6.1153,3.5304 L 6.0519,3.5866 L 5.9865,3.6411 L 5.9192,3.6940 L 5.8499,3.7450 L 5.7787,3.7943 L 5.7056,3.8418 L 5.6308,3.8874 L 5.5541,3.9311 L 5.4757,3.9729 L 5.3956,4.0126 L 5.3138,4.0503 L 5.2305,4.0859 L 5.1455,4.1195 L 5.0591,4.1508 L 4.9712,4.1800 L 4.8818,4.2069 L 4.7911,4.2316 L 4.6991,4.2539 L 4.6058,4.2740 L 4.5113,4.2916 L 4.4156,4.3069 L 4.3189,4.3198 L 4.2211,4.3302 L 4.1224,4.3381 L 4.0227,4.3436 L 3.9222,4.3465 L 3.8209,4.3468 L 3.7189,4.3447 L 3.6162,4.3399 L 3.5129,4.3325 L 3.4091,4.3226 L 3.3048,4.3100 L 3.2001,4.2948 L 3.0951,4.2769 L 2.9898,4.2564 L 2.8843,4.2333 L 2.7787,4.2075 L 2.6731,4.1791 L 2.5675,4.1480 L 2.4619,4.1142 L 2.3565,4.0779 L 2.2514,4.0389 L 2.1466,3.9972 L 2.0422,3.9530 L 1.9382,3.9062 L 1.8348,3.8569 L 1.7321,3.8050 L 1.6302,3.7507 L 1.5291,3.6939 L 1.4290,3.6348 L 1.3300,3.5733 L 1.2323,3.5096 L 1.1362,3.4439 L 1.0417,3.3763 L 0.9492,3.3069 L 0.8591,3.2361 L 0.7716,3.1642 L 0.6874,3.0917 L 0.6070,3.0191 L 0.5309,2.9471 L 0.4597,2.8763 L 0.3941,2.8075 L 0.3345,2.7415 L 0.2812,2.6787 L 0.2342,2.6196 L 0.1933,2.5643 L 0.1581,2.5125 L 0.1280,2.4640 L 0.1025,2.4181 L 0.0808,2.3742 L 0.0626,2.3316 L 0.0474,2.2895 L 0.0348,2.2473 L 0.0246,2.2041 L 0.0167,2.1593 L 0.0110,2.1123 L 0.0077,2.0626 L 0.0068,2.0095 L 0.0084,1.9524 L 0.0129,1.8907 L 0.0204,1.8237 L 0.0313,1.7505 L 0.0460,1.6697 L 0.0651,1.5803 L 0.0892,1.4802 L 0.1194,1.3666 L 0.1566,1.2374 L 0.2025,1.0878 L 0.2592,0.9122 L 0.3292,0.7042 L 0.4148,0.4588 L 0.5126,0.1866 Z"/>
        <g id="arrows3">
          <use xlink:href="#arrow1" transform="translate(4.9019,-1.3958) rotate(28.44) scale(2.4)"/>
          <use xlink:href="#arrow1" transform="translate(2.8582,4.2206) rotate(-164.79) scale(2.4)"/>
        </g>
      </g>
      <g id="fieldline4">
        <path d="M 10.7333,9.6896 L 10.5940,9.7121 L 10.4537,9.7322 L 10.3124,9.7498 L 10.1702,9.7650 L 10.0270,9.7777 L 9.8831,9.7880 L 9.7383,9.7957 L 9.5928,9.8010 L 9.4465,9.8037 L 9.2996,9.8039 L 9.1521,9.8015 L 9.0040,9.7966 L 8.8553,9.7891 L 8.7062,9.7790 L 8.5567,9.7663 L 8.4067,9.7511 L 8.2565,9.7333 L 8.1059,9.7128 L 7.9552,9.6898 L 7.8042,9.6642 L 7.6531,9.6359 L 7.5019,9.6051 L 7.3507,9.5716 L 7.1995,9.5356 L 7.0484,9.4969 L 6.8974,9.4556 L 6.7465,9.4118 L 6.5959,9.3653 L 6.4455,9.3163 L 6.2955,9.2647 L 6.1458,9.2105 L 5.9966,9.1538 L 5.8478,9.0946 L 5.6996,9.0328 L 5.5519,8.9685 L 5.4049,8.9017 L 5.2585,8.8324 L 5.1129,8.7606 L 4.9681,8.6864 L 4.8241,8.6098 L 4.6810,8.5307 L 4.5388,8.4492 L 4.3976,8.3654 L 4.2574,8.2793 L 4.1183,8.1908 L 3.9803,8.1000 L 3.8436,8.0069 L 3.7080,7.9116 L 3.5737,7.8141 L 3.4408,7.7144 L 3.3092,7.6126 L 3.1790,7.5086 L 3.0503,7.4026 L 2.9232,7.2945 L 2.7975,7.1844 L 2.6735,7.0723 L 2.5511,6.9583 L 2.4305,6.8424 L 2.3115,6.7246 L 2.1944,6.6051 L 2.0791,6.4837 L 1.9656,6.3607 L 1.8541,6.2360 L 1.7446,6.1097 L 1.6371,5.9818 L 1.5316,5.8525 L 1.4283,5.7217 L 1.3271,5.5895 L 1.2281,5.4561 L 1.1315,5.3215 L 1.0372,5.1859 L 0.9453,5.0492 L 0.8558,4.9118 L 0.7690,4.7736 L 0.6849,4.6350 L 0.6035,4.4960 L 0.5251,4.3570 L 0.4497,4.2184 L 0.3776,4.0804 L 0.3089,3.9436 L 0.2439,3.8085 L 0.1828,3.6757 L 0.1258,3.5459 L 0.0732,3.4199 L 0.0252,3.2982 L -0.0182,3.1817 L -0.0569,3.0708 L -0.0909,2.9658 L -0.1204,2.8668 L -0.1456,2.7735 L -0.1668,2.6857 L -0.1842,2.6027 L -0.1983,2.5240 L -0.2092,2.4488 L -0.2172,2.3762 L -0.2225,2.3056 L -0.2252,2.2361 L -0.2253,2.1668 L -0.2228,2.0968 L -0.2177,2.0253 L -0.2099,1.9514 L -0.1990,1.8739 L -0.1848,1.7915 L -0.1668,1.7028 L -0.1444,1.6057 L -0.1168,1.4981 L -0.0828,1.3766 L -0.0406,1.2358 L 0.0117,1.0711 L 0.0775,0.8729 L 0.1610,0.6304 L 0.2649,0.3371 L 0.3833,0.0106 L 0.4972,-0.2965 L 0.5945,-0.5519 L 0.6757,-0.7589 L 0.7445,-0.9280 L 0.8046,-1.0695 L 0.8582,-1.1897 L 0.9075,-1.2942 L 0.9534,-1.3861 L 0.9972,-1.4681 L 1.0395,-1.5424 L 1.0811,-1.6104 L 1.1226,-1.6734 L 1.1644,-1.7324 L 1.2071,-1.7883 L 1.2512,-1.8419 L 1.2973,-1.8938 L 1.3459,-1.9448 L 1.3975,-1.9952 L 1.4530,-2.0457 L 1.5129,-2.0967 L 1.5779,-2.1487 L 1.6487,-2.2019 L 1.7260,-2.2567 L 1.8101,-2.3131 L 1.9015,-2.3712 L 2.0002,-2.4309 L 2.1063,-2.4920 L 2.2192,-2.5540 L 2.3387,-2.6166 L 2.4642,-2.6795 L 2.5949,-2.7421 L 2.7303,-2.8041 L 2.8697,-2.8651 L 3.0127,-2.9248 L 3.1587,-2.9831 L 3.3074,-3.0397 L 3.4584,-3.0944 L 3.6114,-3.1471 L 3.7662,-3.1978 L 3.9227,-3.2463 L 4.0805,-3.2926 L 4.2396,-3.3365 L 4.3999,-3.3782 L 4.5611,-3.4175 L 4.7233,-3.4544 L 4.8863,-3.4889 L 5.0500,-3.5210 L 5.2144,-3.5505 L 5.3794,-3.5776 L 5.5448,-3.6022 L 5.7107,-3.6243 L 5.8769,-3.6439 L 6.0434,-3.6609 L 6.2102,-3.6755 L 6.3771,-3.6874 L 6.5441,-3.6969 L 6.7112,-3.7038 L 6.8782,-3.7081 L 7.0451,-3.7099 L 7.2119,-3.7092 L 7.3785,-3.7059 L 7.5449,-3.7001 L 7.7109,-3.6918 L 7.8766,-3.6809 L 8.0418,-3.6675 L 8.2066,-3.6517 L 8.3708,-3.6333 L 8.5344,-3.6124 L 8.6974,-3.5890 L 8.8596,-3.5632 L 9.0211,-3.5349 L 9.1819,-3.5042 L 9.3417,-3.4711 L 9.5006,-3.4356 L 9.6586,-3.3977 L 9.8156,-3.3574 L 9.9715,-3.3147 L 10.1263,-3.2698 L 10.2799,-3.2225 L 10.4323,-3.1730 L 10.5835,-3.1211 L 10.7333,-3.0671"/>
        <g id="arrows4">
          <use xlink:href="#arrow1" transform="translate(3.8887,8.0344) rotate(-144.83) scale(2.4)"/>
          <use xlink:href="#arrow1" transform="translate(3.6510,-3.1571) rotate(-17.56) scale(2.4)"/>
        </g>
      </g>
      <g id="fieldline5">
        <path d="M 0.3669,10.0667 L 0.2946,9.7890 L 0.2251,9.5121 L 0.1584,9.2361 L 0.0946,8.9609 L 0.0336,8.6867 L -0.0245,8.4135 L -0.0798,8.1414 L -0.1323,7.8705 L -0.1819,7.6009 L -0.2286,7.3328 L -0.2725,7.0661 L -0.3136,6.8010 L -0.3517,6.5377 L -0.3871,6.2764 L -0.4196,6.0173 L -0.4492,5.7606 L -0.4759,5.5066 L -0.4997,5.2558 L -0.5207,5.0086 L -0.5387,4.7657 L -0.5539,4.5279 L -0.5661,4.2961 L -0.5754,4.0716 L -0.5818,3.8556 L -0.5855,3.6495 L -0.5865,3.4546 L -0.5849,3.2719 L -0.5810,3.1019 L -0.5749,2.9445 L -0.5668,2.7989 L -0.5568,2.6639 L -0.5451,2.5381 L -0.5315,2.4198 L -0.5160,2.3070 L -0.4985,2.1979 L -0.4787,2.0904 L -0.4561,1.9825 L -0.4304,1.8718 L -0.4005,1.7553 L -0.3654,1.6291 L -0.3235,1.4883 L -0.2723,1.3264 L -0.2078,1.1313 L -0.1233,0.8850 L -0.0088,0.5605 L 0.1426,0.1399 L 0.3055,-0.3052 L 0.4378,-0.6602 L 0.5393,-0.9263 L 0.6202,-1.1322 L 0.6882,-1.2989 L 0.7485,-1.4404 L 0.8039,-1.5641 L 0.8565,-1.6757 L 0.9080,-1.7791 L 0.9598,-1.8775 L 1.0129,-1.9729 L 1.0685,-2.0676 L 1.1277,-2.1632 L 1.1916,-2.2615 L 1.2613,-2.3638 L 1.3379,-2.4715 L 1.4225,-2.5859 L 1.5160,-2.7078 L 1.6190,-2.8378 L 1.7319,-2.9761 L 1.8548,-3.1223 L 1.9871,-3.2756 L 2.1282,-3.4352 L 2.2772,-3.5998 L 2.4333,-3.7684 L 2.5959,-3.9400 L 2.7640,-4.1138 L 2.9374,-4.2893 L 3.1154,-4.4659 L 3.2978,-4.6431 L 3.4842,-4.8207 L 3.6744,-4.9983 L 3.8683,-5.1759 L 4.0657,-5.3531 L 4.2664,-5.5300 L 4.4704,-5.7062 L 4.6776,-5.8819 L 4.8879,-6.0568 L 5.1012,-6.2309 L 5.3174,-6.4040 L 5.5366,-6.5763 L 5.7587,-6.7475 L 5.9835,-6.9176 L 6.2111,-7.0866 L 6.4415,-7.2545 L 6.6745,-7.4211 L 6.9101,-7.5864 L 7.1483,-7.7505 L 7.3891,-7.9131 L 7.6324,-8.0744 L 7.8781,-8.2342 L 8.1263,-8.3926 L 8.3769,-8.5494 L 8.6298,-8.7047 L 8.8851,-8.8584 L 9.1426,-9.0105 L 9.4023,-9.1609 L 9.6643,-9.3096 L 9.9284,-9.4567 L 10.1946,-9.6019 L 10.4630,-9.7454 L 10.7333,-9.8871"/>
        <g id="arrows5">
          <use xlink:href="#arrow1" transform="translate(-0.5791,3.8879) rotate(-90.98) scale(2.4)"/>
          <use xlink:href="#arrow1" transform="translate(5.4630,-6.5173) rotate(-37.80) scale(2.4)"/>
        </g>
      </g>
      <g id="fieldline6">
        <path d="M -3.6640,10.0667 L -1.2213,3.3556 L 1.2213,-3.3556 L 3.6640,-10.0667"/>
        <g id="arrows6">
          <use xlink:href="#arrow1" transform="translate(-1.8320,5.0333) rotate(-70.00) scale(2.4)"/>
          <use xlink:href="#arrow1" transform="translate(1.8320,-5.0333) rotate(-70.00) scale(2.4)"/>
        </g>
      </g>
      <g id="fieldline7">
        <path d="M -10.7333,9.8871 L -10.4630,9.7454 L -10.1946,9.6019 L -9.9284,9.4567 L -9.6643,9.3096 L -9.4023,9.1609 L -9.1426,9.0105 L -8.8851,8.8584 L -8.6298,8.7047 L -8.3769,8.5494 L -8.1263,8.3926 L -7.8781,8.2342 L -7.6324,8.0744 L -7.3891,7.9131 L -7.1483,7.7505 L -6.9101,7.5864 L -6.6745,7.4211 L -6.4415,7.2545 L -6.2111,7.0866 L -5.9835,6.9176 L -5.7587,6.7475 L -5.5366,6.5763 L -5.3174,6.4040 L -5.1012,6.2309 L -4.8879,6.0568 L -4.6776,5.8819 L -4.4704,5.7062 L -4.2664,5.5300 L -4.0657,5.3531 L -3.8683,5.1759 L -3.6744,4.9983 L -3.4842,4.8207 L -3.2978,4.6431 L -3.1154,4.4659 L -2.9374,4.2893 L -2.7640,4.1138 L -2.5959,3.9400 L -2.4333,3.7684 L -2.2772,3.5998 L -2.1282,3.4352 L -1.9871,3.2756 L -1.8548,3.1223 L -1.7319,2.9761 L -1.6190,2.8378 L -1.5160,2.7078 L -1.4225,2.5859 L -1.3379,2.4715 L -1.2613,2.3638 L -1.1916,2.2615 L -1.1277,2.1632 L -1.0685,2.0676 L -1.0129,1.9729 L -0.9598,1.8775 L -0.9080,1.7791 L -0.8565,1.6757 L -0.8039,1.5641 L -0.7485,1.4404 L -0.6882,1.2989 L -0.6202,1.1322 L -0.5393,0.9263 L -0.4378,0.6602 L -0.3055,0.3052 L -0.1426,-0.1399 L 0.0088,-0.5605 L 0.1233,-0.8850 L 0.2078,-1.1313 L 0.2723,-1.3264 L 0.3235,-1.4883 L 0.3654,-1.6291 L 0.4005,-1.7553 L 0.4304,-1.8718 L 0.4561,-1.9825 L 0.4787,-2.0904 L 0.4985,-2.1979 L 0.5160,-2.3070 L 0.5315,-2.4198 L 0.5451,-2.5381 L 0.5568,-2.6639 L 0.5668,-2.7989 L 0.5749,-2.9445 L 0.5810,-3.1019 L 0.5849,-3.2719 L 0.5865,-3.4546 L 0.5855,-3.6495 L 0.5818,-3.8556 L 0.5754,-4.0716 L 0.5661,-4.2961 L 0.5539,-4.5279 L 0.5387,-4.7657 L 0.5207,-5.0086 L 0.4997,-5.2558 L 0.4759,-5.5066 L 0.4492,-5.7606 L 0.4196,-6.0173 L 0.3871,-6.2764 L 0.3517,-6.5377 L 0.3136,-6.8010 L 0.2725,-7.0661 L 0.2286,-7.3328 L 0.1819,-7.6009 L 0.1323,-7.8705 L 0.0798,-8.1414 L 0.0245,-8.4135 L -0.0336,-8.6867 L -0.0946,-8.9609 L -0.1584,-9.2361 L -0.2251,-9.5121 L -0.2946,-9.7890 L -0.3669,-10.0667"/>
        <g id="arrows7">
          <use xlink:href="#arrow1" transform="translate(-5.4630,6.5173) rotate(-38.35) scale(2.4)"/>
          <use xlink:href="#arrow1" transform="translate(0.5792,-3.8878) rotate(-91.90) scale(2.4)"/>
        </g>
      </g>
      <g id="fieldline8">
        <path d="M -10.7333,3.0671 L -10.5832,3.1212 L -10.4317,3.1732 L -10.2790,3.2228 L -10.1251,3.2701 L -9.9700,3.3152 L -9.8138,3.3579 L -9.6565,3.3982 L -9.4982,3.4361 L -9.3389,3.4717 L -9.1787,3.5049 L -9.0177,3.5356 L -8.8559,3.5638 L -8.6933,3.5897 L -8.5300,3.6130 L -8.3660,3.6338 L -8.2015,3.6522 L -8.0364,3.6680 L -7.8708,3.6814 L -7.7048,3.6921 L -7.5384,3.7004 L -7.3717,3.7061 L -7.2048,3.7093 L -7.0377,3.7099 L -6.8704,3.7080 L -6.7031,3.7035 L -6.5357,3.6965 L -6.3683,3.6869 L -6.2011,3.6747 L -6.0341,3.6600 L -5.8672,3.6428 L -5.7007,3.6231 L -5.5345,3.6008 L -5.3688,3.5760 L -5.2035,3.5487 L -5.0389,3.5189 L -4.8749,3.4866 L -4.7116,3.4519 L -4.5492,3.4147 L -4.3877,3.3751 L -4.2272,3.3332 L -4.0679,3.2890 L -3.9099,3.2424 L -3.7533,3.1936 L -3.5983,3.1427 L -3.4451,3.0897 L -3.2940,3.0347 L -3.1453,2.9778 L -2.9992,2.9193 L -2.8563,2.8593 L -2.7169,2.7981 L -2.5817,2.7359 L -2.4512,2.6731 L -2.3261,2.6102 L -2.2070,2.5474 L -2.0945,2.4853 L -1.9891,2.4243 L -1.8909,2.3647 L -1.8002,2.3066 L -1.7167,2.2503 L -1.6401,2.1956 L -1.5698,2.1424 L -1.5053,2.0905 L -1.4459,2.0394 L -1.3908,1.9889 L -1.3395,1.9383 L -1.2912,1.8872 L -1.2453,1.8350 L -1.2014,1.7810 L -1.1587,1.7246 L -1.1169,1.6650 L -1.0753,1.6012 L -1.0336,1.5323 L -0.9910,1.4569 L -0.9469,1.3735 L -0.9005,1.2798 L -0.8506,1.1729 L -0.7963,1.0503 L -0.7351,0.9052 L -0.6646,0.7312 L -0.5812,0.5175 L -0.4813,0.2540 L -0.3654,-0.0594 L -0.2478,-0.3846 L -0.1469,-0.6708 L -0.0664,-0.9059 L -0.0029,-1.0983 L 0.0477,-1.2587 L 0.0884,-1.3957 L 0.1214,-1.5153 L 0.1482,-1.6212 L 0.1699,-1.7170 L 0.1873,-1.8048 L 0.2010,-1.8865 L 0.2113,-1.9635 L 0.2187,-2.0371 L 0.2234,-2.1084 L 0.2254,-2.1783 L 0.2249,-2.2478 L 0.2218,-2.3175 L 0.2161,-2.3886 L 0.2075,-2.4617 L 0.1961,-2.5376 L 0.1814,-2.6172 L 0.1632,-2.7012 L 0.1413,-2.7901 L 0.1153,-2.8846 L 0.0849,-2.9850 L 0.0500,-3.0913 L 0.0103,-3.2036 L -0.0341,-3.3214 L -0.0831,-3.4441 L -0.1368,-3.5713 L -0.1947,-3.7020 L -0.2567,-3.8356 L -0.3226,-3.9714 L -0.3922,-4.1088 L -0.4651,-4.2472 L -0.5413,-4.3862 L -0.6205,-4.5254 L -0.7026,-4.6646 L -0.7875,-4.8034 L -0.8751,-4.9417 L -0.9652,-5.0793 L -1.0578,-5.2160 L -1.1529,-5.3517 L -1.2502,-5.4863 L -1.3499,-5.6197 L -1.4517,-5.7517 L -1.5558,-5.8825 L -1.6619,-6.0117 L -1.7701,-6.1395 L -1.8804,-6.2657 L -1.9925,-6.3902 L -2.1067,-6.5131 L -2.2226,-6.6342 L -2.3405,-6.7536 L -2.4601,-6.8711 L -2.5814,-6.9868 L -2.7044,-7.1006 L -2.8291,-7.2124 L -2.9554,-7.3222 L -3.0832,-7.4300 L -3.2125,-7.5357 L -3.3433,-7.6393 L -3.4755,-7.7408 L -3.6091,-7.8401 L -3.7439,-7.9372 L -3.8801,-8.0321 L -4.0175,-8.1247 L -4.1560,-8.2150 L -4.2957,-8.3031 L -4.4364,-8.3888 L -4.5782,-8.4721 L -4.7209,-8.5530 L -4.8645,-8.6316 L -5.0091,-8.7077 L -5.1544,-8.7813 L -5.3005,-8.8525 L -5.4474,-8.9213 L -5.5949,-8.9875 L -5.7430,-9.0512 L -5.8917,-9.1123 L -6.0409,-9.1709 L -6.1905,-9.2270 L -6.3406,-9.2805 L -6.4910,-9.3314 L -6.6418,-9.3798 L -6.7927,-9.4255 L -6.9439,-9.4686 L -7.0953,-9.5092 L -7.2468,-9.5471 L -7.3983,-9.5824 L -7.5498,-9.6151 L -7.7012,-9.6452 L -7.8526,-9.6727 L -8.0038,-9.6975 L -8.1548,-9.7197 L -8.3055,-9.7394 L -8.4560,-9.7564 L -8.6061,-9.7708 L -8.7558,-9.7826 L -8.9050,-9.7918 L -9.0537,-9.7985 L -9.2020,-9.8026 L -9.3496,-9.8041 L -9.4965,-9.8030 L -9.6428,-9.7995 L -9.7884,-9.7933 L -9.9332,-9.7847 L -10.0772,-9.7736 L -10.2202,-9.7600 L -10.3624,-9.7439 L -10.5037,-9.7253 L -10.6188,-9.7083 L -10.7333,-9.6896"/>
        <g id="arrows8">
          <use xlink:href="#arrow1" transform="translate(-3.6511,3.1571) rotate(-19.17) scale(2.4)"/>
          <use xlink:href="#arrow1" transform="translate(-3.8887,-8.0343) rotate(-146.40) scale(2.4)"/>
        </g>
      </g>
      <g id="fieldline9">
        <path d="M -0.5126,-0.1866 L -0.4148,-0.4588 L -0.3292,-0.7043 L -0.2591,-0.9123 L -0.2024,-1.0881 L -0.1562,-1.2386 L -0.1190,-1.3682 L -0.0890,-1.4812 L -0.0649,-1.5812 L -0.0458,-1.6706 L -0.0311,-1.7513 L -0.0203,-1.8245 L -0.0128,-1.8914 L -0.0084,-1.9530 L -0.0068,-2.0101 L -0.0077,-2.0632 L -0.0111,-2.1129 L -0.0168,-2.1599 L -0.0247,-2.2046 L -0.0349,-2.2478 L -0.0476,-2.2900 L -0.0628,-2.3321 L -0.0811,-2.3747 L -0.1027,-2.4186 L -0.1283,-2.4645 L -0.1585,-2.5131 L -0.1938,-2.5650 L -0.2348,-2.6204 L -0.2819,-2.6796 L -0.3353,-2.7424 L -0.3950,-2.8085 L -0.4607,-2.8773 L -0.5319,-2.9481 L -0.6081,-3.0202 L -0.6887,-3.0928 L -0.7730,-3.1654 L -0.8604,-3.2372 L -0.9506,-3.3080 L -1.0431,-3.3773 L -1.1376,-3.4449 L -1.2338,-3.5106 L -1.3315,-3.5743 L -1.4305,-3.6357 L -1.5306,-3.6948 L -1.6317,-3.7515 L -1.7337,-3.8059 L -1.8364,-3.8577 L -1.9398,-3.9070 L -2.0438,-3.9537 L -2.1482,-3.9979 L -2.2530,-4.0395 L -2.3582,-4.0784 L -2.4635,-4.1148 L -2.5691,-4.1485 L -2.6747,-4.1795 L -2.7804,-4.2079 L -2.8860,-4.2337 L -2.9914,-4.2568 L -3.0967,-4.2772 L -3.2017,-4.2950 L -3.3064,-4.3102 L -3.4107,-4.3228 L -3.5145,-4.3327 L -3.6178,-4.3400 L -3.7204,-4.3447 L -3.8225,-4.3469 L -3.9238,-4.3464 L -4.0243,-4.3435 L -4.1239,-4.3380 L -4.2226,-4.3300 L -4.3204,-4.3196 L -4.4171,-4.3067 L -4.5128,-4.2914 L -4.6072,-4.2737 L -4.7005,-4.2536 L -4.7925,-4.2312 L -4.8832,-4.2065 L -4.9725,-4.1795 L -5.0604,-4.1503 L -5.1469,-4.1190 L -5.2318,-4.0854 L -5.3151,-4.0498 L -5.3968,-4.0120 L -5.4769,-3.9722 L -5.5553,-3.9305 L -5.6319,-3.8868 L -5.7068,-3.8411 L -5.7798,-3.7936 L -5.8509,-3.7443 L -5.9202,-3.6932 L -5.9875,-3.6403 L -6.0529,-3.5857 L -6.1163,-3.5296 L -6.1776,-3.4717 L -6.2369,-3.4124 L -6.2940,-3.3515 L -6.3491,-3.2892 L -6.4020,-3.2254 L -6.4527,-3.1603 L -6.5012,-3.0939 L -6.5476,-3.0261 L -6.5916,-2.9572 L -6.6334,-2.8871 L -6.6729,-2.8158 L -6.7101,-2.7434 L -6.7449,-2.6700 L -6.7774,-2.5956 L -6.8075,-2.5203 L -6.8353,-2.4440 L -6.8606,-2.3669 L -6.8835,-2.2890 L -6.9039,-2.2104 L -6.9219,-2.1310 L -6.9375,-2.0510 L -6.9505,-1.9704 L -6.9610,-1.8893 L -6.9691,-1.8076 L -6.9745,-1.7255 L -6.9775,-1.6430 L -6.9779,-1.5602 L -6.9758,-1.4770 L -6.9711,-1.3936 L -6.9638,-1.3101 L -6.9539,-1.2264 L -6.9414,-1.1426 L -6.9264,-1.0588 L -6.9088,-0.9750 L -6.8885,-0.8914 L -6.8657,-0.8078 L -6.8402,-0.7245 L -6.8122,-0.6414 L -6.7816,-0.5587 L -6.7483,-0.4763 L -6.7125,-0.3944 L -6.6741,-0.3129 L -6.6332,-0.2321 L -6.5896,-0.1518 L -6.5436,-0.0722 L -6.4950,0.0066 L -6.4438,0.0847 L -6.3902,0.1619 L -6.3341,0.2382 L -6.2755,0.3135 L -6.2145,0.3878 L -6.1510,0.4610 L -6.0852,0.5330 L -6.0170,0.6038 L -5.9464,0.6734 L -5.8736,0.7416 L -5.7984,0.8084 L -5.7211,0.8738 L -5.6415,0.9378 L -5.5598,1.0001 L -5.4759,1.0609 L -5.3900,1.1200 L -5.3020,1.1774 L -5.2121,1.2330 L -5.1201,1.2868 L -5.0263,1.3388 L -4.9306,1.3889 L -4.8332,1.4370 L -4.7340,1.4831 L -4.6331,1.5272 L -4.5305,1.5692 L -4.4264,1.6091 L -4.3208,1.6468 L -4.2138,1.6823 L -4.1054,1.7155 L -3.9956,1.7465 L -3.8847,1.7751 L -3.7727,1.8014 L -3.6597,1.8254 L -3.5457,1.8468 L -3.4310,1.8659 L -3.3157,1.8824 L -3.2000,1.8964 L -3.0840,1.9079 L -2.9682,1.9168 L -2.8528,1.9231 L -2.7382,1.9268 L -2.6251,1.9279 L -2.5139,1.9265 L -2.4056,1.9226 L -2.3010,1.9164 L -2.2010,1.9079 L -2.1066,1.8974 L -2.0185,1.8851 L -1.9373,1.8713 L -1.8633,1.8562 L -1.7964,1.8401 L -1.7361,1.8231 L -1.6819,1.8052 L -1.6328,1.7865 L -1.5880,1.7668 L -1.5467,1.7459 L -1.5080,1.7234 L -1.4712,1.6992 L -1.4356,1.6726 L -1.4008,1.6434 L -1.3662,1.6111 L -1.3317,1.5751 L -1.2968,1.5350 L -1.2614,1.4902 L -1.2251,1.4401 L -1.1878,1.3839 L -1.1491,1.3208 L -1.1085,1.2494 L -1.0657,1.1687 L -1.0198,1.0766 L -0.9699,0.9701 L -0.9153,0.8473 L -0.8543,0.7031 L -0.7849,0.5322 L -0.7049,0.3278 L -0.6127,0.0848 L -0.5126,-0.1866 Z"/>
        <g id="arrows9">
          <use xlink:href="#arrow1" transform="translate(-2.8579,-4.2201) rotate(-168.44) scale(2.4)"/>
          <use xlink:href="#arrow1" transform="translate(-4.9025,1.3959) rotate(24.79) scale(2.4)"/>
        </g>
      </g>
      <g id="fieldline10">
        <path d="M -0.6834,-0.2487 L -0.5955,-0.4939 L -0.5169,-0.7204 L -0.4503,-0.9192 L -0.3953,-1.0910 L -0.3502,-1.2394 L -0.3134,-1.3685 L -0.2836,-1.4818 L -0.2597,-1.5821 L -0.2409,-1.6714 L -0.2264,-1.7515 L -0.2159,-1.8236 L -0.2088,-1.8886 L -0.2048,-1.9472 L -0.2036,-2.0000 L -0.2049,-2.0472 L -0.2085,-2.0892 L -0.2140,-2.1260 L -0.2211,-2.1575 L -0.2292,-2.1834 L -0.2379,-2.2035 L -0.2461,-2.2172 L -0.2527,-2.2244 L -0.2622,-2.2300 L -0.2949,-2.2437 L -0.3607,-2.2676 L -0.4492,-2.2968 L -0.5461,-2.3261 L -0.6456,-2.3535 L -0.7453,-2.3784 L -0.8442,-2.4004 L -0.9419,-2.4197 L -1.0384,-2.4361 L -1.1335,-2.4497 L -1.2272,-2.4607 L -1.3195,-2.4689 L -1.4104,-2.4745 L -1.4999,-2.4775 L -1.5880,-2.4779 L -1.6746,-2.4759 L -1.7598,-2.4713 L -1.8435,-2.4643 L -1.9257,-2.4550 L -2.0064,-2.4432 L -2.0856,-2.4292 L -2.1632,-2.4129 L -2.2391,-2.3943 L -2.3134,-2.3736 L -2.3861,-2.3508 L -2.4570,-2.3258 L -2.5261,-2.2988 L -2.5935,-2.2698 L -2.6590,-2.2388 L -2.7227,-2.2060 L -2.7845,-2.1713 L -2.8443,-2.1348 L -2.9022,-2.0965 L -2.9581,-2.0566 L -3.0120,-2.0149 L -3.0639,-1.9717 L -3.1136,-1.9270 L -3.1613,-1.8807 L -3.2068,-1.8330 L -3.2502,-1.7840 L -3.2914,-1.7335 L -3.3303,-1.6819 L -3.3671,-1.6289 L -3.4016,-1.5748 L -3.4338,-1.5196 L -3.4637,-1.4633 L -3.4913,-1.4059 L -3.5166,-1.3477 L -3.5395,-1.2884 L -3.5600,-1.2284 L -3.5781,-1.1675 L -3.5939,-1.1058 L -3.6071,-1.0435 L -3.6180,-0.9804 L -3.6263,-0.9168 L -3.6322,-0.8527 L -3.6356,-0.7880 L -3.6365,-0.7229 L -3.6348,-0.6574 L -3.6306,-0.5917 L -3.6239,-0.5256 L -3.6145,-0.4593 L -3.6026,-0.3929 L -3.5881,-0.3264 L -3.5709,-0.2598 L -3.5512,-0.1933 L -3.5288,-0.1269 L -3.5038,-0.0605 L -3.4762,0.0056 L -3.4459,0.0714 L -3.4129,0.1369 L -3.3773,0.2020 L -3.3390,0.2667 L -3.2981,0.3309 L -3.2545,0.3946 L -3.2083,0.4576 L -3.1594,0.5200 L -3.1078,0.5816 L -3.0535,0.6425 L -2.9966,0.7025 L -2.9369,0.7617 L -2.8746,0.8199 L -2.8096,0.8772 L -2.7418,0.9335 L -2.6714,0.9887 L -2.5982,1.0429 L -2.5222,1.0959 L -2.4434,1.1478 L -2.3617,1.1984 L -2.2773,1.2479 L -2.1900,1.2960 L -2.1001,1.3427 L -2.0078,1.3877 L -1.9140,1.4307 L -1.8209,1.4706 L -1.7341,1.5051 L -1.6682,1.5292 L -1.6343,1.5397 L -1.6235,1.5416 L -1.6138,1.5403 L -1.5987,1.5351 L -1.5791,1.5253 L -1.5562,1.5107 L -1.5305,1.4911 L -1.5027,1.4665 L -1.4730,1.4367 L -1.4416,1.4014 L -1.4087,1.3602 L -1.3741,1.3128 L -1.3377,1.2584 L -1.2994,1.1963 L -1.2590,1.1257 L -1.2161,1.0453 L -1.1700,0.9532 L -1.1199,0.8472 L -1.0650,0.7246 L -1.0042,0.5821 L -0.9361,0.4154 L -0.8592,0.2202 L -0.7738,-0.0041 L -0.6834,-0.2487 Z"/>
        <g id="arrows10">
          <use xlink:href="#arrow1" transform="translate(-3.5216,-1.2836) rotate(104.76) scale(2.4)"/>
        </g>
      </g>
      <g id="fieldline11">
        <path d="M -0.8543,-0.3109 L -0.7768,-0.5268 L -0.7060,-0.7306 L -0.6440,-0.9153 L -0.5910,-1.0794 L -0.5464,-1.2244 L -0.5090,-1.3530 L -0.4778,-1.4676 L -0.4519,-1.5705 L -0.4306,-1.6635 L -0.4134,-1.7480 L -0.3998,-1.8253 L -0.5809,-1.7367 L -0.7104,-1.6725 L -0.8072,-1.6219 L -0.8919,-1.5751 L -0.9685,-1.5299 L -1.0393,-1.4854 L -1.1053,-1.4409 L -1.1673,-1.3962 L -1.2258,-1.3510 L -1.2809,-1.3053 L -1.3330,-1.2589 L -1.3822,-1.2118 L -1.4286,-1.1639 L -1.4724,-1.1152 L -1.5136,-1.0657 L -1.5522,-1.0153 L -1.5884,-0.9640 L -1.6221,-0.9120 L -1.6534,-0.8590 L -1.6824,-0.8052 L -1.7089,-0.7506 L -1.7331,-0.6951 L -1.7550,-0.6386 L -1.7744,-0.5815 L -1.7916,-0.5234 L -1.8064,-0.4644 L -1.8188,-0.4047 L -1.8288,-0.3440 L -1.8365,-0.2824 L -1.8417,-0.2199 L -1.8445,-0.1565 L -1.8448,-0.0921 L -1.8425,-0.0266 L -1.8378,0.0399 L -1.8304,0.1077 L -1.8203,0.1767 L -1.8074,0.2471 L -1.7917,0.3193 L -1.7729,0.3934 L -1.7509,0.4700 L -1.7253,0.5496 L -1.6956,0.6334 L -1.6609,0.7237 L -1.6192,0.8246 L -1.5613,0.9572 L -1.4796,1.1412 L -1.4403,1.0734 L -1.3993,0.9978 L -1.3558,0.9129 L -1.3094,0.8174 L -1.2597,0.7096 L -1.2058,0.5872 L -1.1467,0.4473 L -1.0818,0.2875 L -1.0105,0.1061 L -0.9337,-0.0958 L -0.8543,-0.3109 Z"/>
        <g id="arrows11">
          <use xlink:href="#arrow1" transform="translate(-1.7355,-0.6338) rotate(104.37) scale(2.4)"/>
        </g>
      </g>
    </g>
    <g id="symbols2">
      <g id="magnet1" transform="translate(0.0,0.0) rotate(-70.0)">
        <defs>
          <linearGradient id="magnetGrad1" x1="0" x2="0" y1="1.0" y2="-1.0" gradientUnits="userSpaceOnUse">
            <stop stop-color="#000000" offset="0" stop-opacity="0.125"/>
            <stop stop-color="#ffffff" offset="0.07" stop-opacity="0.125"/>
            <stop stop-color="#ffffff" offset="0.25" stop-opacity="0.5"/>
            <stop stop-color="#ffffff" offset="0.6" stop-opacity="0.2"/>
            <stop stop-color="#000000" offset="1" stop-opacity="0.33"/>
          </linearGradient>
        </defs>
        <rect x="-2.0" y="-1.0" width="4.0" height="2.0" style="fill:#00cc00; stroke:none"/>
        <rect x="0" y="-1.0" width="2.0" height="2.0" style="fill:#ff0000; stroke:none"/>
        <rect x="-2.0" y="-1.0" width="4.0" height="2.0" style="fill:url(#magnetGrad1); stroke-width:0.15; stroke-linejoin:miter; stroke:#000000"/>
        <text text-anchor="middle" y="-1.0" transform="translate(-1.3,-0.44) scale(0.01,-0.01)" style="fill:#000000; stroke:none; font-size:120px; font-family:Bitstream Vera Sans">S</text>
        <text text-anchor="middle" y="-1.0" transform="translate(1.3,-0.44) scale(0.01,-0.01)" style="fill:#000000; stroke:none; font-size:120px; font-family:Bitstream Vera Sans">N</text>
      </g>
    </g>
  </g>
</svg>
