<?xml version='1.0' encoding='utf8'?>
<svg xmlns:xlink="http://www.w3.org/1999/xlink" xmlns="http://www.w3.org/2000/svg" version="1.1" baseProfile="full" width="800" height="600">
  <title>VFPt_charges_plus_minus</title>
  <desc>VFPt_charges_plus_minus
created with VectorFieldPlot 1.0
http://commons.wikimedia.org/wiki/User:Geek3/VectorFieldPlot

about: http://commons.wikimedia.org/wiki/Image:VFPt_charges_plus_minus.svg
rights: GNU Free Documentation license,
        Creative Commons Attribution ShareAlike license
  </desc>
  <defs>
    <radialGradient id="white_spot" cx="0.65" cy="0.7" r="0.75">
      <stop stop-color="#ffffff" offset="0" stop-opacity="0.7"/>
      <stop stop-color="#ffffff" offset="0.1" stop-opacity="0.5"/>
      <stop stop-color="#ffffff" offset="0.6" stop-opacity="0"/>
      <stop stop-color="#000000" offset="0.6" stop-opacity="0"/>
      <stop stop-color="#000000" offset="0.75" stop-opacity="0.05"/>
      <stop stop-color="#000000" offset="0.85" stop-opacity="0.15"/>
      <stop stop-color="#000000" offset="1" stop-opacity="0.5"/>
    </radialGradient>
    <path id="arrow1" stroke="none" fill="#000000" transform="scale(0.01)" d="M 0.3,0 L -2.2,2.25 L 3.8,0 L -2.2,-2.25 L 0.3,0 Z"/>
  </defs>
  <rect id="background" x="0" y="0" width="800" height="600" fill="#ffffff"/>
  <g id="image" transform="translate(400.0,300.0) scale(100.0,-100.0)">
    <g id="fieldlines" fill="none" stroke="#000000" stroke-width="0.02" stroke-linejoin="round" stroke-linecap="round">
      <g id="fieldline1">
        <path d="M -1.0000,0.0000 L -0.7255,0.0539 L -0.5768,0.0812 L -0.4615,0.1002 L -0.3626,0.1143 L -0.2740,0.1248 L -0.1918,0.1322 L -0.1137,0.1370 L -0.0376,0.1393 L 0.0376,0.1393 L 0.1136,0.1370 L 0.1918,0.1322 L 0.2740,0.1248 L 0.3626,0.1143 L 0.4615,0.1002 L 0.5768,0.0812 L 0.7255,0.0539 L 1.0000,0.0000"/>
        <g id="arrows1">
          <use xlink:href="#arrow1" transform="translate(-0.2111,0.1302) rotate(4.46) scale(2.0)"/>
          <use xlink:href="#arrow1" transform="translate(0.2112,0.1304) rotate(-5.11) scale(2.0)"/>
        </g>
      </g>
      <g id="fieldline2">
        <path d="M -1.0000,0.0000 L -0.8252,0.1159 L -0.7248,0.1800 L -0.6443,0.2288 L -0.5739,0.2688 L -0.5102,0.3024 L -0.4510,0.3309 L -0.3951,0.3551 L -0.3417,0.3757 L -0.2901,0.3930 L -0.2399,0.4073 L -0.1908,0.4188 L -0.1424,0.4276 L -0.0947,0.4338 L -0.0472,0.4375 L -0.0000,0.4388 L 0.0472,0.4375 L 0.0946,0.4338 L 0.1424,0.4276 L 0.1908,0.4188 L 0.2399,0.4073 L 0.2901,0.3930 L 0.3417,0.3757 L 0.3951,0.3551 L 0.4510,0.3309 L 0.5101,0.3024 L 0.5739,0.2688 L 0.6443,0.2288 L 0.7248,0.1800 L 0.8252,0.1159 L 1.0000,0.0000"/>
        <g id="arrows2">
          <use xlink:href="#arrow1" transform="translate(-0.3035,0.3880) rotate(17.24) scale(2.0)"/>
          <use xlink:href="#arrow1" transform="translate(0.3035,0.3881) rotate(-18.60) scale(2.0)"/>
        </g>
      </g>
      <g id="fieldline3">
        <path d="M -1.0000,0.0000 L -0.8945,0.1566 L -0.8302,0.2482 L -0.7764,0.3211 L -0.7274,0.3835 L -0.6814,0.4383 L -0.6374,0.4872 L -0.5946,0.5311 L -0.5526,0.5707 L -0.5111,0.6066 L -0.4700,0.6390 L -0.4290,0.6681 L -0.3882,0.6942 L -0.3474,0.7174 L -0.3066,0.7378 L -0.2659,0.7555 L -0.2250,0.7706 L -0.1842,0.7831 L -0.1433,0.7930 L -0.1024,0.8004 L -0.0614,0.8053 L -0.0205,0.8078 L 0.0205,0.8078 L 0.0615,0.8053 L 0.1024,0.8004 L 0.1433,0.7930 L 0.1842,0.7831 L 0.2251,0.7706 L 0.2659,0.7555 L 0.3067,0.7378 L 0.3474,0.7174 L 0.3882,0.6942 L 0.4290,0.6681 L 0.4700,0.6389 L 0.5111,0.6066 L 0.5526,0.5707 L 0.5946,0.5310 L 0.6374,0.4871 L 0.6814,0.4383 L 0.7274,0.3835 L 0.7764,0.3211 L 0.8302,0.2482 L 0.8945,0.1566 L 1.0000,0.0000"/>
        <g id="arrows3">
          <use xlink:href="#arrow1" transform="translate(-0.4967,0.6175) rotate(37.76) scale(2.0)"/>
          <use xlink:href="#arrow1" transform="translate(0.4966,0.6174) rotate(-39.37) scale(2.0)"/>
        </g>
      </g>
      <g id="fieldline4">
        <path d="M -1.0000,0.0000 L -0.9629,0.1824 L -0.9378,0.2948 L -0.9145,0.3882 L -0.8915,0.4705 L -0.8681,0.5453 L -0.8438,0.6144 L -0.8186,0.6787 L -0.7923,0.7390 L -0.7648,0.7957 L -0.7362,0.8490 L -0.7063,0.8993 L -0.6753,0.9465 L -0.6432,0.9909 L -0.6100,1.0326 L -0.5757,1.0715 L -0.5404,1.1077 L -0.5042,1.1413 L -0.4671,1.1722 L -0.4292,1.2005 L -0.3906,1.2262 L -0.3513,1.2493 L -0.3114,1.2699 L -0.2709,1.2878 L -0.2300,1.3032 L -0.1887,1.3160 L -0.1471,1.3262 L -0.1053,1.3339 L -0.0632,1.3390 L -0.0211,1.3416 L 0.0211,1.3416 L 0.0632,1.3390 L 0.1052,1.3339 L 0.1471,1.3262 L 0.1887,1.3160 L 0.2300,1.3032 L 0.2709,1.2878 L 0.3114,1.2699 L 0.3513,1.2493 L 0.3906,1.2262 L 0.4292,1.2005 L 0.4671,1.1722 L 0.5042,1.1413 L 0.5404,1.1077 L 0.5757,1.0715 L 0.6100,1.0326 L 0.6432,0.9909 L 0.6753,0.9465 L 0.7063,0.8993 L 0.7362,0.8490 L 0.7648,0.7957 L 0.7923,0.7390 L 0.8186,0.6787 L 0.8438,0.6144 L 0.8681,0.5453 L 0.8915,0.4705 L 0.9145,0.3882 L 0.9378,0.2948 L 0.9629,0.1824 L 1.0000,0.0000"/>
        <g id="arrows4">
          <use xlink:href="#arrow1" transform="translate(-0.7788,0.7664) rotate(63.58) scale(2.0)"/>
          <use xlink:href="#arrow1" transform="translate(0.7788,0.7664) rotate(-64.74) scale(2.0)"/>
        </g>
      </g>
      <g id="fieldline5">
        <path d="M -1.0000,0.0000 L -1.0364,0.1871 L -1.0577,0.3080 L -1.0737,0.4124 L -1.0858,0.5075 L -1.0948,0.5967 L -1.1008,0.6816 L -1.1041,0.7631 L -1.1048,0.8418 L -1.1031,0.9181 L -1.0989,0.9922 L -1.0923,1.0643 L -1.0834,1.1345 L -1.0722,1.2028 L -1.0589,1.2693 L -1.0433,1.3340 L -1.0256,1.3968 L -1.0059,1.4577 L -0.9841,1.5168 L -0.9604,1.5740 L -0.9349,1.6291 L -0.9075,1.6823 L -0.8783,1.7335 L -0.8475,1.7825 L -0.8150,1.8294 L -0.7811,1.8741 L -0.7457,1.9166 L -0.7089,1.9569 L -0.6708,1.9949 L -0.6315,2.0306 L -0.5911,2.0639 L -0.5496,2.0948 L -0.5072,2.1234 L -0.4638,2.1495 L -0.4197,2.1732 L -0.3749,2.1944 L -0.3294,2.2132 L -0.2834,2.2295 L -0.2369,2.2432 L -0.1900,2.2545 L -0.1428,2.2633 L -0.0953,2.2696 L -0.0477,2.2734 L -0.0000,2.2746 L 0.0477,2.2734 L 0.0953,2.2696 L 0.1428,2.2633 L 0.1899,2.2545 L 0.2369,2.2432 L 0.2833,2.2295 L 0.3294,2.2132 L 0.3749,2.1944 L 0.4197,2.1732 L 0.4638,2.1495 L 0.5071,2.1234 L 0.5496,2.0948 L 0.5911,2.0639 L 0.6315,2.0306 L 0.6708,1.9949 L 0.7089,1.9569 L 0.7457,1.9166 L 0.7811,1.8741 L 0.8150,1.8294 L 0.8475,1.7825 L 0.8783,1.7334 L 0.9075,1.6823 L 0.9349,1.6291 L 0.9604,1.5740 L 0.9841,1.5168 L 1.0059,1.4577 L 1.0256,1.3968 L 1.0433,1.3340 L 1.0589,1.2693 L 1.0722,1.2028 L 1.0834,1.1345 L 1.0923,1.0643 L 1.0989,0.9922 L 1.1031,0.9181 L 1.1048,0.8418 L 1.1041,0.7631 L 1.1008,0.6816 L 1.0948,0.5967 L 1.0858,0.5075 L 1.0737,0.4124 L 1.0577,0.3080 L 1.0364,0.1871 L 1.0000,0.0000"/>
        <g id="arrows5">
          <use xlink:href="#arrow1" transform="translate(-1.1044,0.7919) rotate(90.53) scale(2.0)"/>
          <use xlink:href="#arrow1" transform="translate(-0.6273,2.0332) rotate(40.07) scale(2.0)"/>
          <use xlink:href="#arrow1" transform="translate(0.6273,2.0332) rotate(-41.20) scale(2.0)"/>
          <use xlink:href="#arrow1" transform="translate(1.1042,0.7919) rotate(-91.05) scale(2.0)"/>
        </g>
      </g>
      <g id="fieldline6">
        <path d="M -1.0000,0.0000 L -1.1148,0.1734 L -1.1901,0.2910 L -1.2545,0.3962 L -1.3122,0.4951 L -1.3650,0.5906 L -1.4138,0.6839 L -1.4591,0.7759 L -1.5011,0.8670 L -1.5401,0.9576 L -1.5762,1.0478 L -1.6095,1.1377 L -1.6400,1.2274 L -1.6678,1.3170 L -1.6930,1.4065 L -1.7154,1.4958 L -1.7352,1.5849 L -1.7524,1.6737 L -1.7669,1.7623 L -1.7788,1.8505 L -1.7881,1.9384 L -1.7948,2.0257 L -1.7990,2.1125 L -1.8005,2.1987 L -1.7996,2.2843 L -1.7961,2.3690 L -1.7901,2.4529 L -1.7817,2.5359 L -1.7708,2.6178 L -1.7575,2.6987 L -1.7419,2.7785 L -1.7239,2.8570 L -1.7036,2.9342 L -1.6811,3.0100 M 1.6811,3.0100 L 1.7036,2.9342 L 1.7239,2.8570 L 1.7419,2.7785 L 1.7575,2.6987 L 1.7708,2.6179 L 1.7817,2.5359 L 1.7901,2.4529 L 1.7961,2.3690 L 1.7996,2.2843 L 1.8005,2.1987 L 1.7990,2.1125 L 1.7948,2.0257 L 1.7881,1.9384 L 1.7788,1.8505 L 1.7669,1.7623 L 1.7524,1.6737 L 1.7352,1.5849 L 1.7154,1.4958 L 1.6930,1.4065 L 1.6678,1.3170 L 1.6400,1.2274 L 1.6095,1.1377 L 1.5762,1.0478 L 1.5401,0.9576 L 1.5011,0.8670 L 1.4591,0.7759 L 1.4138,0.6839 L 1.3650,0.5906 L 1.3122,0.4951 L 1.2545,0.3962 L 1.1901,0.2910 L 1.1148,0.1734 L 1.0000,0.0000"/>
        <g id="arrows6">
          <use xlink:href="#arrow1" transform="translate(-1.4136,0.6842) rotate(116.62) scale(2.0)"/>
          <use xlink:href="#arrow1" transform="translate(-1.8003,2.2217) rotate(89.36) scale(2.0)"/>
          <use xlink:href="#arrow1" transform="translate(1.8000,2.2217) rotate(-89.99) scale(2.0)"/>
          <use xlink:href="#arrow1" transform="translate(1.4136,0.6842) rotate(-117.17) scale(2.0)"/>
        </g>
      </g>
      <g id="fieldline7">
        <path d="M -1.0000,0.0000 L -1.2019,0.1359 L -1.3428,0.2335 L -1.4685,0.3234 L -1.5864,0.4107 L -1.6993,0.4973 L -1.8085,0.5843 L -1.9149,0.6721 L -2.0189,0.7612 L -2.1207,0.8517 L -2.2206,0.9437 L -2.3186,1.0375 L -2.4149,1.1329 L -2.5094,1.2301 L -2.6022,1.3291 L -2.6932,1.4299 L -2.7825,1.5324 L -2.8700,1.6366 L -2.9557,1.7426 L -3.0395,1.8503 L -3.1216,1.9596 L -3.2017,2.0705 L -3.2799,2.1830 L -3.3561,2.2970 L -3.4303,2.4125 L -3.5025,2.5294 L -3.5726,2.6476 L -3.6406,2.7672 L -3.7064,2.8880 L -3.7701,3.0100 M 3.7701,3.0100 L 3.7064,2.8880 L 3.6406,2.7672 L 3.5726,2.6476 L 3.5025,2.5294 L 3.4303,2.4125 L 3.3561,2.2970 L 3.2799,2.1830 L 3.2017,2.0705 L 3.1216,1.9596 L 3.0395,1.8503 L 2.9557,1.7426 L 2.8700,1.6366 L 2.7825,1.5324 L 2.6932,1.4299 L 2.6022,1.3291 L 2.5094,1.2301 L 2.4149,1.1329 L 2.3186,1.0375 L 2.2206,0.9437 L 2.1207,0.8517 L 2.0189,0.7612 L 1.9149,0.6721 L 1.8085,0.5843 L 1.6993,0.4973 L 1.5864,0.4107 L 1.4685,0.3234 L 1.3428,0.2335 L 1.2019,0.1359 L 1.0000,0.0000"/>
        <g id="arrows7">
          <use xlink:href="#arrow1" transform="translate(-1.6530,0.4618) rotate(142.49) scale(2.0)"/>
          <use xlink:href="#arrow1" transform="translate(-2.6349,1.3654) rotate(132.10) scale(2.0)"/>
          <use xlink:href="#arrow1" transform="translate(-3.4405,2.4291) rotate(121.73) scale(2.0)"/>
          <use xlink:href="#arrow1" transform="translate(3.4404,2.4292) rotate(-122.13) scale(2.0)"/>
          <use xlink:href="#arrow1" transform="translate(2.6349,1.3654) rotate(-132.10) scale(2.0)"/>
          <use xlink:href="#arrow1" transform="translate(1.6530,0.4618) rotate(-142.49) scale(2.0)"/>
        </g>
      </g>
      <g id="fieldline8">
        <path d="M -1.0000,0.0000 L -1.3483,0.0701 L -1.6091,0.1248 L -1.8530,0.1783 L -2.0910,0.2329 L -2.3271,0.2895 L -2.5631,0.3485 L -2.8000,0.4101 L -3.0383,0.4746 L -3.2783,0.5419 L -3.5203,0.6123 L -3.7641,0.6856 L -4.0100,0.7621 M 4.0100,0.7621 L 3.7641,0.6856 L 3.5203,0.6123 L 3.2783,0.5419 L 3.0383,0.4746 L 2.8000,0.4101 L 2.5631,0.3485 L 2.3271,0.2895 L 2.0910,0.2329 L 1.8530,0.1783 L 1.6091,0.1248 L 1.3483,0.0701 L 1.0000,0.0000"/>
        <g id="arrows8">
          <use xlink:href="#arrow1" transform="translate(-1.7832,0.1630) rotate(167.62) scale(2.0)"/>
          <use xlink:href="#arrow1" transform="translate(-3.2737,0.5407) rotate(163.99) scale(2.0)"/>
          <use xlink:href="#arrow1" transform="translate(3.2737,0.5407) rotate(-164.20) scale(2.0)"/>
          <use xlink:href="#arrow1" transform="translate(1.7832,0.1630) rotate(-167.62) scale(2.0)"/>
        </g>
      </g>
      <g id="fieldline9">
        <path d="M -1.0000,0.0000 L -1.3483,-0.0701 L -1.6091,-0.1248 L -1.8530,-0.1783 L -2.0910,-0.2329 L -2.3271,-0.2895 L -2.5631,-0.3485 L -2.8000,-0.4101 L -3.0383,-0.4746 L -3.2783,-0.5419 L -3.5203,-0.6123 L -3.7641,-0.6856 L -4.0100,-0.7621 M 4.0100,-0.7621 L 3.7641,-0.6856 L 3.5203,-0.6123 L 3.2783,-0.5419 L 3.0383,-0.4746 L 2.8000,-0.4101 L 2.5631,-0.3485 L 2.3271,-0.2895 L 2.0910,-0.2329 L 1.8530,-0.1783 L 1.6091,-0.1248 L 1.3483,-0.0701 L 1.0000,0.0000"/>
        <g id="arrows9">
          <use xlink:href="#arrow1" transform="translate(-1.7832,-0.1630) rotate(-167.62) scale(2.0)"/>
          <use xlink:href="#arrow1" transform="translate(-3.2737,-0.5407) rotate(-163.99) scale(2.0)"/>
          <use xlink:href="#arrow1" transform="translate(3.2737,-0.5407) rotate(164.20) scale(2.0)"/>
          <use xlink:href="#arrow1" transform="translate(1.7832,-0.1630) rotate(167.62) scale(2.0)"/>
        </g>
      </g>
      <g id="fieldline10">
        <path d="M -1.0000,0.0000 L -1.2019,-0.1359 L -1.3428,-0.2335 L -1.4685,-0.3234 L -1.5864,-0.4107 L -1.6993,-0.4973 L -1.8085,-0.5843 L -1.9149,-0.6721 L -2.0189,-0.7612 L -2.1207,-0.8517 L -2.2206,-0.9437 L -2.3186,-1.0375 L -2.4149,-1.1329 L -2.5094,-1.2301 L -2.6022,-1.3291 L -2.6932,-1.4299 L -2.7825,-1.5324 L -2.8700,-1.6366 L -2.9557,-1.7426 L -3.0395,-1.8503 L -3.1216,-1.9596 L -3.2017,-2.0705 L -3.2799,-2.1830 L -3.3561,-2.2970 L -3.4303,-2.4125 L -3.5025,-2.5294 L -3.5726,-2.6476 L -3.6406,-2.7672 L -3.7064,-2.8880 L -3.7701,-3.0100 M 3.7701,-3.0100 L 3.7064,-2.8880 L 3.6406,-2.7672 L 3.5726,-2.6476 L 3.5025,-2.5294 L 3.4303,-2.4125 L 3.3561,-2.2970 L 3.2799,-2.1830 L 3.2017,-2.0705 L 3.1216,-1.9596 L 3.0395,-1.8503 L 2.9557,-1.7426 L 2.8700,-1.6366 L 2.7825,-1.5324 L 2.6932,-1.4299 L 2.6022,-1.3291 L 2.5094,-1.2301 L 2.4149,-1.1329 L 2.3186,-1.0375 L 2.2206,-0.9437 L 2.1207,-0.8517 L 2.0189,-0.7612 L 1.9149,-0.6721 L 1.8085,-0.5843 L 1.6993,-0.4973 L 1.5864,-0.4107 L 1.4685,-0.3234 L 1.3428,-0.2335 L 1.2019,-0.1359 L 1.0000,0.0000"/>
        <g id="arrows10">
          <use xlink:href="#arrow1" transform="translate(-1.6530,-0.4618) rotate(-142.49) scale(2.0)"/>
          <use xlink:href="#arrow1" transform="translate(-2.6349,-1.3654) rotate(-132.10) scale(2.0)"/>
          <use xlink:href="#arrow1" transform="translate(-3.4405,-2.4291) rotate(-121.73) scale(2.0)"/>
          <use xlink:href="#arrow1" transform="translate(3.4404,-2.4292) rotate(122.13) scale(2.0)"/>
          <use xlink:href="#arrow1" transform="translate(2.6349,-1.3654) rotate(132.10) scale(2.0)"/>
          <use xlink:href="#arrow1" transform="translate(1.6530,-0.4618) rotate(142.49) scale(2.0)"/>
        </g>
      </g>
      <g id="fieldline11">
        <path d="M -1.0000,0.0000 L -1.1148,-0.1734 L -1.1901,-0.2910 L -1.2545,-0.3962 L -1.3122,-0.4951 L -1.3650,-0.5906 L -1.4138,-0.6839 L -1.4591,-0.7759 L -1.5011,-0.8670 L -1.5401,-0.9576 L -1.5762,-1.0478 L -1.6095,-1.1377 L -1.6400,-1.2274 L -1.6678,-1.3170 L -1.6930,-1.4065 L -1.7154,-1.4958 L -1.7352,-1.5849 L -1.7524,-1.6737 L -1.7669,-1.7623 L -1.7788,-1.8505 L -1.7881,-1.9384 L -1.7948,-2.0257 L -1.7990,-2.1125 L -1.8005,-2.1987 L -1.7996,-2.2843 L -1.7961,-2.3690 L -1.7901,-2.4529 L -1.7817,-2.5359 L -1.7708,-2.6178 L -1.7575,-2.6987 L -1.7419,-2.7785 L -1.7239,-2.8570 L -1.7036,-2.9342 L -1.6811,-3.0100 M 1.6811,-3.0100 L 1.7036,-2.9342 L 1.7239,-2.8570 L 1.7419,-2.7785 L 1.7575,-2.6987 L 1.7708,-2.6179 L 1.7817,-2.5359 L 1.7901,-2.4529 L 1.7961,-2.3690 L 1.7996,-2.2843 L 1.8005,-2.1987 L 1.7990,-2.1125 L 1.7948,-2.0257 L 1.7881,-1.9384 L 1.7788,-1.8505 L 1.7669,-1.7623 L 1.7524,-1.6737 L 1.7352,-1.5849 L 1.7154,-1.4958 L 1.6930,-1.4065 L 1.6678,-1.3170 L 1.6400,-1.2274 L 1.6095,-1.1377 L 1.5762,-1.0478 L 1.5401,-0.9576 L 1.5011,-0.8670 L 1.4591,-0.7759 L 1.4138,-0.6839 L 1.3650,-0.5906 L 1.3122,-0.4951 L 1.2545,-0.3962 L 1.1901,-0.2910 L 1.1148,-0.1734 L 1.0000,0.0000"/>
        <g id="arrows11">
          <use xlink:href="#arrow1" transform="translate(-1.4136,-0.6842) rotate(-116.62) scale(2.0)"/>
          <use xlink:href="#arrow1" transform="translate(-1.8003,-2.2217) rotate(-89.36) scale(2.0)"/>
          <use xlink:href="#arrow1" transform="translate(1.8000,-2.2217) rotate(89.99) scale(2.0)"/>
          <use xlink:href="#arrow1" transform="translate(1.4136,-0.6842) rotate(117.17) scale(2.0)"/>
        </g>
      </g>
      <g id="fieldline12">
        <path d="M -1.0000,0.0000 L -1.0364,-0.1871 L -1.0577,-0.3080 L -1.0737,-0.4124 L -1.0858,-0.5075 L -1.0948,-0.5967 L -1.1008,-0.6816 L -1.1041,-0.7631 L -1.1048,-0.8418 L -1.1031,-0.9181 L -1.0989,-0.9922 L -1.0923,-1.0643 L -1.0834,-1.1345 L -1.0722,-1.2028 L -1.0589,-1.2693 L -1.0433,-1.3340 L -1.0256,-1.3968 L -1.0059,-1.4577 L -0.9841,-1.5168 L -0.9604,-1.5740 L -0.9349,-1.6291 L -0.9075,-1.6823 L -0.8783,-1.7335 L -0.8475,-1.7825 L -0.8150,-1.8294 L -0.7811,-1.8741 L -0.7457,-1.9166 L -0.7089,-1.9569 L -0.6708,-1.9949 L -0.6315,-2.0306 L -0.5911,-2.0639 L -0.5496,-2.0948 L -0.5072,-2.1234 L -0.4638,-2.1495 L -0.4197,-2.1732 L -0.3749,-2.1944 L -0.3294,-2.2132 L -0.2834,-2.2295 L -0.2369,-2.2432 L -0.1900,-2.2545 L -0.1428,-2.2633 L -0.0953,-2.2696 L -0.0477,-2.2734 L -0.0000,-2.2746 L 0.0477,-2.2734 L 0.0953,-2.2696 L 0.1428,-2.2633 L 0.1899,-2.2545 L 0.2369,-2.2432 L 0.2833,-2.2295 L 0.3294,-2.2132 L 0.3749,-2.1944 L 0.4197,-2.1732 L 0.4638,-2.1495 L 0.5071,-2.1234 L 0.5496,-2.0948 L 0.5911,-2.0639 L 0.6315,-2.0306 L 0.6708,-1.9949 L 0.7089,-1.9569 L 0.7457,-1.9166 L 0.7811,-1.8741 L 0.8150,-1.8294 L 0.8475,-1.7825 L 0.8783,-1.7334 L 0.9075,-1.6823 L 0.9349,-1.6291 L 0.9604,-1.5740 L 0.9841,-1.5168 L 1.0059,-1.4577 L 1.0256,-1.3968 L 1.0433,-1.3340 L 1.0589,-1.2693 L 1.0722,-1.2028 L 1.0834,-1.1345 L 1.0923,-1.0643 L 1.0989,-0.9922 L 1.1031,-0.9181 L 1.1048,-0.8418 L 1.1041,-0.7631 L 1.1008,-0.6816 L 1.0948,-0.5967 L 1.0858,-0.5075 L 1.0737,-0.4124 L 1.0577,-0.3080 L 1.0364,-0.1871 L 1.0000,0.0000"/>
        <g id="arrows12">
          <use xlink:href="#arrow1" transform="translate(-1.1044,-0.7919) rotate(-90.53) scale(2.0)"/>
          <use xlink:href="#arrow1" transform="translate(-0.6273,-2.0332) rotate(-40.07) scale(2.0)"/>
          <use xlink:href="#arrow1" transform="translate(0.6273,-2.0332) rotate(41.20) scale(2.0)"/>
          <use xlink:href="#arrow1" transform="translate(1.1042,-0.7919) rotate(91.05) scale(2.0)"/>
        </g>
      </g>
      <g id="fieldline13">
        <path d="M -1.0000,0.0000 L -0.9629,-0.1824 L -0.9378,-0.2948 L -0.9145,-0.3882 L -0.8915,-0.4705 L -0.8681,-0.5453 L -0.8438,-0.6144 L -0.8186,-0.6787 L -0.7923,-0.7390 L -0.7648,-0.7957 L -0.7362,-0.8490 L -0.7063,-0.8993 L -0.6753,-0.9465 L -0.6432,-0.9909 L -0.6100,-1.0326 L -0.5757,-1.0715 L -0.5404,-1.1077 L -0.5042,-1.1413 L -0.4671,-1.1722 L -0.4292,-1.2005 L -0.3906,-1.2262 L -0.3513,-1.2493 L -0.3114,-1.2699 L -0.2709,-1.2878 L -0.2300,-1.3032 L -0.1887,-1.3160 L -0.1471,-1.3262 L -0.1053,-1.3339 L -0.0632,-1.3390 L -0.0211,-1.3416 L 0.0211,-1.3416 L 0.0632,-1.3390 L 0.1052,-1.3339 L 0.1471,-1.3262 L 0.1887,-1.3160 L 0.2300,-1.3032 L 0.2709,-1.2878 L 0.3114,-1.2699 L 0.3513,-1.2493 L 0.3906,-1.2262 L 0.4292,-1.2005 L 0.4671,-1.1722 L 0.5042,-1.1413 L 0.5404,-1.1077 L 0.5757,-1.0715 L 0.6100,-1.0326 L 0.6432,-0.9909 L 0.6753,-0.9465 L 0.7063,-0.8993 L 0.7362,-0.8490 L 0.7648,-0.7957 L 0.7923,-0.7390 L 0.8186,-0.6787 L 0.8438,-0.6144 L 0.8681,-0.5453 L 0.8915,-0.4705 L 0.9145,-0.3882 L 0.9378,-0.2948 L 0.9629,-0.1824 L 1.0000,0.0000"/>
        <g id="arrows13">
          <use xlink:href="#arrow1" transform="translate(-0.7788,-0.7664) rotate(-63.58) scale(2.0)"/>
          <use xlink:href="#arrow1" transform="translate(0.7788,-0.7664) rotate(64.74) scale(2.0)"/>
        </g>
      </g>
      <g id="fieldline14">
        <path d="M -1.0000,0.0000 L -0.8945,-0.1566 L -0.8302,-0.2482 L -0.7764,-0.3211 L -0.7274,-0.3835 L -0.6814,-0.4383 L -0.6374,-0.4872 L -0.5946,-0.5311 L -0.5526,-0.5707 L -0.5111,-0.6066 L -0.4700,-0.6390 L -0.4290,-0.6681 L -0.3882,-0.6942 L -0.3474,-0.7174 L -0.3066,-0.7378 L -0.2659,-0.7555 L -0.2250,-0.7706 L -0.1842,-0.7831 L -0.1433,-0.7930 L -0.1024,-0.8004 L -0.0614,-0.8053 L -0.0205,-0.8078 L 0.0205,-0.8078 L 0.0615,-0.8053 L 0.1024,-0.8004 L 0.1433,-0.7930 L 0.1842,-0.7831 L 0.2251,-0.7706 L 0.2659,-0.7555 L 0.3067,-0.7378 L 0.3474,-0.7174 L 0.3882,-0.6942 L 0.4290,-0.6681 L 0.4700,-0.6389 L 0.5111,-0.6066 L 0.5526,-0.5707 L 0.5946,-0.5310 L 0.6374,-0.4871 L 0.6814,-0.4383 L 0.7274,-0.3835 L 0.7764,-0.3211 L 0.8302,-0.2482 L 0.8945,-0.1566 L 1.0000,0.0000"/>
        <g id="arrows14">
          <use xlink:href="#arrow1" transform="translate(-0.4967,-0.6175) rotate(-37.76) scale(2.0)"/>
          <use xlink:href="#arrow1" transform="translate(0.4966,-0.6174) rotate(39.37) scale(2.0)"/>
        </g>
      </g>
      <g id="fieldline15">
        <path d="M -1.0000,0.0000 L -0.8252,-0.1159 L -0.7248,-0.1800 L -0.6443,-0.2288 L -0.5739,-0.2688 L -0.5102,-0.3024 L -0.4510,-0.3309 L -0.3951,-0.3551 L -0.3417,-0.3757 L -0.2901,-0.3930 L -0.2399,-0.4073 L -0.1908,-0.4188 L -0.1424,-0.4276 L -0.0947,-0.4338 L -0.0472,-0.4375 L -0.0000,-0.4388 L 0.0472,-0.4375 L 0.0946,-0.4338 L 0.1424,-0.4276 L 0.1908,-0.4188 L 0.2399,-0.4073 L 0.2901,-0.3930 L 0.3417,-0.3757 L 0.3951,-0.3551 L 0.4510,-0.3309 L 0.5101,-0.3024 L 0.5739,-0.2688 L 0.6443,-0.2288 L 0.7248,-0.1800 L 0.8252,-0.1159 L 1.0000,0.0000"/>
        <g id="arrows15">
          <use xlink:href="#arrow1" transform="translate(-0.3035,-0.3880) rotate(-17.24) scale(2.0)"/>
          <use xlink:href="#arrow1" transform="translate(0.3035,-0.3881) rotate(18.60) scale(2.0)"/>
        </g>
      </g>
      <g id="fieldline16">
        <path d="M -1.0000,0.0000 L -0.7255,-0.0539 L -0.5768,-0.0812 L -0.4615,-0.1002 L -0.3626,-0.1143 L -0.2740,-0.1248 L -0.1918,-0.1322 L -0.1137,-0.1370 L -0.0376,-0.1393 L 0.0376,-0.1393 L 0.1136,-0.1370 L 0.1918,-0.1322 L 0.2740,-0.1248 L 0.3626,-0.1143 L 0.4615,-0.1002 L 0.5768,-0.0812 L 0.7255,-0.0539 L 1.0000,0.0000"/>
        <g id="arrows16">
          <use xlink:href="#arrow1" transform="translate(-0.2111,-0.1302) rotate(-4.46) scale(2.0)"/>
          <use xlink:href="#arrow1" transform="translate(0.2112,-0.1304) rotate(5.11) scale(2.0)"/>
        </g>
      </g>
    </g>
    <g id="symbols">
      <g id="charge1" transform="translate(-1.0,0.0) scale(0.01,0.01)">
        <circle style="fill:#ff0000; stroke:none" cx="0" cy="0" r="14"/>
        <circle cx="0" cy="0" r="14" style="fill:url(#white_spot); stroke:#000000; stroke-width:2"/>
        <path d="M 2,2 V 8 H -2 V 2 H -8 V -2 H -2 V -8 H 2 V -2 H 8 V 2 H 2 Z" style="fill:#000000; stroke:none"/>
      </g>
      <g id="charge2" transform="translate(1.0,0.0) scale(0.01,0.01)">
        <circle style="fill:#0000ff; stroke:none" cx="0" cy="0" r="14"/>
        <circle cx="0" cy="0" r="14" style="fill:url(#white_spot); stroke:#000000; stroke-width:2"/>
        <path d="M 8,2 H -8 V -2 H 8 V 2 Z" style="fill:#000000; stroke:none"/>
      </g>
    </g>
  </g>
</svg>
