<?xml version='1.0' encoding='utf8'?>
<svg xmlns:xlink="http://www.w3.org/1999/xlink" xmlns="http://www.w3.org/2000/svg" version="1.1" baseProfile="full" width="800" height="600">
  <title>VFPt_dipole</title>
  <desc>VFPt_dipole
created with VectorFieldPlot 1.0
http://commons.wikimedia.org/wiki/User:Geek3/VectorFieldPlot

about: http://commons.wikimedia.org/wiki/File:VFPt_dipole.svg
rights: GNU Free Documentation license,
        Creative Commons Attribution ShareAlike license
  </desc>
  <defs>
    <path id="arrow1" stroke="none" fill="#000000" transform="scale(0.01)" d="M 0.3,0 L -2.2,2.25 L 3.8,0 L -2.2,-2.25 L 0.3,0 Z"/>
  </defs>
  <rect id="background" x="0" y="0" width="800" height="600" fill="#ffffff"/>
  <g id="image" transform="translate(400.0,300.0) scale(100.0,-100.0)">
    <g id="fieldlines" fill="none" stroke="#000000" stroke-width="0.02" stroke-linejoin="round" stroke-linecap="round">
      <g id="fieldline1">
        <path d="M -4.0100,0.5662 L -3.7206,0.5055 L -3.4362,0.4482 L -3.1570,0.3943 L -2.8834,0.3438 L -2.6156,0.2967 L -2.3541,0.2531 L -2.0992,0.2129 L -1.8515,0.1762 L -1.6114,0.1430 L -1.3796,0.1131 L -1.1568,0.0868 L -0.9441,0.0639 L -0.7424,0.0446 L -0.5534,0.0287 L -0.3793,0.0162 L -0.2232,0.0073 L -0.0921,0.0019 L 0.0000,0.0000 L 0.0921,0.0019 L 0.2232,0.0073 L 0.3793,0.0162 L 0.5534,0.0287 L 0.7424,0.0446 L 0.9441,0.0639 L 1.1568,0.0868 L 1.3796,0.1131 L 1.6114,0.1430 L 1.8515,0.1762 L 2.0992,0.2129 L 2.3541,0.2531 L 2.6156,0.2967 L 2.8833,0.3438 L 3.1570,0.3943 L 3.4361,0.4482 L 3.7206,0.5055 L 4.0100,0.5662"/>
        <g id="arrows1">
          <use xlink:href="#arrow1" transform="translate(-2.0162,0.2006) rotate(-8.43) scale(2.0)"/>
          <use xlink:href="#arrow1" transform="translate(2.0162,0.2006) rotate(8.43) scale(2.0)"/>
        </g>
      </g>
      <g id="fieldline2">
        <path d="M -4.0100,1.9864 L -3.8796,1.8775 L -3.7484,1.7713 L -3.6167,1.6678 L -3.4845,1.5670 L -3.3518,1.4689 L -3.2187,1.3737 L -3.0855,1.2814 L -2.9520,1.1919 L -2.8185,1.1053 L -2.6851,1.0218 L -2.5518,0.9412 L -2.4188,0.8637 L -2.2863,0.7893 L -2.1542,0.7180 L -2.0229,0.6499 L -1.8924,0.5849 L -1.7628,0.5232 L -1.6344,0.4648 L -1.5074,0.4097 L -1.3819,0.3579 L -1.2581,0.3094 L -1.1363,0.2644 L -1.0167,0.2228 L -0.8997,0.1847 L -0.7855,0.1501 L -0.6746,0.1190 L -0.5673,0.0914 L -0.4643,0.0674 L -0.3661,0.0470 L -0.2735,0.0303 L -0.1879,0.0172 L -0.1107,0.0078 L -0.0457,0.0021 L 0.0000,0.0000 L 0.0457,0.0021 L 0.1107,0.0078 L 0.1879,0.0172 L 0.2735,0.0303 L 0.3661,0.0470 L 0.4643,0.0674 L 0.5673,0.0914 L 0.6746,0.1190 L 0.7855,0.1501 L 0.8997,0.1847 L 1.0167,0.2228 L 1.1363,0.2644 L 1.2581,0.3094 L 1.3819,0.3579 L 1.5074,0.4096 L 1.6344,0.4648 L 1.7628,0.5232 L 1.8924,0.5849 L 2.0229,0.6499 L 2.1542,0.7180 L 2.2863,0.7893 L 2.4188,0.8637 L 2.5518,0.9412 L 2.6851,1.0218 L 2.8185,1.1053 L 2.9520,1.1919 L 3.0855,1.2814 L 3.2187,1.3737 L 3.3518,1.4689 L 3.4845,1.5670 L 3.6167,1.6678 L 3.7484,1.7713 L 3.8796,1.8775 L 4.0100,1.9864"/>
        <g id="arrows2">
          <use xlink:href="#arrow1" transform="translate(-2.1392,0.7103) rotate(-27.48) scale(2.0)"/>
          <use xlink:href="#arrow1" transform="translate(2.1392,0.7104) rotate(27.85) scale(2.0)"/>
        </g>
      </g>
      <g id="fieldline3">
        <path d="M -2.8694,3.0100 L -2.8380,2.9047 L -2.8042,2.8000 L -2.7681,2.6961 L -2.7297,2.5929 L -2.6889,2.4905 L -2.6459,2.3891 L -2.6007,2.2887 L -2.5533,2.1895 L -2.5037,2.0914 L -2.4520,1.9946 L -2.3982,1.8991 L -2.3425,1.8051 L -2.2847,1.7125 L -2.2251,1.6216 L -2.1637,1.5323 L -2.1005,1.4448 L -2.0356,1.3592 L -1.9690,1.2754 L -1.9010,1.1937 L -1.8314,1.1140 L -1.7605,1.0364 L -1.6883,0.9611 L -1.6149,0.8880 L -1.5404,0.8174 L -1.4650,0.7491 L -1.3887,0.6834 L -1.3116,0.6203 L -1.2340,0.5599 L -1.1559,0.5022 L -1.0775,0.4473 L -0.9989,0.3952 L -0.9204,0.3461 L -0.8421,0.3000 L -0.7642,0.2569 L -0.6869,0.2170 L -0.6105,0.1803 L -0.5353,0.1468 L -0.4616,0.1166 L -0.3897,0.0898 L -0.3201,0.0663 L -0.2532,0.0464 L -0.1898,0.0299 L -0.1308,0.0170 L -0.0773,0.0077 L -0.0320,0.0020 L 0.0000,0.0000 L 0.0320,0.0020 L 0.0773,0.0077 L 0.1308,0.0170 L 0.1898,0.0299 L 0.2532,0.0464 L 0.3201,0.0663 L 0.3897,0.0898 L 0.4616,0.1166 L 0.5353,0.1468 L 0.6105,0.1803 L 0.6869,0.2170 L 0.7642,0.2569 L 0.8421,0.3000 L 0.9204,0.3461 L 0.9989,0.3952 L 1.0775,0.4473 L 1.1559,0.5022 L 1.2340,0.5599 L 1.3116,0.6203 L 1.3887,0.6834 L 1.4650,0.7491 L 1.5404,0.8174 L 1.6149,0.8880 L 1.6883,0.9611 L 1.7605,1.0364 L 1.8314,1.1140 L 1.9010,1.1937 L 1.9690,1.2754 L 2.0356,1.3592 L 2.1005,1.4448 L 2.1637,1.5323 L 2.2251,1.6216 L 2.2847,1.7125 L 2.3425,1.8051 L 2.3982,1.8991 L 2.4520,1.9946 L 2.5037,2.0914 L 2.5533,2.1895 L 2.6007,2.2887 L 2.6459,2.3891 L 2.6889,2.4905 L 2.7297,2.5929 L 2.7681,2.6961 L 2.8042,2.8000 L 2.8380,2.9047 L 2.8694,3.0100"/>
        <g id="arrows3">
          <use xlink:href="#arrow1" transform="translate(-1.8287,1.1114) rotate(-47.90) scale(2.0)"/>
          <use xlink:href="#arrow1" transform="translate(1.8286,1.1114) rotate(48.41) scale(2.0)"/>
        </g>
      </g>
      <g id="fieldline4">
        <path d="M -1.2648,3.0100 L -1.2947,2.9489 L -1.3226,2.8862 L -1.3483,2.8219 L -1.3719,2.7561 L -1.3932,2.6889 L -1.4123,2.6204 L -1.4291,2.5507 L -1.4434,2.4798 L -1.4554,2.4080 L -1.4649,2.3352 L -1.4720,2.2616 L -1.4765,2.1873 L -1.4785,2.1124 L -1.4779,2.0370 L -1.4748,1.9613 L -1.4691,1.8853 L -1.4608,1.8091 L -1.4500,1.7330 L -1.4366,1.6569 L -1.4206,1.5811 L -1.4021,1.5056 L -1.3810,1.4306 L -1.3575,1.3562 L -1.3315,1.2825 L -1.3031,1.2096 L -1.2724,1.1378 L -1.2393,1.0670 L -1.2040,0.9975 L -1.1665,0.9293 L -1.1269,0.8625 L -1.0853,0.7974 L -1.0417,0.7340 L -0.9964,0.6724 L -0.9493,0.6128 L -0.9006,0.5553 L -0.8505,0.4999 L -0.7990,0.4469 L -0.7463,0.3963 L -0.6926,0.3483 L -0.6381,0.3029 L -0.5829,0.2602 L -0.5274,0.2205 L -0.4716,0.1837 L -0.4159,0.1500 L -0.3606,0.1195 L -0.3061,0.0922 L -0.2527,0.0683 L -0.2008,0.0479 L -0.1512,0.0309 L -0.1046,0.0176 L -0.0620,0.0080 L -0.0258,0.0021 L 0.0000,0.0000 L 0.0258,0.0021 L 0.0620,0.0080 L 0.1046,0.0176 L 0.1512,0.0309 L 0.2008,0.0479 L 0.2527,0.0683 L 0.3061,0.0922 L 0.3606,0.1195 L 0.4159,0.1500 L 0.4716,0.1837 L 0.5274,0.2205 L 0.5829,0.2602 L 0.6381,0.3029 L 0.6926,0.3483 L 0.7463,0.3963 L 0.7990,0.4469 L 0.8505,0.4999 L 0.9006,0.5553 L 0.9493,0.6128 L 0.9964,0.6724 L 1.0417,0.7340 L 1.0853,0.7974 L 1.1269,0.8625 L 1.1665,0.9293 L 1.2040,0.9975 L 1.2393,1.0670 L 1.2724,1.1378 L 1.3031,1.2096 L 1.3315,1.2825 L 1.3575,1.3562 L 1.3810,1.4306 L 1.4021,1.5056 L 1.4206,1.5811 L 1.4366,1.6569 L 1.4500,1.7329 L 1.4608,1.8091 L 1.4691,1.8852 L 1.4748,1.9613 L 1.4779,2.0370 L 1.4785,2.1124 L 1.4765,2.1873 L 1.4720,2.2616 L 1.4649,2.3352 L 1.4554,2.4080 L 1.4434,2.4798 L 1.4291,2.5507 L 1.4123,2.6204 L 1.3932,2.6889 L 1.3719,2.7561 L 1.3483,2.8219 L 1.3226,2.8862 L 1.2947,2.9489 L 1.2648,3.0100"/>
        <g id="arrows4">
          <use xlink:href="#arrow1" transform="translate(-1.3036,1.2121) rotate(-67.47) scale(2.0)"/>
          <use xlink:href="#arrow1" transform="translate(1.3036,1.2120) rotate(68.19) scale(2.0)"/>
        </g>
      </g>
      <g id="fieldline5">
        <path d="M 0.0000,0.0000 L 0.0217,0.0022 L 0.0513,0.0081 L 0.0856,0.0177 L 0.1228,0.0309 L 0.1619,0.0476 L 0.2023,0.0676 L 0.2433,0.0908 L 0.2846,0.1172 L 0.3258,0.1465 L 0.3665,0.1787 L 0.4065,0.2136 L 0.4456,0.2510 L 0.4834,0.2908 L 0.5199,0.3328 L 0.5548,0.3770 L 0.5880,0.4231 L 0.6193,0.4709 L 0.6486,0.5203 L 0.6758,0.5712 L 0.7008,0.6234 L 0.7235,0.6766 L 0.7439,0.7308 L 0.7619,0.7858 L 0.7774,0.8414 L 0.7903,0.8974 L 0.8008,0.9537 L 0.8087,1.0101 L 0.8140,1.0665 L 0.8168,1.1227 L 0.8171,1.1785 L 0.8148,1.2338 L 0.8100,1.2884 L 0.8027,1.3423 L 0.7930,1.3952 L 0.7810,1.4470 L 0.7666,1.4976 L 0.7500,1.5469 L 0.7313,1.5948 L 0.7104,1.6411 L 0.6875,1.6857 L 0.6627,1.7285 L 0.6361,1.7695 L 0.6077,1.8086 L 0.5776,1.8456 L 0.5461,1.8805 L 0.5130,1.9133 L 0.4787,1.9439 L 0.4430,1.9722 L 0.4063,1.9981 L 0.3685,2.0217 L 0.3298,2.0429 L 0.2903,2.0617 L 0.2501,2.0780 L 0.2092,2.0919 L 0.1678,2.1032 L 0.1261,2.1120 L 0.0840,2.1183 L 0.0418,2.1221 L -0.0006,2.1233 L -0.0430,2.1220 L -0.0852,2.1182 L -0.1273,2.1118 L -0.1690,2.1029 L -0.2104,2.0915 L -0.2512,2.0776 L -0.2914,2.0612 L -0.3309,2.0424 L -0.3696,2.0211 L -0.4074,1.9974 L -0.4441,1.9714 L -0.4797,1.9430 L -0.5140,1.9124 L -0.5470,1.8796 L -0.5785,1.8446 L -0.6085,1.8075 L -0.6369,1.7684 L -0.6635,1.7273 L -0.6882,1.6844 L -0.7110,1.6397 L -0.7318,1.5934 L -0.7506,1.5455 L -0.7671,1.4962 L -0.7814,1.4455 L -0.7934,1.3937 L -0.8030,1.3407 L -0.8101,1.2869 L -0.8149,1.2322 L -0.8171,1.1769 L -0.8168,1.1211 L -0.8139,1.0649 L -0.8085,1.0085 L -0.8005,0.9521 L -0.7900,0.8958 L -0.7769,0.8398 L -0.7614,0.7842 L -0.7434,0.7293 L -0.7229,0.6751 L -0.7001,0.6219 L -0.6750,0.5697 L -0.6478,0.5189 L -0.6184,0.4695 L -0.5870,0.4217 L -0.5538,0.3757 L -0.5189,0.3316 L -0.4824,0.2896 L -0.4445,0.2499 L -0.4054,0.2125 L -0.3654,0.1777 L -0.3246,0.1456 L -0.2834,0.1164 L -0.2421,0.0901 L -0.2011,0.0670 L -0.1608,0.0470 L -0.1217,0.0305 L -0.0845,0.0174 L -0.0504,0.0079 L -0.0209,0.0021 L -0.0000,0.0000 Z"/>
        <g id="arrows5">
          <use xlink:href="#arrow1" transform="translate(0.8152,1.0976) rotate(88.05) scale(2.0)"/>
          <use xlink:href="#arrow1" transform="translate(-0.8154,1.0976) rotate(-86.49) scale(2.0)"/>
        </g>
      </g>
      <g id="fieldline6">
        <path d="M 0.0000,0.0000 L 0.0186,0.0023 L 0.0431,0.0083 L 0.0710,0.0180 L 0.1008,0.0311 L 0.1316,0.0476 L 0.1628,0.0671 L 0.1939,0.0897 L 0.2245,0.1151 L 0.2542,0.1431 L 0.2826,0.1734 L 0.3097,0.2060 L 0.3350,0.2406 L 0.3585,0.2769 L 0.3800,0.3148 L 0.3992,0.3541 L 0.4163,0.3944 L 0.4309,0.4357 L 0.4431,0.4776 L 0.4528,0.5200 L 0.4599,0.5626 L 0.4644,0.6053 L 0.4665,0.6478 L 0.4659,0.6898 L 0.4628,0.7313 L 0.4573,0.7720 L 0.4494,0.8118 L 0.4391,0.8504 L 0.4265,0.8876 L 0.4118,0.9234 L 0.3950,0.9576 L 0.3763,0.9901 L 0.3557,1.0206 L 0.3335,1.0492 L 0.3096,1.0757 L 0.2844,1.1001 L 0.2578,1.1222 L 0.2301,1.1419 L 0.2013,1.1593 L 0.1717,1.1743 L 0.1413,1.1868 L 0.1103,1.1969 L 0.0789,1.2044 L 0.0471,1.2094 L 0.0151,1.2119 L -0.0170,1.2118 L -0.0490,1.2092 L -0.0807,1.2040 L -0.1122,1.1963 L -0.1431,1.1862 L -0.1734,1.1735 L -0.2030,1.1584 L -0.2317,1.1408 L -0.2594,1.1209 L -0.2859,1.0987 L -0.3111,1.0742 L -0.3348,1.0476 L -0.3570,1.0189 L -0.3774,0.9882 L -0.3961,0.9557 L -0.4127,0.9214 L -0.4273,0.8855 L -0.4397,0.8481 L -0.4499,0.8094 L -0.4577,0.7697 L -0.4631,0.7289 L -0.4660,0.6874 L -0.4664,0.6453 L -0.4643,0.6028 L -0.4595,0.5601 L -0.4522,0.5175 L -0.4424,0.4751 L -0.4301,0.4332 L -0.4153,0.3920 L -0.3982,0.3517 L -0.3787,0.3125 L -0.3572,0.2747 L -0.3336,0.2385 L -0.3081,0.2040 L -0.2810,0.1716 L -0.2524,0.1413 L -0.2227,0.1135 L -0.1921,0.0883 L -0.1610,0.0659 L -0.1298,0.0465 L -0.0990,0.0302 L -0.0693,0.0173 L -0.0415,0.0079 L -0.0174,0.0021 L -0.0000,0.0000 Z"/>
        <g id="arrows6">
          <use xlink:href="#arrow1" transform="translate(0.4649,0.6266) rotate(88.64) scale(2.0)"/>
          <use xlink:href="#arrow1" transform="translate(-0.4649,0.6267) rotate(-86.02) scale(2.0)"/>
        </g>
      </g>
      <g id="fieldline7">
        <path d="M 0.0000,0.0000 L 0.0150,0.0024 L 0.0341,0.0082 L 0.0554,0.0176 L 0.0776,0.0302 L 0.0999,0.0457 L 0.1217,0.0641 L 0.1426,0.0849 L 0.1621,0.1079 L 0.1800,0.1329 L 0.1960,0.1595 L 0.2099,0.1875 L 0.2216,0.2166 L 0.2309,0.2465 L 0.2377,0.2768 L 0.2421,0.3073 L 0.2440,0.3378 L 0.2433,0.3678 L 0.2402,0.3972 L 0.2348,0.4257 L 0.2270,0.4531 L 0.2171,0.4792 L 0.2051,0.5037 L 0.1912,0.5264 L 0.1757,0.5473 L 0.1585,0.5661 L 0.1400,0.5828 L 0.1203,0.5973 L 0.0996,0.6094 L 0.0781,0.6191 L 0.0560,0.6265 L 0.0334,0.6313 L 0.0106,0.6337 L -0.0124,0.6336 L -0.0352,0.6310 L -0.0577,0.6260 L -0.0798,0.6185 L -0.1013,0.6085 L -0.1219,0.5962 L -0.1415,0.5816 L -0.1599,0.5647 L -0.1769,0.5457 L -0.1924,0.5247 L -0.2061,0.5018 L -0.2179,0.4772 L -0.2277,0.4510 L -0.2353,0.4236 L -0.2406,0.3950 L -0.2435,0.3655 L -0.2439,0.3354 L -0.2418,0.3049 L -0.2373,0.2744 L -0.2302,0.2441 L -0.2207,0.2143 L -0.2089,0.1853 L -0.1948,0.1574 L -0.1786,0.1309 L -0.1606,0.1060 L -0.1410,0.0832 L -0.1200,0.0625 L -0.0982,0.0444 L -0.0759,0.0291 L -0.0537,0.0168 L -0.0325,0.0077 L -0.0137,0.0021 L -0.0000,0.0000 Z"/>
        <g id="arrows7">
          <use xlink:href="#arrow1" transform="translate(0.0002,0.6312) rotate(-176.29) scale(2.0)"/>
        </g>
      </g>
      <g id="fieldline8">
        <path d="M 0.0000,0.0000 L 0.0100,0.0023 L 0.0221,0.0081 L 0.0346,0.0170 L 0.0464,0.0286 L 0.0567,0.0423 L 0.0651,0.0577 L 0.0713,0.0742 L 0.0750,0.0913 L 0.0762,0.1084 L 0.0748,0.1250 L 0.0711,0.1408 L 0.0652,0.1551 L 0.0572,0.1678 L 0.0477,0.1785 L 0.0368,0.1870 L 0.0249,0.1931 L 0.0124,0.1968 L -0.0005,0.1979 L -0.0133,0.1966 L -0.0258,0.1927 L -0.0376,0.1864 L -0.0484,0.1778 L -0.0579,0.1669 L -0.0657,0.1541 L -0.0715,0.1396 L -0.0750,0.1238 L -0.0762,0.1071 L -0.0748,0.0900 L -0.0709,0.0730 L -0.0646,0.0565 L -0.0560,0.0413 L -0.0456,0.0277 L -0.0337,0.0163 L -0.0212,0.0076 L -0.0092,0.0021 L -0.0000,0.0000 Z"/>
        <g id="arrows8">
          <use xlink:href="#arrow1" transform="translate(0.0016,0.1901) rotate(-168.39) scale(2.0)"/>
        </g>
      </g>
      <g id="fieldline9">
        <path d="M 0.0000,0.0000 L 0.0100,-0.0023 L 0.0221,-0.0081 L 0.0346,-0.0170 L 0.0464,-0.0286 L 0.0567,-0.0423 L 0.0651,-0.0577 L 0.0713,-0.0742 L 0.0750,-0.0913 L 0.0762,-0.1084 L 0.0748,-0.1250 L 0.0711,-0.1408 L 0.0652,-0.1551 L 0.0572,-0.1678 L 0.0477,-0.1785 L 0.0368,-0.1870 L 0.0249,-0.1931 L 0.0124,-0.1968 L -0.0005,-0.1979 L -0.0133,-0.1966 L -0.0258,-0.1927 L -0.0376,-0.1864 L -0.0484,-0.1778 L -0.0579,-0.1669 L -0.0657,-0.1541 L -0.0715,-0.1396 L -0.0750,-0.1238 L -0.0762,-0.1071 L -0.0748,-0.0900 L -0.0709,-0.0730 L -0.0646,-0.0565 L -0.0560,-0.0413 L -0.0456,-0.0277 L -0.0337,-0.0163 L -0.0212,-0.0076 L -0.0092,-0.0021 L -0.0000,-0.0000 Z"/>
        <g id="arrows9">
          <use xlink:href="#arrow1" transform="translate(0.0016,-0.1901) rotate(168.39) scale(2.0)"/>
        </g>
      </g>
      <g id="fieldline10">
        <path d="M 0.0000,0.0000 L 0.0150,-0.0024 L 0.0341,-0.0082 L 0.0554,-0.0176 L 0.0776,-0.0302 L 0.0999,-0.0457 L 0.1217,-0.0641 L 0.1426,-0.0849 L 0.1621,-0.1079 L 0.1800,-0.1329 L 0.1960,-0.1595 L 0.2099,-0.1875 L 0.2216,-0.2166 L 0.2309,-0.2465 L 0.2377,-0.2768 L 0.2421,-0.3073 L 0.2440,-0.3378 L 0.2433,-0.3678 L 0.2402,-0.3972 L 0.2348,-0.4257 L 0.2270,-0.4531 L 0.2171,-0.4792 L 0.2051,-0.5037 L 0.1912,-0.5264 L 0.1757,-0.5473 L 0.1585,-0.5661 L 0.1400,-0.5828 L 0.1203,-0.5973 L 0.0996,-0.6094 L 0.0781,-0.6191 L 0.0560,-0.6265 L 0.0334,-0.6313 L 0.0106,-0.6337 L -0.0124,-0.6336 L -0.0352,-0.6310 L -0.0577,-0.6260 L -0.0798,-0.6185 L -0.1013,-0.6085 L -0.1219,-0.5962 L -0.1415,-0.5816 L -0.1599,-0.5647 L -0.1769,-0.5457 L -0.1924,-0.5247 L -0.2061,-0.5018 L -0.2179,-0.4772 L -0.2277,-0.4510 L -0.2353,-0.4236 L -0.2406,-0.3950 L -0.2435,-0.3655 L -0.2439,-0.3354 L -0.2418,-0.3049 L -0.2373,-0.2744 L -0.2302,-0.2441 L -0.2207,-0.2143 L -0.2089,-0.1853 L -0.1948,-0.1574 L -0.1786,-0.1309 L -0.1606,-0.1060 L -0.1410,-0.0832 L -0.1200,-0.0625 L -0.0982,-0.0444 L -0.0759,-0.0291 L -0.0537,-0.0168 L -0.0325,-0.0077 L -0.0137,-0.0021 L -0.0000,-0.0000 Z"/>
        <g id="arrows10">
          <use xlink:href="#arrow1" transform="translate(0.0002,-0.6312) rotate(176.29) scale(2.0)"/>
        </g>
      </g>
      <g id="fieldline11">
        <path d="M 0.0000,0.0000 L 0.0186,-0.0023 L 0.0431,-0.0083 L 0.0710,-0.0180 L 0.1008,-0.0311 L 0.1316,-0.0476 L 0.1628,-0.0671 L 0.1939,-0.0897 L 0.2245,-0.1151 L 0.2542,-0.1431 L 0.2826,-0.1734 L 0.3097,-0.2060 L 0.3350,-0.2406 L 0.3585,-0.2769 L 0.3800,-0.3148 L 0.3992,-0.3541 L 0.4163,-0.3944 L 0.4309,-0.4357 L 0.4431,-0.4776 L 0.4528,-0.5200 L 0.4599,-0.5626 L 0.4644,-0.6053 L 0.4665,-0.6478 L 0.4659,-0.6898 L 0.4628,-0.7313 L 0.4573,-0.7720 L 0.4494,-0.8118 L 0.4391,-0.8504 L 0.4265,-0.8876 L 0.4118,-0.9234 L 0.3950,-0.9576 L 0.3763,-0.9901 L 0.3557,-1.0206 L 0.3335,-1.0492 L 0.3096,-1.0757 L 0.2844,-1.1001 L 0.2578,-1.1222 L 0.2301,-1.1419 L 0.2013,-1.1593 L 0.1717,-1.1743 L 0.1413,-1.1868 L 0.1103,-1.1969 L 0.0789,-1.2044 L 0.0471,-1.2094 L 0.0151,-1.2119 L -0.0170,-1.2118 L -0.0490,-1.2092 L -0.0807,-1.2040 L -0.1122,-1.1963 L -0.1431,-1.1862 L -0.1734,-1.1735 L -0.2030,-1.1584 L -0.2317,-1.1408 L -0.2594,-1.1209 L -0.2859,-1.0987 L -0.3111,-1.0742 L -0.3348,-1.0476 L -0.3570,-1.0189 L -0.3774,-0.9882 L -0.3961,-0.9557 L -0.4127,-0.9214 L -0.4273,-0.8855 L -0.4397,-0.8481 L -0.4499,-0.8094 L -0.4577,-0.7697 L -0.4631,-0.7289 L -0.4660,-0.6874 L -0.4664,-0.6453 L -0.4643,-0.6028 L -0.4595,-0.5601 L -0.4522,-0.5175 L -0.4424,-0.4751 L -0.4301,-0.4332 L -0.4153,-0.3920 L -0.3982,-0.3517 L -0.3787,-0.3125 L -0.3572,-0.2747 L -0.3336,-0.2385 L -0.3081,-0.2040 L -0.2810,-0.1716 L -0.2524,-0.1413 L -0.2227,-0.1135 L -0.1921,-0.0883 L -0.1610,-0.0659 L -0.1298,-0.0465 L -0.0990,-0.0302 L -0.0693,-0.0173 L -0.0415,-0.0079 L -0.0174,-0.0021 L -0.0000,-0.0000 Z"/>
        <g id="arrows11">
          <use xlink:href="#arrow1" transform="translate(0.4649,-0.6266) rotate(-88.64) scale(2.0)"/>
          <use xlink:href="#arrow1" transform="translate(-0.4649,-0.6267) rotate(86.02) scale(2.0)"/>
        </g>
      </g>
      <g id="fieldline12">
        <path d="M 0.0000,0.0000 L 0.0217,-0.0022 L 0.0513,-0.0081 L 0.0856,-0.0177 L 0.1228,-0.0309 L 0.1619,-0.0476 L 0.2023,-0.0676 L 0.2433,-0.0908 L 0.2846,-0.1172 L 0.3258,-0.1465 L 0.3665,-0.1787 L 0.4065,-0.2136 L 0.4456,-0.2510 L 0.4834,-0.2908 L 0.5199,-0.3328 L 0.5548,-0.3770 L 0.5880,-0.4231 L 0.6193,-0.4709 L 0.6486,-0.5203 L 0.6758,-0.5712 L 0.7008,-0.6234 L 0.7235,-0.6766 L 0.7439,-0.7308 L 0.7619,-0.7858 L 0.7774,-0.8414 L 0.7903,-0.8974 L 0.8008,-0.9537 L 0.8087,-1.0101 L 0.8140,-1.0665 L 0.8168,-1.1227 L 0.8171,-1.1785 L 0.8148,-1.2338 L 0.8100,-1.2884 L 0.8027,-1.3423 L 0.7930,-1.3952 L 0.7810,-1.4470 L 0.7666,-1.4976 L 0.7500,-1.5469 L 0.7313,-1.5948 L 0.7104,-1.6411 L 0.6875,-1.6857 L 0.6627,-1.7285 L 0.6361,-1.7695 L 0.6077,-1.8086 L 0.5776,-1.8456 L 0.5461,-1.8805 L 0.5130,-1.9133 L 0.4787,-1.9439 L 0.4430,-1.9722 L 0.4063,-1.9981 L 0.3685,-2.0217 L 0.3298,-2.0429 L 0.2903,-2.0617 L 0.2501,-2.0780 L 0.2092,-2.0919 L 0.1678,-2.1032 L 0.1261,-2.1120 L 0.0840,-2.1183 L 0.0418,-2.1221 L -0.0006,-2.1233 L -0.0430,-2.1220 L -0.0852,-2.1182 L -0.1273,-2.1118 L -0.1690,-2.1029 L -0.2104,-2.0915 L -0.2512,-2.0776 L -0.2914,-2.0612 L -0.3309,-2.0424 L -0.3696,-2.0211 L -0.4074,-1.9974 L -0.4441,-1.9714 L -0.4797,-1.9430 L -0.5140,-1.9124 L -0.5470,-1.8796 L -0.5785,-1.8446 L -0.6085,-1.8075 L -0.6369,-1.7684 L -0.6635,-1.7273 L -0.6882,-1.6844 L -0.7110,-1.6397 L -0.7318,-1.5934 L -0.7506,-1.5455 L -0.7671,-1.4962 L -0.7814,-1.4455 L -0.7934,-1.3937 L -0.8030,-1.3407 L -0.8101,-1.2869 L -0.8149,-1.2322 L -0.8171,-1.1769 L -0.8168,-1.1211 L -0.8139,-1.0649 L -0.8085,-1.0085 L -0.8005,-0.9521 L -0.7900,-0.8958 L -0.7769,-0.8398 L -0.7614,-0.7842 L -0.7434,-0.7293 L -0.7229,-0.6751 L -0.7001,-0.6219 L -0.6750,-0.5697 L -0.6478,-0.5189 L -0.6184,-0.4695 L -0.5870,-0.4217 L -0.5538,-0.3757 L -0.5189,-0.3316 L -0.4824,-0.2896 L -0.4445,-0.2499 L -0.4054,-0.2125 L -0.3654,-0.1777 L -0.3246,-0.1456 L -0.2834,-0.1164 L -0.2421,-0.0901 L -0.2011,-0.0670 L -0.1608,-0.0470 L -0.1217,-0.0305 L -0.0845,-0.0174 L -0.0504,-0.0079 L -0.0209,-0.0021 L -0.0000,-0.0000 Z"/>
        <g id="arrows12">
          <use xlink:href="#arrow1" transform="translate(0.8152,-1.0976) rotate(-88.05) scale(2.0)"/>
          <use xlink:href="#arrow1" transform="translate(-0.8154,-1.0976) rotate(86.49) scale(2.0)"/>
        </g>
      </g>
      <g id="fieldline13">
        <path d="M -1.2648,-3.0100 L -1.2947,-2.9489 L -1.3226,-2.8862 L -1.3483,-2.8219 L -1.3719,-2.7561 L -1.3932,-2.6889 L -1.4123,-2.6204 L -1.4291,-2.5507 L -1.4434,-2.4798 L -1.4554,-2.4080 L -1.4649,-2.3352 L -1.4720,-2.2616 L -1.4765,-2.1873 L -1.4785,-2.1124 L -1.4779,-2.0370 L -1.4748,-1.9613 L -1.4691,-1.8853 L -1.4608,-1.8091 L -1.4500,-1.7330 L -1.4366,-1.6569 L -1.4206,-1.5811 L -1.4021,-1.5056 L -1.3810,-1.4306 L -1.3575,-1.3562 L -1.3315,-1.2825 L -1.3031,-1.2096 L -1.2724,-1.1378 L -1.2393,-1.0670 L -1.2040,-0.9975 L -1.1665,-0.9293 L -1.1269,-0.8625 L -1.0853,-0.7974 L -1.0417,-0.7340 L -0.9964,-0.6724 L -0.9493,-0.6128 L -0.9006,-0.5553 L -0.8505,-0.4999 L -0.7990,-0.4469 L -0.7463,-0.3963 L -0.6926,-0.3483 L -0.6381,-0.3029 L -0.5829,-0.2602 L -0.5274,-0.2205 L -0.4716,-0.1837 L -0.4159,-0.1500 L -0.3606,-0.1195 L -0.3061,-0.0922 L -0.2527,-0.0683 L -0.2008,-0.0479 L -0.1512,-0.0309 L -0.1046,-0.0176 L -0.0620,-0.0080 L -0.0258,-0.0021 L 0.0000,0.0000 L 0.0258,-0.0021 L 0.0620,-0.0080 L 0.1046,-0.0176 L 0.1512,-0.0309 L 0.2008,-0.0479 L 0.2527,-0.0683 L 0.3061,-0.0922 L 0.3606,-0.1195 L 0.4159,-0.1500 L 0.4716,-0.1837 L 0.5274,-0.2205 L 0.5829,-0.2602 L 0.6381,-0.3029 L 0.6926,-0.3483 L 0.7463,-0.3963 L 0.7990,-0.4469 L 0.8505,-0.4999 L 0.9006,-0.5553 L 0.9493,-0.6128 L 0.9964,-0.6724 L 1.0417,-0.7340 L 1.0853,-0.7974 L 1.1269,-0.8625 L 1.1665,-0.9293 L 1.2040,-0.9975 L 1.2393,-1.0670 L 1.2724,-1.1378 L 1.3031,-1.2096 L 1.3315,-1.2825 L 1.3575,-1.3562 L 1.3810,-1.4306 L 1.4021,-1.5056 L 1.4206,-1.5811 L 1.4366,-1.6569 L 1.4500,-1.7329 L 1.4608,-1.8091 L 1.4691,-1.8852 L 1.4748,-1.9613 L 1.4779,-2.0370 L 1.4785,-2.1124 L 1.4765,-2.1873 L 1.4720,-2.2616 L 1.4649,-2.3352 L 1.4554,-2.4080 L 1.4434,-2.4798 L 1.4291,-2.5507 L 1.4123,-2.6204 L 1.3932,-2.6889 L 1.3719,-2.7561 L 1.3483,-2.8219 L 1.3226,-2.8862 L 1.2947,-2.9489 L 1.2648,-3.0100"/>
        <g id="arrows13">
          <use xlink:href="#arrow1" transform="translate(-1.3036,-1.2121) rotate(67.47) scale(2.0)"/>
          <use xlink:href="#arrow1" transform="translate(1.3036,-1.2120) rotate(-68.19) scale(2.0)"/>
        </g>
      </g>
      <g id="fieldline14">
        <path d="M -2.8694,-3.0100 L -2.8380,-2.9047 L -2.8042,-2.8000 L -2.7681,-2.6961 L -2.7297,-2.5929 L -2.6889,-2.4905 L -2.6459,-2.3891 L -2.6007,-2.2887 L -2.5533,-2.1895 L -2.5037,-2.0914 L -2.4520,-1.9946 L -2.3982,-1.8991 L -2.3425,-1.8051 L -2.2847,-1.7125 L -2.2251,-1.6216 L -2.1637,-1.5323 L -2.1005,-1.4448 L -2.0356,-1.3592 L -1.9690,-1.2754 L -1.9010,-1.1937 L -1.8314,-1.1140 L -1.7605,-1.0364 L -1.6883,-0.9611 L -1.6149,-0.8880 L -1.5404,-0.8174 L -1.4650,-0.7491 L -1.3887,-0.6834 L -1.3116,-0.6203 L -1.2340,-0.5599 L -1.1559,-0.5022 L -1.0775,-0.4473 L -0.9989,-0.3952 L -0.9204,-0.3461 L -0.8421,-0.3000 L -0.7642,-0.2569 L -0.6869,-0.2170 L -0.6105,-0.1803 L -0.5353,-0.1468 L -0.4616,-0.1166 L -0.3897,-0.0898 L -0.3201,-0.0663 L -0.2532,-0.0464 L -0.1898,-0.0299 L -0.1308,-0.0170 L -0.0773,-0.0077 L -0.0320,-0.0020 L 0.0000,0.0000 L 0.0320,-0.0020 L 0.0773,-0.0077 L 0.1308,-0.0170 L 0.1898,-0.0299 L 0.2532,-0.0464 L 0.3201,-0.0663 L 0.3897,-0.0898 L 0.4616,-0.1166 L 0.5353,-0.1468 L 0.6105,-0.1803 L 0.6869,-0.2170 L 0.7642,-0.2569 L 0.8421,-0.3000 L 0.9204,-0.3461 L 0.9989,-0.3952 L 1.0775,-0.4473 L 1.1559,-0.5022 L 1.2340,-0.5599 L 1.3116,-0.6203 L 1.3887,-0.6834 L 1.4650,-0.7491 L 1.5404,-0.8174 L 1.6149,-0.8880 L 1.6883,-0.9611 L 1.7605,-1.0364 L 1.8314,-1.1140 L 1.9010,-1.1937 L 1.9690,-1.2754 L 2.0356,-1.3592 L 2.1005,-1.4448 L 2.1637,-1.5323 L 2.2251,-1.6216 L 2.2847,-1.7125 L 2.3425,-1.8051 L 2.3982,-1.8991 L 2.4520,-1.9946 L 2.5037,-2.0914 L 2.5533,-2.1895 L 2.6007,-2.2887 L 2.6459,-2.3891 L 2.6889,-2.4905 L 2.7297,-2.5929 L 2.7681,-2.6961 L 2.8042,-2.8000 L 2.8380,-2.9047 L 2.8694,-3.0100"/>
        <g id="arrows14">
          <use xlink:href="#arrow1" transform="translate(-1.8287,-1.1114) rotate(47.90) scale(2.0)"/>
          <use xlink:href="#arrow1" transform="translate(1.8286,-1.1114) rotate(-48.41) scale(2.0)"/>
        </g>
      </g>
      <g id="fieldline15">
        <path d="M -4.0100,-1.9864 L -3.8796,-1.8775 L -3.7484,-1.7713 L -3.6167,-1.6678 L -3.4845,-1.5670 L -3.3518,-1.4689 L -3.2187,-1.3737 L -3.0855,-1.2814 L -2.9520,-1.1919 L -2.8185,-1.1053 L -2.6851,-1.0218 L -2.5518,-0.9412 L -2.4188,-0.8637 L -2.2863,-0.7893 L -2.1542,-0.7180 L -2.0229,-0.6499 L -1.8924,-0.5849 L -1.7628,-0.5232 L -1.6344,-0.4648 L -1.5074,-0.4097 L -1.3819,-0.3579 L -1.2581,-0.3094 L -1.1363,-0.2644 L -1.0167,-0.2228 L -0.8997,-0.1847 L -0.7855,-0.1501 L -0.6746,-0.1190 L -0.5673,-0.0914 L -0.4643,-0.0674 L -0.3661,-0.0470 L -0.2735,-0.0303 L -0.1879,-0.0172 L -0.1107,-0.0078 L -0.0457,-0.0021 L 0.0000,0.0000 L 0.0457,-0.0021 L 0.1107,-0.0078 L 0.1879,-0.0172 L 0.2735,-0.0303 L 0.3661,-0.0470 L 0.4643,-0.0674 L 0.5673,-0.0914 L 0.6746,-0.1190 L 0.7855,-0.1501 L 0.8997,-0.1847 L 1.0167,-0.2228 L 1.1363,-0.2644 L 1.2581,-0.3094 L 1.3819,-0.3579 L 1.5074,-0.4096 L 1.6344,-0.4648 L 1.7628,-0.5232 L 1.8924,-0.5849 L 2.0229,-0.6499 L 2.1542,-0.7180 L 2.2863,-0.7893 L 2.4188,-0.8637 L 2.5518,-0.9412 L 2.6851,-1.0218 L 2.8185,-1.1053 L 2.9520,-1.1919 L 3.0855,-1.2814 L 3.2187,-1.3737 L 3.3518,-1.4689 L 3.4845,-1.5670 L 3.6167,-1.6678 L 3.7484,-1.7713 L 3.8796,-1.8775 L 4.0100,-1.9864"/>
        <g id="arrows15">
          <use xlink:href="#arrow1" transform="translate(-2.1392,-0.7103) rotate(27.48) scale(2.0)"/>
          <use xlink:href="#arrow1" transform="translate(2.1392,-0.7104) rotate(-27.85) scale(2.0)"/>
        </g>
      </g>
      <g id="fieldline16">
        <path d="M -4.0100,-0.5662 L -3.7206,-0.5055 L -3.4362,-0.4482 L -3.1570,-0.3943 L -2.8834,-0.3438 L -2.6156,-0.2967 L -2.3541,-0.2531 L -2.0992,-0.2129 L -1.8515,-0.1762 L -1.6114,-0.1430 L -1.3796,-0.1131 L -1.1568,-0.0868 L -0.9441,-0.0639 L -0.7424,-0.0446 L -0.5534,-0.0287 L -0.3793,-0.0162 L -0.2232,-0.0073 L -0.0921,-0.0019 L 0.0000,0.0000 L 0.0921,-0.0019 L 0.2232,-0.0073 L 0.3793,-0.0162 L 0.5534,-0.0287 L 0.7424,-0.0446 L 0.9441,-0.0639 L 1.1568,-0.0868 L 1.3796,-0.1131 L 1.6114,-0.1430 L 1.8515,-0.1762 L 2.0992,-0.2129 L 2.3541,-0.2531 L 2.6156,-0.2967 L 2.8833,-0.3438 L 3.1570,-0.3943 L 3.4361,-0.4482 L 3.7206,-0.5055 L 4.0100,-0.5662"/>
        <g id="arrows16">
          <use xlink:href="#arrow1" transform="translate(-2.0162,-0.2006) rotate(8.43) scale(2.0)"/>
          <use xlink:href="#arrow1" transform="translate(2.0162,-0.2006) rotate(-8.43) scale(2.0)"/>
        </g>
      </g>
    </g>
  </g>
</svg>
