<?xml version='1.0' encoding='utf-8'?>
<svg xmlns:xlink="http://www.w3.org/1999/xlink" xmlns="http://www.w3.org/2000/svg" version="1.1" baseProfile="full" width="600" height="600">
  <title>VFPt_dipole_magnetic3</title>
  <desc>VFPt_dipole_magnetic3
created with VectorFieldPlot 1.1
http://commons.wikimedia.org/wiki/User:Geek3/VectorFieldPlot

about: http://commons.wikimedia.org/wiki/File:VFPt_dipole_magnetic3.svg
rights: GNU Free Documentation license,
        Creative Commons Attribution ShareAlike license
  </desc>
  <defs>
    <path id="arrow1" stroke="none" fill="#000000" transform="scale(0.01)" d="M 0.3,0 L -2.2,2.25 L 3.8,0 L -2.2,-2.25 L 0.3,0 Z"/>
  </defs>
  <rect id="background" x="0" y="0" width="600" height="600" fill="#ffffff"/>
  <g id="image" transform="translate(300.0,300.0) scale(100.0,-100.0)">
    <g id="fieldlines" fill="none" stroke="#000000" stroke-width="0.024" stroke-linejoin="round" stroke-linecap="round">
      <g id="fieldline1">
        <path d="M 0.0000,-0.3727 L 0.0213,-0.3740 L 0.0424,-0.3777 L 0.0630,-0.3840 L 0.0830,-0.3926 L 0.1021,-0.4037 L 0.1200,-0.4170 L 0.1367,-0.4325 L 0.1517,-0.4499 L 0.1650,-0.4692 L 0.1762,-0.4900 L 0.1854,-0.5121 L 0.1922,-0.5353 L 0.1966,-0.5591 L 0.1985,-0.5834 L 0.1979,-0.6077 L 0.1948,-0.6317 L 0.1892,-0.6552 L 0.1813,-0.6777 L 0.1712,-0.6990 L 0.1590,-0.7190 L 0.1449,-0.7372 L 0.1291,-0.7536 L 0.1118,-0.7679 L 0.0932,-0.7800 L 0.0736,-0.7899 L 0.0531,-0.7973 L 0.0321,-0.8023 L 0.0108,-0.8048 L -0.0107,-0.8048 L -0.0321,-0.8023 L -0.0531,-0.7973 L -0.0736,-0.7899 L -0.0932,-0.7800 L -0.1118,-0.7679 L -0.1291,-0.7536 L -0.1449,-0.7372 L -0.1590,-0.7190 L -0.1712,-0.6991 L -0.1813,-0.6777 L -0.1892,-0.6552 L -0.1948,-0.6317 L -0.1979,-0.6077 L -0.1985,-0.5834 L -0.1966,-0.5591 L -0.1922,-0.5353 L -0.1854,-0.5121 L -0.1762,-0.4900 L -0.1650,-0.4692 L -0.1517,-0.4499 L -0.1367,-0.4325 L -0.1201,-0.4170 L -0.1021,-0.4037 L -0.0830,-0.3926 L -0.0630,-0.3840 L -0.0424,-0.3777 L -0.0213,-0.3740 L 0.0000,-0.3727 Z"/>
        <g id="arrows1">
          <use xlink:href="#arrow1" transform="translate(0.0005,-0.8002) rotate(173.33) scale(2.64)"/>
        </g>
      </g>
      <g id="fieldline2">
        <path d="M 0.0000,-0.3285 L 0.0262,-0.3298 L 0.0522,-0.3336 L 0.0779,-0.3399 L 0.1032,-0.3488 L 0.1280,-0.3602 L 0.1519,-0.3740 L 0.1750,-0.3903 L 0.1969,-0.4089 L 0.2175,-0.4298 L 0.2365,-0.4527 L 0.2539,-0.4776 L 0.2693,-0.5043 L 0.2827,-0.5325 L 0.2939,-0.5619 L 0.3027,-0.5925 L 0.3091,-0.6237 L 0.3131,-0.6555 L 0.3144,-0.6874 L 0.3133,-0.7193 L 0.3096,-0.7508 L 0.3035,-0.7816 L 0.2949,-0.8116 L 0.2840,-0.8405 L 0.2710,-0.8680 L 0.2559,-0.8940 L 0.2388,-0.9183 L 0.2200,-0.9406 L 0.1996,-0.9610 L 0.1778,-0.9793 L 0.1547,-0.9953 L 0.1306,-1.0089 L 0.1055,-1.0202 L 0.0798,-1.0290 L 0.0535,-1.0353 L 0.0268,-1.0392 L -0.0000,-1.0404 L -0.0268,-1.0392 L -0.0535,-1.0353 L -0.0798,-1.0290 L -0.1055,-1.0202 L -0.1306,-1.0089 L -0.1547,-0.9953 L -0.1778,-0.9793 L -0.1996,-0.9610 L -0.2200,-0.9406 L -0.2388,-0.9183 L -0.2559,-0.8940 L -0.2710,-0.8680 L -0.2840,-0.8405 L -0.2949,-0.8116 L -0.3035,-0.7816 L -0.3096,-0.7508 L -0.3133,-0.7193 L -0.3144,-0.6874 L -0.3131,-0.6555 L -0.3091,-0.6237 L -0.3027,-0.5925 L -0.2939,-0.5619 L -0.2827,-0.5325 L -0.2693,-0.5043 L -0.2539,-0.4776 L -0.2365,-0.4527 L -0.2175,-0.4298 L -0.1969,-0.4089 L -0.1750,-0.3903 L -0.1519,-0.3740 L -0.1280,-0.3602 L -0.1032,-0.3488 L -0.0779,-0.3399 L -0.0522,-0.3336 L -0.0262,-0.3298 L 0.0000,-0.3285 Z"/>
        <g id="arrows2">
          <use xlink:href="#arrow1" transform="translate(0.0002,-1.0373) rotate(175.52) scale(2.64)"/>
        </g>
      </g>
      <g id="fieldline3">
        <path d="M 0.0000,-0.2729 L 0.0322,-0.2742 L 0.0644,-0.2780 L 0.0964,-0.2843 L 0.1284,-0.2932 L 0.1601,-0.3047 L 0.1915,-0.3188 L 0.2225,-0.3355 L 0.2529,-0.3548 L 0.2827,-0.3767 L 0.3115,-0.4011 L 0.3393,-0.4280 L 0.3659,-0.4572 L 0.3911,-0.4887 L 0.4146,-0.5222 L 0.4364,-0.5577 L 0.4563,-0.5948 L 0.4741,-0.6335 L 0.4898,-0.6735 L 0.5031,-0.7146 L 0.5140,-0.7566 L 0.5225,-0.7991 L 0.5285,-0.8421 L 0.5320,-0.8853 L 0.5330,-0.9284 L 0.5314,-0.9713 L 0.5274,-1.0137 L 0.5208,-1.0555 L 0.5119,-1.0964 L 0.5006,-1.1363 L 0.4871,-1.1750 L 0.4713,-1.2123 L 0.4535,-1.2481 L 0.4337,-1.2823 L 0.4120,-1.3147 L 0.3886,-1.3452 L 0.3635,-1.3738 L 0.3369,-1.4002 L 0.3090,-1.4245 L 0.2798,-1.4465 L 0.2495,-1.4662 L 0.2182,-1.4836 L 0.1861,-1.4985 L 0.1532,-1.5110 L 0.1198,-1.5211 L 0.0859,-1.5286 L 0.0516,-1.5337 L 0.0172,-1.5362 L -0.0172,-1.5362 L -0.0516,-1.5337 L -0.0859,-1.5286 L -0.1198,-1.5211 L -0.1532,-1.5110 L -0.1861,-1.4985 L -0.2182,-1.4836 L -0.2495,-1.4662 L -0.2798,-1.4465 L -0.3090,-1.4245 L -0.3369,-1.4002 L -0.3635,-1.3738 L -0.3886,-1.3452 L -0.4120,-1.3147 L -0.4337,-1.2823 L -0.4535,-1.2482 L -0.4713,-1.2123 L -0.4871,-1.1750 L -0.5006,-1.1363 L -0.5119,-1.0964 L -0.5208,-1.0555 L -0.5274,-1.0137 L -0.5314,-0.9713 L -0.5330,-0.9284 L -0.5320,-0.8853 L -0.5285,-0.8421 L -0.5225,-0.7991 L -0.5140,-0.7566 L -0.5031,-0.7146 L -0.4898,-0.6735 L -0.4741,-0.6335 L -0.4563,-0.5949 L -0.4364,-0.5577 L -0.4146,-0.5222 L -0.3911,-0.4887 L -0.3659,-0.4572 L -0.3393,-0.4280 L -0.3115,-0.4011 L -0.2827,-0.3767 L -0.2529,-0.3548 L -0.2225,-0.3355 L -0.1915,-0.3188 L -0.1601,-0.3047 L -0.1284,-0.2932 L -0.0964,-0.2843 L -0.0644,-0.2780 L -0.0322,-0.2742 L 0.0000,-0.2729 Z"/>
        <g id="arrows3">
          <use xlink:href="#arrow1" transform="translate(0.5317,-0.9104) rotate(-90.79) scale(2.64)"/>
          <use xlink:href="#arrow1" transform="translate(-0.5316,-0.9105) rotate(87.45) scale(2.64)"/>
        </g>
      </g>
      <g id="fieldline4">
        <path d="M 0.0000,-0.2058 L 0.0410,-0.2071 L 0.0822,-0.2109 L 0.1236,-0.2174 L 0.1652,-0.2265 L 0.2071,-0.2383 L 0.2494,-0.2530 L 0.2920,-0.2705 L 0.3348,-0.2909 L 0.3778,-0.3142 L 0.4208,-0.3405 L 0.4637,-0.3698 L 0.5062,-0.4020 L 0.5483,-0.4371 L 0.5896,-0.4750 L 0.6301,-0.5155 L 0.6694,-0.5586 L 0.7075,-0.6041 L 0.7441,-0.6520 L 0.7792,-0.7019 L 0.8124,-0.7539 L 0.8438,-0.8076 L 0.8732,-0.8630 L 0.9004,-0.9199 L 0.9254,-0.9781 L 0.9481,-1.0374 L 0.9685,-1.0978 L 0.9864,-1.1589 L 1.0019,-1.2207 L 1.0148,-1.2830 L 1.0252,-1.3456 L 1.0331,-1.4083 L 1.0383,-1.4711 L 1.0410,-1.5338 L 1.0411,-1.5961 L 1.0387,-1.6581 L 1.0337,-1.7194 L 1.0263,-1.7801 L 1.0163,-1.8399 L 1.0040,-1.8987 L 0.9892,-1.9564 L 0.9722,-2.0129 L 0.9529,-2.0681 L 0.9314,-2.1219 L 0.9078,-2.1741 L 0.8821,-2.2246 L 0.8544,-2.2734 L 0.8249,-2.3204 L 0.7935,-2.3655 L 0.7604,-2.4086 L 0.7257,-2.4497 L 0.6895,-2.4886 L 0.6518,-2.5254 L 0.6127,-2.5599 L 0.5724,-2.5922 L 0.5308,-2.6221 L 0.4883,-2.6496 L 0.4447,-2.6748 L 0.4003,-2.6975 L 0.3550,-2.7178 L 0.3091,-2.7355 L 0.2625,-2.7508 L 0.2155,-2.7636 L 0.1680,-2.7738 L 0.1203,-2.7814 L 0.0722,-2.7866 L 0.0241,-2.7891 L -0.0241,-2.7891 L -0.0723,-2.7866 L -0.1203,-2.7814 L -0.1681,-2.7738 L -0.2155,-2.7636 L -0.2626,-2.7508 L -0.3091,-2.7355 L -0.3550,-2.7178 L -0.4003,-2.6975 L -0.4447,-2.6748 L -0.4883,-2.6496 L -0.5309,-2.6221 L -0.5724,-2.5922 L -0.6127,-2.5599 L -0.6518,-2.5254 L -0.6895,-2.4886 L -0.7257,-2.4497 L -0.7605,-2.4086 L -0.7935,-2.3655 L -0.8249,-2.3204 L -0.8544,-2.2734 L -0.8821,-2.2246 L -0.9078,-2.1740 L -0.9314,-2.1218 L -0.9529,-2.0681 L -0.9722,-2.0129 L -0.9892,-1.9564 L -1.0040,-1.8987 L -1.0163,-1.8398 L -1.0263,-1.7800 L -1.0337,-1.7194 L -1.0387,-1.6580 L -1.0411,-1.5961 L -1.0410,-1.5337 L -1.0383,-1.4711 L -1.0331,-1.4083 L -1.0252,-1.3455 L -1.0148,-1.2829 L -1.0019,-1.2207 L -0.9864,-1.1589 L -0.9685,-1.0977 L -0.9481,-1.0374 L -0.9254,-0.9781 L -0.9004,-0.9199 L -0.8731,-0.8630 L -0.8438,-0.8076 L -0.8124,-0.7538 L -0.7791,-0.7019 L -0.7441,-0.6519 L -0.7075,-0.6041 L -0.6694,-0.5586 L -0.6301,-0.5155 L -0.5896,-0.4749 L -0.5483,-0.4371 L -0.5062,-0.4020 L -0.4637,-0.3698 L -0.4208,-0.3405 L -0.3778,-0.3142 L -0.3348,-0.2909 L -0.2920,-0.2705 L -0.2494,-0.2530 L -0.2071,-0.2383 L -0.1652,-0.2265 L -0.1235,-0.2174 L -0.0822,-0.2109 L -0.0411,-0.2071 L 0.0000,-0.2058 Z"/>
        <g id="arrows4">
          <use xlink:href="#arrow1" transform="translate(0.7528,-0.6653) rotate(-55.32) scale(2.64)"/>
          <use xlink:href="#arrow1" transform="translate(0.7817,-2.3799) rotate(-128.25) scale(2.64)"/>
          <use xlink:href="#arrow1" transform="translate(-0.7817,-2.3799) rotate(126.08) scale(2.64)"/>
          <use xlink:href="#arrow1" transform="translate(-0.7528,-0.6654) rotate(53.62) scale(2.64)"/>
        </g>
      </g>
      <g id="fieldline5">
        <path d="M -2.7146,-3.0120 L -2.6880,-2.9086 L -2.6590,-2.8057 L -2.6275,-2.7034 L -2.5935,-2.6018 L -2.5572,-2.5010 L -2.5185,-2.4011 L -2.4775,-2.3022 L -2.4341,-2.2043 L -2.3886,-2.1075 L -2.3408,-2.0120 L -2.2909,-1.9179 L -2.2388,-1.8252 L -2.1848,-1.7340 L -2.1288,-1.6444 L -2.0708,-1.5565 L -2.0110,-1.4705 L -1.9495,-1.3863 L -1.8863,-1.3041 L -1.8216,-1.2240 L -1.7553,-1.1460 L -1.6877,-1.0704 L -1.6188,-0.9970 L -1.5488,-0.9262 L -1.4777,-0.8578 L -1.4058,-0.7921 L -1.3331,-0.7292 L -1.2599,-0.6690 L -1.1862,-0.6118 L -1.1123,-0.5575 L -1.0384,-0.5063 L -0.9646,-0.4583 L -0.8913,-0.4135 L -0.8185,-0.3720 L -0.7466,-0.3339 L -0.6758,-0.2991 L -0.6063,-0.2678 L -0.5383,-0.2398 L -0.4720,-0.2152 L -0.4075,-0.1940 L -0.3449,-0.1759 L -0.2841,-0.1610 L -0.2249,-0.1490 L -0.1673,-0.1398 L -0.1108,-0.1334 L -0.0552,-0.1296 L 0.0000,-0.1283 L 0.0552,-0.1296 L 0.1108,-0.1334 L 0.1673,-0.1398 L 0.2249,-0.1490 L 0.2841,-0.1610 L 0.3449,-0.1759 L 0.4075,-0.1940 L 0.4720,-0.2152 L 0.5383,-0.2398 L 0.6063,-0.2678 L 0.6758,-0.2991 L 0.7466,-0.3339 L 0.8185,-0.3720 L 0.8913,-0.4135 L 0.9646,-0.4583 L 1.0384,-0.5063 L 1.1123,-0.5575 L 1.1862,-0.6118 L 1.2599,-0.6690 L 1.3331,-0.7292 L 1.4058,-0.7922 L 1.4777,-0.8579 L 1.5488,-0.9262 L 1.6188,-0.9970 L 1.6877,-1.0704 L 1.7553,-1.1460 L 1.8216,-1.2240 L 1.8863,-1.3041 L 1.9495,-1.3863 L 2.0111,-1.4705 L 2.0708,-1.5565 L 2.1288,-1.6444 L 2.1848,-1.7340 L 2.2389,-1.8252 L 2.2909,-1.9179 L 2.3408,-2.0121 L 2.3886,-2.1075 L 2.4342,-2.2043 L 2.4775,-2.3022 L 2.5185,-2.4011 L 2.5572,-2.5010 L 2.5935,-2.6018 L 2.6275,-2.7034 L 2.6590,-2.8057 L 2.6880,-2.9086 L 2.7146,-3.0120"/>
        <g id="arrows5">
          <use xlink:href="#arrow1" transform="translate(-2.3492,-2.0296) rotate(62.71) scale(2.64)"/>
          <use xlink:href="#arrow1" transform="translate(-0.9794,-0.4684) rotate(32.17) scale(2.64)"/>
          <use xlink:href="#arrow1" transform="translate(0.9795,-0.4682) rotate(-32.94) scale(2.64)"/>
          <use xlink:href="#arrow1" transform="translate(2.3494,-2.0295) rotate(-63.33) scale(2.64)"/>
        </g>
      </g>
      <g id="fieldline6">
        <path d="M -3.0120,-0.6833 L -2.8171,-0.6183 L -2.6250,-0.5567 L -2.4358,-0.4985 L -2.2498,-0.4438 L -2.0673,-0.3925 L -1.8886,-0.3448 L -1.7139,-0.3005 L -1.5438,-0.2599 L -1.3786,-0.2228 L -1.2189,-0.1893 L -1.0651,-0.1594 L -0.9178,-0.1332 L -0.7776,-0.1106 L -0.6452,-0.0916 L -0.5207,-0.0761 L -0.4044,-0.0639 L -0.2955,-0.0547 L -0.1931,-0.0485 L -0.0953,-0.0448 L 0.0000,-0.0436 L 0.0953,-0.0448 L 0.1931,-0.0485 L 0.2955,-0.0547 L 0.4044,-0.0639 L 0.5208,-0.0761 L 0.6452,-0.0916 L 0.7777,-0.1106 L 0.9178,-0.1332 L 1.0651,-0.1594 L 1.2189,-0.1893 L 1.3786,-0.2228 L 1.5438,-0.2598 L 1.7139,-0.3005 L 1.8885,-0.3447 L 2.0673,-0.3925 L 2.2498,-0.4438 L 2.4358,-0.4985 L 2.6250,-0.5567 L 2.8171,-0.6183 L 3.0120,-0.6833"/>
        <g id="arrows6">
          <use xlink:href="#arrow1" transform="translate(-2.2750,-0.4513) rotate(16.08) scale(2.64)"/>
          <use xlink:href="#arrow1" transform="translate(-0.7691,-0.1096) rotate(8.35) scale(2.64)"/>
          <use xlink:href="#arrow1" transform="translate(0.7691,-0.1097) rotate(-8.80) scale(2.64)"/>
          <use xlink:href="#arrow1" transform="translate(2.2751,-0.4512) rotate(-16.40) scale(2.64)"/>
        </g>
      </g>
      <g id="fieldline7">
        <path d="M -3.0120,0.6833 L -2.8171,0.6183 L -2.6250,0.5567 L -2.4358,0.4985 L -2.2498,0.4438 L -2.0673,0.3925 L -1.8886,0.3448 L -1.7139,0.3005 L -1.5438,0.2599 L -1.3786,0.2228 L -1.2189,0.1893 L -1.0651,0.1594 L -0.9178,0.1332 L -0.7776,0.1106 L -0.6452,0.0916 L -0.5207,0.0761 L -0.4044,0.0639 L -0.2955,0.0547 L -0.1931,0.0485 L -0.0953,0.0448 L 0.0000,0.0436 L 0.0953,0.0448 L 0.1931,0.0485 L 0.2955,0.0547 L 0.4044,0.0639 L 0.5208,0.0761 L 0.6452,0.0916 L 0.7777,0.1106 L 0.9178,0.1332 L 1.0651,0.1594 L 1.2189,0.1893 L 1.3786,0.2228 L 1.5438,0.2598 L 1.7139,0.3005 L 1.8885,0.3447 L 2.0673,0.3925 L 2.2498,0.4438 L 2.4358,0.4985 L 2.6250,0.5567 L 2.8171,0.6183 L 3.0120,0.6833"/>
        <g id="arrows7">
          <use xlink:href="#arrow1" transform="translate(-2.2750,0.4513) rotate(-16.08) scale(2.64)"/>
          <use xlink:href="#arrow1" transform="translate(-0.7691,0.1096) rotate(-8.35) scale(2.64)"/>
          <use xlink:href="#arrow1" transform="translate(0.7691,0.1097) rotate(8.80) scale(2.64)"/>
          <use xlink:href="#arrow1" transform="translate(2.2751,0.4512) rotate(16.40) scale(2.64)"/>
        </g>
      </g>
      <g id="fieldline8">
        <path d="M -2.7146,3.0120 L -2.6880,2.9086 L -2.6590,2.8057 L -2.6275,2.7034 L -2.5935,2.6018 L -2.5572,2.5010 L -2.5185,2.4011 L -2.4775,2.3022 L -2.4341,2.2043 L -2.3886,2.1075 L -2.3408,2.0120 L -2.2909,1.9179 L -2.2388,1.8252 L -2.1848,1.7340 L -2.1288,1.6444 L -2.0708,1.5565 L -2.0110,1.4705 L -1.9495,1.3863 L -1.8863,1.3041 L -1.8216,1.2240 L -1.7553,1.1460 L -1.6877,1.0704 L -1.6188,0.9970 L -1.5488,0.9262 L -1.4777,0.8578 L -1.4058,0.7921 L -1.3331,0.7292 L -1.2599,0.6690 L -1.1862,0.6118 L -1.1123,0.5575 L -1.0384,0.5063 L -0.9646,0.4583 L -0.8913,0.4135 L -0.8185,0.3720 L -0.7466,0.3339 L -0.6758,0.2991 L -0.6063,0.2678 L -0.5383,0.2398 L -0.4720,0.2152 L -0.4075,0.1940 L -0.3449,0.1759 L -0.2841,0.1610 L -0.2249,0.1490 L -0.1673,0.1398 L -0.1108,0.1334 L -0.0552,0.1296 L 0.0000,0.1283 L 0.0552,0.1296 L 0.1108,0.1334 L 0.1673,0.1398 L 0.2249,0.1490 L 0.2841,0.1610 L 0.3449,0.1759 L 0.4075,0.1940 L 0.4720,0.2152 L 0.5383,0.2398 L 0.6063,0.2678 L 0.6758,0.2991 L 0.7466,0.3339 L 0.8185,0.3720 L 0.8913,0.4135 L 0.9646,0.4583 L 1.0384,0.5063 L 1.1123,0.5575 L 1.1862,0.6118 L 1.2599,0.6690 L 1.3331,0.7292 L 1.4058,0.7922 L 1.4777,0.8579 L 1.5488,0.9262 L 1.6188,0.9970 L 1.6877,1.0704 L 1.7553,1.1460 L 1.8216,1.2240 L 1.8863,1.3041 L 1.9495,1.3863 L 2.0111,1.4705 L 2.0708,1.5565 L 2.1288,1.6444 L 2.1848,1.7340 L 2.2389,1.8252 L 2.2909,1.9179 L 2.3408,2.0121 L 2.3886,2.1075 L 2.4342,2.2043 L 2.4775,2.3022 L 2.5185,2.4011 L 2.5572,2.5010 L 2.5935,2.6018 L 2.6275,2.7034 L 2.6590,2.8057 L 2.6880,2.9086 L 2.7146,3.0120"/>
        <g id="arrows8">
          <use xlink:href="#arrow1" transform="translate(-2.3492,2.0296) rotate(-62.71) scale(2.64)"/>
          <use xlink:href="#arrow1" transform="translate(-0.9794,0.4684) rotate(-32.17) scale(2.64)"/>
          <use xlink:href="#arrow1" transform="translate(0.9795,0.4682) rotate(32.94) scale(2.64)"/>
          <use xlink:href="#arrow1" transform="translate(2.3494,2.0295) rotate(63.33) scale(2.64)"/>
        </g>
      </g>
      <g id="fieldline9">
        <path d="M 0.0000,0.2058 L 0.0410,0.2071 L 0.0822,0.2109 L 0.1236,0.2174 L 0.1652,0.2265 L 0.2071,0.2383 L 0.2494,0.2530 L 0.2920,0.2705 L 0.3348,0.2909 L 0.3778,0.3142 L 0.4208,0.3405 L 0.4637,0.3698 L 0.5062,0.4020 L 0.5483,0.4371 L 0.5896,0.4750 L 0.6301,0.5155 L 0.6694,0.5586 L 0.7075,0.6041 L 0.7441,0.6520 L 0.7792,0.7019 L 0.8124,0.7539 L 0.8438,0.8076 L 0.8732,0.8630 L 0.9004,0.9199 L 0.9254,0.9781 L 0.9481,1.0374 L 0.9685,1.0978 L 0.9864,1.1589 L 1.0019,1.2207 L 1.0148,1.2830 L 1.0252,1.3456 L 1.0331,1.4083 L 1.0383,1.4711 L 1.0410,1.5338 L 1.0411,1.5961 L 1.0387,1.6581 L 1.0337,1.7194 L 1.0263,1.7801 L 1.0163,1.8399 L 1.0040,1.8987 L 0.9892,1.9564 L 0.9722,2.0129 L 0.9529,2.0681 L 0.9314,2.1219 L 0.9078,2.1741 L 0.8821,2.2246 L 0.8544,2.2734 L 0.8249,2.3204 L 0.7935,2.3655 L 0.7604,2.4086 L 0.7257,2.4497 L 0.6895,2.4886 L 0.6518,2.5254 L 0.6127,2.5599 L 0.5724,2.5922 L 0.5308,2.6221 L 0.4883,2.6496 L 0.4447,2.6748 L 0.4003,2.6975 L 0.3550,2.7178 L 0.3091,2.7355 L 0.2625,2.7508 L 0.2155,2.7636 L 0.1680,2.7738 L 0.1203,2.7814 L 0.0722,2.7866 L 0.0241,2.7891 L -0.0241,2.7891 L -0.0723,2.7866 L -0.1203,2.7814 L -0.1681,2.7738 L -0.2155,2.7636 L -0.2626,2.7508 L -0.3091,2.7355 L -0.3550,2.7178 L -0.4003,2.6975 L -0.4447,2.6748 L -0.4883,2.6496 L -0.5309,2.6221 L -0.5724,2.5922 L -0.6127,2.5599 L -0.6518,2.5254 L -0.6895,2.4886 L -0.7257,2.4497 L -0.7605,2.4086 L -0.7935,2.3655 L -0.8249,2.3204 L -0.8544,2.2734 L -0.8821,2.2246 L -0.9078,2.1740 L -0.9314,2.1218 L -0.9529,2.0681 L -0.9722,2.0129 L -0.9892,1.9564 L -1.0040,1.8987 L -1.0163,1.8398 L -1.0263,1.7800 L -1.0337,1.7194 L -1.0387,1.6580 L -1.0411,1.5961 L -1.0410,1.5337 L -1.0383,1.4711 L -1.0331,1.4083 L -1.0252,1.3455 L -1.0148,1.2829 L -1.0019,1.2207 L -0.9864,1.1589 L -0.9685,1.0977 L -0.9481,1.0374 L -0.9254,0.9781 L -0.9004,0.9199 L -0.8731,0.8630 L -0.8438,0.8076 L -0.8124,0.7538 L -0.7791,0.7019 L -0.7441,0.6519 L -0.7075,0.6041 L -0.6694,0.5586 L -0.6301,0.5155 L -0.5896,0.4749 L -0.5483,0.4371 L -0.5062,0.4020 L -0.4637,0.3698 L -0.4208,0.3405 L -0.3778,0.3142 L -0.3348,0.2909 L -0.2920,0.2705 L -0.2494,0.2530 L -0.2071,0.2383 L -0.1652,0.2265 L -0.1235,0.2174 L -0.0822,0.2109 L -0.0411,0.2071 L 0.0000,0.2058 Z"/>
        <g id="arrows9">
          <use xlink:href="#arrow1" transform="translate(0.7528,0.6653) rotate(55.32) scale(2.64)"/>
          <use xlink:href="#arrow1" transform="translate(0.7817,2.3799) rotate(128.25) scale(2.64)"/>
          <use xlink:href="#arrow1" transform="translate(-0.7817,2.3799) rotate(-126.08) scale(2.64)"/>
          <use xlink:href="#arrow1" transform="translate(-0.7528,0.6654) rotate(-53.62) scale(2.64)"/>
        </g>
      </g>
      <g id="fieldline10">
        <path d="M 0.0000,0.2729 L 0.0322,0.2742 L 0.0644,0.2780 L 0.0964,0.2843 L 0.1284,0.2932 L 0.1601,0.3047 L 0.1915,0.3188 L 0.2225,0.3355 L 0.2529,0.3548 L 0.2827,0.3767 L 0.3115,0.4011 L 0.3393,0.4280 L 0.3659,0.4572 L 0.3911,0.4887 L 0.4146,0.5222 L 0.4364,0.5577 L 0.4563,0.5948 L 0.4741,0.6335 L 0.4898,0.6735 L 0.5031,0.7146 L 0.5140,0.7566 L 0.5225,0.7991 L 0.5285,0.8421 L 0.5320,0.8853 L 0.5330,0.9284 L 0.5314,0.9713 L 0.5274,1.0137 L 0.5208,1.0555 L 0.5119,1.0964 L 0.5006,1.1363 L 0.4871,1.1750 L 0.4713,1.2123 L 0.4535,1.2481 L 0.4337,1.2823 L 0.4120,1.3147 L 0.3886,1.3452 L 0.3635,1.3738 L 0.3369,1.4002 L 0.3090,1.4245 L 0.2798,1.4465 L 0.2495,1.4662 L 0.2182,1.4836 L 0.1861,1.4985 L 0.1532,1.5110 L 0.1198,1.5211 L 0.0859,1.5286 L 0.0516,1.5337 L 0.0172,1.5362 L -0.0172,1.5362 L -0.0516,1.5337 L -0.0859,1.5286 L -0.1198,1.5211 L -0.1532,1.5110 L -0.1861,1.4985 L -0.2182,1.4836 L -0.2495,1.4662 L -0.2798,1.4465 L -0.3090,1.4245 L -0.3369,1.4002 L -0.3635,1.3738 L -0.3886,1.3452 L -0.4120,1.3147 L -0.4337,1.2823 L -0.4535,1.2482 L -0.4713,1.2123 L -0.4871,1.1750 L -0.5006,1.1363 L -0.5119,1.0964 L -0.5208,1.0555 L -0.5274,1.0137 L -0.5314,0.9713 L -0.5330,0.9284 L -0.5320,0.8853 L -0.5285,0.8421 L -0.5225,0.7991 L -0.5140,0.7566 L -0.5031,0.7146 L -0.4898,0.6735 L -0.4741,0.6335 L -0.4563,0.5949 L -0.4364,0.5577 L -0.4146,0.5222 L -0.3911,0.4887 L -0.3659,0.4572 L -0.3393,0.4280 L -0.3115,0.4011 L -0.2827,0.3767 L -0.2529,0.3548 L -0.2225,0.3355 L -0.1915,0.3188 L -0.1601,0.3047 L -0.1284,0.2932 L -0.0964,0.2843 L -0.0644,0.2780 L -0.0322,0.2742 L 0.0000,0.2729 Z"/>
        <g id="arrows10">
          <use xlink:href="#arrow1" transform="translate(0.5317,0.9104) rotate(90.79) scale(2.64)"/>
          <use xlink:href="#arrow1" transform="translate(-0.5316,0.9105) rotate(-87.45) scale(2.64)"/>
        </g>
      </g>
      <g id="fieldline11">
        <path d="M 0.0000,0.3285 L 0.0262,0.3298 L 0.0522,0.3336 L 0.0779,0.3399 L 0.1032,0.3488 L 0.1280,0.3602 L 0.1519,0.3740 L 0.1750,0.3903 L 0.1969,0.4089 L 0.2175,0.4298 L 0.2365,0.4527 L 0.2539,0.4776 L 0.2693,0.5043 L 0.2827,0.5325 L 0.2939,0.5619 L 0.3027,0.5925 L 0.3091,0.6237 L 0.3131,0.6555 L 0.3144,0.6874 L 0.3133,0.7193 L 0.3096,0.7508 L 0.3035,0.7816 L 0.2949,0.8116 L 0.2840,0.8405 L 0.2710,0.8680 L 0.2559,0.8940 L 0.2388,0.9183 L 0.2200,0.9406 L 0.1996,0.9610 L 0.1778,0.9793 L 0.1547,0.9953 L 0.1306,1.0089 L 0.1055,1.0202 L 0.0798,1.0290 L 0.0535,1.0353 L 0.0268,1.0392 L -0.0000,1.0404 L -0.0268,1.0392 L -0.0535,1.0353 L -0.0798,1.0290 L -0.1055,1.0202 L -0.1306,1.0089 L -0.1547,0.9953 L -0.1778,0.9793 L -0.1996,0.9610 L -0.2200,0.9406 L -0.2388,0.9183 L -0.2559,0.8940 L -0.2710,0.8680 L -0.2840,0.8405 L -0.2949,0.8116 L -0.3035,0.7816 L -0.3096,0.7508 L -0.3133,0.7193 L -0.3144,0.6874 L -0.3131,0.6555 L -0.3091,0.6237 L -0.3027,0.5925 L -0.2939,0.5619 L -0.2827,0.5325 L -0.2693,0.5043 L -0.2539,0.4776 L -0.2365,0.4527 L -0.2175,0.4298 L -0.1969,0.4089 L -0.1750,0.3903 L -0.1519,0.3740 L -0.1280,0.3602 L -0.1032,0.3488 L -0.0779,0.3399 L -0.0522,0.3336 L -0.0262,0.3298 L 0.0000,0.3285 Z"/>
        <g id="arrows11">
          <use xlink:href="#arrow1" transform="translate(0.0002,1.0373) rotate(-175.52) scale(2.64)"/>
        </g>
      </g>
      <g id="fieldline12">
        <path d="M 0.0000,0.3727 L 0.0213,0.3740 L 0.0424,0.3777 L 0.0630,0.3840 L 0.0830,0.3926 L 0.1021,0.4037 L 0.1200,0.4170 L 0.1367,0.4325 L 0.1517,0.4499 L 0.1650,0.4692 L 0.1762,0.4900 L 0.1854,0.5121 L 0.1922,0.5353 L 0.1966,0.5591 L 0.1985,0.5834 L 0.1979,0.6077 L 0.1948,0.6317 L 0.1892,0.6552 L 0.1813,0.6777 L 0.1712,0.6990 L 0.1590,0.7190 L 0.1449,0.7372 L 0.1291,0.7536 L 0.1118,0.7679 L 0.0932,0.7800 L 0.0736,0.7899 L 0.0531,0.7973 L 0.0321,0.8023 L 0.0108,0.8048 L -0.0107,0.8048 L -0.0321,0.8023 L -0.0531,0.7973 L -0.0736,0.7899 L -0.0932,0.7800 L -0.1118,0.7679 L -0.1291,0.7536 L -0.1449,0.7372 L -0.1590,0.7190 L -0.1712,0.6991 L -0.1813,0.6777 L -0.1892,0.6552 L -0.1948,0.6317 L -0.1979,0.6077 L -0.1985,0.5834 L -0.1966,0.5591 L -0.1922,0.5353 L -0.1854,0.5121 L -0.1762,0.4900 L -0.1650,0.4692 L -0.1517,0.4499 L -0.1367,0.4325 L -0.1201,0.4170 L -0.1021,0.4037 L -0.0830,0.3926 L -0.0630,0.3840 L -0.0424,0.3777 L -0.0213,0.3740 L 0.0000,0.3727 Z"/>
        <g id="arrows12">
          <use xlink:href="#arrow1" transform="translate(0.0005,0.8002) rotate(-173.33) scale(2.64)"/>
        </g>
      </g>
    </g>
    <g id="symbols">
      <g id="ring" transform="scale(0.01,0.01)">
        <defs>
          <radialGradient cy="0.7" cx="0.65" r="0.75" id="light_spot">
            <stop stop-color="#fff" offset="0"/>
            <stop stop-color="#ddd" offset="0.15"/>
            <stop stop-color="#aaa" offset="0.5"/>
            <stop stop-color="#444" offset="1"/>
          </radialGradient>
        </defs>
        <path style="fill:url(#light_spot); stroke:#000000; stroke-width:3" d="M -20.5,50 V -50 A 20.5,20.5 0 0,1 20.5,-50 V 50 A 20.5,20.5 0 0,1 -20.5,50 Z"/>
        <circle cy="0" cx="0" r="5" transform="translate(0,50)" style="fill:#000000; stroke:none; opacity:0.5"/>
        <path style="fill:#000000; stroke:none; opacity:0.5" d="M 8,-11 L 11,-8 L 3,0 L 11,8 L 8,11 0,3 L -8,11 L -11,8 L -3,0 L -11,-8 L -8,-11 L 0,-3 L 8,-11 Z" transform="translate(0,-50)"/>
      </g>
    </g>
  </g>
</svg>
