<?xml version="1.0" encoding="UTF-8" standalone="no"?>
<svg
   xmlns:dc="http://purl.org/dc/elements/1.1/"
   xmlns:cc="http://creativecommons.org/ns#"
   xmlns:rdf="http://www.w3.org/1999/02/22-rdf-syntax-ns#"
   xmlns:svg="http://www.w3.org/2000/svg"
   xmlns="http://www.w3.org/2000/svg"
   xmlns:xlink="http://www.w3.org/1999/xlink"
   xmlns:sodipodi="http://sodipodi.sourceforge.net/DTD/sodipodi-0.dtd"
   xmlns:inkscape="http://www.inkscape.org/namespaces/inkscape"
   version="1.1"
   width="800"
   height="600"
   id="svg2"
   inkscape:version="0.91 r"
   sodipodi:docname="VFPt_charges_plus_minus.svg">
  <metadata
     id="metadata214">
    <rdf:RDF>
      <cc:Work
         rdf:about="">
        <dc:format>image/svg+xml</dc:format>
        <dc:type
           rdf:resource="http://purl.org/dc/dcmitype/StillImage" />
      </cc:Work>
    </rdf:RDF>
  </metadata>
  <sodipodi:namedview
     pagecolor="#ffffff"
     bordercolor="#666666"
     borderopacity="1"
     objecttolerance="10"
     gridtolerance="10"
     guidetolerance="10"
     inkscape:pageopacity="0"
     inkscape:pageshadow="2"
     inkscape:window-width="1440"
     inkscape:window-height="849"
     id="namedview212"
     showgrid="false"
     inkscape:zoom="1.036377"
     inkscape:cx="400"
     inkscape:cy="300"
     inkscape:window-x="0"
     inkscape:window-y="0"
     inkscape:window-maximized="1"
     inkscape:current-layer="svg2" />
  <title
     id="title4">VFPt_charges_plus_minus</title>
  <desc
     id="desc6">VFPt_charges_plus_minus
created with VectorFieldPlot 1.0
http://commons.wikimedia.org/wiki/User:Geek3/VectorFieldPlot

about: http://commons.wikimedia.org/wiki/Image:VFPt_charges_plus_minus.svg
rights: GNU Free Documentation license,
        Creative Commons Attribution ShareAlike license
  </desc>
  <defs
     id="defs8">
    <radialGradient
       id="white_spot"
       cx="0.65"
       cy="0.7"
       r="0.75">
      <stop
         stop-color="#ffffff"
         offset="0"
         stop-opacity="0.7"
         id="stop11" />
      <stop
         stop-color="#ffffff"
         offset="0.1"
         stop-opacity="0.5"
         id="stop13" />
      <stop
         stop-color="#ffffff"
         offset="0.6"
         stop-opacity="0"
         id="stop15" />
      <stop
         stop-color="#000000"
         offset="0.6"
         stop-opacity="0"
         id="stop17" />
      <stop
         stop-color="#000000"
         offset="0.75"
         stop-opacity="0.05"
         id="stop19" />
      <stop
         stop-color="#000000"
         offset="0.85"
         stop-opacity="0.15"
         id="stop21" />
      <stop
         stop-color="#000000"
         offset="1"
         stop-opacity="0.5"
         id="stop23" />
    </radialGradient>
    <path
       id="arrow1"
       stroke="none"
       fill="#000000"
       transform="scale(0.01)"
       d="M 0.3,0 L -2.2,2.25 L 3.8,0 L -2.2,-2.25 L 0.3,0 Z" />
    <radialGradient
       inkscape:collect="always"
       xlink:href="#white_spot"
       id="radialGradient3542"
       cx="4.4999993"
       cy="5.9999996"
       r="22.5"
       fx="4.4999993"
       fy="5.9999996"
       gradientUnits="userSpaceOnUse" />
    <radialGradient
       inkscape:collect="always"
       xlink:href="#white_spot"
       id="radialGradient3544"
       cx="4.4999993"
       cy="5.9999996"
       r="22.5"
       fx="4.4999993"
       fy="5.9999996"
       gradientUnits="userSpaceOnUse" />
  </defs>
  <rect
     id="background"
     x="-800"
     y="0"
     width="800"
     height="600"
     transform="scale(-1,1)"
     style="fill:#ffffff" />
  <g
     id="image"
     transform="matrix(-100,0,0,-100,400,300)">
    <g
       id="fieldlines"
       style="fill:none;stroke:#000000;stroke-width:0.02;stroke-linecap:round;stroke-linejoin:round">
      <g
         id="fieldline1">
        <path
           d="m -1,0 0.2745,0.0539 0.1487,0.0273 0.1153,0.019 0.0989,0.0141 0.0886,0.0105 0.0822,0.0074 0.0781,0.0048 0.0761,0.0023 0.0752,0 L 0.1136,0.137 0.1918,0.1322 0.274,0.1248 0.3626,0.1143 0.4615,0.1002 0.5768,0.0812 0.7255,0.0539 1,0"
           id="path30"
           inkscape:connector-curvature="0" />
        <g
           id="arrows1">
          <use
             xlink:href="#arrow1"
             transform="matrix(1.9939437,0.15552619,-0.15552619,1.9939437,-0.2111,0.1302)"
             id="use33"
             x="0"
             y="0"
             width="100%"
             height="100%" />
          <use
             xlink:href="#arrow1"
             transform="matrix(1.9920511,-0.17813627,0.17813627,1.9920511,0.2112,0.1304)"
             id="use35"
             x="0"
             y="0"
             width="100%"
             height="100%" />
        </g>
      </g>
      <g
         id="fieldline2">
        <path
           d="m -1,0 0.1748,0.1159 0.1004,0.0641 0.0805,0.0488 0.0704,0.04 0.0637,0.0336 0.0592,0.0285 0.0559,0.0242 0.0534,0.0206 0.0516,0.0173 0.0502,0.0143 0.0491,0.0115 0.0484,0.0088 0.0477,0.0062 0.0475,0.0037 L 0,0.4388 0.0472,0.4375 0.0946,0.4338 0.1424,0.4276 0.1908,0.4188 0.2399,0.4073 0.2901,0.393 0.3417,0.3757 0.3951,0.3551 0.451,0.3309 0.5101,0.3024 0.5739,0.2688 0.6443,0.2288 0.7248,0.18 0.8252,0.1159 1,0"
           id="path38"
           inkscape:connector-curvature="0" />
        <g
           id="arrows2">
          <use
             xlink:href="#arrow1"
             transform="matrix(1.9101434,0.59274978,-0.59274978,1.9101434,-0.3035,0.388)"
             id="use41"
             x="0"
             y="0"
             width="100%"
             height="100%" />
          <use
             xlink:href="#arrow1"
             transform="matrix(1.8955368,-0.63791862,0.63791862,1.8955368,0.3035,0.3881)"
             id="use43"
             x="0"
             y="0"
             width="100%"
             height="100%" />
        </g>
      </g>
      <g
         id="fieldline3">
        <path
           d="m -1,0 0.1055,0.1566 0.0643,0.0916 0.0538,0.0729 0.049,0.0624 0.046,0.0548 0.044,0.0489 0.0428,0.0439 0.042,0.0396 0.0415,0.0359 0.0411,0.0324 0.041,0.0291 0.0408,0.0261 0.0408,0.0232 0.0408,0.0204 0.0407,0.0177 0.0409,0.0151 0.0408,0.0125 0.0409,0.0099 0.0409,0.0074 0.041,0.0049 0.0409,0.0025 0.041,0 L 0.0615,0.8053 0.1024,0.8004 0.1433,0.793 0.1842,0.7831 0.2251,0.7706 0.2659,0.7555 0.3067,0.7378 0.3474,0.7174 0.3882,0.6942 0.429,0.6681 0.47,0.6389 0.5111,0.6066 0.5526,0.5707 0.5946,0.531 0.6374,0.4871 0.6814,0.4383 0.7274,0.3835 0.7764,0.3211 0.8302,0.2482 0.8945,0.1566 1,0"
           id="path46"
           inkscape:connector-curvature="0" />
        <g
           id="arrows3">
          <use
             xlink:href="#arrow1"
             transform="matrix(1.5811654,1.2247105,-1.2247105,1.5811654,-0.4967,0.6175)"
             id="use49"
             x="0"
             y="0"
             width="100%"
             height="100%" />
          <use
             xlink:href="#arrow1"
             transform="matrix(1.5461316,-1.2686516,1.2686516,1.5461316,0.4966,0.6174)"
             id="use51"
             x="0"
             y="0"
             width="100%"
             height="100%" />
        </g>
      </g>
      <g
         id="fieldline4">
        <path
           d="m -1,0 0.0371,0.1824 0.0251,0.1124 0.0233,0.0934 0.023,0.0823 0.0234,0.0748 0.0243,0.0691 0.0252,0.0643 0.0263,0.0603 0.0275,0.0567 0.0286,0.0533 0.0299,0.0503 0.031,0.0472 0.0321,0.0444 0.0332,0.0417 0.0343,0.0389 0.0353,0.0362 0.0362,0.0336 0.0371,0.0309 0.0379,0.0283 0.0386,0.0257 0.0393,0.0231 0.0399,0.0206 0.0405,0.0179 0.0409,0.0154 0.0413,0.0128 0.0416,0.0102 0.0418,0.0077 0.0421,0.0051 0.0421,0.0026 0.0422,0 L 0.0632,1.339 0.1052,1.3339 0.1471,1.3262 0.1887,1.316 0.23,1.3032 0.2709,1.2878 0.3114,1.2699 0.3513,1.2493 0.3906,1.2262 0.4292,1.2005 0.4671,1.1722 0.5042,1.1413 0.5404,1.1077 0.5757,1.0715 0.61,1.0326 0.6432,0.9909 0.6753,0.9465 0.7063,0.8993 0.7362,0.849 0.7648,0.7957 0.7923,0.739 0.8186,0.6787 0.8438,0.6144 0.8681,0.5453 0.8915,0.4705 0.9145,0.3882 0.9378,0.2948 0.9629,0.1824 1,0"
           id="path54"
           inkscape:connector-curvature="0" />
        <g
           id="arrows4">
          <use
             xlink:href="#arrow1"
             transform="matrix(0.88989563,1.791113,-1.791113,0.88989563,-0.7788,0.7664)"
             id="use57"
             x="0"
             y="0"
             width="100%"
             height="100%" />
          <use
             xlink:href="#arrow1"
             transform="matrix(0.85345318,-1.8087614,1.8087614,0.85345318,0.7788,0.7664)"
             id="use59"
             x="0"
             y="0"
             width="100%"
             height="100%" />
        </g>
      </g>
      <g
         id="fieldline5">
        <path
           d="m -1,0 -0.0364,0.1871 -0.0213,0.1209 -0.016,0.1044 -0.0121,0.0951 -0.009,0.0892 -0.006,0.0849 -0.0033,0.0815 -7e-4,0.0787 0.0017,0.0763 0.0042,0.0741 0.0066,0.0721 0.0089,0.0702 0.0112,0.0683 0.0133,0.0665 0.0156,0.0647 0.0177,0.0628 0.0197,0.0609 0.0218,0.0591 0.0237,0.0572 0.0255,0.0551 0.0274,0.0532 0.0292,0.0512 0.0308,0.049 0.0325,0.0469 0.0339,0.0447 0.0354,0.0425 0.0368,0.0403 0.0381,0.038 0.0393,0.0357 0.0404,0.0333 0.0415,0.0309 0.0424,0.0286 0.0434,0.0261 0.0441,0.0237 0.0448,0.0212 0.0455,0.0188 0.046,0.0163 0.0465,0.0137 0.0469,0.0113 0.0472,0.0088 0.0475,0.0063 0.0476,0.0038 L 0,2.2746 0.0477,2.2734 0.0953,2.2696 0.1428,2.2633 0.1899,2.2545 0.2369,2.2432 0.2833,2.2295 0.3294,2.2132 0.3749,2.1944 0.4197,2.1732 0.4638,2.1495 0.5071,2.1234 0.5496,2.0948 0.5911,2.0639 0.6315,2.0306 0.6708,1.9949 0.7089,1.9569 0.7457,1.9166 0.7811,1.8741 0.815,1.8294 0.8475,1.7825 0.8783,1.7334 0.9075,1.6823 0.9349,1.6291 0.9604,1.574 0.9841,1.5168 1.0059,1.4577 1.0256,1.3968 1.0433,1.334 1.0589,1.2693 1.0722,1.2028 1.0834,1.1345 1.0923,1.0643 1.0989,0.9922 1.1031,0.9181 1.1048,0.8418 1.1041,0.7631 1.1008,0.6816 1.0948,0.5967 1.0858,0.5075 1.0737,0.4124 1.0577,0.308 1.0364,0.1871 1,0"
           id="path62"
           inkscape:connector-curvature="0" />
        <g
           id="arrows5">
          <use
             xlink:href="#arrow1"
             transform="matrix(-0.01850023,1.9999144,-1.9999144,-0.01850023,-1.1044,0.7919)"
             id="use65"
             x="0"
             y="0"
             width="100%"
             height="100%" />
          <use
             xlink:href="#arrow1"
             transform="matrix(1.5305171,1.2874461,-1.2874461,1.5305171,-0.6273,2.0332)"
             id="use67"
             x="0"
             y="0"
             width="100%"
             height="100%" />
          <use
             xlink:href="#arrow1"
             transform="matrix(1.5048298,-1.3173789,1.3173789,1.5048298,0.6273,2.0332)"
             id="use69"
             x="0"
             y="0"
             width="100%"
             height="100%" />
          <use
             xlink:href="#arrow1"
             transform="matrix(-0.03664986,-1.9996642,1.9996642,-0.03664986,1.1042,0.7919)"
             id="use71"
             x="0"
             y="0"
             width="100%"
             height="100%" />
        </g>
      </g>
      <g
         id="fieldline6">
        <path
           d="M -1,0 -1.1148,0.1734 -1.1901,0.291 -1.2545,0.3962 -1.3122,0.4951 -1.365,0.5906 -1.4138,0.6839 -1.4591,0.7759 -1.5011,0.867 -1.5401,0.9576 -1.5762,1.0478 -1.6095,1.1377 -1.64,1.2274 -1.6678,1.317 -1.693,1.4065 -1.7154,1.4958 -1.7352,1.5849 -1.7524,1.6737 -1.7669,1.7623 -1.7788,1.8505 -1.7881,1.9384 -1.7948,2.0257 -1.799,2.1125 l -0.0015,0.0862 9e-4,0.0856 0.0035,0.0847 0.006,0.0839 0.0084,0.083 0.0109,0.0819 0.0133,0.0809 0.0156,0.0798 0.018,0.0785 0.0203,0.0772 0.0225,0.0758 m 3.3622,0 L 1.7036,2.9342 1.7239,2.857 1.7419,2.7785 1.7575,2.6987 1.7708,2.6179 1.7817,2.5359 1.7901,2.4529 1.7961,2.369 1.7996,2.2843 1.8005,2.1987 1.799,2.1125 1.7948,2.0257 1.7881,1.9384 1.7788,1.8505 1.7669,1.7623 1.7524,1.6737 1.7352,1.5849 1.7154,1.4958 1.693,1.4065 1.6678,1.317 1.64,1.2274 1.6095,1.1377 1.5762,1.0478 1.5401,0.9576 1.5011,0.867 1.4591,0.7759 1.4138,0.6839 1.365,0.5906 1.3122,0.4951 1.2545,0.3962 1.1901,0.291 1.1148,0.1734 1,0"
           id="path74"
           inkscape:connector-curvature="0" />
        <g
           id="arrows6">
          <use
             xlink:href="#arrow1"
             transform="matrix(-0.89614236,1.7879958,-1.7879958,-0.89614236,-1.4136,0.6842)"
             id="use77"
             x="0"
             y="0"
             width="100%"
             height="100%" />
          <use
             xlink:href="#arrow1"
             transform="matrix(0.02233975,1.9998752,-1.9998752,0.02233975,-1.8003,2.2217)"
             id="use79"
             x="0"
             y="0"
             width="100%"
             height="100%" />
          <use
             xlink:href="#arrow1"
             transform="matrix(3.4906585e-4,-2,2,3.4906585e-4,1.8,2.2217)"
             id="use81"
             x="0"
             y="0"
             width="100%"
             height="100%" />
          <use
             xlink:href="#arrow1"
             transform="matrix(-0.91326433,-1.7793112,1.7793112,-0.91326433,1.4136,0.6842)"
             id="use83"
             x="0"
             y="0"
             width="100%"
             height="100%" />
        </g>
      </g>
      <g
         id="fieldline7">
        <path
           d="m -1,0 -0.2019,0.1359 -0.1409,0.0976 -0.1257,0.0899 -0.1179,0.0873 -0.1129,0.0866 -0.1092,0.087 -0.1064,0.0878 -0.104,0.0891 -0.1018,0.0905 -0.0999,0.092 -0.098,0.0938 -0.0963,0.0954 -0.0945,0.0972 -0.0928,0.099 -0.091,0.1008 L -2.7825,1.5324 -2.87,1.6366 -2.9557,1.7426 -3.0395,1.8503 -3.1216,1.9596 -3.2017,2.0705 -3.2799,2.183 -3.3561,2.297 -3.4303,2.4125 -3.5025,2.5294 -3.5726,2.6476 -3.6406,2.7672 -3.7064,2.888 -3.7701,3.01 m 7.5402,0 L 3.7064,2.888 3.6406,2.7672 3.5726,2.6476 3.5025,2.5294 3.4303,2.4125 3.3561,2.297 3.2799,2.183 3.2017,2.0705 3.1216,1.9596 3.0395,1.8503 2.9557,1.7426 2.87,1.6366 2.7825,1.5324 2.6932,1.4299 2.6022,1.3291 2.5094,1.2301 2.4149,1.1329 2.3186,1.0375 2.2206,0.9437 2.1207,0.8517 2.0189,0.7612 1.9149,0.6721 1.8085,0.5843 1.6993,0.4973 1.5864,0.4107 1.4685,0.3234 1.3428,0.2335 1.2019,0.1359 1,0"
           id="path86"
           inkscape:connector-curvature="0" />
        <g
           id="arrows7">
          <use
             xlink:href="#arrow1"
             transform="matrix(-1.5864942,1.2177998,-1.2177998,-1.5864942,-1.653,0.4618)"
             id="use89"
             x="0"
             y="0"
             width="100%"
             height="100%" />
          <use
             xlink:href="#arrow1"
             transform="matrix(-1.3408532,1.4839517,-1.4839517,-1.3408532,-2.6349,1.3654)"
             id="use91"
             x="0"
             y="0"
             width="100%"
             height="100%" />
          <use
             xlink:href="#arrow1"
             transform="matrix(-1.0518341,1.7010717,-1.7010717,-1.0518341,-3.4405,2.4291)"
             id="use93"
             x="0"
             y="0"
             width="100%"
             height="100%" />
          <use
             xlink:href="#arrow1"
             transform="matrix(-1.0636841,-1.6936871,1.6936871,-1.0636841,3.4404,2.4292)"
             id="use95"
             x="0"
             y="0"
             width="100%"
             height="100%" />
          <use
             xlink:href="#arrow1"
             transform="matrix(-1.3408532,-1.4839517,1.4839517,-1.3408532,2.6349,1.3654)"
             id="use97"
             x="0"
             y="0"
             width="100%"
             height="100%" />
          <use
             xlink:href="#arrow1"
             transform="matrix(-1.5864942,-1.2177998,1.2177998,-1.5864942,1.653,0.4618)"
             id="use99"
             x="0"
             y="0"
             width="100%"
             height="100%" />
        </g>
      </g>
      <g
         id="fieldline8">
        <path
           d="M -1,0 -1.3483,0.0701 -1.6091,0.1248 -1.853,0.1783 -2.091,0.2329 -2.3271,0.2895 -2.5631,0.3485 -2.8,0.4101 -3.0383,0.4746 -3.2783,0.5419 -3.5203,0.6123 -3.7641,0.6856 -4.01,0.7621 m 8.02,0 L 3.7641,0.6856 3.5203,0.6123 3.2783,0.5419 3.0383,0.4746 2.8,0.4101 2.5631,0.3485 2.3271,0.2895 2.091,0.2329 1.853,0.1783 1.6091,0.1248 1.3483,0.0701 1,0"
           id="path102"
           inkscape:connector-curvature="0" />
        <g
           id="arrows8">
          <use
             xlink:href="#arrow1"
             transform="matrix(-1.9534944,0.42878878,-0.42878878,-1.9534944,-1.7832,0.163)"
             id="use105"
             x="0"
             y="0"
             width="100%"
             height="100%" />
          <use
             xlink:href="#arrow1"
             transform="matrix(-1.9224271,0.55161025,-0.55161025,-1.9224271,-3.2737,0.5407)"
             id="use107"
             x="0"
             y="0"
             width="100%"
             height="100%" />
          <use
             xlink:href="#arrow1"
             transform="matrix(-1.924436,-0.54456049,0.54456049,-1.924436,3.2737,0.5407)"
             id="use109"
             x="0"
             y="0"
             width="100%"
             height="100%" />
          <use
             xlink:href="#arrow1"
             transform="matrix(-1.9534944,-0.42878878,0.42878878,-1.9534944,1.7832,0.163)"
             id="use111"
             x="0"
             y="0"
             width="100%"
             height="100%" />
        </g>
      </g>
      <g
         id="fieldline9">
        <path
           d="M -1,0 -1.3483,-0.0701 -1.6091,-0.1248 -1.853,-0.1783 -2.091,-0.2329 -2.3271,-0.2895 -2.5631,-0.3485 -2.8,-0.4101 -3.0383,-0.4746 -3.2783,-0.5419 -3.5203,-0.6123 -3.7641,-0.6856 -4.01,-0.7621 m 8.02,0 -0.2459,0.0765 -0.2438,0.0733 -0.242,0.0704 -0.24,0.0673 L 2.8,-0.4101 2.5631,-0.3485 2.3271,-0.2895 2.091,-0.2329 1.853,-0.1783 1.6091,-0.1248 1.3483,-0.0701 1,0"
           id="path114"
           inkscape:connector-curvature="0" />
        <g
           id="arrows9">
          <use
             xlink:href="#arrow1"
             transform="matrix(-1.9534944,-0.42878878,0.42878878,-1.9534944,-1.7832,-0.163)"
             id="use117"
             x="0"
             y="0"
             width="100%"
             height="100%" />
          <use
             xlink:href="#arrow1"
             transform="matrix(-1.9224271,-0.55161025,0.55161025,-1.9224271,-3.2737,-0.5407)"
             id="use119"
             x="0"
             y="0"
             width="100%"
             height="100%" />
          <use
             xlink:href="#arrow1"
             transform="matrix(-1.924436,0.54456049,-0.54456049,-1.924436,3.2737,-0.5407)"
             id="use121"
             x="0"
             y="0"
             width="100%"
             height="100%" />
          <use
             xlink:href="#arrow1"
             transform="matrix(-1.9534944,0.42878878,-0.42878878,-1.9534944,1.7832,-0.163)"
             id="use123"
             x="0"
             y="0"
             width="100%"
             height="100%" />
        </g>
      </g>
      <g
         id="fieldline10">
        <path
           d="m -1,0 -0.2019,-0.1359 -0.1409,-0.0976 -0.1257,-0.0899 -0.1179,-0.0873 -0.1129,-0.0866 -0.1092,-0.087 -0.1064,-0.0878 -0.104,-0.0891 -0.1018,-0.0905 -0.0999,-0.092 -0.098,-0.0938 -0.0963,-0.0954 -0.0945,-0.0972 -0.0928,-0.099 -0.091,-0.1008 L -2.7825,-1.5324 -2.87,-1.6366 -2.9557,-1.7426 -3.0395,-1.8503 -3.1216,-1.9596 -3.2017,-2.0705 -3.2799,-2.183 -3.3561,-2.297 -3.4303,-2.4125 -3.5025,-2.5294 -3.5726,-2.6476 -3.6406,-2.7672 -3.7064,-2.888 -3.7701,-3.01 m 7.5402,0 -0.0637,0.122 -0.0658,0.1208 -0.068,0.1196 -0.0701,0.1182 -0.0722,0.1169 -0.0742,0.1155 -0.0762,0.114 -0.0782,0.1125 -0.0801,0.1109 -0.0821,0.1093 -0.0838,0.1077 -0.0857,0.106 -0.0875,0.1042 -0.0893,0.1025 -0.091,0.1008 -0.0928,0.099 -0.0945,0.0972 -0.0963,0.0954 -0.098,0.0938 -0.0999,0.092 -0.1018,0.0905 -0.104,0.0891 -0.1064,0.0878 -0.1092,0.087 L 1.5864,-0.4107 1.4685,-0.3234 1.3428,-0.2335 1.2019,-0.1359 1,0"
           id="path126"
           inkscape:connector-curvature="0" />
        <g
           id="arrows10">
          <use
             xlink:href="#arrow1"
             transform="matrix(-1.5864942,-1.2177998,1.2177998,-1.5864942,-1.653,-0.4618)"
             id="use129"
             x="0"
             y="0"
             width="100%"
             height="100%" />
          <use
             xlink:href="#arrow1"
             transform="matrix(-1.3408532,-1.4839517,1.4839517,-1.3408532,-2.6349,-1.3654)"
             id="use131"
             x="0"
             y="0"
             width="100%"
             height="100%" />
          <use
             xlink:href="#arrow1"
             transform="matrix(-1.0518341,-1.7010717,1.7010717,-1.0518341,-3.4405,-2.4291)"
             id="use133"
             x="0"
             y="0"
             width="100%"
             height="100%" />
          <use
             xlink:href="#arrow1"
             transform="matrix(-1.0636841,1.6936871,-1.6936871,-1.0636841,3.4404,-2.4292)"
             id="use135"
             x="0"
             y="0"
             width="100%"
             height="100%" />
          <use
             xlink:href="#arrow1"
             transform="matrix(-1.3408532,1.4839517,-1.4839517,-1.3408532,2.6349,-1.3654)"
             id="use137"
             x="0"
             y="0"
             width="100%"
             height="100%" />
          <use
             xlink:href="#arrow1"
             transform="matrix(-1.5864942,1.2177998,-1.2177998,-1.5864942,1.653,-0.4618)"
             id="use139"
             x="0"
             y="0"
             width="100%"
             height="100%" />
        </g>
      </g>
      <g
         id="fieldline11">
        <path
           d="M -1,0 -1.1148,-0.1734 -1.1901,-0.291 -1.2545,-0.3962 -1.3122,-0.4951 -1.365,-0.5906 -1.4138,-0.6839 -1.4591,-0.7759 -1.5011,-0.867 -1.5401,-0.9576 -1.5762,-1.0478 -1.6095,-1.1377 -1.64,-1.2274 -1.6678,-1.317 -1.693,-1.4065 -1.7154,-1.4958 -1.7352,-1.5849 -1.7524,-1.6737 -1.7669,-1.7623 -1.7788,-1.8505 -1.7881,-1.9384 -1.7948,-2.0257 -1.799,-2.1125 l -0.0015,-0.0862 9e-4,-0.0856 0.0035,-0.0847 0.006,-0.0839 0.0084,-0.083 0.0109,-0.0819 0.0133,-0.0809 0.0156,-0.0798 0.018,-0.0785 0.0203,-0.0772 0.0225,-0.0758 m 3.3622,0 0.0225,0.0758 0.0203,0.0772 0.018,0.0785 0.0156,0.0798 0.0133,0.0808 0.0109,0.082 0.0084,0.083 0.006,0.0839 0.0035,0.0847 9e-4,0.0856 L 1.799,-2.1125 1.7948,-2.0257 1.7881,-1.9384 1.7788,-1.8505 1.7669,-1.7623 1.7524,-1.6737 1.7352,-1.5849 1.7154,-1.4958 1.693,-1.4065 1.6678,-1.317 1.64,-1.2274 1.6095,-1.1377 1.5762,-1.0478 1.5401,-0.9576 1.5011,-0.867 1.4591,-0.7759 1.4138,-0.6839 1.365,-0.5906 1.3122,-0.4951 1.2545,-0.3962 1.1901,-0.291 1.1148,-0.1734 1,0"
           id="path142"
           inkscape:connector-curvature="0" />
        <g
           id="arrows11">
          <use
             xlink:href="#arrow1"
             transform="matrix(-0.89614236,-1.7879958,1.7879958,-0.89614236,-1.4136,-0.6842)"
             id="use145"
             x="0"
             y="0"
             width="100%"
             height="100%" />
          <use
             xlink:href="#arrow1"
             transform="matrix(0.02233975,-1.9998752,1.9998752,0.02233975,-1.8003,-2.2217)"
             id="use147"
             x="0"
             y="0"
             width="100%"
             height="100%" />
          <use
             xlink:href="#arrow1"
             transform="matrix(3.4906585e-4,2,-2,3.4906585e-4,1.8,-2.2217)"
             id="use149"
             x="0"
             y="0"
             width="100%"
             height="100%" />
          <use
             xlink:href="#arrow1"
             transform="matrix(-0.91326433,1.7793112,-1.7793112,-0.91326433,1.4136,-0.6842)"
             id="use151"
             x="0"
             y="0"
             width="100%"
             height="100%" />
        </g>
      </g>
      <g
         id="fieldline12">
        <path
           d="m -1,0 -0.0364,-0.1871 -0.0213,-0.1209 -0.016,-0.1044 -0.0121,-0.0951 -0.009,-0.0892 -0.006,-0.0849 -0.0033,-0.0815 -7e-4,-0.0787 0.0017,-0.0763 0.0042,-0.0741 0.0066,-0.0721 0.0089,-0.0702 0.0112,-0.0683 0.0133,-0.0665 0.0156,-0.0647 0.0177,-0.0628 0.0197,-0.0609 0.0218,-0.0591 0.0237,-0.0572 0.0255,-0.0551 0.0274,-0.0532 0.0292,-0.0512 0.0308,-0.049 0.0325,-0.0469 0.0339,-0.0447 0.0354,-0.0425 0.0368,-0.0403 0.0381,-0.038 0.0393,-0.0357 0.0404,-0.0333 0.0415,-0.0309 0.0424,-0.0286 0.0434,-0.0261 0.0441,-0.0237 0.0448,-0.0212 0.0455,-0.0188 0.046,-0.0163 0.0465,-0.0137 0.0469,-0.0113 0.0472,-0.0088 0.0475,-0.0063 0.0476,-0.0038 L 0,-2.2746 l 0.0477,0.0012 0.0476,0.0038 0.0475,0.0063 0.0471,0.0088 0.047,0.0113 0.0464,0.0137 0.0461,0.0163 0.0455,0.0188 0.0448,0.0212 0.0441,0.0237 0.0433,0.0261 0.0425,0.0286 0.0415,0.0309 0.0404,0.0333 0.0393,0.0357 0.0381,0.038 0.0368,0.0403 0.0354,0.0425 0.0339,0.0447 0.0325,0.0469 0.0308,0.0491 0.0292,0.0511 0.0274,0.0532 0.0255,0.0551 0.0237,0.0572 0.0218,0.0591 0.0197,0.0609 0.0177,0.0628 0.0156,0.0647 0.0133,0.0665 0.0112,0.0683 0.0089,0.0702 0.0066,0.0721 0.0042,0.0741 0.0017,0.0763 -7e-4,0.0787 -0.0033,0.0815 -0.006,0.0849 -0.009,0.0892 L 1.0737,-0.4124 1.0577,-0.308 1.0364,-0.1871 1,0"
           id="path154"
           inkscape:connector-curvature="0" />
        <g
           id="arrows12">
          <use
             xlink:href="#arrow1"
             transform="matrix(-0.01850023,-1.9999144,1.9999144,-0.01850023,-1.1044,-0.7919)"
             id="use157"
             x="0"
             y="0"
             width="100%"
             height="100%" />
          <use
             xlink:href="#arrow1"
             transform="matrix(1.5305171,-1.2874461,1.2874461,1.5305171,-0.6273,-2.0332)"
             id="use159"
             x="0"
             y="0"
             width="100%"
             height="100%" />
          <use
             xlink:href="#arrow1"
             transform="matrix(1.5048298,1.3173789,-1.3173789,1.5048298,0.6273,-2.0332)"
             id="use161"
             x="0"
             y="0"
             width="100%"
             height="100%" />
          <use
             xlink:href="#arrow1"
             transform="matrix(-0.03664986,1.9996642,-1.9996642,-0.03664986,1.1042,-0.7919)"
             id="use163"
             x="0"
             y="0"
             width="100%"
             height="100%" />
        </g>
      </g>
      <g
         id="fieldline13">
        <path
           d="m -1,0 0.0371,-0.1824 0.0251,-0.1124 0.0233,-0.0934 0.023,-0.0823 0.0234,-0.0748 0.0243,-0.0691 0.0252,-0.0643 0.0263,-0.0603 0.0275,-0.0567 0.0286,-0.0533 0.0299,-0.0503 0.031,-0.0472 0.0321,-0.0444 0.0332,-0.0417 0.0343,-0.0389 0.0353,-0.0362 0.0362,-0.0336 0.0371,-0.0309 0.0379,-0.0283 0.0386,-0.0257 0.0393,-0.0231 0.0399,-0.0206 0.0405,-0.0179 0.0409,-0.0154 0.0413,-0.0128 0.0416,-0.0102 0.0418,-0.0077 0.0421,-0.0051 0.0421,-0.0026 0.0422,0 0.0421,0.0026 0.042,0.0051 0.0419,0.0077 0.0416,0.0102 0.0413,0.0128 0.0409,0.0154 0.0405,0.0179 0.0399,0.0206 0.0393,0.0231 0.0386,0.0257 0.0379,0.0283 0.0371,0.0309 0.0362,0.0336 0.0353,0.0362 0.0343,0.0389 0.0332,0.0417 0.0321,0.0444 0.031,0.0472 0.0299,0.0503 0.0286,0.0533 0.0275,0.0567 0.0263,0.0603 0.0252,0.0643 0.0243,0.0691 0.0234,0.0748 0.023,0.0823 0.0233,0.0934 0.0251,0.1124 L 1,0"
           id="path166"
           inkscape:connector-curvature="0" />
        <g
           id="arrows13">
          <use
             xlink:href="#arrow1"
             transform="matrix(0.88989563,-1.791113,1.791113,0.88989563,-0.7788,-0.7664)"
             id="use169"
             x="0"
             y="0"
             width="100%"
             height="100%" />
          <use
             xlink:href="#arrow1"
             transform="matrix(0.85345318,1.8087614,-1.8087614,0.85345318,0.7788,-0.7664)"
             id="use171"
             x="0"
             y="0"
             width="100%"
             height="100%" />
        </g>
      </g>
      <g
         id="fieldline14">
        <path
           d="m -1,0 0.1055,-0.1566 0.0643,-0.0916 0.0538,-0.0729 0.049,-0.0624 0.046,-0.0548 0.044,-0.0489 0.0428,-0.0439 0.042,-0.0396 0.0415,-0.0359 0.0411,-0.0324 0.041,-0.0291 0.0408,-0.0261 0.0408,-0.0232 0.0408,-0.0204 0.0407,-0.0177 0.0409,-0.0151 0.0408,-0.0125 0.0409,-0.0099 0.0409,-0.0074 0.041,-0.0049 0.0409,-0.0025 0.041,0 0.041,0.0025 0.0409,0.0049 0.0409,0.0074 0.0409,0.0099 0.0409,0.0125 0.0408,0.0151 0.0408,0.0177 0.0407,0.0204 0.0408,0.0232 0.0408,0.0261 0.041,0.0292 0.0411,0.0323 0.0415,0.0359 0.042,0.0397 0.0428,0.0439 0.044,0.0488 0.046,0.0548 0.049,0.0624 0.0538,0.0729 0.0643,0.0916 L 1,0"
           id="path174"
           inkscape:connector-curvature="0" />
        <g
           id="arrows14">
          <use
             xlink:href="#arrow1"
             transform="matrix(1.5811654,-1.2247105,1.2247105,1.5811654,-0.4967,-0.6175)"
             id="use177"
             x="0"
             y="0"
             width="100%"
             height="100%" />
          <use
             xlink:href="#arrow1"
             transform="matrix(1.5461316,1.2686516,-1.2686516,1.5461316,0.4966,-0.6174)"
             id="use179"
             x="0"
             y="0"
             width="100%"
             height="100%" />
        </g>
      </g>
      <g
         id="fieldline15">
        <path
           d="m -1,0 0.1748,-0.1159 0.1004,-0.0641 0.0805,-0.0488 0.0704,-0.04 0.0637,-0.0336 0.0592,-0.0285 0.0559,-0.0242 0.0534,-0.0206 0.0516,-0.0173 0.0502,-0.0143 0.0491,-0.0115 0.0484,-0.0088 0.0477,-0.0062 0.0475,-0.0037 L 0,-0.4388 l 0.0472,0.0013 0.0474,0.0037 0.0478,0.0062 0.0484,0.0088 0.0491,0.0115 0.0502,0.0143 0.0516,0.0173 0.0534,0.0206 0.0559,0.0242 0.0591,0.0285 0.0638,0.0336 0.0704,0.04 L 0.7248,-0.18 0.8252,-0.1159 1,0"
           id="path182"
           inkscape:connector-curvature="0" />
        <g
           id="arrows15">
          <use
             xlink:href="#arrow1"
             transform="matrix(1.9101434,-0.59274978,0.59274978,1.9101434,-0.3035,-0.388)"
             id="use185"
             x="0"
             y="0"
             width="100%"
             height="100%" />
          <use
             xlink:href="#arrow1"
             transform="matrix(1.8955368,0.63791862,-0.63791862,1.8955368,0.3035,-0.3881)"
             id="use187"
             x="0"
             y="0"
             width="100%"
             height="100%" />
        </g>
      </g>
      <g
         id="fieldline16">
        <path
           d="m -1,0 0.2745,-0.0539 0.1487,-0.0273 0.1153,-0.019 0.0989,-0.0141 0.0886,-0.0105 0.0822,-0.0074 0.0781,-0.0048 0.0761,-0.0023 0.0752,0 0.076,0.0023 0.0782,0.0048 0.0822,0.0074 0.0886,0.0105 0.0989,0.0141 0.1153,0.019 0.1487,0.0273 L 1,0"
           id="path190"
           inkscape:connector-curvature="0" />
        <g
           id="arrows16">
          <use
             xlink:href="#arrow1"
             transform="matrix(1.9939437,-0.15552619,0.15552619,1.9939437,-0.2111,-0.1302)"
             id="use193"
             x="0"
             y="0"
             width="100%"
             height="100%" />
          <use
             xlink:href="#arrow1"
             transform="matrix(1.9920511,0.17813627,-0.17813627,1.9920511,0.2112,-0.1304)"
             id="use195"
             x="0"
             y="0"
             width="100%"
             height="100%" />
        </g>
      </g>
    </g>
    <g
       id="symbols">
      <g
         id="charge1"
         transform="matrix(0.01,0,0,0.01,-1,0)">
        <circle
           style="fill:#ff0000;stroke:none"
           cx="0"
           cy="0"
           r="14"
           id="circle199" />
        <circle
           cx="0"
           cy="0"
           r="14"
           style="fill:url(#radialGradient3542);stroke:#000000;stroke-width:2"
           id="circle201" />
        <path
           d="m 2,2 0,6 -4,0 0,-6 -6,0 0,-4 6,0 0,-6 4,0 0,6 6,0 0,4 -6,0 z"
           style="fill:#000000;stroke:none"
           id="path203"
           inkscape:connector-curvature="0" />
      </g>
      <g
         id="charge2"
         transform="matrix(0.01,0,0,0.01,1,0)">
        <circle
           style="fill:#0000ff;stroke:none"
           cx="0"
           cy="0"
           r="14"
           id="circle206" />
        <circle
           cx="0"
           cy="0"
           r="14"
           style="fill:url(#radialGradient3544);stroke:#000000;stroke-width:2"
           id="circle208" />
        <path
           d="M 8,2 -8,2 -8,-2 8,-2 8,2 Z"
           style="fill:#000000;stroke:none"
           id="path210"
           inkscape:connector-curvature="0" />
      </g>
    </g>
  </g>
</svg>
