<?xml version='1.0' encoding='utf8'?>
<svg xmlns:xlink="http://www.w3.org/1999/xlink" xmlns="http://www.w3.org/2000/svg" version="1.1" baseProfile="full" width="600" height="600">
  <title>VFPt_ringcurrent</title>
  <desc>VFPt_ringcurrent
created with VectorFieldPlot 1.0
http://commons.wikimedia.org/wiki/User:Geek3/VectorFieldPlot

about: http://commons.wikimedia.org/wiki/Image:VFPt_ringcurrent.svg
rights: GNU Free Documentation license,
        Creative Commons Attribution ShareAlike license
  </desc>
  <defs>
    <radialGradient id="white_spot" cx="0.65" cy="0.7" r="0.75">
      <stop stop-color="#ffffff" offset="0" stop-opacity="0.7"/>
      <stop stop-color="#ffffff" offset="0.1" stop-opacity="0.5"/>
      <stop stop-color="#ffffff" offset="0.6" stop-opacity="0"/>
      <stop stop-color="#000000" offset="0.6" stop-opacity="0"/>
      <stop stop-color="#000000" offset="0.75" stop-opacity="0.05"/>
      <stop stop-color="#000000" offset="0.85" stop-opacity="0.15"/>
      <stop stop-color="#000000" offset="1" stop-opacity="0.5"/>
    </radialGradient>
    <path id="arrow1" stroke="none" fill="#000000" transform="scale(0.01)" d="M 0.3,0 L -2.2,2.25 L 3.8,0 L -2.2,-2.25 L 0.3,0 Z"/>
  </defs>
  <rect id="background" x="0" y="0" width="600" height="600" fill="#ffffff"/>
  <g id="image" transform="translate(300.0,300.0) scale(100.0,-100.0)">
    <g id="fieldlines" fill="none" stroke="#000000" stroke-width="0.02" stroke-linejoin="round" stroke-linecap="round">
      <g id="fieldline1">
        <path d="M 0.0000,-0.8500 L 0.0219,-0.8513 L 0.0435,-0.8551 L 0.0646,-0.8613 L 0.0849,-0.8700 L 0.1042,-0.8810 L 0.1222,-0.8942 L 0.1388,-0.9094 L 0.1536,-0.9266 L 0.1665,-0.9454 L 0.1774,-0.9656 L 0.1860,-0.9870 L 0.1922,-1.0094 L 0.1960,-1.0323 L 0.1972,-1.0556 L 0.1960,-1.0788 L 0.1922,-1.1018 L 0.1860,-1.1241 L 0.1774,-1.1455 L 0.1665,-1.1658 L 0.1536,-1.1846 L 0.1387,-1.2017 L 0.1222,-1.2170 L 0.1041,-1.2302 L 0.0849,-1.2412 L 0.0645,-1.2498 L 0.0435,-1.2561 L 0.0218,-1.2599 L 0.0000,-1.2612 L -0.0218,-1.2599 L -0.0435,-1.2561 L -0.0645,-1.2498 L -0.0849,-1.2412 L -0.1041,-1.2302 L -0.1222,-1.2170 L -0.1387,-1.2017 L -0.1536,-1.1846 L -0.1665,-1.1658 L -0.1774,-1.1455 L -0.1860,-1.1241 L -0.1922,-1.1018 L -0.1960,-1.0788 L -0.1972,-1.0556 L -0.1960,-1.0323 L -0.1922,-1.0094 L -0.1860,-0.9870 L -0.1774,-0.9656 L -0.1665,-0.9454 L -0.1536,-0.9266 L -0.1388,-0.9095 L -0.1222,-0.8942 L -0.1042,-0.8810 L -0.0849,-0.8700 L -0.0646,-0.8613 L -0.0435,-0.8551 L -0.0219,-0.8513 L 0.0000,-0.8500 Z"/>
        <g id="arrows1">
          <use xlink:href="#arrow1" transform="translate(0.0002,-1.2583) rotate(175.65) scale(2.0)"/>
        </g>
      </g>
      <g id="fieldline2">
        <path d="M 0.0000,-0.7769 L 0.0278,-0.7781 L 0.0554,-0.7819 L 0.0827,-0.7882 L 0.1095,-0.7970 L 0.1355,-0.8082 L 0.1605,-0.8218 L 0.1845,-0.8377 L 0.2073,-0.8558 L 0.2285,-0.8759 L 0.2482,-0.8981 L 0.2661,-0.9220 L 0.2820,-0.9476 L 0.2958,-0.9747 L 0.3074,-1.0030 L 0.3167,-1.0323 L 0.3236,-1.0625 L 0.3281,-1.0932 L 0.3300,-1.1242 L 0.3294,-1.1552 L 0.3262,-1.1860 L 0.3206,-1.2164 L 0.3125,-1.2461 L 0.3021,-1.2749 L 0.2894,-1.3025 L 0.2746,-1.3287 L 0.2577,-1.3534 L 0.2390,-1.3764 L 0.2185,-1.3975 L 0.1965,-1.4166 L 0.1731,-1.4335 L 0.1486,-1.4482 L 0.1230,-1.4606 L 0.0965,-1.4706 L 0.0694,-1.4781 L 0.0418,-1.4832 L 0.0140,-1.4857 L -0.0140,-1.4857 L -0.0418,-1.4832 L -0.0694,-1.4781 L -0.0965,-1.4706 L -0.1230,-1.4606 L -0.1486,-1.4482 L -0.1732,-1.4335 L -0.1965,-1.4166 L -0.2185,-1.3975 L -0.2390,-1.3764 L -0.2577,-1.3534 L -0.2746,-1.3287 L -0.2894,-1.3025 L -0.3021,-1.2749 L -0.3125,-1.2461 L -0.3206,-1.2164 L -0.3262,-1.1860 L -0.3294,-1.1552 L -0.3300,-1.1242 L -0.3281,-1.0932 L -0.3236,-1.0625 L -0.3167,-1.0323 L -0.3074,-1.0030 L -0.2958,-0.9747 L -0.2820,-0.9476 L -0.2661,-0.9220 L -0.2482,-0.8981 L -0.2285,-0.8759 L -0.2073,-0.8558 L -0.1845,-0.8377 L -0.1605,-0.8218 L -0.1355,-0.8082 L -0.1095,-0.7970 L -0.0827,-0.7882 L -0.0554,-0.7819 L -0.0278,-0.7781 L 0.0000,-0.7769 Z"/>
        <g id="arrows2">
          <use xlink:href="#arrow1" transform="translate(0.0001,-1.4840) rotate(177.45) scale(2.0)"/>
        </g>
      </g>
      <g id="fieldline3">
        <path d="M 0.0000,-0.6807 L 0.0352,-0.6819 L 0.0702,-0.6857 L 0.1050,-0.6920 L 0.1395,-0.7009 L 0.1735,-0.7122 L 0.2069,-0.7261 L 0.2397,-0.7424 L 0.2716,-0.7611 L 0.3025,-0.7822 L 0.3323,-0.8056 L 0.3608,-0.8313 L 0.3880,-0.8591 L 0.4136,-0.8890 L 0.4375,-0.9209 L 0.4596,-0.9546 L 0.4798,-0.9899 L 0.4979,-1.0268 L 0.5138,-1.0650 L 0.5275,-1.1043 L 0.5388,-1.1446 L 0.5477,-1.1857 L 0.5541,-1.2273 L 0.5580,-1.2693 L 0.5594,-1.3114 L 0.5582,-1.3535 L 0.5546,-1.3952 L 0.5484,-1.4365 L 0.5398,-1.4772 L 0.5288,-1.5169 L 0.5154,-1.5557 L 0.4998,-1.5932 L 0.4821,-1.6294 L 0.4623,-1.6641 L 0.4405,-1.6971 L 0.4169,-1.7283 L 0.3915,-1.7577 L 0.3645,-1.7850 L 0.3361,-1.8103 L 0.3063,-1.8334 L 0.2754,-1.8542 L 0.2433,-1.8728 L 0.2103,-1.8889 L 0.1765,-1.9027 L 0.1420,-1.9140 L 0.1070,-1.9228 L 0.0715,-1.9291 L 0.0358,-1.9329 L -0.0000,-1.9342 L -0.0358,-1.9329 L -0.0715,-1.9291 L -0.1070,-1.9228 L -0.1420,-1.9140 L -0.1765,-1.9027 L -0.2103,-1.8889 L -0.2433,-1.8728 L -0.2754,-1.8542 L -0.3063,-1.8334 L -0.3361,-1.8103 L -0.3645,-1.7850 L -0.3915,-1.7577 L -0.4169,-1.7283 L -0.4405,-1.6971 L -0.4623,-1.6641 L -0.4821,-1.6294 L -0.4998,-1.5932 L -0.5154,-1.5557 L -0.5288,-1.5169 L -0.5398,-1.4772 L -0.5484,-1.4365 L -0.5546,-1.3952 L -0.5582,-1.3535 L -0.5594,-1.3114 L -0.5580,-1.2693 L -0.5541,-1.2273 L -0.5477,-1.1857 L -0.5388,-1.1446 L -0.5275,-1.1043 L -0.5138,-1.0650 L -0.4979,-1.0268 L -0.4798,-0.9899 L -0.4596,-0.9546 L -0.4375,-0.9209 L -0.4136,-0.8890 L -0.3880,-0.8591 L -0.3608,-0.8313 L -0.3323,-0.8056 L -0.3025,-0.7822 L -0.2716,-0.7611 L -0.2397,-0.7424 L -0.2069,-0.7261 L -0.1735,-0.7122 L -0.1395,-0.7009 L -0.1050,-0.6920 L -0.0702,-0.6857 L -0.0352,-0.6819 L 0.0000,-0.6807 Z"/>
        <g id="arrows3">
          <use xlink:href="#arrow1" transform="translate(0.5584,-1.3092) rotate(-90.65) scale(2.0)"/>
          <use xlink:href="#arrow1" transform="translate(-0.5583,-1.3092) rotate(88.62) scale(2.0)"/>
        </g>
      </g>
      <g id="fieldline4">
        <path d="M 0.0000,-0.5607 L 0.0446,-0.5620 L 0.0891,-0.5658 L 0.1335,-0.5722 L 0.1778,-0.5811 L 0.2220,-0.5926 L 0.2659,-0.6068 L 0.3095,-0.6235 L 0.3528,-0.6428 L 0.3956,-0.6648 L 0.4378,-0.6893 L 0.4795,-0.7164 L 0.5203,-0.7461 L 0.5603,-0.7784 L 0.5992,-0.8131 L 0.6370,-0.8503 L 0.6736,-0.8898 L 0.7087,-0.9316 L 0.7423,-0.9755 L 0.7743,-1.0215 L 0.8044,-1.0694 L 0.8327,-1.1191 L 0.8589,-1.1704 L 0.8831,-1.2233 L 0.9050,-1.2774 L 0.9247,-1.3328 L 0.9420,-1.3892 L 0.9569,-1.4464 L 0.9694,-1.5043 L 0.9793,-1.5627 L 0.9867,-1.6214 L 0.9916,-1.6804 L 0.9940,-1.7393 L 0.9937,-1.7981 L 0.9910,-1.8566 L 0.9857,-1.9146 L 0.9779,-1.9721 L 0.9676,-2.0288 L 0.9550,-2.0846 L 0.9399,-2.1394 L 0.9226,-2.1930 L 0.9029,-2.2453 L 0.8811,-2.2963 L 0.8572,-2.3458 L 0.8313,-2.3936 L 0.8033,-2.4397 L 0.7735,-2.4841 L 0.7420,-2.5265 L 0.7087,-2.5670 L 0.6738,-2.6055 L 0.6374,-2.6418 L 0.5996,-2.6760 L 0.5604,-2.7079 L 0.5201,-2.7376 L 0.4786,-2.7649 L 0.4361,-2.7899 L 0.3927,-2.8124 L 0.3484,-2.8326 L 0.3034,-2.8502 L 0.2578,-2.8654 L 0.2117,-2.8781 L 0.1651,-2.8883 L 0.1182,-2.8959 L 0.0710,-2.9010 L 0.0237,-2.9035 L -0.0237,-2.9035 L -0.0710,-2.9010 L -0.1182,-2.8959 L -0.1651,-2.8883 L -0.2117,-2.8781 L -0.2578,-2.8654 L -0.3034,-2.8502 L -0.3484,-2.8325 L -0.3927,-2.8124 L -0.4361,-2.7899 L -0.4786,-2.7649 L -0.5201,-2.7376 L -0.5604,-2.7079 L -0.5996,-2.6760 L -0.6374,-2.6418 L -0.6738,-2.6055 L -0.7087,-2.5670 L -0.7420,-2.5265 L -0.7735,-2.4841 L -0.8033,-2.4397 L -0.8313,-2.3936 L -0.8572,-2.3458 L -0.8811,-2.2963 L -0.9029,-2.2453 L -0.9226,-2.1930 L -0.9399,-2.1394 L -0.9550,-2.0846 L -0.9676,-2.0288 L -0.9779,-1.9721 L -0.9857,-1.9146 L -0.9910,-1.8566 L -0.9937,-1.7981 L -0.9940,-1.7393 L -0.9916,-1.6803 L -0.9867,-1.6214 L -0.9793,-1.5627 L -0.9694,-1.5043 L -0.9569,-1.4464 L -0.9420,-1.3892 L -0.9247,-1.3328 L -0.9050,-1.2774 L -0.8831,-1.2233 L -0.8589,-1.1704 L -0.8327,-1.1191 L -0.8044,-1.0694 L -0.7743,-1.0215 L -0.7423,-0.9755 L -0.7087,-0.9316 L -0.6736,-0.8898 L -0.6370,-0.8503 L -0.5992,-0.8131 L -0.5603,-0.7784 L -0.5203,-0.7461 L -0.4794,-0.7164 L -0.4378,-0.6893 L -0.3956,-0.6648 L -0.3528,-0.6428 L -0.3095,-0.6235 L -0.2659,-0.6068 L -0.2220,-0.5926 L -0.1778,-0.5811 L -0.1335,-0.5722 L -0.0891,-0.5658 L -0.0446,-0.5620 L 0.0000,-0.5607 Z"/>
        <g id="arrows4">
          <use xlink:href="#arrow1" transform="translate(0.8689,-1.1928) rotate(-66.00) scale(2.0)"/>
          <use xlink:href="#arrow1" transform="translate(0.0000,-2.9031) rotate(178.89) scale(2.0)"/>
          <use xlink:href="#arrow1" transform="translate(-0.8688,-1.1928) rotate(64.56) scale(2.0)"/>
        </g>
      </g>
      <g id="fieldline5">
        <path d="M -2.0042,-3.0100 L -2.0022,-2.9238 L -1.9978,-2.8373 L -1.9908,-2.7508 L -1.9813,-2.6642 L -1.9692,-2.5777 L -1.9545,-2.4915 L -1.9374,-2.4055 L -1.9178,-2.3200 L -1.8956,-2.2351 L -1.8711,-2.1508 L -1.8441,-2.0673 L -1.8148,-1.9847 L -1.7831,-1.9031 L -1.7491,-1.8226 L -1.7130,-1.7434 L -1.6747,-1.6656 L -1.6343,-1.5893 L -1.5919,-1.5146 L -1.5475,-1.4417 L -1.5014,-1.3705 L -1.4535,-1.3014 L -1.4040,-1.2343 L -1.3529,-1.1694 L -1.3004,-1.1068 L -1.2467,-1.0466 L -1.1918,-0.9889 L -1.1359,-0.9337 L -1.0791,-0.8812 L -1.0215,-0.8314 L -0.9633,-0.7844 L -0.9046,-0.7403 L -0.8456,-0.6990 L -0.7864,-0.6606 L -0.7270,-0.6252 L -0.6676,-0.5927 L -0.6084,-0.5630 L -0.5492,-0.5363 L -0.4903,-0.5124 L -0.4317,-0.4913 L -0.3734,-0.4730 L -0.3153,-0.4575 L -0.2575,-0.4446 L -0.2000,-0.4343 L -0.1427,-0.4267 L -0.0856,-0.4216 L -0.0285,-0.4190 L 0.0285,-0.4190 L 0.0856,-0.4216 L 0.1427,-0.4267 L 0.2000,-0.4343 L 0.2575,-0.4446 L 0.3153,-0.4575 L 0.3734,-0.4730 L 0.4317,-0.4913 L 0.4903,-0.5124 L 0.5492,-0.5363 L 0.6084,-0.5630 L 0.6676,-0.5927 L 0.7270,-0.6252 L 0.7864,-0.6606 L 0.8456,-0.6990 L 0.9046,-0.7403 L 0.9633,-0.7844 L 1.0215,-0.8314 L 1.0791,-0.8812 L 1.1359,-0.9337 L 1.1918,-0.9889 L 1.2467,-1.0466 L 1.3004,-1.1068 L 1.3529,-1.1694 L 1.4040,-1.2343 L 1.4535,-1.3014 L 1.5014,-1.3705 L 1.5475,-1.4417 L 1.5919,-1.5146 L 1.6343,-1.5893 L 1.6747,-1.6656 L 1.7130,-1.7434 L 1.7491,-1.8226 L 1.7831,-1.9031 L 1.8148,-1.9847 L 1.8441,-2.0673 L 1.8711,-2.1508 L 1.8956,-2.2351 L 1.9178,-2.3200 L 1.9374,-2.4055 L 1.9545,-2.4915 L 1.9692,-2.5777 L 1.9813,-2.6642 L 1.9908,-2.7508 L 1.9978,-2.8373 L 2.0022,-2.9238 L 2.0042,-3.0100"/>
        <g id="arrows5">
          <use xlink:href="#arrow1" transform="translate(-1.8636,-2.1276) rotate(72.10) scale(2.0)"/>
          <use xlink:href="#arrow1" transform="translate(-0.8393,-0.6954) rotate(33.34) scale(2.0)"/>
          <use xlink:href="#arrow1" transform="translate(0.8393,-0.6954) rotate(-34.13) scale(2.0)"/>
          <use xlink:href="#arrow1" transform="translate(1.8634,-2.1277) rotate(-72.68) scale(2.0)"/>
        </g>
      </g>
      <g id="fieldline6">
        <path d="M -3.0100,-1.7924 L -2.9107,-1.6972 L -2.8104,-1.6047 L -2.7094,-1.5149 L -2.6077,-1.4279 L -2.5055,-1.3436 L -2.4028,-1.2622 L -2.2998,-1.1838 L -2.1966,-1.1084 L -2.0934,-1.0360 L -1.9903,-0.9667 L -1.8874,-0.9006 L -1.7849,-0.8377 L -1.6830,-0.7781 L -1.5818,-0.7218 L -1.4815,-0.6688 L -1.3823,-0.6192 L -1.2842,-0.5730 L -1.1875,-0.5302 L -1.0924,-0.4907 L -0.9988,-0.4546 L -0.9069,-0.4218 L -0.8169,-0.3923 L -0.7286,-0.3659 L -0.6421,-0.3427 L -0.5574,-0.3225 L -0.4743,-0.3053 L -0.3927,-0.2909 L -0.3125,-0.2793 L -0.2334,-0.2703 L -0.1551,-0.2640 L -0.0774,-0.2602 L -0.0000,-0.2590 L 0.0774,-0.2602 L 0.1551,-0.2640 L 0.2334,-0.2703 L 0.3125,-0.2793 L 0.3927,-0.2909 L 0.4743,-0.3053 L 0.5574,-0.3225 L 0.6421,-0.3427 L 0.7286,-0.3659 L 0.8169,-0.3923 L 0.9069,-0.4218 L 0.9988,-0.4546 L 1.0924,-0.4907 L 1.1875,-0.5302 L 1.2842,-0.5730 L 1.3823,-0.6192 L 1.4815,-0.6688 L 1.5818,-0.7218 L 1.6830,-0.7781 L 1.7849,-0.8377 L 1.8874,-0.9006 L 1.9903,-0.9667 L 2.0934,-1.0360 L 2.1966,-1.1084 L 2.2998,-1.1838 L 2.4028,-1.2622 L 2.5055,-1.3436 L 2.6077,-1.4279 L 2.7094,-1.5149 L 2.8104,-1.6047 L 2.9107,-1.6972 L 3.0100,-1.7924"/>
        <g id="arrows6">
          <use xlink:href="#arrow1" transform="translate(-2.1245,-1.0578) rotate(34.86) scale(2.0)"/>
          <use xlink:href="#arrow1" transform="translate(-0.0000,-0.2595) rotate(-0.36) scale(2.0)"/>
          <use xlink:href="#arrow1" transform="translate(2.1245,-1.0578) rotate(-35.04) scale(2.0)"/>
        </g>
      </g>
      <g id="fieldline7">
        <path d="M -3.0100,-0.5041 L -2.7751,-0.4514 L -2.5456,-0.4024 L -2.3220,-0.3571 L -2.1047,-0.3156 L -1.8940,-0.2777 L -1.6905,-0.2435 L -1.4946,-0.2131 L -1.3065,-0.1862 L -1.1267,-0.1630 L -0.9550,-0.1431 L -0.7914,-0.1266 L -0.6355,-0.1133 L -0.4864,-0.1029 L -0.3431,-0.0954 L -0.2040,-0.0904 L -0.0677,-0.0880 L 0.0677,-0.0880 L 0.2040,-0.0904 L 0.3431,-0.0954 L 0.4864,-0.1029 L 0.6355,-0.1133 L 0.7914,-0.1266 L 0.9550,-0.1431 L 1.1267,-0.1630 L 1.3065,-0.1862 L 1.4946,-0.2131 L 1.6905,-0.2435 L 1.8940,-0.2777 L 2.1047,-0.3156 L 2.3220,-0.3571 L 2.5456,-0.4024 L 2.7751,-0.4514 L 3.0100,-0.5041"/>
        <g id="arrows7">
          <use xlink:href="#arrow1" transform="translate(-2.0160,-0.2996) rotate(10.19) scale(2.0)"/>
          <use xlink:href="#arrow1" transform="translate(-0.0000,-0.0880) rotate(0.00) scale(2.0)"/>
          <use xlink:href="#arrow1" transform="translate(2.0160,-0.2996) rotate(-10.19) scale(2.0)"/>
        </g>
      </g>
      <g id="fieldline8">
        <path d="M -3.0100,0.5041 L -2.7751,0.4514 L -2.5456,0.4024 L -2.3220,0.3571 L -2.1047,0.3156 L -1.8940,0.2777 L -1.6905,0.2435 L -1.4946,0.2131 L -1.3065,0.1862 L -1.1267,0.1630 L -0.9550,0.1431 L -0.7914,0.1266 L -0.6355,0.1133 L -0.4864,0.1029 L -0.3431,0.0954 L -0.2040,0.0904 L -0.0677,0.0880 L 0.0677,0.0880 L 0.2040,0.0904 L 0.3431,0.0954 L 0.4864,0.1029 L 0.6355,0.1133 L 0.7914,0.1266 L 0.9550,0.1431 L 1.1267,0.1630 L 1.3065,0.1862 L 1.4946,0.2131 L 1.6905,0.2435 L 1.8940,0.2777 L 2.1047,0.3156 L 2.3220,0.3571 L 2.5456,0.4024 L 2.7751,0.4514 L 3.0100,0.5041"/>
        <g id="arrows8">
          <use xlink:href="#arrow1" transform="translate(-2.0160,0.2996) rotate(-10.19) scale(2.0)"/>
          <use xlink:href="#arrow1" transform="translate(0.0000,0.0880) rotate(0.00) scale(2.0)"/>
          <use xlink:href="#arrow1" transform="translate(2.0160,0.2996) rotate(10.19) scale(2.0)"/>
        </g>
      </g>
      <g id="fieldline9">
        <path d="M -3.0100,1.7924 L -2.9107,1.6972 L -2.8104,1.6047 L -2.7094,1.5149 L -2.6077,1.4279 L -2.5055,1.3436 L -2.4028,1.2622 L -2.2998,1.1838 L -2.1966,1.1084 L -2.0934,1.0360 L -1.9903,0.9667 L -1.8874,0.9006 L -1.7849,0.8377 L -1.6830,0.7781 L -1.5818,0.7218 L -1.4815,0.6688 L -1.3823,0.6192 L -1.2842,0.5730 L -1.1875,0.5302 L -1.0924,0.4907 L -0.9988,0.4546 L -0.9069,0.4218 L -0.8169,0.3923 L -0.7286,0.3659 L -0.6421,0.3427 L -0.5574,0.3225 L -0.4743,0.3053 L -0.3927,0.2909 L -0.3125,0.2793 L -0.2334,0.2703 L -0.1551,0.2640 L -0.0774,0.2602 L 0.0000,0.2590 L 0.0774,0.2602 L 0.1551,0.2640 L 0.2334,0.2703 L 0.3125,0.2793 L 0.3927,0.2909 L 0.4743,0.3053 L 0.5574,0.3225 L 0.6421,0.3427 L 0.7286,0.3659 L 0.8169,0.3923 L 0.9069,0.4218 L 0.9988,0.4546 L 1.0924,0.4907 L 1.1875,0.5302 L 1.2842,0.5730 L 1.3823,0.6192 L 1.4815,0.6688 L 1.5818,0.7218 L 1.6830,0.7781 L 1.7849,0.8377 L 1.8874,0.9006 L 1.9903,0.9667 L 2.0934,1.0360 L 2.1966,1.1084 L 2.2998,1.1838 L 2.4028,1.2622 L 2.5055,1.3436 L 2.6077,1.4279 L 2.7094,1.5149 L 2.8104,1.6047 L 2.9107,1.6972 L 3.0100,1.7924"/>
        <g id="arrows9">
          <use xlink:href="#arrow1" transform="translate(-2.1245,1.0578) rotate(-34.86) scale(2.0)"/>
          <use xlink:href="#arrow1" transform="translate(-0.0000,0.2595) rotate(0.36) scale(2.0)"/>
          <use xlink:href="#arrow1" transform="translate(2.1245,1.0578) rotate(35.04) scale(2.0)"/>
        </g>
      </g>
      <g id="fieldline10">
        <path d="M -2.0042,3.0100 L -2.0022,2.9238 L -1.9978,2.8373 L -1.9908,2.7508 L -1.9813,2.6642 L -1.9692,2.5777 L -1.9545,2.4915 L -1.9374,2.4055 L -1.9178,2.3200 L -1.8956,2.2351 L -1.8711,2.1508 L -1.8441,2.0673 L -1.8148,1.9847 L -1.7831,1.9031 L -1.7491,1.8226 L -1.7130,1.7434 L -1.6747,1.6656 L -1.6343,1.5893 L -1.5919,1.5146 L -1.5475,1.4417 L -1.5014,1.3705 L -1.4535,1.3014 L -1.4040,1.2343 L -1.3529,1.1694 L -1.3004,1.1068 L -1.2467,1.0466 L -1.1918,0.9889 L -1.1359,0.9337 L -1.0791,0.8812 L -1.0215,0.8314 L -0.9633,0.7844 L -0.9046,0.7403 L -0.8456,0.6990 L -0.7864,0.6606 L -0.7270,0.6252 L -0.6676,0.5927 L -0.6084,0.5630 L -0.5492,0.5363 L -0.4903,0.5124 L -0.4317,0.4913 L -0.3734,0.4730 L -0.3153,0.4575 L -0.2575,0.4446 L -0.2000,0.4343 L -0.1427,0.4267 L -0.0856,0.4216 L -0.0285,0.4190 L 0.0285,0.4190 L 0.0856,0.4216 L 0.1427,0.4267 L 0.2000,0.4343 L 0.2575,0.4446 L 0.3153,0.4575 L 0.3734,0.4730 L 0.4317,0.4913 L 0.4903,0.5124 L 0.5492,0.5363 L 0.6084,0.5630 L 0.6676,0.5927 L 0.7270,0.6252 L 0.7864,0.6606 L 0.8456,0.6990 L 0.9046,0.7403 L 0.9633,0.7844 L 1.0215,0.8314 L 1.0791,0.8812 L 1.1359,0.9337 L 1.1918,0.9889 L 1.2467,1.0466 L 1.3004,1.1068 L 1.3529,1.1694 L 1.4040,1.2343 L 1.4535,1.3014 L 1.5014,1.3705 L 1.5475,1.4417 L 1.5919,1.5146 L 1.6343,1.5893 L 1.6747,1.6656 L 1.7130,1.7434 L 1.7491,1.8226 L 1.7831,1.9031 L 1.8148,1.9847 L 1.8441,2.0673 L 1.8711,2.1508 L 1.8956,2.2351 L 1.9178,2.3200 L 1.9374,2.4055 L 1.9545,2.4915 L 1.9692,2.5777 L 1.9813,2.6642 L 1.9908,2.7508 L 1.9978,2.8373 L 2.0022,2.9238 L 2.0042,3.0100"/>
        <g id="arrows10">
          <use xlink:href="#arrow1" transform="translate(-1.8636,2.1276) rotate(-72.10) scale(2.0)"/>
          <use xlink:href="#arrow1" transform="translate(-0.8393,0.6954) rotate(-33.34) scale(2.0)"/>
          <use xlink:href="#arrow1" transform="translate(0.8393,0.6954) rotate(34.13) scale(2.0)"/>
          <use xlink:href="#arrow1" transform="translate(1.8634,2.1277) rotate(72.68) scale(2.0)"/>
        </g>
      </g>
      <g id="fieldline11">
        <path d="M 0.0000,0.5607 L 0.0446,0.5620 L 0.0891,0.5658 L 0.1335,0.5722 L 0.1778,0.5811 L 0.2220,0.5926 L 0.2659,0.6068 L 0.3095,0.6235 L 0.3528,0.6428 L 0.3956,0.6648 L 0.4378,0.6893 L 0.4795,0.7164 L 0.5203,0.7461 L 0.5603,0.7784 L 0.5992,0.8131 L 0.6370,0.8503 L 0.6736,0.8898 L 0.7087,0.9316 L 0.7423,0.9755 L 0.7743,1.0215 L 0.8044,1.0694 L 0.8327,1.1191 L 0.8589,1.1704 L 0.8831,1.2233 L 0.9050,1.2774 L 0.9247,1.3328 L 0.9420,1.3892 L 0.9569,1.4464 L 0.9694,1.5043 L 0.9793,1.5627 L 0.9867,1.6214 L 0.9916,1.6804 L 0.9940,1.7393 L 0.9937,1.7981 L 0.9910,1.8566 L 0.9857,1.9146 L 0.9779,1.9721 L 0.9676,2.0288 L 0.9550,2.0846 L 0.9399,2.1394 L 0.9226,2.1930 L 0.9029,2.2453 L 0.8811,2.2963 L 0.8572,2.3458 L 0.8313,2.3936 L 0.8033,2.4397 L 0.7735,2.4841 L 0.7420,2.5265 L 0.7087,2.5670 L 0.6738,2.6055 L 0.6374,2.6418 L 0.5996,2.6760 L 0.5604,2.7079 L 0.5201,2.7376 L 0.4786,2.7649 L 0.4361,2.7899 L 0.3927,2.8124 L 0.3484,2.8326 L 0.3034,2.8502 L 0.2578,2.8654 L 0.2117,2.8781 L 0.1651,2.8883 L 0.1182,2.8959 L 0.0710,2.9010 L 0.0237,2.9035 L -0.0237,2.9035 L -0.0710,2.9010 L -0.1182,2.8959 L -0.1651,2.8883 L -0.2117,2.8781 L -0.2578,2.8654 L -0.3034,2.8502 L -0.3484,2.8325 L -0.3927,2.8124 L -0.4361,2.7899 L -0.4786,2.7649 L -0.5201,2.7376 L -0.5604,2.7079 L -0.5996,2.6760 L -0.6374,2.6418 L -0.6738,2.6055 L -0.7087,2.5670 L -0.7420,2.5265 L -0.7735,2.4841 L -0.8033,2.4397 L -0.8313,2.3936 L -0.8572,2.3458 L -0.8811,2.2963 L -0.9029,2.2453 L -0.9226,2.1930 L -0.9399,2.1394 L -0.9550,2.0846 L -0.9676,2.0288 L -0.9779,1.9721 L -0.9857,1.9146 L -0.9910,1.8566 L -0.9937,1.7981 L -0.9940,1.7393 L -0.9916,1.6803 L -0.9867,1.6214 L -0.9793,1.5627 L -0.9694,1.5043 L -0.9569,1.4464 L -0.9420,1.3892 L -0.9247,1.3328 L -0.9050,1.2774 L -0.8831,1.2233 L -0.8589,1.1704 L -0.8327,1.1191 L -0.8044,1.0694 L -0.7743,1.0215 L -0.7423,0.9755 L -0.7087,0.9316 L -0.6736,0.8898 L -0.6370,0.8503 L -0.5992,0.8131 L -0.5603,0.7784 L -0.5203,0.7461 L -0.4794,0.7164 L -0.4378,0.6893 L -0.3956,0.6648 L -0.3528,0.6428 L -0.3095,0.6235 L -0.2659,0.6068 L -0.2220,0.5926 L -0.1778,0.5811 L -0.1335,0.5722 L -0.0891,0.5658 L -0.0446,0.5620 L 0.0000,0.5607 Z"/>
        <g id="arrows11">
          <use xlink:href="#arrow1" transform="translate(0.8689,1.1928) rotate(66.00) scale(2.0)"/>
          <use xlink:href="#arrow1" transform="translate(0.0000,2.9031) rotate(-178.89) scale(2.0)"/>
          <use xlink:href="#arrow1" transform="translate(-0.8688,1.1928) rotate(-64.56) scale(2.0)"/>
        </g>
      </g>
      <g id="fieldline12">
        <path d="M 0.0000,0.6807 L 0.0352,0.6819 L 0.0702,0.6857 L 0.1050,0.6920 L 0.1395,0.7009 L 0.1735,0.7122 L 0.2069,0.7261 L 0.2397,0.7424 L 0.2716,0.7611 L 0.3025,0.7822 L 0.3323,0.8056 L 0.3608,0.8313 L 0.3880,0.8591 L 0.4136,0.8890 L 0.4375,0.9209 L 0.4596,0.9546 L 0.4798,0.9899 L 0.4979,1.0268 L 0.5138,1.0650 L 0.5275,1.1043 L 0.5388,1.1446 L 0.5477,1.1857 L 0.5541,1.2273 L 0.5580,1.2693 L 0.5594,1.3114 L 0.5582,1.3535 L 0.5546,1.3952 L 0.5484,1.4365 L 0.5398,1.4772 L 0.5288,1.5169 L 0.5154,1.5557 L 0.4998,1.5932 L 0.4821,1.6294 L 0.4623,1.6641 L 0.4405,1.6971 L 0.4169,1.7283 L 0.3915,1.7577 L 0.3645,1.7850 L 0.3361,1.8103 L 0.3063,1.8334 L 0.2754,1.8542 L 0.2433,1.8728 L 0.2103,1.8889 L 0.1765,1.9027 L 0.1420,1.9140 L 0.1070,1.9228 L 0.0715,1.9291 L 0.0358,1.9329 L -0.0000,1.9342 L -0.0358,1.9329 L -0.0715,1.9291 L -0.1070,1.9228 L -0.1420,1.9140 L -0.1765,1.9027 L -0.2103,1.8889 L -0.2433,1.8728 L -0.2754,1.8542 L -0.3063,1.8334 L -0.3361,1.8103 L -0.3645,1.7850 L -0.3915,1.7577 L -0.4169,1.7283 L -0.4405,1.6971 L -0.4623,1.6641 L -0.4821,1.6294 L -0.4998,1.5932 L -0.5154,1.5557 L -0.5288,1.5169 L -0.5398,1.4772 L -0.5484,1.4365 L -0.5546,1.3952 L -0.5582,1.3535 L -0.5594,1.3114 L -0.5580,1.2693 L -0.5541,1.2273 L -0.5477,1.1857 L -0.5388,1.1446 L -0.5275,1.1043 L -0.5138,1.0650 L -0.4979,1.0268 L -0.4798,0.9899 L -0.4596,0.9546 L -0.4375,0.9209 L -0.4136,0.8890 L -0.3880,0.8591 L -0.3608,0.8313 L -0.3323,0.8056 L -0.3025,0.7822 L -0.2716,0.7611 L -0.2397,0.7424 L -0.2069,0.7261 L -0.1735,0.7122 L -0.1395,0.7009 L -0.1050,0.6920 L -0.0702,0.6857 L -0.0352,0.6819 L 0.0000,0.6807 Z"/>
        <g id="arrows12">
          <use xlink:href="#arrow1" transform="translate(0.5584,1.3092) rotate(90.65) scale(2.0)"/>
          <use xlink:href="#arrow1" transform="translate(-0.5583,1.3092) rotate(-88.62) scale(2.0)"/>
        </g>
      </g>
      <g id="fieldline13">
        <path d="M 0.0000,0.7769 L 0.0278,0.7781 L 0.0554,0.7819 L 0.0827,0.7882 L 0.1095,0.7970 L 0.1355,0.8082 L 0.1605,0.8218 L 0.1845,0.8377 L 0.2073,0.8558 L 0.2285,0.8759 L 0.2482,0.8981 L 0.2661,0.9220 L 0.2820,0.9476 L 0.2958,0.9747 L 0.3074,1.0030 L 0.3167,1.0323 L 0.3236,1.0625 L 0.3281,1.0932 L 0.3300,1.1242 L 0.3294,1.1552 L 0.3262,1.1860 L 0.3206,1.2164 L 0.3125,1.2461 L 0.3021,1.2749 L 0.2894,1.3025 L 0.2746,1.3287 L 0.2577,1.3534 L 0.2390,1.3764 L 0.2185,1.3975 L 0.1965,1.4166 L 0.1731,1.4335 L 0.1486,1.4482 L 0.1230,1.4606 L 0.0965,1.4706 L 0.0694,1.4781 L 0.0418,1.4832 L 0.0140,1.4857 L -0.0140,1.4857 L -0.0418,1.4832 L -0.0694,1.4781 L -0.0965,1.4706 L -0.1230,1.4606 L -0.1486,1.4482 L -0.1732,1.4335 L -0.1965,1.4166 L -0.2185,1.3975 L -0.2390,1.3764 L -0.2577,1.3534 L -0.2746,1.3287 L -0.2894,1.3025 L -0.3021,1.2749 L -0.3125,1.2461 L -0.3206,1.2164 L -0.3262,1.1860 L -0.3294,1.1552 L -0.3300,1.1242 L -0.3281,1.0932 L -0.3236,1.0625 L -0.3167,1.0323 L -0.3074,1.0030 L -0.2958,0.9747 L -0.2820,0.9476 L -0.2661,0.9220 L -0.2482,0.8981 L -0.2285,0.8759 L -0.2073,0.8558 L -0.1845,0.8377 L -0.1605,0.8218 L -0.1355,0.8082 L -0.1095,0.7970 L -0.0827,0.7882 L -0.0554,0.7819 L -0.0278,0.7781 L 0.0000,0.7769 Z"/>
        <g id="arrows13">
          <use xlink:href="#arrow1" transform="translate(0.0001,1.4840) rotate(-177.45) scale(2.0)"/>
        </g>
      </g>
      <g id="fieldline14">
        <path d="M 0.0000,0.8500 L 0.0219,0.8513 L 0.0435,0.8551 L 0.0646,0.8613 L 0.0849,0.8700 L 0.1042,0.8810 L 0.1222,0.8942 L 0.1388,0.9094 L 0.1536,0.9266 L 0.1665,0.9454 L 0.1774,0.9656 L 0.1860,0.9870 L 0.1922,1.0094 L 0.1960,1.0323 L 0.1972,1.0556 L 0.1960,1.0788 L 0.1922,1.1018 L 0.1860,1.1241 L 0.1774,1.1455 L 0.1665,1.1658 L 0.1536,1.1846 L 0.1387,1.2017 L 0.1222,1.2170 L 0.1041,1.2302 L 0.0849,1.2412 L 0.0645,1.2498 L 0.0435,1.2561 L 0.0218,1.2599 L 0.0000,1.2612 L -0.0218,1.2599 L -0.0435,1.2561 L -0.0645,1.2498 L -0.0849,1.2412 L -0.1041,1.2302 L -0.1222,1.2170 L -0.1387,1.2017 L -0.1536,1.1846 L -0.1665,1.1658 L -0.1774,1.1455 L -0.1860,1.1241 L -0.1922,1.1018 L -0.1960,1.0788 L -0.1972,1.0556 L -0.1960,1.0323 L -0.1922,1.0094 L -0.1860,0.9870 L -0.1774,0.9656 L -0.1665,0.9454 L -0.1536,0.9266 L -0.1388,0.9095 L -0.1222,0.8942 L -0.1042,0.8810 L -0.0849,0.8700 L -0.0646,0.8613 L -0.0435,0.8551 L -0.0219,0.8513 L 0.0000,0.8500 Z"/>
        <g id="arrows14">
          <use xlink:href="#arrow1" transform="translate(0.0002,1.2583) rotate(-175.65) scale(2.0)"/>
        </g>
      </g>
    </g>
    <g id="symbols">
      <g id="current_out1" transform="translate(0.0,1.0) scale(0.01,0.01)">
        <circle style="fill:#b0b0b0; stroke:none" cx="0" cy="0" r="14"/>
        <circle cx="0" cy="0" r="14" style="fill:url(#white_spot); stroke:#000000; stroke-width:2"/>
        <circle cx="0" cy="0" r="4"/>
      </g>
      <g id="current_in2" transform="translate(0.0,-1.0) scale(0.01,0.01)">
        <circle style="fill:#b0b0b0; stroke:none" cx="0" cy="0" r="14"/>
        <circle cx="0" cy="0" r="14" style="fill:url(#white_spot); stroke:#000000; stroke-width:2"/>
        <path d="M 8.6,-11.0 L 11.0,-8.6 L 2.6,0 L 11.0,8.6 L 8.6,11.0 0,2.6 L -8.6,11.0 L -11.0,8.6 L -2.6,0 L -11.0,-8.6 L -8.6,-11.0 L 0,-2.6 L 8.6,-11.0 Z" style="fill:#000000; stroke:none"/>
      </g>
    </g>
  </g>
</svg>
