<?xml version='1.0' encoding='utf8'?>
<svg xmlns:xlink="http://www.w3.org/1999/xlink" xmlns="http://www.w3.org/2000/svg" version="1.1" baseProfile="full" width="800" height="600">
  <title>VFPt_charges_plus_plus</title>
  <desc>VFPt_charges_plus_plus
created with VectorFieldPlot 1.0
http://commons.wikimedia.org/wiki/User:Geek3/VectorFieldPlot

about: http://commons.wikimedia.org/wiki/Image:VFPt_charges_plus_plus.svg
rights: GNU Free Documentation license,
        Creative Commons Attribution ShareAlike license
  </desc>
  <defs>
    <radialGradient id="white_spot" cx="0.65" cy="0.7" r="0.75">
      <stop stop-color="#ffffff" offset="0" stop-opacity="0.7"/>
      <stop stop-color="#ffffff" offset="0.1" stop-opacity="0.5"/>
      <stop stop-color="#ffffff" offset="0.6" stop-opacity="0"/>
      <stop stop-color="#000000" offset="0.6" stop-opacity="0"/>
      <stop stop-color="#000000" offset="0.75" stop-opacity="0.05"/>
      <stop stop-color="#000000" offset="0.85" stop-opacity="0.15"/>
      <stop stop-color="#000000" offset="1" stop-opacity="0.5"/>
    </radialGradient>
    <path id="arrow1" stroke="none" fill="#000000" transform="scale(0.01)" d="M 0.3,0 L -2.2,2.25 L 3.8,0 L -2.2,-2.25 L 0.3,0 Z"/>
  </defs>
  <rect id="background" x="0" y="0" width="800" height="600" fill="#ffffff"/>
  <g id="image" transform="translate(400.0,300.0) scale(100.0,-100.0)">
    <g id="fieldlines" fill="none" stroke="#000000" stroke-width="0.02" stroke-linejoin="round" stroke-linecap="round">
      <g id="fieldline1">
        <path d="M -1.0000,0.0000 L -0.0000,0.0000"/>
        <g id="arrows1">
          <use xlink:href="#arrow1" transform="translate(-0.3600,0.0000) rotate(0.00) scale(2.0)"/>
        </g>
      </g>
      <g id="fieldline2">
        <path d="M 1.0000,0.0000 L 0.0000,0.0000"/>
        <g id="arrows2">
          <use xlink:href="#arrow1" transform="translate(0.3600,0.0000) rotate(180.00) scale(2.0)"/>
        </g>
      </g>
      <g id="fieldline3">
        <path d="M 1.0000,0.0000 L 1.3793,0.0531 L 1.6932,0.0952 L 2.0254,0.1376 L 2.4001,0.1834 L 2.8383,0.2348 L 3.3651,0.2944 L 4.0100,0.3651"/>
        <g id="arrows3">
          <use xlink:href="#arrow1" transform="translate(2.4874,0.1936) rotate(6.69) scale(2.0)"/>
        </g>
      </g>
      <g id="fieldline4">
        <path d="M 1.0000,0.0000 L 1.2393,0.1072 L 1.4187,0.1854 L 1.5926,0.2589 L 1.7717,0.3321 L 1.9615,0.4074 L 2.1667,0.4863 L 2.3915,0.5704 L 2.6408,0.6612 L 2.9199,0.7604 L 3.2355,0.8702 L 3.5955,0.9930 L 4.0100,1.1319"/>
        <g id="arrows4">
          <use xlink:href="#arrow1" transform="translate(2.3876,0.5688) rotate(20.19) scale(2.0)"/>
        </g>
      </g>
      <g id="fieldline5">
        <path d="M 1.0000,0.0000 L 1.1719,0.1469 L 1.2963,0.2504 L 1.4137,0.3450 L 1.5316,0.4370 L 1.6537,0.5292 L 1.7825,0.6235 L 1.9203,0.7213 L 2.0692,0.8239 L 2.2313,0.9327 L 2.4092,1.0491 L 2.6058,1.1747 L 2.8243,1.3114 L 3.0688,1.4614 L 3.3439,1.6272 L 3.6553,1.8120 L 4.0100,2.0195"/>
        <g id="arrows5">
          <use xlink:href="#arrow1" transform="translate(2.1932,0.9071) rotate(33.83) scale(2.0)"/>
        </g>
      </g>
      <g id="fieldline6">
        <path d="M 1.0000,0.0000 L 1.1117,0.1741 L 1.1906,0.2928 L 1.2640,0.3990 L 1.3371,0.5002 L 1.4122,0.6000 L 1.4909,0.7004 L 1.5745,0.8028 L 1.6643,0.9086 L 1.7613,1.0191 L 1.8669,1.1353 L 1.9825,1.2586 L 2.1096,1.3905 L 2.2501,1.5324 L 2.4061,1.6861 L 2.5800,1.8539 L 2.7749,2.0382 L 2.9943,2.2420 L 3.2424,2.4688 L 3.5244,2.7231 L 3.8468,3.0100"/>
        <g id="arrows6">
          <use xlink:href="#arrow1" transform="translate(1.9142,1.1858) rotate(46.86) scale(2.0)"/>
        </g>
      </g>
      <g id="fieldline7">
        <path d="M 1.0000,0.0000 L 1.0495,0.1827 L 1.0840,0.3021 L 1.1166,0.4069 L 1.1494,0.5047 L 1.1837,0.5992 L 1.2200,0.6925 L 1.2590,0.7860 L 1.3012,0.8810 L 1.3472,0.9785 L 1.3975,1.0794 L 1.4527,1.1847 L 1.5135,1.2954 L 1.5807,1.4125 L 1.6550,1.5372 L 1.7376,1.6708 L 1.8294,1.8147 L 1.9318,1.9706 L 2.0463,2.1403 L 2.1747,2.3262 L 2.3192,2.5308 L 2.4822,2.7575 L 2.6670,3.0100"/>
        <g id="arrows7">
          <use xlink:href="#arrow1" transform="translate(1.5643,1.3837) rotate(59.95) scale(2.0)"/>
        </g>
      </g>
      <g id="fieldline8">
        <path d="M 1.0000,0.0000 L 0.9883,0.1830 L 0.9830,0.2984 L 0.9807,0.3971 L 0.9809,0.4874 L 0.9835,0.5730 L 0.9883,0.6563 L 0.9956,0.7386 L 1.0053,0.8211 L 1.0176,0.9049 L 1.0327,0.9907 L 1.0507,1.0794 L 1.0721,1.1718 L 1.0971,1.2688 L 1.1260,1.3713 L 1.1594,1.4804 L 1.1978,1.5971 L 1.2418,1.7229 L 1.2921,1.8590 L 1.3495,2.0071 L 1.4150,2.1692 L 1.4898,2.3475 L 1.5754,2.5448 L 1.6734,2.7643 L 1.7858,3.0100"/>
        <g id="arrows8">
          <use xlink:href="#arrow1" transform="translate(1.1595,1.4797) rotate(72.17) scale(2.0)"/>
        </g>
      </g>
      <g id="fieldline9">
        <path d="M 1.0000,0.0000 L 0.9219,0.1671 L 0.8769,0.2681 L 0.8420,0.3520 L 0.8133,0.4270 L 0.7891,0.4966 L 0.7685,0.5631 L 0.7510,0.6278 L 0.7362,0.6917 L 0.7239,0.7558 L 0.7138,0.8209 L 0.7060,0.8874 L 0.7004,0.9562 L 0.6971,1.0281 L 0.6961,1.1036 L 0.6975,1.1836 L 0.7015,1.2690 L 0.7084,1.3608 L 0.7184,1.4600 L 0.7318,1.5680 L 0.7490,1.6866 L 0.7707,1.8172 L 0.7972,1.9620 L 0.8295,2.1235 L 0.8683,2.3049 L 0.9149,2.5098 L 0.9705,2.7430 L 1.0368,3.0100"/>
        <g id="arrows9">
          <use xlink:href="#arrow1" transform="translate(0.7172,1.4460) rotate(83.60) scale(2.0)"/>
        </g>
      </g>
      <g id="fieldline10">
        <path d="M 1.0000,0.0000 L 0.8340,0.1225 L 0.7428,0.1924 L 0.6739,0.2479 L 0.6175,0.2964 L 0.5700,0.3403 L 0.5290,0.3815 L 0.4932,0.4209 L 0.4615,0.4593 L 0.4332,0.4975 L 0.4079,0.5358 L 0.3851,0.5749 L 0.3645,0.6153 L 0.3458,0.6574 L 0.3289,0.7018 L 0.3137,0.7491 L 0.3000,0.8000 L 0.2878,0.8554 L 0.2772,0.9160 L 0.2681,0.9832 L 0.2606,1.0583 L 0.2548,1.1428 L 0.2510,1.2394 L 0.2492,1.3507 L 0.2499,1.4787 L 0.2534,1.6289 L 0.2602,1.8072 L 0.2712,2.0215 L 0.2873,2.2826 L 0.3099,2.6052 L 0.3411,3.0100"/>
        <g id="arrows10">
          <use xlink:href="#arrow1" transform="translate(0.2524,1.2066) rotate(91.97) scale(2.0)"/>
        </g>
      </g>
      <g id="fieldline11">
        <path d="M -1.0000,0.0000 L -0.8340,0.1225 L -0.7428,0.1924 L -0.6739,0.2479 L -0.6175,0.2964 L -0.5700,0.3403 L -0.5290,0.3815 L -0.4932,0.4209 L -0.4615,0.4593 L -0.4332,0.4975 L -0.4079,0.5358 L -0.3851,0.5749 L -0.3645,0.6153 L -0.3458,0.6574 L -0.3289,0.7018 L -0.3137,0.7491 L -0.3000,0.8000 L -0.2878,0.8554 L -0.2772,0.9160 L -0.2681,0.9832 L -0.2606,1.0583 L -0.2548,1.1428 L -0.2510,1.2394 L -0.2492,1.3507 L -0.2499,1.4787 L -0.2534,1.6289 L -0.2602,1.8072 L -0.2712,2.0215 L -0.2873,2.2826 L -0.3099,2.6052 L -0.3411,3.0100"/>
        <g id="arrows11">
          <use xlink:href="#arrow1" transform="translate(-0.2524,1.2066) rotate(88.03) scale(2.0)"/>
        </g>
      </g>
      <g id="fieldline12">
        <path d="M -1.0000,0.0000 L -0.9219,0.1671 L -0.8769,0.2681 L -0.8420,0.3520 L -0.8133,0.4270 L -0.7891,0.4966 L -0.7685,0.5631 L -0.7510,0.6278 L -0.7362,0.6917 L -0.7239,0.7558 L -0.7138,0.8209 L -0.7060,0.8874 L -0.7004,0.9562 L -0.6971,1.0281 L -0.6961,1.1036 L -0.6975,1.1836 L -0.7015,1.2690 L -0.7084,1.3608 L -0.7184,1.4600 L -0.7318,1.5680 L -0.7490,1.6866 L -0.7707,1.8172 L -0.7972,1.9620 L -0.8295,2.1235 L -0.8683,2.3049 L -0.9149,2.5098 L -0.9705,2.7430 L -1.0368,3.0100"/>
        <g id="arrows12">
          <use xlink:href="#arrow1" transform="translate(-0.7172,1.4460) rotate(96.40) scale(2.0)"/>
        </g>
      </g>
      <g id="fieldline13">
        <path d="M -1.0000,0.0000 L -0.9883,0.1830 L -0.9830,0.2984 L -0.9807,0.3971 L -0.9809,0.4874 L -0.9835,0.5730 L -0.9883,0.6563 L -0.9956,0.7386 L -1.0053,0.8211 L -1.0176,0.9049 L -1.0327,0.9907 L -1.0507,1.0794 L -1.0721,1.1718 L -1.0971,1.2688 L -1.1260,1.3713 L -1.1594,1.4804 L -1.1978,1.5971 L -1.2418,1.7229 L -1.2921,1.8590 L -1.3495,2.0071 L -1.4150,2.1692 L -1.4898,2.3475 L -1.5754,2.5448 L -1.6734,2.7643 L -1.7858,3.0100"/>
        <g id="arrows13">
          <use xlink:href="#arrow1" transform="translate(-1.1595,1.4797) rotate(107.83) scale(2.0)"/>
        </g>
      </g>
      <g id="fieldline14">
        <path d="M -1.0000,0.0000 L -1.0495,0.1827 L -1.0840,0.3021 L -1.1166,0.4069 L -1.1494,0.5047 L -1.1837,0.5992 L -1.2200,0.6925 L -1.2590,0.7860 L -1.3012,0.8810 L -1.3472,0.9785 L -1.3975,1.0794 L -1.4527,1.1847 L -1.5135,1.2954 L -1.5807,1.4125 L -1.6550,1.5372 L -1.7376,1.6708 L -1.8294,1.8147 L -1.9318,1.9706 L -2.0463,2.1403 L -2.1747,2.3262 L -2.3192,2.5308 L -2.4822,2.7575 L -2.6670,3.0100"/>
        <g id="arrows14">
          <use xlink:href="#arrow1" transform="translate(-1.5643,1.3837) rotate(120.05) scale(2.0)"/>
        </g>
      </g>
      <g id="fieldline15">
        <path d="M -1.0000,0.0000 L -1.1117,0.1741 L -1.1906,0.2928 L -1.2640,0.3990 L -1.3371,0.5002 L -1.4122,0.6000 L -1.4909,0.7004 L -1.5745,0.8028 L -1.6643,0.9086 L -1.7613,1.0191 L -1.8669,1.1353 L -1.9825,1.2586 L -2.1096,1.3905 L -2.2501,1.5324 L -2.4061,1.6861 L -2.5800,1.8539 L -2.7749,2.0382 L -2.9943,2.2420 L -3.2424,2.4688 L -3.5244,2.7231 L -3.8468,3.0100"/>
        <g id="arrows15">
          <use xlink:href="#arrow1" transform="translate(-1.9142,1.1858) rotate(133.14) scale(2.0)"/>
        </g>
      </g>
      <g id="fieldline16">
        <path d="M -1.0000,0.0000 L -1.1719,0.1469 L -1.2963,0.2504 L -1.4137,0.3450 L -1.5316,0.4370 L -1.6537,0.5292 L -1.7825,0.6235 L -1.9203,0.7213 L -2.0692,0.8239 L -2.2313,0.9327 L -2.4092,1.0491 L -2.6058,1.1747 L -2.8243,1.3114 L -3.0688,1.4614 L -3.3439,1.6272 L -3.6553,1.8120 L -4.0100,2.0195"/>
        <g id="arrows16">
          <use xlink:href="#arrow1" transform="translate(-2.1932,0.9071) rotate(146.17) scale(2.0)"/>
        </g>
      </g>
      <g id="fieldline17">
        <path d="M -1.0000,0.0000 L -1.2393,0.1072 L -1.4187,0.1854 L -1.5926,0.2589 L -1.7717,0.3321 L -1.9615,0.4074 L -2.1667,0.4863 L -2.3915,0.5704 L -2.6408,0.6612 L -2.9199,0.7604 L -3.2355,0.8702 L -3.5955,0.9930 L -4.0100,1.1319"/>
        <g id="arrows17">
          <use xlink:href="#arrow1" transform="translate(-2.3876,0.5688) rotate(159.81) scale(2.0)"/>
        </g>
      </g>
      <g id="fieldline18">
        <path d="M -1.0000,0.0000 L -1.3793,0.0531 L -1.6932,0.0952 L -2.0254,0.1376 L -2.4001,0.1834 L -2.8383,0.2348 L -3.3651,0.2944 L -4.0100,0.3651"/>
        <g id="arrows18">
          <use xlink:href="#arrow1" transform="translate(-2.4874,0.1936) rotate(173.31) scale(2.0)"/>
        </g>
      </g>
      <g id="fieldline19">
        <path d="M -1.0000,0.0000 L -1.3793,-0.0531 L -1.6932,-0.0952 L -2.0254,-0.1376 L -2.4001,-0.1834 L -2.8383,-0.2348 L -3.3651,-0.2944 L -4.0100,-0.3651"/>
        <g id="arrows19">
          <use xlink:href="#arrow1" transform="translate(-2.4874,-0.1936) rotate(-173.31) scale(2.0)"/>
        </g>
      </g>
      <g id="fieldline20">
        <path d="M -1.0000,0.0000 L -1.2393,-0.1072 L -1.4187,-0.1854 L -1.5926,-0.2589 L -1.7717,-0.3321 L -1.9615,-0.4074 L -2.1667,-0.4863 L -2.3915,-0.5704 L -2.6408,-0.6612 L -2.9199,-0.7604 L -3.2355,-0.8702 L -3.5955,-0.9930 L -4.0100,-1.1319"/>
        <g id="arrows20">
          <use xlink:href="#arrow1" transform="translate(-2.3876,-0.5688) rotate(-159.81) scale(2.0)"/>
        </g>
      </g>
      <g id="fieldline21">
        <path d="M -1.0000,0.0000 L -1.1719,-0.1469 L -1.2963,-0.2504 L -1.4137,-0.3450 L -1.5316,-0.4370 L -1.6537,-0.5292 L -1.7825,-0.6235 L -1.9203,-0.7213 L -2.0692,-0.8239 L -2.2313,-0.9327 L -2.4092,-1.0491 L -2.6058,-1.1747 L -2.8243,-1.3114 L -3.0688,-1.4614 L -3.3439,-1.6272 L -3.6553,-1.8120 L -4.0100,-2.0195"/>
        <g id="arrows21">
          <use xlink:href="#arrow1" transform="translate(-2.1932,-0.9071) rotate(-146.17) scale(2.0)"/>
        </g>
      </g>
      <g id="fieldline22">
        <path d="M -1.0000,0.0000 L -1.1117,-0.1741 L -1.1906,-0.2928 L -1.2640,-0.3990 L -1.3371,-0.5002 L -1.4122,-0.6000 L -1.4909,-0.7004 L -1.5745,-0.8028 L -1.6643,-0.9086 L -1.7613,-1.0191 L -1.8669,-1.1353 L -1.9825,-1.2586 L -2.1096,-1.3905 L -2.2501,-1.5324 L -2.4061,-1.6861 L -2.5800,-1.8539 L -2.7749,-2.0382 L -2.9943,-2.2420 L -3.2424,-2.4688 L -3.5244,-2.7231 L -3.8468,-3.0100"/>
        <g id="arrows22">
          <use xlink:href="#arrow1" transform="translate(-1.9142,-1.1858) rotate(-133.14) scale(2.0)"/>
        </g>
      </g>
      <g id="fieldline23">
        <path d="M -1.0000,0.0000 L -1.0495,-0.1827 L -1.0840,-0.3021 L -1.1166,-0.4069 L -1.1494,-0.5047 L -1.1837,-0.5992 L -1.2200,-0.6925 L -1.2590,-0.7860 L -1.3012,-0.8810 L -1.3472,-0.9785 L -1.3975,-1.0794 L -1.4527,-1.1847 L -1.5135,-1.2954 L -1.5807,-1.4125 L -1.6550,-1.5372 L -1.7376,-1.6708 L -1.8294,-1.8147 L -1.9318,-1.9706 L -2.0463,-2.1403 L -2.1747,-2.3262 L -2.3192,-2.5308 L -2.4822,-2.7575 L -2.6670,-3.0100"/>
        <g id="arrows23">
          <use xlink:href="#arrow1" transform="translate(-1.5643,-1.3837) rotate(-120.05) scale(2.0)"/>
        </g>
      </g>
      <g id="fieldline24">
        <path d="M -1.0000,0.0000 L -0.9883,-0.1830 L -0.9830,-0.2984 L -0.9807,-0.3971 L -0.9809,-0.4874 L -0.9835,-0.5730 L -0.9883,-0.6563 L -0.9956,-0.7386 L -1.0053,-0.8211 L -1.0176,-0.9049 L -1.0327,-0.9907 L -1.0507,-1.0794 L -1.0721,-1.1718 L -1.0971,-1.2688 L -1.1260,-1.3713 L -1.1594,-1.4804 L -1.1978,-1.5971 L -1.2418,-1.7229 L -1.2921,-1.8590 L -1.3495,-2.0071 L -1.4150,-2.1692 L -1.4898,-2.3475 L -1.5754,-2.5448 L -1.6734,-2.7643 L -1.7858,-3.0100"/>
        <g id="arrows24">
          <use xlink:href="#arrow1" transform="translate(-1.1595,-1.4797) rotate(-107.83) scale(2.0)"/>
        </g>
      </g>
      <g id="fieldline25">
        <path d="M -1.0000,0.0000 L -0.9219,-0.1671 L -0.8769,-0.2681 L -0.8420,-0.3520 L -0.8133,-0.4270 L -0.7891,-0.4966 L -0.7685,-0.5631 L -0.7510,-0.6278 L -0.7362,-0.6917 L -0.7239,-0.7558 L -0.7138,-0.8209 L -0.7060,-0.8874 L -0.7004,-0.9562 L -0.6971,-1.0281 L -0.6961,-1.1036 L -0.6975,-1.1836 L -0.7015,-1.2690 L -0.7084,-1.3608 L -0.7184,-1.4600 L -0.7318,-1.5680 L -0.7490,-1.6866 L -0.7707,-1.8172 L -0.7972,-1.9620 L -0.8295,-2.1235 L -0.8683,-2.3049 L -0.9149,-2.5098 L -0.9705,-2.7430 L -1.0368,-3.0100"/>
        <g id="arrows25">
          <use xlink:href="#arrow1" transform="translate(-0.7172,-1.4460) rotate(-96.40) scale(2.0)"/>
        </g>
      </g>
      <g id="fieldline26">
        <path d="M -1.0000,0.0000 L -0.8340,-0.1225 L -0.7428,-0.1924 L -0.6739,-0.2479 L -0.6175,-0.2964 L -0.5700,-0.3403 L -0.5290,-0.3815 L -0.4932,-0.4209 L -0.4615,-0.4593 L -0.4332,-0.4975 L -0.4079,-0.5358 L -0.3851,-0.5749 L -0.3645,-0.6153 L -0.3458,-0.6574 L -0.3289,-0.7018 L -0.3137,-0.7491 L -0.3000,-0.8000 L -0.2878,-0.8554 L -0.2772,-0.9160 L -0.2681,-0.9832 L -0.2606,-1.0583 L -0.2548,-1.1428 L -0.2510,-1.2394 L -0.2492,-1.3507 L -0.2499,-1.4787 L -0.2534,-1.6289 L -0.2602,-1.8072 L -0.2712,-2.0215 L -0.2873,-2.2826 L -0.3099,-2.6052 L -0.3411,-3.0100"/>
        <g id="arrows26">
          <use xlink:href="#arrow1" transform="translate(-0.2524,-1.2066) rotate(-88.03) scale(2.0)"/>
        </g>
      </g>
      <g id="fieldline27">
        <path d="M 1.0000,0.0000 L 0.8340,-0.1225 L 0.7428,-0.1924 L 0.6739,-0.2479 L 0.6175,-0.2964 L 0.5700,-0.3403 L 0.5290,-0.3815 L 0.4932,-0.4209 L 0.4615,-0.4593 L 0.4332,-0.4975 L 0.4079,-0.5358 L 0.3851,-0.5749 L 0.3645,-0.6153 L 0.3458,-0.6574 L 0.3289,-0.7018 L 0.3137,-0.7491 L 0.3000,-0.8000 L 0.2878,-0.8554 L 0.2772,-0.9160 L 0.2681,-0.9832 L 0.2606,-1.0583 L 0.2548,-1.1428 L 0.2510,-1.2394 L 0.2492,-1.3507 L 0.2499,-1.4787 L 0.2534,-1.6289 L 0.2602,-1.8072 L 0.2712,-2.0215 L 0.2873,-2.2826 L 0.3099,-2.6052 L 0.3411,-3.0100"/>
        <g id="arrows27">
          <use xlink:href="#arrow1" transform="translate(0.2524,-1.2066) rotate(-91.97) scale(2.0)"/>
        </g>
      </g>
      <g id="fieldline28">
        <path d="M 1.0000,0.0000 L 0.9219,-0.1671 L 0.8769,-0.2681 L 0.8420,-0.3520 L 0.8133,-0.4270 L 0.7891,-0.4966 L 0.7685,-0.5631 L 0.7510,-0.6278 L 0.7362,-0.6917 L 0.7239,-0.7558 L 0.7138,-0.8209 L 0.7060,-0.8874 L 0.7004,-0.9562 L 0.6971,-1.0281 L 0.6961,-1.1036 L 0.6975,-1.1836 L 0.7015,-1.2690 L 0.7084,-1.3608 L 0.7184,-1.4600 L 0.7318,-1.5680 L 0.7490,-1.6866 L 0.7707,-1.8172 L 0.7972,-1.9620 L 0.8295,-2.1235 L 0.8683,-2.3049 L 0.9149,-2.5098 L 0.9705,-2.7430 L 1.0368,-3.0100"/>
        <g id="arrows28">
          <use xlink:href="#arrow1" transform="translate(0.7172,-1.4460) rotate(-83.60) scale(2.0)"/>
        </g>
      </g>
      <g id="fieldline29">
        <path d="M 1.0000,0.0000 L 0.9883,-0.1830 L 0.9830,-0.2984 L 0.9807,-0.3971 L 0.9809,-0.4874 L 0.9835,-0.5730 L 0.9883,-0.6563 L 0.9956,-0.7386 L 1.0053,-0.8211 L 1.0176,-0.9049 L 1.0327,-0.9907 L 1.0507,-1.0794 L 1.0721,-1.1718 L 1.0971,-1.2688 L 1.1260,-1.3713 L 1.1594,-1.4804 L 1.1978,-1.5971 L 1.2418,-1.7229 L 1.2921,-1.8590 L 1.3495,-2.0071 L 1.4150,-2.1692 L 1.4898,-2.3475 L 1.5754,-2.5448 L 1.6734,-2.7643 L 1.7858,-3.0100"/>
        <g id="arrows29">
          <use xlink:href="#arrow1" transform="translate(1.1595,-1.4797) rotate(-72.17) scale(2.0)"/>
        </g>
      </g>
      <g id="fieldline30">
        <path d="M 1.0000,0.0000 L 1.0495,-0.1827 L 1.0840,-0.3021 L 1.1166,-0.4069 L 1.1494,-0.5047 L 1.1837,-0.5992 L 1.2200,-0.6925 L 1.2590,-0.7860 L 1.3012,-0.8810 L 1.3472,-0.9785 L 1.3975,-1.0794 L 1.4527,-1.1847 L 1.5135,-1.2954 L 1.5807,-1.4125 L 1.6550,-1.5372 L 1.7376,-1.6708 L 1.8294,-1.8147 L 1.9318,-1.9706 L 2.0463,-2.1403 L 2.1747,-2.3262 L 2.3192,-2.5308 L 2.4822,-2.7575 L 2.6670,-3.0100"/>
        <g id="arrows30">
          <use xlink:href="#arrow1" transform="translate(1.5643,-1.3837) rotate(-59.95) scale(2.0)"/>
        </g>
      </g>
      <g id="fieldline31">
        <path d="M 1.0000,0.0000 L 1.1117,-0.1741 L 1.1906,-0.2928 L 1.2640,-0.3990 L 1.3371,-0.5002 L 1.4122,-0.6000 L 1.4909,-0.7004 L 1.5745,-0.8028 L 1.6643,-0.9086 L 1.7613,-1.0191 L 1.8669,-1.1353 L 1.9825,-1.2586 L 2.1096,-1.3905 L 2.2501,-1.5324 L 2.4061,-1.6861 L 2.5800,-1.8539 L 2.7749,-2.0382 L 2.9943,-2.2420 L 3.2424,-2.4688 L 3.5244,-2.7231 L 3.8468,-3.0100"/>
        <g id="arrows31">
          <use xlink:href="#arrow1" transform="translate(1.9142,-1.1858) rotate(-46.86) scale(2.0)"/>
        </g>
      </g>
      <g id="fieldline32">
        <path d="M 1.0000,0.0000 L 1.1719,-0.1469 L 1.2963,-0.2504 L 1.4137,-0.3450 L 1.5316,-0.4370 L 1.6537,-0.5292 L 1.7825,-0.6235 L 1.9203,-0.7213 L 2.0692,-0.8239 L 2.2313,-0.9327 L 2.4092,-1.0491 L 2.6058,-1.1747 L 2.8243,-1.3114 L 3.0688,-1.4614 L 3.3439,-1.6272 L 3.6553,-1.8120 L 4.0100,-2.0195"/>
        <g id="arrows32">
          <use xlink:href="#arrow1" transform="translate(2.1932,-0.9071) rotate(-33.83) scale(2.0)"/>
        </g>
      </g>
      <g id="fieldline33">
        <path d="M 1.0000,0.0000 L 1.2393,-0.1072 L 1.4187,-0.1854 L 1.5926,-0.2589 L 1.7717,-0.3321 L 1.9615,-0.4074 L 2.1667,-0.4863 L 2.3915,-0.5704 L 2.6408,-0.6612 L 2.9199,-0.7604 L 3.2355,-0.8702 L 3.5955,-0.9930 L 4.0100,-1.1319"/>
        <g id="arrows33">
          <use xlink:href="#arrow1" transform="translate(2.3876,-0.5688) rotate(-20.19) scale(2.0)"/>
        </g>
      </g>
      <g id="fieldline34">
        <path d="M 1.0000,0.0000 L 1.3793,-0.0531 L 1.6932,-0.0952 L 2.0254,-0.1376 L 2.4001,-0.1834 L 2.8383,-0.2348 L 3.3651,-0.2944 L 4.0100,-0.3651"/>
        <g id="arrows34">
          <use xlink:href="#arrow1" transform="translate(2.4874,-0.1936) rotate(-6.69) scale(2.0)"/>
        </g>
      </g>
    </g>
    <g id="symbols">
      <g id="charge1" transform="translate(-1.0,0.0) scale(0.01,0.01)">
        <circle style="fill:#ff0000; stroke:none" cx="0" cy="0" r="14"/>
        <circle cx="0" cy="0" r="14" style="fill:url(#white_spot); stroke:#000000; stroke-width:2"/>
        <path d="M 2,2 V 8 H -2 V 2 H -8 V -2 H -2 V -8 H 2 V -2 H 8 V 2 H 2 Z" style="fill:#000000; stroke:none"/>
      </g>
      <g id="charge2" transform="translate(1.0,0.0) scale(0.01,0.01)">
        <circle style="fill:#ff0000; stroke:none" cx="0" cy="0" r="14"/>
        <circle cx="0" cy="0" r="14" style="fill:url(#white_spot); stroke:#000000; stroke-width:2"/>
        <path d="M 2,2 V 8 H -2 V 2 H -8 V -2 H -2 V -8 H 2 V -2 H 8 V 2 H 2 Z" style="fill:#000000; stroke:none"/>
      </g>
    </g>
  </g>
</svg>
