<?xml version='1.0' encoding='utf8'?>
<svg xmlns:xlink="http://www.w3.org/1999/xlink" xmlns="http://www.w3.org/2000/svg" version="1.1" baseProfile="full" width="600" height="600">
  <title>VFPt_quadrupole_xy</title>
  <desc>VFPt_quadrupole_xy
created with VectorFieldPlot 1.0
http://commons.wikimedia.org/wiki/User:Geek3/VectorFieldPlot

about: http://commons.wikimedia.org/wiki/Image:VFPt_quadrupole_xy.svg
rights: GNU Free Documentation license,
        Creative Commons Attribution ShareAlike license
  </desc>
  <defs>
    <path id="arrow1" stroke="none" fill="#000000" transform="scale(0.01)" d="M 0.3,0 L -2.2,2.25 L 3.8,0 L -2.2,-2.25 L 0.3,0 Z"/>
  </defs>
  <rect id="background" x="0" y="0" width="600" height="600" fill="#ffffff"/>
  <g id="image" transform="translate(300.0,300.0) scale(100.0,-100.0)">
    <g id="fieldlines" fill="none" stroke="#000000" stroke-width="0.02" stroke-linejoin="round" stroke-linecap="round">
      <g id="fieldline1">
        <path d="M 3.0100,0.7103 L 2.9246,0.6590 L 2.8370,0.6093 L 2.7472,0.5614 L 2.6554,0.5151 L 2.5614,0.4706 L 2.4654,0.4280 L 2.3673,0.3872 L 2.2672,0.3482 L 2.1651,0.3113 L 2.0610,0.2762 L 1.9548,0.2432 L 1.8467,0.2121 L 1.7365,0.1831 L 1.6242,0.1562 L 1.5098,0.1314 L 1.3932,0.1086 L 1.2743,0.0880 L 1.1529,0.0696 L 1.0288,0.0532 L 0.9017,0.0391 L 0.7711,0.0271 L 0.6364,0.0173 L 0.4965,0.0097 L 0.3494,0.0043 L 0.1907,0.0010 L 0.0000,-0.0000 L 0.0010,0.1891 L 0.0042,0.3480 L 0.0096,0.4952 L 0.0172,0.6352 L 0.0270,0.7700 L 0.0390,0.9006 L 0.0531,1.0278 L 0.0694,1.1520 L 0.0879,1.2735 L 0.1085,1.3925 L 0.1312,1.5091 L 0.1561,1.6236 L 0.1830,1.7359 L 0.2120,1.8462 L 0.2430,1.9544 L 0.2761,2.0605 L 0.3111,2.1647 L 0.3481,2.2669 L 0.3871,2.3670 L 0.4279,2.4651 L 0.4706,2.5612 L 0.5150,2.6552 L 0.5613,2.7471 L 0.6093,2.8369 L 0.6590,2.9246 L 0.7103,3.0100"/>
        <g id="arrows1">
          <use xlink:href="#arrow1" transform="translate(2.3643,0.3863) rotate(-158.40) scale(2.0)"/>
          <use xlink:href="#arrow1" transform="translate(0.3863,2.3642) rotate(67.88) scale(2.0)"/>
        </g>
      </g>
      <g id="fieldline2">
        <path d="M 3.0100,-0.7103 L 2.9246,-0.6590 L 2.8370,-0.6093 L 2.7472,-0.5614 L 2.6554,-0.5151 L 2.5614,-0.4706 L 2.4654,-0.4280 L 2.3673,-0.3872 L 2.2672,-0.3482 L 2.1651,-0.3113 L 2.0610,-0.2762 L 1.9548,-0.2432 L 1.8467,-0.2121 L 1.7365,-0.1831 L 1.6242,-0.1562 L 1.5098,-0.1314 L 1.3932,-0.1086 L 1.2743,-0.0880 L 1.1529,-0.0696 L 1.0288,-0.0532 L 0.9017,-0.0391 L 0.7711,-0.0271 L 0.6364,-0.0173 L 0.4965,-0.0097 L 0.3494,-0.0043 L 0.1907,-0.0010 L 0.0000,0.0000 L 0.0010,-0.1891 L 0.0042,-0.3480 L 0.0096,-0.4952 L 0.0172,-0.6352 L 0.0270,-0.7700 L 0.0390,-0.9006 L 0.0531,-1.0278 L 0.0694,-1.1520 L 0.0879,-1.2735 L 0.1085,-1.3925 L 0.1312,-1.5091 L 0.1561,-1.6236 L 0.1830,-1.7359 L 0.2120,-1.8462 L 0.2430,-1.9544 L 0.2761,-2.0605 L 0.3111,-2.1647 L 0.3481,-2.2669 L 0.3871,-2.3670 L 0.4279,-2.4651 L 0.4706,-2.5612 L 0.5150,-2.6552 L 0.5613,-2.7471 L 0.6093,-2.8369 L 0.6590,-2.9246 L 0.7103,-3.0100"/>
        <g id="arrows2">
          <use xlink:href="#arrow1" transform="translate(2.3643,-0.3863) rotate(158.40) scale(2.0)"/>
          <use xlink:href="#arrow1" transform="translate(0.3863,-2.3642) rotate(-67.88) scale(2.0)"/>
        </g>
      </g>
      <g id="fieldline3">
        <path d="M -3.0100,0.7103 L -2.9246,0.6590 L -2.8370,0.6093 L -2.7472,0.5614 L -2.6554,0.5151 L -2.5614,0.4706 L -2.4654,0.4280 L -2.3673,0.3872 L -2.2672,0.3482 L -2.1651,0.3113 L -2.0610,0.2762 L -1.9548,0.2432 L -1.8467,0.2121 L -1.7365,0.1831 L -1.6242,0.1562 L -1.5098,0.1314 L -1.3932,0.1086 L -1.2743,0.0880 L -1.1529,0.0696 L -1.0288,0.0532 L -0.9017,0.0391 L -0.7711,0.0271 L -0.6364,0.0173 L -0.4965,0.0097 L -0.3494,0.0043 L -0.1907,0.0010 L -0.0000,-0.0000 L -0.0010,0.1891 L -0.0042,0.3480 L -0.0096,0.4952 L -0.0172,0.6352 L -0.0270,0.7700 L -0.0390,0.9006 L -0.0531,1.0278 L -0.0694,1.1520 L -0.0879,1.2735 L -0.1085,1.3925 L -0.1312,1.5091 L -0.1561,1.6236 L -0.1830,1.7359 L -0.2120,1.8462 L -0.2430,1.9544 L -0.2761,2.0605 L -0.3111,2.1647 L -0.3481,2.2669 L -0.3871,2.3670 L -0.4279,2.4651 L -0.4706,2.5612 L -0.5150,2.6552 L -0.5613,2.7471 L -0.6093,2.8369 L -0.6590,2.9246 L -0.7103,3.0100"/>
        <g id="arrows3">
          <use xlink:href="#arrow1" transform="translate(-2.3643,0.3863) rotate(-21.60) scale(2.0)"/>
          <use xlink:href="#arrow1" transform="translate(-0.3863,2.3642) rotate(112.12) scale(2.0)"/>
        </g>
      </g>
      <g id="fieldline4">
        <path d="M -3.0100,-0.7103 L -2.9246,-0.6590 L -2.8370,-0.6093 L -2.7472,-0.5614 L -2.6554,-0.5151 L -2.5614,-0.4706 L -2.4654,-0.4280 L -2.3673,-0.3872 L -2.2672,-0.3482 L -2.1651,-0.3113 L -2.0610,-0.2762 L -1.9548,-0.2432 L -1.8467,-0.2121 L -1.7365,-0.1831 L -1.6242,-0.1562 L -1.5098,-0.1314 L -1.3932,-0.1086 L -1.2743,-0.0880 L -1.1529,-0.0696 L -1.0288,-0.0532 L -0.9017,-0.0391 L -0.7711,-0.0271 L -0.6364,-0.0173 L -0.4965,-0.0097 L -0.3494,-0.0043 L -0.1907,-0.0010 L -0.0000,0.0000 L -0.0010,-0.1891 L -0.0042,-0.3480 L -0.0096,-0.4952 L -0.0172,-0.6352 L -0.0270,-0.7700 L -0.0390,-0.9006 L -0.0531,-1.0278 L -0.0694,-1.1520 L -0.0879,-1.2735 L -0.1085,-1.3925 L -0.1312,-1.5091 L -0.1561,-1.6236 L -0.1830,-1.7359 L -0.2120,-1.8462 L -0.2430,-1.9544 L -0.2761,-2.0605 L -0.3111,-2.1647 L -0.3481,-2.2669 L -0.3871,-2.3670 L -0.4279,-2.4651 L -0.4706,-2.5612 L -0.5150,-2.6552 L -0.5613,-2.7471 L -0.6093,-2.8369 L -0.6590,-2.9246 L -0.7103,-3.0100"/>
        <g id="arrows4">
          <use xlink:href="#arrow1" transform="translate(-2.3643,-0.3863) rotate(21.60) scale(2.0)"/>
          <use xlink:href="#arrow1" transform="translate(-0.3863,-2.3642) rotate(-112.12) scale(2.0)"/>
        </g>
      </g>
      <g id="fieldline5">
        <path d="M 0.0001,-0.0003 L 0.0007,-0.0018 L 0.0002,-0.0038 L 0.0024,-0.0088 L 0.0057,-0.0116 L 0.0091,-0.0119 L 0.0114,-0.0101 L 0.0119,-0.0070 L 0.0101,-0.0035 L 0.0059,-0.0008 L 0.0000,0.0000 L 0.0010,0.1243 L 0.0043,0.2289 L 0.0097,0.3257 L 0.0174,0.4176 L 0.0272,0.5059 L 0.0393,0.5912 L 0.0535,0.6739 L 0.0698,0.7544 L 0.0883,0.8326 L 0.1088,0.9087 L 0.1314,0.9828 L 0.1560,1.0549 L 0.1826,1.1249 L 0.2110,1.1929 L 0.2414,1.2588 L 0.2735,1.3226 L 0.3074,1.3843 L 0.3429,1.4437 L 0.3800,1.5010 L 0.4187,1.5559 L 0.4587,1.6085 L 0.5001,1.6587 L 0.5428,1.7064 L 0.5866,1.7517 L 0.6314,1.7945 L 0.6772,1.8346 L 0.7239,1.8722 L 0.7713,1.9072 L 0.8193,1.9395 L 0.8678,1.9691 L 0.9168,1.9961 L 0.9661,2.0203 L 1.0155,2.0418 L 1.0650,2.0607 L 1.1145,2.0768 L 1.1638,2.0902 L 1.2128,2.1009 L 1.2614,2.1090 L 1.3096,2.1145 L 1.3572,2.1174 L 1.4041,2.1177 L 1.4502,2.1155 L 1.4954,2.1108 L 1.5397,2.1037 L 1.5829,2.0942 L 1.6249,2.0824 L 1.6657,2.0683 L 1.7052,2.0520 L 1.7434,2.0335 L 1.7800,2.0130 L 1.8152,1.9904 L 1.8487,1.9658 L 1.8806,1.9393 L 1.9108,1.9109 L 1.9391,1.8808 L 1.9656,1.8489 L 1.9902,1.8154 L 2.0128,1.7802 L 2.0334,1.7436 L 2.0519,1.7055 L 2.0682,1.6660 L 2.0823,1.6252 L 2.0941,1.5831 L 2.1036,1.5399 L 2.1107,1.4957 L 2.1154,1.4505 L 2.1177,1.4044 L 2.1174,1.3575 L 2.1145,1.3099 L 2.1091,1.2617 L 2.1010,1.2131 L 2.0903,1.1640 L 2.0768,1.1147 L 2.0608,1.0653 L 2.0420,1.0158 L 2.0204,0.9663 L 1.9962,0.9171 L 1.9693,0.8681 L 1.9397,0.8196 L 1.9074,0.7715 L 1.8724,0.7241 L 1.8349,0.6775 L 1.7947,0.6317 L 1.7520,0.5868 L 1.7067,0.5430 L 1.6589,0.5004 L 1.6088,0.4589 L 1.5562,0.4189 L 1.5013,0.3802 L 1.4441,0.3431 L 1.3846,0.3076 L 1.3230,0.2737 L 1.2592,0.2416 L 1.1933,0.2112 L 1.1253,0.1827 L 1.0553,0.1561 L 0.9832,0.1315 L 0.9092,0.1089 L 0.8330,0.0884 L 0.7548,0.0699 L 0.6744,0.0535 L 0.5917,0.0393 L 0.5064,0.0273 L 0.4181,0.0174 L 0.3262,0.0097 L 0.2295,0.0043 L 0.1250,0.0010 L 0.0001,0.0000 Z"/>
        <g id="arrows5">
          <use xlink:href="#arrow1" transform="translate(1.8966,1.9234) rotate(-44.74) scale(2.0)"/>
        </g>
      </g>
      <g id="fieldline6">
        <path d="M 0.0001,0.0003 L 0.0007,0.0018 L 0.0002,0.0038 L 0.0024,0.0088 L 0.0057,0.0116 L 0.0091,0.0119 L 0.0114,0.0101 L 0.0119,0.0070 L 0.0101,0.0035 L 0.0059,0.0008 L 0.0000,-0.0000 L 0.0010,-0.1243 L 0.0043,-0.2289 L 0.0097,-0.3257 L 0.0174,-0.4176 L 0.0272,-0.5059 L 0.0393,-0.5912 L 0.0535,-0.6739 L 0.0698,-0.7544 L 0.0883,-0.8326 L 0.1088,-0.9087 L 0.1314,-0.9828 L 0.1560,-1.0549 L 0.1826,-1.1249 L 0.2110,-1.1929 L 0.2414,-1.2588 L 0.2735,-1.3226 L 0.3074,-1.3843 L 0.3429,-1.4437 L 0.3800,-1.5010 L 0.4187,-1.5559 L 0.4587,-1.6085 L 0.5001,-1.6587 L 0.5428,-1.7064 L 0.5866,-1.7517 L 0.6314,-1.7945 L 0.6772,-1.8346 L 0.7239,-1.8722 L 0.7713,-1.9072 L 0.8193,-1.9395 L 0.8678,-1.9691 L 0.9168,-1.9961 L 0.9661,-2.0203 L 1.0155,-2.0418 L 1.0650,-2.0607 L 1.1145,-2.0768 L 1.1638,-2.0902 L 1.2128,-2.1009 L 1.2614,-2.1090 L 1.3096,-2.1145 L 1.3572,-2.1174 L 1.4041,-2.1177 L 1.4502,-2.1155 L 1.4954,-2.1108 L 1.5397,-2.1037 L 1.5829,-2.0942 L 1.6249,-2.0824 L 1.6657,-2.0683 L 1.7052,-2.0520 L 1.7434,-2.0335 L 1.7800,-2.0130 L 1.8152,-1.9904 L 1.8487,-1.9658 L 1.8806,-1.9393 L 1.9108,-1.9109 L 1.9391,-1.8808 L 1.9656,-1.8489 L 1.9902,-1.8154 L 2.0128,-1.7802 L 2.0334,-1.7436 L 2.0519,-1.7055 L 2.0682,-1.6660 L 2.0823,-1.6252 L 2.0941,-1.5831 L 2.1036,-1.5399 L 2.1107,-1.4957 L 2.1154,-1.4505 L 2.1177,-1.4044 L 2.1174,-1.3575 L 2.1145,-1.3099 L 2.1091,-1.2617 L 2.1010,-1.2131 L 2.0903,-1.1640 L 2.0768,-1.1147 L 2.0608,-1.0653 L 2.0420,-1.0158 L 2.0204,-0.9663 L 1.9962,-0.9171 L 1.9693,-0.8681 L 1.9397,-0.8196 L 1.9074,-0.7715 L 1.8724,-0.7241 L 1.8349,-0.6775 L 1.7947,-0.6317 L 1.7520,-0.5868 L 1.7067,-0.5430 L 1.6589,-0.5004 L 1.6088,-0.4589 L 1.5562,-0.4189 L 1.5013,-0.3802 L 1.4441,-0.3431 L 1.3846,-0.3076 L 1.3230,-0.2737 L 1.2592,-0.2416 L 1.1933,-0.2112 L 1.1253,-0.1827 L 1.0553,-0.1561 L 0.9832,-0.1315 L 0.9092,-0.1089 L 0.8330,-0.0884 L 0.7548,-0.0699 L 0.6744,-0.0535 L 0.5917,-0.0393 L 0.5064,-0.0273 L 0.4181,-0.0174 L 0.3262,-0.0097 L 0.2295,-0.0043 L 0.1250,-0.0010 L 0.0001,-0.0000 Z"/>
        <g id="arrows6">
          <use xlink:href="#arrow1" transform="translate(1.8966,-1.9234) rotate(44.74) scale(2.0)"/>
        </g>
      </g>
      <g id="fieldline7">
        <path d="M -0.0001,-0.0003 L -0.0007,-0.0018 L -0.0002,-0.0038 L -0.0024,-0.0088 L -0.0057,-0.0116 L -0.0091,-0.0119 L -0.0114,-0.0101 L -0.0119,-0.0070 L -0.0101,-0.0035 L -0.0059,-0.0008 L -0.0000,0.0000 L -0.0010,0.1243 L -0.0043,0.2289 L -0.0097,0.3257 L -0.0174,0.4176 L -0.0272,0.5059 L -0.0393,0.5912 L -0.0535,0.6739 L -0.0698,0.7544 L -0.0883,0.8326 L -0.1088,0.9087 L -0.1314,0.9828 L -0.1560,1.0549 L -0.1826,1.1249 L -0.2110,1.1929 L -0.2414,1.2588 L -0.2735,1.3226 L -0.3074,1.3843 L -0.3429,1.4437 L -0.3800,1.5010 L -0.4187,1.5559 L -0.4587,1.6085 L -0.5001,1.6587 L -0.5428,1.7064 L -0.5866,1.7517 L -0.6314,1.7945 L -0.6772,1.8346 L -0.7239,1.8722 L -0.7713,1.9072 L -0.8193,1.9395 L -0.8678,1.9691 L -0.9168,1.9961 L -0.9661,2.0203 L -1.0155,2.0418 L -1.0650,2.0607 L -1.1145,2.0768 L -1.1638,2.0902 L -1.2128,2.1009 L -1.2614,2.1090 L -1.3096,2.1145 L -1.3572,2.1174 L -1.4041,2.1177 L -1.4502,2.1155 L -1.4954,2.1108 L -1.5397,2.1037 L -1.5829,2.0942 L -1.6249,2.0824 L -1.6657,2.0683 L -1.7052,2.0520 L -1.7434,2.0335 L -1.7800,2.0130 L -1.8152,1.9904 L -1.8487,1.9658 L -1.8806,1.9393 L -1.9108,1.9109 L -1.9391,1.8808 L -1.9656,1.8489 L -1.9902,1.8154 L -2.0128,1.7802 L -2.0334,1.7436 L -2.0519,1.7055 L -2.0682,1.6660 L -2.0823,1.6252 L -2.0941,1.5831 L -2.1036,1.5399 L -2.1107,1.4957 L -2.1154,1.4505 L -2.1177,1.4044 L -2.1174,1.3575 L -2.1145,1.3099 L -2.1091,1.2617 L -2.1010,1.2131 L -2.0903,1.1640 L -2.0768,1.1147 L -2.0608,1.0653 L -2.0420,1.0158 L -2.0204,0.9663 L -1.9962,0.9171 L -1.9693,0.8681 L -1.9397,0.8196 L -1.9074,0.7715 L -1.8724,0.7241 L -1.8349,0.6775 L -1.7947,0.6317 L -1.7520,0.5868 L -1.7067,0.5430 L -1.6589,0.5004 L -1.6088,0.4589 L -1.5562,0.4189 L -1.5013,0.3802 L -1.4441,0.3431 L -1.3846,0.3076 L -1.3230,0.2737 L -1.2592,0.2416 L -1.1933,0.2112 L -1.1253,0.1827 L -1.0553,0.1561 L -0.9832,0.1315 L -0.9092,0.1089 L -0.8330,0.0884 L -0.7548,0.0699 L -0.6744,0.0535 L -0.5917,0.0393 L -0.5064,0.0273 L -0.4181,0.0174 L -0.3262,0.0097 L -0.2295,0.0043 L -0.1250,0.0010 L -0.0001,0.0000 Z"/>
        <g id="arrows7">
          <use xlink:href="#arrow1" transform="translate(-1.8966,1.9234) rotate(-135.26) scale(2.0)"/>
        </g>
      </g>
      <g id="fieldline8">
        <path d="M -0.0001,0.0003 L -0.0007,0.0018 L -0.0002,0.0038 L -0.0024,0.0088 L -0.0057,0.0116 L -0.0091,0.0119 L -0.0114,0.0101 L -0.0119,0.0070 L -0.0101,0.0035 L -0.0059,0.0008 L -0.0000,-0.0000 L -0.0010,-0.1243 L -0.0043,-0.2289 L -0.0097,-0.3257 L -0.0174,-0.4176 L -0.0272,-0.5059 L -0.0393,-0.5912 L -0.0535,-0.6739 L -0.0698,-0.7544 L -0.0883,-0.8326 L -0.1088,-0.9087 L -0.1314,-0.9828 L -0.1560,-1.0549 L -0.1826,-1.1249 L -0.2110,-1.1929 L -0.2414,-1.2588 L -0.2735,-1.3226 L -0.3074,-1.3843 L -0.3429,-1.4437 L -0.3800,-1.5010 L -0.4187,-1.5559 L -0.4587,-1.6085 L -0.5001,-1.6587 L -0.5428,-1.7064 L -0.5866,-1.7517 L -0.6314,-1.7945 L -0.6772,-1.8346 L -0.7239,-1.8722 L -0.7713,-1.9072 L -0.8193,-1.9395 L -0.8678,-1.9691 L -0.9168,-1.9961 L -0.9661,-2.0203 L -1.0155,-2.0418 L -1.0650,-2.0607 L -1.1145,-2.0768 L -1.1638,-2.0902 L -1.2128,-2.1009 L -1.2614,-2.1090 L -1.3096,-2.1145 L -1.3572,-2.1174 L -1.4041,-2.1177 L -1.4502,-2.1155 L -1.4954,-2.1108 L -1.5397,-2.1037 L -1.5829,-2.0942 L -1.6249,-2.0824 L -1.6657,-2.0683 L -1.7052,-2.0520 L -1.7434,-2.0335 L -1.7800,-2.0130 L -1.8152,-1.9904 L -1.8487,-1.9658 L -1.8806,-1.9393 L -1.9108,-1.9109 L -1.9391,-1.8808 L -1.9656,-1.8489 L -1.9902,-1.8154 L -2.0128,-1.7802 L -2.0334,-1.7436 L -2.0519,-1.7055 L -2.0682,-1.6660 L -2.0823,-1.6252 L -2.0941,-1.5831 L -2.1036,-1.5399 L -2.1107,-1.4957 L -2.1154,-1.4505 L -2.1177,-1.4044 L -2.1174,-1.3575 L -2.1145,-1.3099 L -2.1091,-1.2617 L -2.1010,-1.2131 L -2.0903,-1.1640 L -2.0768,-1.1147 L -2.0608,-1.0653 L -2.0420,-1.0158 L -2.0204,-0.9663 L -1.9962,-0.9171 L -1.9693,-0.8681 L -1.9397,-0.8196 L -1.9074,-0.7715 L -1.8724,-0.7241 L -1.8349,-0.6775 L -1.7947,-0.6317 L -1.7520,-0.5868 L -1.7067,-0.5430 L -1.6589,-0.5004 L -1.6088,-0.4589 L -1.5562,-0.4189 L -1.5013,-0.3802 L -1.4441,-0.3431 L -1.3846,-0.3076 L -1.3230,-0.2737 L -1.2592,-0.2416 L -1.1933,-0.2112 L -1.1253,-0.1827 L -1.0553,-0.1561 L -0.9832,-0.1315 L -0.9092,-0.1089 L -0.8330,-0.0884 L -0.7548,-0.0699 L -0.6744,-0.0535 L -0.5917,-0.0393 L -0.5064,-0.0273 L -0.4181,-0.0174 L -0.3262,-0.0097 L -0.2295,-0.0043 L -0.1250,-0.0010 L -0.0001,-0.0000 Z"/>
        <g id="arrows8">
          <use xlink:href="#arrow1" transform="translate(-1.8966,-1.9234) rotate(135.26) scale(2.0)"/>
        </g>
      </g>
      <g id="fieldline9">
        <path d="M 0.0000,-0.0000 L 0.0010,0.0888 L 0.0042,0.1646 L 0.0097,0.2346 L 0.0173,0.3009 L 0.0272,0.3644 L 0.0392,0.4254 L 0.0533,0.4843 L 0.0696,0.5410 L 0.0878,0.5957 L 0.1081,0.6483 L 0.1302,0.6989 L 0.1542,0.7474 L 0.1800,0.7937 L 0.2074,0.8377 L 0.2363,0.8795 L 0.2667,0.9190 L 0.2984,0.9560 L 0.3313,0.9905 L 0.3652,1.0225 L 0.4001,1.0519 L 0.4358,1.0787 L 0.4721,1.1028 L 0.5089,1.1242 L 0.5460,1.1428 L 0.5833,1.1588 L 0.6207,1.1720 L 0.6579,1.1825 L 0.6949,1.1903 L 0.7315,1.1955 L 0.7675,1.1980 L 0.8028,1.1979 L 0.8372,1.1954 L 0.8708,1.1903 L 0.9032,1.1829 L 0.9345,1.1731 L 0.9645,1.1611 L 0.9931,1.1470 L 1.0203,1.1307 L 1.0458,1.1124 L 1.0697,1.0922 L 1.0917,1.0702 L 1.1120,1.0463 L 1.1303,1.0208 L 1.1466,0.9937 L 1.1609,0.9652 L 1.1729,0.9352 L 1.1827,0.9039 L 1.1902,0.8715 L 1.1953,0.8380 L 1.1979,0.8035 L 1.1980,0.7682 L 1.1955,0.7322 L 1.1905,0.6957 L 1.1827,0.6587 L 1.1722,0.6215 L 1.1591,0.5841 L 1.1432,0.5468 L 1.1246,0.5097 L 1.1032,0.4729 L 1.0792,0.4366 L 1.0525,0.4009 L 1.0232,0.3660 L 0.9912,0.3320 L 0.9567,0.2991 L 0.9198,0.2673 L 0.8804,0.2369 L 0.8387,0.2080 L 0.7946,0.1805 L 0.7484,0.1548 L 0.7000,0.1307 L 0.6494,0.1085 L 0.5968,0.0883 L 0.5422,0.0699 L 0.4855,0.0537 L 0.4267,0.0395 L 0.3657,0.0274 L 0.3023,0.0175 L 0.2361,0.0098 L 0.1661,0.0043 L 0.0905,0.0010 L 0.0000,0.0000 Z"/>
        <g id="arrows9">
          <use xlink:href="#arrow1" transform="translate(1.0800,1.0801) rotate(-46.98) scale(2.0)"/>
        </g>
      </g>
      <g id="fieldline10">
        <path d="M 0.0000,0.0000 L 0.0010,-0.0888 L 0.0042,-0.1646 L 0.0097,-0.2346 L 0.0173,-0.3009 L 0.0272,-0.3644 L 0.0392,-0.4254 L 0.0533,-0.4843 L 0.0696,-0.5410 L 0.0878,-0.5957 L 0.1081,-0.6483 L 0.1302,-0.6989 L 0.1542,-0.7474 L 0.1800,-0.7937 L 0.2074,-0.8377 L 0.2363,-0.8795 L 0.2667,-0.9190 L 0.2984,-0.9560 L 0.3313,-0.9905 L 0.3652,-1.0225 L 0.4001,-1.0519 L 0.4358,-1.0787 L 0.4721,-1.1028 L 0.5089,-1.1242 L 0.5460,-1.1428 L 0.5833,-1.1588 L 0.6207,-1.1720 L 0.6579,-1.1825 L 0.6949,-1.1903 L 0.7315,-1.1955 L 0.7675,-1.1980 L 0.8028,-1.1979 L 0.8372,-1.1954 L 0.8708,-1.1903 L 0.9032,-1.1829 L 0.9345,-1.1731 L 0.9645,-1.1611 L 0.9931,-1.1470 L 1.0203,-1.1307 L 1.0458,-1.1124 L 1.0697,-1.0922 L 1.0917,-1.0702 L 1.1120,-1.0463 L 1.1303,-1.0208 L 1.1466,-0.9937 L 1.1609,-0.9652 L 1.1729,-0.9352 L 1.1827,-0.9039 L 1.1902,-0.8715 L 1.1953,-0.8380 L 1.1979,-0.8035 L 1.1980,-0.7682 L 1.1955,-0.7322 L 1.1905,-0.6957 L 1.1827,-0.6587 L 1.1722,-0.6215 L 1.1591,-0.5841 L 1.1432,-0.5468 L 1.1246,-0.5097 L 1.1032,-0.4729 L 1.0792,-0.4366 L 1.0525,-0.4009 L 1.0232,-0.3660 L 0.9912,-0.3320 L 0.9567,-0.2991 L 0.9198,-0.2673 L 0.8804,-0.2369 L 0.8387,-0.2080 L 0.7946,-0.1805 L 0.7484,-0.1548 L 0.7000,-0.1307 L 0.6494,-0.1085 L 0.5968,-0.0883 L 0.5422,-0.0699 L 0.4855,-0.0537 L 0.4267,-0.0395 L 0.3657,-0.0274 L 0.3023,-0.0175 L 0.2361,-0.0098 L 0.1661,-0.0043 L 0.0905,-0.0010 L 0.0000,-0.0000 Z"/>
        <g id="arrows10">
          <use xlink:href="#arrow1" transform="translate(1.0800,-1.0801) rotate(46.98) scale(2.0)"/>
        </g>
      </g>
      <g id="fieldline11">
        <path d="M -0.0000,-0.0000 L -0.0010,0.0888 L -0.0042,0.1646 L -0.0097,0.2346 L -0.0173,0.3009 L -0.0272,0.3644 L -0.0392,0.4254 L -0.0533,0.4843 L -0.0696,0.5410 L -0.0878,0.5957 L -0.1081,0.6483 L -0.1302,0.6989 L -0.1542,0.7474 L -0.1800,0.7937 L -0.2074,0.8377 L -0.2363,0.8795 L -0.2667,0.9190 L -0.2984,0.9560 L -0.3313,0.9905 L -0.3652,1.0225 L -0.4001,1.0519 L -0.4358,1.0787 L -0.4721,1.1028 L -0.5089,1.1242 L -0.5460,1.1428 L -0.5833,1.1588 L -0.6207,1.1720 L -0.6579,1.1825 L -0.6949,1.1903 L -0.7315,1.1955 L -0.7675,1.1980 L -0.8028,1.1979 L -0.8372,1.1954 L -0.8708,1.1903 L -0.9032,1.1829 L -0.9345,1.1731 L -0.9645,1.1611 L -0.9931,1.1470 L -1.0203,1.1307 L -1.0458,1.1124 L -1.0697,1.0922 L -1.0917,1.0702 L -1.1120,1.0463 L -1.1303,1.0208 L -1.1466,0.9937 L -1.1609,0.9652 L -1.1729,0.9352 L -1.1827,0.9039 L -1.1902,0.8715 L -1.1953,0.8380 L -1.1979,0.8035 L -1.1980,0.7682 L -1.1955,0.7322 L -1.1905,0.6957 L -1.1827,0.6587 L -1.1722,0.6215 L -1.1591,0.5841 L -1.1432,0.5468 L -1.1246,0.5097 L -1.1032,0.4729 L -1.0792,0.4366 L -1.0525,0.4009 L -1.0232,0.3660 L -0.9912,0.3320 L -0.9567,0.2991 L -0.9198,0.2673 L -0.8804,0.2369 L -0.8387,0.2080 L -0.7946,0.1805 L -0.7484,0.1548 L -0.7000,0.1307 L -0.6494,0.1085 L -0.5968,0.0883 L -0.5422,0.0699 L -0.4855,0.0537 L -0.4267,0.0395 L -0.3657,0.0274 L -0.3023,0.0175 L -0.2361,0.0098 L -0.1661,0.0043 L -0.0905,0.0010 L -0.0000,0.0000 Z"/>
        <g id="arrows11">
          <use xlink:href="#arrow1" transform="translate(-1.0800,1.0801) rotate(-133.02) scale(2.0)"/>
        </g>
      </g>
      <g id="fieldline12">
        <path d="M -0.0000,0.0000 L -0.0010,-0.0888 L -0.0042,-0.1646 L -0.0097,-0.2346 L -0.0173,-0.3009 L -0.0272,-0.3644 L -0.0392,-0.4254 L -0.0533,-0.4843 L -0.0696,-0.5410 L -0.0878,-0.5957 L -0.1081,-0.6483 L -0.1302,-0.6989 L -0.1542,-0.7474 L -0.1800,-0.7937 L -0.2074,-0.8377 L -0.2363,-0.8795 L -0.2667,-0.9190 L -0.2984,-0.9560 L -0.3313,-0.9905 L -0.3652,-1.0225 L -0.4001,-1.0519 L -0.4358,-1.0787 L -0.4721,-1.1028 L -0.5089,-1.1242 L -0.5460,-1.1428 L -0.5833,-1.1588 L -0.6207,-1.1720 L -0.6579,-1.1825 L -0.6949,-1.1903 L -0.7315,-1.1955 L -0.7675,-1.1980 L -0.8028,-1.1979 L -0.8372,-1.1954 L -0.8708,-1.1903 L -0.9032,-1.1829 L -0.9345,-1.1731 L -0.9645,-1.1611 L -0.9931,-1.1470 L -1.0203,-1.1307 L -1.0458,-1.1124 L -1.0697,-1.0922 L -1.0917,-1.0702 L -1.1120,-1.0463 L -1.1303,-1.0208 L -1.1466,-0.9937 L -1.1609,-0.9652 L -1.1729,-0.9352 L -1.1827,-0.9039 L -1.1902,-0.8715 L -1.1953,-0.8380 L -1.1979,-0.8035 L -1.1980,-0.7682 L -1.1955,-0.7322 L -1.1905,-0.6957 L -1.1827,-0.6587 L -1.1722,-0.6215 L -1.1591,-0.5841 L -1.1432,-0.5468 L -1.1246,-0.5097 L -1.1032,-0.4729 L -1.0792,-0.4366 L -1.0525,-0.4009 L -1.0232,-0.3660 L -0.9912,-0.3320 L -0.9567,-0.2991 L -0.9198,-0.2673 L -0.8804,-0.2369 L -0.8387,-0.2080 L -0.7946,-0.1805 L -0.7484,-0.1548 L -0.7000,-0.1307 L -0.6494,-0.1085 L -0.5968,-0.0883 L -0.5422,-0.0699 L -0.4855,-0.0537 L -0.4267,-0.0395 L -0.3657,-0.0274 L -0.3023,-0.0175 L -0.2361,-0.0098 L -0.1661,-0.0043 L -0.0905,-0.0010 L -0.0000,-0.0000 Z"/>
        <g id="arrows12">
          <use xlink:href="#arrow1" transform="translate(-1.0800,-1.0801) rotate(133.02) scale(2.0)"/>
        </g>
      </g>
      <g id="fieldline13">
        <path d="M 0.0000,-0.0000 L 0.0010,0.0673 L 0.0041,0.1249 L 0.0094,0.1779 L 0.0169,0.2280 L 0.0265,0.2757 L 0.0381,0.3213 L 0.0518,0.3648 L 0.0674,0.4064 L 0.0849,0.4459 L 0.1041,0.4834 L 0.1251,0.5187 L 0.1476,0.5518 L 0.1714,0.5826 L 0.1966,0.6110 L 0.2229,0.6370 L 0.2501,0.6604 L 0.2781,0.6813 L 0.3067,0.6996 L 0.3357,0.7152 L 0.3649,0.7281 L 0.3942,0.7384 L 0.4234,0.7461 L 0.4522,0.7511 L 0.4805,0.7535 L 0.5082,0.7534 L 0.5350,0.7509 L 0.5609,0.7460 L 0.5857,0.7387 L 0.6092,0.7293 L 0.6313,0.7178 L 0.6520,0.7042 L 0.6710,0.6887 L 0.6883,0.6715 L 0.7039,0.6524 L 0.7175,0.6318 L 0.7291,0.6097 L 0.7385,0.5863 L 0.7458,0.5615 L 0.7508,0.5357 L 0.7534,0.5089 L 0.7535,0.4812 L 0.7512,0.4529 L 0.7462,0.4241 L 0.7386,0.3949 L 0.7284,0.3656 L 0.7155,0.3364 L 0.7000,0.3074 L 0.6818,0.2788 L 0.6610,0.2507 L 0.6376,0.2235 L 0.6116,0.1972 L 0.5833,0.1720 L 0.5525,0.1481 L 0.5195,0.1256 L 0.4842,0.1046 L 0.4468,0.0853 L 0.4073,0.0678 L 0.3658,0.0521 L 0.3223,0.0384 L 0.2768,0.0267 L 0.2292,0.0171 L 0.1792,0.0096 L 0.1262,0.0042 L 0.0688,0.0010 L 0.0000,0.0000 Z"/>
        <g id="arrows13">
          <use xlink:href="#arrow1" transform="translate(0.6782,0.6784) rotate(-48.28) scale(2.0)"/>
        </g>
      </g>
      <g id="fieldline14">
        <path d="M 0.0000,0.0000 L 0.0010,-0.0673 L 0.0041,-0.1249 L 0.0094,-0.1779 L 0.0169,-0.2280 L 0.0265,-0.2757 L 0.0381,-0.3213 L 0.0518,-0.3648 L 0.0674,-0.4064 L 0.0849,-0.4459 L 0.1041,-0.4834 L 0.1251,-0.5187 L 0.1476,-0.5518 L 0.1714,-0.5826 L 0.1966,-0.6110 L 0.2229,-0.6370 L 0.2501,-0.6604 L 0.2781,-0.6813 L 0.3067,-0.6996 L 0.3357,-0.7152 L 0.3649,-0.7281 L 0.3942,-0.7384 L 0.4234,-0.7461 L 0.4522,-0.7511 L 0.4805,-0.7535 L 0.5082,-0.7534 L 0.5350,-0.7509 L 0.5609,-0.7460 L 0.5857,-0.7387 L 0.6092,-0.7293 L 0.6313,-0.7178 L 0.6520,-0.7042 L 0.6710,-0.6887 L 0.6883,-0.6715 L 0.7039,-0.6524 L 0.7175,-0.6318 L 0.7291,-0.6097 L 0.7385,-0.5863 L 0.7458,-0.5615 L 0.7508,-0.5357 L 0.7534,-0.5089 L 0.7535,-0.4812 L 0.7512,-0.4529 L 0.7462,-0.4241 L 0.7386,-0.3949 L 0.7284,-0.3656 L 0.7155,-0.3364 L 0.7000,-0.3074 L 0.6818,-0.2788 L 0.6610,-0.2507 L 0.6376,-0.2235 L 0.6116,-0.1972 L 0.5833,-0.1720 L 0.5525,-0.1481 L 0.5195,-0.1256 L 0.4842,-0.1046 L 0.4468,-0.0853 L 0.4073,-0.0678 L 0.3658,-0.0521 L 0.3223,-0.0384 L 0.2768,-0.0267 L 0.2292,-0.0171 L 0.1792,-0.0096 L 0.1262,-0.0042 L 0.0688,-0.0010 L 0.0000,-0.0000 Z"/>
        <g id="arrows14">
          <use xlink:href="#arrow1" transform="translate(0.6782,-0.6784) rotate(48.28) scale(2.0)"/>
        </g>
      </g>
      <g id="fieldline15">
        <path d="M -0.0000,-0.0000 L -0.0010,0.0673 L -0.0041,0.1249 L -0.0094,0.1779 L -0.0169,0.2280 L -0.0265,0.2757 L -0.0381,0.3213 L -0.0518,0.3648 L -0.0674,0.4064 L -0.0849,0.4459 L -0.1041,0.4834 L -0.1251,0.5187 L -0.1476,0.5518 L -0.1714,0.5826 L -0.1966,0.6110 L -0.2229,0.6370 L -0.2501,0.6604 L -0.2781,0.6813 L -0.3067,0.6996 L -0.3357,0.7152 L -0.3649,0.7281 L -0.3942,0.7384 L -0.4234,0.7461 L -0.4522,0.7511 L -0.4805,0.7535 L -0.5082,0.7534 L -0.5350,0.7509 L -0.5609,0.7460 L -0.5857,0.7387 L -0.6092,0.7293 L -0.6313,0.7178 L -0.6520,0.7042 L -0.6710,0.6887 L -0.6883,0.6715 L -0.7039,0.6524 L -0.7175,0.6318 L -0.7291,0.6097 L -0.7385,0.5863 L -0.7458,0.5615 L -0.7508,0.5357 L -0.7534,0.5089 L -0.7535,0.4812 L -0.7512,0.4529 L -0.7462,0.4241 L -0.7386,0.3949 L -0.7284,0.3656 L -0.7155,0.3364 L -0.7000,0.3074 L -0.6818,0.2788 L -0.6610,0.2507 L -0.6376,0.2235 L -0.6116,0.1972 L -0.5833,0.1720 L -0.5525,0.1481 L -0.5195,0.1256 L -0.4842,0.1046 L -0.4468,0.0853 L -0.4073,0.0678 L -0.3658,0.0521 L -0.3223,0.0384 L -0.2768,0.0267 L -0.2292,0.0171 L -0.1792,0.0096 L -0.1262,0.0042 L -0.0688,0.0010 L -0.0000,0.0000 Z"/>
        <g id="arrows15">
          <use xlink:href="#arrow1" transform="translate(-0.6782,0.6784) rotate(-131.72) scale(2.0)"/>
        </g>
      </g>
      <g id="fieldline16">
        <path d="M -0.0000,0.0000 L -0.0010,-0.0673 L -0.0041,-0.1249 L -0.0094,-0.1779 L -0.0169,-0.2280 L -0.0265,-0.2757 L -0.0381,-0.3213 L -0.0518,-0.3648 L -0.0674,-0.4064 L -0.0849,-0.4459 L -0.1041,-0.4834 L -0.1251,-0.5187 L -0.1476,-0.5518 L -0.1714,-0.5826 L -0.1966,-0.6110 L -0.2229,-0.6370 L -0.2501,-0.6604 L -0.2781,-0.6813 L -0.3067,-0.6996 L -0.3357,-0.7152 L -0.3649,-0.7281 L -0.3942,-0.7384 L -0.4234,-0.7461 L -0.4522,-0.7511 L -0.4805,-0.7535 L -0.5082,-0.7534 L -0.5350,-0.7509 L -0.5609,-0.7460 L -0.5857,-0.7387 L -0.6092,-0.7293 L -0.6313,-0.7178 L -0.6520,-0.7042 L -0.6710,-0.6887 L -0.6883,-0.6715 L -0.7039,-0.6524 L -0.7175,-0.6318 L -0.7291,-0.6097 L -0.7385,-0.5863 L -0.7458,-0.5615 L -0.7508,-0.5357 L -0.7534,-0.5089 L -0.7535,-0.4812 L -0.7512,-0.4529 L -0.7462,-0.4241 L -0.7386,-0.3949 L -0.7284,-0.3656 L -0.7155,-0.3364 L -0.7000,-0.3074 L -0.6818,-0.2788 L -0.6610,-0.2507 L -0.6376,-0.2235 L -0.6116,-0.1972 L -0.5833,-0.1720 L -0.5525,-0.1481 L -0.5195,-0.1256 L -0.4842,-0.1046 L -0.4468,-0.0853 L -0.4073,-0.0678 L -0.3658,-0.0521 L -0.3223,-0.0384 L -0.2768,-0.0267 L -0.2292,-0.0171 L -0.1792,-0.0096 L -0.1262,-0.0042 L -0.0688,-0.0010 L -0.0000,-0.0000 Z"/>
        <g id="arrows16">
          <use xlink:href="#arrow1" transform="translate(-0.6782,-0.6784) rotate(131.72) scale(2.0)"/>
        </g>
      </g>
      <g id="fieldline17">
        <path d="M 0.0000,-0.0000 L 0.0010,0.0543 L 0.0042,0.1006 L 0.0096,0.1432 L 0.0171,0.1832 L 0.0268,0.2210 L 0.0386,0.2567 L 0.0522,0.2904 L 0.0678,0.3221 L 0.0850,0.3515 L 0.1039,0.3787 L 0.1241,0.4036 L 0.1455,0.4259 L 0.1680,0.4458 L 0.1912,0.4630 L 0.2151,0.4776 L 0.2393,0.4894 L 0.2636,0.4985 L 0.2878,0.5050 L 0.3116,0.5087 L 0.3349,0.5099 L 0.3575,0.5085 L 0.3790,0.5047 L 0.3995,0.4985 L 0.4187,0.4902 L 0.4364,0.4797 L 0.4525,0.4672 L 0.4669,0.4528 L 0.4794,0.4368 L 0.4899,0.4191 L 0.4984,0.4000 L 0.5046,0.3795 L 0.5085,0.3580 L 0.5099,0.3355 L 0.5088,0.3122 L 0.5051,0.2883 L 0.4987,0.2641 L 0.4896,0.2398 L 0.4779,0.2156 L 0.4634,0.1918 L 0.4462,0.1685 L 0.4264,0.1460 L 0.4041,0.1246 L 0.3793,0.1043 L 0.3522,0.0855 L 0.3228,0.0682 L 0.2912,0.0526 L 0.2575,0.0389 L 0.2218,0.0271 L 0.1841,0.0174 L 0.1442,0.0097 L 0.1016,0.0043 L 0.0554,0.0010 L 0.0000,0.0000 Z"/>
        <g id="arrows17">
          <use xlink:href="#arrow1" transform="translate(0.4574,0.4578) rotate(-49.63) scale(2.0)"/>
        </g>
      </g>
      <g id="fieldline18">
        <path d="M 0.0000,0.0000 L 0.0010,-0.0543 L 0.0042,-0.1006 L 0.0096,-0.1432 L 0.0171,-0.1832 L 0.0268,-0.2210 L 0.0386,-0.2567 L 0.0522,-0.2904 L 0.0678,-0.3221 L 0.0850,-0.3515 L 0.1039,-0.3787 L 0.1241,-0.4036 L 0.1455,-0.4259 L 0.1680,-0.4458 L 0.1912,-0.4630 L 0.2151,-0.4776 L 0.2393,-0.4894 L 0.2636,-0.4985 L 0.2878,-0.5050 L 0.3116,-0.5087 L 0.3349,-0.5099 L 0.3575,-0.5085 L 0.3790,-0.5047 L 0.3995,-0.4985 L 0.4187,-0.4902 L 0.4364,-0.4797 L 0.4525,-0.4672 L 0.4669,-0.4528 L 0.4794,-0.4368 L 0.4899,-0.4191 L 0.4984,-0.4000 L 0.5046,-0.3795 L 0.5085,-0.3580 L 0.5099,-0.3355 L 0.5088,-0.3122 L 0.5051,-0.2883 L 0.4987,-0.2641 L 0.4896,-0.2398 L 0.4779,-0.2156 L 0.4634,-0.1918 L 0.4462,-0.1685 L 0.4264,-0.1460 L 0.4041,-0.1246 L 0.3793,-0.1043 L 0.3522,-0.0855 L 0.3228,-0.0682 L 0.2912,-0.0526 L 0.2575,-0.0389 L 0.2218,-0.0271 L 0.1841,-0.0174 L 0.1442,-0.0097 L 0.1016,-0.0043 L 0.0554,-0.0010 L 0.0000,-0.0000 Z"/>
        <g id="arrows18">
          <use xlink:href="#arrow1" transform="translate(0.4574,-0.4578) rotate(49.63) scale(2.0)"/>
        </g>
      </g>
      <g id="fieldline19">
        <path d="M -0.0000,-0.0000 L -0.0010,0.0543 L -0.0042,0.1006 L -0.0096,0.1432 L -0.0171,0.1832 L -0.0268,0.2210 L -0.0386,0.2567 L -0.0522,0.2904 L -0.0678,0.3221 L -0.0850,0.3515 L -0.1039,0.3787 L -0.1241,0.4036 L -0.1455,0.4259 L -0.1680,0.4458 L -0.1912,0.4630 L -0.2151,0.4776 L -0.2393,0.4894 L -0.2636,0.4985 L -0.2878,0.5050 L -0.3116,0.5087 L -0.3349,0.5099 L -0.3575,0.5085 L -0.3790,0.5047 L -0.3995,0.4985 L -0.4187,0.4902 L -0.4364,0.4797 L -0.4525,0.4672 L -0.4669,0.4528 L -0.4794,0.4368 L -0.4899,0.4191 L -0.4984,0.4000 L -0.5046,0.3795 L -0.5085,0.3580 L -0.5099,0.3355 L -0.5088,0.3122 L -0.5051,0.2883 L -0.4987,0.2641 L -0.4896,0.2398 L -0.4779,0.2156 L -0.4634,0.1918 L -0.4462,0.1685 L -0.4264,0.1460 L -0.4041,0.1246 L -0.3793,0.1043 L -0.3522,0.0855 L -0.3228,0.0682 L -0.2912,0.0526 L -0.2575,0.0389 L -0.2218,0.0271 L -0.1841,0.0174 L -0.1442,0.0097 L -0.1016,0.0043 L -0.0554,0.0010 L -0.0000,0.0000 Z"/>
        <g id="arrows19">
          <use xlink:href="#arrow1" transform="translate(-0.4574,0.4578) rotate(-130.37) scale(2.0)"/>
        </g>
      </g>
      <g id="fieldline20">
        <path d="M -0.0000,0.0000 L -0.0010,-0.0543 L -0.0042,-0.1006 L -0.0096,-0.1432 L -0.0171,-0.1832 L -0.0268,-0.2210 L -0.0386,-0.2567 L -0.0522,-0.2904 L -0.0678,-0.3221 L -0.0850,-0.3515 L -0.1039,-0.3787 L -0.1241,-0.4036 L -0.1455,-0.4259 L -0.1680,-0.4458 L -0.1912,-0.4630 L -0.2151,-0.4776 L -0.2393,-0.4894 L -0.2636,-0.4985 L -0.2878,-0.5050 L -0.3116,-0.5087 L -0.3349,-0.5099 L -0.3575,-0.5085 L -0.3790,-0.5047 L -0.3995,-0.4985 L -0.4187,-0.4902 L -0.4364,-0.4797 L -0.4525,-0.4672 L -0.4669,-0.4528 L -0.4794,-0.4368 L -0.4899,-0.4191 L -0.4984,-0.4000 L -0.5046,-0.3795 L -0.5085,-0.3580 L -0.5099,-0.3355 L -0.5088,-0.3122 L -0.5051,-0.2883 L -0.4987,-0.2641 L -0.4896,-0.2398 L -0.4779,-0.2156 L -0.4634,-0.1918 L -0.4462,-0.1685 L -0.4264,-0.1460 L -0.4041,-0.1246 L -0.3793,-0.1043 L -0.3522,-0.0855 L -0.3228,-0.0682 L -0.2912,-0.0526 L -0.2575,-0.0389 L -0.2218,-0.0271 L -0.1841,-0.0174 L -0.1442,-0.0097 L -0.1016,-0.0043 L -0.0554,-0.0010 L -0.0000,-0.0000 Z"/>
        <g id="arrows20">
          <use xlink:href="#arrow1" transform="translate(-0.4574,-0.4578) rotate(130.37) scale(2.0)"/>
        </g>
      </g>
      <g id="fieldline21">
        <path d="M 0.0000,0.0001 L 0.0010,0.0443 L 0.0041,0.0823 L 0.0094,0.1171 L 0.0169,0.1495 L 0.0264,0.1800 L 0.0378,0.2083 L 0.0511,0.2347 L 0.0660,0.2588 L 0.0824,0.2807 L 0.1001,0.3002 L 0.1189,0.3172 L 0.1384,0.3316 L 0.1585,0.3433 L 0.1789,0.3524 L 0.1993,0.3588 L 0.2195,0.3625 L 0.2391,0.3637 L 0.2580,0.3623 L 0.2758,0.3585 L 0.2926,0.3525 L 0.3079,0.3443 L 0.3217,0.3341 L 0.3338,0.3221 L 0.3440,0.3083 L 0.3523,0.2930 L 0.3584,0.2764 L 0.3622,0.2585 L 0.3637,0.2397 L 0.3626,0.2201 L 0.3589,0.1999 L 0.3526,0.1796 L 0.3437,0.1592 L 0.3320,0.1390 L 0.3177,0.1195 L 0.3008,0.1007 L 0.2813,0.0829 L 0.2595,0.0665 L 0.2354,0.0515 L 0.2092,0.0382 L 0.1808,0.0267 L 0.1505,0.0171 L 0.1181,0.0096 L 0.0834,0.0042 L 0.0455,0.0010 L 0.0000,0.0000 Z"/>
        <g id="arrows21">
          <use xlink:href="#arrow1" transform="translate(0.3244,0.3251) rotate(-51.76) scale(2.0)"/>
        </g>
      </g>
      <g id="fieldline22">
        <path d="M 0.0000,-0.0001 L 0.0010,-0.0443 L 0.0041,-0.0823 L 0.0094,-0.1171 L 0.0169,-0.1495 L 0.0264,-0.1800 L 0.0378,-0.2083 L 0.0511,-0.2347 L 0.0660,-0.2588 L 0.0824,-0.2807 L 0.1001,-0.3002 L 0.1189,-0.3172 L 0.1384,-0.3316 L 0.1585,-0.3433 L 0.1789,-0.3524 L 0.1993,-0.3588 L 0.2195,-0.3625 L 0.2391,-0.3637 L 0.2580,-0.3623 L 0.2758,-0.3585 L 0.2926,-0.3525 L 0.3079,-0.3443 L 0.3217,-0.3341 L 0.3338,-0.3221 L 0.3440,-0.3083 L 0.3523,-0.2930 L 0.3584,-0.2764 L 0.3622,-0.2585 L 0.3637,-0.2397 L 0.3626,-0.2201 L 0.3589,-0.1999 L 0.3526,-0.1796 L 0.3437,-0.1592 L 0.3320,-0.1390 L 0.3177,-0.1195 L 0.3008,-0.1007 L 0.2813,-0.0829 L 0.2595,-0.0665 L 0.2354,-0.0515 L 0.2092,-0.0382 L 0.1808,-0.0267 L 0.1505,-0.0171 L 0.1181,-0.0096 L 0.0834,-0.0042 L 0.0455,-0.0010 L 0.0000,-0.0000 Z"/>
        <g id="arrows22">
          <use xlink:href="#arrow1" transform="translate(0.3244,-0.3251) rotate(51.76) scale(2.0)"/>
        </g>
      </g>
      <g id="fieldline23">
        <path d="M -0.0000,0.0001 L -0.0010,0.0443 L -0.0041,0.0823 L -0.0094,0.1171 L -0.0169,0.1495 L -0.0264,0.1800 L -0.0378,0.2083 L -0.0511,0.2347 L -0.0660,0.2588 L -0.0824,0.2807 L -0.1001,0.3002 L -0.1189,0.3172 L -0.1384,0.3316 L -0.1585,0.3433 L -0.1789,0.3524 L -0.1993,0.3588 L -0.2195,0.3625 L -0.2391,0.3637 L -0.2580,0.3623 L -0.2758,0.3585 L -0.2926,0.3525 L -0.3079,0.3443 L -0.3217,0.3341 L -0.3338,0.3221 L -0.3440,0.3083 L -0.3523,0.2930 L -0.3584,0.2764 L -0.3622,0.2585 L -0.3637,0.2397 L -0.3626,0.2201 L -0.3589,0.1999 L -0.3526,0.1796 L -0.3437,0.1592 L -0.3320,0.1390 L -0.3177,0.1195 L -0.3008,0.1007 L -0.2813,0.0829 L -0.2595,0.0665 L -0.2354,0.0515 L -0.2092,0.0382 L -0.1808,0.0267 L -0.1505,0.0171 L -0.1181,0.0096 L -0.0834,0.0042 L -0.0455,0.0010 L -0.0000,0.0000 Z"/>
        <g id="arrows23">
          <use xlink:href="#arrow1" transform="translate(-0.3244,0.3251) rotate(-128.24) scale(2.0)"/>
        </g>
      </g>
      <g id="fieldline24">
        <path d="M -0.0000,-0.0001 L -0.0010,-0.0443 L -0.0041,-0.0823 L -0.0094,-0.1171 L -0.0169,-0.1495 L -0.0264,-0.1800 L -0.0378,-0.2083 L -0.0511,-0.2347 L -0.0660,-0.2588 L -0.0824,-0.2807 L -0.1001,-0.3002 L -0.1189,-0.3172 L -0.1384,-0.3316 L -0.1585,-0.3433 L -0.1789,-0.3524 L -0.1993,-0.3588 L -0.2195,-0.3625 L -0.2391,-0.3637 L -0.2580,-0.3623 L -0.2758,-0.3585 L -0.2926,-0.3525 L -0.3079,-0.3443 L -0.3217,-0.3341 L -0.3338,-0.3221 L -0.3440,-0.3083 L -0.3523,-0.2930 L -0.3584,-0.2764 L -0.3622,-0.2585 L -0.3637,-0.2397 L -0.3626,-0.2201 L -0.3589,-0.1999 L -0.3526,-0.1796 L -0.3437,-0.1592 L -0.3320,-0.1390 L -0.3177,-0.1195 L -0.3008,-0.1007 L -0.2813,-0.0829 L -0.2595,-0.0665 L -0.2354,-0.0515 L -0.2092,-0.0382 L -0.1808,-0.0267 L -0.1505,-0.0171 L -0.1181,-0.0096 L -0.0834,-0.0042 L -0.0455,-0.0010 L -0.0000,-0.0000 Z"/>
        <g id="arrows24">
          <use xlink:href="#arrow1" transform="translate(-0.3244,-0.3251) rotate(128.24) scale(2.0)"/>
        </g>
      </g>
      <g id="fieldline25">
        <path d="M 0.0000,0.0000 L 0.0010,0.0375 L 0.0041,0.0693 L 0.0094,0.0983 L 0.0167,0.1252 L 0.0260,0.1500 L 0.0371,0.1729 L 0.0499,0.1936 L 0.0642,0.2120 L 0.0797,0.2280 L 0.0961,0.2416 L 0.1132,0.2525 L 0.1306,0.2608 L 0.1481,0.2664 L 0.1653,0.2695 L 0.1820,0.2699 L 0.1978,0.2679 L 0.2126,0.2636 L 0.2261,0.2572 L 0.2381,0.2487 L 0.2485,0.2384 L 0.2570,0.2264 L 0.2635,0.2129 L 0.2679,0.1981 L 0.2699,0.1823 L 0.2695,0.1656 L 0.2665,0.1484 L 0.2609,0.1309 L 0.2527,0.1135 L 0.2418,0.0964 L 0.2283,0.0800 L 0.2123,0.0645 L 0.1940,0.0502 L 0.1733,0.0374 L 0.1505,0.0262 L 0.1257,0.0169 L 0.0989,0.0095 L 0.0699,0.0042 L 0.0382,0.0010 L 0.0000,0.0000 Z"/>
        <g id="arrows25">
          <use xlink:href="#arrow1" transform="translate(0.2387,0.2400) rotate(-54.07) scale(2.0)"/>
        </g>
      </g>
      <g id="fieldline26">
        <path d="M 0.0000,-0.0000 L 0.0010,-0.0375 L 0.0041,-0.0693 L 0.0094,-0.0983 L 0.0167,-0.1252 L 0.0260,-0.1500 L 0.0371,-0.1729 L 0.0499,-0.1936 L 0.0642,-0.2120 L 0.0797,-0.2280 L 0.0961,-0.2416 L 0.1132,-0.2525 L 0.1306,-0.2608 L 0.1481,-0.2664 L 0.1653,-0.2695 L 0.1820,-0.2699 L 0.1978,-0.2679 L 0.2126,-0.2636 L 0.2261,-0.2572 L 0.2381,-0.2487 L 0.2485,-0.2384 L 0.2570,-0.2264 L 0.2635,-0.2129 L 0.2679,-0.1981 L 0.2699,-0.1823 L 0.2695,-0.1656 L 0.2665,-0.1484 L 0.2609,-0.1309 L 0.2527,-0.1135 L 0.2418,-0.0964 L 0.2283,-0.0800 L 0.2123,-0.0645 L 0.1940,-0.0502 L 0.1733,-0.0374 L 0.1505,-0.0262 L 0.1257,-0.0169 L 0.0989,-0.0095 L 0.0699,-0.0042 L 0.0382,-0.0010 L 0.0000,-0.0000 Z"/>
        <g id="arrows26">
          <use xlink:href="#arrow1" transform="translate(0.2387,-0.2400) rotate(54.07) scale(2.0)"/>
        </g>
      </g>
      <g id="fieldline27">
        <path d="M -0.0000,0.0000 L -0.0010,0.0375 L -0.0041,0.0693 L -0.0094,0.0983 L -0.0167,0.1252 L -0.0260,0.1500 L -0.0371,0.1729 L -0.0499,0.1936 L -0.0642,0.2120 L -0.0797,0.2280 L -0.0961,0.2416 L -0.1132,0.2525 L -0.1306,0.2608 L -0.1481,0.2664 L -0.1653,0.2695 L -0.1820,0.2699 L -0.1978,0.2679 L -0.2126,0.2636 L -0.2261,0.2572 L -0.2381,0.2487 L -0.2485,0.2384 L -0.2570,0.2264 L -0.2635,0.2129 L -0.2679,0.1981 L -0.2699,0.1823 L -0.2695,0.1656 L -0.2665,0.1484 L -0.2609,0.1309 L -0.2527,0.1135 L -0.2418,0.0964 L -0.2283,0.0800 L -0.2123,0.0645 L -0.1940,0.0502 L -0.1733,0.0374 L -0.1505,0.0262 L -0.1257,0.0169 L -0.0989,0.0095 L -0.0699,0.0042 L -0.0382,0.0010 L -0.0000,0.0000 Z"/>
        <g id="arrows27">
          <use xlink:href="#arrow1" transform="translate(-0.2387,0.2400) rotate(-125.93) scale(2.0)"/>
        </g>
      </g>
      <g id="fieldline28">
        <path d="M -0.0000,-0.0000 L -0.0010,-0.0375 L -0.0041,-0.0693 L -0.0094,-0.0983 L -0.0167,-0.1252 L -0.0260,-0.1500 L -0.0371,-0.1729 L -0.0499,-0.1936 L -0.0642,-0.2120 L -0.0797,-0.2280 L -0.0961,-0.2416 L -0.1132,-0.2525 L -0.1306,-0.2608 L -0.1481,-0.2664 L -0.1653,-0.2695 L -0.1820,-0.2699 L -0.1978,-0.2679 L -0.2126,-0.2636 L -0.2261,-0.2572 L -0.2381,-0.2487 L -0.2485,-0.2384 L -0.2570,-0.2264 L -0.2635,-0.2129 L -0.2679,-0.1981 L -0.2699,-0.1823 L -0.2695,-0.1656 L -0.2665,-0.1484 L -0.2609,-0.1309 L -0.2527,-0.1135 L -0.2418,-0.0964 L -0.2283,-0.0800 L -0.2123,-0.0645 L -0.1940,-0.0502 L -0.1733,-0.0374 L -0.1505,-0.0262 L -0.1257,-0.0169 L -0.0989,-0.0095 L -0.0699,-0.0042 L -0.0382,-0.0010 L -0.0000,-0.0000 Z"/>
        <g id="arrows28">
          <use xlink:href="#arrow1" transform="translate(-0.2387,-0.2400) rotate(125.93) scale(2.0)"/>
        </g>
      </g>
      <g id="fieldline29">
        <path d="M 0.0000,0.0001 L 0.0010,0.0320 L 0.0041,0.0594 L 0.0094,0.0842 L 0.0167,0.1070 L 0.0259,0.1277 L 0.0369,0.1463 L 0.0493,0.1626 L 0.0630,0.1766 L 0.0776,0.1879 L 0.0928,0.1967 L 0.1082,0.2027 L 0.1234,0.2061 L 0.1382,0.2069 L 0.1522,0.2053 L 0.1651,0.2012 L 0.1766,0.1951 L 0.1866,0.1869 L 0.1948,0.1770 L 0.2011,0.1655 L 0.2052,0.1526 L 0.2069,0.1387 L 0.2062,0.1239 L 0.2029,0.1087 L 0.1969,0.0933 L 0.1883,0.0781 L 0.1770,0.0635 L 0.1631,0.0498 L 0.1469,0.0373 L 0.1283,0.0262 L 0.1077,0.0170 L 0.0850,0.0096 L 0.0602,0.0042 L 0.0329,0.0010 L 0.0000,0.0000 Z"/>
        <g id="arrows29">
          <use xlink:href="#arrow1" transform="translate(0.1801,0.1823) rotate(-56.48) scale(2.0)"/>
        </g>
      </g>
      <g id="fieldline30">
        <path d="M 0.0000,-0.0001 L 0.0010,-0.0320 L 0.0041,-0.0594 L 0.0094,-0.0842 L 0.0167,-0.1070 L 0.0259,-0.1277 L 0.0369,-0.1463 L 0.0493,-0.1626 L 0.0630,-0.1766 L 0.0776,-0.1879 L 0.0928,-0.1967 L 0.1082,-0.2027 L 0.1234,-0.2061 L 0.1382,-0.2069 L 0.1522,-0.2053 L 0.1651,-0.2012 L 0.1766,-0.1951 L 0.1866,-0.1869 L 0.1948,-0.1770 L 0.2011,-0.1655 L 0.2052,-0.1526 L 0.2069,-0.1387 L 0.2062,-0.1239 L 0.2029,-0.1087 L 0.1969,-0.0933 L 0.1883,-0.0781 L 0.1770,-0.0635 L 0.1631,-0.0498 L 0.1469,-0.0373 L 0.1283,-0.0262 L 0.1077,-0.0170 L 0.0850,-0.0096 L 0.0602,-0.0042 L 0.0329,-0.0010 L 0.0000,-0.0000 Z"/>
        <g id="arrows30">
          <use xlink:href="#arrow1" transform="translate(0.1801,-0.1823) rotate(56.48) scale(2.0)"/>
        </g>
      </g>
      <g id="fieldline31">
        <path d="M -0.0000,0.0001 L -0.0010,0.0320 L -0.0041,0.0594 L -0.0094,0.0842 L -0.0167,0.1070 L -0.0259,0.1277 L -0.0369,0.1463 L -0.0493,0.1626 L -0.0630,0.1766 L -0.0776,0.1879 L -0.0928,0.1967 L -0.1082,0.2027 L -0.1234,0.2061 L -0.1382,0.2069 L -0.1522,0.2053 L -0.1651,0.2012 L -0.1766,0.1951 L -0.1866,0.1869 L -0.1948,0.1770 L -0.2011,0.1655 L -0.2052,0.1526 L -0.2069,0.1387 L -0.2062,0.1239 L -0.2029,0.1087 L -0.1969,0.0933 L -0.1883,0.0781 L -0.1770,0.0635 L -0.1631,0.0498 L -0.1469,0.0373 L -0.1283,0.0262 L -0.1077,0.0170 L -0.0850,0.0096 L -0.0602,0.0042 L -0.0329,0.0010 L -0.0000,0.0000 Z"/>
        <g id="arrows31">
          <use xlink:href="#arrow1" transform="translate(-0.1801,0.1823) rotate(-123.52) scale(2.0)"/>
        </g>
      </g>
      <g id="fieldline32">
        <path d="M -0.0000,-0.0001 L -0.0010,-0.0320 L -0.0041,-0.0594 L -0.0094,-0.0842 L -0.0167,-0.1070 L -0.0259,-0.1277 L -0.0369,-0.1463 L -0.0493,-0.1626 L -0.0630,-0.1766 L -0.0776,-0.1879 L -0.0928,-0.1967 L -0.1082,-0.2027 L -0.1234,-0.2061 L -0.1382,-0.2069 L -0.1522,-0.2053 L -0.1651,-0.2012 L -0.1766,-0.1951 L -0.1866,-0.1869 L -0.1948,-0.1770 L -0.2011,-0.1655 L -0.2052,-0.1526 L -0.2069,-0.1387 L -0.2062,-0.1239 L -0.2029,-0.1087 L -0.1969,-0.0933 L -0.1883,-0.0781 L -0.1770,-0.0635 L -0.1631,-0.0498 L -0.1469,-0.0373 L -0.1283,-0.0262 L -0.1077,-0.0170 L -0.0850,-0.0096 L -0.0602,-0.0042 L -0.0329,-0.0010 L -0.0000,-0.0000 Z"/>
        <g id="arrows32">
          <use xlink:href="#arrow1" transform="translate(-0.1801,-0.1823) rotate(123.52) scale(2.0)"/>
        </g>
      </g>
      <g id="fieldline33">
        <path d="M 0.0000,0.0001 L 0.0010,0.0280 L 0.0041,0.0519 L 0.0094,0.0734 L 0.0168,0.0929 L 0.0259,0.1103 L 0.0367,0.1254 L 0.0487,0.1381 L 0.0618,0.1483 L 0.0753,0.1558 L 0.0890,0.1605 L 0.1025,0.1626 L 0.1153,0.1622 L 0.1272,0.1593 L 0.1377,0.1541 L 0.1467,0.1470 L 0.1539,0.1380 L 0.1591,0.1275 L 0.1621,0.1157 L 0.1627,0.1029 L 0.1606,0.0895 L 0.1560,0.0758 L 0.1486,0.0622 L 0.1385,0.0492 L 0.1259,0.0371 L 0.1108,0.0263 L 0.0935,0.0170 L 0.0741,0.0096 L 0.0527,0.0043 L 0.0288,0.0010 L 0.0000,0.0000 Z"/>
        <g id="arrows33">
          <use xlink:href="#arrow1" transform="translate(0.1385,0.1419) rotate(-59.29) scale(2.0)"/>
        </g>
      </g>
      <g id="fieldline34">
        <path d="M 0.0000,-0.0001 L 0.0010,-0.0280 L 0.0041,-0.0519 L 0.0094,-0.0734 L 0.0168,-0.0929 L 0.0259,-0.1103 L 0.0367,-0.1254 L 0.0487,-0.1381 L 0.0618,-0.1483 L 0.0753,-0.1558 L 0.0890,-0.1605 L 0.1025,-0.1626 L 0.1153,-0.1622 L 0.1272,-0.1593 L 0.1377,-0.1541 L 0.1467,-0.1470 L 0.1539,-0.1380 L 0.1591,-0.1275 L 0.1621,-0.1157 L 0.1627,-0.1029 L 0.1606,-0.0895 L 0.1560,-0.0758 L 0.1486,-0.0622 L 0.1385,-0.0492 L 0.1259,-0.0371 L 0.1108,-0.0263 L 0.0935,-0.0170 L 0.0741,-0.0096 L 0.0527,-0.0043 L 0.0288,-0.0010 L 0.0000,-0.0000 Z"/>
        <g id="arrows34">
          <use xlink:href="#arrow1" transform="translate(0.1385,-0.1419) rotate(59.29) scale(2.0)"/>
        </g>
      </g>
      <g id="fieldline35">
        <path d="M -0.0000,0.0001 L -0.0010,0.0280 L -0.0041,0.0519 L -0.0094,0.0734 L -0.0168,0.0929 L -0.0259,0.1103 L -0.0367,0.1254 L -0.0487,0.1381 L -0.0618,0.1483 L -0.0753,0.1558 L -0.0890,0.1605 L -0.1025,0.1626 L -0.1153,0.1622 L -0.1272,0.1593 L -0.1377,0.1541 L -0.1467,0.1470 L -0.1539,0.1380 L -0.1591,0.1275 L -0.1621,0.1157 L -0.1627,0.1029 L -0.1606,0.0895 L -0.1560,0.0758 L -0.1486,0.0622 L -0.1385,0.0492 L -0.1259,0.0371 L -0.1108,0.0263 L -0.0935,0.0170 L -0.0741,0.0096 L -0.0527,0.0043 L -0.0288,0.0010 L -0.0000,0.0000 Z"/>
        <g id="arrows35">
          <use xlink:href="#arrow1" transform="translate(-0.1385,0.1419) rotate(-120.71) scale(2.0)"/>
        </g>
      </g>
      <g id="fieldline36">
        <path d="M -0.0000,-0.0001 L -0.0010,-0.0280 L -0.0041,-0.0519 L -0.0094,-0.0734 L -0.0168,-0.0929 L -0.0259,-0.1103 L -0.0367,-0.1254 L -0.0487,-0.1381 L -0.0618,-0.1483 L -0.0753,-0.1558 L -0.0890,-0.1605 L -0.1025,-0.1626 L -0.1153,-0.1622 L -0.1272,-0.1593 L -0.1377,-0.1541 L -0.1467,-0.1470 L -0.1539,-0.1380 L -0.1591,-0.1275 L -0.1621,-0.1157 L -0.1627,-0.1029 L -0.1606,-0.0895 L -0.1560,-0.0758 L -0.1486,-0.0622 L -0.1385,-0.0492 L -0.1259,-0.0371 L -0.1108,-0.0263 L -0.0935,-0.0170 L -0.0741,-0.0096 L -0.0527,-0.0043 L -0.0288,-0.0010 L -0.0000,-0.0000 Z"/>
        <g id="arrows36">
          <use xlink:href="#arrow1" transform="translate(-0.1385,-0.1419) rotate(120.71) scale(2.0)"/>
        </g>
      </g>
      <g id="fieldline37">
        <path d="M 0.0000,-0.0001 L 0.0010,0.0247 L 0.0041,0.0456 L 0.0093,0.0643 L 0.0165,0.0810 L 0.0254,0.0955 L 0.0358,0.1077 L 0.0472,0.1174 L 0.0592,0.1245 L 0.0715,0.1289 L 0.0835,0.1307 L 0.0948,0.1299 L 0.1051,0.1267 L 0.1140,0.1214 L 0.1212,0.1142 L 0.1266,0.1054 L 0.1298,0.0951 L 0.1307,0.0838 L 0.1290,0.0719 L 0.1247,0.0596 L 0.1177,0.0476 L 0.1080,0.0361 L 0.0959,0.0257 L 0.0814,0.0168 L 0.0648,0.0095 L 0.0462,0.0042 L 0.0253,0.0010 L 0.0000,0.0000 Z"/>
        <g id="arrows37"/>
      </g>
      <g id="fieldline38">
        <path d="M 0.0000,0.0001 L 0.0010,-0.0247 L 0.0041,-0.0456 L 0.0093,-0.0643 L 0.0165,-0.0810 L 0.0254,-0.0955 L 0.0358,-0.1077 L 0.0472,-0.1174 L 0.0592,-0.1245 L 0.0715,-0.1289 L 0.0835,-0.1307 L 0.0948,-0.1299 L 0.1051,-0.1267 L 0.1140,-0.1214 L 0.1212,-0.1142 L 0.1266,-0.1054 L 0.1298,-0.0951 L 0.1307,-0.0838 L 0.1290,-0.0719 L 0.1247,-0.0596 L 0.1177,-0.0476 L 0.1080,-0.0361 L 0.0959,-0.0257 L 0.0814,-0.0168 L 0.0648,-0.0095 L 0.0462,-0.0042 L 0.0253,-0.0010 L 0.0000,-0.0000 Z"/>
        <g id="arrows38"/>
      </g>
      <g id="fieldline39">
        <path d="M -0.0000,-0.0001 L -0.0010,0.0247 L -0.0041,0.0456 L -0.0093,0.0643 L -0.0165,0.0810 L -0.0254,0.0955 L -0.0358,0.1077 L -0.0472,0.1174 L -0.0592,0.1245 L -0.0715,0.1289 L -0.0835,0.1307 L -0.0948,0.1299 L -0.1051,0.1267 L -0.1140,0.1214 L -0.1212,0.1142 L -0.1266,0.1054 L -0.1298,0.0951 L -0.1307,0.0838 L -0.1290,0.0719 L -0.1247,0.0596 L -0.1177,0.0476 L -0.1080,0.0361 L -0.0959,0.0257 L -0.0814,0.0168 L -0.0648,0.0095 L -0.0462,0.0042 L -0.0253,0.0010 L -0.0000,0.0000 Z"/>
        <g id="arrows39"/>
      </g>
      <g id="fieldline40">
        <path d="M -0.0000,0.0001 L -0.0010,-0.0247 L -0.0041,-0.0456 L -0.0093,-0.0643 L -0.0165,-0.0810 L -0.0254,-0.0955 L -0.0358,-0.1077 L -0.0472,-0.1174 L -0.0592,-0.1245 L -0.0715,-0.1289 L -0.0835,-0.1307 L -0.0948,-0.1299 L -0.1051,-0.1267 L -0.1140,-0.1214 L -0.1212,-0.1142 L -0.1266,-0.1054 L -0.1298,-0.0951 L -0.1307,-0.0838 L -0.1290,-0.0719 L -0.1247,-0.0596 L -0.1177,-0.0476 L -0.1080,-0.0361 L -0.0959,-0.0257 L -0.0814,-0.0168 L -0.0648,-0.0095 L -0.0462,-0.0042 L -0.0253,-0.0010 L -0.0000,-0.0000 Z"/>
        <g id="arrows40"/>
      </g>
      <g id="fieldline41">
        <path d="M 0.0000,0.0001 L 0.0009,0.0214 L 0.0039,0.0397 L 0.0089,0.0559 L 0.0156,0.0701 L 0.0240,0.0822 L 0.0336,0.0921 L 0.0440,0.0995 L 0.0548,0.1043 L 0.0655,0.1066 L 0.0756,0.1065 L 0.0849,0.1040 L 0.0929,0.0995 L 0.0993,0.0931 L 0.1039,0.0852 L 0.1064,0.0760 L 0.1067,0.0659 L 0.1044,0.0552 L 0.0997,0.0444 L 0.0924,0.0339 L 0.0826,0.0243 L 0.0705,0.0159 L 0.0564,0.0091 L 0.0403,0.0040 L 0.0221,0.0010 L 0.0000,0.0000 Z"/>
        <g id="arrows41"/>
      </g>
      <g id="fieldline42">
        <path d="M 0.0000,-0.0001 L 0.0009,-0.0214 L 0.0039,-0.0397 L 0.0089,-0.0559 L 0.0156,-0.0701 L 0.0240,-0.0822 L 0.0336,-0.0921 L 0.0440,-0.0995 L 0.0548,-0.1043 L 0.0655,-0.1066 L 0.0756,-0.1065 L 0.0849,-0.1040 L 0.0929,-0.0995 L 0.0993,-0.0931 L 0.1039,-0.0852 L 0.1064,-0.0760 L 0.1067,-0.0659 L 0.1044,-0.0552 L 0.0997,-0.0444 L 0.0924,-0.0339 L 0.0826,-0.0243 L 0.0705,-0.0159 L 0.0564,-0.0091 L 0.0403,-0.0040 L 0.0221,-0.0010 L 0.0000,-0.0000 Z"/>
        <g id="arrows42"/>
      </g>
      <g id="fieldline43">
        <path d="M -0.0000,0.0001 L -0.0009,0.0214 L -0.0039,0.0397 L -0.0089,0.0559 L -0.0156,0.0701 L -0.0240,0.0822 L -0.0336,0.0921 L -0.0440,0.0995 L -0.0548,0.1043 L -0.0655,0.1066 L -0.0756,0.1065 L -0.0849,0.1040 L -0.0929,0.0995 L -0.0993,0.0931 L -0.1039,0.0852 L -0.1064,0.0760 L -0.1067,0.0659 L -0.1044,0.0552 L -0.0997,0.0444 L -0.0924,0.0339 L -0.0826,0.0243 L -0.0705,0.0159 L -0.0564,0.0091 L -0.0403,0.0040 L -0.0221,0.0010 L -0.0000,0.0000 Z"/>
        <g id="arrows43"/>
      </g>
      <g id="fieldline44">
        <path d="M -0.0000,-0.0001 L -0.0009,-0.0214 L -0.0039,-0.0397 L -0.0089,-0.0559 L -0.0156,-0.0701 L -0.0240,-0.0822 L -0.0336,-0.0921 L -0.0440,-0.0995 L -0.0548,-0.1043 L -0.0655,-0.1066 L -0.0756,-0.1065 L -0.0849,-0.1040 L -0.0929,-0.0995 L -0.0993,-0.0931 L -0.1039,-0.0852 L -0.1064,-0.0760 L -0.1067,-0.0659 L -0.1044,-0.0552 L -0.0997,-0.0444 L -0.0924,-0.0339 L -0.0826,-0.0243 L -0.0705,-0.0159 L -0.0564,-0.0091 L -0.0403,-0.0040 L -0.0221,-0.0010 L -0.0000,-0.0000 Z"/>
        <g id="arrows44"/>
      </g>
      <g id="fieldline45">
        <path d="M 0.0000,-0.0001 L 0.0009,0.0191 L 0.0038,0.0353 L 0.0087,0.0495 L 0.0152,0.0618 L 0.0232,0.0720 L 0.0323,0.0798 L 0.0419,0.0852 L 0.0516,0.0881 L 0.0610,0.0885 L 0.0695,0.0867 L 0.0768,0.0828 L 0.0826,0.0770 L 0.0866,0.0698 L 0.0885,0.0613 L 0.0882,0.0520 L 0.0854,0.0423 L 0.0801,0.0326 L 0.0723,0.0235 L 0.0622,0.0155 L 0.0500,0.0089 L 0.0359,0.0040 L 0.0197,0.0010 L 0.0000,0.0000 Z"/>
        <g id="arrows45"/>
      </g>
      <g id="fieldline46">
        <path d="M 0.0000,0.0001 L 0.0009,-0.0191 L 0.0038,-0.0353 L 0.0087,-0.0495 L 0.0152,-0.0618 L 0.0232,-0.0720 L 0.0323,-0.0798 L 0.0419,-0.0852 L 0.0516,-0.0881 L 0.0610,-0.0885 L 0.0695,-0.0867 L 0.0768,-0.0828 L 0.0826,-0.0770 L 0.0866,-0.0698 L 0.0885,-0.0613 L 0.0882,-0.0520 L 0.0854,-0.0423 L 0.0801,-0.0326 L 0.0723,-0.0235 L 0.0622,-0.0155 L 0.0500,-0.0089 L 0.0359,-0.0040 L 0.0197,-0.0010 L 0.0000,-0.0000 Z"/>
        <g id="arrows46"/>
      </g>
      <g id="fieldline47">
        <path d="M -0.0000,-0.0001 L -0.0009,0.0191 L -0.0038,0.0353 L -0.0087,0.0495 L -0.0152,0.0618 L -0.0232,0.0720 L -0.0323,0.0798 L -0.0419,0.0852 L -0.0516,0.0881 L -0.0610,0.0885 L -0.0695,0.0867 L -0.0768,0.0828 L -0.0826,0.0770 L -0.0866,0.0698 L -0.0885,0.0613 L -0.0882,0.0520 L -0.0854,0.0423 L -0.0801,0.0326 L -0.0723,0.0235 L -0.0622,0.0155 L -0.0500,0.0089 L -0.0359,0.0040 L -0.0197,0.0010 L -0.0000,0.0000 Z"/>
        <g id="arrows47"/>
      </g>
      <g id="fieldline48">
        <path d="M -0.0000,0.0001 L -0.0009,-0.0191 L -0.0038,-0.0353 L -0.0087,-0.0495 L -0.0152,-0.0618 L -0.0232,-0.0720 L -0.0323,-0.0798 L -0.0419,-0.0852 L -0.0516,-0.0881 L -0.0610,-0.0885 L -0.0695,-0.0867 L -0.0768,-0.0828 L -0.0826,-0.0770 L -0.0866,-0.0698 L -0.0885,-0.0613 L -0.0882,-0.0520 L -0.0854,-0.0423 L -0.0801,-0.0326 L -0.0723,-0.0235 L -0.0622,-0.0155 L -0.0500,-0.0089 L -0.0359,-0.0040 L -0.0197,-0.0010 L -0.0000,-0.0000 Z"/>
        <g id="arrows48"/>
      </g>
    </g>
  </g>
</svg>
