<?xml version='1.0' encoding='utf8'?>
<svg xmlns:xlink="http://www.w3.org/1999/xlink" xmlns="http://www.w3.org/2000/svg" version="1.1" baseProfile="full" width="600" height="600">
  <title>VFPt_four_charges</title>
  <desc>VFPt_four_charges
created with VectorFieldPlot 1.0
http://commons.wikimedia.org/wiki/User:Geek3/VectorFieldPlot

about: http://commons.wikimedia.org/wiki/File:VFPt_four_charges.svg
rights: GNU Free Documentation license,
        Creative Commons Attribution ShareAlike license
  </desc>
  <defs>
    <radialGradient id="white_spot" cx="0.65" cy="0.7" r="0.75">
      <stop stop-color="#ffffff" offset="0" stop-opacity="0.7"/>
      <stop stop-color="#ffffff" offset="0.1" stop-opacity="0.5"/>
      <stop stop-color="#ffffff" offset="0.6" stop-opacity="0"/>
      <stop stop-color="#000000" offset="0.6" stop-opacity="0"/>
      <stop stop-color="#000000" offset="0.75" stop-opacity="0.05"/>
      <stop stop-color="#000000" offset="0.85" stop-opacity="0.15"/>
      <stop stop-color="#000000" offset="1" stop-opacity="0.5"/>
    </radialGradient>
    <path id="arrow1" stroke="none" fill="#000000" transform="scale(0.01)" d="M 0.3,0 L -2.2,2.25 L 3.8,0 L -2.2,-2.25 L 0.3,0 Z"/>
  </defs>
  <rect id="background" x="0" y="0" width="600" height="600" fill="#ffffff"/>
  <g id="image" transform="translate(300.0,300.0) scale(100.0,-100.0)">
    <g id="fieldlines" fill="none" stroke="#000000" stroke-width="0.02" stroke-linejoin="round" stroke-linecap="round">
      <g id="fieldline1">
        <path d="M 0.0000,1.0000 L 0.0787,0.5842 L 0.0966,0.5011 L 0.1117,0.4415 L 0.1260,0.3942 L 0.1404,0.3549 L 0.1551,0.3214 L 0.1705,0.2923 L 0.1867,0.2667 L 0.2042,0.2438 L 0.2230,0.2231 L 0.2437,0.2043 L 0.2666,0.1868 L 0.2922,0.1705 L 0.3212,0.1551 L 0.3547,0.1404 L 0.3941,0.1261 L 0.4414,0.1117 L 0.5010,0.0966 L 0.5842,0.0787 L 1.0000,0.0000"/>
        <g id="arrows1">
          <use xlink:href="#arrow1" transform="translate(0.2244,0.2245) rotate(-42.47) scale(2.0)"/>
        </g>
      </g>
      <g id="fieldline2">
        <path d="M 0.0000,1.0000 L -0.0787,0.5842 L -0.0966,0.5010 L -0.1117,0.4414 L -0.1261,0.3941 L -0.1404,0.3547 L -0.1551,0.3212 L -0.1705,0.2922 L -0.1868,0.2666 L -0.2043,0.2437 L -0.2231,0.2230 L -0.2438,0.2042 L -0.2667,0.1867 L -0.2923,0.1705 L -0.3214,0.1551 L -0.3549,0.1404 L -0.3942,0.1260 L -0.4415,0.1117 L -0.5011,0.0966 L -0.5842,0.0787 L -1.0000,0.0000"/>
        <g id="arrows2">
          <use xlink:href="#arrow1" transform="translate(-0.2244,0.2245) rotate(-137.53) scale(2.0)"/>
        </g>
      </g>
      <g id="fieldline3">
        <path d="M 0.0000,-1.0000 L -0.0787,-0.5842 L -0.0966,-0.5011 L -0.1117,-0.4415 L -0.1260,-0.3942 L -0.1404,-0.3549 L -0.1551,-0.3214 L -0.1705,-0.2923 L -0.1867,-0.2667 L -0.2042,-0.2438 L -0.2230,-0.2231 L -0.2437,-0.2043 L -0.2666,-0.1868 L -0.2922,-0.1705 L -0.3212,-0.1551 L -0.3547,-0.1404 L -0.3941,-0.1261 L -0.4414,-0.1117 L -0.5010,-0.0966 L -0.5842,-0.0787 L -1.0000,0.0000"/>
        <g id="arrows3">
          <use xlink:href="#arrow1" transform="translate(-0.2244,-0.2245) rotate(137.53) scale(2.0)"/>
        </g>
      </g>
      <g id="fieldline4">
        <path d="M 0.0000,-1.0000 L 0.0787,-0.5842 L 0.0966,-0.5010 L 0.1117,-0.4414 L 0.1261,-0.3941 L 0.1404,-0.3547 L 0.1551,-0.3212 L 0.1705,-0.2922 L 0.1868,-0.2666 L 0.2043,-0.2437 L 0.2231,-0.2230 L 0.2438,-0.2042 L 0.2667,-0.1867 L 0.2923,-0.1705 L 0.3214,-0.1551 L 0.3549,-0.1404 L 0.3942,-0.1260 L 0.4415,-0.1117 L 0.5011,-0.0966 L 0.5842,-0.0787 L 1.0000,0.0000"/>
        <g id="arrows4">
          <use xlink:href="#arrow1" transform="translate(0.2244,-0.2245) rotate(42.47) scale(2.0)"/>
        </g>
      </g>
      <g id="fieldline5">
        <path d="M 0.0000,1.0000 L 0.1083,0.8254 L 0.2288,0.6276 L 0.2707,0.5626 L 0.3053,0.5132 L 0.3374,0.4714 L 0.3688,0.4345 L 0.4007,0.4008 L 0.4345,0.3688 L 0.4714,0.3374 L 0.5132,0.3053 L 0.5626,0.2708 L 0.6275,0.2288 L 0.8254,0.1083 L 1.0000,0.0000"/>
        <g id="arrows5">
          <use xlink:href="#arrow1" transform="translate(0.4014,0.4014) rotate(-44.28) scale(2.0)"/>
        </g>
      </g>
      <g id="fieldline6">
        <path d="M 0.0000,1.0000 L -0.1083,0.8254 L -0.2288,0.6275 L -0.2708,0.5626 L -0.3053,0.5132 L -0.3374,0.4714 L -0.3688,0.4345 L -0.4008,0.4007 L -0.4345,0.3688 L -0.4714,0.3374 L -0.5132,0.3053 L -0.5626,0.2707 L -0.6276,0.2288 L -0.8254,0.1083 L -1.0000,0.0000"/>
        <g id="arrows6">
          <use xlink:href="#arrow1" transform="translate(-0.4014,0.4014) rotate(-135.72) scale(2.0)"/>
        </g>
      </g>
      <g id="fieldline7">
        <path d="M 0.0000,-1.0000 L -0.1083,-0.8254 L -0.2288,-0.6276 L -0.2707,-0.5626 L -0.3053,-0.5132 L -0.3374,-0.4714 L -0.3688,-0.4345 L -0.4007,-0.4008 L -0.4345,-0.3688 L -0.4714,-0.3374 L -0.5132,-0.3053 L -0.5626,-0.2708 L -0.6275,-0.2288 L -0.8254,-0.1083 L -1.0000,0.0000"/>
        <g id="arrows7">
          <use xlink:href="#arrow1" transform="translate(-0.4014,-0.4014) rotate(135.72) scale(2.0)"/>
        </g>
      </g>
      <g id="fieldline8">
        <path d="M 0.0000,-1.0000 L 0.1083,-0.8254 L 0.2288,-0.6275 L 0.2708,-0.5626 L 0.3053,-0.5132 L 0.3374,-0.4714 L 0.3688,-0.4345 L 0.4008,-0.4007 L 0.4345,-0.3688 L 0.4714,-0.3374 L 0.5132,-0.3053 L 0.5626,-0.2707 L 0.6276,-0.2288 L 0.8254,-0.1083 L 1.0000,0.0000"/>
        <g id="arrows8">
          <use xlink:href="#arrow1" transform="translate(0.4014,-0.4014) rotate(44.28) scale(2.0)"/>
        </g>
      </g>
      <g id="fieldline9">
        <path d="M 0.0000,1.0000 L 0.1312,0.9008 L 0.2173,0.8331 L 0.2933,0.7705 L 0.3651,0.7084 L 0.4357,0.6442 L 0.5065,0.5767 L 0.5767,0.5066 L 0.6442,0.4358 L 0.7084,0.3651 L 0.7705,0.2933 L 0.8331,0.2173 L 0.9008,0.1312 L 1.0000,0.0000"/>
        <g id="arrows9">
          <use xlink:href="#arrow1" transform="translate(0.5416,0.5416) rotate(-45.00) scale(2.0)"/>
        </g>
      </g>
      <g id="fieldline10">
        <path d="M 0.0000,1.0000 L -0.1312,0.9008 L -0.2173,0.8331 L -0.2933,0.7705 L -0.3651,0.7084 L -0.4358,0.6442 L -0.5066,0.5767 L -0.5767,0.5065 L -0.6442,0.4357 L -0.7084,0.3651 L -0.7705,0.2933 L -0.8331,0.2173 L -0.9008,0.1312 L -1.0000,0.0000"/>
        <g id="arrows10">
          <use xlink:href="#arrow1" transform="translate(-0.5416,0.5416) rotate(-135.00) scale(2.0)"/>
        </g>
      </g>
      <g id="fieldline11">
        <path d="M 0.0000,-1.0000 L -0.1312,-0.9008 L -0.2173,-0.8331 L -0.2933,-0.7705 L -0.3651,-0.7084 L -0.4357,-0.6442 L -0.5065,-0.5767 L -0.5767,-0.5066 L -0.6442,-0.4358 L -0.7084,-0.3651 L -0.7705,-0.2933 L -0.8331,-0.2173 L -0.9008,-0.1312 L -1.0000,0.0000"/>
        <g id="arrows11">
          <use xlink:href="#arrow1" transform="translate(-0.5416,-0.5416) rotate(135.00) scale(2.0)"/>
        </g>
      </g>
      <g id="fieldline12">
        <path d="M 0.0000,-1.0000 L 0.1312,-0.9008 L 0.2173,-0.8331 L 0.2933,-0.7705 L 0.3651,-0.7084 L 0.4358,-0.6442 L 0.5066,-0.5767 L 0.5767,-0.5065 L 0.6442,-0.4357 L 0.7084,-0.3651 L 0.7705,-0.2933 L 0.8331,-0.2173 L 0.9008,-0.1312 L 1.0000,0.0000"/>
        <g id="arrows12">
          <use xlink:href="#arrow1" transform="translate(0.5416,-0.5416) rotate(45.00) scale(2.0)"/>
        </g>
      </g>
      <g id="fieldline13">
        <path d="M 0.0000,1.0000 L 0.1459,0.9589 L 0.2347,0.9318 L 0.3060,0.9078 L 0.3672,0.8849 L 0.4209,0.8624 L 0.4690,0.8397 L 0.5127,0.8166 L 0.5527,0.7928 L 0.5896,0.7681 L 0.6241,0.7423 L 0.6562,0.7153 L 0.6865,0.6867 L 0.7150,0.6565 L 0.7421,0.6243 L 0.7679,0.5899 L 0.7926,0.5529 L 0.8164,0.5129 L 0.8395,0.4693 L 0.8622,0.4213 L 0.8848,0.3676 L 0.9077,0.3065 L 0.9318,0.2347 L 0.9589,0.1459 L 1.0000,0.0000"/>
        <g id="arrows13">
          <use xlink:href="#arrow1" transform="translate(0.6858,0.6859) rotate(-45.99) scale(2.0)"/>
        </g>
      </g>
      <g id="fieldline14">
        <path d="M 0.0000,1.0000 L -0.1459,0.9589 L -0.2347,0.9318 L -0.3065,0.9077 L -0.3676,0.8848 L -0.4213,0.8622 L -0.4693,0.8395 L -0.5129,0.8164 L -0.5529,0.7926 L -0.5899,0.7679 L -0.6243,0.7421 L -0.6565,0.7150 L -0.6867,0.6865 L -0.7153,0.6562 L -0.7423,0.6241 L -0.7681,0.5896 L -0.7928,0.5527 L -0.8166,0.5127 L -0.8397,0.4690 L -0.8624,0.4209 L -0.8849,0.3672 L -0.9078,0.3060 L -0.9318,0.2347 L -0.9589,0.1459 L -1.0000,0.0000"/>
        <g id="arrows14">
          <use xlink:href="#arrow1" transform="translate(-0.6859,0.6859) rotate(-134.01) scale(2.0)"/>
        </g>
      </g>
      <g id="fieldline15">
        <path d="M 0.0000,-1.0000 L -0.1459,-0.9589 L -0.2347,-0.9318 L -0.3060,-0.9078 L -0.3672,-0.8849 L -0.4209,-0.8624 L -0.4690,-0.8397 L -0.5127,-0.8166 L -0.5527,-0.7928 L -0.5896,-0.7681 L -0.6241,-0.7423 L -0.6562,-0.7153 L -0.6865,-0.6867 L -0.7150,-0.6565 L -0.7421,-0.6243 L -0.7679,-0.5899 L -0.7926,-0.5529 L -0.8164,-0.5129 L -0.8395,-0.4693 L -0.8622,-0.4213 L -0.8848,-0.3676 L -0.9077,-0.3065 L -0.9318,-0.2347 L -0.9589,-0.1459 L -1.0000,0.0000"/>
        <g id="arrows15">
          <use xlink:href="#arrow1" transform="translate(-0.6858,-0.6859) rotate(134.01) scale(2.0)"/>
        </g>
      </g>
      <g id="fieldline16">
        <path d="M 0.0000,-1.0000 L 0.1459,-0.9589 L 0.2347,-0.9318 L 0.3065,-0.9077 L 0.3676,-0.8848 L 0.4213,-0.8622 L 0.4693,-0.8395 L 0.5129,-0.8164 L 0.5529,-0.7926 L 0.5899,-0.7679 L 0.6243,-0.7421 L 0.6565,-0.7150 L 0.6867,-0.6865 L 0.7153,-0.6562 L 0.7423,-0.6241 L 0.7681,-0.5896 L 0.7928,-0.5527 L 0.8166,-0.5127 L 0.8397,-0.4690 L 0.8624,-0.4209 L 0.8849,-0.3672 L 0.9078,-0.3060 L 0.9318,-0.2347 L 0.9589,-0.1459 L 1.0000,0.0000"/>
        <g id="arrows16">
          <use xlink:href="#arrow1" transform="translate(0.6859,-0.6859) rotate(45.99) scale(2.0)"/>
        </g>
      </g>
      <g id="fieldline17">
        <path d="M 0.0000,1.0000 L 0.1481,1.0167 L 0.2375,1.0248 L 0.3098,1.0291 L 0.3728,1.0305 L 0.4291,1.0295 L 0.4805,1.0263 L 0.5279,1.0210 L 0.5720,1.0136 L 0.6132,1.0044 L 0.6520,0.9932 L 0.6884,0.9803 L 0.7228,0.9655 L 0.7551,0.9490 L 0.7855,0.9308 L 0.8141,0.9109 L 0.8409,0.8893 L 0.8659,0.8659 L 0.8893,0.8408 L 0.9109,0.8141 L 0.9309,0.7855 L 0.9490,0.7551 L 0.9655,0.7227 L 0.9803,0.6884 L 0.9932,0.6520 L 1.0044,0.6132 L 1.0136,0.5719 L 1.0210,0.5278 L 1.0263,0.4804 L 1.0295,0.4291 L 1.0305,0.3728 L 1.0291,0.3098 L 1.0248,0.2375 L 1.0167,0.1481 L 1.0000,0.0000"/>
        <g id="arrows17">
          <use xlink:href="#arrow1" transform="translate(0.8649,0.8650) rotate(-46.65) scale(2.0)"/>
        </g>
      </g>
      <g id="fieldline18">
        <path d="M 0.0000,1.0000 L -0.1481,1.0167 L -0.2375,1.0248 L -0.3098,1.0291 L -0.3728,1.0305 L -0.4291,1.0295 L -0.4804,1.0263 L -0.5278,1.0210 L -0.5719,1.0136 L -0.6132,1.0044 L -0.6520,0.9932 L -0.6884,0.9803 L -0.7227,0.9655 L -0.7551,0.9490 L -0.7855,0.9309 L -0.8141,0.9109 L -0.8408,0.8893 L -0.8659,0.8659 L -0.8893,0.8409 L -0.9109,0.8141 L -0.9308,0.7855 L -0.9490,0.7551 L -0.9655,0.7228 L -0.9803,0.6884 L -0.9932,0.6520 L -1.0044,0.6132 L -1.0136,0.5720 L -1.0210,0.5279 L -1.0263,0.4805 L -1.0295,0.4291 L -1.0305,0.3728 L -1.0291,0.3098 L -1.0248,0.2375 L -1.0167,0.1481 L -1.0000,0.0000"/>
        <g id="arrows18">
          <use xlink:href="#arrow1" transform="translate(-0.8649,0.8650) rotate(-133.35) scale(2.0)"/>
        </g>
      </g>
      <g id="fieldline19">
        <path d="M 0.0000,-1.0000 L -0.1481,-1.0167 L -0.2375,-1.0248 L -0.3098,-1.0291 L -0.3728,-1.0305 L -0.4291,-1.0295 L -0.4805,-1.0263 L -0.5279,-1.0210 L -0.5720,-1.0136 L -0.6132,-1.0044 L -0.6520,-0.9932 L -0.6884,-0.9803 L -0.7228,-0.9655 L -0.7551,-0.9490 L -0.7855,-0.9308 L -0.8141,-0.9109 L -0.8409,-0.8893 L -0.8659,-0.8659 L -0.8893,-0.8408 L -0.9109,-0.8141 L -0.9309,-0.7855 L -0.9490,-0.7551 L -0.9655,-0.7227 L -0.9803,-0.6884 L -0.9932,-0.6520 L -1.0044,-0.6132 L -1.0136,-0.5719 L -1.0210,-0.5278 L -1.0263,-0.4804 L -1.0295,-0.4291 L -1.0305,-0.3728 L -1.0291,-0.3098 L -1.0248,-0.2375 L -1.0167,-0.1481 L -1.0000,0.0000"/>
        <g id="arrows19">
          <use xlink:href="#arrow1" transform="translate(-0.8649,-0.8650) rotate(133.35) scale(2.0)"/>
        </g>
      </g>
      <g id="fieldline20">
        <path d="M 0.0000,-1.0000 L 0.1481,-1.0167 L 0.2375,-1.0248 L 0.3098,-1.0291 L 0.3728,-1.0305 L 0.4291,-1.0295 L 0.4804,-1.0263 L 0.5278,-1.0210 L 0.5719,-1.0136 L 0.6132,-1.0044 L 0.6520,-0.9932 L 0.6884,-0.9803 L 0.7227,-0.9655 L 0.7551,-0.9490 L 0.7855,-0.9309 L 0.8141,-0.9109 L 0.8408,-0.8893 L 0.8659,-0.8659 L 0.8893,-0.8409 L 0.9109,-0.8141 L 0.9308,-0.7855 L 0.9490,-0.7551 L 0.9655,-0.7228 L 0.9803,-0.6884 L 0.9932,-0.6520 L 1.0044,-0.6132 L 1.0136,-0.5720 L 1.0210,-0.5279 L 1.0263,-0.4805 L 1.0295,-0.4291 L 1.0305,-0.3728 L 1.0291,-0.3098 L 1.0248,-0.2375 L 1.0167,-0.1481 L 1.0000,0.0000"/>
        <g id="arrows20">
          <use xlink:href="#arrow1" transform="translate(0.8649,-0.8650) rotate(46.65) scale(2.0)"/>
        </g>
      </g>
      <g id="fieldline21">
        <path d="M 0.0000,1.0000 L 0.1367,1.0774 L 0.2207,1.1226 L 0.2912,1.1578 L 0.3541,1.1866 L 0.4122,1.2105 L 0.4668,1.2303 L 0.5188,1.2466 L 0.5685,1.2595 L 0.6164,1.2695 L 0.6626,1.2765 L 0.7072,1.2808 L 0.7503,1.2824 L 0.7920,1.2815 L 0.8321,1.2782 L 0.8708,1.2724 L 0.9081,1.2643 L 0.9438,1.2540 L 0.9780,1.2416 L 1.0106,1.2270 L 1.0416,1.2104 L 1.0710,1.1918 L 1.0987,1.1713 L 1.1247,1.1489 L 1.1489,1.1247 L 1.1713,1.0987 L 1.1918,1.0710 L 1.2104,1.0416 L 1.2270,1.0106 L 1.2416,0.9780 L 1.2540,0.9438 L 1.2643,0.9081 L 1.2724,0.8708 L 1.2782,0.8321 L 1.2815,0.7920 L 1.2824,0.7503 L 1.2808,0.7072 L 1.2765,0.6626 L 1.2695,0.6164 L 1.2595,0.5686 L 1.2466,0.5188 L 1.2303,0.4668 L 1.2105,0.4122 L 1.1866,0.3541 L 1.1578,0.2912 L 1.1226,0.2207 L 1.0774,0.1367 L 1.0000,0.0000"/>
        <g id="arrows21">
          <use xlink:href="#arrow1" transform="translate(0.5593,1.2565) rotate(13.00) scale(2.0)"/>
          <use xlink:href="#arrow1" transform="translate(1.2566,0.5593) rotate(-104.41) scale(2.0)"/>
        </g>
      </g>
      <g id="fieldline22">
        <path d="M 0.0000,1.0000 L -0.1367,1.0774 L -0.2207,1.1226 L -0.2912,1.1578 L -0.3541,1.1866 L -0.4122,1.2105 L -0.4668,1.2303 L -0.5188,1.2466 L -0.5686,1.2595 L -0.6164,1.2695 L -0.6626,1.2765 L -0.7072,1.2808 L -0.7503,1.2824 L -0.7920,1.2815 L -0.8321,1.2782 L -0.8708,1.2724 L -0.9081,1.2643 L -0.9438,1.2540 L -0.9780,1.2416 L -1.0106,1.2270 L -1.0416,1.2104 L -1.0710,1.1918 L -1.0987,1.1713 L -1.1247,1.1489 L -1.1489,1.1247 L -1.1713,1.0987 L -1.1918,1.0710 L -1.2104,1.0416 L -1.2270,1.0106 L -1.2416,0.9780 L -1.2540,0.9438 L -1.2643,0.9081 L -1.2724,0.8708 L -1.2782,0.8321 L -1.2815,0.7920 L -1.2824,0.7503 L -1.2808,0.7072 L -1.2765,0.6626 L -1.2695,0.6164 L -1.2595,0.5685 L -1.2466,0.5188 L -1.2303,0.4668 L -1.2105,0.4122 L -1.1866,0.3541 L -1.1578,0.2912 L -1.1226,0.2207 L -1.0774,0.1367 L -1.0000,0.0000"/>
        <g id="arrows22">
          <use xlink:href="#arrow1" transform="translate(-0.5593,1.2565) rotate(167.00) scale(2.0)"/>
          <use xlink:href="#arrow1" transform="translate(-1.2566,0.5593) rotate(-75.59) scale(2.0)"/>
        </g>
      </g>
      <g id="fieldline23">
        <path d="M 0.0000,-1.0000 L -0.1367,-1.0774 L -0.2207,-1.1226 L -0.2912,-1.1578 L -0.3541,-1.1866 L -0.4122,-1.2105 L -0.4668,-1.2303 L -0.5188,-1.2466 L -0.5685,-1.2595 L -0.6164,-1.2695 L -0.6626,-1.2765 L -0.7072,-1.2808 L -0.7503,-1.2824 L -0.7920,-1.2815 L -0.8321,-1.2782 L -0.8708,-1.2724 L -0.9081,-1.2643 L -0.9438,-1.2540 L -0.9780,-1.2416 L -1.0106,-1.2270 L -1.0416,-1.2104 L -1.0710,-1.1918 L -1.0987,-1.1713 L -1.1247,-1.1489 L -1.1489,-1.1247 L -1.1713,-1.0987 L -1.1918,-1.0710 L -1.2104,-1.0416 L -1.2270,-1.0106 L -1.2416,-0.9780 L -1.2540,-0.9438 L -1.2643,-0.9081 L -1.2724,-0.8708 L -1.2782,-0.8321 L -1.2815,-0.7920 L -1.2824,-0.7503 L -1.2808,-0.7072 L -1.2765,-0.6626 L -1.2695,-0.6164 L -1.2595,-0.5686 L -1.2466,-0.5188 L -1.2303,-0.4668 L -1.2105,-0.4122 L -1.1866,-0.3541 L -1.1578,-0.2912 L -1.1226,-0.2207 L -1.0774,-0.1367 L -1.0000,0.0000"/>
        <g id="arrows23">
          <use xlink:href="#arrow1" transform="translate(-0.5593,-1.2565) rotate(-167.00) scale(2.0)"/>
          <use xlink:href="#arrow1" transform="translate(-1.2566,-0.5593) rotate(75.59) scale(2.0)"/>
        </g>
      </g>
      <g id="fieldline24">
        <path d="M 0.0000,-1.0000 L 0.1367,-1.0774 L 0.2207,-1.1226 L 0.2912,-1.1578 L 0.3541,-1.1866 L 0.4122,-1.2105 L 0.4668,-1.2303 L 0.5188,-1.2466 L 0.5686,-1.2595 L 0.6164,-1.2695 L 0.6626,-1.2765 L 0.7072,-1.2808 L 0.7503,-1.2824 L 0.7920,-1.2815 L 0.8321,-1.2782 L 0.8708,-1.2724 L 0.9081,-1.2643 L 0.9438,-1.2540 L 0.9780,-1.2416 L 1.0106,-1.2270 L 1.0416,-1.2104 L 1.0710,-1.1918 L 1.0987,-1.1713 L 1.1247,-1.1489 L 1.1489,-1.1247 L 1.1713,-1.0987 L 1.1918,-1.0710 L 1.2104,-1.0416 L 1.2270,-1.0106 L 1.2416,-0.9780 L 1.2540,-0.9438 L 1.2643,-0.9081 L 1.2724,-0.8708 L 1.2782,-0.8321 L 1.2815,-0.7920 L 1.2824,-0.7503 L 1.2808,-0.7072 L 1.2765,-0.6626 L 1.2695,-0.6164 L 1.2595,-0.5685 L 1.2466,-0.5188 L 1.2303,-0.4668 L 1.2105,-0.4122 L 1.1866,-0.3541 L 1.1578,-0.2912 L 1.1226,-0.2207 L 1.0774,-0.1367 L 1.0000,0.0000"/>
        <g id="arrows24">
          <use xlink:href="#arrow1" transform="translate(0.5593,-1.2565) rotate(-13.00) scale(2.0)"/>
          <use xlink:href="#arrow1" transform="translate(1.2566,-0.5593) rotate(104.41) scale(2.0)"/>
        </g>
      </g>
      <g id="fieldline25">
        <path d="M 0.0000,1.0000 L 0.1061,1.1427 L 0.1737,1.2300 L 0.2326,1.3024 L 0.2874,1.3658 L 0.3400,1.4230 L 0.3913,1.4752 L 0.4419,1.5231 L 0.4921,1.5672 L 0.5420,1.6078 L 0.5917,1.6451 L 0.6414,1.6792 L 0.6910,1.7103 L 0.7406,1.7384 L 0.7900,1.7635 L 0.8392,1.7858 L 0.8882,1.8052 L 0.9368,1.8219 L 0.9851,1.8357 L 1.0329,1.8469 L 1.0801,1.8554 L 1.1267,1.8612 L 1.1726,1.8644 L 1.2176,1.8650 L 1.2618,1.8632 L 1.3049,1.8589 L 1.3470,1.8522 L 1.3880,1.8431 L 1.4277,1.8318 L 1.4661,1.8182 L 1.5032,1.8025 L 1.5389,1.7846 L 1.5730,1.7647 L 1.6056,1.7428 L 1.6365,1.7190 L 1.6658,1.6933 L 1.6933,1.6658 L 1.7190,1.6365 L 1.7428,1.6056 L 1.7647,1.5730 L 1.7846,1.5389 L 1.8025,1.5032 L 1.8182,1.4661 L 1.8318,1.4277 L 1.8431,1.3880 L 1.8522,1.3470 L 1.8589,1.3049 L 1.8632,1.2618 L 1.8650,1.2176 L 1.8644,1.1726 L 1.8612,1.1267 L 1.8554,1.0801 L 1.8469,1.0329 L 1.8357,0.9851 L 1.8219,0.9368 L 1.8052,0.8882 L 1.7858,0.8392 L 1.7635,0.7900 L 1.7384,0.7406 L 1.7103,0.6910 L 1.6792,0.6414 L 1.6451,0.5917 L 1.6078,0.5420 L 1.5672,0.4921 L 1.5231,0.4419 L 1.4752,0.3913 L 1.4230,0.3400 L 1.3658,0.2874 L 1.3024,0.2326 L 1.2300,0.1737 L 1.1427,0.1061 L 1.0000,0.0000"/>
        <g id="arrows25">
          <use xlink:href="#arrow1" transform="translate(0.4439,1.5242) rotate(41.91) scale(2.0)"/>
          <use xlink:href="#arrow1" transform="translate(1.6790,1.6791) rotate(-46.44) scale(2.0)"/>
          <use xlink:href="#arrow1" transform="translate(1.5241,0.4439) rotate(-132.73) scale(2.0)"/>
        </g>
      </g>
      <g id="fieldline26">
        <path d="M 0.0000,1.0000 L -0.1061,1.1427 L -0.1737,1.2300 L -0.2326,1.3024 L -0.2874,1.3658 L -0.3400,1.4230 L -0.3913,1.4752 L -0.4419,1.5231 L -0.4921,1.5672 L -0.5420,1.6078 L -0.5917,1.6451 L -0.6414,1.6792 L -0.6910,1.7103 L -0.7406,1.7384 L -0.7900,1.7635 L -0.8392,1.7858 L -0.8882,1.8052 L -0.9368,1.8219 L -0.9851,1.8357 L -1.0329,1.8469 L -1.0801,1.8554 L -1.1267,1.8612 L -1.1726,1.8644 L -1.2176,1.8650 L -1.2618,1.8632 L -1.3049,1.8589 L -1.3470,1.8522 L -1.3880,1.8431 L -1.4277,1.8318 L -1.4661,1.8182 L -1.5032,1.8025 L -1.5389,1.7846 L -1.5730,1.7647 L -1.6056,1.7428 L -1.6365,1.7190 L -1.6658,1.6933 L -1.6933,1.6658 L -1.7190,1.6365 L -1.7428,1.6056 L -1.7647,1.5730 L -1.7846,1.5389 L -1.8025,1.5032 L -1.8182,1.4661 L -1.8318,1.4277 L -1.8431,1.3880 L -1.8522,1.3470 L -1.8589,1.3049 L -1.8632,1.2618 L -1.8650,1.2176 L -1.8644,1.1726 L -1.8612,1.1267 L -1.8554,1.0801 L -1.8469,1.0329 L -1.8357,0.9851 L -1.8219,0.9368 L -1.8052,0.8882 L -1.7858,0.8392 L -1.7635,0.7900 L -1.7384,0.7406 L -1.7103,0.6910 L -1.6792,0.6414 L -1.6451,0.5917 L -1.6078,0.5420 L -1.5672,0.4921 L -1.5231,0.4419 L -1.4752,0.3913 L -1.4230,0.3400 L -1.3658,0.2874 L -1.3024,0.2326 L -1.2300,0.1737 L -1.1427,0.1061 L -1.0000,0.0000"/>
        <g id="arrows26">
          <use xlink:href="#arrow1" transform="translate(-0.4439,1.5242) rotate(138.09) scale(2.0)"/>
          <use xlink:href="#arrow1" transform="translate(-1.6790,1.6791) rotate(-133.56) scale(2.0)"/>
          <use xlink:href="#arrow1" transform="translate(-1.5241,0.4439) rotate(-47.27) scale(2.0)"/>
        </g>
      </g>
      <g id="fieldline27">
        <path d="M 0.0000,-1.0000 L -0.1061,-1.1427 L -0.1737,-1.2300 L -0.2326,-1.3024 L -0.2874,-1.3658 L -0.3400,-1.4230 L -0.3913,-1.4752 L -0.4419,-1.5231 L -0.4921,-1.5672 L -0.5420,-1.6078 L -0.5917,-1.6451 L -0.6414,-1.6792 L -0.6910,-1.7103 L -0.7406,-1.7384 L -0.7900,-1.7635 L -0.8392,-1.7858 L -0.8882,-1.8052 L -0.9368,-1.8219 L -0.9851,-1.8357 L -1.0329,-1.8469 L -1.0801,-1.8554 L -1.1267,-1.8612 L -1.1726,-1.8644 L -1.2176,-1.8650 L -1.2618,-1.8632 L -1.3049,-1.8589 L -1.3470,-1.8522 L -1.3880,-1.8431 L -1.4277,-1.8318 L -1.4661,-1.8182 L -1.5032,-1.8025 L -1.5389,-1.7846 L -1.5730,-1.7647 L -1.6056,-1.7428 L -1.6365,-1.7190 L -1.6658,-1.6933 L -1.6933,-1.6658 L -1.7190,-1.6365 L -1.7428,-1.6056 L -1.7647,-1.5730 L -1.7846,-1.5389 L -1.8025,-1.5032 L -1.8182,-1.4661 L -1.8318,-1.4277 L -1.8431,-1.3880 L -1.8522,-1.3470 L -1.8589,-1.3049 L -1.8632,-1.2618 L -1.8650,-1.2176 L -1.8644,-1.1726 L -1.8612,-1.1267 L -1.8554,-1.0801 L -1.8469,-1.0329 L -1.8357,-0.9851 L -1.8219,-0.9368 L -1.8052,-0.8882 L -1.7858,-0.8392 L -1.7635,-0.7900 L -1.7384,-0.7406 L -1.7103,-0.6910 L -1.6792,-0.6414 L -1.6451,-0.5917 L -1.6078,-0.5420 L -1.5672,-0.4921 L -1.5231,-0.4419 L -1.4752,-0.3913 L -1.4230,-0.3400 L -1.3658,-0.2874 L -1.3024,-0.2326 L -1.2300,-0.1737 L -1.1427,-0.1061 L -1.0000,0.0000"/>
        <g id="arrows27">
          <use xlink:href="#arrow1" transform="translate(-0.4439,-1.5242) rotate(-138.09) scale(2.0)"/>
          <use xlink:href="#arrow1" transform="translate(-1.6790,-1.6791) rotate(133.56) scale(2.0)"/>
          <use xlink:href="#arrow1" transform="translate(-1.5241,-0.4439) rotate(47.27) scale(2.0)"/>
        </g>
      </g>
      <g id="fieldline28">
        <path d="M 0.0000,-1.0000 L 0.1061,-1.1427 L 0.1737,-1.2300 L 0.2326,-1.3024 L 0.2874,-1.3658 L 0.3400,-1.4230 L 0.3913,-1.4752 L 0.4419,-1.5231 L 0.4921,-1.5672 L 0.5420,-1.6078 L 0.5917,-1.6451 L 0.6414,-1.6792 L 0.6910,-1.7103 L 0.7406,-1.7384 L 0.7900,-1.7635 L 0.8392,-1.7858 L 0.8882,-1.8052 L 0.9368,-1.8219 L 0.9851,-1.8357 L 1.0329,-1.8469 L 1.0801,-1.8554 L 1.1267,-1.8612 L 1.1726,-1.8644 L 1.2176,-1.8650 L 1.2618,-1.8632 L 1.3049,-1.8589 L 1.3470,-1.8522 L 1.3880,-1.8431 L 1.4277,-1.8318 L 1.4661,-1.8182 L 1.5032,-1.8025 L 1.5389,-1.7846 L 1.5730,-1.7647 L 1.6056,-1.7428 L 1.6365,-1.7190 L 1.6658,-1.6933 L 1.6933,-1.6658 L 1.7190,-1.6365 L 1.7428,-1.6056 L 1.7647,-1.5730 L 1.7846,-1.5389 L 1.8025,-1.5032 L 1.8182,-1.4661 L 1.8318,-1.4277 L 1.8431,-1.3880 L 1.8522,-1.3470 L 1.8589,-1.3049 L 1.8632,-1.2618 L 1.8650,-1.2176 L 1.8644,-1.1726 L 1.8612,-1.1267 L 1.8554,-1.0801 L 1.8469,-1.0329 L 1.8357,-0.9851 L 1.8219,-0.9368 L 1.8052,-0.8882 L 1.7858,-0.8392 L 1.7635,-0.7900 L 1.7384,-0.7406 L 1.7103,-0.6910 L 1.6792,-0.6414 L 1.6451,-0.5917 L 1.6078,-0.5420 L 1.5672,-0.4921 L 1.5231,-0.4419 L 1.4752,-0.3913 L 1.4230,-0.3400 L 1.3658,-0.2874 L 1.3024,-0.2326 L 1.2300,-0.1737 L 1.1427,-0.1061 L 1.0000,0.0000"/>
        <g id="arrows28">
          <use xlink:href="#arrow1" transform="translate(0.4439,-1.5242) rotate(-41.91) scale(2.0)"/>
          <use xlink:href="#arrow1" transform="translate(1.6790,-1.6791) rotate(46.44) scale(2.0)"/>
          <use xlink:href="#arrow1" transform="translate(1.5241,-0.4439) rotate(132.73) scale(2.0)"/>
        </g>
      </g>
      <g id="fieldline29">
        <path d="M 0.0000,1.0000 L 0.0533,1.2435 L 0.0897,1.4000 L 0.1237,1.5360 L 0.1574,1.6609 L 0.1916,1.7786 L 0.2267,1.8912 L 0.2631,1.9996 L 0.3009,2.1045 L 0.3401,2.2064 L 0.3809,2.3054 L 0.4231,2.4019 L 0.4670,2.4958 L 0.5123,2.5873 L 0.5592,2.6765 L 0.6077,2.7633 L 0.6576,2.8479 L 0.7089,2.9301 L 0.7617,3.0100 M 3.0100,0.7617 L 2.9301,0.7089 L 2.8479,0.6576 L 2.7633,0.6077 L 2.6765,0.5592 L 2.5873,0.5123 L 2.4958,0.4670 L 2.4019,0.4231 L 2.3054,0.3809 L 2.2064,0.3401 L 2.1045,0.3009 L 1.9996,0.2631 L 1.8912,0.2267 L 1.7786,0.1916 L 1.6609,0.1574 L 1.5360,0.1237 L 1.4000,0.0897 L 1.2435,0.0533 L 1.0000,0.0000"/>
        <g id="arrows29">
          <use xlink:href="#arrow1" transform="translate(0.2793,2.0445) rotate(70.20) scale(2.0)"/>
          <use xlink:href="#arrow1" transform="translate(2.0445,0.2793) rotate(-160.23) scale(2.0)"/>
        </g>
      </g>
      <g id="fieldline30">
        <path d="M 0.0000,1.0000 L -0.0533,1.2435 L -0.0897,1.4000 L -0.1237,1.5360 L -0.1574,1.6609 L -0.1916,1.7786 L -0.2267,1.8912 L -0.2631,1.9996 L -0.3009,2.1045 L -0.3401,2.2064 L -0.3809,2.3054 L -0.4231,2.4019 L -0.4670,2.4958 L -0.5123,2.5873 L -0.5592,2.6765 L -0.6077,2.7633 L -0.6576,2.8479 L -0.7089,2.9301 L -0.7617,3.0100 M -3.0100,0.7617 L -2.9301,0.7089 L -2.8479,0.6576 L -2.7633,0.6077 L -2.6765,0.5592 L -2.5873,0.5123 L -2.4958,0.4670 L -2.4019,0.4231 L -2.3054,0.3809 L -2.2064,0.3401 L -2.1045,0.3009 L -1.9996,0.2631 L -1.8912,0.2267 L -1.7786,0.1916 L -1.6609,0.1574 L -1.5360,0.1237 L -1.4000,0.0897 L -1.2435,0.0533 L -1.0000,0.0000"/>
        <g id="arrows30">
          <use xlink:href="#arrow1" transform="translate(-0.2793,2.0445) rotate(109.80) scale(2.0)"/>
          <use xlink:href="#arrow1" transform="translate(-2.0445,0.2793) rotate(-19.77) scale(2.0)"/>
        </g>
      </g>
      <g id="fieldline31">
        <path d="M 0.0000,-1.0000 L -0.0533,-1.2435 L -0.0897,-1.4000 L -0.1237,-1.5360 L -0.1574,-1.6609 L -0.1916,-1.7786 L -0.2267,-1.8912 L -0.2631,-1.9996 L -0.3009,-2.1045 L -0.3401,-2.2064 L -0.3809,-2.3054 L -0.4231,-2.4019 L -0.4670,-2.4958 L -0.5123,-2.5873 L -0.5592,-2.6765 L -0.6077,-2.7633 L -0.6576,-2.8479 L -0.7089,-2.9301 L -0.7617,-3.0100 M -3.0100,-0.7617 L -2.9301,-0.7089 L -2.8479,-0.6576 L -2.7633,-0.6077 L -2.6765,-0.5592 L -2.5873,-0.5123 L -2.4958,-0.4670 L -2.4019,-0.4231 L -2.3054,-0.3809 L -2.2064,-0.3401 L -2.1045,-0.3009 L -1.9996,-0.2631 L -1.8912,-0.2267 L -1.7786,-0.1916 L -1.6609,-0.1574 L -1.5360,-0.1237 L -1.4000,-0.0897 L -1.2435,-0.0533 L -1.0000,0.0000"/>
        <g id="arrows31">
          <use xlink:href="#arrow1" transform="translate(-0.2793,-2.0445) rotate(-109.80) scale(2.0)"/>
          <use xlink:href="#arrow1" transform="translate(-2.0445,-0.2793) rotate(19.77) scale(2.0)"/>
        </g>
      </g>
      <g id="fieldline32">
        <path d="M 0.0000,-1.0000 L 0.0533,-1.2435 L 0.0897,-1.4000 L 0.1237,-1.5360 L 0.1574,-1.6609 L 0.1916,-1.7786 L 0.2267,-1.8912 L 0.2631,-1.9996 L 0.3009,-2.1045 L 0.3401,-2.2064 L 0.3809,-2.3054 L 0.4231,-2.4019 L 0.4670,-2.4958 L 0.5123,-2.5873 L 0.5592,-2.6765 L 0.6077,-2.7633 L 0.6576,-2.8479 L 0.7089,-2.9301 L 0.7617,-3.0100 M 3.0100,-0.7617 L 2.9301,-0.7089 L 2.8479,-0.6576 L 2.7633,-0.6077 L 2.6765,-0.5592 L 2.5873,-0.5123 L 2.4958,-0.4670 L 2.4019,-0.4231 L 2.3054,-0.3809 L 2.2064,-0.3401 L 2.1045,-0.3009 L 1.9996,-0.2631 L 1.8912,-0.2267 L 1.7786,-0.1916 L 1.6609,-0.1574 L 1.5360,-0.1237 L 1.4000,-0.0897 L 1.2435,-0.0533 L 1.0000,0.0000"/>
        <g id="arrows32">
          <use xlink:href="#arrow1" transform="translate(0.2793,-2.0445) rotate(-70.20) scale(2.0)"/>
          <use xlink:href="#arrow1" transform="translate(2.0445,-0.2793) rotate(160.23) scale(2.0)"/>
        </g>
      </g>
    </g>
    <g id="symbols">
      <g id="charge1" transform="translate(-1.0,0.0) scale(0.01,0.01)">
        <circle style="fill:#0000ff; stroke:none" cx="0" cy="0" r="14"/>
        <circle cx="0" cy="0" r="14" style="fill:url(#white_spot); stroke:#000000; stroke-width:2"/>
        <path d="M 8,2 H -8 V -2 H 8 V 2 Z" style="fill:#000000; stroke:none"/>
      </g>
      <g id="charge2" transform="translate(0.0,1.0) scale(0.01,0.01)">
        <circle style="fill:#ff0000; stroke:none" cx="0" cy="0" r="14"/>
        <circle cx="0" cy="0" r="14" style="fill:url(#white_spot); stroke:#000000; stroke-width:2"/>
        <path d="M 2,2 V 8 H -2 V 2 H -8 V -2 H -2 V -8 H 2 V -2 H 8 V 2 H 2 Z" style="fill:#000000; stroke:none"/>
      </g>
      <g id="charge3" transform="translate(1.0,0.0) scale(0.01,0.01)">
        <circle style="fill:#0000ff; stroke:none" cx="0" cy="0" r="14"/>
        <circle cx="0" cy="0" r="14" style="fill:url(#white_spot); stroke:#000000; stroke-width:2"/>
        <path d="M 8,2 H -8 V -2 H 8 V 2 Z" style="fill:#000000; stroke:none"/>
      </g>
      <g id="charge4" transform="translate(0.0,-1.0) scale(0.01,0.01)">
        <circle style="fill:#ff0000; stroke:none" cx="0" cy="0" r="14"/>
        <circle cx="0" cy="0" r="14" style="fill:url(#white_spot); stroke:#000000; stroke-width:2"/>
        <path d="M 2,2 V 8 H -2 V 2 H -8 V -2 H -2 V -8 H 2 V -2 H 8 V 2 H 2 Z" style="fill:#000000; stroke:none"/>
      </g>
    </g>
  </g>
</svg>
