<?xml version='1.0' encoding='utf-8'?>
<svg xmlns:xlink="http://www.w3.org/1999/xlink" xmlns="http://www.w3.org/2000/svg" version="1.1" baseProfile="full" width="600" height="600">
  <title>VFPt_dipole_point</title>
  <desc>VFPt_dipole_point
created with VectorFieldPlot 1.1
http://commons.wikimedia.org/wiki/User:Geek3/VectorFieldPlot

about: http://commons.wikimedia.org/wiki/File:VFPt_dipole_point.svg
rights: GNU Free Documentation license,
        Creative Commons Attribution ShareAlike license
  </desc>
  <defs>
    <path id="arrow1" stroke="none" fill="#000000" transform="scale(0.01)" d="M 0.3,0 L -2.2,2.25 L 3.8,0 L -2.2,-2.25 L 0.3,0 Z"/>
  </defs>
  <rect id="background" x="0" y="0" width="600" height="600" fill="#ffffff"/>
  <g id="image" transform="translate(300.0,300.0) scale(100.0,-100.0)">
    <g id="fieldlines" fill="none" stroke="#000000" stroke-width="0.024" stroke-linejoin="round" stroke-linecap="round">
      <g id="fieldline1">
        <path d="M 0.0000,0.0000 L 0.0102,-0.0020 L 0.0238,-0.0075 L 0.0385,-0.0162 L 0.0529,-0.0278 L 0.0664,-0.0419 L 0.0785,-0.0581 L 0.0886,-0.0759 L 0.0966,-0.0948 L 0.1023,-0.1146 L 0.1054,-0.1347 L 0.1061,-0.1546 L 0.1044,-0.1741 L 0.1002,-0.1926 L 0.0939,-0.2098 L 0.0855,-0.2255 L 0.0754,-0.2394 L 0.0638,-0.2512 L 0.0509,-0.2609 L 0.0370,-0.2682 L 0.0225,-0.2731 L 0.0076,-0.2756 L -0.0075,-0.2756 L -0.0225,-0.2731 L -0.0370,-0.2682 L -0.0509,-0.2609 L -0.0638,-0.2512 L -0.0754,-0.2394 L -0.0855,-0.2255 L -0.0939,-0.2098 L -0.1002,-0.1926 L -0.1044,-0.1741 L -0.1061,-0.1546 L -0.1054,-0.1347 L -0.1023,-0.1146 L -0.0966,-0.0948 L -0.0886,-0.0759 L -0.0785,-0.0581 L -0.0664,-0.0419 L -0.0529,-0.0278 L -0.0385,-0.0162 L -0.0238,-0.0075 L -0.0102,-0.0020 L -0.0000,-0.0000 Z"/>
        <g id="arrows1">
          <use xlink:href="#arrow1" transform="translate(0.0020,-0.2670) rotate(167.07) scale(2.64)"/>
        </g>
      </g>
      <g id="fieldline2">
        <path d="M 0.0000,0.0000 L 0.0116,-0.0021 L 0.0272,-0.0077 L 0.0443,-0.0167 L 0.0616,-0.0288 L 0.0784,-0.0437 L 0.0941,-0.0609 L 0.1081,-0.0802 L 0.1203,-0.1012 L 0.1303,-0.1234 L 0.1379,-0.1465 L 0.1431,-0.1702 L 0.1457,-0.1939 L 0.1458,-0.2174 L 0.1434,-0.2403 L 0.1386,-0.2623 L 0.1315,-0.2830 L 0.1223,-0.3022 L 0.1113,-0.3196 L 0.0985,-0.3351 L 0.0843,-0.3484 L 0.0689,-0.3595 L 0.0525,-0.3682 L 0.0354,-0.3744 L 0.0178,-0.3782 L 0.0000,-0.3794 L -0.0178,-0.3782 L -0.0354,-0.3744 L -0.0525,-0.3682 L -0.0689,-0.3595 L -0.0843,-0.3484 L -0.0985,-0.3351 L -0.1113,-0.3196 L -0.1223,-0.3022 L -0.1315,-0.2830 L -0.1386,-0.2623 L -0.1434,-0.2403 L -0.1458,-0.2174 L -0.1457,-0.1939 L -0.1431,-0.1702 L -0.1379,-0.1465 L -0.1303,-0.1234 L -0.1203,-0.1012 L -0.1081,-0.0802 L -0.0941,-0.0609 L -0.0784,-0.0437 L -0.0616,-0.0288 L -0.0443,-0.0167 L -0.0272,-0.0077 L -0.0116,-0.0021 L -0.0000,-0.0000 Z"/>
        <g id="arrows2">
          <use xlink:href="#arrow1" transform="translate(0.0012,-0.3726) rotate(170.49) scale(2.64)"/>
        </g>
      </g>
      <g id="fieldline3">
        <path d="M 0.0000,0.0000 L 0.0131,-0.0021 L 0.0310,-0.0077 L 0.0510,-0.0169 L 0.0718,-0.0292 L 0.0925,-0.0446 L 0.1125,-0.0626 L 0.1314,-0.0830 L 0.1488,-0.1055 L 0.1644,-0.1299 L 0.1779,-0.1557 L 0.1892,-0.1826 L 0.1981,-0.2104 L 0.2045,-0.2387 L 0.2084,-0.2671 L 0.2098,-0.2955 L 0.2087,-0.3234 L 0.2051,-0.3505 L 0.1991,-0.3767 L 0.1909,-0.4017 L 0.1805,-0.4252 L 0.1682,-0.4469 L 0.1540,-0.4669 L 0.1383,-0.4848 L 0.1211,-0.5005 L 0.1028,-0.5140 L 0.0834,-0.5251 L 0.0633,-0.5339 L 0.0425,-0.5401 L 0.0213,-0.5439 L 0.0000,-0.5451 L -0.0213,-0.5439 L -0.0425,-0.5401 L -0.0633,-0.5339 L -0.0834,-0.5251 L -0.1028,-0.5140 L -0.1212,-0.5005 L -0.1383,-0.4848 L -0.1540,-0.4669 L -0.1682,-0.4470 L -0.1805,-0.4252 L -0.1909,-0.4017 L -0.1991,-0.3767 L -0.2051,-0.3505 L -0.2087,-0.3234 L -0.2098,-0.2955 L -0.2084,-0.2671 L -0.2045,-0.2387 L -0.1981,-0.2104 L -0.1892,-0.1826 L -0.1779,-0.1557 L -0.1644,-0.1299 L -0.1488,-0.1055 L -0.1314,-0.0830 L -0.1125,-0.0626 L -0.0925,-0.0446 L -0.0718,-0.0292 L -0.0510,-0.0169 L -0.0310,-0.0077 L -0.0131,-0.0021 L -0.0000,-0.0000 Z"/>
        <g id="arrows3">
          <use xlink:href="#arrow1" transform="translate(0.0006,-0.5403) rotate(173.30) scale(2.64)"/>
        </g>
      </g>
      <g id="fieldline4">
        <path d="M 0.0000,0.0000 L 0.0153,-0.0021 L 0.0363,-0.0078 L 0.0602,-0.0171 L 0.0855,-0.0298 L 0.1113,-0.0457 L 0.1370,-0.0646 L 0.1622,-0.0862 L 0.1863,-0.1103 L 0.2091,-0.1367 L 0.2302,-0.1651 L 0.2495,-0.1953 L 0.2668,-0.2270 L 0.2818,-0.2600 L 0.2946,-0.2939 L 0.3049,-0.3286 L 0.3127,-0.3637 L 0.3179,-0.3990 L 0.3206,-0.4343 L 0.3208,-0.4692 L 0.3184,-0.5036 L 0.3136,-0.5372 L 0.3064,-0.5698 L 0.2969,-0.6012 L 0.2852,-0.6312 L 0.2714,-0.6596 L 0.2557,-0.6863 L 0.2382,-0.7111 L 0.2190,-0.7338 L 0.1984,-0.7544 L 0.1765,-0.7728 L 0.1534,-0.7889 L 0.1293,-0.8026 L 0.1044,-0.8138 L 0.0789,-0.8227 L 0.0529,-0.8290 L 0.0265,-0.8328 L -0.0000,-0.8340 L -0.0265,-0.8328 L -0.0529,-0.8290 L -0.0789,-0.8227 L -0.1044,-0.8138 L -0.1293,-0.8026 L -0.1534,-0.7889 L -0.1765,-0.7728 L -0.1984,-0.7544 L -0.2190,-0.7338 L -0.2382,-0.7111 L -0.2557,-0.6863 L -0.2714,-0.6596 L -0.2852,-0.6312 L -0.2969,-0.6012 L -0.3064,-0.5698 L -0.3136,-0.5372 L -0.3184,-0.5036 L -0.3208,-0.4692 L -0.3206,-0.4343 L -0.3179,-0.3990 L -0.3127,-0.3637 L -0.3049,-0.3286 L -0.2946,-0.2939 L -0.2818,-0.2600 L -0.2668,-0.2270 L -0.2495,-0.1953 L -0.2302,-0.1651 L -0.2091,-0.1367 L -0.1863,-0.1103 L -0.1622,-0.0862 L -0.1370,-0.0646 L -0.1113,-0.0457 L -0.0855,-0.0298 L -0.0602,-0.0171 L -0.0363,-0.0078 L -0.0153,-0.0021 L -0.0000,-0.0000 Z"/>
        <g id="arrows4">
          <use xlink:href="#arrow1" transform="translate(0.0003,-0.8308) rotate(175.44) scale(2.64)"/>
        </g>
      </g>
      <g id="fieldline5">
        <path d="M 0.0000,0.0000 L 0.0183,-0.0021 L 0.0437,-0.0079 L 0.0730,-0.0173 L 0.1045,-0.0303 L 0.1374,-0.0466 L 0.1709,-0.0661 L 0.2045,-0.0888 L 0.2377,-0.1143 L 0.2703,-0.1425 L 0.3020,-0.1732 L 0.3323,-0.2064 L 0.3612,-0.2417 L 0.3884,-0.2789 L 0.4138,-0.3179 L 0.4371,-0.3585 L 0.4583,-0.4005 L 0.4772,-0.4437 L 0.4938,-0.4878 L 0.5080,-0.5326 L 0.5197,-0.5780 L 0.5289,-0.6238 L 0.5355,-0.6697 L 0.5395,-0.7155 L 0.5410,-0.7611 L 0.5400,-0.8063 L 0.5364,-0.8509 L 0.5304,-0.8947 L 0.5220,-0.9375 L 0.5112,-0.9791 L 0.4981,-1.0195 L 0.4829,-1.0585 L 0.4656,-1.0959 L 0.4463,-1.1316 L 0.4251,-1.1655 L 0.4022,-1.1974 L 0.3776,-1.2273 L 0.3514,-1.2552 L 0.3239,-1.2808 L 0.2951,-1.3042 L 0.2652,-1.3252 L 0.2343,-1.3439 L 0.2024,-1.3602 L 0.1698,-1.3740 L 0.1366,-1.3854 L 0.1029,-1.3942 L 0.0688,-1.4005 L 0.0345,-1.4044 L 0.0000,-1.4056 L -0.0345,-1.4044 L -0.0688,-1.4005 L -0.1029,-1.3942 L -0.1366,-1.3854 L -0.1698,-1.3740 L -0.2024,-1.3602 L -0.2343,-1.3439 L -0.2652,-1.3252 L -0.2951,-1.3042 L -0.3239,-1.2808 L -0.3514,-1.2552 L -0.3776,-1.2273 L -0.4022,-1.1974 L -0.4251,-1.1655 L -0.4463,-1.1316 L -0.4656,-1.0959 L -0.4829,-1.0585 L -0.4981,-1.0195 L -0.5112,-0.9791 L -0.5220,-0.9375 L -0.5304,-0.8947 L -0.5364,-0.8509 L -0.5400,-0.8063 L -0.5410,-0.7611 L -0.5395,-0.7155 L -0.5355,-0.6697 L -0.5289,-0.6238 L -0.5197,-0.5780 L -0.5080,-0.5326 L -0.4938,-0.4878 L -0.4772,-0.4437 L -0.4583,-0.4005 L -0.4371,-0.3585 L -0.4138,-0.3179 L -0.3884,-0.2789 L -0.3612,-0.2417 L -0.3323,-0.2064 L -0.3020,-0.1732 L -0.2703,-0.1425 L -0.2377,-0.1143 L -0.2045,-0.0888 L -0.1709,-0.0662 L -0.1374,-0.0466 L -0.1045,-0.0303 L -0.0730,-0.0173 L -0.0437,-0.0079 L -0.0183,-0.0021 L -0.0000,-0.0000 Z"/>
        <g id="arrows5">
          <use xlink:href="#arrow1" transform="translate(0.5388,-0.7266) rotate(-88.79) scale(2.64)"/>
          <use xlink:href="#arrow1" transform="translate(-0.5389,-0.7267) rotate(85.81) scale(2.64)"/>
        </g>
      </g>
      <g id="fieldline6">
        <path d="M 0.0000,0.0000 L 0.0231,-0.0021 L 0.0556,-0.0080 L 0.0935,-0.0176 L 0.1350,-0.0308 L 0.1788,-0.0476 L 0.2243,-0.0678 L 0.2709,-0.0915 L 0.3182,-0.1183 L 0.3658,-0.1483 L 0.4132,-0.1813 L 0.4604,-0.2172 L 0.5069,-0.2559 L 0.5525,-0.2972 L 0.5971,-0.3410 L 0.6405,-0.3873 L 0.6824,-0.4357 L 0.7228,-0.4863 L 0.7615,-0.5388 L 0.7983,-0.5932 L 0.8332,-0.6493 L 0.8660,-0.7069 L 0.8967,-0.7658 L 0.9251,-0.8261 L 0.9513,-0.8874 L 0.9750,-0.9497 L 0.9964,-1.0128 L 1.0152,-1.0766 L 1.0316,-1.1408 L 1.0454,-1.2055 L 1.0567,-1.2704 L 1.0654,-1.3353 L 1.0715,-1.4002 L 1.0751,-1.4649 L 1.0761,-1.5293 L 1.0745,-1.5932 L 1.0704,-1.6565 L 1.0638,-1.7191 L 1.0547,-1.7808 L 1.0432,-1.8416 L 1.0294,-1.9013 L 1.0132,-1.9597 L 0.9947,-2.0169 L 0.9740,-2.0726 L 0.9512,-2.1268 L 0.9263,-2.1794 L 0.8994,-2.2302 L 0.8705,-2.2793 L 0.8398,-2.3265 L 0.8074,-2.3718 L 0.7733,-2.4150 L 0.7376,-2.4562 L 0.7004,-2.4952 L 0.6618,-2.5320 L 0.6218,-2.5665 L 0.5807,-2.5988 L 0.5384,-2.6287 L 0.4950,-2.6562 L 0.4507,-2.6813 L 0.4056,-2.7040 L 0.3597,-2.7242 L 0.3131,-2.7420 L 0.2659,-2.7572 L 0.2182,-2.7700 L 0.1701,-2.7802 L 0.1217,-2.7878 L 0.0731,-2.7929 L 0.0244,-2.7955 L -0.0244,-2.7955 L -0.0731,-2.7929 L -0.1218,-2.7878 L -0.1701,-2.7802 L -0.2182,-2.7700 L -0.2659,-2.7572 L -0.3131,-2.7420 L -0.3597,-2.7242 L -0.4056,-2.7040 L -0.4508,-2.6813 L -0.4950,-2.6562 L -0.5384,-2.6287 L -0.5807,-2.5988 L -0.6218,-2.5665 L -0.6618,-2.5320 L -0.7004,-2.4951 L -0.7376,-2.4562 L -0.7733,-2.4150 L -0.8074,-2.3718 L -0.8399,-2.3265 L -0.8705,-2.2793 L -0.8994,-2.2302 L -0.9263,-2.1793 L -0.9512,-2.1268 L -0.9740,-2.0726 L -0.9947,-2.0168 L -1.0132,-1.9597 L -1.0294,-1.9012 L -1.0432,-1.8416 L -1.0547,-1.7808 L -1.0638,-1.7191 L -1.0704,-1.6565 L -1.0745,-1.5932 L -1.0761,-1.5293 L -1.0751,-1.4649 L -1.0715,-1.4002 L -1.0654,-1.3353 L -1.0567,-1.2704 L -1.0454,-1.2055 L -1.0316,-1.1408 L -1.0152,-1.0766 L -0.9964,-1.0128 L -0.9750,-0.9497 L -0.9513,-0.8874 L -0.9251,-0.8261 L -0.8967,-0.7658 L -0.8660,-0.7068 L -0.8332,-0.6493 L -0.7983,-0.5932 L -0.7615,-0.5388 L -0.7228,-0.4863 L -0.6824,-0.4357 L -0.6405,-0.3873 L -0.5971,-0.3410 L -0.5525,-0.2972 L -0.5069,-0.2559 L -0.4604,-0.2172 L -0.4132,-0.1813 L -0.3658,-0.1483 L -0.3182,-0.1183 L -0.2709,-0.0915 L -0.2243,-0.0678 L -0.1788,-0.0476 L -0.1350,-0.0308 L -0.0935,-0.0176 L -0.0556,-0.0080 L -0.0231,-0.0021 L -0.0000,-0.0000 Z"/>
        <g id="arrows6">
          <use xlink:href="#arrow1" transform="translate(0.7649,-0.5450) rotate(-55.68) scale(2.64)"/>
          <use xlink:href="#arrow1" transform="translate(0.8179,-2.3560) rotate(-127.03) scale(2.64)"/>
          <use xlink:href="#arrow1" transform="translate(-0.8179,-2.3561) rotate(124.94) scale(2.64)"/>
          <use xlink:href="#arrow1" transform="translate(-0.7649,-0.5451) rotate(54.42) scale(2.64)"/>
        </g>
      </g>
      <g id="fieldline7">
        <path d="M -2.8462,-3.0120 L -2.8158,-2.9069 L -2.7830,-2.8025 L -2.7478,-2.6987 L -2.7103,-2.5956 L -2.6704,-2.4934 L -2.6283,-2.3921 L -2.5839,-2.2918 L -2.5373,-2.1926 L -2.4886,-2.0946 L -2.4377,-1.9978 L -2.3847,-1.9023 L -2.3297,-1.8083 L -2.2727,-1.7157 L -2.2138,-1.6248 L -2.1531,-1.5355 L -2.0905,-1.4479 L -2.0263,-1.3622 L -1.9604,-1.2783 L -1.8929,-1.1964 L -1.8239,-1.1166 L -1.7535,-1.0390 L -1.6819,-0.9635 L -1.6090,-0.8904 L -1.5350,-0.8196 L -1.4600,-0.7512 L -1.3842,-0.6854 L -1.3075,-0.6221 L -1.2303,-0.5615 L -1.1526,-0.5037 L -1.0745,-0.4486 L -0.9963,-0.3964 L -0.9180,-0.3472 L -0.8400,-0.3009 L -0.7624,-0.2578 L -0.6853,-0.2177 L -0.6092,-0.1809 L -0.5342,-0.1473 L -0.4606,-0.1170 L -0.3889,-0.0901 L -0.3195,-0.0666 L -0.2528,-0.0465 L -0.1895,-0.0300 L -0.1305,-0.0171 L -0.0772,-0.0077 L -0.0320,-0.0020 L 0.0000,0.0000 L 0.0320,-0.0020 L 0.0772,-0.0077 L 0.1305,-0.0171 L 0.1895,-0.0300 L 0.2528,-0.0465 L 0.3195,-0.0666 L 0.3889,-0.0901 L 0.4606,-0.1170 L 0.5342,-0.1473 L 0.6092,-0.1809 L 0.6853,-0.2177 L 0.7624,-0.2578 L 0.8400,-0.3009 L 0.9180,-0.3472 L 0.9963,-0.3964 L 1.0745,-0.4486 L 1.1526,-0.5037 L 1.2303,-0.5615 L 1.3075,-0.6221 L 1.3842,-0.6854 L 1.4600,-0.7512 L 1.5350,-0.8196 L 1.6090,-0.8904 L 1.6819,-0.9635 L 1.7535,-1.0390 L 1.8239,-1.1166 L 1.8929,-1.1964 L 1.9604,-1.2783 L 2.0263,-1.3622 L 2.0905,-1.4479 L 2.1531,-1.5355 L 2.2138,-1.6248 L 2.2727,-1.7157 L 2.3297,-1.8083 L 2.3847,-1.9023 L 2.4377,-1.9978 L 2.4886,-2.0946 L 2.5373,-2.1926 L 2.5839,-2.2918 L 2.6283,-2.3921 L 2.6704,-2.4934 L 2.7103,-2.5956 L 2.7478,-2.6987 L 2.7830,-2.8025 L 2.8158,-2.9069 L 2.8462,-3.0120"/>
        <g id="arrows7">
          <use xlink:href="#arrow1" transform="translate(-2.5395,-2.1981) rotate(63.99) scale(2.64)"/>
          <use xlink:href="#arrow1" transform="translate(-1.5155,-0.8018) rotate(42.35) scale(2.64)"/>
          <use xlink:href="#arrow1" transform="translate(-0.0002,-0.0030) rotate(-3.03) scale(2.64)"/>
          <use xlink:href="#arrow1" transform="translate(1.5154,-0.8020) rotate(-42.97) scale(2.64)"/>
          <use xlink:href="#arrow1" transform="translate(2.5396,-2.1981) rotate(-64.58) scale(2.64)"/>
        </g>
      </g>
      <g id="fieldline8">
        <path d="M -3.0120,-0.6413 L -2.8096,-0.5764 L -2.6099,-0.5148 L -2.4132,-0.4567 L -2.2196,-0.4020 L -2.0295,-0.3507 L -1.8431,-0.3029 L -1.6605,-0.2585 L -1.4823,-0.2176 L -1.3086,-0.1802 L -1.1400,-0.1462 L -0.9770,-0.1158 L -0.8199,-0.0889 L -0.6697,-0.0655 L -0.5271,-0.0457 L -0.3932,-0.0294 L -0.2696,-0.0167 L -0.1588,-0.0075 L -0.0656,-0.0020 L 0.0000,0.0000 L 0.0656,-0.0020 L 0.1588,-0.0075 L 0.2696,-0.0167 L 0.3932,-0.0294 L 0.5271,-0.0457 L 0.6697,-0.0655 L 0.8199,-0.0889 L 0.9769,-0.1158 L 1.1400,-0.1462 L 1.3086,-0.1802 L 1.4823,-0.2176 L 1.6605,-0.2585 L 1.8431,-0.3029 L 2.0295,-0.3507 L 2.2196,-0.4020 L 2.4132,-0.4567 L 2.6099,-0.5148 L 2.8096,-0.5764 L 3.0120,-0.6413"/>
        <g id="arrows8">
          <use xlink:href="#arrow1" transform="translate(-2.0249,-0.3498) rotate(14.55) scale(2.64)"/>
          <use xlink:href="#arrow1" transform="translate(-0.0000,-0.0011) rotate(-0.85) scale(2.64)"/>
          <use xlink:href="#arrow1" transform="translate(2.0249,-0.3498) rotate(-14.87) scale(2.64)"/>
        </g>
      </g>
      <g id="fieldline9">
        <path d="M -3.0120,0.6413 L -2.8096,0.5764 L -2.6099,0.5148 L -2.4132,0.4567 L -2.2196,0.4020 L -2.0295,0.3507 L -1.8431,0.3029 L -1.6605,0.2585 L -1.4823,0.2176 L -1.3086,0.1802 L -1.1400,0.1462 L -0.9770,0.1158 L -0.8199,0.0889 L -0.6697,0.0655 L -0.5271,0.0457 L -0.3932,0.0294 L -0.2696,0.0167 L -0.1588,0.0075 L -0.0656,0.0020 L 0.0000,0.0000 L 0.0656,0.0020 L 0.1588,0.0075 L 0.2696,0.0167 L 0.3932,0.0294 L 0.5271,0.0457 L 0.6697,0.0655 L 0.8199,0.0889 L 0.9769,0.1158 L 1.1400,0.1462 L 1.3086,0.1802 L 1.4823,0.2176 L 1.6605,0.2585 L 1.8431,0.3029 L 2.0295,0.3507 L 2.2196,0.4020 L 2.4132,0.4567 L 2.6099,0.5148 L 2.8096,0.5764 L 3.0120,0.6413"/>
        <g id="arrows9">
          <use xlink:href="#arrow1" transform="translate(-2.0249,0.3498) rotate(-14.55) scale(2.64)"/>
          <use xlink:href="#arrow1" transform="translate(-0.0000,0.0011) rotate(0.85) scale(2.64)"/>
          <use xlink:href="#arrow1" transform="translate(2.0249,0.3498) rotate(14.87) scale(2.64)"/>
        </g>
      </g>
      <g id="fieldline10">
        <path d="M -2.8462,3.0120 L -2.8158,2.9069 L -2.7830,2.8025 L -2.7478,2.6987 L -2.7103,2.5956 L -2.6704,2.4934 L -2.6283,2.3921 L -2.5839,2.2918 L -2.5373,2.1926 L -2.4886,2.0946 L -2.4377,1.9978 L -2.3847,1.9023 L -2.3297,1.8083 L -2.2727,1.7157 L -2.2138,1.6248 L -2.1531,1.5355 L -2.0905,1.4479 L -2.0263,1.3622 L -1.9604,1.2783 L -1.8929,1.1964 L -1.8239,1.1166 L -1.7535,1.0390 L -1.6819,0.9635 L -1.6090,0.8904 L -1.5350,0.8196 L -1.4600,0.7512 L -1.3842,0.6854 L -1.3075,0.6221 L -1.2303,0.5615 L -1.1526,0.5037 L -1.0745,0.4486 L -0.9963,0.3964 L -0.9180,0.3472 L -0.8400,0.3009 L -0.7624,0.2578 L -0.6853,0.2177 L -0.6092,0.1809 L -0.5342,0.1473 L -0.4606,0.1170 L -0.3889,0.0901 L -0.3195,0.0666 L -0.2528,0.0465 L -0.1895,0.0300 L -0.1305,0.0171 L -0.0772,0.0077 L -0.0320,0.0020 L 0.0000,0.0000 L 0.0320,0.0020 L 0.0772,0.0077 L 0.1305,0.0171 L 0.1895,0.0300 L 0.2528,0.0465 L 0.3195,0.0666 L 0.3889,0.0901 L 0.4606,0.1170 L 0.5342,0.1473 L 0.6092,0.1809 L 0.6853,0.2177 L 0.7624,0.2578 L 0.8400,0.3009 L 0.9180,0.3472 L 0.9963,0.3964 L 1.0745,0.4486 L 1.1526,0.5037 L 1.2303,0.5615 L 1.3075,0.6221 L 1.3842,0.6854 L 1.4600,0.7512 L 1.5350,0.8196 L 1.6090,0.8904 L 1.6819,0.9635 L 1.7535,1.0390 L 1.8239,1.1166 L 1.8929,1.1964 L 1.9604,1.2783 L 2.0263,1.3622 L 2.0905,1.4479 L 2.1531,1.5355 L 2.2138,1.6248 L 2.2727,1.7157 L 2.3297,1.8083 L 2.3847,1.9023 L 2.4377,1.9978 L 2.4886,2.0946 L 2.5373,2.1926 L 2.5839,2.2918 L 2.6283,2.3921 L 2.6704,2.4934 L 2.7103,2.5956 L 2.7478,2.6987 L 2.7830,2.8025 L 2.8158,2.9069 L 2.8462,3.0120"/>
        <g id="arrows10">
          <use xlink:href="#arrow1" transform="translate(-2.5395,2.1981) rotate(-63.99) scale(2.64)"/>
          <use xlink:href="#arrow1" transform="translate(-1.5155,0.8018) rotate(-42.35) scale(2.64)"/>
          <use xlink:href="#arrow1" transform="translate(-0.0002,0.0030) rotate(3.03) scale(2.64)"/>
          <use xlink:href="#arrow1" transform="translate(1.5154,0.8020) rotate(42.97) scale(2.64)"/>
          <use xlink:href="#arrow1" transform="translate(2.5396,2.1981) rotate(64.58) scale(2.64)"/>
        </g>
      </g>
      <g id="fieldline11">
        <path d="M 0.0000,0.0000 L 0.0231,0.0021 L 0.0556,0.0080 L 0.0935,0.0176 L 0.1350,0.0308 L 0.1788,0.0476 L 0.2243,0.0678 L 0.2709,0.0915 L 0.3182,0.1183 L 0.3658,0.1483 L 0.4132,0.1813 L 0.4604,0.2172 L 0.5069,0.2559 L 0.5525,0.2972 L 0.5971,0.3410 L 0.6405,0.3873 L 0.6824,0.4357 L 0.7228,0.4863 L 0.7615,0.5388 L 0.7983,0.5932 L 0.8332,0.6493 L 0.8660,0.7069 L 0.8967,0.7658 L 0.9251,0.8261 L 0.9513,0.8874 L 0.9750,0.9497 L 0.9964,1.0128 L 1.0152,1.0766 L 1.0316,1.1408 L 1.0454,1.2055 L 1.0567,1.2704 L 1.0654,1.3353 L 1.0715,1.4002 L 1.0751,1.4649 L 1.0761,1.5293 L 1.0745,1.5932 L 1.0704,1.6565 L 1.0638,1.7191 L 1.0547,1.7808 L 1.0432,1.8416 L 1.0294,1.9013 L 1.0132,1.9597 L 0.9947,2.0169 L 0.9740,2.0726 L 0.9512,2.1268 L 0.9263,2.1794 L 0.8994,2.2302 L 0.8705,2.2793 L 0.8398,2.3265 L 0.8074,2.3718 L 0.7733,2.4150 L 0.7376,2.4562 L 0.7004,2.4952 L 0.6618,2.5320 L 0.6218,2.5665 L 0.5807,2.5988 L 0.5384,2.6287 L 0.4950,2.6562 L 0.4507,2.6813 L 0.4056,2.7040 L 0.3597,2.7242 L 0.3131,2.7420 L 0.2659,2.7572 L 0.2182,2.7700 L 0.1701,2.7802 L 0.1217,2.7878 L 0.0731,2.7929 L 0.0244,2.7955 L -0.0244,2.7955 L -0.0731,2.7929 L -0.1218,2.7878 L -0.1701,2.7802 L -0.2182,2.7700 L -0.2659,2.7572 L -0.3131,2.7420 L -0.3597,2.7242 L -0.4056,2.7040 L -0.4508,2.6813 L -0.4950,2.6562 L -0.5384,2.6287 L -0.5807,2.5988 L -0.6218,2.5665 L -0.6618,2.5320 L -0.7004,2.4951 L -0.7376,2.4562 L -0.7733,2.4150 L -0.8074,2.3718 L -0.8399,2.3265 L -0.8705,2.2793 L -0.8994,2.2302 L -0.9263,2.1793 L -0.9512,2.1268 L -0.9740,2.0726 L -0.9947,2.0168 L -1.0132,1.9597 L -1.0294,1.9012 L -1.0432,1.8416 L -1.0547,1.7808 L -1.0638,1.7191 L -1.0704,1.6565 L -1.0745,1.5932 L -1.0761,1.5293 L -1.0751,1.4649 L -1.0715,1.4002 L -1.0654,1.3353 L -1.0567,1.2704 L -1.0454,1.2055 L -1.0316,1.1408 L -1.0152,1.0766 L -0.9964,1.0128 L -0.9750,0.9497 L -0.9513,0.8874 L -0.9251,0.8261 L -0.8967,0.7658 L -0.8660,0.7068 L -0.8332,0.6493 L -0.7983,0.5932 L -0.7615,0.5388 L -0.7228,0.4863 L -0.6824,0.4357 L -0.6405,0.3873 L -0.5971,0.3410 L -0.5525,0.2972 L -0.5069,0.2559 L -0.4604,0.2172 L -0.4132,0.1813 L -0.3658,0.1483 L -0.3182,0.1183 L -0.2709,0.0915 L -0.2243,0.0678 L -0.1788,0.0476 L -0.1350,0.0308 L -0.0935,0.0176 L -0.0556,0.0080 L -0.0231,0.0021 L -0.0000,0.0000 Z"/>
        <g id="arrows11">
          <use xlink:href="#arrow1" transform="translate(0.7649,0.5450) rotate(55.68) scale(2.64)"/>
          <use xlink:href="#arrow1" transform="translate(0.8179,2.3560) rotate(127.03) scale(2.64)"/>
          <use xlink:href="#arrow1" transform="translate(-0.8179,2.3561) rotate(-124.94) scale(2.64)"/>
          <use xlink:href="#arrow1" transform="translate(-0.7649,0.5451) rotate(-54.42) scale(2.64)"/>
        </g>
      </g>
      <g id="fieldline12">
        <path d="M 0.0000,0.0000 L 0.0183,0.0021 L 0.0437,0.0079 L 0.0730,0.0173 L 0.1045,0.0303 L 0.1374,0.0466 L 0.1709,0.0661 L 0.2045,0.0888 L 0.2377,0.1143 L 0.2703,0.1425 L 0.3020,0.1732 L 0.3323,0.2064 L 0.3612,0.2417 L 0.3884,0.2789 L 0.4138,0.3179 L 0.4371,0.3585 L 0.4583,0.4005 L 0.4772,0.4437 L 0.4938,0.4878 L 0.5080,0.5326 L 0.5197,0.5780 L 0.5289,0.6238 L 0.5355,0.6697 L 0.5395,0.7155 L 0.5410,0.7611 L 0.5400,0.8063 L 0.5364,0.8509 L 0.5304,0.8947 L 0.5220,0.9375 L 0.5112,0.9791 L 0.4981,1.0195 L 0.4829,1.0585 L 0.4656,1.0959 L 0.4463,1.1316 L 0.4251,1.1655 L 0.4022,1.1974 L 0.3776,1.2273 L 0.3514,1.2552 L 0.3239,1.2808 L 0.2951,1.3042 L 0.2652,1.3252 L 0.2343,1.3439 L 0.2024,1.3602 L 0.1698,1.3740 L 0.1366,1.3854 L 0.1029,1.3942 L 0.0688,1.4005 L 0.0345,1.4044 L 0.0000,1.4056 L -0.0345,1.4044 L -0.0688,1.4005 L -0.1029,1.3942 L -0.1366,1.3854 L -0.1698,1.3740 L -0.2024,1.3602 L -0.2343,1.3439 L -0.2652,1.3252 L -0.2951,1.3042 L -0.3239,1.2808 L -0.3514,1.2552 L -0.3776,1.2273 L -0.4022,1.1974 L -0.4251,1.1655 L -0.4463,1.1316 L -0.4656,1.0959 L -0.4829,1.0585 L -0.4981,1.0195 L -0.5112,0.9791 L -0.5220,0.9375 L -0.5304,0.8947 L -0.5364,0.8509 L -0.5400,0.8063 L -0.5410,0.7611 L -0.5395,0.7155 L -0.5355,0.6697 L -0.5289,0.6238 L -0.5197,0.5780 L -0.5080,0.5326 L -0.4938,0.4878 L -0.4772,0.4437 L -0.4583,0.4005 L -0.4371,0.3585 L -0.4138,0.3179 L -0.3884,0.2789 L -0.3612,0.2417 L -0.3323,0.2064 L -0.3020,0.1732 L -0.2703,0.1425 L -0.2377,0.1143 L -0.2045,0.0888 L -0.1709,0.0662 L -0.1374,0.0466 L -0.1045,0.0303 L -0.0730,0.0173 L -0.0437,0.0079 L -0.0183,0.0021 L -0.0000,0.0000 Z"/>
        <g id="arrows12">
          <use xlink:href="#arrow1" transform="translate(0.5388,0.7266) rotate(88.79) scale(2.64)"/>
          <use xlink:href="#arrow1" transform="translate(-0.5389,0.7267) rotate(-85.81) scale(2.64)"/>
        </g>
      </g>
      <g id="fieldline13">
        <path d="M 0.0000,0.0000 L 0.0153,0.0021 L 0.0363,0.0078 L 0.0602,0.0171 L 0.0855,0.0298 L 0.1113,0.0457 L 0.1370,0.0646 L 0.1622,0.0862 L 0.1863,0.1103 L 0.2091,0.1367 L 0.2302,0.1651 L 0.2495,0.1953 L 0.2668,0.2270 L 0.2818,0.2600 L 0.2946,0.2939 L 0.3049,0.3286 L 0.3127,0.3637 L 0.3179,0.3990 L 0.3206,0.4343 L 0.3208,0.4692 L 0.3184,0.5036 L 0.3136,0.5372 L 0.3064,0.5698 L 0.2969,0.6012 L 0.2852,0.6312 L 0.2714,0.6596 L 0.2557,0.6863 L 0.2382,0.7111 L 0.2190,0.7338 L 0.1984,0.7544 L 0.1765,0.7728 L 0.1534,0.7889 L 0.1293,0.8026 L 0.1044,0.8138 L 0.0789,0.8227 L 0.0529,0.8290 L 0.0265,0.8328 L -0.0000,0.8340 L -0.0265,0.8328 L -0.0529,0.8290 L -0.0789,0.8227 L -0.1044,0.8138 L -0.1293,0.8026 L -0.1534,0.7889 L -0.1765,0.7728 L -0.1984,0.7544 L -0.2190,0.7338 L -0.2382,0.7111 L -0.2557,0.6863 L -0.2714,0.6596 L -0.2852,0.6312 L -0.2969,0.6012 L -0.3064,0.5698 L -0.3136,0.5372 L -0.3184,0.5036 L -0.3208,0.4692 L -0.3206,0.4343 L -0.3179,0.3990 L -0.3127,0.3637 L -0.3049,0.3286 L -0.2946,0.2939 L -0.2818,0.2600 L -0.2668,0.2270 L -0.2495,0.1953 L -0.2302,0.1651 L -0.2091,0.1367 L -0.1863,0.1103 L -0.1622,0.0862 L -0.1370,0.0646 L -0.1113,0.0457 L -0.0855,0.0298 L -0.0602,0.0171 L -0.0363,0.0078 L -0.0153,0.0021 L -0.0000,0.0000 Z"/>
        <g id="arrows13">
          <use xlink:href="#arrow1" transform="translate(0.0003,0.8308) rotate(-175.44) scale(2.64)"/>
        </g>
      </g>
      <g id="fieldline14">
        <path d="M 0.0000,0.0000 L 0.0131,0.0021 L 0.0310,0.0077 L 0.0510,0.0169 L 0.0718,0.0292 L 0.0925,0.0446 L 0.1125,0.0626 L 0.1314,0.0830 L 0.1488,0.1055 L 0.1644,0.1299 L 0.1779,0.1557 L 0.1892,0.1826 L 0.1981,0.2104 L 0.2045,0.2387 L 0.2084,0.2671 L 0.2098,0.2955 L 0.2087,0.3234 L 0.2051,0.3505 L 0.1991,0.3767 L 0.1909,0.4017 L 0.1805,0.4252 L 0.1682,0.4469 L 0.1540,0.4669 L 0.1383,0.4848 L 0.1211,0.5005 L 0.1028,0.5140 L 0.0834,0.5251 L 0.0633,0.5339 L 0.0425,0.5401 L 0.0213,0.5439 L 0.0000,0.5451 L -0.0213,0.5439 L -0.0425,0.5401 L -0.0633,0.5339 L -0.0834,0.5251 L -0.1028,0.5140 L -0.1212,0.5005 L -0.1383,0.4848 L -0.1540,0.4669 L -0.1682,0.4470 L -0.1805,0.4252 L -0.1909,0.4017 L -0.1991,0.3767 L -0.2051,0.3505 L -0.2087,0.3234 L -0.2098,0.2955 L -0.2084,0.2671 L -0.2045,0.2387 L -0.1981,0.2104 L -0.1892,0.1826 L -0.1779,0.1557 L -0.1644,0.1299 L -0.1488,0.1055 L -0.1314,0.0830 L -0.1125,0.0626 L -0.0925,0.0446 L -0.0718,0.0292 L -0.0510,0.0169 L -0.0310,0.0077 L -0.0131,0.0021 L -0.0000,0.0000 Z"/>
        <g id="arrows14">
          <use xlink:href="#arrow1" transform="translate(0.0006,0.5403) rotate(-173.30) scale(2.64)"/>
        </g>
      </g>
      <g id="fieldline15">
        <path d="M 0.0000,0.0000 L 0.0116,0.0021 L 0.0272,0.0077 L 0.0443,0.0167 L 0.0616,0.0288 L 0.0784,0.0437 L 0.0941,0.0609 L 0.1081,0.0802 L 0.1203,0.1012 L 0.1303,0.1234 L 0.1379,0.1465 L 0.1431,0.1702 L 0.1457,0.1939 L 0.1458,0.2174 L 0.1434,0.2403 L 0.1386,0.2623 L 0.1315,0.2830 L 0.1223,0.3022 L 0.1113,0.3196 L 0.0985,0.3351 L 0.0843,0.3484 L 0.0689,0.3595 L 0.0525,0.3682 L 0.0354,0.3744 L 0.0178,0.3782 L 0.0000,0.3794 L -0.0178,0.3782 L -0.0354,0.3744 L -0.0525,0.3682 L -0.0689,0.3595 L -0.0843,0.3484 L -0.0985,0.3351 L -0.1113,0.3196 L -0.1223,0.3022 L -0.1315,0.2830 L -0.1386,0.2623 L -0.1434,0.2403 L -0.1458,0.2174 L -0.1457,0.1939 L -0.1431,0.1702 L -0.1379,0.1465 L -0.1303,0.1234 L -0.1203,0.1012 L -0.1081,0.0802 L -0.0941,0.0609 L -0.0784,0.0437 L -0.0616,0.0288 L -0.0443,0.0167 L -0.0272,0.0077 L -0.0116,0.0021 L -0.0000,0.0000 Z"/>
        <g id="arrows15">
          <use xlink:href="#arrow1" transform="translate(0.0012,0.3726) rotate(-170.49) scale(2.64)"/>
        </g>
      </g>
      <g id="fieldline16">
        <path d="M 0.0000,0.0000 L 0.0102,0.0020 L 0.0238,0.0075 L 0.0385,0.0162 L 0.0529,0.0278 L 0.0664,0.0419 L 0.0785,0.0581 L 0.0886,0.0759 L 0.0966,0.0948 L 0.1023,0.1146 L 0.1054,0.1347 L 0.1061,0.1546 L 0.1044,0.1741 L 0.1002,0.1926 L 0.0939,0.2098 L 0.0855,0.2255 L 0.0754,0.2394 L 0.0638,0.2512 L 0.0509,0.2609 L 0.0370,0.2682 L 0.0225,0.2731 L 0.0076,0.2756 L -0.0075,0.2756 L -0.0225,0.2731 L -0.0370,0.2682 L -0.0509,0.2609 L -0.0638,0.2512 L -0.0754,0.2394 L -0.0855,0.2255 L -0.0939,0.2098 L -0.1002,0.1926 L -0.1044,0.1741 L -0.1061,0.1546 L -0.1054,0.1347 L -0.1023,0.1146 L -0.0966,0.0948 L -0.0886,0.0759 L -0.0785,0.0581 L -0.0664,0.0419 L -0.0529,0.0278 L -0.0385,0.0162 L -0.0238,0.0075 L -0.0102,0.0020 L -0.0000,0.0000 Z"/>
        <g id="arrows16">
          <use xlink:href="#arrow1" transform="translate(0.0020,0.2670) rotate(-167.07) scale(2.64)"/>
        </g>
      </g>
    </g>
    <g id="symbols">
      <g id="dipole_symbol" transform="scale(0.015,0.015)">
        <defs>
          <radialGradient cy="0.7" cx="0.65" r="0.75" id="light_spot">
            <stop stop-color="#fff" offset="0"/>
            <stop stop-color="#ddd" offset="0.15"/>
            <stop stop-color="#aaa" offset="0.7"/>
            <stop stop-color="#444" offset="1"/>
          </radialGradient>
        </defs>
        <circle cy="0" cx="0" r="14" style="fill:url(#light_spot); stroke:#000000; stroke-width:2"/>
        <path style="fill:#000000; stroke:none" d="M -8,2 H 0 V 8 L 10,0 L 0,-8 V -2 H -8 V 2 Z"/>
      </g>
    </g>
  </g>
</svg>
